<?xml version="1.0" encoding="utf-8"?>
<!-- Generator: Adobe Illustrator 24.2.0, SVG Export Plug-In . SVG Version: 6.00 Build 0)  -->
<svg version="1.1" id="grafico_5" xmlns="http://www.w3.org/2000/svg" xmlns:xlink="http://www.w3.org/1999/xlink" x="0px" y="0px"
	 viewBox="0 0 620 400" style="enable-background:new 0 0 620 400;" xml:space="preserve">
<style type="text/css">
	.st0{fill:#F1F2F2;}
	.st1{fill:#7495DA;}
	.st2{fill:#F3E3FD;}
	.st3{fill:#FF3657;}
	.st4{fill:#13C2A5;}
	.st5{fill:#FEFF01;}
	.st6{fill:#CC9AFD;}
	.st7{fill:#413E3E;}
	.st8{font-family:'Montserrat-Regular';}
	.st9{font-size:18px;}
</style>
<circle class="st0" cx="185" cy="200" r="160"/>
<path class="st0" d="M590,399H401.3c-5.3,0-20.4-2.1-24.2-5.9L184.3,200L377.2,9.8c3.7-3.7,18.8-5.8,24-5.8H590c5.5,0,10,4.5,10,10
	v375C600,394.5,595.5,399,590,399z"/>
<path class="st1" d="M400,31.6h-4c-1.7,0-3-1.3-3-3v-4c0-1.7,1.3-3,3-3h4c1.7,0,3,1.3,3,3v4C403,30.3,401.7,31.6,400,31.6z"/>
<path class="st2" d="M400,74.6h-4c-1.7,0-3-1.3-3-3v-4c0-1.7,1.3-3,3-3h4c1.7,0,3,1.3,3,3v4C403,73.3,401.7,74.6,400,74.6z"/>
<path class="st3" d="M400,161.6h-4c-1.7,0-3-1.3-3-3v-4c0-1.7,1.3-3,3-3h4c1.7,0,3,1.3,3,3v4C403,160.3,401.7,161.6,400,161.6z"/>
<path class="st4" d="M400,225.6h-4c-1.7,0-3-1.3-3-3v-4c0-1.7,1.3-3,3-3h4c1.7,0,3,1.3,3,3v4C403,224.3,401.7,225.6,400,225.6z"/>
<path class="st5" d="M400,289.6h-4c-1.7,0-3-1.3-3-3v-4c0-1.7,1.3-3,3-3h4c1.7,0,3,1.3,3,3v4C403,288.3,401.7,289.6,400,289.6z"/>
<path class="st6" d="M400,333.6h-4c-1.7,0-3-1.3-3-3v-4c0-1.7,1.3-3,3-3h4c1.7,0,3,1.3,3,3v4C403,332.3,401.7,333.6,400,333.6z"/>
<path class="st7" d="M423.6,21c0.9,0.8,1.4,1.8,1.4,3.2c0,1.3-0.5,2.4-1.4,3.2c-0.9,0.8-2.2,1.1-3.8,1.1h-3.4v4h-1.3V19.9h4.7
	C421.4,19.9,422.7,20.3,423.6,21z M422.6,26.5c0.7-0.5,1-1.3,1-2.3c0-1-0.3-1.8-1-2.3c-0.7-0.5-1.6-0.8-2.9-0.8h-3.3v6.3h3.3
	C421,27.3,422,27.1,422.6,26.5z"/>
<path class="st7" d="M429.9,23.4c0.6-0.3,1.3-0.5,2.2-0.5v1.2l-0.3,0c-1,0-1.8,0.3-2.3,0.9c-0.6,0.6-0.8,1.5-0.8,2.6v4.8h-1.3V23
	h1.2v1.9C428.8,24.2,429.3,23.8,429.9,23.4z"/>
<path class="st7" d="M435.7,32c-0.7-0.4-1.3-1-1.7-1.7c-0.4-0.7-0.6-1.6-0.6-2.5c0-0.9,0.2-1.8,0.6-2.5c0.4-0.7,1-1.3,1.7-1.7
	c0.7-0.4,1.6-0.6,2.5-0.6s1.7,0.2,2.5,0.6c0.7,0.4,1.3,1,1.7,1.7c0.4,0.7,0.6,1.6,0.6,2.5c0,0.9-0.2,1.8-0.6,2.5
	c-0.4,0.7-1,1.3-1.7,1.7c-0.7,0.4-1.6,0.6-2.5,0.6S436.4,32.4,435.7,32z M440,31c0.5-0.3,1-0.7,1.3-1.3c0.3-0.6,0.5-1.2,0.5-1.9
	c0-0.7-0.2-1.4-0.5-1.9c-0.3-0.6-0.7-1-1.3-1.3c-0.5-0.3-1.1-0.5-1.8-0.5s-1.3,0.2-1.8,0.5c-0.5,0.3-1,0.7-1.3,1.3
	c-0.3,0.6-0.5,1.2-0.5,1.9c0,0.7,0.2,1.4,0.5,1.9c0.3,0.6,0.7,1,1.3,1.3c0.5,0.3,1.1,0.5,1.8,0.5S439.4,31.3,440,31z"/>
<path class="st7" d="M454.2,19.1v13.4H453v-1.9c-0.4,0.6-0.9,1.1-1.5,1.5c-0.6,0.3-1.3,0.5-2.1,0.5c-0.9,0-1.7-0.2-2.4-0.6
	c-0.7-0.4-1.3-1-1.7-1.7c-0.4-0.7-0.6-1.6-0.6-2.5c0-0.9,0.2-1.8,0.6-2.5c0.4-0.7,1-1.3,1.7-1.7c0.7-0.4,1.5-0.6,2.4-0.6
	c0.8,0,1.5,0.2,2.1,0.5c0.6,0.3,1.1,0.8,1.5,1.4v-5.7H454.2z M451.2,31c0.5-0.3,1-0.7,1.3-1.3c0.3-0.6,0.5-1.2,0.5-1.9
	c0-0.7-0.2-1.4-0.5-1.9c-0.3-0.6-0.7-1-1.3-1.3c-0.5-0.3-1.1-0.5-1.8-0.5c-0.7,0-1.3,0.2-1.8,0.5c-0.5,0.3-1,0.7-1.3,1.3
	c-0.3,0.6-0.5,1.2-0.5,1.9c0,0.7,0.2,1.4,0.5,1.9c0.3,0.6,0.7,1,1.3,1.3c0.5,0.3,1.1,0.5,1.8,0.5C450.1,31.4,450.7,31.3,451.2,31z"
	/>
<path class="st7" d="M466.3,23v9.5h-1.2v-1.7c-0.3,0.6-0.8,1-1.4,1.3c-0.6,0.3-1.3,0.5-2,0.5c-1.2,0-2.2-0.3-2.9-1
	c-0.7-0.7-1.1-1.7-1.1-3V23h1.3v5.4c0,1,0.2,1.8,0.7,2.3s1.2,0.8,2.1,0.8c1,0,1.8-0.3,2.4-0.9c0.6-0.6,0.9-1.4,0.9-2.5v-5H466.3z"/>
<path class="st7" d="M474.9,31.9c-0.2,0.2-0.5,0.4-0.9,0.5c-0.4,0.1-0.7,0.2-1.1,0.2c-0.9,0-1.6-0.2-2.1-0.7c-0.5-0.5-0.7-1.2-0.7-2
	v-5.7h-1.7V23h1.7V21h1.3V23h2.9v1.1h-2.9v5.7c0,0.6,0.1,1,0.4,1.3c0.3,0.3,0.7,0.4,1.2,0.4c0.3,0,0.5,0,0.8-0.1s0.5-0.2,0.6-0.4
	L474.9,31.9z"/>
<path class="st7" d="M478.3,32c-0.7-0.4-1.3-1-1.7-1.7c-0.4-0.7-0.6-1.6-0.6-2.5c0-0.9,0.2-1.8,0.6-2.5c0.4-0.7,1-1.3,1.7-1.7
	c0.7-0.4,1.6-0.6,2.5-0.6c0.9,0,1.7,0.2,2.5,0.6c0.7,0.4,1.3,1,1.7,1.7c0.4,0.7,0.6,1.6,0.6,2.5c0,0.9-0.2,1.8-0.6,2.5
	c-0.4,0.7-1,1.3-1.7,1.7c-0.7,0.4-1.6,0.6-2.5,0.6C479.8,32.6,479,32.4,478.3,32z M482.5,31c0.5-0.3,1-0.7,1.3-1.3
	c0.3-0.6,0.5-1.2,0.5-1.9c0-0.7-0.2-1.4-0.5-1.9c-0.3-0.6-0.7-1-1.3-1.3c-0.5-0.3-1.1-0.5-1.8-0.5c-0.7,0-1.3,0.2-1.8,0.5
	c-0.5,0.3-1,0.7-1.3,1.3c-0.3,0.6-0.5,1.2-0.5,1.9c0,0.7,0.2,1.4,0.5,1.9c0.3,0.6,0.7,1,1.3,1.3s1.1,0.5,1.8,0.5
	C481.4,31.4,482,31.3,482.5,31z"/>
<path class="st7" d="M490.7,23.4c0.6-0.3,1.3-0.5,2.2-0.5v1.2l-0.3,0c-1,0-1.8,0.3-2.3,0.9c-0.6,0.6-0.8,1.5-0.8,2.6v4.8h-1.3V23
	h1.2v1.9C489.7,24.2,490.1,23.8,490.7,23.4z"/>
<path class="st7" d="M424,74.5v1.2h-8.9V63.1h8.6v1.2h-7.3v4.5h6.5v1.1h-6.5v4.7H424z"/>
<path class="st7" d="M441.5,67.2c0.7,0.7,1,1.7,1,3v5.5h-1.3v-5.4c0-1-0.2-1.7-0.7-2.3c-0.5-0.5-1.1-0.8-2-0.8c-1,0-1.8,0.3-2.3,0.9
	c-0.6,0.6-0.8,1.4-0.8,2.5v5H434v-5.4c0-1-0.2-1.7-0.7-2.3c-0.5-0.5-1.1-0.8-2-0.8c-1,0-1.7,0.3-2.3,0.9c-0.6,0.6-0.9,1.4-0.9,2.5v5
	h-1.3v-9.5h1.2V68c0.3-0.6,0.8-1,1.4-1.3c0.6-0.3,1.3-0.5,2.1-0.5c0.8,0,1.5,0.2,2.1,0.5s1,0.8,1.3,1.5c0.3-0.6,0.8-1.1,1.5-1.5
	c0.7-0.4,1.4-0.5,2.2-0.5C439.8,66.2,440.8,66.5,441.5,67.2z"/>
<path class="st7" d="M453.2,66.8c0.7,0.4,1.3,1,1.7,1.7c0.4,0.7,0.6,1.6,0.6,2.5c0,0.9-0.2,1.8-0.6,2.5c-0.4,0.7-1,1.3-1.7,1.7
	s-1.5,0.6-2.4,0.6c-0.8,0-1.5-0.2-2.1-0.5c-0.6-0.3-1.1-0.8-1.5-1.4v5.3h-1.3v-13h1.2v1.9c0.4-0.6,0.9-1.1,1.5-1.4s1.3-0.5,2.1-0.5
	C451.7,66.2,452.5,66.4,453.2,66.8z M452.5,74.2c0.5-0.3,1-0.7,1.3-1.3c0.3-0.6,0.5-1.2,0.5-1.9c0-0.7-0.2-1.4-0.5-1.9
	c-0.3-0.6-0.7-1-1.3-1.3c-0.5-0.3-1.1-0.5-1.8-0.5c-0.7,0-1.3,0.2-1.8,0.5c-0.5,0.3-1,0.7-1.3,1.3c-0.3,0.6-0.5,1.2-0.5,1.9
	c0,0.7,0.2,1.4,0.5,1.9c0.3,0.6,0.7,1,1.3,1.3c0.5,0.3,1.1,0.5,1.8,0.5C451.4,74.6,452,74.5,452.5,74.2z"/>
<path class="st7" d="M460.7,66.6c0.6-0.3,1.3-0.5,2.2-0.5v1.2l-0.3,0c-1,0-1.8,0.3-2.3,0.9c-0.6,0.6-0.8,1.5-0.8,2.6v4.8h-1.3v-9.5
	h1.2v1.9C459.7,67.4,460.1,67,460.7,66.6z"/>
<path class="st7" d="M473.4,71.4h-7.9c0.1,1,0.5,1.8,1.1,2.4c0.7,0.6,1.5,0.9,2.6,0.9c0.6,0,1.1-0.1,1.6-0.3
	c0.5-0.2,0.9-0.5,1.3-0.9l0.7,0.8c-0.4,0.5-0.9,0.9-1.6,1.2s-1.3,0.4-2.1,0.4c-1,0-1.8-0.2-2.6-0.6s-1.3-1-1.8-1.7
	c-0.4-0.7-0.6-1.6-0.6-2.5c0-0.9,0.2-1.8,0.6-2.5c0.4-0.7,1-1.3,1.7-1.7s1.5-0.6,2.4-0.6c0.9,0,1.7,0.2,2.4,0.6s1.2,1,1.6,1.7
	c0.4,0.7,0.6,1.6,0.6,2.5L473.4,71.4z M466.5,68.1c-0.6,0.6-1,1.3-1.1,2.3h6.7c-0.1-0.9-0.4-1.7-1.1-2.3c-0.6-0.6-1.4-0.9-2.3-0.9
	C467.9,67.3,467.1,67.5,466.5,68.1z"/>
<path class="st7" d="M484.2,71.4h-7.9c0.1,1,0.4,1.8,1.1,2.4c0.7,0.6,1.5,0.9,2.6,0.9c0.6,0,1.1-0.1,1.6-0.3
	c0.5-0.2,0.9-0.5,1.3-0.9l0.7,0.8c-0.4,0.5-0.9,0.9-1.6,1.2s-1.3,0.4-2.1,0.4c-1,0-1.8-0.2-2.6-0.6s-1.3-1-1.8-1.7
	c-0.4-0.7-0.6-1.6-0.6-2.5c0-0.9,0.2-1.8,0.6-2.5c0.4-0.7,1-1.3,1.7-1.7s1.5-0.6,2.4-0.6s1.7,0.2,2.4,0.6c0.7,0.4,1.2,1,1.6,1.7
	c0.4,0.7,0.6,1.6,0.6,2.5L484.2,71.4z M477.4,68.1c-0.6,0.6-1,1.3-1.1,2.3h6.7c-0.1-0.9-0.4-1.7-1.1-2.3c-0.6-0.6-1.4-0.9-2.3-0.9
	C478.8,67.3,478,67.5,477.4,68.1z"/>
<path class="st7" d="M494.5,67.2c0.7,0.7,1.1,1.7,1.1,3v5.5h-1.3v-5.4c0-1-0.2-1.7-0.7-2.3c-0.5-0.5-1.2-0.8-2.1-0.8
	c-1,0-1.8,0.3-2.4,0.9c-0.6,0.6-0.9,1.4-0.9,2.5v5h-1.3v-9.5h1.2V68c0.3-0.6,0.8-1,1.4-1.3c0.6-0.3,1.3-0.5,2.2-0.5
	C492.9,66.2,493.8,66.5,494.5,67.2z"/>
<path class="st7" d="M507.7,62.3v13.4h-1.2v-1.9c-0.4,0.6-0.9,1.1-1.5,1.5s-1.3,0.5-2.1,0.5c-0.9,0-1.7-0.2-2.4-0.6
	c-0.7-0.4-1.3-1-1.7-1.7c-0.4-0.7-0.6-1.6-0.6-2.5c0-0.9,0.2-1.8,0.6-2.5c0.4-0.7,1-1.3,1.7-1.7c0.7-0.4,1.5-0.6,2.4-0.6
	c0.8,0,1.5,0.2,2.1,0.5c0.6,0.3,1.1,0.8,1.5,1.4v-5.7H507.7z M504.8,74.2c0.5-0.3,1-0.7,1.3-1.3c0.3-0.6,0.5-1.2,0.5-1.9
	c0-0.7-0.2-1.4-0.5-1.9c-0.3-0.6-0.7-1-1.3-1.3c-0.5-0.3-1.1-0.5-1.8-0.5c-0.7,0-1.3,0.2-1.8,0.5c-0.5,0.3-1,0.7-1.3,1.3
	c-0.3,0.6-0.5,1.2-0.5,1.9c0,0.7,0.2,1.4,0.5,1.9c0.3,0.6,0.7,1,1.3,1.3s1.1,0.5,1.8,0.5C503.6,74.6,504.2,74.5,504.8,74.2z"/>
<path class="st7" d="M519.5,71.4h-7.9c0.1,1,0.4,1.8,1.1,2.4c0.7,0.6,1.5,0.9,2.6,0.9c0.6,0,1.1-0.1,1.6-0.3
	c0.5-0.2,0.9-0.5,1.3-0.9l0.7,0.8c-0.4,0.5-0.9,0.9-1.6,1.2s-1.3,0.4-2.1,0.4c-1,0-1.8-0.2-2.6-0.6s-1.3-1-1.8-1.7
	c-0.4-0.7-0.6-1.6-0.6-2.5c0-0.9,0.2-1.8,0.6-2.5c0.4-0.7,1-1.3,1.7-1.7s1.5-0.6,2.4-0.6s1.7,0.2,2.4,0.6c0.7,0.4,1.2,1,1.6,1.7
	c0.4,0.7,0.6,1.6,0.6,2.5L519.5,71.4z M512.7,68.1c-0.6,0.6-1,1.3-1.1,2.3h6.7c-0.1-0.9-0.4-1.7-1.1-2.3c-0.6-0.6-1.4-0.9-2.3-0.9
	C514.1,67.3,513.3,67.5,512.7,68.1z"/>
<path class="st7" d="M530.8,62.3v13.4h-1.2v-1.9c-0.4,0.6-0.9,1.1-1.5,1.5s-1.3,0.5-2.1,0.5c-0.9,0-1.7-0.2-2.4-0.6
	c-0.7-0.4-1.3-1-1.7-1.7c-0.4-0.7-0.6-1.6-0.6-2.5c0-0.9,0.2-1.8,0.6-2.5c0.4-0.7,1-1.3,1.7-1.7c0.7-0.4,1.5-0.6,2.4-0.6
	c0.8,0,1.5,0.2,2.1,0.5c0.6,0.3,1.1,0.8,1.5,1.4v-5.7H530.8z M527.8,74.2c0.5-0.3,1-0.7,1.3-1.3c0.3-0.6,0.5-1.2,0.5-1.9
	c0-0.7-0.2-1.4-0.5-1.9c-0.3-0.6-0.7-1-1.3-1.3c-0.5-0.3-1.1-0.5-1.8-0.5c-0.7,0-1.3,0.2-1.8,0.5c-0.5,0.3-1,0.7-1.3,1.3
	c-0.3,0.6-0.5,1.2-0.5,1.9c0,0.7,0.2,1.4,0.5,1.9c0.3,0.6,0.7,1,1.3,1.3s1.1,0.5,1.8,0.5C526.7,74.6,527.3,74.5,527.8,74.2z"/>
<path class="st7" d="M535.8,75.2c-0.7-0.4-1.3-1-1.7-1.7c-0.4-0.7-0.6-1.6-0.6-2.5c0-0.9,0.2-1.8,0.6-2.5c0.4-0.7,1-1.3,1.7-1.7
	c0.7-0.4,1.6-0.6,2.5-0.6c0.9,0,1.7,0.2,2.5,0.6c0.7,0.4,1.3,1,1.7,1.7c0.4,0.7,0.6,1.6,0.6,2.5c0,0.9-0.2,1.8-0.6,2.5
	c-0.4,0.7-1,1.3-1.7,1.7c-0.7,0.4-1.6,0.6-2.5,0.6C537.3,75.8,536.5,75.6,535.8,75.2z M540.1,74.2c0.5-0.3,1-0.7,1.3-1.3
	c0.3-0.6,0.5-1.2,0.5-1.9c0-0.7-0.2-1.4-0.5-1.9c-0.3-0.6-0.7-1-1.3-1.3c-0.5-0.3-1.1-0.5-1.8-0.5c-0.7,0-1.3,0.2-1.8,0.5
	c-0.5,0.3-1,0.7-1.3,1.3c-0.3,0.6-0.5,1.2-0.5,1.9c0,0.7,0.2,1.4,0.5,1.9c0.3,0.6,0.7,1,1.3,1.3s1.1,0.5,1.8,0.5
	C538.9,74.6,539.5,74.5,540.1,74.2z"/>
<path class="st7" d="M548.2,66.6c0.6-0.3,1.3-0.5,2.2-0.5v1.2l-0.3,0c-1,0-1.8,0.3-2.3,0.9c-0.6,0.6-0.8,1.5-0.8,2.6v4.8h-1.3v-9.5
	h1.2v1.9C547.2,67.4,547.6,67,548.2,66.6z"/>
<path class="st7" d="M416.7,85.4c-0.3,0.3-0.4,0.7-0.4,1.3v1.1h2.9v1.1h-2.9v8.4H415v-8.4h-1.7v-1.1h1.7v-1.2c0-0.9,0.2-1.5,0.7-2.1
	c0.5-0.5,1.2-0.8,2.1-0.8c0.4,0,0.7,0.1,1,0.2c0.3,0.1,0.6,0.2,0.8,0.4l-0.4,1c-0.4-0.3-0.8-0.5-1.4-0.5
	C417.4,84.9,417,85.1,416.7,85.4z M422.3,85.5c-0.2-0.2-0.3-0.4-0.3-0.6c0-0.2,0.1-0.5,0.3-0.6c0.2-0.2,0.4-0.3,0.7-0.3
	c0.3,0,0.5,0.1,0.7,0.3c0.2,0.2,0.3,0.4,0.3,0.6c0,0.3-0.1,0.5-0.3,0.7c-0.2,0.2-0.4,0.3-0.7,0.3C422.7,85.8,422.5,85.7,422.3,85.5z
	 M422.3,87.8h1.3v9.5h-1.3V87.8z"/>
<path class="st7" d="M434.8,88.8c0.7,0.7,1.1,1.7,1.1,3v5.5h-1.3v-5.4c0-1-0.2-1.7-0.7-2.3c-0.5-0.5-1.2-0.8-2.1-0.8
	c-1,0-1.8,0.3-2.4,0.9c-0.6,0.6-0.9,1.4-0.9,2.5v5h-1.3v-9.5h1.2v1.7c0.3-0.6,0.8-1,1.4-1.3c0.6-0.3,1.3-0.5,2.2-0.5
	C433.2,87.8,434.1,88.1,434.8,88.8z"/>
<path class="st7" d="M445.5,88.7c0.7,0.6,1,1.5,1,2.7v5.9h-1.2v-1.5c-0.3,0.5-0.7,0.9-1.3,1.2c-0.6,0.3-1.2,0.4-2,0.4
	c-1.1,0-1.9-0.3-2.5-0.8s-0.9-1.2-0.9-2c0-0.8,0.3-1.5,0.9-1.9c0.6-0.5,1.5-0.7,2.8-0.7h3v-0.6c0-0.8-0.2-1.4-0.7-1.9
	s-1.1-0.6-2-0.6c-0.6,0-1.2,0.1-1.7,0.3s-1,0.5-1.4,0.8l-0.6-1c0.5-0.4,1.1-0.7,1.7-0.9c0.7-0.2,1.4-0.3,2.1-0.3
	C443.9,87.8,444.9,88.1,445.5,88.7z M444.1,95.9c0.5-0.3,0.9-0.8,1.2-1.4v-1.5h-3c-1.6,0-2.4,0.6-2.4,1.7c0,0.6,0.2,1,0.6,1.3
	c0.4,0.3,1,0.5,1.8,0.5C443,96.4,443.6,96.2,444.1,95.9z"/>
<path class="st7" d="M457.7,88.8c0.7,0.7,1.1,1.7,1.1,3v5.5h-1.3v-5.4c0-1-0.2-1.7-0.7-2.3c-0.5-0.5-1.2-0.8-2.1-0.8
	c-1,0-1.8,0.3-2.4,0.9c-0.6,0.6-0.9,1.4-0.9,2.5v5H450v-9.5h1.2v1.7c0.3-0.6,0.8-1,1.4-1.3c0.6-0.3,1.3-0.5,2.2-0.5
	C456,87.8,457,88.1,457.7,88.8z"/>
<path class="st7" d="M463.6,96.8c-0.7-0.4-1.3-1-1.7-1.7c-0.4-0.7-0.6-1.6-0.6-2.5c0-0.9,0.2-1.8,0.6-2.5c0.4-0.7,1-1.3,1.7-1.7
	s1.6-0.6,2.5-0.6c0.8,0,1.5,0.2,2.2,0.5c0.6,0.3,1.1,0.8,1.5,1.4l-1,0.6c-0.3-0.5-0.7-0.8-1.2-1.1c-0.5-0.2-1-0.4-1.6-0.4
	c-0.7,0-1.3,0.2-1.8,0.5c-0.5,0.3-1,0.7-1.3,1.3c-0.3,0.6-0.5,1.2-0.5,1.9c0,0.7,0.2,1.4,0.5,1.9c0.3,0.6,0.7,1,1.3,1.3
	s1.2,0.5,1.8,0.5c0.6,0,1.1-0.1,1.6-0.3c0.5-0.2,0.9-0.6,1.2-1l1,0.6c-0.4,0.6-0.9,1.1-1.5,1.4c-0.6,0.3-1.4,0.5-2.2,0.5
	C465.2,97.4,464.4,97.2,463.6,96.8z"/>
<path class="st7" d="M472.3,85.5c-0.2-0.2-0.3-0.4-0.3-0.6c0-0.2,0.1-0.5,0.3-0.6c0.2-0.2,0.4-0.3,0.7-0.3c0.3,0,0.5,0.1,0.7,0.3
	c0.2,0.2,0.3,0.4,0.3,0.6c0,0.3-0.1,0.5-0.3,0.7c-0.2,0.2-0.4,0.3-0.7,0.3C472.7,85.8,472.5,85.7,472.3,85.5z M472.3,87.8h1.3v9.5
	h-1.3V87.8z"/>
<path class="st7" d="M483.3,88.7c0.7,0.6,1,1.5,1,2.7v5.9h-1.2v-1.5c-0.3,0.5-0.7,0.9-1.3,1.2c-0.6,0.3-1.2,0.4-2,0.4
	c-1.1,0-1.9-0.3-2.5-0.8s-0.9-1.2-0.9-2c0-0.8,0.3-1.5,0.9-1.9c0.6-0.5,1.5-0.7,2.8-0.7h3v-0.6c0-0.8-0.2-1.4-0.7-1.9
	s-1.1-0.6-2-0.6c-0.6,0-1.2,0.1-1.7,0.3c-0.6,0.2-1,0.5-1.4,0.8l-0.6-1c0.5-0.4,1.1-0.7,1.7-0.9c0.7-0.2,1.4-0.3,2.1-0.3
	C481.7,87.8,482.7,88.1,483.3,88.7z M481.9,95.9c0.5-0.3,0.9-0.8,1.2-1.4v-1.5h-3c-1.6,0-2.4,0.6-2.4,1.7c0,0.6,0.2,1,0.6,1.3
	c0.4,0.3,1,0.5,1.8,0.5C480.8,96.4,481.4,96.2,481.9,95.9z"/>
<path class="st7" d="M496.5,83.9v13.4h-1.2v-1.9c-0.4,0.6-0.9,1.1-1.5,1.5s-1.3,0.5-2.1,0.5c-0.9,0-1.7-0.2-2.4-0.6
	c-0.7-0.4-1.3-1-1.7-1.7c-0.4-0.7-0.6-1.6-0.6-2.5c0-0.9,0.2-1.8,0.6-2.5c0.4-0.7,1-1.3,1.7-1.7c0.7-0.4,1.5-0.6,2.4-0.6
	c0.8,0,1.5,0.2,2.1,0.5c0.6,0.3,1.1,0.8,1.5,1.4v-5.7H496.5z M493.5,95.8c0.5-0.3,1-0.7,1.3-1.3c0.3-0.6,0.5-1.2,0.5-1.9
	c0-0.7-0.2-1.4-0.5-1.9c-0.3-0.6-0.7-1-1.3-1.3c-0.5-0.3-1.1-0.5-1.8-0.5c-0.7,0-1.3,0.2-1.8,0.5c-0.5,0.3-1,0.7-1.3,1.3
	c-0.3,0.6-0.5,1.2-0.5,1.9c0,0.7,0.2,1.4,0.5,1.9c0.3,0.6,0.7,1,1.3,1.3s1.1,0.5,1.8,0.5C492.4,96.2,493,96.1,493.5,95.8z"/>
<path class="st7" d="M501.5,96.8c-0.7-0.4-1.3-1-1.7-1.7c-0.4-0.7-0.6-1.6-0.6-2.5c0-0.9,0.2-1.8,0.6-2.5c0.4-0.7,1-1.3,1.7-1.7
	c0.7-0.4,1.6-0.6,2.5-0.6c0.9,0,1.7,0.2,2.5,0.6c0.7,0.4,1.3,1,1.7,1.7c0.4,0.7,0.6,1.6,0.6,2.5c0,0.9-0.2,1.8-0.6,2.5
	c-0.4,0.7-1,1.3-1.7,1.7c-0.7,0.4-1.6,0.6-2.5,0.6C503,97.4,502.2,97.2,501.5,96.8z M505.7,95.8c0.5-0.3,1-0.7,1.3-1.3
	c0.3-0.6,0.5-1.2,0.5-1.9c0-0.7-0.2-1.4-0.5-1.9c-0.3-0.6-0.7-1-1.3-1.3c-0.5-0.3-1.1-0.5-1.8-0.5c-0.7,0-1.3,0.2-1.8,0.5
	c-0.5,0.3-1,0.7-1.3,1.3c-0.3,0.6-0.5,1.2-0.5,1.9c0,0.7,0.2,1.4,0.5,1.9c0.3,0.6,0.7,1,1.3,1.3s1.1,0.5,1.8,0.5
	C504.6,96.2,505.2,96.1,505.7,95.8z"/>
<path class="st7" d="M513.9,88.2c0.6-0.3,1.3-0.5,2.2-0.5V89l-0.3,0c-1,0-1.8,0.3-2.3,0.9c-0.6,0.6-0.8,1.5-0.8,2.6v4.8h-1.3v-9.5
	h1.2v1.9C512.9,89,513.3,88.6,513.9,88.2z"/>
<path class="st7" d="M415.4,118.6c-0.4-1.4-0.5-3-0.5-4.6c0-1.6,0.2-3.2,0.5-4.6c0.4-1.4,0.9-2.7,1.5-3.8h1.2
	c-0.7,1.2-1.2,2.5-1.6,3.9c-0.3,1.4-0.5,2.9-0.5,4.5s0.2,3.1,0.5,4.5s0.8,2.7,1.6,3.9H417C416.3,121.3,415.8,120,415.4,118.6z"/>
<path class="st7" d="M422.1,118.4c-0.7-0.4-1.3-1-1.7-1.7c-0.4-0.7-0.6-1.6-0.6-2.5c0-0.9,0.2-1.8,0.6-2.5c0.4-0.7,1-1.3,1.7-1.7
	s1.6-0.6,2.5-0.6c0.8,0,1.5,0.2,2.2,0.5c0.6,0.3,1.1,0.8,1.5,1.4l-1,0.6c-0.3-0.5-0.7-0.8-1.2-1.1c-0.5-0.2-1-0.4-1.6-0.4
	c-0.7,0-1.3,0.2-1.8,0.5c-0.5,0.3-1,0.7-1.3,1.3c-0.3,0.6-0.5,1.2-0.5,1.9c0,0.7,0.2,1.4,0.5,1.9c0.3,0.6,0.7,1,1.3,1.3
	s1.2,0.5,1.8,0.5c0.6,0,1.1-0.1,1.6-0.3c0.5-0.2,0.9-0.6,1.2-1l1,0.6c-0.4,0.6-0.9,1.1-1.5,1.4c-0.6,0.3-1.4,0.5-2.2,0.5
	C423.7,119,422.9,118.8,422.1,118.4z"/>
<path class="st7" d="M433.4,109.8c0.6-0.3,1.3-0.5,2.2-0.5v1.2l-0.3,0c-1,0-1.8,0.3-2.3,0.9c-0.6,0.6-0.8,1.5-0.8,2.6v4.8h-1.3v-9.5
	h1.2v1.9C432.4,110.6,432.8,110.2,433.4,109.8z"/>
<path class="st7" d="M439.2,118.4c-0.7-0.4-1.3-1-1.7-1.7c-0.4-0.7-0.6-1.6-0.6-2.5c0-0.9,0.2-1.8,0.6-2.5c0.4-0.7,1-1.3,1.7-1.7
	c0.7-0.4,1.6-0.6,2.5-0.6s1.7,0.2,2.5,0.6c0.7,0.4,1.3,1,1.7,1.7c0.4,0.7,0.6,1.6,0.6,2.5c0,0.9-0.2,1.8-0.6,2.5
	c-0.4,0.7-1,1.3-1.7,1.7c-0.7,0.4-1.6,0.6-2.5,0.6S440,118.8,439.2,118.4z M443.5,117.4c0.5-0.3,1-0.7,1.3-1.3
	c0.3-0.6,0.5-1.2,0.5-1.9c0-0.7-0.2-1.4-0.5-1.9c-0.3-0.6-0.7-1-1.3-1.3c-0.5-0.3-1.1-0.5-1.8-0.5s-1.3,0.2-1.8,0.5
	c-0.5,0.3-1,0.7-1.3,1.3c-0.3,0.6-0.5,1.2-0.5,1.9c0,0.7,0.2,1.4,0.5,1.9c0.3,0.6,0.7,1,1.3,1.3s1.1,0.5,1.8,0.5
	S443,117.7,443.5,117.4z"/>
<path class="st7" d="M462.8,109.4l-3.6,9.5H458l-3-7.8l-3,7.8h-1.2l-3.6-9.5h1.2l3,8l3-8h1.1l3,8l3-8H462.8z"/>
<path class="st7" d="M473.1,105.5v13.4h-1.2V117c-0.4,0.6-0.9,1.1-1.5,1.5c-0.6,0.3-1.3,0.5-2.1,0.5c-0.9,0-1.7-0.2-2.4-0.6
	c-0.7-0.4-1.3-1-1.7-1.7c-0.4-0.7-0.6-1.6-0.6-2.5c0-0.9,0.2-1.8,0.6-2.5c0.4-0.7,1-1.3,1.7-1.7c0.7-0.4,1.5-0.6,2.4-0.6
	c0.8,0,1.5,0.2,2.1,0.5c0.6,0.3,1.1,0.8,1.5,1.4v-5.7H473.1z M470.1,117.4c0.5-0.3,1-0.7,1.3-1.3c0.3-0.6,0.5-1.2,0.5-1.9
	c0-0.7-0.2-1.4-0.5-1.9c-0.3-0.6-0.7-1-1.3-1.3c-0.5-0.3-1.1-0.5-1.8-0.5c-0.7,0-1.3,0.2-1.8,0.5c-0.5,0.3-1,0.7-1.3,1.3
	c-0.3,0.6-0.5,1.2-0.5,1.9c0,0.7,0.2,1.4,0.5,1.9c0.3,0.6,0.7,1,1.3,1.3c0.5,0.3,1.1,0.5,1.8,0.5
	C468.9,117.8,469.5,117.7,470.1,117.4z"/>
<path class="st7" d="M478.5,107c-0.3,0.3-0.4,0.7-0.4,1.3v1.1h2.9v1.1h-2.9v8.4h-1.3v-8.4h-1.7v-1.1h1.7v-1.2c0-0.9,0.2-1.5,0.7-2.1
	c0.5-0.5,1.2-0.8,2.1-0.8c0.4,0,0.7,0.1,1,0.2c0.3,0.1,0.6,0.2,0.8,0.4l-0.4,1c-0.4-0.3-0.8-0.5-1.4-0.5
	C479.2,106.5,478.8,106.7,478.5,107z"/>
<path class="st7" d="M491.3,109.4v9.5H490v-1.7c-0.3,0.6-0.8,1-1.4,1.3c-0.6,0.3-1.3,0.5-2,0.5c-1.2,0-2.2-0.3-2.9-1
	c-0.7-0.7-1.1-1.7-1.1-3v-5.5h1.3v5.4c0,1,0.2,1.8,0.7,2.3s1.2,0.8,2.1,0.8c1,0,1.8-0.3,2.4-0.9c0.6-0.6,0.9-1.4,0.9-2.5v-5H491.3z"
	/>
<path class="st7" d="M502.5,110.4c0.7,0.7,1.1,1.7,1.1,3v5.5h-1.3v-5.4c0-1-0.2-1.7-0.7-2.3c-0.5-0.5-1.2-0.8-2.1-0.8
	c-1,0-1.8,0.3-2.4,0.9c-0.6,0.6-0.9,1.4-0.9,2.5v5h-1.3v-9.5h1.2v1.7c0.3-0.6,0.8-1,1.4-1.3c0.6-0.3,1.3-0.5,2.2-0.5
	C500.8,109.4,501.8,109.7,502.5,110.4z"/>
<path class="st7" d="M515.7,105.5v13.4h-1.2V117c-0.4,0.6-0.9,1.1-1.5,1.5s-1.3,0.5-2.1,0.5c-0.9,0-1.7-0.2-2.4-0.6
	c-0.7-0.4-1.3-1-1.7-1.7c-0.4-0.7-0.6-1.6-0.6-2.5c0-0.9,0.2-1.8,0.6-2.5c0.4-0.7,1-1.3,1.7-1.7c0.7-0.4,1.5-0.6,2.4-0.6
	c0.8,0,1.5,0.2,2.1,0.5c0.6,0.3,1.1,0.8,1.5,1.4v-5.7H515.7z M512.7,117.4c0.5-0.3,1-0.7,1.3-1.3c0.3-0.6,0.5-1.2,0.5-1.9
	c0-0.7-0.2-1.4-0.5-1.9c-0.3-0.6-0.7-1-1.3-1.3c-0.5-0.3-1.1-0.5-1.8-0.5c-0.7,0-1.3,0.2-1.8,0.5c-0.5,0.3-1,0.7-1.3,1.3
	c-0.3,0.6-0.5,1.2-0.5,1.9c0,0.7,0.2,1.4,0.5,1.9c0.3,0.6,0.7,1,1.3,1.3s1.1,0.5,1.8,0.5C511.6,117.8,512.2,117.7,512.7,117.4z"/>
<path class="st7" d="M519.2,107.1c-0.2-0.2-0.3-0.4-0.3-0.6c0-0.2,0.1-0.5,0.3-0.6c0.2-0.2,0.4-0.3,0.7-0.3s0.5,0.1,0.7,0.3
	c0.2,0.2,0.3,0.4,0.3,0.6c0,0.3-0.1,0.5-0.3,0.7c-0.2,0.2-0.4,0.3-0.7,0.3S519.4,107.3,519.2,107.1z M519.3,109.4h1.3v9.5h-1.3
	V109.4z"/>
<path class="st7" d="M531.8,110.4c0.7,0.7,1.1,1.7,1.1,3v5.5h-1.3v-5.4c0-1-0.2-1.7-0.7-2.3c-0.5-0.5-1.2-0.8-2.1-0.8
	c-1,0-1.8,0.3-2.4,0.9c-0.6,0.6-0.9,1.4-0.9,2.5v5h-1.3v-9.5h1.2v1.7c0.3-0.6,0.8-1,1.4-1.3c0.6-0.3,1.3-0.5,2.2-0.5
	C530.1,109.4,531.1,109.7,531.8,110.4z"/>
<path class="st7" d="M545.1,109.4v8.3c0,1.6-0.4,2.8-1.2,3.6c-0.8,0.8-2,1.2-3.6,1.2c-0.9,0-1.7-0.1-2.5-0.4
	c-0.8-0.3-1.4-0.6-1.9-1.1l0.6-1c0.5,0.4,1,0.7,1.7,1c0.7,0.2,1.3,0.3,2.1,0.3c1.2,0,2.1-0.3,2.6-0.8c0.6-0.6,0.8-1.4,0.8-2.6v-1.2
	c-0.4,0.6-0.9,1.1-1.6,1.4c-0.6,0.3-1.4,0.5-2.1,0.5c-0.9,0-1.7-0.2-2.4-0.6c-0.7-0.4-1.3-0.9-1.7-1.6s-0.6-1.5-0.6-2.4
	s0.2-1.7,0.6-2.4s1-1.2,1.7-1.6c0.7-0.4,1.5-0.6,2.4-0.6c0.8,0,1.5,0.2,2.2,0.5c0.6,0.3,1.2,0.8,1.6,1.4v-1.8H545.1z M542.1,117
	c0.6-0.3,1-0.7,1.3-1.2c0.3-0.5,0.5-1.1,0.5-1.8s-0.2-1.3-0.5-1.8c-0.3-0.5-0.7-0.9-1.3-1.2c-0.5-0.3-1.2-0.4-1.9-0.4
	c-0.7,0-1.3,0.1-1.8,0.4c-0.5,0.3-1,0.7-1.3,1.2c-0.3,0.5-0.5,1.1-0.5,1.8s0.2,1.3,0.5,1.8s0.7,0.9,1.3,1.2c0.5,0.3,1.2,0.4,1.8,0.4
	S541.5,117.3,542.1,117z"/>
<path class="st7" d="M547.6,122.4c0.7-1.2,1.2-2.5,1.6-3.9c0.3-1.4,0.5-2.9,0.5-4.5s-0.2-3.1-0.5-4.5s-0.9-2.7-1.6-3.9h1.2
	c0.7,1.1,1.2,2.3,1.6,3.8c0.4,1.4,0.5,3,0.5,4.6c0,1.6-0.2,3.2-0.5,4.6c-0.4,1.4-0.9,2.7-1.6,3.8H547.6z"/>
<path class="st7" d="M424,160.9v1.2h-8.9v-12.6h8.6v1.2h-7.3v4.5h6.5v1.1h-6.5v4.7H424z"/>
<path class="st7" d="M441.5,153.6c0.7,0.7,1,1.7,1,3v5.5h-1.3v-5.4c0-1-0.2-1.7-0.7-2.3c-0.5-0.5-1.1-0.8-2-0.8
	c-1,0-1.8,0.3-2.3,0.9c-0.6,0.6-0.8,1.4-0.8,2.5v5H434v-5.4c0-1-0.2-1.7-0.7-2.3c-0.5-0.5-1.1-0.8-2-0.8c-1,0-1.7,0.3-2.3,0.9
	c-0.6,0.6-0.9,1.4-0.9,2.5v5h-1.3v-9.5h1.2v1.7c0.3-0.6,0.8-1,1.4-1.3c0.6-0.3,1.3-0.5,2.1-0.5c0.8,0,1.5,0.2,2.1,0.5s1,0.8,1.3,1.5
	c0.3-0.6,0.8-1.1,1.5-1.5c0.7-0.4,1.4-0.5,2.2-0.5C439.8,152.6,440.8,152.9,441.5,153.6z"/>
<path class="st7" d="M453.2,153.2c0.7,0.4,1.3,1,1.7,1.7c0.4,0.7,0.6,1.6,0.6,2.5c0,0.9-0.2,1.8-0.6,2.5c-0.4,0.7-1,1.3-1.7,1.7
	s-1.5,0.6-2.4,0.6c-0.8,0-1.5-0.2-2.1-0.5c-0.6-0.3-1.1-0.8-1.5-1.4v5.3h-1.3v-13h1.2v1.9c0.4-0.6,0.9-1.1,1.5-1.4s1.3-0.5,2.1-0.5
	C451.7,152.6,452.5,152.8,453.2,153.2z M452.5,160.6c0.5-0.3,1-0.7,1.3-1.3c0.3-0.6,0.5-1.2,0.5-1.9c0-0.7-0.2-1.4-0.5-1.9
	c-0.3-0.6-0.7-1-1.3-1.3c-0.5-0.3-1.1-0.5-1.8-0.5c-0.7,0-1.3,0.2-1.8,0.5c-0.5,0.3-1,0.7-1.3,1.3c-0.3,0.6-0.5,1.2-0.5,1.9
	c0,0.7,0.2,1.4,0.5,1.9c0.3,0.6,0.7,1,1.3,1.3c0.5,0.3,1.1,0.5,1.8,0.5C451.4,161,452,160.9,452.5,160.6z"/>
<path class="st7" d="M460.7,153c0.6-0.3,1.3-0.5,2.2-0.5v1.2l-0.3,0c-1,0-1.8,0.3-2.3,0.9c-0.6,0.6-0.8,1.5-0.8,2.6v4.8h-1.3v-9.5
	h1.2v1.9C459.7,153.8,460.1,153.4,460.7,153z"/>
<path class="st7" d="M473.4,157.8h-7.9c0.1,1,0.5,1.8,1.1,2.4c0.7,0.6,1.5,0.9,2.6,0.9c0.6,0,1.1-0.1,1.6-0.3
	c0.5-0.2,0.9-0.5,1.3-0.9l0.7,0.8c-0.4,0.5-0.9,0.9-1.6,1.2s-1.3,0.4-2.1,0.4c-1,0-1.8-0.2-2.6-0.6s-1.3-1-1.8-1.7
	c-0.4-0.7-0.6-1.6-0.6-2.5c0-0.9,0.2-1.8,0.6-2.5c0.4-0.7,1-1.3,1.7-1.7s1.5-0.6,2.4-0.6c0.9,0,1.7,0.2,2.4,0.6s1.2,1,1.6,1.7
	c0.4,0.7,0.6,1.6,0.6,2.5L473.4,157.8z M466.5,154.5c-0.6,0.6-1,1.3-1.1,2.3h6.7c-0.1-0.9-0.4-1.7-1.1-2.3c-0.6-0.6-1.4-0.9-2.3-0.9
	C467.9,153.6,467.1,153.9,466.5,154.5z"/>
<path class="st7" d="M484.2,157.8h-7.9c0.1,1,0.4,1.8,1.1,2.4c0.7,0.6,1.5,0.9,2.6,0.9c0.6,0,1.1-0.1,1.6-0.3
	c0.5-0.2,0.9-0.5,1.3-0.9l0.7,0.8c-0.4,0.5-0.9,0.9-1.6,1.2s-1.3,0.4-2.1,0.4c-1,0-1.8-0.2-2.6-0.6s-1.3-1-1.8-1.7
	c-0.4-0.7-0.6-1.6-0.6-2.5c0-0.9,0.2-1.8,0.6-2.5c0.4-0.7,1-1.3,1.7-1.7s1.5-0.6,2.4-0.6s1.7,0.2,2.4,0.6c0.7,0.4,1.2,1,1.6,1.7
	c0.4,0.7,0.6,1.6,0.6,2.5L484.2,157.8z M477.4,154.5c-0.6,0.6-1,1.3-1.1,2.3h6.7c-0.1-0.9-0.4-1.7-1.1-2.3c-0.6-0.6-1.4-0.9-2.3-0.9
	C478.8,153.6,478,153.9,477.4,154.5z"/>
<path class="st7" d="M494.5,153.6c0.7,0.7,1.1,1.7,1.1,3v5.5h-1.3v-5.4c0-1-0.2-1.7-0.7-2.3c-0.5-0.5-1.2-0.8-2.1-0.8
	c-1,0-1.8,0.3-2.4,0.9c-0.6,0.6-0.9,1.4-0.9,2.5v5h-1.3v-9.5h1.2v1.7c0.3-0.6,0.8-1,1.4-1.3c0.6-0.3,1.3-0.5,2.2-0.5
	C492.9,152.6,493.8,152.9,494.5,153.6z"/>
<path class="st7" d="M507.7,148.7v13.4h-1.2v-1.9c-0.4,0.6-0.9,1.1-1.5,1.5s-1.3,0.5-2.1,0.5c-0.9,0-1.7-0.2-2.4-0.6
	c-0.7-0.4-1.3-1-1.7-1.7c-0.4-0.7-0.6-1.6-0.6-2.5c0-0.9,0.2-1.8,0.6-2.5c0.4-0.7,1-1.3,1.7-1.7c0.7-0.4,1.5-0.6,2.4-0.6
	c0.8,0,1.5,0.2,2.1,0.5c0.6,0.3,1.1,0.8,1.5,1.4v-5.7H507.7z M504.8,160.6c0.5-0.3,1-0.7,1.3-1.3c0.3-0.6,0.5-1.2,0.5-1.9
	c0-0.7-0.2-1.4-0.5-1.9c-0.3-0.6-0.7-1-1.3-1.3c-0.5-0.3-1.1-0.5-1.8-0.5c-0.7,0-1.3,0.2-1.8,0.5c-0.5,0.3-1,0.7-1.3,1.3
	c-0.3,0.6-0.5,1.2-0.5,1.9c0,0.7,0.2,1.4,0.5,1.9c0.3,0.6,0.7,1,1.3,1.3s1.1,0.5,1.8,0.5C503.6,161,504.2,160.9,504.8,160.6z"/>
<path class="st7" d="M519.5,157.8h-7.9c0.1,1,0.4,1.8,1.1,2.4c0.7,0.6,1.5,0.9,2.6,0.9c0.6,0,1.1-0.1,1.6-0.3
	c0.5-0.2,0.9-0.5,1.3-0.9l0.7,0.8c-0.4,0.5-0.9,0.9-1.6,1.2s-1.3,0.4-2.1,0.4c-1,0-1.8-0.2-2.6-0.6s-1.3-1-1.8-1.7
	c-0.4-0.7-0.6-1.6-0.6-2.5c0-0.9,0.2-1.8,0.6-2.5c0.4-0.7,1-1.3,1.7-1.7s1.5-0.6,2.4-0.6s1.7,0.2,2.4,0.6c0.7,0.4,1.2,1,1.6,1.7
	c0.4,0.7,0.6,1.6,0.6,2.5L519.5,157.8z M512.7,154.5c-0.6,0.6-1,1.3-1.1,2.3h6.7c-0.1-0.9-0.4-1.7-1.1-2.3c-0.6-0.6-1.4-0.9-2.3-0.9
	C514.1,153.6,513.3,153.9,512.7,154.5z"/>
<path class="st7" d="M530.8,148.7v13.4h-1.2v-1.9c-0.4,0.6-0.9,1.1-1.5,1.5s-1.3,0.5-2.1,0.5c-0.9,0-1.7-0.2-2.4-0.6
	c-0.7-0.4-1.3-1-1.7-1.7c-0.4-0.7-0.6-1.6-0.6-2.5c0-0.9,0.2-1.8,0.6-2.5c0.4-0.7,1-1.3,1.7-1.7c0.7-0.4,1.5-0.6,2.4-0.6
	c0.8,0,1.5,0.2,2.1,0.5c0.6,0.3,1.1,0.8,1.5,1.4v-5.7H530.8z M527.8,160.6c0.5-0.3,1-0.7,1.3-1.3c0.3-0.6,0.5-1.2,0.5-1.9
	c0-0.7-0.2-1.4-0.5-1.9c-0.3-0.6-0.7-1-1.3-1.3c-0.5-0.3-1.1-0.5-1.8-0.5c-0.7,0-1.3,0.2-1.8,0.5c-0.5,0.3-1,0.7-1.3,1.3
	c-0.3,0.6-0.5,1.2-0.5,1.9c0,0.7,0.2,1.4,0.5,1.9c0.3,0.6,0.7,1,1.3,1.3s1.1,0.5,1.8,0.5C526.7,161,527.3,160.9,527.8,160.6z"/>
<path class="st7" d="M535.8,161.6c-0.7-0.4-1.3-1-1.7-1.7c-0.4-0.7-0.6-1.6-0.6-2.5c0-0.9,0.2-1.8,0.6-2.5c0.4-0.7,1-1.3,1.7-1.7
	c0.7-0.4,1.6-0.6,2.5-0.6c0.9,0,1.7,0.2,2.5,0.6c0.7,0.4,1.3,1,1.7,1.7c0.4,0.7,0.6,1.6,0.6,2.5c0,0.9-0.2,1.8-0.6,2.5
	c-0.4,0.7-1,1.3-1.7,1.7c-0.7,0.4-1.6,0.6-2.5,0.6C537.3,162.2,536.5,162,535.8,161.6z M540.1,160.6c0.5-0.3,1-0.7,1.3-1.3
	c0.3-0.6,0.5-1.2,0.5-1.9c0-0.7-0.2-1.4-0.5-1.9c-0.3-0.6-0.7-1-1.3-1.3c-0.5-0.3-1.1-0.5-1.8-0.5c-0.7,0-1.3,0.2-1.8,0.5
	c-0.5,0.3-1,0.7-1.3,1.3c-0.3,0.6-0.5,1.2-0.5,1.9c0,0.7,0.2,1.4,0.5,1.9c0.3,0.6,0.7,1,1.3,1.3s1.1,0.5,1.8,0.5
	C538.9,161,539.5,160.9,540.1,160.6z"/>
<path class="st7" d="M548.2,153c0.6-0.3,1.3-0.5,2.2-0.5v1.2l-0.3,0c-1,0-1.8,0.3-2.3,0.9c-0.6,0.6-0.8,1.5-0.8,2.6v4.8h-1.3v-9.5
	h1.2v1.9C547.2,153.8,547.6,153.4,548.2,153z"/>
<path class="st7" d="M422.8,174.2l-4.2,9.5h-1.3l-4.2-9.5h1.3l3.5,8.1l3.6-8.1H422.8z"/>
<path class="st7" d="M432.5,179.4h-7.9c0.1,1,0.5,1.8,1.1,2.4c0.7,0.6,1.5,0.9,2.6,0.9c0.6,0,1.1-0.1,1.6-0.3
	c0.5-0.2,0.9-0.5,1.3-0.9l0.7,0.8c-0.4,0.5-0.9,0.9-1.6,1.2s-1.3,0.4-2.1,0.4c-1,0-1.8-0.2-2.6-0.6s-1.3-1-1.8-1.7
	c-0.4-0.7-0.6-1.6-0.6-2.5c0-0.9,0.2-1.8,0.6-2.5c0.4-0.7,1-1.3,1.7-1.7s1.5-0.6,2.4-0.6c0.9,0,1.7,0.2,2.4,0.6s1.2,1,1.6,1.7
	c0.4,0.7,0.6,1.6,0.6,2.5L432.5,179.4z M425.7,176.1c-0.6,0.6-1,1.3-1.1,2.3h6.7c-0.1-0.9-0.4-1.7-1.1-2.3c-0.6-0.6-1.4-0.9-2.3-0.9
	C427,175.3,426.3,175.5,425.7,176.1z"/>
<path class="st7" d="M442.8,175.2c0.7,0.7,1.1,1.7,1.1,3v5.5h-1.3v-5.4c0-1-0.2-1.7-0.7-2.3c-0.5-0.5-1.2-0.8-2.1-0.8
	c-1,0-1.8,0.3-2.4,0.9c-0.6,0.6-0.9,1.4-0.9,2.5v5h-1.3v-9.5h1.2v1.7c0.3-0.6,0.8-1,1.4-1.3c0.6-0.3,1.3-0.5,2.2-0.5
	C441.2,174.2,442.1,174.5,442.8,175.2z"/>
<path class="st7" d="M456,170.3v13.4h-1.2v-1.9c-0.4,0.6-0.9,1.1-1.5,1.5c-0.6,0.3-1.3,0.5-2.1,0.5c-0.9,0-1.7-0.2-2.4-0.6
	c-0.7-0.4-1.3-1-1.7-1.7c-0.4-0.7-0.6-1.6-0.6-2.5c0-0.9,0.2-1.8,0.6-2.5c0.4-0.7,1-1.3,1.7-1.7c0.7-0.4,1.5-0.6,2.4-0.6
	c0.8,0,1.5,0.2,2.1,0.5c0.6,0.3,1.1,0.8,1.5,1.4v-5.7H456z M453,182.2c0.5-0.3,1-0.7,1.3-1.3c0.3-0.6,0.5-1.2,0.5-1.9
	c0-0.7-0.2-1.4-0.5-1.9c-0.3-0.6-0.7-1-1.3-1.3c-0.5-0.3-1.1-0.5-1.8-0.5c-0.7,0-1.3,0.2-1.8,0.5c-0.5,0.3-1,0.7-1.3,1.3
	c-0.3,0.6-0.5,1.2-0.5,1.9c0,0.7,0.2,1.4,0.5,1.9c0.3,0.6,0.7,1,1.3,1.3c0.5,0.3,1.1,0.5,1.8,0.5C451.9,182.6,452.5,182.5,453,182.2
	z"/>
<path class="st7" d="M467.8,179.4h-7.9c0.1,1,0.5,1.8,1.1,2.4c0.7,0.6,1.5,0.9,2.6,0.9c0.6,0,1.1-0.1,1.6-0.3
	c0.5-0.2,0.9-0.5,1.3-0.9l0.7,0.8c-0.4,0.5-0.9,0.9-1.6,1.2s-1.3,0.4-2.1,0.4c-1,0-1.8-0.2-2.6-0.6s-1.3-1-1.8-1.7
	c-0.4-0.7-0.6-1.6-0.6-2.5c0-0.9,0.2-1.8,0.6-2.5c0.4-0.7,1-1.3,1.7-1.7s1.5-0.6,2.4-0.6s1.7,0.2,2.4,0.6c0.7,0.4,1.2,1,1.6,1.7
	c0.4,0.7,0.6,1.6,0.6,2.5L467.8,179.4z M461,176.1c-0.6,0.6-1,1.3-1.1,2.3h6.7c-0.1-0.9-0.4-1.7-1.1-2.3c-0.6-0.6-1.4-0.9-2.3-0.9
	C462.3,175.3,461.6,175.5,461,176.1z"/>
<path class="st7" d="M479.1,170.3v13.4h-1.2v-1.9c-0.4,0.6-0.9,1.1-1.5,1.5c-0.6,0.3-1.3,0.5-2.1,0.5c-0.9,0-1.7-0.2-2.4-0.6
	c-0.7-0.4-1.3-1-1.7-1.7c-0.4-0.7-0.6-1.6-0.6-2.5c0-0.9,0.2-1.8,0.6-2.5c0.4-0.7,1-1.3,1.7-1.7c0.7-0.4,1.5-0.6,2.4-0.6
	c0.8,0,1.5,0.2,2.1,0.5c0.6,0.3,1.1,0.8,1.5,1.4v-5.7H479.1z M476.1,182.2c0.5-0.3,1-0.7,1.3-1.3c0.3-0.6,0.5-1.2,0.5-1.9
	c0-0.7-0.2-1.4-0.5-1.9c-0.3-0.6-0.7-1-1.3-1.3c-0.5-0.3-1.1-0.5-1.8-0.5c-0.7,0-1.3,0.2-1.8,0.5c-0.5,0.3-1,0.7-1.3,1.3
	c-0.3,0.6-0.5,1.2-0.5,1.9c0,0.7,0.2,1.4,0.5,1.9c0.3,0.6,0.7,1,1.3,1.3s1.1,0.5,1.8,0.5C475,182.6,475.6,182.5,476.1,182.2z"/>
<path class="st7" d="M484.1,183.2c-0.7-0.4-1.3-1-1.7-1.7c-0.4-0.7-0.6-1.6-0.6-2.5c0-0.9,0.2-1.8,0.6-2.5c0.4-0.7,1-1.3,1.7-1.7
	c0.7-0.4,1.6-0.6,2.5-0.6c0.9,0,1.7,0.2,2.5,0.6c0.7,0.4,1.3,1,1.7,1.7c0.4,0.7,0.6,1.6,0.6,2.5c0,0.9-0.2,1.8-0.6,2.5
	c-0.4,0.7-1,1.3-1.7,1.7c-0.7,0.4-1.6,0.6-2.5,0.6C485.6,183.8,484.8,183.6,484.1,183.2z M488.3,182.2c0.5-0.3,1-0.7,1.3-1.3
	c0.3-0.6,0.5-1.2,0.5-1.9c0-0.7-0.2-1.4-0.5-1.9c-0.3-0.6-0.7-1-1.3-1.3c-0.5-0.3-1.1-0.5-1.8-0.5c-0.7,0-1.3,0.2-1.8,0.5
	c-0.5,0.3-1,0.7-1.3,1.3c-0.3,0.6-0.5,1.2-0.5,1.9c0,0.7,0.2,1.4,0.5,1.9c0.3,0.6,0.7,1,1.3,1.3s1.1,0.5,1.8,0.5
	C487.2,182.6,487.8,182.5,488.3,182.2z"/>
<path class="st7" d="M496.5,174.6c0.6-0.3,1.3-0.5,2.2-0.5v1.2l-0.3,0c-1,0-1.8,0.3-2.3,0.9c-0.6,0.6-0.8,1.5-0.8,2.6v4.8h-1.3v-9.5
	h1.2v1.9C495.5,175.4,495.9,175,496.5,174.6z"/>
<path class="st7" d="M424,225.7v1.2h-8.9v-12.6h8.6v1.2h-7.3v4.5h6.5v1.1h-6.5v4.7H424z"/>
<path class="st7" d="M441.5,218.4c0.7,0.7,1,1.7,1,3v5.5h-1.3v-5.4c0-1-0.2-1.7-0.7-2.3c-0.5-0.5-1.1-0.8-2-0.8
	c-1,0-1.8,0.3-2.3,0.9c-0.6,0.6-0.8,1.4-0.8,2.5v5H434v-5.4c0-1-0.2-1.7-0.7-2.3c-0.5-0.5-1.1-0.8-2-0.8c-1,0-1.7,0.3-2.3,0.9
	c-0.6,0.6-0.9,1.4-0.9,2.5v5h-1.3v-9.5h1.2v1.7c0.3-0.6,0.8-1,1.4-1.3c0.6-0.3,1.3-0.5,2.1-0.5c0.8,0,1.5,0.2,2.1,0.5s1,0.8,1.3,1.5
	c0.3-0.6,0.8-1.1,1.5-1.5c0.7-0.4,1.4-0.5,2.2-0.5C439.8,217.4,440.8,217.7,441.5,218.4z"/>
<path class="st7" d="M453.2,218c0.7,0.4,1.3,1,1.7,1.7c0.4,0.7,0.6,1.6,0.6,2.5c0,0.9-0.2,1.8-0.6,2.5c-0.4,0.7-1,1.3-1.7,1.7
	s-1.5,0.6-2.4,0.6c-0.8,0-1.5-0.2-2.1-0.5c-0.6-0.3-1.1-0.8-1.5-1.4v5.3h-1.3v-13h1.2v1.9c0.4-0.6,0.9-1.1,1.5-1.4s1.3-0.5,2.1-0.5
	C451.7,217.4,452.5,217.6,453.2,218z M452.5,225.4c0.5-0.3,1-0.7,1.3-1.3c0.3-0.6,0.5-1.2,0.5-1.9c0-0.7-0.2-1.4-0.5-1.9
	c-0.3-0.6-0.7-1-1.3-1.3c-0.5-0.3-1.1-0.5-1.8-0.5c-0.7,0-1.3,0.2-1.8,0.5c-0.5,0.3-1,0.7-1.3,1.3c-0.3,0.6-0.5,1.2-0.5,1.9
	c0,0.7,0.2,1.4,0.5,1.9c0.3,0.6,0.7,1,1.3,1.3c0.5,0.3,1.1,0.5,1.8,0.5C451.4,225.8,452,225.7,452.5,225.4z"/>
<path class="st7" d="M460.7,217.8c0.6-0.3,1.3-0.5,2.2-0.5v1.2l-0.3,0c-1,0-1.8,0.3-2.3,0.9c-0.6,0.6-0.8,1.5-0.8,2.6v4.8h-1.3v-9.5
	h1.2v1.9C459.7,218.6,460.1,218.2,460.7,217.8z"/>
<path class="st7" d="M473.4,222.6h-7.9c0.1,1,0.5,1.8,1.1,2.4c0.7,0.6,1.5,0.9,2.6,0.9c0.6,0,1.1-0.1,1.6-0.3
	c0.5-0.2,0.9-0.5,1.3-0.9l0.7,0.8c-0.4,0.5-0.9,0.9-1.6,1.2s-1.3,0.4-2.1,0.4c-1,0-1.8-0.2-2.6-0.6s-1.3-1-1.8-1.7
	c-0.4-0.7-0.6-1.6-0.6-2.5c0-0.9,0.2-1.8,0.6-2.5c0.4-0.7,1-1.3,1.7-1.7s1.5-0.6,2.4-0.6c0.9,0,1.7,0.2,2.4,0.6s1.2,1,1.6,1.7
	c0.4,0.7,0.6,1.6,0.6,2.5L473.4,222.6z M466.5,219.3c-0.6,0.6-1,1.3-1.1,2.3h6.7c-0.1-0.9-0.4-1.7-1.1-2.3c-0.6-0.6-1.4-0.9-2.3-0.9
	C467.9,218.5,467.1,218.7,466.5,219.3z"/>
<path class="st7" d="M484.2,222.6h-7.9c0.1,1,0.4,1.8,1.1,2.4c0.7,0.6,1.5,0.9,2.6,0.9c0.6,0,1.1-0.1,1.6-0.3
	c0.5-0.2,0.9-0.5,1.3-0.9l0.7,0.8c-0.4,0.5-0.9,0.9-1.6,1.2s-1.3,0.4-2.1,0.4c-1,0-1.8-0.2-2.6-0.6s-1.3-1-1.8-1.7
	c-0.4-0.7-0.6-1.6-0.6-2.5c0-0.9,0.2-1.8,0.6-2.5c0.4-0.7,1-1.3,1.7-1.7s1.5-0.6,2.4-0.6s1.7,0.2,2.4,0.6c0.7,0.4,1.2,1,1.6,1.7
	c0.4,0.7,0.6,1.6,0.6,2.5L484.2,222.6z M477.4,219.3c-0.6,0.6-1,1.3-1.1,2.3h6.7c-0.1-0.9-0.4-1.7-1.1-2.3c-0.6-0.6-1.4-0.9-2.3-0.9
	C478.8,218.5,478,218.7,477.4,219.3z"/>
<path class="st7" d="M494.5,218.4c0.7,0.7,1.1,1.7,1.1,3v5.5h-1.3v-5.4c0-1-0.2-1.7-0.7-2.3c-0.5-0.5-1.2-0.8-2.1-0.8
	c-1,0-1.8,0.3-2.4,0.9c-0.6,0.6-0.9,1.4-0.9,2.5v5h-1.3v-9.5h1.2v1.7c0.3-0.6,0.8-1,1.4-1.3c0.6-0.3,1.3-0.5,2.2-0.5
	C492.9,217.4,493.8,217.7,494.5,218.4z"/>
<path class="st7" d="M507.7,213.5v13.4h-1.2V225c-0.4,0.6-0.9,1.1-1.5,1.5s-1.3,0.5-2.1,0.5c-0.9,0-1.7-0.2-2.4-0.6
	c-0.7-0.4-1.3-1-1.7-1.7c-0.4-0.7-0.6-1.6-0.6-2.5c0-0.9,0.2-1.8,0.6-2.5c0.4-0.7,1-1.3,1.7-1.7c0.7-0.4,1.5-0.6,2.4-0.6
	c0.8,0,1.5,0.2,2.1,0.5c0.6,0.3,1.1,0.8,1.5,1.4v-5.7H507.7z M504.8,225.4c0.5-0.3,1-0.7,1.3-1.3c0.3-0.6,0.5-1.2,0.5-1.9
	c0-0.7-0.2-1.4-0.5-1.9c-0.3-0.6-0.7-1-1.3-1.3c-0.5-0.3-1.1-0.5-1.8-0.5c-0.7,0-1.3,0.2-1.8,0.5c-0.5,0.3-1,0.7-1.3,1.3
	c-0.3,0.6-0.5,1.2-0.5,1.9c0,0.7,0.2,1.4,0.5,1.9c0.3,0.6,0.7,1,1.3,1.3s1.1,0.5,1.8,0.5C503.6,225.8,504.2,225.7,504.8,225.4z"/>
<path class="st7" d="M519.5,222.6h-7.9c0.1,1,0.4,1.8,1.1,2.4c0.7,0.6,1.5,0.9,2.6,0.9c0.6,0,1.1-0.1,1.6-0.3
	c0.5-0.2,0.9-0.5,1.3-0.9l0.7,0.8c-0.4,0.5-0.9,0.9-1.6,1.2s-1.3,0.4-2.1,0.4c-1,0-1.8-0.2-2.6-0.6s-1.3-1-1.8-1.7
	c-0.4-0.7-0.6-1.6-0.6-2.5c0-0.9,0.2-1.8,0.6-2.5c0.4-0.7,1-1.3,1.7-1.7s1.5-0.6,2.4-0.6s1.7,0.2,2.4,0.6c0.7,0.4,1.2,1,1.6,1.7
	c0.4,0.7,0.6,1.6,0.6,2.5L519.5,222.6z M512.7,219.3c-0.6,0.6-1,1.3-1.1,2.3h6.7c-0.1-0.9-0.4-1.7-1.1-2.3c-0.6-0.6-1.4-0.9-2.3-0.9
	C514.1,218.5,513.3,218.7,512.7,219.3z"/>
<path class="st7" d="M530.8,213.5v13.4h-1.2V225c-0.4,0.6-0.9,1.1-1.5,1.5s-1.3,0.5-2.1,0.5c-0.9,0-1.7-0.2-2.4-0.6
	c-0.7-0.4-1.3-1-1.7-1.7c-0.4-0.7-0.6-1.6-0.6-2.5c0-0.9,0.2-1.8,0.6-2.5c0.4-0.7,1-1.3,1.7-1.7c0.7-0.4,1.5-0.6,2.4-0.6
	c0.8,0,1.5,0.2,2.1,0.5c0.6,0.3,1.1,0.8,1.5,1.4v-5.7H530.8z M527.8,225.4c0.5-0.3,1-0.7,1.3-1.3c0.3-0.6,0.5-1.2,0.5-1.9
	c0-0.7-0.2-1.4-0.5-1.9c-0.3-0.6-0.7-1-1.3-1.3c-0.5-0.3-1.1-0.5-1.8-0.5c-0.7,0-1.3,0.2-1.8,0.5c-0.5,0.3-1,0.7-1.3,1.3
	c-0.3,0.6-0.5,1.2-0.5,1.9c0,0.7,0.2,1.4,0.5,1.9c0.3,0.6,0.7,1,1.3,1.3s1.1,0.5,1.8,0.5C526.7,225.8,527.3,225.7,527.8,225.4z"/>
<path class="st7" d="M535.8,226.4c-0.7-0.4-1.3-1-1.7-1.7c-0.4-0.7-0.6-1.6-0.6-2.5c0-0.9,0.2-1.8,0.6-2.5c0.4-0.7,1-1.3,1.7-1.7
	c0.7-0.4,1.6-0.6,2.5-0.6c0.9,0,1.7,0.2,2.5,0.6c0.7,0.4,1.3,1,1.7,1.7c0.4,0.7,0.6,1.6,0.6,2.5c0,0.9-0.2,1.8-0.6,2.5
	c-0.4,0.7-1,1.3-1.7,1.7c-0.7,0.4-1.6,0.6-2.5,0.6C537.3,227,536.5,226.8,535.8,226.4z M540.1,225.4c0.5-0.3,1-0.7,1.3-1.3
	c0.3-0.6,0.5-1.2,0.5-1.9c0-0.7-0.2-1.4-0.5-1.9c-0.3-0.6-0.7-1-1.3-1.3c-0.5-0.3-1.1-0.5-1.8-0.5c-0.7,0-1.3,0.2-1.8,0.5
	c-0.5,0.3-1,0.7-1.3,1.3c-0.3,0.6-0.5,1.2-0.5,1.9c0,0.7,0.2,1.4,0.5,1.9c0.3,0.6,0.7,1,1.3,1.3s1.1,0.5,1.8,0.5
	C538.9,225.8,539.5,225.7,540.1,225.4z"/>
<path class="st7" d="M548.2,217.8c0.6-0.3,1.3-0.5,2.2-0.5v1.2l-0.3,0c-1,0-1.8,0.3-2.3,0.9c-0.6,0.6-0.8,1.5-0.8,2.6v4.8h-1.3v-9.5
	h1.2v1.9C547.2,218.6,547.6,218.2,548.2,217.8z"/>
<path class="st7" d="M414.8,236.7c-0.2-0.2-0.3-0.4-0.3-0.6c0-0.2,0.1-0.5,0.3-0.6c0.2-0.2,0.4-0.3,0.7-0.3c0.3,0,0.5,0.1,0.7,0.3
	c0.2,0.2,0.3,0.4,0.3,0.6c0,0.3-0.1,0.5-0.3,0.7c-0.2,0.2-0.4,0.3-0.7,0.3C415.2,237,415,236.9,414.8,236.7z M414.8,239h1.3v9.5
	h-1.3V239z"/>
<path class="st7" d="M427.3,240c0.7,0.7,1.1,1.7,1.1,3v5.5h-1.3v-5.4c0-1-0.2-1.7-0.7-2.3c-0.5-0.5-1.2-0.8-2.1-0.8
	c-1,0-1.8,0.3-2.4,0.9c-0.6,0.6-0.9,1.4-0.9,2.5v5h-1.3V239h1.2v1.7c0.3-0.6,0.8-1,1.4-1.3c0.6-0.3,1.3-0.5,2.2-0.5
	C425.7,239,426.6,239.3,427.3,240z"/>
<path class="st7" d="M433.7,236.6c-0.3,0.3-0.4,0.7-0.4,1.3v1.1h2.9v1.1h-2.9v8.4H432v-8.4h-1.7V239h1.7v-1.2c0-0.9,0.2-1.5,0.7-2.1
	c0.5-0.5,1.2-0.8,2.1-0.8c0.4,0,0.7,0.1,1,0.2c0.3,0.1,0.6,0.2,0.8,0.4l-0.4,1c-0.4-0.3-0.8-0.5-1.4-0.5
	C434.4,236.1,434,236.3,433.7,236.6z M437.9,235.1h1.3v13.4h-1.3V235.1z"/>
<path class="st7" d="M451.3,239v9.5h-1.2v-1.7c-0.3,0.6-0.8,1-1.4,1.3c-0.6,0.3-1.3,0.5-2,0.5c-1.2,0-2.2-0.3-2.9-1
	c-0.7-0.7-1.1-1.7-1.1-3V239h1.3v5.4c0,1,0.2,1.8,0.7,2.3c0.5,0.5,1.2,0.8,2.1,0.8c1,0,1.8-0.3,2.4-0.9c0.6-0.6,0.9-1.4,0.9-2.5v-5
	H451.3z"/>
<path class="st7" d="M463.1,244.2h-7.9c0.1,1,0.5,1.8,1.1,2.4c0.7,0.6,1.5,0.9,2.6,0.9c0.6,0,1.1-0.1,1.6-0.3
	c0.5-0.2,0.9-0.5,1.3-0.9l0.7,0.8c-0.4,0.5-0.9,0.9-1.6,1.2s-1.3,0.4-2.1,0.4c-1,0-1.8-0.2-2.6-0.6s-1.3-1-1.8-1.7
	c-0.4-0.7-0.6-1.6-0.6-2.5c0-0.9,0.2-1.8,0.6-2.5c0.4-0.7,1-1.3,1.7-1.7s1.5-0.6,2.4-0.6s1.7,0.2,2.4,0.6c0.7,0.4,1.2,1,1.6,1.7
	c0.4,0.7,0.6,1.6,0.6,2.5L463.1,244.2z M456.3,240.9c-0.6,0.6-1,1.3-1.1,2.3h6.7c-0.1-0.9-0.4-1.7-1.1-2.3c-0.6-0.6-1.4-0.9-2.3-0.9
	C457.6,240,456.9,240.3,456.3,240.9z"/>
<path class="st7" d="M473.4,240c0.7,0.7,1.1,1.7,1.1,3v5.5h-1.3v-5.4c0-1-0.2-1.7-0.7-2.3c-0.5-0.5-1.2-0.8-2.1-0.8
	c-1,0-1.8,0.3-2.4,0.9c-0.6,0.6-0.9,1.4-0.9,2.5v5h-1.3V239h1.2v1.7c0.3-0.6,0.8-1,1.4-1.3c0.6-0.3,1.3-0.5,2.2-0.5
	C471.8,239,472.7,239.3,473.4,240z"/>
<path class="st7" d="M479.4,248c-0.7-0.4-1.3-1-1.7-1.7c-0.4-0.7-0.6-1.6-0.6-2.5c0-0.9,0.2-1.8,0.6-2.5c0.4-0.7,1-1.3,1.7-1.7
	c0.7-0.4,1.6-0.6,2.5-0.6c0.8,0,1.5,0.2,2.2,0.5c0.6,0.3,1.1,0.8,1.5,1.4l-1,0.6c-0.3-0.5-0.7-0.8-1.2-1.1c-0.5-0.2-1-0.4-1.6-0.4
	c-0.7,0-1.3,0.2-1.8,0.5c-0.5,0.3-1,0.7-1.3,1.3c-0.3,0.6-0.5,1.2-0.5,1.9c0,0.7,0.2,1.4,0.5,1.9c0.3,0.6,0.7,1,1.3,1.3
	c0.5,0.3,1.2,0.5,1.8,0.5c0.6,0,1.1-0.1,1.6-0.3c0.5-0.2,0.9-0.6,1.2-1l1,0.6c-0.4,0.6-0.9,1.1-1.5,1.4c-0.6,0.3-1.4,0.5-2.2,0.5
	C481,248.6,480.1,248.4,479.4,248z"/>
<path class="st7" d="M488.1,236.7c-0.2-0.2-0.3-0.4-0.3-0.6c0-0.2,0.1-0.5,0.3-0.6c0.2-0.2,0.4-0.3,0.7-0.3s0.5,0.1,0.7,0.3
	c0.2,0.2,0.3,0.4,0.3,0.6c0,0.3-0.1,0.5-0.3,0.7c-0.2,0.2-0.4,0.3-0.7,0.3S488.3,236.9,488.1,236.7z M488.1,239h1.3v9.5h-1.3V239z"
	/>
<path class="st7" d="M499.1,239.9c0.7,0.6,1,1.5,1,2.7v5.9h-1.2V247c-0.3,0.5-0.7,0.9-1.3,1.2c-0.6,0.3-1.2,0.4-2,0.4
	c-1.1,0-1.9-0.3-2.5-0.8s-0.9-1.2-0.9-2c0-0.8,0.3-1.5,0.9-1.9c0.6-0.5,1.5-0.7,2.8-0.7h3v-0.6c0-0.8-0.2-1.4-0.7-1.9
	s-1.1-0.6-2-0.6c-0.6,0-1.2,0.1-1.7,0.3c-0.6,0.2-1,0.5-1.4,0.8l-0.6-1c0.5-0.4,1.1-0.7,1.7-0.9c0.7-0.2,1.4-0.3,2.1-0.3
	C497.5,239,498.5,239.3,499.1,239.9z M497.7,247.1c0.5-0.3,0.9-0.8,1.2-1.4v-1.5h-3c-1.6,0-2.4,0.6-2.4,1.7c0,0.6,0.2,1,0.6,1.3
	c0.4,0.3,1,0.5,1.8,0.5C496.5,247.6,497.2,247.4,497.7,247.1z"/>
<path class="st7" d="M512.3,235.1v13.4H511v-1.9c-0.4,0.6-0.9,1.1-1.5,1.5s-1.3,0.5-2.1,0.5c-0.9,0-1.7-0.2-2.4-0.6
	c-0.7-0.4-1.3-1-1.7-1.7c-0.4-0.7-0.6-1.6-0.6-2.5c0-0.9,0.2-1.8,0.6-2.5c0.4-0.7,1-1.3,1.7-1.7c0.7-0.4,1.5-0.6,2.4-0.6
	c0.8,0,1.5,0.2,2.1,0.5c0.6,0.3,1.1,0.8,1.5,1.4v-5.7H512.3z M509.3,247c0.5-0.3,1-0.7,1.3-1.3c0.3-0.6,0.5-1.2,0.5-1.9
	c0-0.7-0.2-1.4-0.5-1.9c-0.3-0.6-0.7-1-1.3-1.3c-0.5-0.3-1.1-0.5-1.8-0.5c-0.7,0-1.3,0.2-1.8,0.5c-0.5,0.3-1,0.7-1.3,1.3
	c-0.3,0.6-0.5,1.2-0.5,1.9c0,0.7,0.2,1.4,0.5,1.9c0.3,0.6,0.7,1,1.3,1.3s1.1,0.5,1.8,0.5C508.1,247.4,508.7,247.3,509.3,247z"/>
<path class="st7" d="M517.2,248c-0.7-0.4-1.3-1-1.7-1.7c-0.4-0.7-0.6-1.6-0.6-2.5c0-0.9,0.2-1.8,0.6-2.5c0.4-0.7,1-1.3,1.7-1.7
	c0.7-0.4,1.6-0.6,2.5-0.6c0.9,0,1.7,0.2,2.5,0.6c0.7,0.4,1.3,1,1.7,1.7c0.4,0.7,0.6,1.6,0.6,2.5c0,0.9-0.2,1.8-0.6,2.5
	c-0.4,0.7-1,1.3-1.7,1.7c-0.7,0.4-1.6,0.6-2.5,0.6C518.8,248.6,518,248.4,517.2,248z M521.5,247c0.5-0.3,1-0.7,1.3-1.3
	c0.3-0.6,0.5-1.2,0.5-1.9c0-0.7-0.2-1.4-0.5-1.9c-0.3-0.6-0.7-1-1.3-1.3c-0.5-0.3-1.1-0.5-1.8-0.5c-0.7,0-1.3,0.2-1.8,0.5
	c-0.5,0.3-1,0.7-1.3,1.3c-0.3,0.6-0.5,1.2-0.5,1.9c0,0.7,0.2,1.4,0.5,1.9c0.3,0.6,0.7,1,1.3,1.3s1.1,0.5,1.8,0.5
	C520.4,247.4,521,247.3,521.5,247z"/>
<path class="st7" d="M529.7,239.4c0.6-0.3,1.3-0.5,2.2-0.5v1.2l-0.3,0c-1,0-1.8,0.3-2.3,0.9c-0.6,0.6-0.8,1.5-0.8,2.6v4.8h-1.3V239
	h1.2v1.9C528.6,240.2,529.1,239.8,529.7,239.4z"/>
<path class="st7" d="M416.4,280.2v5h6.5v1.2h-6.5v5.3h-1.3v-12.6h8.6v1.2H416.4z"/>
<path class="st7" d="M428.6,282.6c0.6-0.3,1.3-0.5,2.2-0.5v1.2l-0.3,0c-1,0-1.8,0.3-2.3,0.9c-0.6,0.6-0.8,1.5-0.8,2.6v4.8H426v-9.5
	h1.2v1.9C427.5,283.4,428,283,428.6,282.6z"/>
<path class="st7" d="M441.2,287.4h-7.9c0.1,1,0.5,1.8,1.1,2.4c0.7,0.6,1.5,0.9,2.6,0.9c0.6,0,1.1-0.1,1.6-0.3
	c0.5-0.2,0.9-0.5,1.3-0.9l0.7,0.8c-0.4,0.5-0.9,0.9-1.6,1.2s-1.3,0.4-2.1,0.4c-1,0-1.8-0.2-2.6-0.6s-1.3-1-1.8-1.7
	c-0.4-0.7-0.6-1.6-0.6-2.5c0-0.9,0.2-1.8,0.6-2.5c0.4-0.7,1-1.3,1.7-1.7s1.5-0.6,2.4-0.6s1.7,0.2,2.4,0.6c0.7,0.4,1.2,1,1.6,1.7
	c0.4,0.7,0.6,1.6,0.6,2.5L441.2,287.4z M434.4,284.1c-0.6,0.6-1,1.3-1.1,2.3h6.7c-0.1-0.9-0.4-1.7-1.1-2.3c-0.6-0.6-1.4-0.9-2.3-0.9
	C435.8,283.3,435,283.5,434.4,284.1z"/>
<path class="st7" d="M452.1,287.4h-7.9c0.1,1,0.5,1.8,1.1,2.4c0.7,0.6,1.5,0.9,2.6,0.9c0.6,0,1.1-0.1,1.6-0.3
	c0.5-0.2,0.9-0.5,1.3-0.9l0.7,0.8c-0.4,0.5-0.9,0.9-1.6,1.2s-1.3,0.4-2.1,0.4c-1,0-1.8-0.2-2.6-0.6s-1.3-1-1.8-1.7
	c-0.4-0.7-0.6-1.6-0.6-2.5c0-0.9,0.2-1.8,0.6-2.5c0.4-0.7,1-1.3,1.7-1.7s1.5-0.6,2.4-0.6c0.9,0,1.7,0.2,2.4,0.6s1.2,1,1.6,1.7
	c0.4,0.7,0.6,1.6,0.6,2.5L452.1,287.4z M445.3,284.1c-0.6,0.6-1,1.3-1.1,2.3h6.7c-0.1-0.9-0.4-1.7-1.1-2.3c-0.6-0.6-1.4-0.9-2.3-0.9
	C446.6,283.3,445.9,283.5,445.3,284.1z"/>
<path class="st7" d="M463.4,278.3v13.4h-1.2v-1.9c-0.4,0.6-0.9,1.1-1.5,1.5c-0.6,0.3-1.3,0.5-2.1,0.5c-0.9,0-1.7-0.2-2.4-0.6
	c-0.7-0.4-1.3-1-1.7-1.7c-0.4-0.7-0.6-1.6-0.6-2.5c0-0.9,0.2-1.8,0.6-2.5c0.4-0.7,1-1.3,1.7-1.7c0.7-0.4,1.5-0.6,2.4-0.6
	c0.8,0,1.5,0.2,2.1,0.5c0.6,0.3,1.1,0.8,1.5,1.4v-5.7H463.4z M460.4,290.2c0.5-0.3,1-0.7,1.3-1.3c0.3-0.6,0.5-1.2,0.5-1.9
	c0-0.7-0.2-1.4-0.5-1.9c-0.3-0.6-0.7-1-1.3-1.3c-0.5-0.3-1.1-0.5-1.8-0.5c-0.7,0-1.3,0.2-1.8,0.5c-0.5,0.3-1,0.7-1.3,1.3
	c-0.3,0.6-0.5,1.2-0.5,1.9c0,0.7,0.2,1.4,0.5,1.9c0.3,0.6,0.7,1,1.3,1.3c0.5,0.3,1.1,0.5,1.8,0.5
	C459.3,290.6,459.9,290.5,460.4,290.2z"/>
<path class="st7" d="M468.4,291.2c-0.7-0.4-1.3-1-1.7-1.7c-0.4-0.7-0.6-1.6-0.6-2.5c0-0.9,0.2-1.8,0.6-2.5c0.4-0.7,1-1.3,1.7-1.7
	c0.7-0.4,1.6-0.6,2.5-0.6s1.7,0.2,2.5,0.6c0.7,0.4,1.3,1,1.7,1.7c0.4,0.7,0.6,1.6,0.6,2.5c0,0.9-0.2,1.8-0.6,2.5
	c-0.4,0.7-1,1.3-1.7,1.7c-0.7,0.4-1.6,0.6-2.5,0.6S469.1,291.6,468.4,291.2z M472.6,290.2c0.5-0.3,1-0.7,1.3-1.3
	c0.3-0.6,0.5-1.2,0.5-1.9c0-0.7-0.2-1.4-0.5-1.9c-0.3-0.6-0.7-1-1.3-1.3c-0.5-0.3-1.1-0.5-1.8-0.5s-1.3,0.2-1.8,0.5
	c-0.5,0.3-1,0.7-1.3,1.3c-0.3,0.6-0.5,1.2-0.5,1.9c0,0.7,0.2,1.4,0.5,1.9c0.3,0.6,0.7,1,1.3,1.3c0.5,0.3,1.1,0.5,1.8,0.5
	S472.1,290.5,472.6,290.2z"/>
<path class="st7" d="M492.8,283.2c0.7,0.7,1,1.7,1,3v5.5h-1.3v-5.4c0-1-0.2-1.7-0.7-2.3c-0.5-0.5-1.1-0.8-2-0.8
	c-1,0-1.8,0.3-2.3,0.9c-0.6,0.6-0.8,1.4-0.8,2.5v5h-1.3v-5.4c0-1-0.2-1.7-0.7-2.3c-0.5-0.5-1.1-0.8-2-0.8c-1,0-1.7,0.3-2.3,0.9
	c-0.6,0.6-0.9,1.4-0.9,2.5v5h-1.3v-9.5h1.2v1.7c0.3-0.6,0.8-1,1.4-1.3c0.6-0.3,1.3-0.5,2.1-0.5c0.8,0,1.5,0.2,2.1,0.5s1,0.8,1.3,1.5
	c0.3-0.6,0.8-1.1,1.5-1.5c0.7-0.4,1.4-0.5,2.2-0.5C491.2,282.2,492.2,282.5,492.8,283.2z"/>
<path class="st7" d="M506.5,290.5v1.2h-8.9v-12.6h8.6v1.2h-7.3v4.5h6.5v1.1h-6.5v4.7H506.5z"/>
<path class="st7" d="M517.5,287.4h-7.9c0.1,1,0.4,1.8,1.1,2.4c0.7,0.6,1.5,0.9,2.6,0.9c0.6,0,1.1-0.1,1.6-0.3
	c0.5-0.2,0.9-0.5,1.3-0.9l0.7,0.8c-0.4,0.5-0.9,0.9-1.6,1.2s-1.3,0.4-2.1,0.4c-1,0-1.8-0.2-2.6-0.6s-1.3-1-1.8-1.7
	c-0.4-0.7-0.6-1.6-0.6-2.5c0-0.9,0.2-1.8,0.6-2.5c0.4-0.7,1-1.3,1.7-1.7s1.5-0.6,2.4-0.6s1.7,0.2,2.4,0.6c0.7,0.4,1.2,1,1.6,1.7
	c0.4,0.7,0.6,1.6,0.6,2.5L517.5,287.4z M510.6,284.1c-0.6,0.6-1,1.3-1.1,2.3h6.7c-0.1-0.9-0.4-1.7-1.1-2.3c-0.6-0.6-1.4-0.9-2.3-0.9
	C512,283.3,511.2,283.5,510.6,284.1z"/>
<path class="st7" d="M428.2,322.3v12.6h-1.3v-10.1l-5,8.5h-0.6l-5-8.4v10h-1.3v-12.6h1.1l5.5,9.3l5.4-9.3H428.2z"/>
<path class="st7" d="M438.1,326.3c0.7,0.6,1,1.5,1,2.7v5.9h-1.2v-1.5c-0.3,0.5-0.7,0.9-1.3,1.2c-0.6,0.3-1.2,0.4-2,0.4
	c-1.1,0-1.9-0.3-2.5-0.8s-0.9-1.2-0.9-2c0-0.8,0.3-1.5,0.9-1.9c0.6-0.5,1.5-0.7,2.8-0.7h3V329c0-0.8-0.2-1.4-0.7-1.9s-1.1-0.6-2-0.6
	c-0.6,0-1.2,0.1-1.7,0.3c-0.6,0.2-1,0.5-1.4,0.8l-0.6-1c0.5-0.4,1.1-0.7,1.7-0.9c0.7-0.2,1.4-0.3,2.1-0.3
	C436.5,325.4,437.5,325.7,438.1,326.3z M436.7,333.5c0.5-0.3,0.9-0.8,1.2-1.4v-1.5h-3c-1.6,0-2.4,0.6-2.4,1.7c0,0.6,0.2,1,0.6,1.3
	c0.4,0.3,1,0.5,1.8,0.5C435.6,334,436.2,333.8,436.7,333.5z"/>
<path class="st7" d="M445.2,325.8c0.6-0.3,1.3-0.5,2.2-0.5v1.2l-0.3,0c-1,0-1.8,0.3-2.3,0.9c-0.6,0.6-0.8,1.5-0.8,2.6v4.8h-1.3v-9.5
	h1.2v1.9C444.1,326.6,444.6,326.2,445.2,325.8z"/>
<path class="st7" d="M453.2,330.1l-2.2,2.1v2.7h-1.3v-13.4h1.3v9.1l5.7-5.2h1.6l-4,3.9l4.4,5.6H457L453.2,330.1z"/>
<path class="st7" d="M468.4,330.6h-7.9c0.1,1,0.5,1.8,1.1,2.4c0.7,0.6,1.5,0.9,2.6,0.9c0.6,0,1.1-0.1,1.6-0.3
	c0.5-0.2,0.9-0.5,1.3-0.9l0.7,0.8c-0.4,0.5-0.9,0.9-1.6,1.2s-1.3,0.4-2.1,0.4c-1,0-1.8-0.2-2.6-0.6s-1.3-1-1.8-1.7
	c-0.4-0.7-0.6-1.6-0.6-2.5c0-0.9,0.2-1.8,0.6-2.5c0.4-0.7,1-1.3,1.7-1.7s1.5-0.6,2.4-0.6c0.9,0,1.7,0.2,2.4,0.6s1.2,1,1.6,1.7
	c0.4,0.7,0.6,1.6,0.6,2.5L468.4,330.6z M461.5,327.3c-0.6,0.6-1,1.3-1.1,2.3h6.7c-0.1-0.9-0.4-1.7-1.1-2.3c-0.6-0.6-1.4-0.9-2.3-0.9
	C462.9,326.5,462.1,326.7,461.5,327.3z"/>
<path class="st7" d="M476,334.3c-0.2,0.2-0.5,0.4-0.9,0.5c-0.4,0.1-0.7,0.2-1.1,0.2c-0.9,0-1.6-0.2-2.1-0.7c-0.5-0.5-0.7-1.2-0.7-2
	v-5.7h-1.7v-1.1h1.7v-2.1h1.3v2.1h2.9v1.1h-2.9v5.7c0,0.6,0.1,1,0.4,1.3s0.7,0.4,1.2,0.4c0.3,0,0.5,0,0.8-0.1
	c0.2-0.1,0.5-0.2,0.6-0.4L476,334.3z"/>
<path class="st7" d="M478.3,323.1c-0.2-0.2-0.3-0.4-0.3-0.6c0-0.2,0.1-0.5,0.3-0.6c0.2-0.2,0.4-0.3,0.7-0.3s0.5,0.1,0.7,0.3
	c0.2,0.2,0.3,0.4,0.3,0.6c0,0.3-0.1,0.5-0.3,0.7c-0.2,0.2-0.4,0.3-0.7,0.3S478.5,323.3,478.3,323.1z M478.3,325.4h1.3v9.5h-1.3
	V325.4z"/>
<path class="st7" d="M490.8,326.4c0.7,0.7,1.1,1.7,1.1,3v5.5h-1.3v-5.4c0-1-0.2-1.7-0.7-2.3c-0.5-0.5-1.2-0.8-2.1-0.8
	c-1,0-1.8,0.3-2.4,0.9c-0.6,0.6-0.9,1.4-0.9,2.5v5h-1.3v-9.5h1.2v1.7c0.3-0.6,0.8-1,1.4-1.3c0.6-0.3,1.3-0.5,2.2-0.5
	C489.2,325.4,490.1,325.7,490.8,326.4z"/>
<path class="st7" d="M504.1,325.4v8.3c0,1.6-0.4,2.8-1.2,3.6c-0.8,0.8-2,1.2-3.6,1.2c-0.9,0-1.7-0.1-2.5-0.4
	c-0.8-0.3-1.4-0.6-1.9-1.1l0.6-1c0.5,0.4,1,0.7,1.7,1c0.7,0.2,1.3,0.3,2.1,0.3c1.2,0,2.1-0.3,2.6-0.8c0.6-0.6,0.8-1.4,0.8-2.6v-1.2
	c-0.4,0.6-0.9,1.1-1.6,1.4c-0.6,0.3-1.4,0.5-2.1,0.5c-0.9,0-1.7-0.2-2.4-0.6c-0.7-0.4-1.3-0.9-1.7-1.6s-0.6-1.5-0.6-2.4
	s0.2-1.7,0.6-2.4s1-1.2,1.7-1.6c0.7-0.4,1.5-0.6,2.4-0.6c0.8,0,1.5,0.2,2.2,0.5c0.6,0.3,1.2,0.8,1.6,1.4v-1.8H504.1z M501.1,333
	c0.6-0.3,1-0.7,1.3-1.2c0.3-0.5,0.5-1.1,0.5-1.8s-0.2-1.3-0.5-1.8c-0.3-0.5-0.7-0.9-1.3-1.2c-0.5-0.3-1.2-0.4-1.9-0.4
	c-0.7,0-1.3,0.1-1.8,0.4c-0.5,0.3-1,0.7-1.3,1.2c-0.3,0.5-0.5,1.1-0.5,1.8s0.2,1.3,0.5,1.8s0.7,0.9,1.3,1.2c0.5,0.3,1.2,0.4,1.8,0.4
	S500.6,333.3,501.1,333z"/>
<path class="st7" d="M520.7,330.6h-7.9c0.1,1,0.4,1.8,1.1,2.4c0.7,0.6,1.5,0.9,2.6,0.9c0.6,0,1.1-0.1,1.6-0.3
	c0.5-0.2,0.9-0.5,1.3-0.9l0.7,0.8c-0.4,0.5-0.9,0.9-1.6,1.2s-1.3,0.4-2.1,0.4c-1,0-1.8-0.2-2.6-0.6s-1.3-1-1.8-1.7
	c-0.4-0.7-0.6-1.6-0.6-2.5c0-0.9,0.2-1.8,0.6-2.5c0.4-0.7,1-1.3,1.7-1.7s1.5-0.6,2.4-0.6s1.7,0.2,2.4,0.6c0.7,0.4,1.2,1,1.6,1.7
	c0.4,0.7,0.6,1.6,0.6,2.5L520.7,330.6z M513.8,327.3c-0.6,0.6-1,1.3-1.1,2.3h6.7c-0.1-0.9-0.4-1.7-1.1-2.3c-0.6-0.6-1.4-0.9-2.3-0.9
	C515.2,326.5,514.4,326.7,513.8,327.3z"/>
<path class="st7" d="M536,325.4l-4.2,9.5h-1.3l-4.2-9.5h1.3l3.5,8.1l3.6-8.1H536z"/>
<path class="st7" d="M545.8,330.6h-7.9c0.1,1,0.4,1.8,1.1,2.4c0.7,0.6,1.5,0.9,2.6,0.9c0.6,0,1.1-0.1,1.6-0.3
	c0.5-0.2,0.9-0.5,1.3-0.9l0.7,0.8c-0.4,0.5-0.9,0.9-1.6,1.2s-1.3,0.4-2.1,0.4c-1,0-1.8-0.2-2.6-0.6s-1.3-1-1.8-1.7
	c-0.4-0.7-0.6-1.6-0.6-2.5c0-0.9,0.2-1.8,0.6-2.5c0.4-0.7,1-1.3,1.7-1.7s1.5-0.6,2.4-0.6s1.7,0.2,2.4,0.6c0.7,0.4,1.2,1,1.6,1.7
	c0.4,0.7,0.6,1.6,0.6,2.5L545.8,330.6z M538.9,327.3c-0.6,0.6-1,1.3-1.1,2.3h6.7c-0.1-0.9-0.4-1.7-1.1-2.3c-0.6-0.6-1.4-0.9-2.3-0.9
	C540.3,326.5,539.5,326.7,538.9,327.3z"/>
<path class="st7" d="M556,326.4c0.7,0.7,1.1,1.7,1.1,3v5.5h-1.3v-5.4c0-1-0.2-1.7-0.7-2.3c-0.5-0.5-1.2-0.8-2.1-0.8
	c-1,0-1.8,0.3-2.4,0.9c-0.6,0.6-0.9,1.4-0.9,2.5v5h-1.3v-9.5h1.2v1.7c0.3-0.6,0.8-1,1.4-1.3c0.6-0.3,1.3-0.5,2.2-0.5
	C554.4,325.4,555.3,325.7,556,326.4z"/>
<path class="st7" d="M569.2,321.5v13.4H568V333c-0.4,0.6-0.9,1.1-1.5,1.5s-1.3,0.5-2.1,0.5c-0.9,0-1.7-0.2-2.4-0.6
	c-0.7-0.4-1.3-1-1.7-1.7c-0.4-0.7-0.6-1.6-0.6-2.5c0-0.9,0.2-1.8,0.6-2.5c0.4-0.7,1-1.3,1.7-1.7c0.7-0.4,1.5-0.6,2.4-0.6
	c0.8,0,1.5,0.2,2.1,0.5c0.6,0.3,1.1,0.8,1.5,1.4v-5.7H569.2z M566.3,333.4c0.5-0.3,1-0.7,1.3-1.3c0.3-0.6,0.5-1.2,0.5-1.9
	c0-0.7-0.2-1.4-0.5-1.9c-0.3-0.6-0.7-1-1.3-1.3c-0.5-0.3-1.1-0.5-1.8-0.5c-0.7,0-1.3,0.2-1.8,0.5c-0.5,0.3-1,0.7-1.3,1.3
	c-0.3,0.6-0.5,1.2-0.5,1.9c0,0.7,0.2,1.4,0.5,1.9c0.3,0.6,0.7,1,1.3,1.3s1.1,0.5,1.8,0.5C565.1,333.8,565.7,333.7,566.3,333.4z"/>
<path class="st7" d="M579,326.3c0.7,0.6,1,1.5,1,2.7v5.9h-1.2v-1.5c-0.3,0.5-0.7,0.9-1.3,1.2c-0.6,0.3-1.2,0.4-2,0.4
	c-1.1,0-1.9-0.3-2.5-0.8s-0.9-1.2-0.9-2c0-0.8,0.3-1.5,0.9-1.9c0.6-0.5,1.5-0.7,2.8-0.7h3V329c0-0.8-0.2-1.4-0.7-1.9s-1.1-0.6-2-0.6
	c-0.6,0-1.2,0.1-1.7,0.3c-0.6,0.2-1,0.5-1.4,0.8l-0.6-1c0.5-0.4,1.1-0.7,1.7-0.9c0.7-0.2,1.4-0.3,2.1-0.3
	C577.4,325.4,578.3,325.7,579,326.3z M577.5,333.5c0.5-0.3,0.9-0.8,1.2-1.4v-1.5h-3c-1.6,0-2.4,0.6-2.4,1.7c0,0.6,0.2,1,0.6,1.3
	c0.4,0.3,1,0.5,1.8,0.5C576.4,334,577,333.8,577.5,333.5z"/>
<path class="st7" d="M416.2,356c-0.7-0.4-1.3-1-1.7-1.7c-0.4-0.7-0.6-1.6-0.6-2.5c0-0.9,0.2-1.8,0.6-2.5c0.4-0.7,1-1.3,1.7-1.7
	s1.6-0.6,2.5-0.6c0.8,0,1.5,0.2,2.2,0.5c0.6,0.3,1.1,0.8,1.5,1.4l-1,0.6c-0.3-0.5-0.7-0.8-1.2-1.1c-0.5-0.2-1-0.4-1.6-0.4
	c-0.7,0-1.3,0.2-1.8,0.5c-0.5,0.3-1,0.7-1.3,1.3c-0.3,0.6-0.5,1.2-0.5,1.9c0,0.7,0.2,1.4,0.5,1.9c0.3,0.6,0.7,1,1.3,1.3
	s1.2,0.5,1.8,0.5c0.6,0,1.1-0.1,1.6-0.3c0.5-0.2,0.9-0.6,1.2-1l1,0.6c-0.4,0.6-0.9,1.1-1.5,1.4c-0.6,0.3-1.4,0.5-2.2,0.5
	C417.8,356.6,417,356.4,416.2,356z"/>
<path class="st7" d="M426.2,356c-0.7-0.4-1.3-1-1.7-1.7c-0.4-0.7-0.6-1.6-0.6-2.5c0-0.9,0.2-1.8,0.6-2.5c0.4-0.7,1-1.3,1.7-1.7
	c0.7-0.4,1.6-0.6,2.5-0.6s1.7,0.2,2.5,0.6c0.7,0.4,1.3,1,1.7,1.7c0.4,0.7,0.6,1.6,0.6,2.5c0,0.9-0.2,1.8-0.6,2.5
	c-0.4,0.7-1,1.3-1.7,1.7c-0.7,0.4-1.6,0.6-2.5,0.6S426.9,356.4,426.2,356z M430.5,355c0.5-0.3,1-0.7,1.3-1.3
	c0.3-0.6,0.5-1.2,0.5-1.9c0-0.7-0.2-1.4-0.5-1.9c-0.3-0.6-0.7-1-1.3-1.3c-0.5-0.3-1.1-0.5-1.8-0.5s-1.3,0.2-1.8,0.5
	c-0.5,0.3-1,0.7-1.3,1.3c-0.3,0.6-0.5,1.2-0.5,1.9c0,0.7,0.2,1.4,0.5,1.9c0.3,0.6,0.7,1,1.3,1.3s1.1,0.5,1.8,0.5
	S429.9,355.3,430.5,355z"/>
<path class="st7" d="M437.5,356c-0.7-0.4-1.3-1-1.7-1.7c-0.4-0.7-0.6-1.6-0.6-2.5c0-0.9,0.2-1.8,0.6-2.5c0.4-0.7,1-1.3,1.7-1.7
	c0.7-0.4,1.6-0.6,2.5-0.6s1.7,0.2,2.5,0.6c0.7,0.4,1.3,1,1.7,1.7c0.4,0.7,0.6,1.6,0.6,2.5c0,0.9-0.2,1.8-0.6,2.5
	c-0.4,0.7-1,1.3-1.7,1.7c-0.7,0.4-1.6,0.6-2.5,0.6S438.2,356.4,437.5,356z M441.7,355c0.5-0.3,1-0.7,1.3-1.3
	c0.3-0.6,0.5-1.2,0.5-1.9c0-0.7-0.2-1.4-0.5-1.9c-0.3-0.6-0.7-1-1.3-1.3c-0.5-0.3-1.1-0.5-1.8-0.5s-1.3,0.2-1.8,0.5
	c-0.5,0.3-1,0.7-1.3,1.3c-0.3,0.6-0.5,1.2-0.5,1.9c0,0.7,0.2,1.4,0.5,1.9c0.3,0.6,0.7,1,1.3,1.3s1.1,0.5,1.8,0.5
	S441.2,355.3,441.7,355z"/>
<path class="st7" d="M454.6,347.6c0.7,0.4,1.3,1,1.7,1.7c0.4,0.7,0.6,1.6,0.6,2.5c0,0.9-0.2,1.8-0.6,2.5s-1,1.3-1.7,1.7
	c-0.7,0.4-1.5,0.6-2.4,0.6c-0.8,0-1.5-0.2-2.1-0.5c-0.6-0.3-1.1-0.8-1.5-1.4v5.3h-1.3v-13h1.2v1.9c0.4-0.6,0.9-1.1,1.5-1.4
	c0.6-0.3,1.3-0.5,2.1-0.5C453.1,347,453.9,347.2,454.6,347.6z M453.9,355c0.5-0.3,1-0.7,1.3-1.3c0.3-0.6,0.5-1.2,0.5-1.9
	c0-0.7-0.2-1.4-0.5-1.9c-0.3-0.6-0.7-1-1.3-1.3c-0.5-0.3-1.1-0.5-1.8-0.5c-0.7,0-1.3,0.2-1.8,0.5c-0.5,0.3-1,0.7-1.3,1.3
	c-0.3,0.6-0.5,1.2-0.5,1.9c0,0.7,0.2,1.4,0.5,1.9c0.3,0.6,0.7,1,1.3,1.3s1.1,0.5,1.8,0.5C452.8,355.4,453.4,355.3,453.9,355z"/>
<path class="st7" d="M467.8,352.2h-7.9c0.1,1,0.5,1.8,1.1,2.4c0.7,0.6,1.5,0.9,2.6,0.9c0.6,0,1.1-0.1,1.6-0.3
	c0.5-0.2,0.9-0.5,1.3-0.9l0.7,0.8c-0.4,0.5-0.9,0.9-1.6,1.2s-1.3,0.4-2.1,0.4c-1,0-1.8-0.2-2.6-0.6s-1.3-1-1.8-1.7
	c-0.4-0.7-0.6-1.6-0.6-2.5c0-0.9,0.2-1.8,0.6-2.5c0.4-0.7,1-1.3,1.7-1.7s1.5-0.6,2.4-0.6c0.9,0,1.7,0.2,2.4,0.6s1.2,1,1.6,1.7
	c0.4,0.7,0.6,1.6,0.6,2.5L467.8,352.2z M460.9,348.9c-0.6,0.6-1,1.3-1.1,2.3h6.7c-0.1-0.9-0.4-1.7-1.1-2.3c-0.6-0.6-1.4-0.9-2.3-0.9
	C462.3,348,461.5,348.3,460.9,348.9z"/>
<path class="st7" d="M473,347.4c0.6-0.3,1.3-0.5,2.2-0.5v1.2l-0.3,0c-1,0-1.8,0.3-2.3,0.9c-0.6,0.6-0.8,1.5-0.8,2.6v4.8h-1.3V347
	h1.2v1.9C471.9,348.2,472.4,347.8,473,347.4z"/>
<path class="st7" d="M483.6,347.9c0.7,0.6,1,1.5,1,2.7v5.9h-1.2V355c-0.3,0.5-0.7,0.9-1.3,1.2c-0.6,0.3-1.2,0.4-2,0.4
	c-1.1,0-1.9-0.3-2.5-0.8s-0.9-1.2-0.9-2c0-0.8,0.3-1.5,0.9-1.9c0.6-0.5,1.5-0.7,2.8-0.7h3v-0.6c0-0.8-0.2-1.4-0.7-1.9
	s-1.1-0.6-2-0.6c-0.6,0-1.2,0.1-1.7,0.3c-0.6,0.2-1,0.5-1.4,0.8l-0.6-1c0.5-0.4,1.1-0.7,1.7-0.9c0.7-0.2,1.4-0.3,2.1-0.3
	C482,347,483,347.3,483.6,347.9z M482.2,355.1c0.5-0.3,0.9-0.8,1.2-1.4v-1.5h-3c-1.6,0-2.4,0.6-2.4,1.7c0,0.6,0.2,1,0.6,1.3
	c0.4,0.3,1,0.5,1.8,0.5C481.1,355.6,481.7,355.4,482.2,355.1z"/>
<path class="st7" d="M493.1,355.9c-0.2,0.2-0.5,0.4-0.9,0.5c-0.4,0.1-0.7,0.2-1.1,0.2c-0.9,0-1.6-0.2-2.1-0.7
	c-0.5-0.5-0.7-1.2-0.7-2v-5.7h-1.7V347h1.7V345h1.3v2.1h2.9v1.1h-2.9v5.7c0,0.6,0.1,1,0.4,1.3c0.3,0.3,0.7,0.4,1.2,0.4
	c0.3,0,0.5,0,0.8-0.1s0.5-0.2,0.6-0.4L493.1,355.9z"/>
<path class="st7" d="M495.4,344.7c-0.2-0.2-0.3-0.4-0.3-0.6c0-0.2,0.1-0.5,0.3-0.6c0.2-0.2,0.4-0.3,0.7-0.3s0.5,0.1,0.7,0.3
	c0.2,0.2,0.3,0.4,0.3,0.6c0,0.3-0.1,0.5-0.3,0.7c-0.2,0.2-0.4,0.3-0.7,0.3S495.6,344.9,495.4,344.7z M495.4,347h1.3v9.5h-1.3V347z"
	/>
<path class="st7" d="M508.2,347l-4.2,9.5h-1.3l-4.2-9.5h1.3l3.5,8.1l3.6-8.1H508.2z"/>
<path class="st7" d="M515.9,347.9c0.7,0.6,1,1.5,1,2.7v5.9h-1.2V355c-0.3,0.5-0.7,0.9-1.3,1.2c-0.6,0.3-1.2,0.4-2,0.4
	c-1.1,0-1.9-0.3-2.5-0.8s-0.9-1.2-0.9-2c0-0.8,0.3-1.5,0.9-1.9c0.6-0.5,1.5-0.7,2.8-0.7h3v-0.6c0-0.8-0.2-1.4-0.7-1.9
	s-1.1-0.6-2-0.6c-0.6,0-1.2,0.1-1.7,0.3c-0.6,0.2-1,0.5-1.4,0.8l-0.6-1c0.5-0.4,1.1-0.7,1.7-0.9c0.7-0.2,1.4-0.3,2.1-0.3
	C514.3,347,515.2,347.3,515.9,347.9z M514.4,355.1c0.5-0.3,0.9-0.8,1.2-1.4v-1.5h-3c-1.6,0-2.4,0.6-2.4,1.7c0,0.6,0.2,1,0.6,1.3
	c0.4,0.3,1,0.5,1.8,0.5C513.3,355.6,513.9,355.4,514.4,355.1z"/>
<path class="st7" d="M416.2,377.6c-0.7-0.4-1.3-1-1.7-1.7c-0.4-0.7-0.6-1.6-0.6-2.5c0-0.9,0.2-1.8,0.6-2.5c0.4-0.7,1-1.3,1.7-1.7
	s1.6-0.6,2.5-0.6c0.8,0,1.5,0.2,2.2,0.5c0.6,0.3,1.1,0.8,1.5,1.4l-1,0.6c-0.3-0.5-0.7-0.8-1.2-1.1c-0.5-0.2-1-0.4-1.6-0.4
	c-0.7,0-1.3,0.2-1.8,0.5c-0.5,0.3-1,0.7-1.3,1.3c-0.3,0.6-0.5,1.2-0.5,1.9c0,0.7,0.2,1.4,0.5,1.9c0.3,0.6,0.7,1,1.3,1.3
	s1.2,0.5,1.8,0.5c0.6,0,1.1-0.1,1.6-0.3c0.5-0.2,0.9-0.6,1.2-1l1,0.6c-0.4,0.6-0.9,1.1-1.5,1.4c-0.6,0.3-1.4,0.5-2.2,0.5
	C417.8,378.2,417,378,416.2,377.6z"/>
<path class="st7" d="M426.2,377.6c-0.7-0.4-1.3-1-1.7-1.7c-0.4-0.7-0.6-1.6-0.6-2.5c0-0.9,0.2-1.8,0.6-2.5c0.4-0.7,1-1.3,1.7-1.7
	c0.7-0.4,1.6-0.6,2.5-0.6s1.7,0.2,2.5,0.6c0.7,0.4,1.3,1,1.7,1.7c0.4,0.7,0.6,1.6,0.6,2.5c0,0.9-0.2,1.8-0.6,2.5
	c-0.4,0.7-1,1.3-1.7,1.7c-0.7,0.4-1.6,0.6-2.5,0.6S426.9,378,426.2,377.6z M430.5,376.6c0.5-0.3,1-0.7,1.3-1.3
	c0.3-0.6,0.5-1.2,0.5-1.9c0-0.7-0.2-1.4-0.5-1.9c-0.3-0.6-0.7-1-1.3-1.3c-0.5-0.3-1.1-0.5-1.8-0.5s-1.3,0.2-1.8,0.5
	c-0.5,0.3-1,0.7-1.3,1.3c-0.3,0.6-0.5,1.2-0.5,1.9c0,0.7,0.2,1.4,0.5,1.9c0.3,0.6,0.7,1,1.3,1.3s1.1,0.5,1.8,0.5
	S429.9,376.9,430.5,376.6z"/>
<path class="st7" d="M436.1,364.7h1.3v13.4h-1.3V364.7z"/>
<path class="st7" d="M449.1,373.8h-7.9c0.1,1,0.5,1.8,1.1,2.4c0.7,0.6,1.5,0.9,2.6,0.9c0.6,0,1.1-0.1,1.6-0.3
	c0.5-0.2,0.9-0.5,1.3-0.9l0.7,0.8c-0.4,0.5-0.9,0.9-1.6,1.2s-1.3,0.4-2.1,0.4c-1,0-1.8-0.2-2.6-0.6s-1.3-1-1.8-1.7
	c-0.4-0.7-0.6-1.6-0.6-2.5c0-0.9,0.2-1.8,0.6-2.5c0.4-0.7,1-1.3,1.7-1.7s1.5-0.6,2.4-0.6c0.9,0,1.7,0.2,2.4,0.6s1.2,1,1.6,1.7
	c0.4,0.7,0.6,1.6,0.6,2.5L449.1,373.8z M442.3,370.5c-0.6,0.6-1,1.3-1.1,2.3h6.7c-0.1-0.9-0.4-1.7-1.1-2.3c-0.6-0.6-1.4-0.9-2.3-0.9
	C443.7,369.6,442.9,369.9,442.3,370.5z"/>
<path class="st7" d="M456.8,377.5c-0.2,0.2-0.5,0.4-0.9,0.5c-0.4,0.1-0.7,0.2-1.1,0.2c-0.9,0-1.6-0.2-2.1-0.7
	c-0.5-0.5-0.7-1.2-0.7-2v-5.7h-1.7v-1.1h1.7v-2.1h1.3v2.1h2.9v1.1h-2.9v5.7c0,0.6,0.1,1,0.4,1.3s0.7,0.4,1.2,0.4
	c0.3,0,0.5,0,0.8-0.1c0.2-0.1,0.5-0.2,0.6-0.4L456.8,377.5z"/>
<path class="st7" d="M459.1,366.3c-0.2-0.2-0.3-0.4-0.3-0.6c0-0.2,0.1-0.5,0.3-0.6c0.2-0.2,0.4-0.3,0.7-0.3c0.3,0,0.5,0.1,0.7,0.3
	c0.2,0.2,0.3,0.4,0.3,0.6c0,0.3-0.1,0.5-0.3,0.7c-0.2,0.2-0.4,0.3-0.7,0.3C459.5,366.6,459.2,366.5,459.1,366.3z M459.1,368.6h1.3
	v9.5h-1.3V368.6z"/>
<path class="st7" d="M471.9,368.6l-4.2,9.5h-1.3l-4.2-9.5h1.3l3.5,8.1l3.6-8.1H471.9z"/>
<path class="st7" d="M479.5,369.5c0.7,0.6,1,1.5,1,2.7v5.9h-1.2v-1.5c-0.3,0.5-0.7,0.9-1.3,1.2c-0.6,0.3-1.2,0.4-2,0.4
	c-1.1,0-1.9-0.3-2.5-0.8s-0.9-1.2-0.9-2c0-0.8,0.3-1.5,0.9-1.9c0.6-0.5,1.5-0.7,2.8-0.7h3v-0.6c0-0.8-0.2-1.4-0.7-1.9
	s-1.1-0.6-2-0.6c-0.6,0-1.2,0.1-1.7,0.3s-1,0.5-1.4,0.8l-0.6-1c0.5-0.4,1.1-0.7,1.7-0.9c0.7-0.2,1.4-0.3,2.1-0.3
	C477.9,368.6,478.9,368.9,479.5,369.5z M478.1,376.7c0.5-0.3,0.9-0.8,1.2-1.4v-1.5h-3c-1.6,0-2.4,0.6-2.4,1.7c0,0.6,0.2,1,0.6,1.3
	c0.4,0.3,1,0.5,1.8,0.5C477,377.2,477.6,377,478.1,376.7z"/>
<path class="st6" d="M185,200L102.1,72.3c25.4-16.5,52.7-24.6,82.9-24.6V200z"/>
<path class="st5" d="M185,200L42.9,145.4c12.1-31.4,31-54.8,59.2-73.1L185,200z"/>
<path class="st4" d="M185,200L40.2,153c1-3.2,1.5-4.4,2.7-7.5L185,200z"/>
<path class="st3" d="M185,200L35.5,229.1c-5.1-26.4-3.7-50.5,4.7-76.1L185,200z"/>
<path class="st2" d="M185,200L75.5,305.8c-21-21.8-34.2-47-39.9-76.7L185,200z"/>
<path class="st1" d="M185,200V47.8c84.1,0,152.3,68.2,152.3,152.3S269.1,352.3,185,352.3c-43.7,0-79.1-15-109.5-46.5L185,200z"/>
<text transform="matrix(1 0 0 1 143.2305 105.7383)" class="st7 st8 st9">9%</text>
<text transform="matrix(1 0 0 1 89.4517 139.1826)" class="st7 st8 st9">10%</text>
<text transform="matrix(1 0 0 1 78.6118 169.1772)" class="st7 st8 st9">1%</text>
<text transform="matrix(1 0 0 1 70.4868 196.8623)" class="st7 st8 st9">8%</text>
<text transform="matrix(1 0 0 1 82.0264 249.9258)" class="st7 st8 st9">9%</text>
<text transform="matrix(1 0 0 1 260.4131 242.7178)" class="st7 st8 st9">63%</text>
</svg>
