<?xml version="1.0" encoding="utf-8"?>
<!-- Generator: Adobe Illustrator 24.2.0, SVG Export Plug-In . SVG Version: 6.00 Build 0)  -->
<svg version="1.1" id="grafico_3" xmlns="http://www.w3.org/2000/svg" xmlns:xlink="http://www.w3.org/1999/xlink" x="0px" y="0px"
	 viewBox="0 0 620 400" style="enable-background:new 0 0 620 400;" xml:space="preserve">
<style type="text/css">
	.st0{fill:#F1F2F2;}
	.st1{fill:#7495DA;}
	.st2{fill:#FF3657;}
	.st3{fill:#13C2A5;}
	.st4{fill:#FEFF01;}
	.st5{fill:#CC9AFD;}
	.st6{fill:#413E3E;}
</style>
<path class="st0" d="M590,355H401.3c-5.3,0-10.4-2.1-14.2-5.9L184.3,200L387.2,51.8c3.7-3.7,8.8-5.8,14-5.8H590c5.5,0,10,4.5,10,10
	v289C600,350.5,595.5,355,590,355z"/>
<circle class="st0" cx="185" cy="200" r="160"/>
<path class="st1" d="M400,73.9h-4c-1.7,0-3-1.3-3-3v-4c0-1.7,1.3-3,3-3h4c1.7,0,3,1.3,3,3v4C403,72.5,401.7,73.9,400,73.9z"/>
<path class="st2" d="M400,117.9h-4c-1.7,0-3-1.3-3-3v-4c0-1.7,1.3-3,3-3h4c1.7,0,3,1.3,3,3v4C403,116.5,401.7,117.9,400,117.9z"/>
<path class="st3" d="M400,182.9h-4c-1.7,0-3-1.3-3-3v-4c0-1.7,1.3-3,3-3h4c1.7,0,3,1.3,3,3v4C403,181.5,401.7,182.9,400,182.9z"/>
<path class="st4" d="M400,247.9h-4c-1.7,0-3-1.3-3-3v-4c0-1.7,1.3-3,3-3h4c1.7,0,3,1.3,3,3v4C403,246.5,401.7,247.9,400,247.9z"/>
<path class="st5" d="M400,290.9h-4c-1.7,0-3-1.3-3-3v-4c0-1.7,1.3-3,3-3h4c1.7,0,3,1.3,3,3v4C403,289.5,401.7,290.9,400,290.9z"/>
<path class="st6" d="M423.6,64.2c0.9,0.8,1.4,1.8,1.4,3.2c0,1.3-0.5,2.4-1.4,3.2c-0.9,0.8-2.2,1.1-3.8,1.1h-3.4v4h-1.3V63.1h4.7
	C421.4,63.1,422.7,63.5,423.6,64.2z M422.6,69.7c0.7-0.5,1-1.3,1-2.3c0-1-0.3-1.8-1-2.3c-0.7-0.5-1.6-0.8-2.9-0.8h-3.3v6.3h3.3
	C421,70.5,422,70.3,422.6,69.7z"/>
<path class="st6" d="M429.9,66.6c0.6-0.3,1.3-0.5,2.2-0.5v1.2l-0.3,0c-1,0-1.8,0.3-2.3,0.9c-0.6,0.6-0.8,1.5-0.8,2.6v4.8h-1.3v-9.5
	h1.2v1.9C428.8,67.4,429.3,67,429.9,66.6z"/>
<path class="st6" d="M435.7,75.2c-0.7-0.4-1.3-1-1.7-1.7c-0.4-0.7-0.6-1.6-0.6-2.5c0-0.9,0.2-1.8,0.6-2.5c0.4-0.7,1-1.3,1.7-1.7
	c0.7-0.4,1.6-0.6,2.5-0.6s1.7,0.2,2.5,0.6c0.7,0.4,1.3,1,1.7,1.7c0.4,0.7,0.6,1.6,0.6,2.5c0,0.9-0.2,1.8-0.6,2.5
	c-0.4,0.7-1,1.3-1.7,1.7c-0.7,0.4-1.6,0.6-2.5,0.6S436.4,75.6,435.7,75.2z M440,74.2c0.5-0.3,1-0.7,1.3-1.3c0.3-0.6,0.5-1.2,0.5-1.9
	c0-0.7-0.2-1.4-0.5-1.9c-0.3-0.6-0.7-1-1.3-1.3c-0.5-0.3-1.1-0.5-1.8-0.5s-1.3,0.2-1.8,0.5c-0.5,0.3-1,0.7-1.3,1.3
	c-0.3,0.6-0.5,1.2-0.5,1.9c0,0.7,0.2,1.4,0.5,1.9c0.3,0.6,0.7,1,1.3,1.3s1.1,0.5,1.8,0.5S439.4,74.5,440,74.2z"/>
<path class="st6" d="M454.2,62.3v13.4H453v-1.9c-0.4,0.6-0.9,1.1-1.5,1.5s-1.3,0.5-2.1,0.5c-0.9,0-1.7-0.2-2.4-0.6
	c-0.7-0.4-1.3-1-1.7-1.7c-0.4-0.7-0.6-1.6-0.6-2.5c0-0.9,0.2-1.8,0.6-2.5c0.4-0.7,1-1.3,1.7-1.7c0.7-0.4,1.5-0.6,2.4-0.6
	c0.8,0,1.5,0.2,2.1,0.5c0.6,0.3,1.1,0.8,1.5,1.4v-5.7H454.2z M451.2,74.2c0.5-0.3,1-0.7,1.3-1.3c0.3-0.6,0.5-1.2,0.5-1.9
	c0-0.7-0.2-1.4-0.5-1.9c-0.3-0.6-0.7-1-1.3-1.3c-0.5-0.3-1.1-0.5-1.8-0.5c-0.7,0-1.3,0.2-1.8,0.5c-0.5,0.3-1,0.7-1.3,1.3
	c-0.3,0.6-0.5,1.2-0.5,1.9c0,0.7,0.2,1.4,0.5,1.9c0.3,0.6,0.7,1,1.3,1.3s1.1,0.5,1.8,0.5C450.1,74.6,450.7,74.5,451.2,74.2z"/>
<path class="st6" d="M466.3,66.2v9.5h-1.2V74c-0.3,0.6-0.8,1-1.4,1.3c-0.6,0.3-1.3,0.5-2,0.5c-1.2,0-2.2-0.3-2.9-1
	c-0.7-0.7-1.1-1.7-1.1-3v-5.5h1.3v5.4c0,1,0.2,1.8,0.7,2.3c0.5,0.5,1.2,0.8,2.1,0.8c1,0,1.8-0.3,2.4-0.9c0.6-0.6,0.9-1.4,0.9-2.5v-5
	H466.3z"/>
<path class="st6" d="M471.3,75.2c-0.7-0.4-1.3-1-1.7-1.7c-0.4-0.7-0.6-1.6-0.6-2.5c0-0.9,0.2-1.8,0.6-2.5c0.4-0.7,1-1.3,1.7-1.7
	s1.6-0.6,2.5-0.6c0.8,0,1.5,0.2,2.2,0.5c0.6,0.3,1.1,0.8,1.5,1.4l-1,0.6c-0.3-0.5-0.7-0.8-1.2-1.1c-0.5-0.2-1-0.4-1.6-0.4
	c-0.7,0-1.3,0.2-1.8,0.5c-0.5,0.3-1,0.7-1.3,1.3c-0.3,0.6-0.5,1.2-0.5,1.9c0,0.7,0.2,1.4,0.5,1.9c0.3,0.6,0.7,1,1.3,1.3
	s1.2,0.5,1.8,0.5c0.6,0,1.1-0.1,1.6-0.3c0.5-0.2,0.9-0.6,1.2-1l1,0.6c-0.4,0.6-0.9,1.1-1.5,1.4c-0.6,0.3-1.4,0.5-2.2,0.5
	C472.9,75.8,472.1,75.6,471.3,75.2z"/>
<path class="st6" d="M488.1,71.4h-7.9c0.1,1,0.4,1.8,1.1,2.4c0.7,0.6,1.5,0.9,2.6,0.9c0.6,0,1.1-0.1,1.6-0.3
	c0.5-0.2,0.9-0.5,1.3-0.9l0.7,0.8c-0.4,0.5-0.9,0.9-1.6,1.2s-1.3,0.4-2.1,0.4c-1,0-1.8-0.2-2.6-0.6s-1.3-1-1.8-1.7
	c-0.4-0.7-0.6-1.6-0.6-2.5c0-0.9,0.2-1.8,0.6-2.5c0.4-0.7,1-1.3,1.7-1.7s1.5-0.6,2.4-0.6s1.7,0.2,2.4,0.6c0.7,0.4,1.2,1,1.6,1.7
	c0.4,0.7,0.6,1.6,0.6,2.5L488.1,71.4z M481.3,68.1c-0.6,0.6-1,1.3-1.1,2.3h6.7c-0.1-0.9-0.4-1.7-1.1-2.3c-0.6-0.6-1.4-0.9-2.3-0.9
	C482.6,67.2,481.9,67.5,481.3,68.1z"/>
<path class="st6" d="M493.3,66.6c0.6-0.3,1.3-0.5,2.2-0.5v1.2l-0.3,0c-1,0-1.8,0.3-2.3,0.9c-0.6,0.6-0.8,1.5-0.8,2.6v4.8h-1.3v-9.5
	h1.2v1.9C492.3,67.4,492.7,67,493.3,66.6z"/>
<path class="st6" d="M415.9,118.6c-0.9-0.3-1.5-0.7-2-1.2l0.5-1c0.5,0.5,1.1,0.8,1.8,1.1c0.8,0.3,1.5,0.4,2.3,0.4
	c1.1,0,2-0.2,2.5-0.6c0.6-0.4,0.8-1,0.8-1.6c0-0.5-0.2-0.9-0.5-1.2s-0.7-0.5-1.1-0.7s-1.1-0.3-1.9-0.5c-0.9-0.2-1.7-0.5-2.3-0.7
	s-1-0.6-1.4-1c-0.4-0.5-0.6-1.1-0.6-1.9c0-0.6,0.2-1.2,0.5-1.7c0.3-0.5,0.9-0.9,1.5-1.3c0.7-0.3,1.6-0.5,2.6-0.5
	c0.7,0,1.4,0.1,2.1,0.3s1.3,0.5,1.8,0.8l-0.5,1.1c-0.5-0.3-1.1-0.6-1.7-0.8c-0.6-0.2-1.2-0.3-1.8-0.3c-1.1,0-1.9,0.2-2.5,0.6
	c-0.6,0.4-0.8,1-0.8,1.6c0,0.5,0.2,0.9,0.5,1.2c0.3,0.3,0.7,0.5,1.2,0.7s1.1,0.3,1.9,0.5c0.9,0.2,1.7,0.5,2.2,0.7
	c0.6,0.2,1.1,0.6,1.4,1c0.4,0.5,0.6,1.1,0.6,1.8c0,0.6-0.2,1.2-0.5,1.7c-0.3,0.5-0.9,0.9-1.6,1.2c-0.7,0.3-1.6,0.5-2.6,0.5
	C417.6,119,416.7,118.9,415.9,118.6z"/>
<path class="st6" d="M434.1,114.6h-7.9c0.1,1,0.5,1.8,1.1,2.4c0.7,0.6,1.5,0.9,2.6,0.9c0.6,0,1.1-0.1,1.6-0.3
	c0.5-0.2,0.9-0.5,1.3-0.9l0.7,0.8c-0.4,0.5-0.9,0.9-1.6,1.2s-1.3,0.4-2.1,0.4c-1,0-1.8-0.2-2.6-0.6s-1.3-1-1.8-1.7
	c-0.4-0.7-0.6-1.6-0.6-2.5c0-0.9,0.2-1.8,0.6-2.5c0.4-0.7,1-1.3,1.7-1.7s1.5-0.6,2.4-0.6c0.9,0,1.7,0.2,2.4,0.6s1.2,1,1.6,1.7
	c0.4,0.7,0.6,1.6,0.6,2.5L434.1,114.6z M427.3,111.3c-0.6,0.6-1,1.3-1.1,2.3h6.7c-0.1-0.9-0.4-1.7-1.1-2.3c-0.6-0.6-1.4-0.9-2.3-0.9
	C428.6,110.4,427.9,110.7,427.3,111.3z"/>
<path class="st6" d="M436.7,105.5h1.3v13.4h-1.3V105.5z"/>
<path class="st6" d="M441.6,105.5h1.3v13.4h-1.3V105.5z"/>
<path class="st6" d="M454.7,114.6h-7.9c0.1,1,0.5,1.8,1.1,2.4c0.7,0.6,1.5,0.9,2.6,0.9c0.6,0,1.1-0.1,1.6-0.3
	c0.5-0.2,0.9-0.5,1.3-0.9l0.7,0.8c-0.4,0.5-0.9,0.9-1.6,1.2s-1.3,0.4-2.1,0.4c-1,0-1.8-0.2-2.6-0.6s-1.3-1-1.8-1.7
	c-0.4-0.7-0.6-1.6-0.6-2.5c0-0.9,0.2-1.8,0.6-2.5c0.4-0.7,1-1.3,1.7-1.7s1.5-0.6,2.4-0.6c0.9,0,1.7,0.2,2.4,0.6s1.2,1,1.6,1.7
	c0.4,0.7,0.6,1.6,0.6,2.5L454.7,114.6z M447.8,111.3c-0.6,0.6-1,1.3-1.1,2.3h6.7c-0.1-0.9-0.4-1.7-1.1-2.3c-0.6-0.6-1.4-0.9-2.3-0.9
	C449.2,110.4,448.4,110.7,447.8,111.3z"/>
<path class="st6" d="M459.9,109.8c0.6-0.3,1.3-0.5,2.2-0.5v1.2l-0.3,0c-1,0-1.8,0.3-2.3,0.9c-0.6,0.6-0.8,1.5-0.8,2.6v4.8h-1.3v-9.5
	h1.2v1.9C458.8,110.6,459.3,110.2,459.9,109.8z"/>
<path class="st6" d="M424,139.3v1.2h-8.9v-12.6h8.6v1.2h-7.3v4.5h6.5v1.1h-6.5v4.7H424z"/>
<path class="st6" d="M434.5,132c0.7,0.7,1.1,1.7,1.1,3v5.5h-1.3v-5.4c0-1-0.2-1.7-0.7-2.3c-0.5-0.5-1.2-0.8-2.1-0.8
	c-1,0-1.8,0.3-2.4,0.9c-0.6,0.6-0.9,1.4-0.9,2.5v5h-1.3V131h1.2v1.7c0.3-0.6,0.8-1,1.4-1.3c0.6-0.3,1.3-0.5,2.2-0.5
	C432.9,131,433.8,131.3,434.5,132z"/>
<path class="st6" d="M444,139.9c-0.2,0.2-0.5,0.4-0.9,0.5c-0.4,0.1-0.7,0.2-1.1,0.2c-0.9,0-1.6-0.2-2.1-0.7c-0.5-0.5-0.7-1.2-0.7-2
	v-5.7h-1.7V131h1.7V129h1.3v2.1h2.9v1.1h-2.9v5.7c0,0.6,0.1,1,0.4,1.3s0.7,0.4,1.2,0.4c0.3,0,0.5,0,0.8-0.1c0.2-0.1,0.5-0.2,0.6-0.4
	L444,139.9z"/>
<path class="st6" d="M448.9,131.4c0.6-0.3,1.3-0.5,2.2-0.5v1.2l-0.3,0c-1,0-1.8,0.3-2.3,0.9c-0.6,0.6-0.8,1.5-0.8,2.6v4.8h-1.3V131
	h1.2v1.9C447.9,132.2,448.3,131.8,448.9,131.4z"/>
<path class="st6" d="M461.6,136.2h-7.9c0.1,1,0.5,1.8,1.1,2.4c0.7,0.6,1.5,0.9,2.6,0.9c0.6,0,1.1-0.1,1.6-0.3
	c0.5-0.2,0.9-0.5,1.3-0.9l0.7,0.8c-0.4,0.5-0.9,0.9-1.6,1.2s-1.3,0.4-2.1,0.4c-1,0-1.8-0.2-2.6-0.6s-1.3-1-1.8-1.7
	c-0.4-0.7-0.6-1.6-0.6-2.5c0-0.9,0.2-1.8,0.6-2.5c0.4-0.7,1-1.3,1.7-1.7s1.5-0.6,2.4-0.6s1.7,0.2,2.4,0.6c0.7,0.4,1.2,1,1.6,1.7
	c0.4,0.7,0.6,1.6,0.6,2.5L461.6,136.2z M454.7,132.9c-0.6,0.6-1,1.3-1.1,2.3h6.7c-0.1-0.9-0.4-1.7-1.1-2.3c-0.6-0.6-1.4-0.9-2.3-0.9
	C456.1,132,455.3,132.3,454.7,132.9z"/>
<path class="st6" d="M471.5,131.6c0.7,0.4,1.3,1,1.7,1.7c0.4,0.7,0.6,1.6,0.6,2.5c0,0.9-0.2,1.8-0.6,2.5s-1,1.3-1.7,1.7
	c-0.7,0.4-1.5,0.6-2.4,0.6c-0.8,0-1.5-0.2-2.1-0.5c-0.6-0.3-1.1-0.8-1.5-1.4v5.3h-1.3v-13h1.2v1.9c0.4-0.6,0.9-1.1,1.5-1.4
	c0.6-0.3,1.3-0.5,2.1-0.5C470,131,470.8,131.2,471.5,131.6z M470.8,139c0.5-0.3,1-0.7,1.3-1.3c0.3-0.6,0.5-1.2,0.5-1.9
	c0-0.7-0.2-1.4-0.5-1.9c-0.3-0.6-0.7-1-1.3-1.3c-0.5-0.3-1.1-0.5-1.8-0.5c-0.7,0-1.3,0.2-1.8,0.5c-0.5,0.3-1,0.7-1.3,1.3
	c-0.3,0.6-0.5,1.2-0.5,1.9c0,0.7,0.2,1.4,0.5,1.9c0.3,0.6,0.7,1,1.3,1.3s1.1,0.5,1.8,0.5C469.6,139.4,470.2,139.3,470.8,139z"/>
<path class="st6" d="M479,131.4c0.6-0.3,1.3-0.5,2.2-0.5v1.2l-0.3,0c-1,0-1.8,0.3-2.3,0.9c-0.6,0.6-0.8,1.5-0.8,2.6v4.8h-1.3V131
	h1.2v1.9C477.9,132.2,478.4,131.8,479,131.4z"/>
<path class="st6" d="M491.6,136.2h-7.9c0.1,1,0.4,1.8,1.1,2.4c0.7,0.6,1.5,0.9,2.6,0.9c0.6,0,1.1-0.1,1.6-0.3
	c0.5-0.2,0.9-0.5,1.3-0.9l0.7,0.8c-0.4,0.5-0.9,0.9-1.6,1.2s-1.3,0.4-2.1,0.4c-1,0-1.8-0.2-2.6-0.6s-1.3-1-1.8-1.7
	c-0.4-0.7-0.6-1.6-0.6-2.5c0-0.9,0.2-1.8,0.6-2.5c0.4-0.7,1-1.3,1.7-1.7s1.5-0.6,2.4-0.6s1.7,0.2,2.4,0.6c0.7,0.4,1.2,1,1.6,1.7
	c0.4,0.7,0.6,1.6,0.6,2.5L491.6,136.2z M484.8,132.9c-0.6,0.6-1,1.3-1.1,2.3h6.7c-0.1-0.9-0.4-1.7-1.1-2.3c-0.6-0.6-1.4-0.9-2.3-0.9
	C486.1,132,485.4,132.3,484.8,132.9z"/>
<path class="st6" d="M501.9,132c0.7,0.7,1.1,1.7,1.1,3v5.5h-1.3v-5.4c0-1-0.2-1.7-0.7-2.3c-0.5-0.5-1.2-0.8-2.1-0.8
	c-1,0-1.8,0.3-2.4,0.9c-0.6,0.6-0.9,1.4-0.9,2.5v5h-1.3V131h1.2v1.7c0.3-0.6,0.8-1,1.4-1.3c0.6-0.3,1.3-0.5,2.2-0.5
	C500.3,131,501.2,131.3,501.9,132z"/>
<path class="st6" d="M514.7,136.2h-7.9c0.1,1,0.4,1.8,1.1,2.4c0.7,0.6,1.5,0.9,2.6,0.9c0.6,0,1.1-0.1,1.6-0.3
	c0.5-0.2,0.9-0.5,1.3-0.9l0.7,0.8c-0.4,0.5-0.9,0.9-1.6,1.2s-1.3,0.4-2.1,0.4c-1,0-1.8-0.2-2.6-0.6s-1.3-1-1.8-1.7
	c-0.4-0.7-0.6-1.6-0.6-2.5c0-0.9,0.2-1.8,0.6-2.5c0.4-0.7,1-1.3,1.7-1.7s1.5-0.6,2.4-0.6s1.7,0.2,2.4,0.6c0.7,0.4,1.2,1,1.6,1.7
	c0.4,0.7,0.6,1.6,0.6,2.5L514.7,136.2z M507.9,132.9c-0.6,0.6-1,1.3-1.1,2.3h6.7c-0.1-0.9-0.4-1.7-1.1-2.3c-0.6-0.6-1.4-0.9-2.3-0.9
	C509.2,132,508.5,132.3,507.9,132.9z"/>
<path class="st6" d="M525.9,131v9.5h-1.2v-1.7c-0.3,0.6-0.8,1-1.4,1.3c-0.6,0.3-1.3,0.5-2,0.5c-1.2,0-2.2-0.3-2.9-1
	c-0.7-0.7-1.1-1.7-1.1-3V131h1.3v5.4c0,1,0.2,1.8,0.7,2.3s1.2,0.8,2.1,0.8c1,0,1.8-0.3,2.4-0.9c0.6-0.6,0.9-1.4,0.9-2.5v-5H525.9z"
	/>
<path class="st6" d="M532,131.4c0.6-0.3,1.3-0.5,2.2-0.5v1.2l-0.3,0c-1,0-1.8,0.3-2.3,0.9c-0.6,0.6-0.8,1.5-0.8,2.6v4.8h-1.3V131
	h1.2v1.9C531,132.2,531.4,131.8,532,131.4z"/>
<path class="st6" d="M415.1,171.1h1.3v12.6h-1.3V171.1z"/>
<path class="st6" d="M427.9,175.2c0.7,0.7,1.1,1.7,1.1,3v5.5h-1.3v-5.4c0-1-0.2-1.7-0.7-2.3c-0.5-0.5-1.2-0.8-2.1-0.8
	c-1,0-1.8,0.3-2.4,0.9c-0.6,0.6-0.9,1.4-0.9,2.5v5h-1.3v-9.5h1.2v1.7c0.3-0.6,0.8-1,1.4-1.3c0.6-0.3,1.3-0.5,2.2-0.5
	C426.3,174.2,427.2,174.5,427.9,175.2z"/>
<path class="st6" d="M434.3,171.8c-0.3,0.3-0.4,0.7-0.4,1.3v1.1h2.9v1.1h-2.9v8.4h-1.3v-8.4h-1.7v-1.1h1.7v-1.2
	c0-0.9,0.2-1.5,0.7-2.1c0.5-0.5,1.2-0.8,2.1-0.8c0.4,0,0.7,0.1,1,0.2c0.3,0.1,0.6,0.2,0.8,0.4l-0.4,1c-0.4-0.3-0.8-0.5-1.4-0.5
	C435,171.3,434.6,171.5,434.3,171.8z M438.5,170.3h1.3v13.4h-1.3V170.3z"/>
<path class="st6" d="M451.9,174.2v9.5h-1.2V182c-0.3,0.6-0.8,1-1.4,1.3c-0.6,0.3-1.3,0.5-2,0.5c-1.2,0-2.2-0.3-2.9-1
	c-0.7-0.7-1.1-1.7-1.1-3v-5.5h1.3v5.4c0,1,0.2,1.8,0.7,2.3s1.2,0.8,2.1,0.8c1,0,1.8-0.3,2.4-0.9c0.6-0.6,0.9-1.4,0.9-2.5v-5H451.9z"
	/>
<path class="st6" d="M463.7,179.4h-7.9c0.1,1,0.5,1.8,1.1,2.4c0.7,0.6,1.5,0.9,2.6,0.9c0.6,0,1.1-0.1,1.6-0.3
	c0.5-0.2,0.9-0.5,1.3-0.9l0.7,0.8c-0.4,0.5-0.9,0.9-1.6,1.2s-1.3,0.4-2.1,0.4c-1,0-1.8-0.2-2.6-0.6s-1.3-1-1.8-1.7
	c-0.4-0.7-0.6-1.6-0.6-2.5c0-0.9,0.2-1.8,0.6-2.5c0.4-0.7,1-1.3,1.7-1.7s1.5-0.6,2.4-0.6c0.9,0,1.7,0.2,2.4,0.6s1.2,1,1.6,1.7
	c0.4,0.7,0.6,1.6,0.6,2.5L463.7,179.4z M456.9,176.1c-0.6,0.6-1,1.3-1.1,2.3h6.7c-0.1-0.9-0.4-1.7-1.1-2.3c-0.6-0.6-1.4-0.9-2.3-0.9
	C458.2,175.2,457.5,175.5,456.9,176.1z"/>
<path class="st6" d="M474,175.2c0.7,0.7,1.1,1.7,1.1,3v5.5h-1.3v-5.4c0-1-0.2-1.7-0.7-2.3c-0.5-0.5-1.2-0.8-2.1-0.8
	c-1,0-1.8,0.3-2.4,0.9c-0.6,0.6-0.9,1.4-0.9,2.5v5h-1.3v-9.5h1.2v1.7c0.3-0.6,0.8-1,1.4-1.3c0.6-0.3,1.3-0.5,2.2-0.5
	C472.4,174.2,473.3,174.5,474,175.2z"/>
<path class="st6" d="M480,183.2c-0.7-0.4-1.3-1-1.7-1.7c-0.4-0.7-0.6-1.6-0.6-2.5c0-0.9,0.2-1.8,0.6-2.5c0.4-0.7,1-1.3,1.7-1.7
	c0.7-0.4,1.6-0.6,2.5-0.6c0.8,0,1.5,0.2,2.2,0.5c0.6,0.3,1.1,0.8,1.5,1.4l-1,0.6c-0.3-0.5-0.7-0.8-1.2-1.1c-0.5-0.2-1-0.4-1.6-0.4
	c-0.7,0-1.3,0.2-1.8,0.5c-0.5,0.3-1,0.7-1.3,1.3c-0.3,0.6-0.5,1.2-0.5,1.9c0,0.7,0.2,1.4,0.5,1.9c0.3,0.6,0.7,1,1.3,1.3
	c0.5,0.3,1.2,0.5,1.8,0.5c0.6,0,1.1-0.1,1.6-0.3c0.5-0.2,0.9-0.6,1.2-1l1,0.6c-0.4,0.6-0.9,1.1-1.5,1.4c-0.6,0.3-1.4,0.5-2.2,0.5
	C481.6,183.8,480.7,183.6,480,183.2z"/>
<path class="st6" d="M488.7,171.9c-0.2-0.2-0.3-0.4-0.3-0.6c0-0.2,0.1-0.5,0.3-0.6c0.2-0.2,0.4-0.3,0.7-0.3s0.5,0.1,0.7,0.3
	c0.2,0.2,0.3,0.4,0.3,0.6c0,0.3-0.1,0.5-0.3,0.7c-0.2,0.2-0.4,0.3-0.7,0.3S488.9,172.1,488.7,171.9z M488.7,174.2h1.3v9.5h-1.3
	V174.2z"/>
<path class="st6" d="M501.2,175.2c0.7,0.7,1.1,1.7,1.1,3v5.5H501v-5.4c0-1-0.2-1.7-0.7-2.3c-0.5-0.5-1.2-0.8-2.1-0.8
	c-1,0-1.8,0.3-2.4,0.9c-0.6,0.6-0.9,1.4-0.9,2.5v5h-1.3v-9.5h1.2v1.7c0.3-0.6,0.8-1,1.4-1.3c0.6-0.3,1.3-0.5,2.2-0.5
	C499.6,174.2,500.5,174.5,501.2,175.2z"/>
<path class="st6" d="M514.5,174.2v8.3c0,1.6-0.4,2.8-1.2,3.6c-0.8,0.8-2,1.2-3.6,1.2c-0.9,0-1.7-0.1-2.5-0.4
	c-0.8-0.3-1.4-0.6-1.9-1.1l0.6-1c0.5,0.4,1,0.7,1.7,1c0.7,0.2,1.3,0.3,2.1,0.3c1.2,0,2.1-0.3,2.6-0.8c0.6-0.6,0.8-1.4,0.8-2.6v-1.2
	c-0.4,0.6-0.9,1.1-1.6,1.4c-0.6,0.3-1.4,0.5-2.1,0.5c-0.9,0-1.7-0.2-2.4-0.6c-0.7-0.4-1.3-0.9-1.7-1.6s-0.6-1.5-0.6-2.4
	s0.2-1.7,0.6-2.4s1-1.2,1.7-1.6c0.7-0.4,1.5-0.6,2.4-0.6c0.8,0,1.5,0.2,2.2,0.5c0.6,0.3,1.2,0.8,1.6,1.4v-1.8H514.5z M511.6,181.8
	c0.6-0.3,1-0.7,1.3-1.2c0.3-0.5,0.5-1.1,0.5-1.8s-0.2-1.3-0.5-1.8c-0.3-0.5-0.7-0.9-1.3-1.2c-0.5-0.3-1.2-0.4-1.9-0.4
	c-0.7,0-1.3,0.1-1.8,0.4c-0.5,0.3-1,0.7-1.3,1.2c-0.3,0.5-0.5,1.1-0.5,1.8s0.2,1.3,0.5,1.8s0.7,0.9,1.3,1.2c0.5,0.3,1.2,0.4,1.8,0.4
	S511,182.1,511.6,181.8z"/>
<path class="st6" d="M424,204.1v1.2h-8.9v-12.6h8.6v1.2h-7.3v4.5h6.5v1.1h-6.5v4.7H424z"/>
<path class="st6" d="M434.5,196.8c0.7,0.7,1.1,1.7,1.1,3v5.5h-1.3v-5.4c0-1-0.2-1.7-0.7-2.3c-0.5-0.5-1.2-0.8-2.1-0.8
	c-1,0-1.8,0.3-2.4,0.9c-0.6,0.6-0.9,1.4-0.9,2.5v5h-1.3v-9.5h1.2v1.7c0.3-0.6,0.8-1,1.4-1.3c0.6-0.3,1.3-0.5,2.2-0.5
	C432.9,195.8,433.8,196.1,434.5,196.8z"/>
<path class="st6" d="M444,204.7c-0.2,0.2-0.5,0.4-0.9,0.5c-0.4,0.1-0.7,0.2-1.1,0.2c-0.9,0-1.6-0.2-2.1-0.7c-0.5-0.5-0.7-1.2-0.7-2
	v-5.7h-1.7v-1.1h1.7v-2.1h1.3v2.1h2.9v1.1h-2.9v5.7c0,0.6,0.1,1,0.4,1.3s0.7,0.4,1.2,0.4c0.3,0,0.5,0,0.8-0.1
	c0.2-0.1,0.5-0.2,0.6-0.4L444,204.7z"/>
<path class="st6" d="M448.9,196.2c0.6-0.3,1.3-0.5,2.2-0.5v1.2l-0.3,0c-1,0-1.8,0.3-2.3,0.9c-0.6,0.6-0.8,1.5-0.8,2.6v4.8h-1.3v-9.5
	h1.2v1.9C447.9,197,448.3,196.6,448.9,196.2z"/>
<path class="st6" d="M461.6,201h-7.9c0.1,1,0.5,1.8,1.1,2.4c0.7,0.6,1.5,0.9,2.6,0.9c0.6,0,1.1-0.1,1.6-0.3c0.5-0.2,0.9-0.5,1.3-0.9
	l0.7,0.8c-0.4,0.5-0.9,0.9-1.6,1.2s-1.3,0.4-2.1,0.4c-1,0-1.8-0.2-2.6-0.6s-1.3-1-1.8-1.7c-0.4-0.7-0.6-1.6-0.6-2.5
	c0-0.9,0.2-1.8,0.6-2.5c0.4-0.7,1-1.3,1.7-1.7s1.5-0.6,2.4-0.6s1.7,0.2,2.4,0.6c0.7,0.4,1.2,1,1.6,1.7c0.4,0.7,0.6,1.6,0.6,2.5
	L461.6,201z M454.7,197.7c-0.6,0.6-1,1.3-1.1,2.3h6.7c-0.1-0.9-0.4-1.7-1.1-2.3c-0.6-0.6-1.4-0.9-2.3-0.9
	C456.1,196.8,455.3,197.1,454.7,197.7z"/>
<path class="st6" d="M471.5,196.4c0.7,0.4,1.3,1,1.7,1.7c0.4,0.7,0.6,1.6,0.6,2.5c0,0.9-0.2,1.8-0.6,2.5s-1,1.3-1.7,1.7
	c-0.7,0.4-1.5,0.6-2.4,0.6c-0.8,0-1.5-0.2-2.1-0.5c-0.6-0.3-1.1-0.8-1.5-1.4v5.3h-1.3v-13h1.2v1.9c0.4-0.6,0.9-1.1,1.5-1.4
	c0.6-0.3,1.3-0.5,2.1-0.5C470,195.8,470.8,196,471.5,196.4z M470.8,203.8c0.5-0.3,1-0.7,1.3-1.3c0.3-0.6,0.5-1.2,0.5-1.9
	c0-0.7-0.2-1.4-0.5-1.9c-0.3-0.6-0.7-1-1.3-1.3c-0.5-0.3-1.1-0.5-1.8-0.5c-0.7,0-1.3,0.2-1.8,0.5c-0.5,0.3-1,0.7-1.3,1.3
	c-0.3,0.6-0.5,1.2-0.5,1.9c0,0.7,0.2,1.4,0.5,1.9c0.3,0.6,0.7,1,1.3,1.3s1.1,0.5,1.8,0.5C469.6,204.2,470.2,204.1,470.8,203.8z"/>
<path class="st6" d="M479,196.2c0.6-0.3,1.3-0.5,2.2-0.5v1.2l-0.3,0c-1,0-1.8,0.3-2.3,0.9c-0.6,0.6-0.8,1.5-0.8,2.6v4.8h-1.3v-9.5
	h1.2v1.9C477.9,197,478.4,196.6,479,196.2z"/>
<path class="st6" d="M491.6,201h-7.9c0.1,1,0.4,1.8,1.1,2.4c0.7,0.6,1.5,0.9,2.6,0.9c0.6,0,1.1-0.1,1.6-0.3c0.5-0.2,0.9-0.5,1.3-0.9
	l0.7,0.8c-0.4,0.5-0.9,0.9-1.6,1.2s-1.3,0.4-2.1,0.4c-1,0-1.8-0.2-2.6-0.6s-1.3-1-1.8-1.7c-0.4-0.7-0.6-1.6-0.6-2.5
	c0-0.9,0.2-1.8,0.6-2.5c0.4-0.7,1-1.3,1.7-1.7s1.5-0.6,2.4-0.6s1.7,0.2,2.4,0.6c0.7,0.4,1.2,1,1.6,1.7c0.4,0.7,0.6,1.6,0.6,2.5
	L491.6,201z M484.8,197.7c-0.6,0.6-1,1.3-1.1,2.3h6.7c-0.1-0.9-0.4-1.7-1.1-2.3c-0.6-0.6-1.4-0.9-2.3-0.9
	C486.1,196.8,485.4,197.1,484.8,197.7z"/>
<path class="st6" d="M501.9,196.8c0.7,0.7,1.1,1.7,1.1,3v5.5h-1.3v-5.4c0-1-0.2-1.7-0.7-2.3c-0.5-0.5-1.2-0.8-2.1-0.8
	c-1,0-1.8,0.3-2.4,0.9c-0.6,0.6-0.9,1.4-0.9,2.5v5h-1.3v-9.5h1.2v1.7c0.3-0.6,0.8-1,1.4-1.3c0.6-0.3,1.3-0.5,2.2-0.5
	C500.3,195.8,501.2,196.1,501.9,196.8z"/>
<path class="st6" d="M514.7,201h-7.9c0.1,1,0.4,1.8,1.1,2.4c0.7,0.6,1.5,0.9,2.6,0.9c0.6,0,1.1-0.1,1.6-0.3c0.5-0.2,0.9-0.5,1.3-0.9
	l0.7,0.8c-0.4,0.5-0.9,0.9-1.6,1.2s-1.3,0.4-2.1,0.4c-1,0-1.8-0.2-2.6-0.6s-1.3-1-1.8-1.7c-0.4-0.7-0.6-1.6-0.6-2.5
	c0-0.9,0.2-1.8,0.6-2.5c0.4-0.7,1-1.3,1.7-1.7s1.5-0.6,2.4-0.6s1.7,0.2,2.4,0.6c0.7,0.4,1.2,1,1.6,1.7c0.4,0.7,0.6,1.6,0.6,2.5
	L514.7,201z M507.9,197.7c-0.6,0.6-1,1.3-1.1,2.3h6.7c-0.1-0.9-0.4-1.7-1.1-2.3c-0.6-0.6-1.4-0.9-2.3-0.9
	C509.2,196.8,508.5,197.1,507.9,197.7z"/>
<path class="st6" d="M525.9,195.8v9.5h-1.2v-1.7c-0.3,0.6-0.8,1-1.4,1.3c-0.6,0.3-1.3,0.5-2,0.5c-1.2,0-2.2-0.3-2.9-1
	c-0.7-0.7-1.1-1.7-1.1-3v-5.5h1.3v5.4c0,1,0.2,1.8,0.7,2.3s1.2,0.8,2.1,0.8c1,0,1.8-0.3,2.4-0.9c0.6-0.6,0.9-1.4,0.9-2.5v-5H525.9z"
	/>
<path class="st6" d="M532,196.2c0.6-0.3,1.3-0.5,2.2-0.5v1.2l-0.3,0c-1,0-1.8,0.3-2.3,0.9c-0.6,0.6-0.8,1.5-0.8,2.6v4.8h-1.3v-9.5
	h1.2v1.9C531,197,531.4,196.6,532,196.2z"/>
<path class="st6" d="M416.4,237v5h6.5v1.2h-6.5v5.3h-1.3v-12.6h8.6v1.2H416.4z"/>
<path class="st6" d="M428.6,239.4c0.6-0.3,1.3-0.5,2.2-0.5v1.2l-0.3,0c-1,0-1.8,0.3-2.3,0.9c-0.6,0.6-0.8,1.5-0.8,2.6v4.8H426V239
	h1.2v1.9C427.5,240.2,428,239.8,428.6,239.4z"/>
<path class="st6" d="M441.2,244.2h-7.9c0.1,1,0.5,1.8,1.1,2.4c0.7,0.6,1.5,0.9,2.6,0.9c0.6,0,1.1-0.1,1.6-0.3
	c0.5-0.2,0.9-0.5,1.3-0.9l0.7,0.8c-0.4,0.5-0.9,0.9-1.6,1.2s-1.3,0.4-2.1,0.4c-1,0-1.8-0.2-2.6-0.6s-1.3-1-1.8-1.7
	c-0.4-0.7-0.6-1.6-0.6-2.5c0-0.9,0.2-1.8,0.6-2.5c0.4-0.7,1-1.3,1.7-1.7s1.5-0.6,2.4-0.6s1.7,0.2,2.4,0.6c0.7,0.4,1.2,1,1.6,1.7
	c0.4,0.7,0.6,1.6,0.6,2.5L441.2,244.2z M434.4,240.9c-0.6,0.6-1,1.3-1.1,2.3h6.7c-0.1-0.9-0.4-1.7-1.1-2.3c-0.6-0.6-1.4-0.9-2.3-0.9
	C435.8,240,435,240.3,434.4,240.9z"/>
<path class="st6" d="M452.1,244.2h-7.9c0.1,1,0.5,1.8,1.1,2.4c0.7,0.6,1.5,0.9,2.6,0.9c0.6,0,1.1-0.1,1.6-0.3
	c0.5-0.2,0.9-0.5,1.3-0.9l0.7,0.8c-0.4,0.5-0.9,0.9-1.6,1.2s-1.3,0.4-2.1,0.4c-1,0-1.8-0.2-2.6-0.6s-1.3-1-1.8-1.7
	c-0.4-0.7-0.6-1.6-0.6-2.5c0-0.9,0.2-1.8,0.6-2.5c0.4-0.7,1-1.3,1.7-1.7s1.5-0.6,2.4-0.6c0.9,0,1.7,0.2,2.4,0.6s1.2,1,1.6,1.7
	c0.4,0.7,0.6,1.6,0.6,2.5L452.1,244.2z M445.3,240.9c-0.6,0.6-1,1.3-1.1,2.3h6.7c-0.1-0.9-0.4-1.7-1.1-2.3c-0.6-0.6-1.4-0.9-2.3-0.9
	C446.6,240,445.9,240.3,445.3,240.9z"/>
<path class="st6" d="M463.4,235.1v13.4h-1.2v-1.9c-0.4,0.6-0.9,1.1-1.5,1.5c-0.6,0.3-1.3,0.5-2.1,0.5c-0.9,0-1.7-0.2-2.4-0.6
	c-0.7-0.4-1.3-1-1.7-1.7c-0.4-0.7-0.6-1.6-0.6-2.5c0-0.9,0.2-1.8,0.6-2.5c0.4-0.7,1-1.3,1.7-1.7c0.7-0.4,1.5-0.6,2.4-0.6
	c0.8,0,1.5,0.2,2.1,0.5c0.6,0.3,1.1,0.8,1.5,1.4v-5.7H463.4z M460.4,247c0.5-0.3,1-0.7,1.3-1.3c0.3-0.6,0.5-1.2,0.5-1.9
	c0-0.7-0.2-1.4-0.5-1.9c-0.3-0.6-0.7-1-1.3-1.3c-0.5-0.3-1.1-0.5-1.8-0.5c-0.7,0-1.3,0.2-1.8,0.5c-0.5,0.3-1,0.7-1.3,1.3
	c-0.3,0.6-0.5,1.2-0.5,1.9c0,0.7,0.2,1.4,0.5,1.9c0.3,0.6,0.7,1,1.3,1.3c0.5,0.3,1.1,0.5,1.8,0.5C459.3,247.4,459.9,247.3,460.4,247
	z"/>
<path class="st6" d="M468.4,248c-0.7-0.4-1.3-1-1.7-1.7c-0.4-0.7-0.6-1.6-0.6-2.5c0-0.9,0.2-1.8,0.6-2.5c0.4-0.7,1-1.3,1.7-1.7
	c0.7-0.4,1.6-0.6,2.5-0.6s1.7,0.2,2.5,0.6c0.7,0.4,1.3,1,1.7,1.7c0.4,0.7,0.6,1.6,0.6,2.5c0,0.9-0.2,1.8-0.6,2.5
	c-0.4,0.7-1,1.3-1.7,1.7c-0.7,0.4-1.6,0.6-2.5,0.6S469.1,248.4,468.4,248z M472.6,247c0.5-0.3,1-0.7,1.3-1.3
	c0.3-0.6,0.5-1.2,0.5-1.9c0-0.7-0.2-1.4-0.5-1.9c-0.3-0.6-0.7-1-1.3-1.3c-0.5-0.3-1.1-0.5-1.8-0.5s-1.3,0.2-1.8,0.5
	c-0.5,0.3-1,0.7-1.3,1.3c-0.3,0.6-0.5,1.2-0.5,1.9c0,0.7,0.2,1.4,0.5,1.9c0.3,0.6,0.7,1,1.3,1.3c0.5,0.3,1.1,0.5,1.8,0.5
	S472.1,247.3,472.6,247z"/>
<path class="st6" d="M492.8,240c0.7,0.7,1,1.7,1,3v5.5h-1.3v-5.4c0-1-0.2-1.7-0.7-2.3c-0.5-0.5-1.1-0.8-2-0.8c-1,0-1.8,0.3-2.3,0.9
	c-0.6,0.6-0.8,1.4-0.8,2.5v5h-1.3v-5.4c0-1-0.2-1.7-0.7-2.3c-0.5-0.5-1.1-0.8-2-0.8c-1,0-1.7,0.3-2.3,0.9c-0.6,0.6-0.9,1.4-0.9,2.5
	v5h-1.3V239h1.2v1.7c0.3-0.6,0.8-1,1.4-1.3c0.6-0.3,1.3-0.5,2.1-0.5c0.8,0,1.5,0.2,2.1,0.5s1,0.8,1.3,1.5c0.3-0.6,0.8-1.1,1.5-1.5
	c0.7-0.4,1.4-0.5,2.2-0.5C491.2,239,492.2,239.3,492.8,240z"/>
<path class="st6" d="M505.6,244.2h-7.9c0.1,1,0.4,1.8,1.1,2.4c0.7,0.6,1.5,0.9,2.6,0.9c0.6,0,1.1-0.1,1.6-0.3
	c0.5-0.2,0.9-0.5,1.3-0.9l0.7,0.8c-0.4,0.5-0.9,0.9-1.6,1.2s-1.3,0.4-2.1,0.4c-1,0-1.8-0.2-2.6-0.6s-1.3-1-1.8-1.7
	c-0.4-0.7-0.6-1.6-0.6-2.5c0-0.9,0.2-1.8,0.6-2.5c0.4-0.7,1-1.3,1.7-1.7s1.5-0.6,2.4-0.6s1.7,0.2,2.4,0.6c0.7,0.4,1.2,1,1.6,1.7
	c0.4,0.7,0.6,1.6,0.6,2.5L505.6,244.2z M498.7,240.9c-0.6,0.6-1,1.3-1.1,2.3h6.7c-0.1-0.9-0.4-1.7-1.1-2.3c-0.6-0.6-1.4-0.9-2.3-0.9
	C500.1,240,499.4,240.3,498.7,240.9z"/>
<path class="st6" d="M517.4,247.3v1.2h-8.9v-12.6h8.6v1.2h-7.3v4.5h6.5v1.1h-6.5v4.7H517.4z"/>
<path class="st6" d="M428.2,279.1v12.6h-1.3v-10.1l-5,8.5h-0.6l-5-8.4v10h-1.3v-12.6h1.1l5.5,9.3l5.4-9.3H428.2z"/>
<path class="st6" d="M438.1,283.1c0.7,0.6,1,1.5,1,2.7v5.9h-1.2v-1.5c-0.3,0.5-0.7,0.9-1.3,1.2c-0.6,0.3-1.2,0.4-2,0.4
	c-1.1,0-1.9-0.3-2.5-0.8s-0.9-1.2-0.9-2c0-0.8,0.3-1.5,0.9-1.9c0.6-0.5,1.5-0.7,2.8-0.7h3v-0.6c0-0.8-0.2-1.4-0.7-1.9
	s-1.1-0.6-2-0.6c-0.6,0-1.2,0.1-1.7,0.3c-0.6,0.2-1,0.5-1.4,0.8l-0.6-1c0.5-0.4,1.1-0.7,1.7-0.9c0.7-0.2,1.4-0.3,2.1-0.3
	C436.5,282.2,437.5,282.5,438.1,283.1z M436.7,290.3c0.5-0.3,0.9-0.8,1.2-1.4v-1.5h-3c-1.6,0-2.4,0.6-2.4,1.7c0,0.6,0.2,1,0.6,1.3
	c0.4,0.3,1,0.5,1.8,0.5C435.6,290.8,436.2,290.6,436.7,290.3z"/>
<path class="st6" d="M445.2,282.6c0.6-0.3,1.3-0.5,2.2-0.5v1.2l-0.3,0c-1,0-1.8,0.3-2.3,0.9c-0.6,0.6-0.8,1.5-0.8,2.6v4.8h-1.3v-9.5
	h1.2v1.9C444.1,283.4,444.6,283,445.2,282.6z"/>
<path class="st6" d="M453.2,286.9L451,289v2.7h-1.3v-13.4h1.3v9.1l5.7-5.2h1.6l-4,3.9l4.4,5.6H457L453.2,286.9z"/>
<path class="st6" d="M468.4,287.4h-7.9c0.1,1,0.5,1.8,1.1,2.4c0.7,0.6,1.5,0.9,2.6,0.9c0.6,0,1.1-0.1,1.6-0.3
	c0.5-0.2,0.9-0.5,1.3-0.9l0.7,0.8c-0.4,0.5-0.9,0.9-1.6,1.2s-1.3,0.4-2.1,0.4c-1,0-1.8-0.2-2.6-0.6s-1.3-1-1.8-1.7
	c-0.4-0.7-0.6-1.6-0.6-2.5c0-0.9,0.2-1.8,0.6-2.5c0.4-0.7,1-1.3,1.7-1.7s1.5-0.6,2.4-0.6c0.9,0,1.7,0.2,2.4,0.6s1.2,1,1.6,1.7
	c0.4,0.7,0.6,1.6,0.6,2.5L468.4,287.4z M461.5,284.1c-0.6,0.6-1,1.3-1.1,2.3h6.7c-0.1-0.9-0.4-1.7-1.1-2.3c-0.6-0.6-1.4-0.9-2.3-0.9
	C462.9,283.3,462.1,283.5,461.5,284.1z"/>
<path class="st6" d="M476,291.1c-0.2,0.2-0.5,0.4-0.9,0.5c-0.4,0.1-0.7,0.2-1.1,0.2c-0.9,0-1.6-0.2-2.1-0.7c-0.5-0.5-0.7-1.2-0.7-2
	v-5.7h-1.7v-1.1h1.7v-2.1h1.3v2.1h2.9v1.1h-2.9v5.7c0,0.6,0.1,1,0.4,1.3s0.7,0.4,1.2,0.4c0.3,0,0.5,0,0.8-0.1
	c0.2-0.1,0.5-0.2,0.6-0.4L476,291.1z"/>
<path class="st6" d="M478.3,279.9c-0.2-0.2-0.3-0.4-0.3-0.6c0-0.2,0.1-0.5,0.3-0.6c0.2-0.2,0.4-0.3,0.7-0.3s0.5,0.1,0.7,0.3
	c0.2,0.2,0.3,0.4,0.3,0.6c0,0.3-0.1,0.5-0.3,0.7c-0.2,0.2-0.4,0.3-0.7,0.3S478.5,280.1,478.3,279.9z M478.3,282.2h1.3v9.5h-1.3
	V282.2z"/>
<path class="st6" d="M490.8,283.2c0.7,0.7,1.1,1.7,1.1,3v5.5h-1.3v-5.4c0-1-0.2-1.7-0.7-2.3c-0.5-0.5-1.2-0.8-2.1-0.8
	c-1,0-1.8,0.3-2.4,0.9c-0.6,0.6-0.9,1.4-0.9,2.5v5h-1.3v-9.5h1.2v1.7c0.3-0.6,0.8-1,1.4-1.3c0.6-0.3,1.3-0.5,2.2-0.5
	C489.2,282.2,490.1,282.5,490.8,283.2z"/>
<path class="st6" d="M504.1,282.2v8.3c0,1.6-0.4,2.8-1.2,3.6c-0.8,0.8-2,1.2-3.6,1.2c-0.9,0-1.7-0.1-2.5-0.4
	c-0.8-0.3-1.4-0.6-1.9-1.1l0.6-1c0.5,0.4,1,0.7,1.7,1c0.7,0.2,1.3,0.3,2.1,0.3c1.2,0,2.1-0.3,2.6-0.8c0.6-0.6,0.8-1.4,0.8-2.6v-1.2
	c-0.4,0.6-0.9,1.1-1.6,1.4c-0.6,0.3-1.4,0.5-2.1,0.5c-0.9,0-1.7-0.2-2.4-0.6c-0.7-0.4-1.3-0.9-1.7-1.6s-0.6-1.5-0.6-2.4
	s0.2-1.7,0.6-2.4s1-1.2,1.7-1.6c0.7-0.4,1.5-0.6,2.4-0.6c0.8,0,1.5,0.2,2.2,0.5c0.6,0.3,1.2,0.8,1.6,1.4v-1.8H504.1z M501.1,289.8
	c0.6-0.3,1-0.7,1.3-1.2c0.3-0.5,0.5-1.1,0.5-1.8s-0.2-1.3-0.5-1.8c-0.3-0.5-0.7-0.9-1.3-1.2c-0.5-0.3-1.2-0.4-1.9-0.4
	c-0.7,0-1.3,0.1-1.8,0.4c-0.5,0.3-1,0.7-1.3,1.2c-0.3,0.5-0.5,1.1-0.5,1.8s0.2,1.3,0.5,1.8s0.7,0.9,1.3,1.2c0.5,0.3,1.2,0.4,1.8,0.4
	S500.6,290.1,501.1,289.8z"/>
<path class="st6" d="M518.6,283.1c0.7,0.6,1,1.5,1,2.7v5.9h-1.2v-1.5c-0.3,0.5-0.7,0.9-1.3,1.2c-0.6,0.3-1.2,0.4-2,0.4
	c-1.1,0-1.9-0.3-2.5-0.8s-0.9-1.2-0.9-2c0-0.8,0.3-1.5,0.9-1.9c0.6-0.5,1.5-0.7,2.8-0.7h3v-0.6c0-0.8-0.2-1.4-0.7-1.9
	s-1.1-0.6-2-0.6c-0.6,0-1.2,0.1-1.7,0.3c-0.6,0.2-1,0.5-1.4,0.8l-0.6-1c0.5-0.4,1.1-0.7,1.7-0.9c0.7-0.2,1.4-0.3,2.1-0.3
	C517,282.2,517.9,282.5,518.6,283.1z M517.2,290.3c0.5-0.3,0.9-0.8,1.2-1.4v-1.5h-3c-1.6,0-2.4,0.6-2.4,1.7c0,0.6,0.2,1,0.6,1.3
	c0.4,0.3,1,0.5,1.8,0.5C516,290.8,516.6,290.6,517.2,290.3z"/>
<path class="st6" d="M530.7,283.2c0.7,0.7,1.1,1.7,1.1,3v5.5h-1.3v-5.4c0-1-0.2-1.7-0.7-2.3c-0.5-0.5-1.2-0.8-2.1-0.8
	c-1,0-1.8,0.3-2.4,0.9c-0.6,0.6-0.9,1.4-0.9,2.5v5h-1.3v-9.5h1.2v1.7c0.3-0.6,0.8-1,1.4-1.3c0.6-0.3,1.3-0.5,2.2-0.5
	C529.1,282.2,530,282.5,530.7,283.2z"/>
<path class="st6" d="M543.9,278.3v13.4h-1.2v-1.9c-0.4,0.6-0.9,1.1-1.5,1.5s-1.3,0.5-2.1,0.5c-0.9,0-1.7-0.2-2.4-0.6
	c-0.7-0.4-1.3-1-1.7-1.7c-0.4-0.7-0.6-1.6-0.6-2.5c0-0.9,0.2-1.8,0.6-2.5c0.4-0.7,1-1.3,1.7-1.7c0.7-0.4,1.5-0.6,2.4-0.6
	c0.8,0,1.5,0.2,2.1,0.5c0.6,0.3,1.1,0.8,1.5,1.4v-5.7H543.9z M540.9,290.2c0.5-0.3,1-0.7,1.3-1.3c0.3-0.6,0.5-1.2,0.5-1.9
	c0-0.7-0.2-1.4-0.5-1.9c-0.3-0.6-0.7-1-1.3-1.3c-0.5-0.3-1.1-0.5-1.8-0.5c-0.7,0-1.3,0.2-1.8,0.5c-0.5,0.3-1,0.7-1.3,1.3
	c-0.3,0.6-0.5,1.2-0.5,1.9c0,0.7,0.2,1.4,0.5,1.9c0.3,0.6,0.7,1,1.3,1.3s1.1,0.5,1.8,0.5C539.8,290.6,540.4,290.5,540.9,290.2z"/>
<path class="st6" d="M416.2,312.8c-0.7-0.4-1.3-1-1.7-1.7c-0.4-0.7-0.6-1.6-0.6-2.5c0-0.9,0.2-1.8,0.6-2.5c0.4-0.7,1-1.3,1.7-1.7
	s1.6-0.6,2.5-0.6c0.8,0,1.5,0.2,2.2,0.5c0.6,0.3,1.1,0.8,1.5,1.4l-1,0.6c-0.3-0.5-0.7-0.8-1.2-1.1c-0.5-0.2-1-0.4-1.6-0.4
	c-0.7,0-1.3,0.2-1.8,0.5c-0.5,0.3-1,0.7-1.3,1.3c-0.3,0.6-0.5,1.2-0.5,1.9c0,0.7,0.2,1.4,0.5,1.9c0.3,0.6,0.7,1,1.3,1.3
	s1.2,0.5,1.8,0.5c0.6,0,1.1-0.1,1.6-0.3c0.5-0.2,0.9-0.6,1.2-1l1,0.6c-0.4,0.6-0.9,1.1-1.5,1.4c-0.6,0.3-1.4,0.5-2.2,0.5
	C417.8,313.4,417,313.2,416.2,312.8z"/>
<path class="st6" d="M426.2,312.8c-0.7-0.4-1.3-1-1.7-1.7c-0.4-0.7-0.6-1.6-0.6-2.5c0-0.9,0.2-1.8,0.6-2.5c0.4-0.7,1-1.3,1.7-1.7
	c0.7-0.4,1.6-0.6,2.5-0.6s1.7,0.2,2.5,0.6c0.7,0.4,1.3,1,1.7,1.7c0.4,0.7,0.6,1.6,0.6,2.5c0,0.9-0.2,1.8-0.6,2.5
	c-0.4,0.7-1,1.3-1.7,1.7c-0.7,0.4-1.6,0.6-2.5,0.6S426.9,313.2,426.2,312.8z M430.5,311.8c0.5-0.3,1-0.7,1.3-1.3
	c0.3-0.6,0.5-1.2,0.5-1.9c0-0.7-0.2-1.4-0.5-1.9c-0.3-0.6-0.7-1-1.3-1.3c-0.5-0.3-1.1-0.5-1.8-0.5s-1.3,0.2-1.8,0.5
	c-0.5,0.3-1,0.7-1.3,1.3c-0.3,0.6-0.5,1.2-0.5,1.9c0,0.7,0.2,1.4,0.5,1.9c0.3,0.6,0.7,1,1.3,1.3s1.1,0.5,1.8,0.5
	S429.9,312.1,430.5,311.8z"/>
<path class="st6" d="M436.1,299.9h1.3v13.4h-1.3V299.9z"/>
<path class="st6" d="M440.9,299.9h1.3v13.4h-1.3V299.9z"/>
<path class="st6" d="M454,309h-7.9c0.1,1,0.5,1.8,1.1,2.4c0.7,0.6,1.5,0.9,2.6,0.9c0.6,0,1.1-0.1,1.6-0.3c0.5-0.2,0.9-0.5,1.3-0.9
	l0.7,0.8c-0.4,0.5-0.9,0.9-1.6,1.2s-1.3,0.4-2.1,0.4c-1,0-1.8-0.2-2.6-0.6s-1.3-1-1.8-1.7c-0.4-0.7-0.6-1.6-0.6-2.5
	c0-0.9,0.2-1.8,0.6-2.5c0.4-0.7,1-1.3,1.7-1.7s1.5-0.6,2.4-0.6c0.9,0,1.7,0.2,2.4,0.6s1.2,1,1.6,1.7c0.4,0.7,0.6,1.6,0.6,2.5
	L454,309z M447.1,305.7c-0.6,0.6-1,1.3-1.1,2.3h6.7c-0.1-0.9-0.4-1.7-1.1-2.3c-0.6-0.6-1.4-0.9-2.3-0.9
	C448.5,304.8,447.7,305.1,447.1,305.7z"/>
<path class="st6" d="M458,312.8c-0.7-0.4-1.3-1-1.7-1.7c-0.4-0.7-0.6-1.6-0.6-2.5c0-0.9,0.2-1.8,0.6-2.5c0.4-0.7,1-1.3,1.7-1.7
	s1.6-0.6,2.5-0.6c0.8,0,1.5,0.2,2.2,0.5c0.6,0.3,1.1,0.8,1.5,1.4l-1,0.6c-0.3-0.5-0.7-0.8-1.2-1.1c-0.5-0.2-1-0.4-1.6-0.4
	c-0.7,0-1.3,0.2-1.8,0.5c-0.5,0.3-1,0.7-1.3,1.3c-0.3,0.6-0.5,1.2-0.5,1.9c0,0.7,0.2,1.4,0.5,1.9c0.3,0.6,0.7,1,1.3,1.3
	s1.2,0.5,1.8,0.5c0.6,0,1.1-0.1,1.6-0.3c0.5-0.2,0.9-0.6,1.2-1l1,0.6c-0.4,0.6-0.9,1.1-1.5,1.4c-0.6,0.3-1.4,0.5-2.2,0.5
	C459.6,313.4,458.8,313.2,458,312.8z"/>
<path class="st6" d="M471.8,312.7c-0.2,0.2-0.5,0.4-0.9,0.5c-0.4,0.1-0.7,0.2-1.1,0.2c-0.9,0-1.6-0.2-2.1-0.7
	c-0.5-0.5-0.7-1.2-0.7-2v-5.7h-1.7v-1.1h1.7v-2.1h1.3v2.1h2.9v1.1h-2.9v5.7c0,0.6,0.1,1,0.4,1.3s0.7,0.4,1.2,0.4
	c0.3,0,0.5,0,0.8-0.1c0.2-0.1,0.5-0.2,0.6-0.4L471.8,312.7z"/>
<path class="st6" d="M474.1,301.5c-0.2-0.2-0.3-0.4-0.3-0.6c0-0.2,0.1-0.5,0.3-0.6c0.2-0.2,0.4-0.3,0.7-0.3c0.3,0,0.5,0.1,0.7,0.3
	c0.2,0.2,0.3,0.4,0.3,0.6c0,0.3-0.1,0.5-0.3,0.7c-0.2,0.2-0.4,0.3-0.7,0.3C474.6,301.8,474.3,301.7,474.1,301.5z M474.2,303.8h1.3
	v9.5h-1.3V303.8z"/>
<path class="st6" d="M487,303.8l-4.2,9.5h-1.3l-4.2-9.5h1.3l3.5,8.1l3.6-8.1H487z"/>
<path class="st6" d="M496.7,309h-7.9c0.1,1,0.4,1.8,1.1,2.4c0.7,0.6,1.5,0.9,2.6,0.9c0.6,0,1.1-0.1,1.6-0.3c0.5-0.2,0.9-0.5,1.3-0.9
	l0.7,0.8c-0.4,0.5-0.9,0.9-1.6,1.2s-1.3,0.4-2.1,0.4c-1,0-1.8-0.2-2.6-0.6s-1.3-1-1.8-1.7c-0.4-0.7-0.6-1.6-0.6-2.5
	c0-0.9,0.2-1.8,0.6-2.5c0.4-0.7,1-1.3,1.7-1.7s1.5-0.6,2.4-0.6s1.7,0.2,2.4,0.6c0.7,0.4,1.2,1,1.6,1.7c0.4,0.7,0.6,1.6,0.6,2.5
	L496.7,309z M489.9,305.7c-0.6,0.6-1,1.3-1.1,2.3h6.7c-0.1-0.9-0.4-1.7-1.1-2.3c-0.6-0.6-1.4-0.9-2.3-0.9
	C491.3,304.8,490.5,305.1,489.9,305.7z"/>
<path class="st6" d="M504.4,313c-0.7-0.2-1.3-0.5-1.6-0.8l0.6-1c0.4,0.3,0.9,0.6,1.5,0.8c0.6,0.2,1.2,0.3,1.9,0.3
	c0.9,0,1.5-0.1,1.9-0.4c0.4-0.3,0.6-0.7,0.6-1.1c0-0.3-0.1-0.6-0.3-0.8c-0.2-0.2-0.5-0.3-0.9-0.5c-0.3-0.1-0.8-0.2-1.4-0.3
	c-0.8-0.1-1.4-0.3-1.9-0.4c-0.5-0.1-0.9-0.4-1.2-0.8c-0.3-0.4-0.5-0.9-0.5-1.5c0-0.8,0.3-1.4,1-1.9s1.6-0.8,2.8-0.8
	c0.6,0,1.2,0.1,1.8,0.2c0.6,0.2,1.1,0.4,1.5,0.6l-0.6,1c-0.8-0.5-1.7-0.8-2.8-0.8c-0.8,0-1.4,0.1-1.8,0.4s-0.6,0.7-0.6,1.1
	c0,0.4,0.1,0.6,0.4,0.9c0.2,0.2,0.5,0.4,0.9,0.5c0.3,0.1,0.8,0.2,1.4,0.3c0.8,0.1,1.4,0.3,1.8,0.4c0.5,0.1,0.8,0.4,1.2,0.7
	s0.5,0.8,0.5,1.4c0,0.8-0.3,1.5-1,2c-0.7,0.5-1.6,0.7-2.9,0.7C505.9,313.4,505.1,313.3,504.4,313z"/>
<path class="st6" d="M521.1,309h-7.9c0.1,1,0.4,1.8,1.1,2.4c0.7,0.6,1.5,0.9,2.6,0.9c0.6,0,1.1-0.1,1.6-0.3c0.5-0.2,0.9-0.5,1.3-0.9
	l0.7,0.8c-0.4,0.5-0.9,0.9-1.6,1.2s-1.3,0.4-2.1,0.4c-1,0-1.8-0.2-2.6-0.6s-1.3-1-1.8-1.7c-0.4-0.7-0.6-1.6-0.6-2.5
	c0-0.9,0.2-1.8,0.6-2.5c0.4-0.7,1-1.3,1.7-1.7s1.5-0.6,2.4-0.6s1.7,0.2,2.4,0.6c0.7,0.4,1.2,1,1.6,1.7c0.4,0.7,0.6,1.6,0.6,2.5
	L521.1,309z M514.3,305.7c-0.6,0.6-1,1.3-1.1,2.3h6.7c-0.1-0.9-0.4-1.7-1.1-2.3c-0.6-0.6-1.4-0.9-2.3-0.9
	C515.6,304.8,514.9,305.1,514.3,305.7z"/>
<path class="st6" d="M523.8,299.9h1.3v13.4h-1.3V299.9z"/>
<path class="st6" d="M528.6,299.9h1.3v13.4h-1.3V299.9z"/>
<path class="st6" d="M533.4,301.5c-0.2-0.2-0.3-0.4-0.3-0.6c0-0.2,0.1-0.5,0.3-0.6c0.2-0.2,0.4-0.3,0.7-0.3s0.5,0.1,0.7,0.3
	c0.2,0.2,0.3,0.4,0.3,0.6c0,0.3-0.1,0.5-0.3,0.7c-0.2,0.2-0.4,0.3-0.7,0.3S533.6,301.7,533.4,301.5z M533.4,303.8h1.3v9.5h-1.3
	V303.8z"/>
<path class="st6" d="M545.9,304.8c0.7,0.7,1.1,1.7,1.1,3v5.5h-1.3v-5.4c0-1-0.2-1.7-0.7-2.3c-0.5-0.5-1.2-0.8-2.1-0.8
	c-1,0-1.8,0.3-2.4,0.9c-0.6,0.6-0.9,1.4-0.9,2.5v5h-1.3v-9.5h1.2v1.7c0.3-0.6,0.8-1,1.4-1.3c0.6-0.3,1.3-0.5,2.2-0.5
	C544.3,303.8,545.2,304.1,545.9,304.8z"/>
<path class="st6" d="M559.3,303.8v8.3c0,1.6-0.4,2.8-1.2,3.6c-0.8,0.8-2,1.2-3.6,1.2c-0.9,0-1.7-0.1-2.5-0.4
	c-0.8-0.3-1.4-0.6-1.9-1.1l0.6-1c0.5,0.4,1,0.7,1.7,1c0.7,0.2,1.3,0.3,2.1,0.3c1.2,0,2.1-0.3,2.6-0.8c0.6-0.6,0.8-1.4,0.8-2.6v-1.2
	c-0.4,0.6-0.9,1.1-1.6,1.4c-0.6,0.3-1.4,0.5-2.1,0.5c-0.9,0-1.7-0.2-2.4-0.6c-0.7-0.4-1.3-0.9-1.7-1.6s-0.6-1.5-0.6-2.4
	s0.2-1.7,0.6-2.4s1-1.2,1.7-1.6c0.7-0.4,1.5-0.6,2.4-0.6c0.8,0,1.5,0.2,2.2,0.5c0.6,0.3,1.2,0.8,1.6,1.4v-1.8H559.3z M556.3,311.4
	c0.6-0.3,1-0.7,1.3-1.2c0.3-0.5,0.5-1.1,0.5-1.8s-0.2-1.3-0.5-1.8c-0.3-0.5-0.7-0.9-1.3-1.2c-0.5-0.3-1.2-0.4-1.9-0.4
	c-0.7,0-1.3,0.1-1.8,0.4c-0.5,0.3-1,0.7-1.3,1.2c-0.3,0.5-0.5,1.1-0.5,1.8s0.2,1.3,0.5,1.8s0.7,0.9,1.3,1.2c0.5,0.3,1.2,0.4,1.8,0.4
	S555.7,311.7,556.3,311.4z"/>
<path class="st1" d="M185,200V47.8c84.1,0,152.3,68.2,152.3,152.3S269.1,352.3,185,352.3c-74,0-135.3-50.6-149.5-123.2L185,200z"/>
<path class="st2" d="M185,200L35.5,229.1c-5.1-26.4-3.7-50.5,4.7-76.1L185,200z"/>
<path class="st3" d="M185,200L40.2,153c1-3.2,1.5-4.4,2.7-7.5L185,200z"/>
<path class="st4" d="M185,200L42.9,145.4c12.1-31.4,31-54.8,59.2-73.1L185,200z"/>
<path class="st5" d="M185,200L102.1,72.3c25.4-16.5,52.7-24.6,82.9-24.6V200z"/>
<path class="st6" d="M149.5,91.5c1.1,0.5,1.9,1.4,2.5,2.4c0.6,1.1,0.9,2.4,0.9,4c0,1.7-0.3,3.1-1,4.4s-1.6,2.2-2.9,2.8
	c-1.2,0.6-2.6,1-4.3,1c-0.9,0-1.7-0.1-2.5-0.3c-0.8-0.2-1.5-0.5-2-0.9l1.8-3.5c0.7,0.5,1.6,0.8,2.7,0.8c0.9,0,1.6-0.2,2.1-0.6
	c0.6-0.4,0.9-1,1.1-1.9c-0.8,0.5-1.7,0.8-2.9,0.8c-0.9,0-1.7-0.2-2.5-0.6s-1.4-0.9-1.8-1.7c-0.5-0.7-0.7-1.5-0.7-2.5
	c0-1,0.3-1.9,0.8-2.7c0.5-0.8,1.2-1.4,2.2-1.8c0.9-0.4,1.9-0.6,3-0.6C147.2,90.7,148.5,91,149.5,91.5z M147.2,96.7
	c0.3-0.3,0.4-0.6,0.4-1.1s-0.1-0.8-0.4-1.1c-0.3-0.3-0.6-0.4-1.1-0.4c-0.4,0-0.8,0.1-1.1,0.4c-0.3,0.3-0.4,0.6-0.4,1.1
	s0.1,0.8,0.4,1.1c0.3,0.3,0.6,0.4,1.1,0.4C146.6,97.1,147,97,147.2,96.7z"/>
<path class="st6" d="M154.9,97.9c-0.7-0.7-1.1-1.7-1.1-3c0-0.9,0.2-1.6,0.5-2.2c0.3-0.6,0.8-1.1,1.4-1.4c0.6-0.3,1.3-0.5,2-0.5
	c0.7,0,1.4,0.2,2,0.5c0.6,0.3,1.1,0.8,1.4,1.4c0.3,0.6,0.5,1.4,0.5,2.2c0,1.3-0.4,2.3-1.1,3c-0.7,0.7-1.7,1.1-2.8,1.1
	C156.6,99,155.6,98.7,154.9,97.9z M166.4,91h3.5l-10,14.7h-3.5L166.4,91z M158.4,96.3c0.2-0.3,0.3-0.8,0.3-1.4s-0.1-1.1-0.3-1.4
	c-0.2-0.3-0.4-0.4-0.7-0.4c-0.3,0-0.5,0.1-0.7,0.4c-0.2,0.3-0.3,0.8-0.3,1.4s0.1,1.1,0.3,1.4c0.2,0.3,0.4,0.4,0.7,0.4
	C158,96.8,158.2,96.6,158.4,96.3z M165.7,104.9c-0.7-0.7-1.1-1.7-1.1-3c0-0.9,0.2-1.6,0.5-2.2c0.3-0.6,0.8-1.1,1.4-1.4
	c0.6-0.3,1.3-0.5,2-0.5c0.7,0,1.4,0.2,2,0.5c0.6,0.3,1.1,0.8,1.4,1.4s0.5,1.4,0.5,2.2c0,1.3-0.4,2.3-1.1,3c-0.7,0.7-1.7,1.1-2.8,1.1
	C167.4,105.9,166.4,105.6,165.7,104.9z M169.2,103.3c0.2-0.3,0.3-0.8,0.3-1.4s-0.1-1.1-0.3-1.4c-0.2-0.3-0.4-0.4-0.7-0.4
	c-0.3,0-0.5,0.1-0.7,0.4c-0.2,0.3-0.3,0.8-0.3,1.4s0.1,1.1,0.3,1.4c0.2,0.3,0.4,0.4,0.7,0.4C168.8,103.7,169,103.5,169.2,103.3z"/>
<path class="st6" d="M92.4,124.5v14.7h-5v-11h-2.5v-3.7H92.4z"/>
<path class="st6" d="M97.4,138.6c-1-0.6-1.8-1.5-2.4-2.6c-0.6-1.2-0.9-2.5-0.9-4.1c0-1.6,0.3-3,0.9-4.1c0.6-1.2,1.4-2,2.4-2.6
	s2.2-0.9,3.5-0.9c1.3,0,2.5,0.3,3.5,0.9c1,0.6,1.8,1.5,2.4,2.6c0.6,1.2,0.9,2.5,0.9,4.1c0,1.6-0.3,3-0.9,4.1c-0.6,1.2-1.4,2-2.4,2.6
	c-1,0.6-2.2,0.9-3.5,0.9C99.6,139.5,98.4,139.2,97.4,138.6z M102.6,131.8c0-2.5-0.6-3.7-1.7-3.7c-1.1,0-1.7,1.2-1.7,3.7
	s0.6,3.7,1.7,3.7C102,135.5,102.6,134.3,102.6,131.8z"/>
<path class="st6" d="M109.6,131.4c-0.7-0.7-1.1-1.7-1.1-3c0-0.9,0.2-1.6,0.5-2.2c0.3-0.6,0.8-1.1,1.4-1.4c0.6-0.3,1.3-0.5,2-0.5
	c0.7,0,1.4,0.2,2,0.5c0.6,0.3,1.1,0.8,1.4,1.4c0.3,0.6,0.5,1.4,0.5,2.2c0,1.3-0.4,2.3-1.1,3c-0.7,0.7-1.7,1.1-2.8,1.1
	C111.2,132.5,110.3,132.1,109.6,131.4z M121,124.5h3.5l-10,14.7H111L121,124.5z M113,129.8c0.2-0.3,0.3-0.8,0.3-1.4
	s-0.1-1.1-0.3-1.4c-0.2-0.3-0.4-0.4-0.7-0.4c-0.3,0-0.5,0.1-0.7,0.4c-0.2,0.3-0.3,0.8-0.3,1.4s0.1,1.1,0.3,1.4
	c0.2,0.3,0.4,0.4,0.7,0.4C112.7,130.2,112.9,130.1,113,129.8z M120.3,138.3c-0.7-0.7-1.1-1.7-1.1-3c0-0.9,0.2-1.6,0.5-2.2
	c0.3-0.6,0.8-1.1,1.4-1.4c0.6-0.3,1.3-0.5,2-0.5c0.7,0,1.4,0.2,2,0.5c0.6,0.3,1.1,0.8,1.4,1.4s0.5,1.4,0.5,2.2c0,1.3-0.4,2.3-1.1,3
	c-0.7,0.7-1.7,1.1-2.8,1.1C122,139.4,121.1,139,120.3,138.3z M123.8,136.7c0.2-0.3,0.3-0.8,0.3-1.4s-0.1-1.1-0.3-1.4
	c-0.2-0.3-0.4-0.4-0.7-0.4c-0.3,0-0.5,0.1-0.7,0.4c-0.2,0.3-0.3,0.8-0.3,1.4s0.1,1.1,0.3,1.4c0.2,0.3,0.4,0.4,0.7,0.4
	C123.4,137.1,123.6,137,123.8,136.7z"/>
<path class="st6" d="M82.9,154.5v14.7h-5v-11h-2.5v-3.7H82.9z"/>
<path class="st6" d="M85.5,161.4c-0.7-0.7-1.1-1.7-1.1-3c0-0.9,0.2-1.6,0.5-2.2c0.3-0.6,0.8-1.1,1.4-1.4c0.6-0.3,1.3-0.5,2-0.5
	c0.7,0,1.4,0.2,2,0.5c0.6,0.3,1.1,0.8,1.4,1.4c0.3,0.6,0.5,1.4,0.5,2.2c0,1.3-0.4,2.3-1.1,3c-0.7,0.7-1.7,1.1-2.8,1.1
	C87.2,162.5,86.2,162.1,85.5,161.4z M97,154.5h3.5l-10,14.7h-3.5L97,154.5z M89,159.8c0.2-0.3,0.3-0.8,0.3-1.4s-0.1-1.1-0.3-1.4
	c-0.2-0.3-0.4-0.4-0.7-0.4c-0.3,0-0.5,0.1-0.7,0.4c-0.2,0.3-0.3,0.8-0.3,1.4s0.1,1.1,0.3,1.4c0.2,0.3,0.4,0.4,0.7,0.4
	C88.6,160.2,88.8,160,89,159.8z M96.3,168.3c-0.7-0.7-1.1-1.7-1.1-3c0-0.9,0.2-1.6,0.5-2.2c0.3-0.6,0.8-1.1,1.4-1.4
	c0.6-0.3,1.3-0.5,2-0.5c0.7,0,1.4,0.2,2,0.5c0.6,0.3,1.1,0.8,1.4,1.4s0.5,1.4,0.5,2.2c0,1.3-0.4,2.3-1.1,3c-0.7,0.7-1.7,1.1-2.8,1.1
	C97.9,169.4,97,169,96.3,168.3z M99.8,166.7c0.2-0.3,0.3-0.8,0.3-1.4s-0.1-1.1-0.3-1.4c-0.2-0.3-0.4-0.4-0.7-0.4
	c-0.3,0-0.5,0.1-0.7,0.4c-0.2,0.3-0.3,0.8-0.3,1.4s0.1,1.1,0.3,1.4c0.2,0.3,0.4,0.4,0.7,0.4C99.4,167.1,99.6,167,99.8,166.7z"/>
<path class="st6" d="M80.2,190.6c0.3,0.6,0.5,1.2,0.5,1.9c0,0.9-0.3,1.8-0.8,2.5c-0.6,0.7-1.3,1.3-2.3,1.6c-1,0.4-2.1,0.6-3.4,0.6
	c-1.3,0-2.4-0.2-3.4-0.6c-1-0.4-1.8-0.9-2.3-1.6c-0.6-0.7-0.8-1.5-0.8-2.5c0-0.7,0.2-1.4,0.5-1.9c0.3-0.6,0.8-1,1.5-1.4
	c-1-0.8-1.4-1.7-1.4-2.9c0-0.9,0.3-1.7,0.8-2.3c0.5-0.7,1.2-1.2,2.1-1.5c0.9-0.4,2-0.5,3.2-0.5c1.2,0,2.2,0.2,3.2,0.5
	c0.9,0.4,1.6,0.9,2.1,1.5c0.5,0.7,0.8,1.4,0.8,2.3c0,1.2-0.5,2.1-1.4,2.9C79.4,189.5,79.9,190,80.2,190.6z M75.3,193.4
	c0.3-0.3,0.5-0.7,0.5-1.1s-0.2-0.8-0.5-1.1c-0.3-0.3-0.7-0.4-1.2-0.4c-0.5,0-0.9,0.1-1.2,0.4c-0.3,0.3-0.5,0.7-0.5,1.1
	s0.2,0.8,0.5,1.1c0.3,0.3,0.7,0.4,1.2,0.4C74.6,193.9,75,193.7,75.3,193.4z M73.3,185.5c-0.2,0.2-0.3,0.5-0.3,0.9
	c0,0.4,0.1,0.7,0.3,0.9c0.2,0.2,0.5,0.3,0.9,0.3c0.3,0,0.6-0.1,0.9-0.3c0.2-0.2,0.3-0.5,0.3-0.9c0-0.4-0.1-0.7-0.3-0.9
	c-0.2-0.2-0.5-0.3-0.9-0.3C73.8,185.2,73.5,185.3,73.3,185.5z"/>
<path class="st6" d="M82.5,189.1c-0.7-0.7-1.1-1.7-1.1-3c0-0.9,0.2-1.6,0.5-2.2c0.3-0.6,0.8-1.1,1.4-1.4c0.6-0.3,1.3-0.5,2-0.5
	c0.7,0,1.4,0.2,2,0.5c0.6,0.3,1.1,0.8,1.4,1.4c0.3,0.6,0.5,1.4,0.5,2.2c0,1.3-0.4,2.3-1.1,3c-0.7,0.7-1.7,1.1-2.8,1.1
	C84.2,190.1,83.2,189.8,82.5,189.1z M93.9,182.2h3.5l-10,14.7h-3.5L93.9,182.2z M86,187.4c0.2-0.3,0.3-0.8,0.3-1.4s-0.1-1.1-0.3-1.4
	c-0.2-0.3-0.4-0.4-0.7-0.4c-0.3,0-0.5,0.1-0.7,0.4c-0.2,0.3-0.3,0.8-0.3,1.4s0.1,1.1,0.3,1.4c0.2,0.3,0.4,0.4,0.7,0.4
	C85.6,187.9,85.8,187.7,86,187.4z M93.3,196c-0.7-0.7-1.1-1.7-1.1-3c0-0.9,0.2-1.6,0.5-2.2c0.3-0.6,0.8-1.1,1.4-1.4
	c0.6-0.3,1.3-0.5,2-0.5c0.7,0,1.4,0.2,2,0.5c0.6,0.3,1.1,0.8,1.4,1.4s0.5,1.4,0.5,2.2c0,1.3-0.4,2.3-1.1,3c-0.7,0.7-1.7,1.1-2.8,1.1
	C94.9,197.1,94,196.7,93.3,196z M96.8,194.4c0.2-0.3,0.3-0.8,0.3-1.4s-0.1-1.1-0.3-1.4c-0.2-0.3-0.4-0.4-0.7-0.4
	c-0.3,0-0.5,0.1-0.7,0.4c-0.2,0.3-0.3,0.8-0.3,1.4s0.1,1.1,0.3,1.4c0.2,0.3,0.4,0.4,0.7,0.4C96.4,194.8,96.6,194.7,96.8,194.4z"/>
<path class="st6" d="M253.5,252.9v3l-4.9,11.7h-5.4l4.7-10.9H245v2.1h-4.1v-6H253.5z"/>
<path class="st6" d="M266.3,263.8v3.8h-11.8v-3l5.3-4.9c0.5-0.4,0.8-0.8,0.9-1.1c0.2-0.3,0.2-0.6,0.2-0.9c0-0.4-0.1-0.6-0.4-0.9
	c-0.2-0.2-0.6-0.3-1.1-0.3c-0.4,0-0.9,0.1-1.3,0.4c-0.4,0.2-0.7,0.6-0.9,1l-3.7-1.9c0.6-1,1.4-1.9,2.5-2.5c1.1-0.6,2.4-0.9,3.9-0.9
	c1.2,0,2.2,0.2,3.1,0.6s1.6,0.9,2.1,1.6s0.8,1.5,0.8,2.4c0,0.8-0.2,1.6-0.5,2.3c-0.3,0.7-1,1.5-2,2.4l-2.1,1.9H266.3z"/>
<path class="st6" d="M268.4,259.8c-0.7-0.7-1.1-1.7-1.1-3c0-0.9,0.2-1.6,0.5-2.2s0.8-1.1,1.4-1.4s1.3-0.5,2-0.5c0.7,0,1.4,0.2,2,0.5
	c0.6,0.3,1.1,0.8,1.4,1.4s0.5,1.4,0.5,2.2c0,1.3-0.4,2.3-1.1,3c-0.7,0.7-1.7,1.1-2.8,1.1C270,260.9,269.1,260.5,268.4,259.8z
	 M279.8,252.9h3.5l-10,14.7h-3.5L279.8,252.9z M271.9,258.2c0.2-0.3,0.3-0.8,0.3-1.4c0-0.6-0.1-1.1-0.3-1.4
	c-0.2-0.3-0.4-0.4-0.7-0.4c-0.3,0-0.5,0.1-0.7,0.4c-0.2,0.3-0.3,0.8-0.3,1.4c0,0.6,0.1,1.1,0.3,1.4c0.2,0.3,0.4,0.4,0.7,0.4
	C271.5,258.6,271.7,258.5,271.9,258.2z M279.2,266.7c-0.7-0.7-1.1-1.7-1.1-3c0-0.9,0.2-1.6,0.5-2.2c0.3-0.6,0.8-1.1,1.4-1.4
	s1.3-0.5,2-0.5c0.7,0,1.4,0.2,2,0.5c0.6,0.3,1.1,0.8,1.4,1.4s0.5,1.4,0.5,2.2c0,1.3-0.4,2.3-1.1,3c-0.7,0.7-1.7,1.1-2.8,1.1
	C280.8,267.8,279.9,267.5,279.2,266.7z M282.6,265.1c0.2-0.3,0.3-0.8,0.3-1.4s-0.1-1.1-0.3-1.4c-0.2-0.3-0.4-0.4-0.7-0.4
	c-0.3,0-0.5,0.1-0.7,0.4c-0.2,0.3-0.3,0.8-0.3,1.4s0.1,1.1,0.3,1.4c0.2,0.3,0.4,0.4,0.7,0.4C282.2,265.6,282.5,265.4,282.6,265.1z"
	/>
</svg>
