<?xml version="1.0" encoding="utf-8"?>
<!-- Generator: Adobe Illustrator 24.2.0, SVG Export Plug-In . SVG Version: 6.00 Build 0)  -->
<svg version="1.1" id="Layer_1" xmlns="http://www.w3.org/2000/svg" xmlns:xlink="http://www.w3.org/1999/xlink" x="0px" y="0px"
	 viewBox="0 0 400 61" style="enable-background:new 0 0 400 61;" xml:space="preserve">
<style type="text/css">
	.st0{fill:#FFFFFF;}
</style>
<path class="st0" d="M35.6,25.6c-0.6-0.6-1-1.3-1-2.2s0.3-1.6,1-2.2c0.6-0.6,1.5-0.9,2.5-0.9c1,0,1.9,0.3,2.5,0.8
	c0.6,0.6,1,1.3,1,2.1c0,0.9-0.3,1.7-1,2.2c-0.6,0.6-1.5,0.9-2.5,0.9C37.1,26.5,36.3,26.2,35.6,25.6z M35.3,28.3H41v16.3h-5.7V28.3z"
	/>
<path class="st0" d="M57.7,29.9c1.4,1.2,2.1,3.1,2.1,5.7v9.1h-5.3v-2.1c-0.8,1.6-2.4,2.4-4.8,2.4c-1.3,0-2.4-0.2-3.3-0.7
	s-1.6-1-2.1-1.8c-0.5-0.8-0.7-1.6-0.7-2.6c0-1.5,0.6-2.7,1.8-3.6c1.2-0.9,3-1.3,5.5-1.3h3.3c-0.1-1.7-1.3-2.6-3.5-2.6
	c-0.8,0-1.6,0.1-2.4,0.4s-1.5,0.6-2,1l-1.9-3.9c0.9-0.6,2-1.1,3.3-1.4c1.3-0.3,2.6-0.5,3.9-0.5C54.2,28,56.3,28.6,57.7,29.9z
	 M53.1,40.8c0.5-0.3,0.9-0.8,1.1-1.4v-1.4h-2.5c-1.7,0-2.5,0.6-2.5,1.7c0,0.5,0.2,0.9,0.6,1.2c0.4,0.3,0.9,0.5,1.6,0.5
	C52,41.3,52.6,41.1,53.1,40.8z"/>
<path class="st0" d="M89.4,29.8c1.2,1.2,1.8,3,1.8,5.5v9.3h-5.7v-8.4c0-1.1-0.2-2-0.6-2.5c-0.4-0.5-1-0.8-1.8-0.8
	c-0.9,0-1.6,0.3-2.1,0.9c-0.5,0.6-0.8,1.5-0.8,2.7v8.1h-5.7v-8.4c0-2.2-0.8-3.3-2.5-3.3c-0.9,0-1.6,0.3-2.1,0.9
	c-0.5,0.6-0.8,1.5-0.8,2.7v8.1h-5.7V28.3h5.5V30c0.6-0.7,1.3-1.2,2.2-1.5c0.8-0.3,1.7-0.5,2.7-0.5c1.1,0,2.2,0.2,3.1,0.6
	s1.6,1.1,2.2,1.9c0.6-0.8,1.5-1.5,2.4-1.9c1-0.4,2.1-0.7,3.2-0.7C86.6,28,88.2,28.6,89.4,29.8z"/>
<path class="st0" d="M107.8,29.9c1.4,1.2,2.1,3.1,2.1,5.7v9.1h-5.3v-2.1c-0.8,1.6-2.4,2.4-4.8,2.4c-1.3,0-2.4-0.2-3.3-0.7
	s-1.6-1-2.1-1.8c-0.5-0.8-0.7-1.6-0.7-2.6c0-1.5,0.6-2.7,1.8-3.6c1.2-0.9,3-1.3,5.5-1.3h3.3c-0.1-1.7-1.3-2.6-3.5-2.6
	c-0.8,0-1.6,0.1-2.4,0.4s-1.5,0.6-2,1l-1.9-3.9c0.9-0.6,2-1.1,3.3-1.4c1.3-0.3,2.6-0.5,3.9-0.5C104.3,28,106.4,28.6,107.8,29.9z
	 M103.2,40.8c0.5-0.3,0.9-0.8,1.1-1.4v-1.4h-2.5c-1.7,0-2.5,0.6-2.5,1.7c0,0.5,0.2,0.9,0.6,1.2c0.4,0.3,0.9,0.5,1.6,0.5
	C102.1,41.3,102.7,41.1,103.2,40.8z"/>
<path class="st0" d="M332.4,28.3v16.3h-5.5v-1.7c-0.6,0.7-1.3,1.2-2.2,1.5c-0.8,0.3-1.7,0.5-2.7,0.5c-2.1,0-3.8-0.6-5-1.9
	s-1.9-3.1-1.9-5.6v-9.1h5.7v8.2c0,1.2,0.2,2.1,0.7,2.7c0.5,0.6,1.1,0.8,2,0.8c0.9,0,1.6-0.3,2.2-0.9s0.9-1.6,0.9-2.9v-7.9H332.4z"/>
<path class="st0" d="M337.8,44.4c-1.3-0.3-2.4-0.7-3.2-1.2l1.7-3.9c0.7,0.5,1.6,0.8,2.7,1.1s2,0.4,3,0.4c0.9,0,1.6-0.1,2-0.3
	c0.4-0.2,0.6-0.5,0.6-0.8s-0.2-0.6-0.7-0.8c-0.5-0.2-1.2-0.3-2.2-0.4c-1.3-0.2-2.4-0.4-3.3-0.6c-0.9-0.3-1.7-0.7-2.4-1.4
	c-0.7-0.7-1-1.7-1-3c0-1,0.3-2,0.9-2.8c0.6-0.8,1.5-1.5,2.7-1.9c1.2-0.5,2.6-0.7,4.3-0.7c1.2,0,2.4,0.1,3.5,0.4
	c1.2,0.2,2.1,0.6,2.9,1l-1.7,3.9c-1.4-0.8-3-1.2-4.7-1.2c-0.9,0-1.6,0.1-2,0.3c-0.4,0.2-0.6,0.5-0.6,0.8c0,0.4,0.2,0.6,0.7,0.8
	c0.5,0.2,1.2,0.3,2.3,0.5c1.3,0.2,2.5,0.4,3.3,0.7s1.7,0.7,2.3,1.4c0.7,0.7,1,1.7,1,2.9c0,1-0.3,1.9-0.9,2.8
	c-0.6,0.8-1.5,1.5-2.8,1.9s-2.7,0.7-4.4,0.7C340.5,44.9,339.1,44.7,337.8,44.4z"/>
<path class="st0" d="M368.8,37.9H357c0.2,0.8,0.7,1.5,1.4,1.9c0.7,0.5,1.6,0.7,2.6,0.7c0.8,0,1.5-0.1,2-0.3c0.6-0.2,1.1-0.6,1.7-1.1
	l3,3.1c-1.6,1.8-3.9,2.7-7,2.7c-1.9,0-3.6-0.4-5-1.1c-1.4-0.7-2.6-1.7-3.4-3c-0.8-1.3-1.2-2.7-1.2-4.4c0-1.6,0.4-3,1.2-4.3
	s1.8-2.3,3.2-3c1.4-0.7,2.9-1.1,4.6-1.1c1.6,0,3.1,0.3,4.4,1c1.3,0.7,2.4,1.6,3.1,2.9c0.8,1.3,1.2,2.8,1.2,4.5
	C368.9,36.5,368.9,37,368.8,37.9z M358,32.8c-0.6,0.5-1,1.2-1.1,2h6.7c-0.2-0.9-0.5-1.5-1.1-2c-0.6-0.5-1.3-0.8-2.2-0.8
	S358.6,32.3,358,32.8z"/>
<path class="st0" d="M379.2,28.6c0.9-0.4,2-0.6,3.2-0.6v5.2c-0.5-0.1-1-0.1-1.3-0.1c-1.2,0-2.2,0.3-2.9,1c-0.7,0.7-1,1.7-1,3v7.5
	h-5.7V28.3h5.5v2C377.5,29.5,378.2,28.9,379.2,28.6z"/>
<path class="st0" d="M0.6,28.6C3.1,28.4,5,28.1,7,28c2.2,0,3.7-0.9,4.7-2.8c0.8-1.6,1.9-3,3-4.5c0.7-1,1.7-1.8,3-0.7
	c1.2,0.9,1.2,1.8,0.4,3.1c-0.8,1.3-1.5,2.7-2.2,4c2.8,1.4,4.2,0,5.3-2.4c0.6,0.3,1.3,0.5,1.5,0.9c0.9,1.8,2.5,2.3,4.4,2.5
	c1.9,0.2,2.8,1.3,1.9,3.2c-2-0.2-4.2-1-5.9-0.3c-1.1,0.4-1.5,2.8-2.4,4.6c2.7,0.6,6-0.3,6.9,3.8c-1.9-0.2-3.6-0.2-5.3-0.5
	c-2.5-0.4-4.2,0.2-5.1,2.8c-0.7,2-1.9,3.8-2.9,5.7c-2.4-0.6-2.5-1.9-1.9-3.7c0.5-1.5,1-3,1.5-4.6c-3.6-0.7-4-0.5-4.8,2.7
	C9,42.8,9,43.9,8.6,45c-0.3,0.9-0.8,1.7-1.3,2.6c-1-0.9-2.5-1.6-2.9-2.6c-0.4-1.1,0.2-2.6,0.4-4c0.1-0.5,0.1-1,0.2-1.6
	c-1.1,0-2.1,0.2-2.9-0.1C1.4,39,0.7,38.3,0,37.8c0.6-0.5,1-1.2,1.7-1.6c0.5-0.3,1.1-0.4,1.7-0.4c3,0,4.4-1.6,4.6-4.5
	C5.7,30.6,2.7,32.2,0.6,28.6z M12.5,35c3.5,0.6,4,0.2,5-4.1C14.4,30.2,13.7,30.8,12.5,35z"/>
<path class="st0" d="M263.2,24.3c-1.5-1-3.4-1.5-5.7-1.5c-1.7,0-3.1,0.3-4.4,1c-1.3,0.7-2.3,1.6-3.1,2.7c-0.2,0.3-0.3,0.6-0.5,0.9
	c-0.1-0.3-0.3-0.6-0.5-0.9c-0.7-1.2-1.7-2.1-3-2.7c-1.3-0.7-2.9-1-4.7-1c-2.3,0-4.1,0.5-5.6,1.5c-1.5,1-2.6,2.3-3.4,3.9
	c-0.8,1.6-1.1,3.4-1.1,5.4v11h6v-10c0-1.1,0.2-2.1,0.5-2.9c0.3-0.9,0.8-1.6,1.5-2.1c0.7-0.5,1.6-0.8,2.7-0.8c1.1,0,2,0.3,2.7,0.8
	c0.7,0.5,1.2,1.2,1.5,2.1c0.3,0.9,0.5,1.9,0.5,3v10h6v-10c0-1.1,0.2-2.1,0.5-2.9c0.3-0.9,0.8-1.6,1.5-2.1c0.7-0.5,1.6-0.8,2.7-0.8
	c1.1,0,2,0.3,2.7,0.8c0.7,0.5,1.2,1.2,1.5,2.1c0.3,0.9,0.5,1.9,0.5,3v9.9h6v-11c0-2-0.4-3.8-1.2-5.4
	C265.8,26.5,264.7,25.2,263.2,24.3z"/>
<path class="st0" d="M198.6,24.9c-0.4-0.3-0.9-0.7-1.5-0.9c-1.3-0.7-2.7-1-4.2-1c-2.1,0-4,0.5-5.7,1.4c-1.7,0.9-3,2.2-3.9,3.9
	c-0.9,1.7-1.4,3.6-1.4,5.8c0,2,0.5,3.8,1.5,5.5c1,1.7,2.4,3,4.1,4c1.7,1,3.6,1.5,5.8,1.5c2.2,0,4.1-0.5,5.8-1.4
	c1.7-1,3.1-2.3,4.1-3.9c1-1.7,1.5-3.6,1.5-5.7V13.9h-6L198.6,24.9z M198,36.7c-0.5,0.8-1.1,1.5-1.9,2c-0.8,0.5-1.7,0.7-2.8,0.7
	c-1,0-1.9-0.2-2.7-0.7c-0.8-0.5-1.4-1.1-1.9-2c-0.5-0.8-0.7-1.7-0.7-2.7c0-1,0.2-1.9,0.7-2.7c0.5-0.8,1.1-1.5,1.9-2
	c0.8-0.5,1.7-0.7,2.7-0.7c1,0,2,0.2,2.8,0.7c0.8,0.5,1.4,1.1,1.9,2c0.5,0.8,0.7,1.7,0.7,2.7C198.7,35,198.4,35.9,198,36.7z"/>
<path class="st0" d="M223.7,24.4c-1.7-1-3.6-1.5-5.8-1.5c-2.1,0-4,0.5-5.8,1.5c-1.7,1-3.1,2.3-4.1,4c-1,1.7-1.5,3.5-1.5,5.5
	c0,2,0.5,3.9,1.5,5.6c1,1.7,2.4,3,4.1,4c1.7,1,3.6,1.5,5.8,1.5c2.1,0,4.1-0.5,5.8-1.5c1.7-1,3.1-2.3,4.1-4c1-1.7,1.5-3.5,1.5-5.6
	c0-2-0.5-3.8-1.5-5.5C226.8,26.7,225.4,25.4,223.7,24.4z M222.6,36.7c-0.5,0.8-1.1,1.5-1.9,2c-0.8,0.5-1.7,0.7-2.8,0.7
	c-1,0-1.9-0.2-2.7-0.7c-0.8-0.5-1.4-1.1-1.9-2c-0.5-0.8-0.7-1.7-0.7-2.7c0-1,0.2-1.9,0.7-2.7c0.5-0.8,1.1-1.5,1.9-2
	c0.8-0.5,1.7-0.7,2.7-0.7c1,0,2,0.2,2.8,0.7c0.8,0.5,1.4,1.1,1.9,2c0.5,0.8,0.7,1.7,0.7,2.7C223.2,35,223,35.9,222.6,36.7z"/>
<path class="st0" d="M152.4,24.2c-1.5-1-3.4-1.4-5.6-1.4c-2.1,0-4,0.5-5.6,1.5c-1.6,1-2.9,2.3-3.8,4c-0.9,1.7-1.4,3.5-1.4,5.4
	c0,2.2,0.5,4.1,1.5,5.8c1,1.7,2.3,3,4,3.9c1.7,0.9,3.6,1.4,5.8,1.4c2.2,0,4.1-0.5,5.8-1.5c1.7-1,2.9-2.5,3.8-4.3l-4.6-2.3
	c-0.5,0.9-1.2,1.7-2.1,2.2c-0.9,0.5-1.9,0.8-3,0.8c-1.2,0-2.2-0.3-3-0.8c-0.8-0.5-1.5-1.2-2-2.2c-0.3-0.5-0.4-1.1-0.5-1.7h15.4v-1.8
	c0-1.9-0.4-3.6-1.2-5.2C155.1,26.5,153.9,25.2,152.4,24.2z M142.4,30.6c0.1-0.3,0.3-0.6,0.5-0.8c0.4-0.6,0.9-1,1.6-1.4
	c0.7-0.3,1.4-0.5,2.3-0.5c0.8,0,1.6,0.2,2.2,0.5c0.6,0.3,1.2,0.8,1.6,1.3c0.2,0.3,0.3,0.6,0.5,0.9H142.4z"/>
<path class="st0" d="M135.2,23.1c-0.4-0.1-0.9-0.1-1.3-0.1c-2.1,0-3.8,0.4-5.2,1.2c-1.4,0.8-2.4,2-3.1,3.4c-0.7,1.4-1,3-1,4.8v12h6
	V32.7c0-1.2,0.3-2.2,1-2.9c0.7-0.7,1.6-1.1,2.8-1.1c0.3,0,0.5,0,0.8,0V23.1z"/>
<path class="st0" d="M123.1,19.1l3.3,0v-5.7c0,0-3.8,0-3.8,0c-2.1,0-3.8,0.4-5.2,1.2c-1.4,0.8-2.4,2-3.1,3.4c-0.7,1.4-1,3-1,4.8v0v5
	v16.4h6V28h4.2v-5h-4.2c0-1.2,0.4-2.1,1-2.8C121,19.5,121.9,19.1,123.1,19.1z"/>
<path class="st0" d="M175.4,24.2c-1.5-1-3.4-1.4-5.6-1.4c-2.1,0-4,0.5-5.6,1.5c-1.6,1-2.9,2.3-3.8,4c-0.9,1.7-1.4,3.5-1.4,5.4
	c0,2.2,0.5,4.1,1.5,5.8c1,1.7,2.3,3,4,3.9c1.7,0.9,3.6,1.4,5.8,1.4c2.2,0,4.1-0.5,5.8-1.5c1.7-1,2.9-2.5,3.8-4.3l-4.6-2.3
	c-0.5,0.9-1.2,1.7-2.1,2.2c-0.9,0.5-1.9,0.8-3,0.8c-1.2,0-2.2-0.3-3-0.8c-0.8-0.5-1.5-1.2-2-2.2c-0.3-0.5-0.4-1.1-0.5-1.7h15.4v-1.8
	c0-1.9-0.4-3.6-1.2-5.2C178.1,26.5,176.9,25.2,175.4,24.2z M165.4,30.6c0.1-0.3,0.3-0.6,0.5-0.8c0.4-0.6,0.9-1,1.6-1.4
	c0.7-0.3,1.4-0.5,2.3-0.5c0.8,0,1.6,0.2,2.2,0.5c0.6,0.3,1.2,0.8,1.6,1.3c0.2,0.3,0.3,0.6,0.5,0.9H165.4z"/>
<path class="st0" d="M311.3,22.2V17h-13.6c-1.8,0-3.1,0.5-3.9,1.4c-0.6,0.7-1,1.5-1.1,2.6c0,0.1-0.1,18.9-0.1,18.9
	c0,1.5,0.4,2.7,1.2,3.6c0.8,0.9,2.1,1.4,3.9,1.4h13.6v-5.3h-12.8v-6.4h7.9v-4.4h-7.9v-6.5H311.3z"/>
<path class="st0" d="M286,24.2c-1.5-1-3.4-1.4-5.6-1.4c-2.1,0-4,0.5-5.6,1.5c-1.6,1-2.9,2.3-3.8,4c-0.9,1.7-1.4,3.5-1.4,5.4
	c0,2.2,0.5,4.1,1.5,5.8c1,1.7,2.3,3,4,3.9c1.7,0.9,3.6,1.4,5.8,1.4c2.2,0,4.1-0.5,5.8-1.5c1.7-1,2.9-2.5,3.8-4.3l-4.6-2.3
	c-0.5,0.9-1.2,1.7-2.1,2.2c-0.9,0.5-1.9,0.8-3,0.8c-1.2,0-2.2-0.3-3-0.8c-0.8-0.5-1.5-1.2-2-2.2c-0.3-0.5-0.4-1.1-0.5-1.7h15.4v-1.8
	c0-1.9-0.4-3.6-1.2-5.2C288.7,26.5,287.5,25.2,286,24.2z M276,30.6c0.1-0.3,0.3-0.6,0.5-0.8c0.4-0.6,0.9-1,1.6-1.4
	c0.7-0.3,1.4-0.5,2.3-0.5c0.8,0,1.6,0.2,2.2,0.5c0.6,0.3,1.2,0.8,1.6,1.3c0.2,0.3,0.3,0.6,0.5,0.9H276z"/>
</svg>
