<?xml version="1.0" encoding="utf-8"?>
<!-- Generator: Adobe Illustrator 24.2.0, SVG Export Plug-In . SVG Version: 6.00 Build 0)  -->
<svg version="1.1" id="Layer_1" xmlns="http://www.w3.org/2000/svg" xmlns:xlink="http://www.w3.org/1999/xlink" x="0px" y="0px"
	 viewBox="0 0 90 90" style="enable-background:new 0 0 90 90;" xml:space="preserve">
<path d="M17.2,67.2c0-0.2,0-0.5,0-0.7c0-5.4,0-10.8,0-16.3c0-0.2,0-0.4,0-0.6c0.1-0.7,0.6-1.2,1.3-1.2c2.8,0,5.7,0,8.5,0
	c0.7,0,1.3,0.5,1.3,1.2c0,0.2,0,0.4,0,0.5c0,5.4,0,10.9,0,16.3c0,0.2,0,0.4,0,0.7c1.2,0,2.4,0,3.6,0c0-0.2,0-0.4,0-0.6
	c0-8.8,0-17.7,0-26.5c0-1.3,0.4-1.8,1.8-1.8c2.6,0,5.2,0,7.8,0c1.1,0,1.6,0.5,1.6,1.6c0,8.9,0,17.8,0,26.7c0,0.2,0,0.4,0,0.7
	c1.2,0,2.4,0,3.6,0c0-0.2,0-0.4,0-0.6c0-7.1,0-14.2,0-21.3c0-1.2,0.4-1.7,1.7-1.7c2.6,0,5.2,0,7.9,0c1.2,0,1.7,0.5,1.7,1.7
	c0,7.1,0,14.2,0,21.4c0,0.2,0,0.4,0,0.6c1.2,0,2.4,0,3.6,0c0-0.2,0-0.4,0-0.6c0-10.3,0-20.5,0-30.8c0-1.3,0.4-1.7,1.7-1.7
	c2.6,0,5.1,0,7.7,0c1.3,0,1.7,0.5,1.7,1.7c0,10.2,0,20.5,0,30.7c0,0.2,0,0.5,0,0.7c0.2,0,0.4,0,0.6,0c1.1,0,2.2,0,3.3,0
	c0.8,0,1.4,0.6,1.4,1.4c0,0.8-0.6,1.3-1.4,1.3c-0.1,0-0.3,0-0.4,0c-20.8,0-41.7,0-62.5,0c-0.2,0-0.5,0-0.7,0c-0.6,0-1.1-0.5-1.2-1.2
	c-0.1-0.6,0.3-1.2,0.9-1.4c0.2-0.1,0.5-0.1,0.7-0.1C14.8,67.2,16,67.2,17.2,67.2z M64.4,36.7c0,10.2,0,20.3,0,30.5
	c1.9,0,3.8,0,5.8,0c0-10.2,0-20.3,0-30.5C68.2,36.7,66.3,36.7,64.4,36.7z M40.6,67.2c0-8.8,0-17.5,0-26.3c-1.9,0-3.9,0-5.8,0
	c0,8.8,0,17.5,0,26.3C36.7,67.2,38.6,67.2,40.6,67.2z M49.6,46.3c0,7,0,14,0,20.9c2,0,3.9,0,5.8,0c0-7,0-13.9,0-20.9
	C53.4,46.3,51.5,46.3,49.6,46.3z M19.9,67.2c2,0,3.9,0,5.8,0c0-5.4,0-10.7,0-16.1c-1.9,0-3.9,0-5.8,0C19.9,56.5,19.9,61.8,19.9,67.2
	z"/>
<path d="M48.5,32.4c2-2.3,4.9-2.6,7.2-0.8c0.1-0.1,0.2-0.1,0.3-0.2c2.1-1.5,4.2-2.9,6.2-4.4c0.2-0.2,0.3-0.3,0.2-0.6
	c-0.8-2.8,0.9-5.6,3.7-6.2c2.7-0.7,5.5,1.1,6.1,3.8c0.6,2.8-1.2,5.5-4.1,6c-1.3,0.2-2.6,0-3.7-0.8c-0.2-0.2-0.4-0.2-0.7,0
	c-2.1,1.5-4.1,2.9-6.2,4.3c-0.3,0.2-0.3,0.3-0.2,0.6c0.5,2.1,0,3.9-1.7,5.2c-1.7,1.3-3.6,1.5-5.5,0.5c-1.8-0.9-2.8-2.8-2.7-4.8
	c0-0.1,0-0.2,0-0.3c-1.5-0.6-3-1.2-4.4-1.9c-0.9-0.4-1.5-0.5-2.3,0.3c-1.6,1.5-3.9,1.5-5.7,0.3c-0.1-0.1-0.2-0.2-0.4-0.3
	c-0.1,0.1-0.2,0.2-0.4,0.2c-2.1,1.6-4.2,3.1-6.3,4.7c-0.3,0.2-0.3,0.4-0.2,0.7c0.8,2.8-0.8,5.6-3.6,6.3c-2.7,0.7-5.6-1.1-6.1-3.8
	c-0.6-2.8,1.2-5.6,4.1-6c1.3-0.2,2.5,0,3.6,0.8c0.3,0.2,0.5,0.2,0.7,0c2.1-1.6,4.2-3.1,6.3-4.7c0.2-0.2,0.3-0.3,0.2-0.6
	c-0.6-2-0.1-3.8,1.5-5.2c1.6-1.4,3.4-1.7,5.4-0.8c1.9,0.8,2.9,2.4,3,4.5c0,0.2,0,0.5-0.1,0.7C44.6,30.8,46.5,31.6,48.5,32.4z
	 M67.3,27.5c1.3,0,2.4-1.1,2.4-2.4c0-1.3-1.1-2.4-2.4-2.4c-1.3,0-2.3,1.1-2.4,2.3C64.9,26.5,65.9,27.5,67.3,27.5z M50.1,35.5
	c0,1.3,1.1,2.4,2.4,2.4c1.3,0,2.4-1.1,2.4-2.4c0-1.3-1.1-2.4-2.4-2.4C51.1,33.2,50.1,34.2,50.1,35.5z M22.9,42.7
	c1.3,0,2.4-1.1,2.4-2.4c0-1.3-1.1-2.4-2.4-2.4c-1.3,0-2.4,1.1-2.4,2.4C20.5,41.7,21.6,42.7,22.9,42.7z M37.6,27
	c-1.3,0-2.4,1-2.4,2.3c0,1.3,1.1,2.4,2.4,2.4c1.3,0,2.4-1.1,2.4-2.4C40,28,39,27,37.6,27z"/>
</svg>
