<?xml version="1.0" encoding="utf-8"?>
<!-- Generator: Adobe Illustrator 24.2.0, SVG Export Plug-In . SVG Version: 6.00 Build 0)  -->
<svg version="1.1" id="Layer_1" xmlns="http://www.w3.org/2000/svg" xmlns:xlink="http://www.w3.org/1999/xlink" x="0px" y="0px"
	 viewBox="0 0 90 90" style="enable-background:new 0 0 90 90;" xml:space="preserve">
<path d="M71.9,45.1C71.9,60,59.9,72,45,72S18.1,60,18,45.1c0-14.9,12.1-27,26.9-27C59.9,18.2,71.9,30.1,71.9,45.1z M59.4,46.3
	c-0.2,3.6-0.9,7.1-2.2,10.6c2.3,1.2,4.4,2.6,6.2,4.4c3.7-4.4,5.8-9.3,6-14.9C66.1,46.3,62.7,46.3,59.4,46.3z M32.9,56.9
	c-1.4-3.4-2.1-7-2.2-10.6c-3.3,0-6.7,0-10,0c-0.4,4.1,3.2,12.5,6,14.9C28.6,59.6,30.6,58.1,32.9,56.9z M30.6,43.8
	c0.1-3.7,0.8-7.1,2.1-10.6c-2.2-1.2-4.3-2.6-6.1-4.3c-3.7,4.3-5.8,9.3-6,14.9C23.9,43.8,27.3,43.8,30.6,43.8z M69.4,43.8
	c0.3-4.2-3.2-12.8-6.1-14.9c-1.9,1.7-3.9,3.1-6.1,4.3c1.4,3.4,2,7,2.1,10.6C62.7,43.8,66.1,43.8,69.4,43.8z M43.8,46.3
	c-3.5,0-7.1,0-10.7,0c0.2,3.3,0.8,6.5,2,9.6c2.8-1,5.7-1.7,8.5-1.8C43.8,51.5,43.8,48.9,43.8,46.3z M43.8,36.1
	c-3-0.2-5.8-0.7-8.6-1.9c-1,1.9-2.2,7.7-1.9,9.6c3.5,0,7.1,0,10.6,0C43.8,41.2,43.8,38.7,43.8,36.1z M56.9,46.3c-3.5,0-7.1,0-10.6,0
	c0,2.6,0,5.2,0,7.8c3,0.1,5.8,0.7,8.5,1.8C55.9,53.9,57,48.5,56.9,46.3z M46.3,43.8c3.5,0,7.1,0,10.7,0c-0.1-3.3-0.7-6.5-1.9-9.6
	c-2.8,1.1-5.7,1.7-8.6,1.9C46.3,38.7,46.3,41.2,46.3,43.8z M43.8,22c-3.2,2.9-5.8,6.2-7.6,10c2.5,1,5,1.5,7.6,1.7
	C43.8,29.7,43.8,25.9,43.8,22z M46.3,33.6c1.7,0.2,6.7-0.9,7.6-1.7c-1.9-3.8-4.4-7.1-7.6-9.9C46.3,25.9,46.3,29.7,46.3,33.6z
	 M36.2,58.2c1.9,3.8,4.5,7.1,7.5,10c0-3.9,0-7.7,0-11.6C41.2,56.7,38.7,57.3,36.2,58.2z M53.8,58.2c-2.4-0.9-4.9-1.5-7.5-1.6
	c0,3.9,0,7.7,0,11.6C49.5,65.2,52,62,53.8,58.2z M56.1,59.2c-1.9,3.7-4.3,7-7.1,9.9c4.8-0.7,9.1-2.8,12.6-6.1
	C60.5,61.8,57.3,59.7,56.1,59.2z M28.4,63c3.6,3.3,7.9,5.4,12.7,6.1c-3-3-5.4-6.2-7.2-9.9C31.9,60.2,30,61.5,28.4,63z M41.1,21
	c-4.8,0.7-9,2.8-12.6,6.1c1.7,1.6,3.4,2.8,5.4,3.8C35.6,27.2,38.1,23.8,41.1,21z M49,21c3,2.9,5.4,6.2,7.2,9.9
	c1.5-0.6,4.7-3,5.4-3.8C58,23.8,53.8,21.8,49,21z"/>
</svg>
