<?xml version="1.0" encoding="utf-8"?>
<!-- Generator: Adobe Illustrator 24.2.0, SVG Export Plug-In . SVG Version: 6.00 Build 0)  -->
<svg version="1.1" id="Layer_1" xmlns="http://www.w3.org/2000/svg" xmlns:xlink="http://www.w3.org/1999/xlink" x="0px" y="0px"
	 viewBox="0 0 16 16" style="enable-background:new 0 0 16 16;" xml:space="preserve">
<style type="text/css">
	.st0{fill:#FFFFFF;}
</style>
<g>
	<path class="st0" d="M5,7.4c-0.4,0-0.7,0.4-0.7,0.9c0.4,0,0.9,0,1.4,0C5.7,7.7,5.5,7.4,5,7.4z"/>
	<path class="st0" d="M0,0v16h16V0H0z M7.7,9.7c-1.2,0-2.3,0-3.5,0c0,0.3,0.2,0.5,0.5,0.6c0.3,0.2,0.7,0.2,1.1,0.2
		c0.6,0,1.1-0.2,1.6-0.4c0.1,0.4,0.1,0.8,0.1,1.1c0,0.1,0,0.1,0,0.1c0.1,0.5,0.1,0.4-0.4,0.6c-0.5,0.1-0.9,0.2-1.4,0.3
		c-0.1,0-0.1,0-0.2,0c-0.2,0-0.4,0-0.7,0c-0.3-0.1-0.6-0.1-0.9-0.2c-1.2-0.3-1.9-1.1-2-2.4C2,9,2,8.3,2.2,7.7
		c0.4-1.1,1.3-1.9,2.5-1.9c0.4,0,0.9,0,1.3,0.1c1,0.3,1.5,1,1.7,2C7.9,8.5,7.8,9.1,7.7,9.7z M14,5.7c-0.9,0-1.7,0-2.6,0
		c0,0.4,0,0.7,0,1c0,0.2,0.1,0.2,0.2,0.2c0.6,0,1.2,0,1.8,0c0.2,0,0.3,0,0.4,0c0,0.6,0,1.2,0,1.9c-0.8,0-1.6,0-2.4,0
		c0,0.5,0,0.9,0,1.3c0.9,0,1.7,0,2.6,0c0,0.6,0,1.3,0,2c-1.6,0-3.2,0-4.8,0c0,0,0,0-0.1,0c0-2.8,0-5.5,0-8.3c1.6,0,3.2,0,4.9,0
		C14,4.4,14,5.1,14,5.7z"/>
</g>
</svg>
