<?xml version="1.0" encoding="utf-8"?>
<!-- Generator: Adobe Illustrator 24.2.0, SVG Export Plug-In . SVG Version: 6.00 Build 0)  -->
<svg version="1.1" id="Layer_1" xmlns="http://www.w3.org/2000/svg" xmlns:xlink="http://www.w3.org/1999/xlink" x="0px" y="0px"
	 viewBox="0 0 16 16" style="enable-background:new 0 0 16 16;" xml:space="preserve">
<style type="text/css">
	.st0{fill:#FFFFFF;}
</style>
<path class="st0" d="M7.4,16c-2.5,0-4.9,0-7.4,0C0,10.7,0,5.3,0,0c5.3,0,10.6,0,16,0c0,5.3,0,10.7,0,16c-2.4,0-4.9,0-7.4,0
	c0.1-0.9,0.2-1.8,0.3-2.6c0-0.1,0-0.2,0.1-0.4c0.2-0.4,0.5-0.8,0.6-1.3c0.1-0.2,0.4-0.6,0-0.8c-0.1,0.3-0.2,0.5-0.3,0.8
	c-0.1,0.2-0.1,0.5-0.2,0.7c-0.1,0-0.1,0-0.2-0.1C8.9,12,9,11.6,9,11.3c0-0.1-0.1-0.2-0.2-0.4c-0.1,0.1-0.2,0.2-0.3,0.3
	c-0.1,0.3,0,0.5-0.1,0.8c0,0.1-0.1,0.2-0.1,0.3c-0.1,0-0.1,0-0.1,0c0-0.4,0-0.7,0-1.1c0-0.1-0.1-0.2-0.2-0.3
	c-0.1,0.1-0.2,0.2-0.2,0.3c0,0.3,0,0.6,0,0.9c0,0.1-0.1,0.2-0.2,0.3c-0.1-0.4-0.2-0.8-0.2-1.2c0-0.1-0.2-0.2-0.3-0.3
	C7.1,11,7,11.1,7,11.2c0,0.4,0.1,0.7,0.1,1.1c-0.2,0-0.3-0.1-0.3-0.2c-0.1-0.3-0.1-0.6-0.2-0.9c0-0.1-0.2-0.2-0.3-0.3
	c-0.1,0.1-0.2,0.2-0.2,0.3c0.1,0.4,0.2,0.8,0.4,1.2c0.2,0.5,0.5,1,0.5,1.6C7.2,14.7,7.3,15.4,7.4,16z M12.8,2.5
	c-0.8,0.3-1.5,0.5-2.2,0.8C9.8,3.6,9,3.9,8.3,4.3C7,5.1,6.8,6.5,8,8c0.2-0.6,0.7-0.7,1.3-0.8c0.3,0,0.5-0.1,0.8-0.1
	c1-0.2,1.7-0.7,2-1.8c-0.1,0-0.3,0-0.3,0c0.2-0.4,0.4-0.8,0.7-1.3C12.1,4,12,4.1,11.8,4.1C12.1,3.6,12.4,3.1,12.8,2.5z M4.3,8.9
	C4.3,8.9,4.2,9,4.2,9c0.2,0.1,0.3,0.2,0.4,0.2c0.7,0.2,1.3,0.4,1.6,1.1c0.1,0.1,0.3,0.2,0.4,0.2c0.9,0,1.8,0,2.8,0
	c0.1,0,0.3-0.1,0.4-0.2c0.3-0.8,0.9-1,1.6-1.2c0.1,0,0.3-0.2,0.4-0.3c0-0.1-0.1-0.1-0.1-0.1C9.2,8.9,6.8,8.9,4.3,8.9z"/>
</svg>
