<?xml version="1.0" encoding="utf-8"?>
<!-- Generator: Adobe Illustrator 24.2.0, SVG Export Plug-In . SVG Version: 6.00 Build 0)  -->
<svg version="1.1" id="Layer_1" xmlns="http://www.w3.org/2000/svg" xmlns:xlink="http://www.w3.org/1999/xlink" x="0px" y="0px"
	 viewBox="0 0 90 90" style="enable-background:new 0 0 90 90;" xml:space="preserve">
<path d="M66.4,54.1c0.1,1.8-0.4,3.2-1.7,4.5c-1.2,1.2-2.7,1.7-4.4,1.6c0.2,3.5-2.6,6.3-6.1,6.1c0.1,2.4-0.9,4.3-3,5.4
	c-2.1,1.1-4.2,0.9-6.1-0.5c-4,3-9.5,0-9.2-4.9c-1.7,0.1-3.2-0.4-4.4-1.7c-1.2-1.2-1.7-2.7-1.6-4.4c-3.6,0.2-6.3-2.6-6.1-6.1
	c-0.5,0-1,0-1.5-0.2c-2.1-0.5-3.6-1.7-4.3-3.8c-0.7-2.1-0.2-4,1.3-5.6c0.2-0.2,0.3-0.4,0.2-0.7c-5-10.8,1.3-23.5,13-25.9
	c4.2-0.9,8.3-0.3,12.2,1.7c0.3,0.2,0.6,0.2,0.9,0c10.4-5.4,23.3,0.3,26.3,11.5c1.2,4.3,0.8,8.6-1,12.7c-0.1,0.3-0.1,0.5,0.1,0.7
	c1.7,1.8,2.1,3.9,1.2,6.1c-0.8,2.1-2.9,3.4-5.3,3.4C66.7,54.1,66.5,54.1,66.4,54.1z M43.2,22c-5.5-2.8-12.9-2.4-18.2,2.8
	c-5.3,5.2-5.8,12.6-3.5,17.6c1.8-2.1,3.9-3.3,6.7-2.4c2.8,0.9,4,3,4,5.8c1.7-0.1,3.2,0.4,4.4,1.6c1.2,1.2,1.7,2.7,1.6,4.5
	c1.8-0.1,3.3,0.4,4.5,1.6c1.2,1.2,1.7,2.7,1.6,4.4c3.1-0.2,5.6,1.8,6.1,5c1-0.7,1.3-0.7,2.3,0.1c1.6,1.3,4,0.6,4.7-1.3
	c0.4-1.2,0.2-2.2-0.7-3.2c-0.4-0.5-0.5-1.1-0.2-1.6c0.3-0.5,0.9-0.7,1.5-0.5c0.2,0.1,0.5,0.3,0.7,0.4c1,0.8,2,0.9,3.1,0.5
	c1.1-0.4,1.7-1.3,1.8-2.4c0.1-1-0.2-1.8-0.9-2.5c-0.4-0.5-0.5-1.1-0.2-1.6c0.3-0.5,1-0.7,1.6-0.5c0.2,0.1,0.4,0.3,0.6,0.4
	c1.4,1.1,3.4,0.9,4.4-0.6c0.8-1.2,0.7-2.8-0.4-3.9c-5.6-5.6-11.2-11.2-16.8-16.8c-0.1-0.1-0.2-0.2-0.3-0.3c-0.1,0.2-0.2,0.3-0.3,0.4
	c-2.5,2.5-5,5-7.5,7.5c-1.6,1.6-3.5,2.1-5.6,1.5c-4.1-1.2-5.4-6.3-2.5-9.3c2.3-2.3,4.6-4.6,6.9-6.9C42.9,22.2,43,22.1,43.2,22z
	 M68.5,42.3c0.1-0.2,0.1-0.2,0.2-0.3c1.1-2.9,1.4-5.8,0.9-8.9c-2-10.1-12.7-15.7-22-11.5c-0.2,0.1-0.5,0.3-0.6,0.4
	c-2.1,2.1-4.2,4.2-6.3,6.2c-1,1-1.9,1.9-2.9,2.9c-1.6,1.7-0.8,4.4,1.4,4.9c1.2,0.3,2.2,0,3-0.9c2.8-2.8,5.7-5.6,8.5-8.5
	c0.9-0.9,1.5-0.9,2.4,0c5,5,10.1,10.1,15.1,15.1C68.2,42,68.3,42.1,68.5,42.3z M23,51.5c1,0,1.7-0.3,2.3-0.8
	c1.1-1.1,2.2-2.2,3.3-3.3c1.1-1.2,1.1-3,0-4.1c-1.1-1.2-3-1.3-4.2-0.1c-1.2,1.1-2.4,2.3-3.5,3.5c-0.9,0.9-1,2-0.5,3.2
	C21,50.9,21.9,51.4,23,51.5z M41.2,69.8c1,0,1.7-0.2,2.3-0.7c1.2-1.1,2.4-2.3,3.5-3.5c1.1-1.1,1-2.9-0.1-4.1c-1.1-1.1-2.9-1.3-4-0.3
	c-1.3,1.2-2.6,2.4-3.7,3.7c-0.8,0.9-0.9,2-0.4,3.2C39.4,69.2,40.3,69.7,41.2,69.8z M35.6,51c0-0.9-0.6-1.9-1.8-2.4
	c-1.2-0.5-2.3-0.3-3.3,0.6c-1.1,1.1-2.2,2.2-3.3,3.3c-1.2,1.2-1.2,3,0,4.2c1.1,1.1,3,1.2,4.2,0c1.1-1.1,2.2-2.2,3.3-3.3
	C35.3,52.9,35.6,52.2,35.6,51z M41.7,57.1c0-0.9-0.6-1.9-1.8-2.4c-1.2-0.5-2.4-0.3-3.3,0.6c-1.1,1.1-2.2,2.1-3.2,3.2
	c-1.2,1.2-1.2,3.1-0.1,4.2c1.2,1.2,3.1,1.2,4.3,0c1.1-1.1,2.2-2.2,3.3-3.3C41.4,59,41.7,58.3,41.7,57.1z M47,69.3
	c1.2,0.8,2.9,0.5,3.8-0.7c1-1.3,0.8-3-0.5-4.2C50.1,66.7,48.4,67.9,47,69.3z"/>
</svg>
