<?xml version="1.0" encoding="utf-8"?>
<!-- Generator: Adobe Illustrator 24.2.0, SVG Export Plug-In . SVG Version: 6.00 Build 0)  -->
<svg version="1.1" id="Layer_1" xmlns="http://www.w3.org/2000/svg" xmlns:xlink="http://www.w3.org/1999/xlink" x="0px" y="0px"
	 viewBox="0 0 16 16" style="enable-background:new 0 0 16 16;" xml:space="preserve">
<style type="text/css">
	.st0{fill:#FFFFFF;}
</style>
<path class="st0" d="M8,0H0v8v8h8h8V8V0H8z M4.8,14.5c-0.8,0-1.2-0.2-1.5-0.3c-0.3-0.1-0.7-0.3-0.9-0.6c-0.3-0.3-0.5-0.6-0.6-0.9
	c-0.1-0.3-0.2-0.7-0.3-1.5c0-0.8-0.1-1.1-0.1-3.2c0-2.1,0-2.4,0-3.2c0-0.8,0.2-1.2,0.3-1.5c0.1-0.4,0.3-0.6,0.6-0.9
	c0.3-0.3,0.5-0.5,0.9-0.6C3.6,1.7,4,1.5,4.8,1.5c0.7,0,1,0,2.5,0H8c2.1,0,2.4,0,3.2,0c0.8,0,1.2,0.2,1.5,0.3
	c0.4,0.1,0.6,0.3,0.9,0.6c0.3,0.3,0.5,0.5,0.6,0.9c0.1,0.3,0.2,0.7,0.3,1.5c0,0.8,0,1.1,0,3.2s0,2.4,0,3.2c0,0.8-0.2,1.2-0.3,1.5
	c-0.1,0.3-0.3,0.7-0.6,0.9c-0.3,0.3-0.5,0.5-0.9,0.6c-0.3,0.1-0.7,0.2-1.5,0.3c-0.8,0-1.1,0-3.2,0S5.6,14.5,4.8,14.5z"/>
<path class="st0" d="M8,3.9c-2.3,0-4.1,1.8-4.2,4c0,2.3,1.8,4.1,4,4.2c0,0,0.1,0,0.1,0c2.3,0,4.1-1.9,4-4.2C12,5.7,10.2,3.9,8,3.9z
	 M8,10.7c-1.5,0-2.7-1.2-2.7-2.7S6.5,5.3,8,5.3s2.7,1.2,2.7,2.7S9.5,10.7,8,10.7z"/>
<path class="st0" d="M12.3,2.8c-0.5,0-1,0.4-1,1c0,0.5,0.4,1,1,1c0.5,0,1-0.4,1-1C13.2,3.2,12.8,2.8,12.3,2.8z"/>
</svg>
