<?xml version="1.0" encoding="utf-8"?>
<!-- Generator: Adobe Illustrator 24.2.0, SVG Export Plug-In . SVG Version: 6.00 Build 0)  -->
<svg version="1.1" id="Layer_1" xmlns="http://www.w3.org/2000/svg" xmlns:xlink="http://www.w3.org/1999/xlink" x="0px" y="0px"
	 viewBox="0 0 90 90" style="enable-background:new 0 0 90 90;" xml:space="preserve">
<style type="text/css">
	.st0{fill:none;}
</style>
<path class="st0" d="M90,90c-30,0-60,0-90,0C0,60,0,30,0,0c30,0,60,0,90,0C90,30,90,60,90,90z"/>
<path d="M74.5,45c0,16.2-13.2,29.5-29.5,29.5S15.5,61.4,15.5,45.1S28.7,15.5,45,15.5C61.3,15.5,74.5,28.7,74.5,45z M60.7,46.4
	c-0.2,4-1,7.9-2.5,11.6c2.5,1.3,4.8,2.9,6.8,4.8c4.1-4.7,6.3-10.2,6.6-16.4C68,46.4,64.4,46.4,60.7,46.4z M31.7,58
	c-1.5-3.8-2.3-7.6-2.5-11.6c-3.7,0-7.3,0-10.9,0c-0.4,4.4,3.4,13.8,6.6,16.3C27,60.8,29.2,59.3,31.7,58z M29.3,43.6
	c0.1-4,0.9-7.9,2.4-11.6c-2.5-1.3-4.7-2.8-6.7-4.7c-4.1,4.7-6.3,10.1-6.6,16.4C21.9,43.6,25.6,43.6,29.3,43.6z M71.7,43.6
	c0.3-4.6-3.6-14-6.7-16.3c-2,1.8-4.2,3.4-6.7,4.7c1.5,3.8,2.2,7.6,2.4,11.6C64.4,43.6,68,43.6,71.7,43.6z M43.6,46.4
	c-3.9,0-7.8,0-11.7,0c0.2,3.6,0.9,7.1,2.3,10.5c3.1-1.2,6.2-1.8,9.4-2C43.6,52,43.6,49.2,43.6,46.4z M43.6,35.1
	c-3.3-0.2-6.4-0.8-9.5-2c-1.1,2.1-2.4,8.5-2.2,10.5c3.9,0,7.7,0,11.6,0C43.6,40.8,43.6,38,43.6,35.1z M58,46.4c-3.9,0-7.7,0-11.6,0
	c0,2.8,0,5.7,0,8.5c3.2,0.1,6.3,0.8,9.3,2C56.8,54.7,58.1,48.8,58,46.4z M46.4,43.6c3.9,0,7.8,0,11.7,0c-0.1-3.6-0.8-7.1-2.2-10.5
	c-3.1,1.2-6.2,1.9-9.5,2C46.4,38,46.4,40.8,46.4,43.6z M43.6,19.7c-3.5,3.2-6.3,6.8-8.4,11c2.7,1.1,5.5,1.7,8.4,1.8
	C43.6,28.2,43.6,24,43.6,19.7z M46.4,32.4c1.8,0.2,7.3-1,8.3-1.8c-2.1-4.1-4.8-7.7-8.3-10.9C46.4,24,46.4,28.2,46.4,32.4z
	 M35.3,59.3c2.1,4.2,4.8,7.8,8.3,10.9c0-4.3,0-8.5,0-12.7C40.8,57.7,38.1,58.3,35.3,59.3z M54.6,59.3c-2.7-1-5.4-1.6-8.3-1.8
	c0,4.2,0,8.4,0,12.7C49.8,67.1,52.6,63.5,54.6,59.3z M57.1,60.5c-2,4.1-4.7,7.7-7.9,10.9c5.3-0.8,9.9-3,13.9-6.7
	C61.9,63.4,58.5,61,57.1,60.5z M26.8,64.7c4,3.6,8.6,5.9,13.9,6.7c-3.2-3.2-5.9-6.8-7.9-10.9C30.6,61.6,28.7,63,26.8,64.7z
	 M40.7,18.6c-5.3,0.8-9.9,3.1-13.8,6.7c1.8,1.7,3.8,3.1,5.9,4.2C34.8,25.4,37.4,21.8,40.7,18.6z M49.3,18.6
	c3.3,3.2,5.9,6.8,7.9,10.8c1.7-0.7,5.2-3.2,5.9-4.2C59.2,21.7,54.6,19.5,49.3,18.6z"/>
</svg>
