<?xml version="1.0" encoding="utf-8"?>
<!-- Generator: Adobe Illustrator 24.2.0, SVG Export Plug-In . SVG Version: 6.00 Build 0)  -->
<svg version="1.1" id="Layer_1" xmlns="http://www.w3.org/2000/svg" xmlns:xlink="http://www.w3.org/1999/xlink" x="0px" y="0px"
	 viewBox="0 0 90 90" style="enable-background:new 0 0 90 90;" xml:space="preserve">
<style type="text/css">
	.st0{fill:none;}
</style>
<path class="st0" d="M0,0c30,0,60,0,90,0c0,30,0,60,0,90c-30,0-60,0-90,0C0,60,0,30,0,0z"/>
<path d="M12,71.3c0-0.3,0-0.5,0-0.8c0-6.4,0-12.9,0-19.3c0-0.3,0-0.5,0-0.8c0.1-0.9,0.7-1.4,1.5-1.4c3.4,0,6.8,0,10.1,0
	c0.9,0,1.5,0.6,1.6,1.5c0,0.2,0,0.4,0,0.6c0,6.4,0,12.9,0,19.3c0,0.2,0,0.5,0,0.8c1.4,0,2.8,0,4.3,0c0-0.3,0-0.5,0-0.8
	c0-10.5,0-21,0-31.5c0-1.6,0.5-2.1,2.1-2.1c3.1,0,6.2,0,9.3,0c1.3,0,1.9,0.6,1.9,1.9c0,10.6,0,21.1,0,31.7c0,0.2,0,0.5,0,0.8
	c1.4,0,2.8,0,4.3,0c0-0.2,0-0.5,0-0.7c0-8.4,0-16.9,0-25.3c0-1.5,0.5-2,2-2c3.1,0,6.2,0,9.3,0c1.4,0,2,0.5,2,2c0,8.4,0,16.9,0,25.3
	c0,0.2,0,0.4,0,0.7c1.4,0,2.8,0,4.3,0c0-0.2,0-0.5,0-0.7c0-12.2,0-24.4,0-36.5c0-1.5,0.5-2.1,2.1-2.1c3,0,6.1,0,9.1,0
	c1.5,0,2.1,0.5,2.1,2.1c0,12.1,0,24.3,0,36.4c0,0.3,0,0.5,0,0.9c0.3,0,0.5,0,0.7,0c1.3,0,2.6,0,4,0c1,0,1.7,0.7,1.7,1.6
	c0,0.9-0.7,1.5-1.7,1.5c-0.2,0-0.3,0-0.5,0c-24.7,0-49.5,0-74.2,0c-0.3,0-0.5,0-0.8,0c-0.7-0.1-1.3-0.6-1.4-1.4
	c-0.1-0.7,0.4-1.5,1.1-1.7c0.3-0.1,0.6-0.1,0.9-0.1C9.1,71.3,10.5,71.3,12,71.3z M67.9,35.2c0,12.1,0,24.1,0,36.1c2.3,0,4.6,0,6.8,0
	c0-12.1,0-24.1,0-36.1C72.5,35.2,70.2,35.2,67.9,35.2z M39.7,71.3c0-10.4,0-20.8,0-31.2c-2.3,0-4.6,0-6.9,0c0,10.4,0,20.8,0,31.2
	C35.1,71.3,37.3,71.3,39.7,71.3z M50.4,46.5c0,8.3,0,16.6,0,24.8c2.3,0,4.6,0,6.9,0c0-8.3,0-16.5,0-24.8
	C54.9,46.5,52.7,46.5,50.4,46.5z M15.2,71.3c2.3,0,4.6,0,6.9,0c0-6.4,0-12.7,0-19c-2.3,0-4.6,0-6.9,0C15.2,58.6,15.2,64.9,15.2,71.3
	z"/>
<path d="M49.1,30.1c2.3-2.7,5.8-3,8.5-0.9c0.1-0.1,0.2-0.1,0.3-0.2c2.5-1.7,4.9-3.4,7.4-5.2c0.3-0.2,0.4-0.3,0.3-0.7
	c-0.9-3.3,1-6.6,4.4-7.4c3.2-0.8,6.6,1.3,7.2,4.5c0.7,3.4-1.4,6.6-4.8,7.2c-1.6,0.3-3.1-0.1-4.4-1c-0.3-0.2-0.5-0.3-0.8,0
	c-2.4,1.7-4.9,3.4-7.4,5.1c-0.3,0.2-0.3,0.4-0.3,0.8c0.6,2.5-0.1,4.6-2,6.2c-2,1.6-4.2,1.8-6.5,0.6c-2.1-1.1-3.4-3.3-3.2-5.7
	c0-0.1,0-0.2,0-0.3c-1.7-0.7-3.5-1.4-5.2-2.2c-1-0.5-1.8-0.6-2.7,0.3c-1.9,1.7-4.7,1.7-6.8,0.4c-0.1-0.1-0.3-0.2-0.5-0.3
	c-0.1,0.1-0.3,0.2-0.4,0.3c-2.5,1.8-5,3.7-7.5,5.5c-0.3,0.2-0.4,0.4-0.3,0.8c1,3.3-1,6.6-4.3,7.5c-3.2,0.8-6.6-1.3-7.3-4.5
	c-0.7-3.3,1.5-6.6,4.8-7.2c1.5-0.3,3,0,4.3,0.9c0.3,0.2,0.5,0.2,0.9,0c2.5-1.9,5-3.7,7.5-5.6c0.3-0.2,0.4-0.4,0.3-0.8
	c-0.7-2.4-0.1-4.5,1.8-6.2c1.9-1.6,4.1-2,6.4-1c2.3,1,3.5,2.9,3.6,5.3c0,0.3,0,0.5-0.1,0.9C44.5,28.2,46.8,29.1,49.1,30.1z
	 M71.4,24.3c1.6,0,2.8-1.3,2.8-2.8c0-1.6-1.3-2.8-2.9-2.8c-1.5,0-2.8,1.3-2.8,2.8C68.5,23,69.8,24.3,71.4,24.3z M51,33.8
	c0,1.5,1.3,2.8,2.8,2.8c1.5,0,2.8-1.3,2.8-2.8c0-1.6-1.3-2.9-2.8-2.8C52.2,30.9,51,32.2,51,33.8z M18.7,42.3c1.5,0,2.8-1.3,2.8-2.8
	c0-1.6-1.3-2.8-2.8-2.8c-1.6,0-2.9,1.3-2.8,2.8C15.8,41,17.1,42.3,18.7,42.3z M36.2,23.6c-1.5,0-2.8,1.2-2.8,2.8
	c0,1.6,1.3,2.9,2.8,2.9c1.5,0,2.8-1.3,2.8-2.8C39,24.9,37.8,23.6,36.2,23.6z"/>
</svg>
