<?xml version="1.0" encoding="utf-8"?>
<!-- Generator: Adobe Illustrator 24.2.0, SVG Export Plug-In . SVG Version: 6.00 Build 0)  -->
<svg version="1.1" id="Layer_1" xmlns="http://www.w3.org/2000/svg" xmlns:xlink="http://www.w3.org/1999/xlink" x="0px" y="0px"
	 viewBox="0 0 90 90" style="enable-background:new 0 0 90 90;" xml:space="preserve">
<path d="M74,45.1c0,16-13,29-29,29c-16,0-29-12.9-29.1-29c0-16,13-29.1,29-29.1C61.1,16.1,74,29,74,45.1z M60.5,46.4
	c-0.2,3.9-1,7.7-2.4,11.4c2.5,1.3,4.7,2.8,6.7,4.7c4-4.7,6.2-10,6.5-16.1C67.7,46.4,64.1,46.4,60.5,46.4z M32,57.8
	c-1.5-3.7-2.3-7.5-2.4-11.4c-3.6,0-7.2,0-10.8,0c-0.4,4.4,3.4,13.5,6.5,16C27.3,60.7,29.5,59.1,32,57.8z M29.5,43.7
	c0.1-4,0.9-7.7,2.3-11.4c-2.4-1.3-4.6-2.8-6.6-4.6c-4,4.6-6.2,10-6.5,16.1C22.3,43.7,25.9,43.7,29.5,43.7z M71.3,43.7
	c0.3-4.5-3.5-13.8-6.6-16c-2,1.8-4.2,3.3-6.6,4.6c1.5,3.7,2.2,7.5,2.3,11.4C64.1,43.7,67.7,43.7,71.3,43.7z M43.7,46.4
	c-3.8,0-7.6,0-11.5,0c0.2,3.6,0.9,7,2.2,10.3c3-1.1,6.1-1.8,9.2-1.9C43.7,52,43.7,49.2,43.7,46.4z M43.7,35.4
	c-3.2-0.2-6.3-0.8-9.3-2c-1.1,2.1-2.4,8.3-2.1,10.3c3.8,0,7.6,0,11.4,0C43.7,40.9,43.7,38.2,43.7,35.4z M57.8,46.4
	c-3.8,0-7.6,0-11.4,0c0,2.8,0,5.6,0,8.4c3.2,0.1,6.2,0.8,9.2,1.9C56.7,54.6,57.9,48.8,57.8,46.4z M46.4,43.7c3.8,0,7.6,0,11.5,0
	c-0.1-3.6-0.8-7-2.1-10.3c-3,1.2-6.1,1.8-9.3,2C46.4,38.2,46.4,40.9,46.4,43.7z M43.7,20.2c-3.5,3.1-6.2,6.7-8.2,10.8
	c2.7,1.1,5.4,1.6,8.2,1.8C43.7,28.5,43.7,24.4,43.7,20.2z M46.4,32.7c1.8,0.2,7.2-1,8.2-1.8c-2-4.1-4.7-7.6-8.2-10.7
	C46.4,24.4,46.4,28.5,46.4,32.7z M35.5,59.2c2.1,4.1,4.8,7.6,8.1,10.8c0-4.2,0-8.3,0-12.5C40.9,57.6,38.2,58.2,35.5,59.2z
	 M54.5,59.2c-2.6-1-5.3-1.6-8.1-1.7c0,4.2,0,8.3,0,12.5C49.8,66.8,52.5,63.3,54.5,59.2z M57,60.3c-2,4-4.6,7.5-7.7,10.7
	c5.2-0.8,9.8-3,13.6-6.6C61.7,63.1,58.3,60.8,57,60.3z M27.1,64.4c3.9,3.6,8.5,5.8,13.7,6.6c-3.2-3.2-5.8-6.7-7.8-10.7
	C30.9,61.4,28.9,62.8,27.1,64.4z M40.8,19.1c-5.2,0.8-9.7,3-13.6,6.6c1.8,1.7,3.7,3,5.8,4.1C34.9,25.8,37.6,22.2,40.8,19.1z
	 M49.3,19.1c3.2,3.1,5.8,6.7,7.8,10.7c1.6-0.7,5.1-3.2,5.8-4.1C59,22.2,54.5,20,49.3,19.1z"/>
</svg>
