<?xml version="1.0" encoding="utf-8"?>
<!-- Generator: Adobe Illustrator 24.2.0, SVG Export Plug-In . SVG Version: 6.00 Build 0)  -->
<svg version="1.1" id="Layer_1" xmlns="http://www.w3.org/2000/svg" xmlns:xlink="http://www.w3.org/1999/xlink" x="0px" y="0px"
	 viewBox="0 0 16 16" style="enable-background:new 0 0 16 16;" xml:space="preserve">
<style type="text/css">
	.st0{fill:#FFFFFF;}
</style>
<g>
	<path class="st0" d="M14.8,0H1.2H0v1.1v13.7V16h1.2h13.7H16v-1.1V1.1V0H14.8z M4.9,13.4H2.5V6.2h2.4V13.4z M3.7,5.2L3.7,5.2
		c-0.8,0-1.3-0.6-1.3-1.2c0-0.7,0.5-1.2,1.4-1.2s1.3,0.5,1.3,1.2C5.1,4.6,4.6,5.2,3.7,5.2z M13.6,13.4h-2.4V9.5c0-1-0.3-1.6-1.2-1.6
		c-0.7,0-1.1,0.4-1.2,0.9C8.7,8.9,8.7,9.1,8.7,9.4v4H6.3c0,0,0-6.5,0-7.2h2.4v1C9,6.7,9.5,6,10.8,6c1.6,0,2.8,1,2.8,3.2V13.4z"/>
	<path class="st0" d="M8.7,7.2L8.7,7.2C8.7,7.2,8.6,7.2,8.7,7.2L8.7,7.2z"/>
</g>
</svg>
