<?xml version="1.0" encoding="utf-8"?>
<!-- Generator: Adobe Illustrator 24.2.0, SVG Export Plug-In . SVG Version: 6.00 Build 0)  -->
<svg version="1.1" id="Layer_1" xmlns="http://www.w3.org/2000/svg" xmlns:xlink="http://www.w3.org/1999/xlink" x="0px" y="0px"
	 viewBox="0 0 16 16" style="enable-background:new 0 0 16 16;" xml:space="preserve">
<style type="text/css">
	.st0{fill:#FFFFFF;}
</style>
<g>
	<path class="st0" d="M14.4,5.3c0,0.1,0,0.3,0,0.4C14.4,10,11.1,15,5,15c-1.8,0-3.5-0.5-5-1.5V16h16V3.5C15.6,4.2,15,4.8,14.4,5.3z"
		/>
	<path class="st0" d="M0,0v13.5c0.3,0,0.5,0.1,0.8,0.1c1.5,0,2.9-0.5,4.1-1.4c-1.4,0-2.6-0.9-3.1-2.3c0.2,0,0.4,0,0.6,0
		c0.3,0,0.6,0,0.9-0.1C1.7,9.5,0.6,8.2,0.6,6.6v0C1.1,6.8,1.6,7,2.1,7c-1.5-1-1.9-2.9-1-4.4C2.8,4.7,5.2,5.9,7.9,6
		C7.6,4.9,8,3.7,8.8,2.9c1.3-1.2,3.4-1.2,4.6,0.2c0.7-0.1,1.4-0.4,2.1-0.8c-0.3,0.8-0.8,1.4-1.5,1.8C14.8,4,15.4,3.8,16,3.5V0H0z"/>
</g>
</svg>
