<?xml version="1.0" encoding="utf-8"?>
<!-- Generator: Adobe Illustrator 24.2.0, SVG Export Plug-In . SVG Version: 6.00 Build 0)  -->
<svg version="1.1" id="Layer_1" xmlns="http://www.w3.org/2000/svg" xmlns:xlink="http://www.w3.org/1999/xlink" x="0px" y="0px"
	 viewBox="0 0 90 90" style="enable-background:new 0 0 90 90;" xml:space="preserve">
<path d="M38.4,42.4c-1.2-1.2-2.4-2.5-3.6-3.6c-0.4-0.4-0.6-0.9-0.6-1.4c0-7.7,0-15.4,0-23.1c0-1.1,0.5-1.6,1.6-1.6
	c6.2,0,12.3,0,18.5,0c1.1,0,1.6,0.5,1.6,1.6c0,7.7,0,15.4,0,23.1c0,0.6-0.2,1-0.6,1.4c-1.2,1.2-2.4,2.4-3.6,3.7c1.2,0.2,1.4,1,1.3,2
	c0,1.3,0,2.6,0,3.9c0,0.2,0.1,0.4,0.3,0.5c4,2.8,6.3,6.6,6.8,11.4c0.9,8.1-4.5,15.3-12.1,16.9c-7.6,1.6-15.2-3-17.6-10.5
	C28.5,60,31,52.9,36.7,48.9c0.2-0.2,0.3-0.3,0.3-0.6c0-1.3,0-2.7,0-4C37.1,43.1,37.3,42.8,38.4,42.4z M45.1,74.9
	c1-0.2,2.1-0.2,3.1-0.5c7.1-1.9,11.1-9.4,8.8-16.5c-2.2-6.7-9.1-10.3-15.6-8.3c-6.1,1.9-9.9,8.3-8.7,14.6
	C33.9,70.4,39,74.8,45.1,74.9z M47.2,42.4c0-9.1,0-18.1,0-27.1c-1.4,0-2.8,0-4.2,0c0,9.1,0,18.1,0,27.1
	C44.4,42.4,45.8,42.4,47.2,42.4z M49.9,15.3c0,8.4,0,16.8,0,25.1c0,0,0.1,0.1,0.1,0.1c0.1-0.1,0.2-0.3,0.3-0.4
	c0.9-0.9,1.8-1.8,2.7-2.8c0.2-0.2,0.3-0.5,0.3-0.8c0-6.9,0-13.8,0-20.7c0-0.2,0-0.3,0-0.5C52.1,15.3,51,15.3,49.9,15.3z M36.9,15.3
	c0,0.1,0,0.2,0,0.2c0,7.1,0,14.1,0,21.2c0,0.2,0.1,0.4,0.2,0.5c0.9,1,1.9,2,2.9,3c0.1,0.1,0.2,0.1,0.3,0.2c0-8.4,0-16.8,0-25.1
	C39.1,15.3,38,15.3,36.9,15.3z M39.7,47.4c3.6-1.3,7.1-1.3,10.6,0c0-0.7,0-1.5,0-2.1c-3.6,0-7.1,0-10.6,0
	C39.7,45.9,39.7,46.6,39.7,47.4z"/>
<path d="M36,61.9c0-5.3,4.2-9.6,9.4-9.6c5.2,0,9.3,4.3,9.3,9.6c0,5.3-4.2,9.6-9.4,9.6C40.2,71.5,36,67.2,36,61.9z M52.1,62
	c0-3.8-3-6.9-6.7-6.9c-3.7,0-6.8,3.1-6.8,6.9c0,3.8,3,6.9,6.8,6.9C49.1,68.8,52.1,65.8,52.1,62z"/>
</svg>
