<svg width="55" height="55" viewBox="0 0 55 55" xmlns="http://www.w3.org/2000/svg"><path fill="#413e3e" d="M31.7,22.4c0,2.3,0.9,4.5,2.5,6.1c1.6,1.6,3.7,2.5,6,2.5s4.4-0.9,6-2.5c1.6-1.6,2.5-3.8,2.5-6.1h-1.9l-4.1-9.1c0.3-0.3,0.5-0.6,0.7-1c0.2-0.4,0.3-0.8,0.3-1.2c0-0.7-0.2-1.3-0.7-1.9c-0.4-0.5-1-0.9-1.7-1c-0.7-0.1-1.3-0.1-1.9,0.2c-0.6,0.3-1.1,0.8-1.4,1.4l-21.1,5.5c-0.6-0.5-1.4-0.8-2.1-0.7c-0.8,0.1-1.5,0.4-2,1c-0.5,0.6-0.8,1.4-0.7,2.2c0.1,0.8,0.4,1.5,1,2l-4.2,9.2H6.5c0,2.3,0.9,4.5,2.5,6.1c1.6,1.6,3.7,2.5,6,2.5s4.4-0.9,6-2.5c1.6-1.6,2.5-3.8,2.5-6.1H21l-4.2-9.2c0.5-0.4,0.8-1,0.9-1.6l7.6-2v24.2h-0.2l-10.3,3.3c-0.3,0.1-0.6,0.3-0.8,0.6s-0.3,0.6-0.3,1v0.1c0,0.2,0,0.4,0.1,0.7c0.1,0.2,0.2,0.4,0.3,0.6c0.2,0.2,0.3,0.3,0.5,0.4s0.4,0.1,0.6,0.1H40c0.2,0,0.4,0,0.6-0.1c0.2-0.1,0.4-0.2,0.5-0.4c0.2-0.2,0.3-0.3,0.3-0.5c0.1-0.2,0.1-0.4,0.1-0.6v-0.1c0-0.4-0.1-0.7-0.3-1c-0.2-0.3-0.5-0.5-0.8-0.6l-10.3-3.3H30V15.1l8.2-2.2l0.3,0.3l-4.1,9.1H31.7z M18.4,28.9h-7.1l3.6-7.8L18.4,28.9z M40.6,14.6l3.6,7.8H37L40.6,14.6z"/></svg>