<?xml version="1.0" encoding="utf-8"?>
<!-- Generator: Adobe Illustrator 24.2.0, SVG Export Plug-In . SVG Version: 6.00 Build 0)  -->
<svg version="1.1" id="Layer_1" xmlns="http://www.w3.org/2000/svg" xmlns:xlink="http://www.w3.org/1999/xlink" x="0px" y="0px"
	 viewBox="0 0 55 55" style="enable-background:new 0 0 55 55;" xml:space="preserve">
<style type="text/css">
	.st0{fill:#413E3E;}
</style>
<path class="st0" d="M43.4,30.1c-2.4-2.1-5.8-2.4-9-2.6l2.6,5.6l-9.5,9.8L18,33.3l2.7-5.8c-3.2,0-6.6,0.5-9,2.6
	c-2.1,1.9-2.6,5-2.6,8.2v7.4c0,0,9,3.2,18.6,2.9c9.5,0.3,18.6-2.9,18.6-2.9v-7.4C46.1,35.4,45.5,32.3,43.4,30.1z"/>
<path class="st0" d="M18.5,25.6c2.1,0,5.3-1.1,5.8-1.9c-2.1-2.6-4-5.3-2.1-10.3c0,0,2.9,3.2,11.4,4c0,2.6-1.3,4.5-2.9,6.4
	c0.5,0.8,3.7,1.9,5.8,1.9c2.1,0,3.7-0.5,3.7-1.3S36.8,21,36,18.6s-0.3-5-1.3-8.2c-1.6-3.7-5.3-4-7.2-4s-5.6,0.3-7.2,4
	c-1.1,3.2-0.5,5.8-1.3,8.2s-4.2,5-4.2,5.8S16.4,25.6,18.5,25.6z"/>
<path class="st0" d="M27.5,30.1l-6.1-2.6l6.1,15.4l6.1-15.4L27.5,30.1z"/>
</svg>
