<?xml version="1.0" encoding="utf-8"?>
<!-- Generator: Adobe Illustrator 24.2.0, SVG Export Plug-In . SVG Version: 6.00 Build 0)  -->
<svg version="1.1" id="Layer_1" xmlns="http://www.w3.org/2000/svg" xmlns:xlink="http://www.w3.org/1999/xlink" x="0px" y="0px"
	 viewBox="0 0 400 61" style="enable-background:new 0 0 400 61;" xml:space="preserve">
<style type="text/css">
	.st0{fill:#FFFFFF;}
</style>
<path class="st0" d="M206.6,21.8c-0.8,0.3-1.4,0.8-2.1,1.1c-2.8,1.3-5.6,2.7-8.5,3.7c-1.9,0.7-2.7-0.1-2.2-2.1
	c0.6-2.6,1.6-5.1,4.3-6.5c-1,1.9-2.1,3.8-3.3,6.1c3.4-0.3,6.7-6.4,5.2-8.5c-0.3-0.5-1.4-0.7-2.1-0.6c-0.7,0.1-1.2,0.7-1.9,1.1
	c-4.3,2.9-8.6,5.8-13,8.5c-1.7,1-3.7,1.5-5.6,2.1c-1,0.3-2,0-1.8-1.4c0.3-2.9,1.4-5.5,4-7.2c-0.6,1.4-1.5,2.7-2.3,4
	c-0.3,0.5-0.1,1.2-0.2,1.8c0.6-0.1,1.5,0,1.7-0.4c1.2-1.8,2.3-3.7,3.1-5.7c0.3-0.7-0.1-2.3-0.7-2.7c-0.6-0.4-2.2-0.1-2.7,0.5
	c-1.7,2.2-3.3,4.4-4.5,6.9c-1,1.9-2.4,3.1-4.3,3.7c-1.9,0.6-3.2-0.5-4.3-1.9c-0.5-0.6-0.7-1.3-1.3-1.8c-0.5-0.4-1.8-0.7-1.8-0.6
	c-0.9,2-2.9,1.3-4.4,1.8c-8.7,2.9-17.4,5.8-26.1,8.7c-2.6,0.9-3.2,0.6-3.1-2.2c0.1-3.6,0.4-7.2,0.5-10.8c0-0.6-0.5-1.3-0.8-2
	c-0.4,0.6-1,1.2-1,1.9c-0.3,3.7-0.4,7.4-0.7,11c-0.3,3.9-2.5,6-6.4,6.7c-1.2,0.2-2.4,1-3.5,1.7c-0.3,0.2-0.4,0.8-0.5,1.3
	c0.5,0.1,1.1,0.5,1.5,0.3c1.6-0.6,3.1-1.3,4.7-1.9c2.9-1.1,3.6-0.6,3.4,2.5c-0.3,5.5-0.6,11-0.9,16.6c0,0.9,0.3,1.8,0.5,2.7
	c0.3,0,0.6,0,0.9,0c0.2-0.7,0.4-1.4,0.5-2.1c0.4-5.7,0.7-11.3,1-17c0.2-4.1,1.6-6,5.5-7.3c4.2-1.5,8.5-3,12.7-4.4
	c3.9-1.3,7.9-2.5,12.2-3.9c-0.1,1.3-0.2,2.2-0.3,3c-0.1,0.9-0.1,1.9-0.2,3.5c1.1-0.8,1.8-1.1,2.2-1.7c0.6-0.9,1.1-1.9,1.6-2.9
	c1.3-2.5,1.3-2.5,3.3-0.7c2.3,2,4.2,2.1,6.9,0.6c0.5-0.3,1-0.5,1.6-0.8c0.8,2.4,2.5,2.9,4.4,2.4c1.8-0.5,3.7-1,5.4-1.8
	c2.9-1.4,5.6-3,8.7-4.6c-0.1,1.2-0.3,2.1-0.4,3c0,2.3,1.2,3.7,3.3,3.6c5-0.4,8.9-3.2,13.1-5.5c0.3-0.2,0.2-1.1,0.3-1.7
	C207.6,21.9,207,21.7,206.6,21.8z"/>
<path class="st0" d="M395.6,20.6c-0.4-2-1.5-2.4-4.8-1.4c0,5.6,0,11.1,0,16.6c1.6,0,3,0,4.7,0c0-2.4-0.1-4.7,0-7
	c0.1-3.3,1.2-4.5,4.5-5.2c0-1.6,0-3.2,0-4.9C398.5,19.4,397,20,395.6,20.6z"/>
<path class="st0" d="M28.5,23c-1.7-0.3-3.3-0.5-4.1-2.4c-0.2-0.6-1.1-0.9-1.9-1.4c-1,2.6-2.5,4-5.4,2.9c0.8-1.5,1.4-3,2.2-4.3
	c0.9-1.4,0.7-2.4-0.6-3.3c-1.4-1-2.4-0.2-3.2,0.8c-0.7,0.8-1.4,1.6-1.8,2.5c-1.6,4.2-4.7,5.7-9,5.4c-1.3-0.1-2.5,0.5-4,0.8
	c1.9,3.8,5.3,1.8,7.7,2.7c-0.9,3.9-1.1,4.2-4.8,4.6c-0.7,0.1-1.5,0.1-2.1,0.5C1,32,0.5,32.8,0,33.4c0.7,0.6,1.4,1.4,2.2,1.6
	c0.9,0.3,2,0.1,3.3,0.1c-0.1,0.7-0.3,1.1-0.3,1.6C5,38.1,4.6,39.6,4.7,41c0.1,1.9,1.5,2.7,3.2,2.7c1.9,0.1,1.3-1.5,1.5-2.6
	c0.2-1.4,0.4-2.8,0.8-4.1c0.9-3.1,1.5-3.3,4.7-2.3c-0.6,1.7-1.2,3.4-1.7,5.2c-0.6,1.9-0.1,3.2,2.3,3.5c1.1-2.2,2.3-4.5,3.4-6.8
	c0.8-1.6,1.7-2.6,3.7-2.2c2.2,0.4,4.5,0.5,7.3,0.8c-0.7-1.3-0.9-2.5-1.6-2.8c-1.8-0.8-3.7-1.2-5.6-1.8c2-6.3,1.9-5.5,6.7-4.1
	c0.5,0.1,1.5-0.2,1.6-0.4c0.1-0.7,0.1-1.7-0.3-2.2C30.2,23.4,29.3,23.1,28.5,23z M13.5,30.5c0.6-3.8,2-5.1,4.9-4.4
	C18,29.7,16.8,30.8,13.5,30.5z"/>
<path class="st0" d="M269.3,23.3c-3.5-3.3-3.5-3.3-7.6-1c-0.2-0.2-0.5-0.4-0.8-0.7c-1.3-1.8-2.8-3-4.8-0.9c-0.2,0.2-0.7,0.1-1,0.1
	c-0.8,0.1-1.7,0.1-2.2,0.5c-2.7,2.2-5.8,3.4-9.3,3.5c-4.2,0.1-4.3,0-3.6-3.9c0-0.2,0.1-0.4,0.1-0.7c0.3-2.1-0.9-3.4-2.9-2.8
	c-1.1,0.4-1.9,1.6-2.7,2.6c-0.5,0.6-0.7,1.7-1.3,1.8c-2.5,0.7-5.1,1.3-7.7,1.6c-1.6,0.2-2.1-0.8-1.3-2.3c1.1-2.2,2.5-4.2,3.3-6.5
	C228.5,12,229.6,9,230,6c0.5-3.9-1.8-5.9-5.6-5.3c-4.3,0.7-7.6,3.3-9.7,7c-3,5.3-3.9,10.4,0.7,15c0.7,0.7,0.8,2.1,1.1,3.2
	c0.2,0.8,0.4,1.7,0.6,2.5c0.9-0.4,1.8-0.8,2.6-1.2c1.1-0.6,2.2-1.7,3.4-1.8c3.4-0.4,6.8-0.4,10.4-0.6c0.1,1.5,1.3,1.7,2.9,1.5
	c0.9-0.1,1.8,0.1,2.6,0.2c3.6,0.6,7.2,0.4,10.6-1.1c0.6-0.3,1.3-0.4,1.8-0.6c0.3,1,0.5,1.9,0.7,2.7c0.7-0.6,1.4-1.1,2.1-1.7
	c0.3-0.3,0.5-0.7,0.8-1.1c1-1.1,2.1-2.2,3.2-3.4c2.5,3.9,2.7,4,6.1,1.6c0.4-0.3,1.2-0.2,1.7,0.1c0.7,0.4,1.3,1.1,2,1.8
	c5.5,5.4,11,4.1,17.5,0.1c0.5-0.3,0.5-1.4,0.9-2.4c-2.5,1.1-4.5,2-6.4,2.9C276,27.2,272.4,26.2,269.3,23.3z M222.2,20.2
	c-0.8,1.1-3,1.7-4.4,1.4c-1.1-0.2-2.4-1.8-2.8-3c-1.5-4-0.2-7.7,2.2-10.9c1.9-2.5,4.1-4.7,7.5-5c2.7-0.2,3.5,0.5,3.4,4
	C227.4,11.2,225.3,16,222.2,20.2z"/>
<path class="st0" d="M315.1,22.4c2.4,0,4.7,0,7,0c0-1.9,0-3.5,0-5.4c-2.4,0-4.6,0-7,0c0-1.3,0-2.4,0-3.7c2.5,0,4.9,0,7.4,0
	c0-2,0-3.8,0-5.6c-4.9,0-9.6,0-14.5,0c0,8,0,15.8,0,23.6c0,0.4,0.7,1.2,1.1,1.3c4.5,0.1,8.9,0.1,13.4,0.1c0-2.1,0-3.9,0-6
	c-2.5,0-4.9,0-7.4,0C315.1,25,315.1,23.8,315.1,22.4z"/>
<path class="st0" d="M97.1,24c-0.4-4.2-3.4-6.4-7.4-5.2c-1.3,0.4-2.5,1.3-3.8,2c-3.2-2.9-5.5-3-9.2-0.3c-0.1-0.3-0.2-0.7-0.4-0.7
	c-1.2-0.3-2.5-0.7-3.7-0.8c-0.3,0-0.9,0.7-0.9,1.1c-0.1,5.3,0,10.6,0,15.9c1.7,0,3.1,0,4.7,0c0-1.3,0-2.5,0-3.7c0-2.3,0-4.6,0.2-6.8
	c0.1-1.5,1.1-2.4,2.6-2.4c1.5,0,2.5,0.9,2.7,2.4c0.1,0.7,0.1,1.5,0.1,2.2c0,2.8,0,5.5,0,8.4c1.7,0,3.1,0,4.8,0c0-3.3,0-6.6,0-9.8
	c0-1.6,0.6-2.7,2.2-3.1c1.9-0.5,3.2,0.8,3.3,3.1c0.1,3.2,0,6.4,0,9.7c1.7,0,3.2,0,4.8,0c0-3.3,0-6.5,0-9.7
	C97.2,25.5,97.2,24.7,97.1,24z"/>
<path class="st0" d="M300.1,14.5c-3.8-1.7-8.7-0.9-11,1.8c-2.9,3.4-3.4,9.4-1.1,12.9c2.6,4,10.6,5.1,15.5,2.1
	c-0.2-1.4-0.4-2.9-0.7-4.5c-3.3,0.7-6.4,2.1-9.1-0.4c0-0.3,0.1-0.7,0.1-1c2.7,0,5.4,0,8.1,0c0.6,0,1.6-0.2,1.9-0.7
	C305.4,21.9,303.1,15.8,300.1,14.5z M297.3,20.9c-1.1,0-2.3,0-3.6,0c0.1-1.7,0.9-2.6,2.2-2.3c0.7,0.2,1.2,1.1,1.8,1.7
	C297.6,20.5,297.5,20.7,297.3,20.9z"/>
<path class="st0" d="M341.3,21.8c0,2.5,0,5-0.1,7.5c-0.1,1.8-1.2,2.6-2.9,2.6c-2,0-2.7-1.3-2.7-3.1c-0.1-2.8-0.1-5.6,0-8.4
	c0-2.1-1.6-1.5-2.7-1.6c-1.1-0.1-2.2-0.1-2.2,1.6c0.1,3.4-0.1,6.8,0.1,10.1c0.2,4.3,3.6,6.7,7.6,5.4c0.9-0.3,1.6-0.9,2.6-1.5
	c0.8,1.8,1.9,2,4.9,1.2c0-5.6,0-11.1,0-16.7c-0.6-0.1-1-0.1-1.5-0.1C341.4,18.8,341.4,18.8,341.3,21.8z"/>
<path class="st0" d="M62,19.3c-3.4-1.3-6.8-0.9-10.3,0.8c0.4,1.2,0.8,2.4,1.2,3.5c5.8-1.4,7.7-0.8,7.8,2.3c-3.9-0.3-7.9-1.3-10.1,3
	c-1,1.9-0.3,4.8,1.2,6.1c1.9,1.7,5.4,1.7,8.6,0.5c1.6,0.2,3.3,0.4,5.1,0.6c0-4.1,0.1-7.8,0-11.5C65.5,22.3,64.4,20.2,62,19.3z
	 M57.6,33c-1.5,0-2.6-0.5-2.7-2.2c0-1.5,1.2-2.3,3.8-2.7c0.8,0.7,2.2,1.2,2.3,2.1C61.4,31.7,59.7,33,57.6,33z"/>
<path class="st0" d="M117.4,36c0-4.1,0.1-8,0-11.9c-0.1-2.1-1.2-3.9-3.2-4.7c-3.5-1.5-7-1-10.6,0.6c0.5,1.3,0.8,2.4,1.3,3.5
	c5.8-1.4,7.9-0.8,7.9,2.3c-3.7-0.2-7.6-1.5-10,2.8c-1,1.9-0.6,4.9,0.9,6.2c2.9,2.3,6,1.7,9,0.1C113.9,37,115.7,35.7,117.4,36z
	 M108.5,33c-0.4-0.4-1.5-1.1-1.7-2.1c-0.4-1.4,1.2-2.5,3.4-2.3c1.1,0.1,2.7-0.4,2.8,1.5C113.1,31.7,111.4,33,108.5,33z"/>
<path class="st0" d="M379.4,18.8c-4.1-1.1-8.3,1.1-9.8,5.1c-1.7,4.6,0.1,9.9,3.9,11.7c3.8,1.7,9.5,0.7,10.6-2.4
	c-1.1-1.5-2.1-2.5-4.3-1.2c-2.8,1.6-5.7,0-5.8-2.9c3.6,0,7.2,0,10.9,0C385.8,24.1,383.4,20,379.4,18.8z M374.1,26.1
	c-0.2-2,0.9-3.5,2.8-3.6c1.9-0.2,3.1,1,3.5,3.6C378.1,26.1,376.1,26.1,374.1,26.1z"/>
<path class="st0" d="M361,26.3c-1.4-0.6-2.8-1.1-4.1-1.7c-0.4-0.2-0.9-1-0.8-1.3c0.1-0.4,0.8-0.9,1.3-0.9c0.7-0.1,1.5,0.1,2.2,0.3
	c3,1,3,1.1,4.2-2.2c-2.4-1.7-5.1-2.4-8.1-1.6c-2.5,0.7-3.9,2.5-4,4.9c-0.1,2.5,1.2,4.1,3.8,5c1,0.3,2,0.5,2.9,1
	c0.7,0.4,1.1,1.1,1.6,1.7c-0.8,0.3-1.6,1-2.3,0.9c-1.6-0.3-3.2-1-5-1.6c-0.5,0.8-1.1,1.7-1.7,2.7c2.6,2.3,5.3,3.1,8.7,2.5
	c2.6-0.4,4.4-2.1,4.7-4.5C364.8,29.4,363.5,27.4,361,26.3z"/>
<path class="st0" d="M40.5,13.6c-0.2,0-0.4,0.1-0.7,0.2c0,7.5,0,14.8,0,22.1c1.6,0,3,0,4.7,0c0-6.4,0-12.6,0-18.8
	C44.4,13.2,44.4,13.2,40.5,13.6z"/>
<path class="st0" d="M120,23.4c1-1.3,1.8-2.9,3.1-3.9c7.6-5.5,16.2-8.4,25.6-7.8c1.6,0.1,3.2,1.2,4.8,1.8c0.7,0.3,1.4,0.6,2.1,1
	c-0.3-0.8-0.4-1.7-0.8-2.4c-0.3-0.5-1-1-1.6-1.1c-2.8-0.5-5.6-1.3-8.4-1.2c-6.9,0-13.4,2.3-19.2,5.8c-2.4,1.4-4.3,3.8-6.4,5.9
	c-0.3,0.3,0,1.3,0.1,2C119.5,23.4,119.7,23.4,120,23.4z"/>
</svg>
