<?xml version="1.0" encoding="utf-8"?>
<!-- Generator: Adobe Illustrator 24.2.0, SVG Export Plug-In . SVG Version: 6.00 Build 0)  -->
<svg version="1.1" id="logotipoFreedomeE" xmlns="http://www.w3.org/2000/svg" xmlns:xlink="http://www.w3.org/1999/xlink" x="0px"
	 y="0px" viewBox="0 0 640 317" style="enable-background:new 0 0 640 317;" xml:space="preserve">
<style type="text/css">
	.st0{fill:#0A0A0A;}
</style>
<path class="st0" d="M483,249.4c-4.8-3.2-10.9-4.7-18.2-4.7c-5.3,0-10.1,1.1-14.2,3.2c-4.2,2.1-7.5,5.1-9.9,8.8
	c-0.6,0.9-1.1,1.9-1.6,2.8c-0.4-1-0.9-1.9-1.5-2.8c-2.3-3.7-5.6-6.7-9.8-8.8c-4.2-2.1-9.2-3.2-15-3.2c-7.2,0-13.3,1.6-18.1,4.7
	c-4.8,3.2-8.5,7.3-10.9,12.5c-2.4,5.2-3.7,10.9-3.7,17.1v35.1h19.2v-32c0-3.4,0.5-6.6,1.5-9.4c1-2.8,2.6-5.1,4.7-6.8
	c2.2-1.7,5.1-2.6,8.7-2.6c3.4,0,6.3,0.8,8.5,2.5c2.3,1.7,3.9,3.9,4.9,6.8c1,2.8,1.5,6,1.5,9.6v32h19.2v-32.1c0-3.4,0.5-6.6,1.6-9.4
	c1-2.8,2.6-5.1,4.8-6.8c2.2-1.7,5-2.5,8.5-2.5c3.5,0,6.4,0.9,8.6,2.6c2.2,1.7,3.8,4,4.9,6.8c1,2.8,1.6,6,1.6,9.6v31.8h19.2v-35.1
	c0-6.3-1.2-12.1-3.7-17.2C491.5,256.8,487.8,252.6,483,249.4z"/>
<path class="st0" d="M276.3,251.5c-1.4-1.1-3-2.1-4.6-3c-4.2-2.2-8.7-3.3-13.5-3.3c-6.9,0-13,1.5-18.3,4.5c-5.3,3-9.5,7.2-12.5,12.5
	c-3,5.4-4.5,11.5-4.5,18.5c0,6.4,1.6,12.3,4.8,17.7c3.2,5.4,7.5,9.7,13,12.9c5.5,3.2,11.6,4.8,18.5,4.8c7,0,13.2-1.5,18.7-4.6
	c5.5-3.1,9.8-7.3,13-12.6c3.2-5.3,4.7-11.4,4.7-18.2v-64.5h-19.2L276.3,251.5z M274.2,289.3c-1.5,2.6-3.5,4.7-6.1,6.3
	c-2.6,1.6-5.5,2.4-8.9,2.4c-3.3,0-6.2-0.8-8.7-2.4c-2.6-1.6-4.6-3.7-6.1-6.3c-1.5-2.6-2.2-5.5-2.2-8.5c0-3.2,0.7-6.1,2.2-8.7
	c1.5-2.7,3.5-4.8,6.1-6.3c2.6-1.5,5.5-2.3,8.7-2.3c3.3,0,6.3,0.8,8.9,2.3c2.6,1.5,4.6,3.6,6.1,6.3c1.5,2.7,2.2,5.6,2.2,8.7
	C276.4,283.8,275.6,286.7,274.2,289.3z"/>
<path class="st0" d="M356.5,249.9c-5.5-3.2-11.7-4.8-18.6-4.8c-6.8,0-12.9,1.6-18.4,4.8c-5.5,3.2-9.9,7.5-13.1,12.8
	c-3.2,5.3-4.8,11.2-4.8,17.7c0,6.5,1.6,12.4,4.8,17.8c3.2,5.4,7.5,9.7,13,12.9c5.5,3.2,11.6,4.8,18.5,4.8c6.9,0,13-1.6,18.6-4.8
	c5.5-3.2,9.9-7.5,13.1-12.9c3.2-5.4,4.8-11.3,4.8-17.8c0-6.4-1.6-12.3-4.8-17.7C366.3,257.4,362,253.1,356.5,249.9z M352.8,289.3
	c-1.5,2.6-3.5,4.7-6.1,6.3c-2.6,1.6-5.5,2.4-8.9,2.4c-3.3,0-6.2-0.8-8.7-2.4c-2.6-1.6-4.6-3.7-6.1-6.3c-1.5-2.6-2.2-5.5-2.2-8.7
	c0-3.2,0.7-6,2.2-8.7c1.5-2.6,3.5-4.7,6.1-6.3c2.6-1.6,5.5-2.4,8.7-2.4c3.3,0,6.3,0.8,8.9,2.4c2.6,1.6,4.6,3.7,6.1,6.3
	c1.5,2.6,2.2,5.5,2.2,8.7C355.1,283.8,354.3,286.7,352.8,289.3z"/>
<path class="st0" d="M128.2,249.3c-4.9-3.1-10.9-4.6-17.9-4.6c-6.8,0-12.8,1.6-17.9,4.7c-5.2,3.2-9.2,7.4-12.1,12.7
	c-2.9,5.3-4.3,11.1-4.3,17.5c0,7,1.6,13.2,4.7,18.5c3.1,5.3,7.4,9.5,12.9,12.4c5.5,3,11.7,4.5,18.5,4.5c7,0,13.2-1.6,18.5-4.9
	c5.3-3.3,9.4-7.9,12.2-13.8l-14.6-7.4c-1.5,3-3.7,5.4-6.6,7.1c-2.9,1.7-6.1,2.5-9.7,2.5c-3.7,0-7-0.8-9.7-2.5
	c-2.7-1.6-4.8-3.9-6.3-6.9c-0.8-1.7-1.4-3.4-1.7-5.3h49.2v-5.6c0-6.1-1.3-11.6-3.9-16.7C136.9,256.5,133.1,252.4,128.2,249.3z
	 M96.2,269.9c0.4-0.9,0.9-1.8,1.5-2.7c1.3-1.8,3-3.3,5.1-4.3c2.1-1.1,4.5-1.6,7.3-1.6c2.7,0,5,0.5,7.1,1.5c2,1,3.7,2.5,5,4.3
	c0.6,0.9,1.1,1.8,1.5,2.8H96.2z"/>
<path class="st0" d="M73.1,245.6c-1.4-0.2-2.8-0.3-4.2-0.3c-6.6,0-12.1,1.3-16.5,4c-4.4,2.7-7.7,6.3-9.9,10.8
	c-2.2,4.6-3.3,9.7-3.3,15.5v38.5h19.2v-37.8c0-4,1.1-7.1,3.3-9.4c2.2-2.3,5.1-3.5,8.9-3.5c0.8,0,1.6,0.1,2.5,0.2V245.6z"/>
<path class="st0" d="M34.4,233.1l10.5,0v-18.1c0,0-12,0-12.2,0c-6.6,0-12.1,1.3-16.5,4c-4.4,2.7-7.7,6.3-9.9,10.8
	c-2.2,4.6-3.3,9.7-3.3,15.5v0.1v16.1v52.7h19.2v-52.7h13.3v-16.1H22.3c0.1-3.7,1.2-6.7,3.2-8.9C27.7,234.2,30.6,233.1,34.4,233.1z"
	/>
<path class="st0" d="M201.7,249.3c-4.9-3.1-10.9-4.6-17.9-4.6c-6.8,0-12.8,1.6-17.9,4.7c-5.2,3.2-9.2,7.4-12.1,12.7
	c-2.9,5.3-4.3,11.1-4.3,17.5c0,7,1.6,13.2,4.7,18.5c3.1,5.3,7.4,9.5,12.9,12.4c5.5,3,11.7,4.5,18.5,4.5c7,0,13.2-1.6,18.5-4.9
	c5.3-3.3,9.4-7.9,12.2-13.8l-14.6-7.4c-1.5,3-3.7,5.4-6.6,7.1c-2.9,1.7-6.1,2.5-9.7,2.5c-3.7,0-7-0.8-9.7-2.5
	c-2.7-1.6-4.8-3.9-6.3-6.9c-0.8-1.7-1.4-3.4-1.7-5.3h49.2v-5.6c0-6.1-1.3-11.6-3.9-16.7C210.4,256.5,206.6,252.4,201.7,249.3z
	 M169.7,269.9c0.4-0.9,0.9-1.8,1.5-2.7c1.3-1.8,3-3.3,5.1-4.3c2.1-1.1,4.5-1.6,7.3-1.6c2.7,0,5,0.5,7.1,1.5c2,1,3.7,2.5,5,4.3
	c0.6,0.9,1.1,1.8,1.5,2.8H169.7z"/>
<path class="st0" d="M637,243v-16.9h-43.5c-5.8,0-10,1.4-12.5,4.3c-1.9,2.2-3.2,4.9-3.6,8.2c0,0.3-0.2,60.5-0.2,60.5
	c0,4.9,1.3,8.8,3.9,11.6c2.6,2.9,6.8,4.3,12.5,4.3H637v-16.9h-41v-20.6h25.2v-14H596V243H637z"/>
<path class="st0" d="M556,249.3c-4.9-3.1-10.9-4.6-17.9-4.6c-6.8,0-12.8,1.6-17.9,4.7c-5.2,3.2-9.2,7.4-12.1,12.7
	c-2.9,5.3-4.3,11.1-4.3,17.5c0,7,1.6,13.2,4.7,18.5c3.1,5.3,7.4,9.5,12.9,12.4c5.5,3,11.7,4.5,18.5,4.5c7,0,13.2-1.6,18.5-4.9
	c5.3-3.3,9.4-7.9,12.2-13.8L556,289c-1.5,3-3.7,5.4-6.6,7.1c-2.9,1.7-6.1,2.5-9.7,2.5c-3.7,0-7-0.8-9.7-2.5
	c-2.7-1.6-4.8-3.9-6.3-6.9c-0.8-1.7-1.4-3.4-1.7-5.3h49.2v-5.6c0-6.1-1.3-11.6-3.9-16.7C564.6,256.5,560.9,252.4,556,249.3z
	 M524,269.9c0.4-0.9,0.9-1.8,1.5-2.7c1.3-1.8,3-3.3,5.1-4.3c2.1-1.1,4.5-1.6,7.3-1.6c2.7,0,5,0.5,7.1,1.5c2,1,3.7,2.5,5,4.3
	c0.6,0.9,1.1,1.8,1.5,2.8H524z"/>
<path class="st0" d="M227.4,80.4c5.3-26.2,22.6-49.8,46.2-62.7c23.4-13.3,52.6-15.4,77.8-6c25.3,9.2,46,29.9,55.3,55.2
	c9.7,25.2,7.4,54.4-5.6,78c-12.9,23.7-36.4,41.2-62.8,46.7c-13.2,2.9-26.9,2.8-40-0.2c-13.2-2.9-25.5-9.4-35.5-18.5
	c-10.1-9-17.7-20.5-22.8-33c-5-12.5-7.4-26-7.1-39.4c0.4-26.9,11.4-53.6,30.7-72.5c9.7-9.3,21.3-16.8,34.2-20.9
	c12.8-4.3,26.7-5.2,39.9-2.6c13.3,2.6,25.7,8.8,36.1,17.2c10.4,8.6,18.8,19.4,24.7,31.4c11.7,24.1,13.7,53.2,3.1,78.1
	c-5.4,12.3-14,23.1-24.6,31.4c-10.5,8.3-22.9,14.2-35.8,17.4c-13,3.2-26.6,3.6-39.8,1.3c-13.2-2.3-25.9-7.3-36.8-15.2
	c-10.9-7.8-19.7-18.4-25.6-30.3c-5.9-12-8.9-25.4-8.7-38.7c0.1-6.7,1-13.3,2.6-19.8c1.7-6.5,4.5-12.6,8.2-18.2
	c7.4-11.2,18-19.9,29.6-26.2c11.7-6.4,24.5-10.4,37.6-12.4c13.1-1.9,26.6-1.7,39.6,1c-13-2.6-26.4-2.7-39.5-0.7
	c-13.1,2.1-25.8,6.2-37.4,12.6c-11.5,6.4-22,15.1-29.1,26.2c-7.5,11-10.2,24.4-10.3,37.5c-0.1,13.2,2.9,26.3,8.7,38.1
	c5.8,11.8,14.5,22.1,25.3,29.7c10.7,7.7,23.2,12.6,36.1,14.8c12.9,2.2,26.3,1.8,39.1-1.5c12.7-3.2,24.8-9,35-17.2
	c10.3-8.1,18.7-18.7,23.8-30.7c5.2-12,7-25.3,6.4-38.4c-0.6-13.1-4-26-9.8-37.7c-5.8-11.7-14.1-22.2-24.2-30.5
	c-10.1-8.2-22.2-14.1-35-16.5c-12.8-2.5-26.2-1.5-38.5,2.6c-12.4,4.1-23.6,11.3-33,20.4c-18.7,18.3-29.4,44.2-29.8,70.3
	c-0.2,13.1,2,26.2,6.9,38.3c4.9,12.1,12.3,23.2,22,31.9c9.6,8.8,21.5,15.1,34.2,17.9c12.7,2.9,26.1,3,38.8,0.2
	c25.6-5.3,48.5-22.3,61-45.3c12.6-22.9,14.9-51.3,5.5-75.8c-9-24.6-29.2-44.8-53.8-53.7c-24.5-9.2-53-7.4-75.9,5.5
	C251.4,32,234.3,55,229,80.7c-0.1,0.4-0.5,0.7-0.9,0.6C227.6,81.2,227.3,80.8,227.4,80.4z"/>
<path class="st0" d="M301.3,83.8c-1.9-0.9-4-1.4-6.4-1.4c-2.5,0-4.7,0.5-6.6,1.4c-1.9,1-3.4,2.3-4.6,3.9c-0.5,0.8-1,1.6-1.4,2.4
	h24.9c-0.3-0.9-0.8-1.7-1.4-2.5C304.6,86,303.1,84.7,301.3,83.8z"/>
<path class="st0" d="M320,15.2c-45.9,0-83.1,37.2-83.1,83.1c0,45.9,37.2,83.1,83.1,83.1c45.9,0,83.1-37.2,83.1-83.1
	C403.1,52.4,365.9,15.2,320,15.2z M364.9,71.5h-37.1v18.7h22.8v12.7h-22.8v18.6h37v15.2h-39.3c-5.2,0-9-1.3-11.3-3.9
	c-2.3-2.6-3.5-6.1-3.5-10.5c0,0,0-8.9,0.1-19.5h-30.4c0.3,1.7,0.8,3.3,1.5,4.8c1.3,2.7,3.2,4.7,5.7,6.2c2.5,1.5,5.4,2.2,8.8,2.2
	c3.2,0,6.1-0.8,8.8-2.3c0.1-0.1,0.2-0.1,0.3-0.2c0,2.7,0,5.6,0,8.6c0,2.6,0.4,5.1,1.1,7.3c-3.1,0.9-6.4,1.4-9.9,1.4
	c-6.2,0-11.8-1.4-16.7-4c-5-2.7-8.8-6.4-11.7-11.2c-2.8-4.8-4.2-10.4-4.2-16.7c0-5.7,1.3-11,3.9-15.8c2.6-4.8,6.3-8.6,10.9-11.5
	c4.7-2.9,10.1-4.3,16.2-4.3c6.3,0,11.6,1.4,16,4c0-2.4,0-3.8,0-3.9c0.4-3,1.5-5.4,3.3-7.4c2.3-2.6,6.1-3.9,11.3-3.9h39.3V71.5z"/>
</svg>
