<?xml version="1.0" encoding="utf-8"?>
<!-- Generator: Adobe Illustrator 24.2.0, SVG Export Plug-In . SVG Version: 6.00 Build 0)  -->
<svg version="1.1" id="Layer_1" xmlns="http://www.w3.org/2000/svg" xmlns:xlink="http://www.w3.org/1999/xlink" x="0px" y="0px"
	 viewBox="0 0 200 88" style="enable-background:new 0 0 200 88;" xml:space="preserve">
<style type="text/css">
	.st0{fill-rule:evenodd;clip-rule:evenodd;fill:#7793CB;}
	.st1{fill-rule:evenodd;clip-rule:evenodd;fill:#ED2836;}
	.st2{fill-rule:evenodd;clip-rule:evenodd;fill:#838CC5;}
	.st3{fill-rule:evenodd;clip-rule:evenodd;fill:#90D2CC;}
	.st4{fill-rule:evenodd;clip-rule:evenodd;fill:#AA3693;}
	.st5{fill-rule:evenodd;clip-rule:evenodd;fill:#EE3D59;}
	.st6{fill-rule:evenodd;clip-rule:evenodd;fill:#F2859C;}
	.st7{fill-rule:evenodd;clip-rule:evenodd;fill:#F6E566;}
	.st8{fill-rule:evenodd;clip-rule:evenodd;fill:#AC3693;}
	.st9{fill-rule:evenodd;clip-rule:evenodd;fill:#F5D322;}
	.st10{fill-rule:evenodd;clip-rule:evenodd;fill:#4E317D;}
	.st11{fill-rule:evenodd;clip-rule:evenodd;fill:#00B5A8;}
	.st12{fill-rule:evenodd;clip-rule:evenodd;fill:#EE3E28;}
	.st13{fill-rule:evenodd;clip-rule:evenodd;fill:#EC1C24;}
	.st14{fill-rule:evenodd;clip-rule:evenodd;fill:#62C9E2;}
	.st15{fill-rule:evenodd;clip-rule:evenodd;fill:#D1232A;}
	.st16{fill-rule:evenodd;clip-rule:evenodd;fill:#080200;}
	.st17{fill-rule:evenodd;clip-rule:evenodd;fill:#EFC795;}
	.st18{fill-rule:evenodd;clip-rule:evenodd;fill:#F7A068;}
	.st19{fill-rule:evenodd;clip-rule:evenodd;fill:#F79A61;}
	.st20{fill-rule:evenodd;clip-rule:evenodd;fill:#00B58F;}
	.st21{fill-rule:evenodd;clip-rule:evenodd;fill:#90D2CD;}
	.st22{fill-rule:evenodd;clip-rule:evenodd;fill:#FBD423;}
	.st23{fill-rule:evenodd;clip-rule:evenodd;fill:#0096CC;}
	.st24{fill-rule:evenodd;clip-rule:evenodd;fill:#66C4B0;}
	.st25{fill-rule:evenodd;clip-rule:evenodd;fill:#008DCE;}
	.st26{fill-rule:evenodd;clip-rule:evenodd;fill:#FDE222;}
	.st27{fill-rule:evenodd;clip-rule:evenodd;fill:#F9D120;}
	.st28{fill-rule:evenodd;clip-rule:evenodd;fill:#00B7A7;}
	.st29{fill:#FFFFFF;}
</style>
<path class="st0" d="M38.5,20.3c-7,1-14.1,4.6-16.3,11.6c-1.9,5.9-2.3,15.9,0.1,21.4C25.7,65.1,35.5,68.1,47,64.1
	c6.2-1.1,13.5-10.4,14.9-16c1.5-6,1.3-12.8-2.2-17.9C55.4,23.7,46.6,19.1,38.5,20.3L38.5,20.3z M45.7,72.8c9.2-1.4,18.6-6,21.6-15.3
	c2.5-7.7,3.1-20.9-0.1-28.2c-6-13.6-19.7-16.4-32.6-14.2c-8.2,1.4-17.8,13.7-19.7,21.1c-2,8-1.5,16.9,3.1,23.6
	C23.8,68.3,35.1,74.4,45.7,72.8L45.7,72.8z M45.4,76.9c11.2-1.6,23.5-9.4,27.1-20.5c2.9-9,1.5-20.7-2.3-29.2
	C63.2,11.1,45.9,9.1,30.5,11.7c-10.6,1.8-17.7,15.1-20.2,24.8c-2.4,9.4-0.4,17.6,5,25.6C22.2,72.4,32.7,78.8,45.4,76.9L45.4,76.9z
	 M37.9,8.4c-11.8,1.7-25.2,6.4-29.1,18.2c-3.2,9.9-4,26.9,0.2,36.3c7.8,17.5,26.3,18.4,42.9,15.6c10.5-1.8,21-14.8,23.4-24.4
	c2.6-10.2,2.8-21.7-3.1-30.4C64.7,12.7,51.6,6.4,37.9,8.4L37.9,8.4z M36.9,1.7C22.5,3.8,6.7,13.7,2,28.1
	c-3.7,11.5-1.9,26.6,2.9,37.5c9.2,20.7,31.4,23.2,51.2,19.8c13.7-2.3,22.8-19.4,26-31.8c3.1-12.1,0.5-22.7-6.5-33
	C66.7,7.5,53.2-0.7,36.9,1.7L36.9,1.7z M38.8,17.2c9.6-1.4,18,3.4,23.2,11.2c4.1,6.1,5.3,12.3,3.5,19.4c-1.9,7.3-7.2,17.4-15.3,18.8
	C38.4,72,25.3,69.4,19.9,54.9c-2.9-6.5-3.9-15.3-1.7-22.1C21,24.3,30.3,18.5,38.8,17.2L38.8,17.2z"/>
<path class="st1" d="M65.3,70.6l5.6,5.6c5.5-6.6,9.4-15.3,11.2-22.5c0.4-1.7,0.7-3.3,1-4.9h-6.7c-0.3,1.8-0.7,3.6-1.1,5.3
	C73.9,59.4,70.1,65.7,65.3,70.6L65.3,70.6z"/>
<path class="st2" d="M61.1,66.5l2.5,2.4c4.1-3.4,7.4-7.6,9-12.5c0.8-2.4,1.2-5,1.4-7.6h-4.9c-0.3,3.2-1,6.3-1.8,8.8
	C66.1,61.2,63.9,64.2,61.1,66.5L61.1,66.5z"/>
<path class="st1" d="M65.2,48.8c-1.3,4.7-4,10.3-7.9,13.9l-2.9-2.9c3.4-3.2,6.3-7.7,7.4-11H65.2L65.2,48.8z"/>
<path class="st3" d="M49,78.9l2.8,7.2c1.4-0.2,2.9-0.4,4.3-0.6c6.4-1.1,11.7-5.4,16-10.9l-6-4.9c-4.2,4.5-9.2,8-14.4,8.8
	C50.9,78.6,50,78.8,49,78.9L49,78.9z"/>
<path class="st4" d="M46.6,72.7l1.5,3.8c5.8-1.3,11.7-4.2,16.4-8.2l-2.7-2.2C57.6,69.6,52.1,71.7,46.6,72.7L46.6,72.7z"/>
<path class="st5" d="M57.5,62.5c-2.1,2.1-4.6,3.6-7.4,4.1c-1.7,0.8-3.4,1.4-5.2,1.8l-1.3-3.4c1.1-0.3,2.3-0.6,3.4-1
	c2.4-0.4,5-2.1,7.3-4.3L57.5,62.5L57.5,62.5z"/>
<path class="st0" d="M38.4,79.7l0.8,6.9c5.6,0.3,11.3-0.2,16.8-1.1l-3.4-7.2c-0.2,0.1-0.5,0.1-0.7,0.1
	C47.4,79.2,42.8,79.7,38.4,79.7L38.4,79.7z"/>
<path class="st6" d="M37.6,72.6l0.5,4.5c2.4,0.3,4.8,0.2,7.4-0.2c1.9-0.3,3.9-0.7,5.8-1.4L49.6,72c-1.3,0.3-2.5,0.6-3.8,0.8
	C43,73.2,40.3,73.1,37.6,72.6L37.6,72.6z"/>
<path class="st0" d="M47.5,67.7c-3.4,1.2-7,1.7-10.3,1.4l-0.4-3.4c2.8,0.2,5.9-0.3,9.2-1.3L47.5,67.7L47.5,67.7z"/>
<path class="st7" d="M21.3,76.1l-2.6,5c7.2,4.2,15.9,5.7,24.7,5.5l-1.5-7.1C34.5,80,27.3,79.2,21.3,76.1L21.3,76.1z"/>
<path class="st5" d="M25.8,67.6l-2,3.7c5,3.8,10.9,6,17.6,5.9L40.5,73C35.2,72.6,30.1,70.6,25.8,67.6L25.8,67.6z"/>
<path class="st8" d="M39.7,69.2c-4.6,0.1-9-1.1-12.6-4l1.3-2.4c2.9,2.2,6.6,3.2,10.6,3L39.7,69.2L39.7,69.2z"/>
<path class="st9" d="M9.8,64.6l-4.1,2.5c3.8,7.7,9.5,12.7,16.2,15.7l2.6-5.3C18.4,75.3,13.2,71.3,9.8,64.6L9.8,64.6z"/>
<path class="st5" d="M17.9,59.7l-3,1.8c0.1,0.2,0.3,0.4,0.4,0.6c3.1,4.6,6.9,8.4,11.3,11l1.9-3.9C24.2,66.9,20.6,63.6,17.9,59.7
	L17.9,59.7L17.9,59.7z"/>
<path class="st10" d="M29.6,66.9c-3.4-1.8-6.3-4.9-8.5-9.2l2.3-1.4c1.7,3.9,4.3,6.5,7.5,7.9L29.6,66.9L29.6,66.9z"/>
<path class="st0" d="M7.3,57.7l-4.6,2c0.6,2.1,1.4,4,2.2,5.9c0.8,1.7,1.6,3.3,2.5,4.8l4.1-2.8c-1-1.4-1.8-3-2.6-4.7
	C8.3,61.4,7.7,59.6,7.3,57.7L7.3,57.7z"/>
<path class="st11" d="M15.3,54.3l-3.5,1.5c0.9,2.1,2.1,4.2,3.5,6.3c0.4,0.7,0.9,1.3,1.4,1.9l3-2.1c-0.6-0.7-1.2-1.5-1.7-2.2
	C16.8,58.1,15.9,56.2,15.3,54.3L15.3,54.3z"/>
<path class="st12" d="M22.5,60.1c-1-1.5-1.8-3.2-2.5-5.2c-0.3-0.7-0.6-1.5-0.9-2.2l2.6-1.1c0.2,0.6,0.4,1.2,0.6,1.8
	c0.6,2,1.4,3.8,2.3,5.3L22.5,60.1L22.5,60.1z"/>
<path class="st5" d="M6.2,48.9l-5.6,1.2c0.6,4,1.5,7.8,2.7,11.4L7.9,60C6.9,56.7,6.3,52.9,6.2,48.9L6.2,48.9z"/>
<path class="st13" d="M13.8,47.2l-4.3,0.9c0.5,3.5,1.7,6.8,3.4,10.1l3.5-1.2C14.9,54,14.1,50.6,13.8,47.2L13.8,47.2z"/>
<path class="st14" d="M20.2,55.7c-0.1-0.3-0.2-0.5-0.3-0.8c-1.1-2.5-2-5.5-2.5-8.5l3.2-0.7c0.2,2.9,0.7,5.5,1.6,7.6
	c0.2,0.5,0.3,1,0.5,1.5L20.2,55.7L20.2,55.7z"/>
<path class="st15" d="M7.4,31.7l-5.6-3.1c-2.1,7-2.3,15.2-1,23l5.5,0.1C5.7,45.2,6.2,37.8,7.4,31.7L7.4,31.7z"/>
<path class="st16" d="M15,35.8l-3.9-2.1c-0.3,1-0.6,1.9-0.8,2.8C8.9,41.9,8.9,47,10.3,51.8l4.2,0c-1.2-5.1-1-10.6,0.3-15.7L15,35.8
	L15,35.8z"/>
<path class="st14" d="M18.8,51.9c-1.5-4.6-2.1-9.9-1.5-14.8l3.6,1.9c-0.4,4.5-0.2,9.3,1,12.9L18.8,51.9L18.8,51.9z"/>
<path class="st5" d="M18.9,14.5L16,10.2c-6,4.3-11,9.9-13.5,16.6l5.2,4c0.3-1.5,0.7-2.9,1.1-4.1C10.5,21.2,14.3,17.3,18.9,14.5
	L18.9,14.5z"/>
<path class="st17" d="M23.8,21.8l-3.1-4.6c-4.4,4.4-7.7,10.7-9.5,16.3l3.7,2.9l0.1-0.2C15.9,31.9,19.5,26.2,23.8,21.8L23.8,21.8z"/>
<path class="st8" d="M17.1,38.1c0.2-1.9,0.5-3.7,1.1-5.4c1.2-3.7,3.6-6.8,6.7-9.4l1.5,2.2c-1.9,1.7-3.3,3.8-4.1,6.3
	c-0.8,2.5-1.3,5.7-1.5,9L17.1,38.1L17.1,38.1z"/>
<path class="st0" d="M8.5,27.5l-5.1-2.9c-0.3,0.7-0.6,1.4-0.9,2.1l5.2,4C7.9,29.6,8.2,28.5,8.5,27.5L8.5,27.5z"/>
<path class="st3" d="M16.5,32l-3.9-2.2c-0.5,1.2-1,2.5-1.4,3.7l3.7,2.9l0.1-0.2C15.2,34.9,15.8,33.5,16.5,32L16.5,32z"/>
<path class="st2" d="M17.1,38.1c0.2-1.8,0.5-3.6,1-5.2l3.3,1.8c-0.4,1.9-0.7,4-0.8,6.1L17.1,38.1L17.1,38.1z"/>
<path class="st18" d="M31.1,9.7l-1-6.4c-5.9,1.8-11.8,4.9-16.7,8.9l2.9,4.1C20.5,13.1,25.8,11,31.1,9.7L31.1,9.7z"/>
<path class="st5" d="M32.1,15.8l-0.6-4.2l-1,0.2c-4.7,0.8-8.6,3.8-11.9,7.7l3.2,4.5C24.8,20.3,28.5,17.2,32.1,15.8L32.1,15.8z"/>
<path class="st19" d="M22.8,25.3c2.7-2.8,6.1-5,9.8-6.4l0.4,2.8c-3.4,1.2-6.4,3.2-8.6,6L22.8,25.3L22.8,25.3z"/>
<path class="st20" d="M45.6,8.1l1.2-6.6c-3.2-0.4-6.5-0.4-9.9,0.2c-3,0.4-6,1.2-9,2.3l1.7,6.1c2.8-0.8,5.6-1.3,8.3-1.7
	C40.5,8,43.1,7.9,45.6,8.1L45.6,8.1z"/>
<path class="st21" d="M44.4,14.4l0.7-3.5c-4.8-0.4-9.8,0-14.6,0.8c-0.1,0-0.3,0.1-0.4,0.1l1.2,4.3c1.1-0.5,2.2-0.9,3.3-1.1
	C37.8,14.5,41.1,14.2,44.4,14.4L44.4,14.4z"/>
<path class="st5" d="M38.8,17.2c1.8-0.3,3.5-0.3,5.1-0.2l-0.6,3.2c-1.6-0.2-3.2-0.2-4.8,0.1c-1.9,0.3-3.9,0.8-5.8,1.5L32,19.1
	C34.3,18.2,36.5,17.5,38.8,17.2L38.8,17.2z"/>
<path class="st22" d="M39.3,17.1c5.9-0.7,11.3,0.9,15.8,4.1l-1.9,2.7c-4.3-2.8-9.6-4.3-14.7-3.6L39.3,17.1L39.3,17.1z"/>
<path class="st23" d="M40,14.4l0.8-3.7c6.7-0.1,13.2,1.1,18.7,4.2l-2.1,3.1C52.3,15.1,46.2,14.1,40,14.4L40,14.4z"/>
<path class="st24" d="M41.4,8L43,1.3C50.9,1.4,58,4,64.1,8.5L60.9,13C55.1,9.6,48.4,7.7,41.4,8L41.4,8z"/>
<path class="st25" d="M57.7,11.3l3.7-4.6c5.5,3.4,10.3,8.2,14.2,14c0.6,0.9,1.2,1.8,1.7,2.7l-4.1,2.2c-0.3-0.6-0.7-1.2-1.1-1.8
	C68.5,18.3,63.5,14,57.7,11.3L57.7,11.3z"/>
<path class="st5" d="M53.7,16.3l2.4-3c6,2.4,11.1,6.8,14.3,13.8L67,28.9C64,22.4,59.2,18.4,53.7,16.3L53.7,16.3z"/>
<path class="st26" d="M51.5,19.1c4.2,2,7.8,5.2,10.5,9.3c0.5,0.8,1,1.6,1.5,2.4l-2.5,1.4c-0.3-0.7-0.7-1.3-1.1-2
	c-2.4-3.6-6.2-6.6-10.5-8.4L51.5,19.1L51.5,19.1z"/>
<path class="st27" d="M71.6,22.9l4-2.2c3.4,5.1,5.8,10.2,6.9,15.5l-5.8,1.4c-0.4-5-1.9-9.7-4.6-13.8C72,23.4,71.8,23.2,71.6,22.9
	L71.6,22.9z"/>
<path class="st28" d="M65.5,26.2l3.3-1.8c0.5,0.9,1,1.8,1.4,2.8c1.5,3.3,2.6,7.2,3.2,11.2l-4.2,1c-0.2-3.8-0.9-7.3-2.1-10
	C66.7,28.2,66.1,27.1,65.5,26.2L65.5,26.2z"/>
<path class="st12" d="M61.8,28.2l0.1,0.2c2.5,3.8,4,7.6,4.2,11.7l-3.4,0.8c0-3.8-1-7.5-3.1-10.7c-0.1-0.2-0.3-0.4-0.5-0.7L61.8,28.2
	L61.8,28.2z"/>
<path class="st0" d="M76.4,34.5l5.3-1.6c1.9,6.1,2.3,12.5,0.7,19.5L75.7,52C77,46.2,77.4,40.1,76.4,34.5L76.4,34.5z"/>
<path class="st21" d="M69,36.6l3.9-1.2c1.2,5.4,1.5,11.2,0.7,16.4l-5-0.3C69.5,46.9,69.6,41.4,69,36.6L69,36.6z"/>
<path class="st0" d="M65.9,37.6c0.6,3.2,0.5,6.6-0.5,10.3c-0.3,1.1-0.7,2.4-1.1,3.6l-3.6-0.2c0.5-1.1,1-2.2,1.2-3.1
	c0.8-3.1,1.1-6.4,0.8-9.6L65.9,37.6L65.9,37.6z"/>
<path class="st29" d="M98.3,23c1.5,0,2.7-0.5,3.5-1.5l-1.5-1.3c-0.5,0.6-1.1,1-1.9,1c-1.3,0-2.3-0.9-2.3-2.3c0-1.4,0.9-2.3,2.3-2.3
	c0.8,0,1.4,0.3,1.9,1l1.5-1.3c-0.8-1-2-1.5-3.5-1.5c-2.6,0-4.5,1.8-4.5,4.2C93.8,21.2,95.7,23,98.3,23L98.3,23z"/>
<path class="st29" d="M106.8,23c2.6,0,4.5-1.8,4.5-4.2s-1.9-4.2-4.5-4.2s-4.5,1.8-4.5,4.2S104.2,23,106.8,23L106.8,23z M106.8,21.1
	c-1.2,0-2.2-0.9-2.2-2.3c0-1.4,1-2.3,2.2-2.3s2.2,0.9,2.2,2.3C109,20.1,108,21.1,106.8,21.1L106.8,21.1z"/>
<polygon class="st29" points="112.5,22.8 118.7,22.8 118.7,21 114.8,21 114.8,14.6 112.5,14.6 112.5,22.8 "/>
<polygon class="st29" points="119.6,22.8 125.8,22.8 125.8,21 121.9,21 121.9,14.6 119.6,14.6 119.6,22.8 "/>
<path class="st29" d="M133,22.8h2.4l-3.6-8.2h-2.3l-3.6,8.2h2.4l0.6-1.6h3.5L133,22.8L133,22.8z M129.5,19.5l1-2.6l1,2.6H129.5
	L129.5,19.5z"/>
<path class="st29" d="M142.3,18.6c0.7-0.4,1.1-1,1.1-1.8c0-1.3-1-2.1-3.2-2.1H136v8.2h4.4c2.2,0,3.4-0.8,3.4-2.2
	C143.8,19.6,143.2,18.9,142.3,18.6L142.3,18.6z M139.9,16.3c0.8,0,1.2,0.3,1.2,0.8c0,0.5-0.4,0.8-1.2,0.8h-1.6v-1.6H139.9
	L139.9,16.3z M140.2,21.1h-1.9v-1.7h1.9c0.8,0,1.2,0.3,1.2,0.8C141.4,20.9,141,21.1,140.2,21.1L140.2,21.1z"/>
<path class="st29" d="M149.1,23c2.6,0,4.5-1.8,4.5-4.2s-1.9-4.2-4.5-4.2c-2.6,0-4.5,1.8-4.5,4.2S146.5,23,149.1,23L149.1,23z
	 M149.1,21.1c-1.2,0-2.2-0.9-2.2-2.3c0-1.4,1-2.3,2.2-2.3c1.2,0,2.2,0.9,2.2,2.3C151.3,20.1,150.3,21.1,149.1,21.1L149.1,21.1z"/>
<path class="st29" d="M159.9,22.8h2.5l-1.8-2.6c1-0.5,1.6-1.4,1.6-2.6c0-1.9-1.4-3-3.6-3h-3.7v8.2h2.3v-2.2h1.3L159.9,22.8
	L159.9,22.8z M159.9,17.7c0,0.7-0.5,1.2-1.4,1.2h-1.3v-2.4h1.3C159.4,16.5,159.9,16.9,159.9,17.7L159.9,17.7z"/>
<path class="st29" d="M169.6,22.8h2.4l-3.6-8.2h-2.3l-3.6,8.2h2.4l0.6-1.6h3.5L169.6,22.8L169.6,22.8z M166.2,19.5l1-2.6l1,2.6
	H166.2L166.2,19.5z"/>
<polygon class="st29" points="174,22.8 176.3,22.8 176.3,16.5 178.8,16.5 178.8,14.6 171.5,14.6 171.5,16.5 174,16.5 174,22.8 "/>
<polygon class="st29" points="179.6,22.8 181.9,22.8 181.9,14.6 179.6,14.6 179.6,22.8 "/>
<polygon class="st29" points="189.5,14.6 187.3,20 185.1,14.6 182.6,14.6 186.1,22.8 188.3,22.8 191.8,14.6 189.5,14.6 "/>
<polygon class="st29" points="194.6,21 194.6,19.5 198.2,19.5 198.2,17.8 194.6,17.8 194.6,16.4 198.7,16.4 198.7,14.6 192.3,14.6 
	192.3,22.8 198.9,22.8 198.9,21 194.6,21 "/>
<path class="st29" d="M101.3,41.9c2.5,0,4.6-0.9,5.9-2.6l-2.5-2.2c-0.9,1-1.9,1.6-3.2,1.6c-2.2,0-3.8-1.6-3.8-3.9
	c0-2.3,1.6-3.9,3.8-3.9c1.3,0,2.4,0.6,3.2,1.6l2.5-2.2c-1.3-1.7-3.4-2.6-5.9-2.6c-4.3,0-7.5,3-7.5,7.1C93.8,38.9,97,41.9,101.3,41.9
	L101.3,41.9z"/>
<polygon class="st29" points="108.9,41.6 112.8,41.6 112.8,27.9 108.9,27.9 108.9,41.6 "/>
<path class="st29" d="M124,41.6h4.1l-3-4.3c1.7-0.8,2.7-2.3,2.7-4.3c0-3.1-2.3-5.1-6.1-5.1h-6.3v13.7h3.9V38h2.1L124,41.6L124,41.6z
	 M124,33c0,1.3-0.8,2-2.4,2h-2.2v-4h2.2C123.2,31,124,31.7,124,33L124,33z"/>
<path class="st29" d="M136.8,41.9c2.5,0,4.6-0.9,5.9-2.6l-2.5-2.2c-0.9,1-1.9,1.6-3.2,1.6c-2.2,0-3.8-1.6-3.8-3.9
	c0-2.3,1.6-3.9,3.8-3.9c1.3,0,2.4,0.6,3.2,1.6l2.5-2.2c-1.3-1.7-3.4-2.6-5.9-2.6c-4.3,0-7.5,3-7.5,7.1
	C129.3,38.9,132.5,41.9,136.8,41.9L136.8,41.9z"/>
<path class="st29" d="M150.6,41.9c4,0,6.4-2.3,6.4-6.4v-7.6h-3.8v7.5c0,2.3-1,3.3-2.6,3.3c-1.6,0-2.6-0.9-2.6-3.3v-7.5h-3.9v7.6
	C144.2,39.6,146.5,41.9,150.6,41.9L150.6,41.9z"/>
<polygon class="st29" points="159.6,41.6 170,41.6 170,38.5 163.5,38.5 163.5,27.9 159.6,27.9 159.6,41.6 "/>
<path class="st29" d="M182,41.6h4l-6.1-13.7h-3.8l-6,13.7h3.9l1.1-2.7h5.8L182,41.6L182,41.6z M176.2,36.1l1.8-4.4l1.8,4.4H176.2
	L176.2,36.1z"/>
<path class="st29" d="M195.5,41.6h4.1l-3-4.3c1.7-0.8,2.7-2.3,2.7-4.3c0-3.1-2.3-5.1-6.1-5.1h-6.3v13.7h3.9V38h2.1L195.5,41.6
	L195.5,41.6z M195.5,33c0,1.3-0.8,2-2.4,2H191v-4h2.2C194.7,31,195.5,31.7,195.5,33L195.5,33z"/>
<polygon class="st29" points="97.6,56.8 97.6,54.3 103.6,54.3 103.6,51.4 97.6,51.4 97.6,49.2 104.4,49.2 104.4,46.2 93.8,46.2 
	93.8,59.7 104.7,59.7 104.7,56.8 97.6,56.8 "/>
<path class="st29" d="M113.6,60c2.5,0,4.5-0.9,5.8-2.6l-2.4-2.2c-0.9,1-1.9,1.6-3.2,1.6c-2.2,0-3.8-1.5-3.8-3.9s1.5-3.9,3.8-3.9
	c1.3,0,2.3,0.6,3.2,1.6l2.4-2.2c-1.3-1.6-3.3-2.6-5.8-2.6c-4.3,0-7.4,2.9-7.4,7C106.1,57.1,109.3,60,113.6,60L113.6,60z"/>
<path class="st29" d="M127.6,60c4.3,0,7.5-3,7.5-7c0-4.1-3.2-7-7.5-7c-4.3,0-7.5,3-7.5,7C120.1,57,123.3,60,127.6,60L127.6,60z
	 M127.6,56.8c-2.1,0-3.7-1.5-3.7-3.9c0-2.3,1.6-3.9,3.7-3.9c2.1,0,3.7,1.5,3.7,3.9C131.3,55.3,129.7,56.8,127.6,56.8L127.6,56.8z"/>
<polygon class="st29" points="146.3,46.2 146.3,53.4 140.3,46.2 137.2,46.2 137.2,59.7 140.9,59.7 140.9,52.5 146.9,59.7 150,59.7 
	150,46.2 146.3,46.2 "/>
<path class="st29" d="M159.6,60c4.3,0,7.5-3,7.5-7c0-4.1-3.2-7-7.5-7c-4.3,0-7.5,3-7.5,7C152,57,155.2,60,159.6,60L159.6,60z
	 M159.6,56.8c-2.1,0-3.7-1.5-3.7-3.9c0-2.3,1.6-3.9,3.7-3.9c2.1,0,3.7,1.5,3.7,3.9C163.2,55.3,161.6,56.8,159.6,56.8L159.6,56.8z"/>
<polygon class="st29" points="184.9,59.7 184.8,46.2 181.7,46.2 177,54 172.3,46.2 169.1,46.2 169.1,59.7 172.6,59.7 172.6,52.8 
	176.1,58.4 177.8,58.4 181.3,52.6 181.3,59.7 184.9,59.7 "/>
<polygon class="st29" points="200,46.2 196.3,46.2 193.1,51.6 189.9,46.2 185.8,46.2 191,54.8 191,59.7 194.8,59.7 194.8,54.9 
	200,46.2 "/>
<path class="st29" d="M197.8,74.9c-0.4,0-0.8,0-1.3,0c0-1,0-1.8,0-2.7c0-0.3-0.2-0.7-0.5-0.9c-0.5-0.3-1.1,0.1-1.1,0.8
	c0,0.9,0,1.8,0,2.8c-0.4,0-0.8,0-1.3,0c0-0.5,0-1.1,0-1.6c0-0.4,0-0.7,0-1.1c0-0.6-0.3-1-0.8-1c-0.5,0-0.8,0.3-0.8,1
	c0,0.9,0,1.8,0,2.7c-0.4,0-0.8,0-1.3,0c0-1.6,0-3.1,0-4.7c0.4,0,0.8,0,1.2,0c0,0.1,0.1,0.3,0.1,0.5c0.9-0.8,1.8-0.9,2.7,0
	c0.2-0.2,0.4-0.3,0.7-0.5c1-0.6,1.9-0.2,2.5,1.1C197.8,72.4,197.8,73.7,197.8,74.9L197.8,74.9z"/>
<path class="st29" d="M187.5,72.4c0-0.8-0.6-1.4-1.3-1.4c-0.7,0-1.2,0.6-1.2,1.3c0,0.8,0.6,1.4,1.3,1.4
	C186.9,73.8,187.5,73.2,187.5,72.4L187.5,72.4z M188.7,72.4c0,1.4-1.1,2.5-2.5,2.5c-1.4,0-2.5-1.1-2.5-2.5c0-1.4,1.1-2.5,2.5-2.5
	C187.6,69.9,188.7,71,188.7,72.4L188.7,72.4z"/>
<path class="st29" d="M182,70.8c-0.3,0.3-0.5,0.5-0.6,0.7c-0.5-0.1-0.9-0.3-1.4-0.3c-0.2,0-0.5,0.2-0.7,0.4c-0.5,0.5-0.5,1.4,0,1.9
	c0.5,0.6,1,0.6,2,0c0.2,0.2,0.4,0.5,0.6,0.7c-0.7,1.1-2.3,1.2-3.4,0.4c-1.1-0.9-1.2-2.7-0.2-3.7C179.4,69.7,181,69.7,182,70.8
	L182,70.8z"/>
<path class="st29" d="M175.8,73.5c0,0.4,0,0.9,0,1.3c-0.4,0-0.9,0-1.3,0c0-0.4,0-0.9,0-1.3C174.9,73.5,175.4,73.5,175.8,73.5
	L175.8,73.5z"/>
<path class="st29" d="M172.7,74.8c-1.9,0-3.8,0-5.7,0c0,0,0,0-0.1,0c0-3.3,0-6.5,0-9.8c1.9,0,3.8,0,5.8,0c0,0.8,0,1.5,0,2.3
	c-1,0-2,0-3.1,0c0,0.4,0,0.8,0,1.2c0,0.2,0.1,0.2,0.2,0.2c0.7,0,1.4,0,2.1,0c0.2,0,0.3,0,0.5,0c0,0.8,0,1.5,0,2.2c-1,0-1.9,0-2.9,0
	c0,0.5,0,1,0,1.6c1,0,2,0,3.1,0C172.7,73.2,172.7,74,172.7,74.8L172.7,74.8z"/>
<path class="st29" d="M161.2,70.3c0.5,0,1.1,0,1.6,0c0.1-0.6-0.2-1-0.7-1C161.6,69.3,161.2,69.7,161.2,70.3L161.2,70.3z M161.9,75
	c-0.3-0.1-0.7-0.1-1-0.2c-1.4-0.4-2.2-1.4-2.3-2.8c-0.1-0.8-0.1-1.6,0.2-2.4c0.5-1.3,1.6-2.2,3-2.2c0.5,0,1.1,0,1.6,0.1
	c1.2,0.3,1.8,1.2,2,2.4c0.1,0.7,0.1,1.4,0,2.1c-1.4,0-2.7,0-4.1,0c0,0.4,0.3,0.6,0.6,0.7c0.4,0.2,0.8,0.2,1.3,0.2
	c0.6,0,1.2-0.2,1.9-0.4c0.1,0.5,0.1,0.9,0.2,1.3c0,0.1,0,0.1,0,0.2c0.1,0.6,0.2,0.5-0.4,0.7c-0.5,0.1-1.1,0.2-1.7,0.3
	c-0.1,0-0.1,0-0.2,0C162.5,75,162.2,75,161.9,75L161.9,75z"/>
<path class="st29" d="M138.9,70c0.2,0.1,0.4,0.2,0.7,0.3c0-0.3,0.1-0.5-0.2-0.6C139.2,69.6,139,69.7,138.9,70L138.9,70z M133.1,70.4
	C133.1,70.4,133.1,70.4,133.1,70.4c1-1.5,1.8-3.1,2.3-4.8c0.2-0.6,0.3-1.2,0.2-1.8c-0.1-0.4-0.3-0.7-0.8-0.7
	c-0.6-0.1-1.1,0.1-1.6,0.3c-1.4,0.7-3.3,2.8-2.9,5.4c0.1,0.7,0.4,1.4,1.1,1.8c0.3,0.2,0.5,0.2,0.8-0.1c0.1-0.1,0.2-0.2,0.3-0.3
	c0.2-0.1,0.3-0.1,0.5,0C132.9,70.2,133,70.3,133.1,70.4L133.1,70.4z M146.4,70.3c0.2-0.1,0.3-0.3,0.5-0.4c0.4-0.3,0.8-0.3,1.2,0.1
	c0.2,0.2,0.4,0.4,0.6,0.7c0.1,0.1,0.1,0.2,0.2,0.3c0.2-0.2,0.4-0.3,0.5-0.5c0.5-0.5,1-0.5,1.6,0c0.4,0.4,0.9,0.8,1.3,1.2
	c0.9,0.8,2,1,3.2,0.6c1.1-0.3,2.2-0.8,3.1-1.5c0.1-0.1,0.2-0.2,0.2-0.3c0,0,0,1.2-0.1,1.2c-0.2,0.1-0.4,0.3-0.7,0.4
	c-0.9,0.6-2,0.9-3,1.1c-1.2,0.2-2.3-0.2-3.2-1c-0.4-0.3-0.7-0.7-1.1-1c-0.3-0.3-0.5-0.3-0.8,0c-0.1,0.2-0.3,0.3-0.4,0.4
	c-0.5,0.3-0.9,0.3-1.3-0.2c-0.2-0.3-0.4-0.6-0.5-0.9c-0.6,0.4-1,0.9-1.4,1.5c-0.2,0.3-0.4,0.5-0.6,0.8c-0.1,0.2-0.3,0.3-0.5,0.2
	c-0.2-0.1-0.2-0.3-0.2-0.5c0.1-0.2,0.1-0.4,0.2-0.6c-0.2,0.1-0.4,0.1-0.6,0.2c-0.7,0.3-1.4,0.5-2.1,0.6c-0.9,0.1-1.8,0-2.7-0.1
	c-0.3-0.1-0.6-0.1-0.9,0c-0.7,0.1-0.8,0-0.8-0.7c0,0,0-0.1,0-0.1c-0.2,0.1-0.3,0.1-0.5,0.1c-1.1,0.4-2.3,0.5-3.4,0.3
	c-0.6-0.1-1,0.2-1.4,0.6c-0.2,0.2-0.4,0.4-0.6,0.5c-0.4,0.3-0.9,0.1-0.9-0.4c0-0.1,0-0.2,0.1-0.3c0.2-0.6,0-1.1-0.4-1.5
	c-0.2-0.3-0.5-0.5-0.7-0.8c-0.5-0.8-0.6-1.7-0.5-2.6c0.2-1.4,0.8-2.6,1.7-3.6c1-1,2.2-1.7,3.7-1.6c0.8,0,1.4,0.6,1.5,1.3
	c0.1,0.8-0.1,1.6-0.3,2.4c-0.4,1.3-1.1,2.5-1.7,3.8c-0.1,0.3-0.3,0.5-0.4,0.8c-0.1,0.3,0,0.6,0.4,0.6c0.3,0,0.7,0.1,1,0
	c0.8-0.1,1.5-0.3,2.2-0.6c0.3-0.1,0.4-0.3,0.5-0.7c0.1-0.6,0.4-1,1-1.2c0.3-0.1,0.6-0.1,0.9,0.1c0.3,0.2,0.5,0.5,0.4,1
	c-0.1,0.4-0.2,0.8-0.3,1.2c-0.1,0.4,0,0.6,0.4,0.6c1.1,0.1,2.2,0.1,3.2-0.4c0.6-0.2,1.1-0.6,1.6-1c0.1-0.1,0.2-0.2,0.3-0.2
	c0.2-0.2,0.4-0.2,0.6,0C146.2,70.2,146.3,70.3,146.4,70.3L146.4,70.3z"/>
<path class="st29" d="M97.5,85.3c-0.3-0.1-0.3-0.3-0.3-0.5c0.1-1.6,0.2-3.1,0.3-4.7c0-0.9,0.1-1.7,0.1-2.6c0-0.1,0-0.2,0-0.3
	c0-0.5-0.3-0.7-0.7-0.5c-0.8,0.3-1.5,0.6-2.2,0.9c-0.1,0.1-0.3,0.1-0.4,0.1c-0.2,0.1-0.3,0-0.4-0.2c-0.1-0.2-0.1-0.3,0.1-0.4
	c0.3-0.2,0.7-0.5,1-0.7c0.1,0,0.2,0,0.3,0c0.3-0.1,0.6-0.1,0.9-0.2c0.4-0.1,0.7-0.4,1-0.6c0.4-0.3,0.6-0.8,0.7-1.3
	c0.1-1.3,0.2-2.7,0.3-4c0-0.4,0.1-0.8,0.1-1.2c0-0.2,0.2-0.3,0.4-0.3c0.2,0,0.3,0.2,0.3,0.4c0,0.9-0.1,1.7-0.1,2.6
	c0,0.8-0.1,1.5-0.1,2.3c0,0.7,0.2,0.9,0.9,0.7c1.5-0.5,2.9-1.1,4.4-1.6c2-0.7,4.1-1.3,6.2-1.9c0.1,0,0.3,0,0.5,0
	c0.1,0,0.3,0.1,0.4,0.1c0.1-0.2,0.2-0.3,0.3-0.5c0.3-0.4,0.6-0.4,0.9,0c0.2,0.3,0.4,0.6,0.6,0.8c0.1,0.1,0.2,0.2,0.3,0.3
	c0.5,0.4,1,0.5,1.6,0.2c0.4-0.2,0.8-0.5,1.1-0.8c0,0,0.1-0.1,0.1-0.2c0.3-1,0.7-2,1.5-2.7c0.3-0.3,0.6-0.5,1-0.5
	c0.5-0.1,0.8,0.2,0.8,0.7c0,0.6-0.2,1.1-0.5,1.6c-0.3,0.4-0.6,0.8-0.9,1.2c-0.2,0.2-0.4,0.3-0.6,0.1c-0.2-0.2-0.2-0.4,0-0.7
	c0.2-0.3,0.5-0.6,0.7-0.9c0.2-0.3,0.3-0.7,0.5-1c0,0-0.1-0.1-0.1-0.1c-0.2,0.2-0.5,0.5-0.7,0.7c-0.5,0.6-0.8,1.3-0.9,2.1
	c0,0.1,0,0.2,0,0.3c0,0.6,0.1,0.7,0.7,0.6c0.5-0.1,1-0.3,1.5-0.5c1.8-0.8,3.4-1.8,5-2.9c0.1-0.1,0.2-0.3,0.4-0.4
	c0.3-0.4,0.7-0.7,1.2-0.8c0.4-0.1,0.7,0.2,0.8,0.6c0,0.5-0.1,1-0.4,1.5c-0.3,0.4-0.6,0.9-0.9,1.3c-0.2,0.3-0.4,0.3-0.6,0.1
	c-0.2-0.2-0.1-0.5,0-0.7c0.3-0.5,0.6-0.9,0.9-1.4c0.1-0.1,0.1-0.3,0.1-0.5c-0.1,0.1-0.2,0.1-0.2,0.2c-0.9,0.8-1.4,1.8-1.5,3.1
	c0,0.3,0.1,0.5,0.4,0.4c0.5-0.1,1-0.2,1.5-0.4c1.1-0.5,2.1-1,3.1-1.6c0.3-0.1,0.5-0.1,0.6,0.1c0.2,0.2,0.1,0.5-0.1,0.7
	c-1.3,0.8-2.7,1.6-4.2,2c-0.3,0.1-0.7,0.1-1.1,0.1c-0.6,0-1-0.6-1-1.3c0-0.4,0.1-0.8,0.2-1.2c0-0.1,0-0.1,0.1-0.2
	c-0.7,0.4-1.5,0.9-2.2,1.3c-1,0.5-2,1.1-3.2,1.3c-0.3,0.1-0.6,0.1-0.9,0.1c-0.6-0.1-0.8-0.5-0.9-1.1c-0.1,0.1-0.2,0.1-0.2,0.2
	c-0.5,0.3-1,0.6-1.6,0.6c-0.5,0-1-0.2-1.4-0.5c-0.2-0.1-0.3-0.3-0.5-0.5c-0.3-0.2-0.4-0.2-0.6,0.1c-0.3,0.5-0.5,1-0.8,1.5
	c-0.1,0.2-0.2,0.4-0.4,0.6c-0.1,0.1-0.3,0.1-0.5,0.1c-0.1,0-0.1-0.2-0.1-0.4c0-0.5,0.1-1,0.1-1.4c0-0.2,0-0.3,0-0.5
	c-0.5,0.1-1,0.3-1.5,0.4c-2.1,0.7-4.2,1.4-6.4,2.2c-0.7,0.2-1.4,0.5-2.1,0.7c-1,0.3-1.6,1.1-1.7,2.1c-0.1,1.2-0.1,2.4-0.2,3.7
	c-0.1,1.2-0.2,2.5-0.2,3.7c0,0.2-0.1,0.4-0.3,0.5C97.6,85.3,97.6,85.3,97.5,85.3L97.5,85.3z"/>
<path class="st29" d="M92.6,70.8c0.1-0.1,0.2-0.3,0.3-0.4c0.4-0.9,1.2-1.4,2-1.9c1.7-1,3.6-1.8,5.6-2.3c1.3-0.3,2.7-0.4,4-0.3
	c0.7,0,1.4,0.3,2,0.6c0.3,0.2,0.6,0.5,0.8,0.8c0.1,0.2,0.1,0.4-0.1,0.5c-0.2,0.1-0.4,0.1-0.5-0.1c-0.7-1-1.7-1.1-2.8-1.2
	c-1.4-0.1-2.7,0.2-4,0.6c-1.8,0.5-3.4,1.1-5,2.2c-0.6,0.4-1.1,0.8-1.3,1.4c0,0,0,0.1-0.1,0.1c-0.3,0.5-0.5,0.5-0.9,0.1
	c0,0-0.1,0-0.1-0.1C92.6,70.9,92.6,70.8,92.6,70.8L92.6,70.8z"/>
</svg>
