<?xml version="1.0" encoding="utf-8"?>
<!-- Generator: Adobe Illustrator 24.2.0, SVG Export Plug-In . SVG Version: 6.00 Build 0)  -->
<svg version="1.1" id="Layer_1" xmlns="http://www.w3.org/2000/svg" xmlns:xlink="http://www.w3.org/1999/xlink" x="0px" y="0px"
	 viewBox="0 0 400 61" style="enable-background:new 0 0 400 61;" xml:space="preserve">
<style type="text/css">
	.st0{fill:#FFFFFF;}
</style>
<path class="st0" d="M207.5,18.5c-2,1.7-3.1,3.9-3.7,6.4c-0.5,2.1,0.6,2.8,2.4,2.1c2.2-0.7,4.3-1.7,6.4-2.7c1.2-0.5,2.2-1.3,3.4-1.8
	c0.4-0.2,1,0,1.5,0.1c-0.1,0.5-0.1,1.3-0.4,1.5c-3.8,1.8-7.5,3.7-11.5,5c-2.4,0.8-3.7-0.6-3.7-3.2c0-0.9,0.1-1.8,0.2-2.6
	c-4,1.9-7.9,3.8-11.9,5.5c-2.2,0.9-4.4,1-5.7-2.1c-3.5,2.9-6.8,2.4-9.6-1.4c-1.6,2.5-2.8,4.5-4.1,6.5c-0.2-0.1-0.4-0.2-0.7-0.3
	c0-1.7,0-3.4,0-5.5c-2.1,0.6-4,1-5.9,1.6c-6.1,2.1-12.2,4.2-18.3,6.3c-3,1-4.5,2.9-4.6,6c-0.3,5.3-0.6,10.6-1,15.8
	c-0.1,0.9-0.4,1.7-0.6,2.6c-0.3,0-0.6-0.1-0.9-0.1c-0.1-0.9-0.2-1.9-0.2-2.8c0.2-5.1,0.6-10.2,0.8-15.3c0.1-2.8-0.6-3.2-3.2-2.2
	c-1.9,0.7-3.8,1.5-5.7,2.2c-0.2-0.4-0.4-0.8-0.6-1.1c1.3-0.7,2.5-1.8,3.8-2.1c4.4-1,5.9-2.3,6.3-6.7c0.3-3.1,0.4-6.1,0.6-9.2
	c0.1-0.9,0.3-1.7,0.5-2.6c0.3,0,0.5,0,0.8,0c0.1,0.8,0.4,1.6,0.4,2.3c-0.1,3.2-0.4,6.3-0.5,9.5c-0.1,3.1,0.4,3.3,3.3,2.3
	c7.6-2.6,15.3-5.1,22.9-7.8c2-0.7,4.5,0.1,6.1-2.1c0,0,1.3,0.5,1.7,1c3.8,4.5,7.2,3.9,9.6-1.5c1-2.2,2.7-4.2,4.4-5.8
	c1.5-1.3,2.8-0.4,2.7,1.6c-0.1,2.4-2.1,5.5-4.8,6.1c0.5-0.8,0.9-1.7,1.4-2.5c0.5-0.9,1-1.9,1.2-3c-2.4,1.7-3.7,4.1-3.9,6.9
	c0,0.5,1,1.4,1.6,1.5c1,0.1,2.1-0.3,2.9-0.8c5-3,9.9-6.1,14.8-9c1-0.6,2.3-0.7,3.4-1c0.1,1.1,0.6,2.4,0.2,3.3
	c-0.6,1.6-1.7,3.1-2.8,4.5c-0.2,0.3-0.9,0.2-1.3,0.2c0-0.5-0.2-1,0-1.3c0.8-1.4,1.7-2.7,2.6-4C207.9,18.8,207.7,18.6,207.5,18.5z"/>
<path class="st0" d="M20.8,24c2.5-0.2,4.5-0.5,6.5-0.6c2.2,0,3.7-0.9,4.8-2.8c0.8-1.6,1.9-3,3-4.5c0.7-1,1.7-1.8,3-0.7
	c1.2,0.9,1.2,1.8,0.4,3.1c-0.8,1.3-1.5,2.7-2.2,4c2.8,1.4,4.2,0,5.3-2.4c0.6,0.3,1.3,0.5,1.5,0.9c0.9,1.8,2.5,2.3,4.4,2.5
	c1.9,0.2,2.8,1.3,1.9,3.2c-2-0.2-4.2-1-5.9-0.3c-1.2,0.4-1.5,2.8-2.4,4.6c2.7,0.6,6-0.3,6.9,3.8c-1.9-0.2-3.6-0.2-5.3-0.5
	c-2.5-0.4-4.2,0.2-5.1,2.8c-0.7,2-1.9,3.8-2.9,5.7c-2.4-0.6-2.5-1.9-1.9-3.7c0.5-1.5,1-3,1.5-4.6c-3.6-0.7-4-0.5-4.8,2.7
	c-0.3,1.1-0.3,2.2-0.6,3.3c-0.3,0.9-0.8,1.7-1.3,2.6c-1-0.9-2.5-1.6-2.9-2.7c-0.4-1.1,0.2-2.6,0.4-4c0.1-0.5,0.1-1,0.2-1.6
	c-1.1,0-2.1,0.2-2.9-0.1c-0.8-0.2-1.4-0.9-2.2-1.5c0.6-0.5,1-1.2,1.7-1.6c0.5-0.3,1.2-0.4,1.7-0.4c3,0,4.4-1.6,4.6-4.5
	C25.9,26,22.9,27.6,20.8,24z M32.7,30.5c3.5,0.6,4,0.2,5-4.1C34.6,25.6,33.9,26.2,32.7,30.5z"/>
<path class="st0" d="M269.1,22.5c1.3-1.3,3.1-2.1,5.2,0.1c4.7,5.1,8.4,5.1,15.3,1.6c0.6-0.3,1.2-0.6,1.8-1c0.2,0.1,0.4,0.3,0.6,0.4
	c-0.5,0.7-0.9,1.6-1.5,1.9c-7.5,4.1-12.1,3.6-16.8-1.3c-1.2-1.3-2.2-1.7-3.6-0.2c-1.4,1.5-2.7,1.1-3.8-0.6c-0.3-0.5-0.7-1-1.2-1.7
	c-1.9,2.1-3.8,4.1-5.6,6.1c-0.2-0.1-0.4-0.3-0.6-0.4c0-0.7,0.1-1.4,0.2-2.6c-6,2.8-11.9,2.8-18.4,0.3c-2.3,0.1-5.3,0.1-8.4,0.5
	c-1.2,0.2-2.4,1-3.6,1.6c-0.9,0.5-1.7,1-3,1.3c0.8-3.5-1.3-5.5-2.9-7.8c-1.5-2.1-1.5-4.6-0.8-7.1c1.5-5.6,4.7-9.6,10.7-11
	c3.8-0.9,6.4,1.3,5.4,5.1c-1.1,4.3-3.1,8.4-4.7,12.6c-0.4,1-0.6,2-0.9,3.1c1.1,0.2,2.3,0.7,3.4,0.6c2.9-0.3,6-0.4,7.1-4.1
	c0.4-1.6,2.3-2.1,3.6-1.3c0.7,0.4,1.2,2,1,3c-0.5,3.7-0.3,4.3,3.4,3.7c2.9-0.5,5.6-1.9,8.4-2.9c1.5-0.6,3.1-1.6,4.6-1.6
	C265.5,20.8,267,21.7,269.1,22.5z M223.3,16.4c0.3,1.2,0.3,2.4,0.9,3.4c0.6,1,1.7,2.4,2.6,2.5c1.4,0.1,3.5-0.3,4.2-1.3
	c2.9-4.1,5.1-8.5,5.6-13.6c0.2-2.6-0.9-3.5-3.6-3.1C228,5.1,223.5,10.9,223.3,16.4z"/>
<path class="st0" d="M312.6,9c4.4,0,8.9,0,13.4,0c0,1.7,0,3.3,0,5.2c-2.4,0-4.6,0-6.8,0c-0.8,3.4-0.7,3.6,2.5,3.6c1.3,0,2.5,0,3.9,0
	c0,1.8,0,3.3,0,5.1c-2.2,0-4.4,0-6.5,0c-0.7,3.9-0.6,4,2.8,4c1.3,0,2.7,0,4.2,0c0,1.9,0,3.4,0,5.1c-4.4,0-8.8,0-13.4,0
	C312.6,24.5,312.6,16.9,312.6,9z"/>
<path class="st0" d="M92.6,35.6c-1.6,0-2.8,0-4.2,0c0-5.3,0-10.5,0-16.3c1.7,0.5,3.2,0.8,5.3,1.4c3.2-2,4.9-2,8.1,0.9
	c0.7-0.5,1.3-1,2-1.5c3.7-2.1,7.9-0.3,8.3,3.9c0.3,3.8,0.1,7.6,0.1,11.6c-1.4,0-2.7,0-4.3,0c0-2.9,0-5.8,0-8.6
	c0-1.8-0.3-3.5-2.7-3.5c-2.4,0-2.7,1.7-2.7,3.5c0,2.8,0,5.6,0,8.6c-1.5,0-2.7,0-4.4,0c0-2.9,0.2-5.8-0.1-8.8
	c-0.1-1.1-0.9-2.7-1.9-3.2c-1.7-0.9-3.4,0.4-3.5,2.8C92.5,29.3,92.6,32.3,92.6,35.6z"/>
<path class="st0" d="M298.7,26.5c2.5,2.7,5.5,1.3,8.4,0.8c1.6,3.7,1.1,4.8-2.7,5.3c-1.7,0.2-3.4,0.2-5.1,0.1
	c-3.5-0.3-5.8-2.3-6.7-5.5c-1.2-4.2,0.2-8.8,3.1-10.9c2.5-1.8,7-2,9.6-0.4c2.5,1.5,4.4,6.3,3.3,8.8c-0.2,0.5-1.3,1-2,1
	c-2.5,0.1-5.1,0-7.6,0C298.8,25.9,298.7,26.2,298.7,26.5z M302.3,21.5c0.1-0.3,0.3-0.6,0.4-0.9c-0.7-0.5-1.5-1.4-2.1-1.3
	c-0.8,0.1-1.5,1-2.3,1.6c0.1,0.2,0.2,0.4,0.4,0.6C299.9,21.5,301.1,21.5,302.3,21.5z"/>
<path class="st0" d="M127.4,26.3c-0.7-3.2-1.9-3.5-7.8-2.5c-0.3-0.9-0.6-1.8-1-3c3.3-1.6,6.6-2.1,9.9-0.5c2.9,1.4,3.1,4.2,3.1,7
	c0,2.7,0,5.4,0,8.6c-1.7-0.2-3.2-0.5-4.6-0.7c-2.7,1-5.5,1.6-8.2-0.6c-1.8-1.5-2.1-3.6-1.1-5.6C119.7,24.8,123.7,26.2,127.4,26.3z
	 M125,28.1c-2.1,0.5-3.7,0.9-3.5,2.9c0.1,0.8,1.6,1.8,2.6,1.9c1.7,0.2,3.4-0.7,3.3-2.6C127.3,29.5,125.9,28.8,125,28.1z"/>
<path class="st0" d="M78.2,26.3c-0.6-3.2-1.9-3.6-7.7-2.4c-0.3-1-0.6-2-1.1-3.7c3-0.2,5.6-0.7,8.1-0.4c3,0.3,4.7,2.2,4.9,5.4
	c0.2,3.5,0.1,6.9,0.1,10.8c-1.7-0.3-3.2-0.5-5.5-0.9c-2.5,1.4-5.6,1.4-7.5-0.5c-1.6-1.7-1.9-3.8-0.9-5.7
	C70.7,24.9,74.5,26.1,78.2,26.3z M75.9,28.1c-1.9,0.5-3.6,0.7-3.7,2.7c-0.1,1.7,1.2,2.1,2.6,2.1c2,0.1,3.9-1.4,3.5-2.8
	C78,29.3,76.8,28.8,75.9,28.1z"/>
<path class="st0" d="M385.2,29.2c-3.6,0-7.1,0-10.6,0c0.7,3,3.2,4.4,5.8,2.8c2-1.2,2.9-0.3,3.9,1.1c-2.4,3.1-6.9,3.9-10.4,1.9
	c-3.4-2-4.9-6.5-3.3-10.6c1.5-3.8,5.2-5.8,9.1-4.9C383.5,20.5,385.7,24.1,385.2,29.2z M374.4,26.3c2.3,0,4.4,0,6.8,0
	c-0.6-2.1-1.5-3.6-3.7-3.4C375.6,23.1,374.6,24.4,374.4,26.3z"/>
<path class="st0" d="M347.9,36.1c-1.8-0.5-3.2-0.8-4.6-1.2c0-0.3,0.1-0.6,0.1-0.9c-0.5,0.3-0.9,0.7-1.4,1c-3.5,2.2-7.5,0.5-8.2-3.6
	c-0.1-0.8-0.1-1.7-0.1-2.6c0-3,0-5.9,0-8.8c4.3-0.9,4.4-0.8,4.4,3.1c0,1.8,0,3.6,0,5.4c0,1.8,0.5,3.3,2.7,3.4c2.2,0.1,3-1.4,3-3.3
	c0.1-2.8,0-5.6,0-8.7c1.4-0.1,2.7-0.1,4.1-0.2C347.9,25.1,347.9,30.3,347.9,36.1z"/>
<path class="st0" d="M365.1,21.4c-0.5,0.9-0.9,1.7-1.4,2.6c-1.3-0.4-2.4-1-3.5-1.1c-0.8-0.1-1.6,0.5-2.4,0.8
	c0.5,0.6,0.9,1.3,1.6,1.7c1.1,0.6,2.4,0.9,3.6,1.5c2,0.9,3,2.5,2.6,4.8c-0.3,2.2-1.7,3.5-3.8,4c-3.2,0.7-6.1,0.1-8.8-2.1
	c0.5-0.9,1-1.6,1.6-2.5c1.4,0.5,2.7,1.2,4.1,1.4c0.9,0.1,1.9-0.5,2.9-0.8c-0.7-0.6-1.2-1.5-2-1.9c-0.9-0.5-2.1-0.7-3.1-1.2
	c-1.8-0.8-2.8-2.2-2.7-4.2c0.1-2.1,1.1-3.5,3-4.4C359.1,18.9,362,19.4,365.1,21.4z"/>
<path class="st0" d="M62.2,35.6c-1.4,0-2.7,0-4.1,0c0-6.9,0-13.7,0-20.7c1.4,0,2.7,0,4.1,0C62.2,21.8,62.2,28.5,62.2,35.6z"/>
<path class="st0" d="M391,19.8c1.8,0.2,4.2-1.5,4.1,2c1.5-0.9,3-1.8,4.9-3c0,2.1,0,3.5,0,4.9c-7.1,1.5-4.2,7.4-5.2,11.8
	c-1.1,0-2.3,0-3.8,0C391,30.4,391,25.3,391,19.8z"/>
<path class="st0" d="M167.5,15.9c-4.9-4.8-10.5-3.6-16-2.2c-3.5,0.9-7.1,2.1-10.3,3.8c-2.4,1.3-4.2,3.5-6.4,5.3
	c-0.4,0.4-1.1,0.5-1.6,0.7c0-0.5-0.2-1.2,0.1-1.5c1.4-1.6,2.7-3.4,4.5-4.5c6.3-4,13.3-6.4,20.8-6.4c2.4,0,4.9,0.7,7.2,1.4
	C166.9,12.8,168.4,13.7,167.5,15.9z"/>
</svg>
