<?xml version="1.0" encoding="utf-8"?>
<!-- Generator: Adobe Illustrator 24.2.0, SVG Export Plug-In . SVG Version: 6.00 Build 0)  -->
<svg version="1.1" id="Layer_1" xmlns="http://www.w3.org/2000/svg" xmlns:xlink="http://www.w3.org/1999/xlink" x="0px" y="0px"
	 viewBox="0 0 400 61" style="enable-background:new 0 0 400 61;" xml:space="preserve">
<style type="text/css">
	.st0{fill:#FFFFFF;}
</style>
<path class="st0" d="M0,32.7c1.2-0.5,2.5-1.4,3.7-1.4c3-0.1,4.5-1.6,4.8-4.6c-2.3-0.8-5.5,1-7.5-2.5c1.8-0.3,3.4-0.7,5-0.6
	c3.2,0.1,5.4-0.9,6.8-3.9c0.7-1.4,1.7-2.8,2.9-3.9c0.5-0.5,2-0.6,2.6-0.2c0.5,0.4,0.8,1.8,0.6,2.5c-0.6,1.6-1.5,3-2.4,4.5
	c2.8,1.3,4.3,0,5.3-2.3c0.3,0.1,0.7,0,0.8,0.2c1.6,1.9,3.5,3.1,6.1,3.5c1.6,0.2,1.7,1.7,0.9,3c-6.5-1-6.6-0.9-7.8,4.1
	c5.6,1,5.6,1,6.5,3.8c-1.9-0.2-3.6-0.3-5.3-0.6c-2.5-0.4-4.2,0.3-5.1,2.9c-0.7,2-1.9,3.8-3,5.7c-2.2-0.5-2.6-1.8-1.9-3.6
	c0.6-1.5,1.1-3,1.6-4.6c-3.4-1-3.9-0.8-4.8,2.4c-0.3,1.1-0.4,2.2-0.6,3.3c-0.2,1,0.5,2.6-1.5,2.5c-1.8,0-2.9-1.1-3-2.9
	c-0.1-0.8,0.2-1.7,0.3-2.5c0.1-0.8,0.3-1.7,0.4-2.2c-1.9-0.7-3.7-1.4-5.5-2.1C0,33.1,0,32.9,0,32.7z M18.1,26.3
	c-3.3-0.7-4.3,0.2-5.1,4.2C16.7,31,16.7,30.9,18.1,26.3z"/>
<path class="st0" d="M202.1,23.3c-4,1.9-7.8,3.8-11.8,5.5c-2.2,0.9-4.6,1.1-5.9-2c-3.5,2.7-6.7,2.3-9.5-1.4
	c-1.5,2.4-2.8,4.4-4.1,6.4c-0.2-0.1-0.4-0.2-0.6-0.3c0-1.7,0-3.4,0-5.5c-2.7,0.8-5.2,1.5-7.7,2.3c-5.4,1.8-10.7,3.7-16.1,5.5
	c-3.3,1.1-4.9,3.1-5,6.6c-0.2,5.2-0.6,10.4-0.9,15.6c-0.1,0.8-0.2,1.6-0.4,2.4c-0.3,0-0.6,0.1-1,0.1c-0.1-0.8-0.4-1.6-0.4-2.5
	c0.2-5.3,0.6-10.6,0.8-15.9c0.1-2.6-0.6-3-3.1-2.1c-2,0.7-3.9,1.5-6,2c0.5-2,1.8-2.8,3.5-3c4.2-0.7,5.8-2.4,6.2-6.5
	c0.3-3.1,0.4-6.3,0.6-9.5c0.1-0.8,0.3-1.7,0.5-2.5c0.3,0,0.6,0,0.9,0c0.1,0.8,0.3,1.6,0.3,2.5c-0.1,3.2-0.4,6.3-0.5,9.5
	c-0.1,2.9,0.4,3.2,3.2,2.2c7.7-2.6,15.5-5.2,23.1-7.9c1.9-0.7,4.4,0.2,5.7-2c0.8,0.5,1.7,0.9,2.3,1.6c2.6,3.2,5.2,3.4,7.9,0.5
	c0.5-0.6,0.7-1.5,1.2-2.2c1.3-2,2.6-4,4.1-5.8c0.4-0.5,1.9-0.8,2.5-0.4c0.5,0.4,0.7,1.6,0.6,2.4c-0.3,2.6-2.3,5.2-4.9,5.7
	c1.2-2.1,2.1-3.9,3.1-5.7c-2.7,1.5-3.8,3.9-4.3,6.7c-0.2,1.3,0.4,2,1.7,1.7s2.8-0.5,3.9-1.2c4.7-2.8,9.2-5.8,13.9-8.7
	c0.9-0.6,2.1-0.7,3.2-1.1c0.2,1.2,0.7,2.4,0.4,3.5c-0.4,1.4-1.4,2.7-2.3,3.9c-0.3,0.4-1.2,0.5-1.8,0.7c0.1-0.6,0.2-1.2,0.4-1.8
	c0.7-1.2,1.5-2.4,2.5-4.1c-2.7,1.4-5.1,5.4-4.6,7.5c0.1,0.5,1.6,1.3,2.2,1.1c2.4-0.8,4.6-1.8,6.9-2.8c1.1-0.5,2.1-1.2,3.2-1.7
	c0.4-0.2,1,0.1,1.5,0.2c-0.1,0.4-0.1,1.2-0.4,1.3c-4,1.8-8,3.7-12.2,5.2c-1.8,0.6-3-0.9-3.1-2.8C201.9,25.3,202.1,24.3,202.1,23.3z"
	/>
<path class="st0" d="M241.5,25.2c-3.2,0.2-6.2,0.2-9.1,0.5c-1.3,0.2-2.4,1-3.6,1.5c-0.9,0.5-1.7,1.1-3,1.4c0.6-3.5-1.4-5.6-3.1-8
	c-1.7-2.4-1.4-5.2-0.5-7.9c1.6-5,4.7-8.7,10.1-10c4.1-1,6.8,1.1,5.8,5.1c-1.1,4.3-3.1,8.4-4.7,12.6c-0.4,1-0.5,2-0.8,3
	c1.1,0.2,2.2,0.6,3.2,0.5c2.9-0.4,6-0.3,7.2-4c0.3-0.8,2.3-1.1,3.6-1.6c0.4,1.1,0.9,2.1,1,3.3c0.1,0.9-0.4,1.9-0.8,3.2
	c4.7,1,8.6,0.3,12.3-2.2c1.4-0.9,3.2-1.2,4.8-1.9c1.4-0.6,1.4-0.7,4.6,2.2c3.4-2.3,3.6-2.3,6.1,0c5,4.4,7.7,4.8,13.7,1.9
	c1.1-0.5,2.1-1.1,3.1-1.6c0.2,0.2,0.4,0.3,0.5,0.5c-0.6,0.7-1,1.6-1.7,2c-7.3,3.9-11.9,3.7-16.8-1.5c-1.1-1.2-2-1.6-3.4-0.2
	c-1.8,1.8-2.4,1.5-5.1-2.1c-1.9,2-3.7,4-6,6.5c0-1.6,0-2.3,0-2.9c-3.1,0.5-6.2,1.6-9.3,1.4C247,26.7,243.7,27.7,241.5,25.2z
	 M223.3,16.3c0.3,1.3,0.4,2.7,1.1,3.9c0.5,1,1.7,2.2,2.6,2.2c1.4,0,3.4-0.4,4.1-1.4c2.8-4,5-8.4,5.5-13.3c0.3-2.8-0.9-3.7-3.7-3.2
	C228,5.2,223.6,10.9,223.3,16.3z"/>
<path class="st0" d="M312.7,9c4.4,0,8.9,0,13.4,0c0,1.7,0,3.3,0,5.2c-2.4,0-4.6,0-6.8,0c-0.8,3.4-0.7,3.6,2.5,3.6c1.3,0,2.5,0,3.9,0
	c0,1.8,0,3.3,0,5.1c-2.2,0-4.4,0-6.5,0c-0.7,3.9-0.6,4,2.8,4c1.3,0,2.7,0,4.2,0c0,1.9,0,3.4,0,5.1c-4.4,0-8.8,0-13.4,0
	C312.7,24.5,312.7,16.9,312.7,9z"/>
<path class="st0" d="M298.8,26.6c2.5,2.7,5.5,1.2,8.4,0.7c1.4,4,0.9,4.9-3.1,5.3c-0.8,0.1-1.5,0.1-2.3,0.1c-8,0.1-12-6.2-8.5-13.4
	c1.8-3.8,6.2-5.6,10.5-4.2c3.4,1.1,5.8,5.3,4.9,9.1c-0.1,0.6-1.2,1.3-1.9,1.4c-2.6,0.2-5.2,0.1-7.9,0.1
	C298.8,25.9,298.8,26.2,298.8,26.6z M302.4,21.5c0.2-0.3,0.3-0.6,0.5-0.9c-0.7-0.5-1.5-1.4-2.2-1.3c-0.8,0.1-1.6,1-2.3,1.6
	c0.1,0.2,0.3,0.4,0.4,0.6C300,21.5,301.2,21.5,302.4,21.5z"/>
<path class="st0" d="M101.8,19.4c4.8,0.1,8.3,3.6,8.2,8.3c0,4.8-3.7,8.4-8.5,8.4s-8.6-3.8-8.5-8.5C93.2,22.9,96.9,19.3,101.8,19.4z
	 M101.5,23.1c-2.4,0-4.1,2-4.1,4.6c0.1,2.6,1.9,4.5,4.3,4.5s4.2-2,4.1-4.6C105.8,25.1,103.9,23.1,101.5,23.1z"/>
<path class="st0" d="M71.2,36.2c-2-0.6-3.5-1-5.5-1.5c-1.4,1.3-3.7,2-6.2,0.7c-2.4-1.2-2.7-3.5-2.7-5.9c0-3.1,0-6.3,0-9.4
	c4-1,4.4-0.8,4.4,3c0,1.9,0,3.8,0,5.6c0,1.8,0.6,3.3,2.7,3.3c2.2,0,2.9-1.5,2.9-3.4s0-3.8,0-5.6c0-3.6,0.2-3.8,4.2-2.9
	c0,0.6,0.1,1.3,0.1,2C71.2,26.4,71.2,30.9,71.2,36.2z"/>
<path class="st0" d="M115.3,20c4.2-0.9,4.3-0.8,4.3,3.1c0,2,0,4.1,0.1,6.1c0.1,1.7,1,2.7,2.8,2.7s2.7-1.1,2.7-2.8
	c0.1-2,0.1-4.1,0.1-6.1c0-3.8,0.1-3.8,4.2-3.2c0,5.2,0,10.4,0,16.2c-1.7-0.4-3.2-0.8-4.7-1.1c0-0.3,0.1-0.5,0.1-0.8
	c-0.5,0.4-1,0.8-1.6,1.1c-3.5,2-7.5,0.1-7.8-3.9C115,27.6,115.3,23.7,115.3,20z"/>
<path class="st0" d="M51.4,29.1c-3.6,0-7,0-10.4,0c0.4,3,3,4.4,5.7,2.9c2-1.1,2.9-0.4,3.9,1.1c-2.2,3-6.6,3.9-10.1,2
	c-3.6-1.9-5.1-6.5-3.5-10.7c1.4-3.8,5.2-5.8,9.2-4.8C49.8,20.4,51.9,24.1,51.4,29.1z M40.7,26.4c2.3,0,4.4,0,6.7,0
	c-0.3-2.1-1.2-3.4-3.2-3.4C42.1,22.9,41.1,24.1,40.7,26.4z"/>
<path class="st0" d="M385.3,29.2c-3.6,0-7.1,0-10.6,0c0.6,3,3.2,4.4,5.8,2.9c2-1.2,2.9-0.3,3.9,1.1c-2.4,3-6.9,3.8-10.4,1.8
	c-3.4-1.9-4.9-6.5-3.3-10.5c1.4-3.8,5.2-5.8,9.1-4.9C383.6,20.5,385.7,24,385.3,29.2z M381.2,26.4c-0.4-2.1-1.3-3.5-3.4-3.4
	s-3.1,1.3-3.2,3.4C376.8,26.4,378.9,26.4,381.2,26.4z"/>
<path class="st0" d="M333.8,19.9c1.6,0,2.8,0,4.4,0c0,3,0,5.8,0,8.6c0,1.9,0.5,3.5,2.8,3.5c2.2,0,2.8-1.6,2.9-3.5
	c0.1-1.8,0-3.6,0-5.4c0-3.7,0-3.7,4-3.2c0,5.1,0,10.3,0,15.6c-1.6,0-3.6,1.3-4.4-1.6c-0.5,0.4-0.9,0.7-1.3,1c-3.7,2.4-8,0.5-8.3-3.9
	C333.5,27.5,333.8,23.8,333.8,19.9z"/>
<path class="st0" d="M353,33.6c0.6-0.9,1.1-1.7,1.6-2.6c1.5,0.5,2.9,1.2,4.4,1.5c0.8,0.1,1.7-0.6,2.6-0.9c-0.6-0.6-1.1-1.4-1.8-1.8
	c-1-0.6-2.3-0.8-3.4-1.3c-1.8-0.8-2.8-2.2-2.7-4.2c0.1-2.1,1.1-3.6,3-4.3c3-1.2,5.7-0.4,8.5,1.3c-0.5,1-1,1.8-1.5,2.7
	c-1.5-0.4-2.8-0.9-4.1-1c-0.6-0.1-1.2,0.6-1.8,0.9c0.4,0.5,0.7,1.2,1.2,1.5c1.3,0.7,2.7,1.1,4,1.7c2,0.9,2.9,2.6,2.6,4.8
	s-1.7,3.5-3.8,4C358.7,36.4,355.8,35.8,353,33.6z"/>
<path class="st0" d="M76,33.6c0.6-0.9,1.2-1.8,1.6-2.5c1.7,0.6,3.2,1.2,4.8,1.5c0.7,0.1,1.4-0.6,2.2-0.9c-0.5-0.6-0.8-1.4-1.5-1.7
	c-1-0.5-2.1-0.7-3.1-1.1c-2.4-0.9-3.5-2.6-3.2-5.2c0.3-2.2,2.1-4.1,4.6-4.1c2.2,0,4.4,0.7,7.1,1.1c-0.8,1.5-1.3,2.4-1.8,3.4
	c-1.2-0.4-2.3-0.9-3.5-1c-0.8-0.1-1.7,0.4-2.5,0.7c0.6,0.6,1,1.5,1.7,1.9c1,0.6,2.2,0.8,3.3,1.3c2,0.9,3.1,2.4,2.8,4.7
	c-0.3,2.4-1.7,3.8-4.1,4.3C81.4,36.3,78.6,35.6,76,33.6z"/>
<path class="st0" d="M394.9,35.6c-1.3,0-2.5,0-3.8,0c0-5.2,0-10.4,0-15.7c1.2-0.1,2.4-0.1,3.7-0.2c0.2,0.8,0.4,1.5,0.6,2.1
	c1.4-0.9,2.8-1.8,4.7-3.1c0,2.2,0,3.6,0,5C392.9,25.3,395.9,31.2,394.9,35.6z"/>
<path class="st0" d="M167.4,15.8c-4.2-4.5-9.4-3.6-14.4-2.5c-4,0.9-7.9,2.2-11.6,4c-2.5,1.2-4.4,3.6-6.6,5.4
	c-0.4,0.4-1.1,0.5-1.6,0.7c0-0.5-0.2-1.3,0.1-1.6c1.5-1.6,2.9-3.4,4.7-4.6c6.2-3.9,13-6.2,20.4-6.2c2.4,0,4.9,0.6,7.2,1.3
	c1,0.3,1.8,1.7,2.6,2.6C168,15.2,167.7,15.5,167.4,15.8z"/>
</svg>
