<?xml version="1.0" encoding="utf-8"?>
<svg version="1.1" id="iconFreedomeE" xmlns="http://www.w3.org/2000/svg" xmlns:xlink="http://www.w3.org/1999/xlink" x="0px"
	 y="0px" viewBox="0 0 640 640" style="enable-background:new 0 0 640 640;" xml:space="preserve">
<style type="text/css">
	.st0{fill:#2d2d2d;opacity:.8;}
	.st1{fill:#ffffff;}
</style>
<circle class="st0" cx="320" cy="320" r="320"/>
<path id="E" class="st1" d="M493.2,381c0,18.8,0,38.4,0,57.2c-46.7,0-93.4,0-140,0c-0.8,0-0.8-0.8-1.5-0.8c0-79.8,0-160.4,0-240.2
	c47.4,0,94.1,0,141.6,0c0,18.8,0,37.6,0,55.7c-24.8,0-49.7,0-75.3,0c0,10.5,0,20.3,0,29.4c0,4.5,1.5,5.3,5.3,5.3c17.3,0,34.6,0,52,0
	c4.5,0,8.3,0,12.8,0c0,18.1,0,36.1,0,55c-23.3,0-46.7,0-70,0c0,13.6,0,25.6,0,38.4C443.5,381,468.3,381,493.2,381z"/>
<path id="e" class="st1" d="M229.6,442.7c-8.3-1.5-17.3-2.3-25.6-4.5c-33.9-9-53.5-33.1-57.2-68.5c-1.5-20.3-1.5-39.9,5.3-58.7
	c11.3-32.4,37.6-53.5,72.3-55c12.8-0.8,26.4,0,38.4,3c29.4,7.5,43.7,30.1,49.7,58c3.8,17.3,3,34.6,0,52c-33.9,0-67,0-100.9,0
	c0.8,9.8,6.8,15.1,13.6,18.1c9.8,4.5,20.3,4.5,30.9,4.5c15.8-0.8,30.9-4.5,45.9-10.5c1.5,11.3,3,21.8,3.8,32.4c0,1.5,0,2.3,0,3.8
	c1.5,15.8,3.8,12.8-10.5,16.6c-13.6,3.8-27.1,5.3-40.7,7.5c-1.5,0-3,0.8-4.5,0.8C244,442.7,237.2,442.7,229.6,442.7z M212.3,327.5
	c12.8,0,26.4,0,39.2,0c1.5-15.1-5.3-24.8-18.1-24.8C221.4,302.7,212.3,314,212.3,327.5z"/>
</svg>
