<?xml version="1.0" encoding="utf-8"?>
<!-- Generator: Adobe Illustrator 24.2.0, SVG Export Plug-In . SVG Version: 6.00 Build 0)  -->
<svg version="1.1" id="Layer_1" xmlns="http://www.w3.org/2000/svg" xmlns:xlink="http://www.w3.org/1999/xlink" x="0px" y="0px"
	 viewBox="0 0 200 88" style="enable-background:new 0 0 200 88;" xml:space="preserve">
<style type="text/css">
	.st0{fill-rule:evenodd;clip-rule:evenodd;fill:#7793CB;}
	.st1{fill-rule:evenodd;clip-rule:evenodd;fill:#ED2836;}
	.st2{fill-rule:evenodd;clip-rule:evenodd;fill:#838CC5;}
	.st3{fill-rule:evenodd;clip-rule:evenodd;fill:#90D2CC;}
	.st4{fill-rule:evenodd;clip-rule:evenodd;fill:#AA3693;}
	.st5{fill-rule:evenodd;clip-rule:evenodd;fill:#EE3D59;}
	.st6{fill-rule:evenodd;clip-rule:evenodd;fill:#F2859C;}
	.st7{fill-rule:evenodd;clip-rule:evenodd;fill:#F6E566;}
	.st8{fill-rule:evenodd;clip-rule:evenodd;fill:#AC3693;}
	.st9{fill-rule:evenodd;clip-rule:evenodd;fill:#F5D322;}
	.st10{fill-rule:evenodd;clip-rule:evenodd;fill:#4E317D;}
	.st11{fill-rule:evenodd;clip-rule:evenodd;fill:#00B5A8;}
	.st12{fill-rule:evenodd;clip-rule:evenodd;fill:#EE3E28;}
	.st13{fill-rule:evenodd;clip-rule:evenodd;fill:#EC1C24;}
	.st14{fill-rule:evenodd;clip-rule:evenodd;fill:#62C9E2;}
	.st15{fill-rule:evenodd;clip-rule:evenodd;fill:#D1232A;}
	.st16{fill-rule:evenodd;clip-rule:evenodd;fill:#080200;}
	.st17{fill-rule:evenodd;clip-rule:evenodd;fill:#EFC795;}
	.st18{fill-rule:evenodd;clip-rule:evenodd;fill:#F7A068;}
	.st19{fill-rule:evenodd;clip-rule:evenodd;fill:#F79A61;}
	.st20{fill-rule:evenodd;clip-rule:evenodd;fill:#00B58F;}
	.st21{fill-rule:evenodd;clip-rule:evenodd;fill:#90D2CD;}
	.st22{fill-rule:evenodd;clip-rule:evenodd;fill:#FBD423;}
	.st23{fill-rule:evenodd;clip-rule:evenodd;fill:#0096CC;}
	.st24{fill-rule:evenodd;clip-rule:evenodd;fill:#66C4B0;}
	.st25{fill-rule:evenodd;clip-rule:evenodd;fill:#008DCE;}
	.st26{fill-rule:evenodd;clip-rule:evenodd;fill:#FDE222;}
	.st27{fill-rule:evenodd;clip-rule:evenodd;fill:#F9D120;}
	.st28{fill-rule:evenodd;clip-rule:evenodd;fill:#00B7A7;}
	.st29{fill:#FFFFFF;}
</style>
<path class="st0" d="M38.4,20.4c-6.9,1-14,4.5-16.3,11.5c-1.9,5.8-2.3,15.8,0.1,21.4C25.7,65.1,35.5,68,46.9,64
	c6.2-1.1,13.4-10.3,14.9-15.9c1.5-6,1.3-12.8-2.2-17.9C55.2,23.7,46.5,19.2,38.4,20.4L38.4,20.4z M45.6,72.7
	c9.2-1.3,18.5-6,21.5-15.2c2.5-7.7,3.1-20.9-0.1-28.2c-6-13.6-19.7-16.4-32.5-14.2c-8.2,1.4-17.7,13.6-19.6,21
	c-2,7.9-1.5,16.9,3.1,23.6C23.7,68.3,35,74.3,45.6,72.7L45.6,72.7z M45.3,76.8c11.2-1.6,23.5-9.3,27.1-20.5c2.9-9,1.5-20.6-2.3-29.1
	c-7.1-16-24.4-18-39.7-15.4c-10.6,1.8-17.7,15.1-20.2,24.7c-2.4,9.4-0.4,17.6,5,25.6C22.2,72.3,32.6,78.7,45.3,76.8L45.3,76.8z
	 M37.8,8.5c-11.8,1.7-25.2,6.3-29,18.2c-3.2,9.9-4,26.8,0.2,36.2c7.7,17.5,26.2,18.3,42.7,15.5C62.2,76.6,72.6,63.6,75,54.1
	c2.6-10.2,2.8-21.7-3-30.3C64.6,12.8,51.5,6.5,37.8,8.5L37.8,8.5z M36.8,1.8C22.4,3.9,6.6,13.8,2,28.1c-3.7,11.5-1.9,26.5,2.9,37.4
	C14,86.2,36.2,88.7,56,85.4C69.6,83,78.7,66,81.9,53.6C85,41.5,82.3,31,75.4,20.7C66.5,7.6,53.1-0.6,36.8,1.8L36.8,1.8z M38.7,17.3
	c9.6-1.4,17.9,3.4,23.1,11.2c4.1,6,5.3,12.2,3.5,19.4C63.4,55.1,58,65.2,50,66.5c-11.7,5.3-24.7,2.8-30.1-11.7
	C17,48.4,16,39.6,18.2,32.8C20.9,24.3,30.2,18.5,38.7,17.3L38.7,17.3z"/>
<path class="st1" d="M65.1,70.5l5.6,5.5c5.5-6.5,9.3-15.3,11.2-22.4c0.4-1.6,0.7-3.3,0.9-4.9h-6.7c-0.3,1.8-0.7,3.6-1.1,5.3
	C73.7,59.3,69.9,65.6,65.1,70.5L65.1,70.5z"/>
<path class="st2" d="M61,66.4l2.5,2.4c4.1-3.3,7.4-7.6,9-12.5c0.8-2.4,1.2-4.9,1.4-7.6h-4.9c-0.3,3.2-1,6.3-1.8,8.7
	C65.9,61.2,63.7,64.1,61,66.4L61,66.4z"/>
<path class="st1" d="M65,48.8c-1.3,4.7-4,10.2-7.9,13.9l-2.9-2.9c3.4-3.2,6.3-7.7,7.3-11H65L65,48.8z"/>
<path class="st3" d="M48.9,78.8l2.8,7.2c1.4-0.2,2.9-0.4,4.3-0.6c6.4-1.1,11.7-5.4,16-10.9l-6-4.9c-4.1,4.5-9.2,8-14.3,8.8
	C50.8,78.5,49.8,78.7,48.9,78.8L48.9,78.8z"/>
<path class="st4" d="M46.5,72.6l1.5,3.7c5.8-1.3,11.7-4.2,16.3-8.2l-2.7-2.2C57.5,69.5,52,71.6,46.5,72.6L46.5,72.6z"/>
<path class="st5" d="M57.4,62.4c-2.1,2.1-4.6,3.6-7.4,4.1c-1.7,0.8-3.4,1.4-5.2,1.8L43.5,65c1.1-0.3,2.2-0.6,3.4-1
	c2.4-0.4,5-2.1,7.3-4.3L57.4,62.4L57.4,62.4z"/>
<path class="st0" d="M38.3,79.6l0.8,6.9c5.5,0.3,11.2-0.2,16.7-1.1l-3.4-7.2c-0.2,0.1-0.5,0.1-0.7,0.1
	C47.3,79.1,42.7,79.6,38.3,79.6L38.3,79.6z"/>
<path class="st6" d="M37.5,72.5L38,77c2.4,0.3,4.8,0.2,7.3-0.2c1.9-0.3,3.8-0.7,5.8-1.4L49.4,72c-1.3,0.3-2.5,0.6-3.8,0.8
	C42.9,73.1,40.2,73,37.5,72.5L37.5,72.5z"/>
<path class="st0" d="M47.4,67.6c-3.4,1.2-6.9,1.7-10.3,1.4l-0.4-3.4c2.8,0.2,5.9-0.3,9.1-1.3L47.4,67.6L47.4,67.6z"/>
<path class="st7" d="M21.2,76l-2.6,5c7.2,4.2,15.8,5.7,24.7,5.5l-1.5-7.1C34.5,79.9,27.3,79.1,21.2,76L21.2,76z"/>
<path class="st5" d="M25.7,67.5l-1.9,3.7c5,3.8,10.9,6,17.5,5.9l-0.9-4.2C35.1,72.5,30,70.5,25.7,67.5L25.7,67.5z"/>
<path class="st8" d="M39.6,69.1c-4.6,0.1-9-1.1-12.6-4l1.3-2.4c2.9,2.2,6.5,3.2,10.6,3L39.6,69.1L39.6,69.1z"/>
<path class="st9" d="M9.7,64.5L5.6,67c3.8,7.7,9.5,12.6,16.2,15.7l2.6-5.3C18.3,75.2,13.2,71.2,9.7,64.5L9.7,64.5z"/>
<path class="st5" d="M17.9,59.6l-3,1.8c0.1,0.2,0.3,0.4,0.4,0.6c3.1,4.6,6.9,8.3,11.2,11l1.9-3.9C24.2,66.8,20.5,63.5,17.9,59.6
	L17.9,59.6L17.9,59.6z"/>
<path class="st10" d="M29.5,66.8c-3.4-1.8-6.3-4.8-8.5-9.2l2.3-1.4c1.7,3.9,4.3,6.5,7.5,7.9L29.5,66.8L29.5,66.8z"/>
<path class="st0" d="M7.3,57.7l-4.6,2c0.6,2.1,1.4,4,2.2,5.9c0.8,1.7,1.6,3.3,2.5,4.7l4.1-2.8c-1-1.4-1.8-3-2.6-4.7
	C8.2,61.3,7.7,59.6,7.3,57.7L7.3,57.7z"/>
<path class="st11" d="M15.2,54.3l-3.5,1.5c0.9,2.1,2.1,4.2,3.5,6.3c0.4,0.7,0.9,1.3,1.4,1.9l3-2.1c-0.6-0.7-1.2-1.5-1.7-2.2
	C16.8,58,15.9,56.2,15.2,54.3L15.2,54.3z"/>
<path class="st12" d="M22.4,60c-1-1.5-1.8-3.2-2.5-5.2c-0.3-0.7-0.6-1.5-0.9-2.2l2.6-1.1c0.2,0.6,0.4,1.2,0.6,1.7
	c0.6,2,1.4,3.8,2.3,5.3L22.4,60L22.4,60z"/>
<path class="st5" d="M6.1,48.9l-5.6,1.2c0.6,4,1.5,7.8,2.7,11.4l4.5-1.6C6.9,56.7,6.3,52.9,6.1,48.9L6.1,48.9z"/>
<path class="st13" d="M13.8,47.2l-4.3,0.9c0.5,3.5,1.7,6.8,3.4,10l3.5-1.2C14.9,54,14.1,50.6,13.8,47.2L13.8,47.2z"/>
<path class="st14" d="M20.2,55.7c-0.1-0.3-0.2-0.5-0.3-0.8c-1.1-2.5-2-5.4-2.5-8.5l3.2-0.7c0.2,2.8,0.7,5.5,1.6,7.6
	c0.1,0.5,0.3,1,0.5,1.5L20.2,55.7L20.2,55.7z"/>
<path class="st15" d="M7.4,31.8l-5.6-3.1c-2.1,7-2.3,15.2-1,23l5.5,0.1C5.7,45.2,6.2,37.8,7.4,31.8L7.4,31.8z"/>
<path class="st16" d="M14.9,35.9L11,33.7c-0.3,1-0.6,1.9-0.8,2.8C8.8,42,8.9,47,10.3,51.8l4.2,0c-1.2-5.1-1-10.6,0.3-15.7L14.9,35.9
	L14.9,35.9z"/>
<path class="st14" d="M18.7,51.9c-1.5-4.6-2.1-9.9-1.5-14.8l3.5,1.9c-0.4,4.4-0.2,9.3,1,12.9L18.7,51.9L18.7,51.9z"/>
<path class="st5" d="M18.9,14.6L16,10.3C10,14.5,5,20.1,2.5,26.8l5.1,4c0.3-1.5,0.7-2.8,1.1-4.1C10.5,21.3,14.2,17.4,18.9,14.6
	L18.9,14.6z"/>
<path class="st17" d="M23.7,21.8l-3.1-4.6c-4.4,4.4-7.7,10.6-9.5,16.3l3.7,2.9l0.1-0.2C15.9,32,19.4,26.3,23.7,21.8L23.7,21.8z"/>
<path class="st8" d="M17.1,38.2c0.2-1.9,0.5-3.7,1.1-5.4c1.2-3.7,3.6-6.8,6.7-9.3l1.5,2.2c-1.9,1.7-3.3,3.7-4.1,6.3
	c-0.8,2.5-1.3,5.7-1.5,9L17.1,38.2L17.1,38.2z"/>
<path class="st0" d="M8.5,27.6l-5.1-2.8c-0.3,0.7-0.6,1.4-0.9,2.1l5.1,4C7.9,29.6,8.2,28.6,8.5,27.6L8.5,27.6z"/>
<path class="st3" d="M16.4,32l-3.9-2.2c-0.5,1.2-1,2.5-1.4,3.7l3.7,2.9l0.1-0.2C15.2,34.9,15.7,33.5,16.4,32L16.4,32z"/>
<path class="st2" d="M17.1,38.2c0.2-1.8,0.5-3.6,1-5.2l3.3,1.8c-0.4,1.9-0.7,4-0.8,6.1L17.1,38.2L17.1,38.2z"/>
<path class="st18" d="M31,9.8l-1-6.4c-5.9,1.8-11.8,4.8-16.6,8.8l2.9,4.1C20.5,13.2,25.7,11.1,31,9.8L31,9.8z"/>
<path class="st5" d="M32,15.8l-0.6-4.2l-0.9,0.2c-4.7,0.8-8.6,3.8-11.8,7.7l3.2,4.5C24.8,20.4,28.4,17.3,32,15.8L32,15.8z"/>
<path class="st19" d="M22.7,25.4c2.7-2.8,6.1-5,9.7-6.4l0.4,2.8c-3.4,1.2-6.4,3.2-8.5,5.9L22.7,25.4L22.7,25.4z"/>
<path class="st20" d="M45.5,8.2l1.2-6.5c-3.2-0.4-6.5-0.4-9.9,0.2c-3,0.4-6,1.2-9,2.3l1.7,6.1c2.8-0.8,5.6-1.3,8.3-1.7
	C40.4,8.1,42.9,8,45.5,8.2L45.5,8.2z"/>
<path class="st21" d="M44.3,14.5l0.7-3.5c-4.8-0.4-9.8,0-14.6,0.8c-0.1,0-0.3,0.1-0.4,0.1l1.2,4.3c1.1-0.5,2.2-0.9,3.3-1.1
	C37.7,14.6,41,14.3,44.3,14.5L44.3,14.5z"/>
<path class="st5" d="M38.7,17.3c1.8-0.3,3.5-0.3,5.1-0.2l-0.6,3.2c-1.6-0.2-3.2-0.2-4.7,0.1c-1.9,0.3-3.9,0.8-5.7,1.5L32,19.2
	C34.2,18.2,36.5,17.6,38.7,17.3L38.7,17.3z"/>
<path class="st22" d="M39.2,17.2c5.9-0.7,11.3,0.9,15.8,4.1L53.2,24c-4.3-2.8-9.6-4.3-14.7-3.6L39.2,17.2L39.2,17.2z"/>
<path class="st23" d="M39.9,14.5l0.8-3.6c6.7-0.1,13.2,1.1,18.7,4.2l-2.1,3.1C52.1,15.2,46,14.2,39.9,14.5L39.9,14.5z"/>
<path class="st24" d="M41.3,8.1l1.5-6.7c7.9,0.1,14.9,2.7,21,7.2l-3.2,4.5C55,9.7,48.3,7.8,41.3,8.1L41.3,8.1z"/>
<path class="st25" d="M57.5,11.4l3.7-4.6c5.5,3.4,10.3,8.2,14.2,14c0.6,0.9,1.2,1.8,1.7,2.7l-4,2.2c-0.3-0.6-0.7-1.2-1.1-1.8
	C68.3,18.4,63.3,14.1,57.5,11.4L57.5,11.4z"/>
<path class="st5" d="M53.5,16.4l2.4-3c6,2.4,11.1,6.7,14.2,13.8l-3.3,1.8C63.8,22.5,59.1,18.5,53.5,16.4L53.5,16.4z"/>
<path class="st26" d="M51.3,19.1c4.2,2,7.8,5.2,10.5,9.3c0.5,0.8,1,1.6,1.5,2.4l-2.5,1.4c-0.3-0.7-0.7-1.3-1.1-2
	c-2.4-3.6-6.2-6.6-10.5-8.4L51.3,19.1L51.3,19.1z"/>
<path class="st27" d="M71.4,22.9l4-2.2c3.4,5,5.8,10.1,6.9,15.5l-5.7,1.4c-0.4-4.9-1.9-9.7-4.6-13.8C71.8,23.5,71.6,23.2,71.4,22.9
	L71.4,22.9z"/>
<path class="st28" d="M65.4,26.2l3.3-1.8c0.5,0.9,1,1.8,1.4,2.8c1.5,3.3,2.6,7.2,3.2,11.1l-4.2,1c-0.2-3.8-0.9-7.3-2.1-10
	C66.5,28.2,66,27.2,65.4,26.2L65.4,26.2z"/>
<path class="st12" d="M61.7,28.2l0.1,0.2c2.5,3.8,4,7.6,4.2,11.6l-3.4,0.8c0-3.8-1-7.5-3.1-10.6c-0.1-0.2-0.3-0.4-0.5-0.7L61.7,28.2
	L61.7,28.2z"/>
<path class="st0" d="M76.2,34.5l5.3-1.6c1.9,6.1,2.3,12.5,0.7,19.4L75.5,52C76.8,46.2,77.2,40.1,76.2,34.5L76.2,34.5z"/>
<path class="st21" d="M68.9,36.7l3.9-1.2c1.2,5.4,1.5,11.1,0.7,16.4l-4.9-0.3C69.3,46.9,69.5,41.4,68.9,36.7L68.9,36.7z"/>
<path class="st0" d="M65.7,37.6c0.6,3.2,0.5,6.6-0.5,10.2c-0.3,1.1-0.7,2.4-1.1,3.6l-3.6-0.2c0.5-1.1,1-2.2,1.2-3.1
	c0.8-3.1,1.1-6.4,0.8-9.6L65.7,37.6L65.7,37.6z"/>
<polygon class="st29" points="97.4,23.8 97.4,21.5 102.9,21.5 102.9,18.9 97.4,18.9 97.4,16.8 103.7,16.8 103.7,14.1 94,14.1 
	94,26.5 103.9,26.5 103.9,23.8 97.4,23.8 "/>
<path class="st29" d="M112,26.7c2.3,0,4.1-0.8,5.3-2.3l-2.2-2c-0.8,0.9-1.7,1.4-2.9,1.4c-2,0-3.4-1.4-3.4-3.5c0-2.1,1.4-3.5,3.4-3.5
	c1.2,0,2.1,0.5,2.9,1.4l2.2-2c-1.2-1.5-3-2.3-5.3-2.3c-3.9,0-6.8,2.7-6.8,6.4C105.2,24.1,108.1,26.7,112,26.7L112,26.7z"/>
<path class="st29" d="M124.8,26.7c4,0,6.9-2.7,6.9-6.4c0-3.7-2.9-6.4-6.9-6.4c-4,0-6.9,2.7-6.9,6.4C118,24,120.9,26.7,124.8,26.7
	L124.8,26.7z M124.8,23.9c-1.9,0-3.3-1.4-3.3-3.5c0-2.1,1.5-3.5,3.3-3.5s3.3,1.4,3.3,3.5C128.2,22.5,126.7,23.9,124.8,23.9
	L124.8,23.9z"/>
<polygon class="st29" points="141.8,14.1 141.8,20.7 136.4,14.1 133.5,14.1 133.5,26.5 136.9,26.5 136.9,19.9 142.4,26.5 
	145.3,26.5 145.3,14.1 141.8,14.1 "/>
<path class="st29" d="M154,26.7c4,0,6.9-2.7,6.9-6.4c0-3.7-2.9-6.4-6.9-6.4c-4,0-6.9,2.7-6.9,6.4C147.1,24,150,26.7,154,26.7
	L154,26.7z M154,23.9c-1.9,0-3.3-1.4-3.3-3.5c0-2.1,1.5-3.5,3.3-3.5c1.9,0,3.3,1.4,3.3,3.5C157.3,22.5,155.8,23.9,154,23.9L154,23.9
	z"/>
<polygon class="st29" points="177,26.5 177,14.1 174.1,14.1 169.9,21.3 165.5,14.1 162.7,14.1 162.7,26.5 165.9,26.5 165.9,20.1 
	169.1,25.3 170.6,25.3 173.8,20 173.8,26.5 177,26.5 "/>
<polygon class="st29" points="179.5,26.5 183,26.5 183,14.1 179.5,14.1 179.5,26.5 "/>
<path class="st29" d="M194.7,26.5h3.6l-5.5-12.4h-3.4L184,26.5h3.6l1-2.4h5.2L194.7,26.5L194.7,26.5z M189.6,21.5l1.6-4l1.6,4H189.6
	L189.6,21.5z"/>
<path class="st29" d="M101.1,45.6c2.5,0,4.5-0.9,5.9-2.6l-2.5-2.2c-0.9,1-1.9,1.6-3.2,1.6c-2.2,0-3.8-1.6-3.8-3.9
	c0-2.3,1.6-3.9,3.8-3.9c1.3,0,2.4,0.6,3.2,1.6l2.5-2.2c-1.3-1.7-3.4-2.6-5.9-2.6c-4.3,0-7.5,2.9-7.5,7.1
	C93.6,42.7,96.7,45.6,101.1,45.6L101.1,45.6z"/>
<polygon class="st29" points="108.6,45.3 112.5,45.3 112.5,31.7 108.6,31.7 108.6,45.3 "/>
<path class="st29" d="M123.7,45.3h4.1l-2.9-4.3c1.7-0.8,2.7-2.3,2.7-4.3c0-3.1-2.3-5-6.1-5h-6.2v13.6h3.9v-3.6h2.1L123.7,45.3
	L123.7,45.3z M123.7,36.7c0,1.2-0.8,2-2.4,2h-2.1v-4h2.1C122.9,34.7,123.7,35.5,123.7,36.7L123.7,36.7z"/>
<path class="st29" d="M136.5,45.6c2.5,0,4.5-0.9,5.9-2.6l-2.5-2.2c-0.9,1-1.9,1.6-3.2,1.6c-2.2,0-3.8-1.6-3.8-3.9
	c0-2.3,1.6-3.9,3.8-3.9c1.3,0,2.4,0.6,3.2,1.6l2.5-2.2c-1.3-1.7-3.4-2.6-5.9-2.6c-4.3,0-7.5,2.9-7.5,7.1
	C129,42.7,132.2,45.6,136.5,45.6L136.5,45.6z"/>
<path class="st29" d="M150.2,45.6c4,0,6.4-2.3,6.4-6.4v-7.6h-3.8v7.4c0,2.3-1,3.3-2.6,3.3c-1.6,0-2.6-0.9-2.6-3.3v-7.4h-3.9v7.6
	C143.8,43.3,146.2,45.6,150.2,45.6L150.2,45.6z"/>
<polygon class="st29" points="159.2,45.3 169.6,45.3 169.6,42.3 163.1,42.3 163.1,31.7 159.2,31.7 159.2,45.3 "/>
<path class="st29" d="M181.5,45.3h4l-6-13.6h-3.8l-6,13.6h3.9l1.1-2.7h5.8L181.5,45.3L181.5,45.3z M175.8,39.8l1.8-4.4l1.8,4.4
	H175.8L175.8,39.8z"/>
<path class="st29" d="M195,45.3h4.1l-2.9-4.3c1.7-0.8,2.7-2.3,2.7-4.3c0-3.1-2.3-5-6.1-5h-6.2v13.6h3.9v-3.6h2.1L195,45.3L195,45.3z
	 M195,36.7c0,1.2-0.8,2-2.4,2h-2.1v-4h2.1C194.2,34.7,195,35.5,195,36.7L195,36.7z"/>
<path class="st29" d="M97.7,58.8c1.6,0,2.9-0.6,3.8-1.7l-1.6-1.4c-0.6,0.7-1.2,1-2.1,1c-1.4,0-2.4-1-2.4-2.5c0-1.5,1-2.5,2.4-2.5
	c0.8,0,1.5,0.4,2.1,1l1.6-1.4c-0.9-1.1-2.2-1.7-3.8-1.7c-2.8,0-4.8,1.9-4.8,4.6C92.9,56.9,94.9,58.8,97.7,58.8L97.7,58.8z"/>
<path class="st29" d="M106.8,58.8c2.8,0,4.9-1.9,4.9-4.6c0-2.6-2.1-4.6-4.9-4.6c-2.8,0-4.9,1.9-4.9,4.6
	C101.9,56.8,104,58.8,106.8,58.8L106.8,58.8z M106.8,56.7c-1.3,0-2.4-1-2.4-2.5c0-1.5,1-2.5,2.4-2.5c1.3,0,2.4,1,2.4,2.5
	C109.2,55.7,108.2,56.7,106.8,56.7L106.8,56.7z"/>
<polygon class="st29" points="113,58.6 119.7,58.6 119.7,56.6 115.5,56.6 115.5,49.8 113,49.8 113,58.6 "/>
<path class="st29" d="M127.3,58.6h2.6l-3.9-8.8h-2.4l-3.9,8.8h2.5l0.7-1.7h3.7L127.3,58.6L127.3,58.6z M123.7,55.1l1.1-2.8l1.1,2.8
	H123.7L123.7,55.1z"/>
<path class="st29" d="M137.4,54c0.8-0.4,1.2-1.1,1.2-1.9c0-1.4-1.1-2.3-3.4-2.3h-4.5v8.8h4.7c2.4,0,3.6-0.9,3.6-2.4
	C139,55.1,138.3,54.4,137.4,54L137.4,54z M134.8,51.6c0.8,0,1.3,0.3,1.3,0.8c0,0.6-0.4,0.9-1.3,0.9h-1.7v-1.7H134.8L134.8,51.6z
	 M135.1,56.8h-2.1V55h2.1c0.9,0,1.3,0.3,1.3,0.9C136.5,56.5,136,56.8,135.1,56.8L135.1,56.8z"/>
<path class="st29" d="M144.7,58.8c2.8,0,4.9-1.9,4.9-4.6c0-2.6-2.1-4.6-4.9-4.6c-2.8,0-4.9,1.9-4.9,4.6
	C139.8,56.8,141.9,58.8,144.7,58.8L144.7,58.8z M144.7,56.7c-1.3,0-2.4-1-2.4-2.5c0-1.5,1-2.5,2.4-2.5c1.3,0,2.4,1,2.4,2.5
	C147,55.7,146,56.7,144.7,56.7L144.7,56.7z"/>
<path class="st29" d="M156.3,58.6h2.7l-1.9-2.8c1.1-0.5,1.7-1.5,1.7-2.8c0-2-1.5-3.2-3.9-3.2h-4v8.8h2.5v-2.3h1.4L156.3,58.6
	L156.3,58.6z M156.3,53.1c0,0.8-0.5,1.3-1.5,1.3h-1.4v-2.6h1.4C155.7,51.8,156.3,52.3,156.3,53.1L156.3,53.1z"/>
<path class="st29" d="M166.7,58.6h2.6l-3.9-8.8H163l-3.9,8.8h2.5l0.7-1.7h3.7L166.7,58.6L166.7,58.6z M163,55.1l1.1-2.8l1.1,2.8H163
	L163,55.1z"/>
<polygon class="st29" points="171.4,58.6 173.9,58.6 173.9,51.8 176.6,51.8 176.6,49.8 168.7,49.8 168.7,51.8 171.4,51.8 
	171.4,58.6 "/>
<polygon class="st29" points="177.5,58.6 180,58.6 180,49.8 177.5,49.8 177.5,58.6 "/>
<polygon class="st29" points="188.2,49.8 185.7,55.5 183.4,49.8 180.7,49.8 184.4,58.6 186.9,58.6 190.6,49.8 188.2,49.8 "/>
<path class="st29" d="M197.4,58.6h2.6l-3.9-8.8h-2.4l-3.9,8.8h2.5l0.7-1.7h3.7L197.4,58.6L197.4,58.6z M193.7,55.1l1.1-2.8l1.1,2.8
	H193.7L193.7,55.1z"/>
<path class="st29" d="M197.3,74.8c-0.4,0-0.8,0-1.3,0c0-1,0-1.8,0-2.7c0-0.3-0.2-0.7-0.5-0.9c-0.5-0.3-1.1,0.1-1.1,0.8
	c0,0.9,0,1.8,0,2.8c-0.4,0-0.8,0-1.3,0c0-0.5,0-1,0-1.6c0-0.4,0-0.7,0-1.1c0-0.6-0.3-1-0.8-1c-0.5,0-0.8,0.3-0.8,1
	c0,0.9,0,1.8,0,2.7c-0.4,0-0.8,0-1.3,0c0-1.6,0-3.1,0-4.7c0.4,0,0.8,0,1.2,0c0,0.1,0.1,0.3,0.1,0.5c0.9-0.8,1.8-0.9,2.7,0
	c0.2-0.2,0.4-0.3,0.7-0.5c1-0.6,1.9-0.2,2.5,1.1C197.3,72.4,197.3,73.6,197.3,74.8L197.3,74.8z"/>
<path class="st29" d="M187,72.4c0-0.8-0.6-1.4-1.3-1.4c-0.7,0-1.2,0.6-1.2,1.3c0,0.8,0.6,1.4,1.3,1.4C186.5,73.7,187,73.2,187,72.4
	L187,72.4z M188.2,72.4c0,1.4-1.1,2.5-2.5,2.5c-1.4,0-2.5-1.1-2.5-2.5c0-1.4,1.1-2.5,2.5-2.5C187.1,69.9,188.2,70.9,188.2,72.4
	L188.2,72.4z"/>
<path class="st29" d="M181.5,70.7c-0.3,0.3-0.5,0.5-0.6,0.7c-0.5-0.1-0.9-0.3-1.4-0.3c-0.2,0-0.5,0.2-0.7,0.4
	c-0.5,0.5-0.5,1.4,0,1.9c0.5,0.6,1,0.5,2,0c0.2,0.2,0.4,0.5,0.6,0.7c-0.7,1.1-2.3,1.2-3.4,0.4c-1.1-0.9-1.2-2.7-0.2-3.7
	C178.9,69.6,180.6,69.6,181.5,70.7L181.5,70.7z"/>
<path class="st29" d="M175.4,73.4c0,0.4,0,0.9,0,1.3c-0.4,0-0.9,0-1.3,0c0-0.4,0-0.9,0-1.3C174.5,73.4,174.9,73.4,175.4,73.4
	L175.4,73.4z"/>
<path class="st29" d="M172.3,74.7c-1.9,0-3.8,0-5.7,0c0,0,0,0-0.1,0c0-3.2,0-6.5,0-9.8c1.9,0,3.8,0,5.7,0c0,0.8,0,1.5,0,2.3
	c-1,0-2,0-3.1,0c0,0.4,0,0.8,0,1.2c0,0.2,0.1,0.2,0.2,0.2c0.7,0,1.4,0,2.1,0c0.2,0,0.3,0,0.5,0c0,0.7,0,1.5,0,2.2c-1,0-1.9,0-2.8,0
	c0,0.5,0,1,0,1.6c1,0,2,0,3.1,0C172.3,73.2,172.3,73.9,172.3,74.7L172.3,74.7z"/>
<path class="st29" d="M160.8,70.2c0.5,0,1.1,0,1.6,0c0.1-0.6-0.2-1-0.7-1C161.2,69.2,160.8,69.6,160.8,70.2L160.8,70.2z M161.5,74.9
	c-0.3-0.1-0.7-0.1-1-0.2c-1.4-0.4-2.2-1.4-2.3-2.8c-0.1-0.8-0.1-1.6,0.2-2.4c0.5-1.3,1.5-2.2,2.9-2.2c0.5,0,1.1,0,1.6,0.1
	c1.2,0.3,1.8,1.2,2,2.4c0.1,0.7,0.1,1.4,0,2.1c-1.4,0-2.7,0-4.1,0c0,0.4,0.3,0.6,0.6,0.7c0.4,0.2,0.8,0.2,1.3,0.2
	c0.6,0,1.2-0.2,1.9-0.4c0.1,0.5,0.1,0.9,0.2,1.3c0,0.1,0,0.1,0,0.2c0.1,0.6,0.2,0.5-0.4,0.7c-0.5,0.1-1.1,0.2-1.7,0.3
	c-0.1,0-0.1,0-0.2,0C162.1,74.9,161.8,74.9,161.5,74.9L161.5,74.9z"/>
<path class="st29" d="M138.6,69.9c0.2,0.1,0.4,0.2,0.7,0.3c0-0.3,0.1-0.5-0.2-0.6C138.8,69.5,138.7,69.6,138.6,69.9L138.6,69.9z
	 M132.7,70.3C132.8,70.3,132.8,70.3,132.7,70.3c1-1.5,1.8-3.1,2.3-4.8c0.2-0.6,0.3-1.2,0.2-1.8c-0.1-0.4-0.3-0.7-0.8-0.7
	c-0.6-0.1-1.1,0.1-1.6,0.3c-1.4,0.7-3.3,2.8-2.9,5.3c0.1,0.7,0.4,1.4,1.1,1.8c0.3,0.2,0.5,0.2,0.7-0.1c0.1-0.1,0.2-0.2,0.3-0.3
	c0.2-0.1,0.3-0.1,0.5,0C132.6,70.2,132.7,70.2,132.7,70.3L132.7,70.3z M146,70.3c0.2-0.1,0.3-0.3,0.5-0.4c0.4-0.3,0.8-0.3,1.2,0.1
	c0.2,0.2,0.4,0.4,0.6,0.7c0.1,0.1,0.1,0.2,0.2,0.3c0.2-0.2,0.4-0.3,0.5-0.5c0.5-0.5,1-0.5,1.6,0c0.4,0.4,0.9,0.8,1.3,1.2
	c0.9,0.8,2,1,3.2,0.6c1.1-0.3,2.2-0.7,3-1.5c0.1-0.1,0.2-0.2,0.2-0.3c0,0,0,1.2-0.1,1.2c-0.2,0.1-0.4,0.3-0.7,0.4
	c-0.9,0.6-2,0.9-3,1.1c-1.2,0.2-2.3-0.2-3.2-1c-0.4-0.3-0.7-0.7-1.1-1c-0.3-0.3-0.5-0.3-0.8,0c-0.1,0.2-0.3,0.3-0.4,0.4
	c-0.5,0.3-0.9,0.3-1.3-0.2c-0.2-0.3-0.4-0.6-0.5-0.9c-0.6,0.4-1,0.9-1.4,1.5c-0.2,0.3-0.4,0.5-0.6,0.8c-0.1,0.2-0.3,0.3-0.5,0.2
	c-0.2-0.1-0.2-0.3-0.2-0.5c0.1-0.2,0.1-0.4,0.2-0.6c-0.2,0.1-0.4,0.1-0.6,0.2c-0.7,0.3-1.4,0.5-2.1,0.6c-0.9,0.1-1.8,0-2.7-0.1
	c-0.3-0.1-0.6-0.1-0.9,0c-0.7,0.1-0.8,0-0.8-0.7c0,0,0-0.1,0-0.1c-0.2,0.1-0.3,0.1-0.5,0.1c-1.1,0.4-2.2,0.5-3.4,0.3
	c-0.6-0.1-1,0.2-1.4,0.6c-0.2,0.2-0.4,0.4-0.6,0.5c-0.4,0.3-0.9,0.1-0.9-0.4c0-0.1,0-0.2,0.1-0.3c0.2-0.6,0-1.1-0.4-1.5
	c-0.2-0.3-0.5-0.5-0.7-0.8c-0.5-0.8-0.6-1.7-0.5-2.6c0.2-1.4,0.8-2.6,1.7-3.6c1-1,2.2-1.7,3.7-1.6c0.8,0,1.3,0.6,1.5,1.3
	c0.1,0.8-0.1,1.6-0.3,2.4c-0.4,1.3-1.1,2.5-1.7,3.7c-0.1,0.3-0.3,0.5-0.4,0.8c-0.1,0.3,0,0.6,0.4,0.6c0.3,0,0.7,0.1,1,0
	c0.8-0.1,1.5-0.3,2.2-0.6c0.3-0.1,0.4-0.3,0.5-0.7c0.1-0.6,0.4-1,1-1.2c0.3-0.1,0.6-0.1,0.9,0.1c0.3,0.2,0.5,0.5,0.4,1
	c-0.1,0.4-0.2,0.8-0.3,1.2c-0.1,0.4,0,0.6,0.4,0.6c1.1,0.1,2.2,0.1,3.2-0.3c0.6-0.2,1.1-0.6,1.6-1c0.1-0.1,0.2-0.2,0.3-0.2
	c0.2-0.2,0.4-0.2,0.6,0C145.8,70.2,145.9,70.2,146,70.3L146,70.3z"/>
<path class="st29" d="M97.2,85.2c-0.3-0.1-0.3-0.3-0.3-0.5c0.1-1.6,0.2-3.1,0.3-4.7c0-0.8,0.1-1.7,0.1-2.5c0-0.1,0-0.2,0-0.3
	c0-0.5-0.3-0.7-0.7-0.5c-0.7,0.3-1.5,0.6-2.2,0.9c-0.1,0.1-0.3,0.1-0.4,0.1c-0.2,0.1-0.3,0-0.4-0.2c-0.1-0.2-0.1-0.3,0.1-0.4
	c0.3-0.2,0.7-0.5,1-0.7c0.1,0,0.2,0,0.3,0c0.3-0.1,0.6-0.1,0.9-0.2c0.4-0.1,0.7-0.4,1-0.6c0.4-0.3,0.6-0.7,0.7-1.2
	c0.1-1.3,0.2-2.6,0.3-4c0-0.4,0.1-0.8,0.1-1.2c0-0.2,0.2-0.3,0.4-0.3c0.2,0,0.3,0.2,0.3,0.4c0,0.9-0.1,1.7-0.1,2.6
	c0,0.8-0.1,1.5-0.1,2.3c0,0.7,0.2,0.9,0.9,0.7c1.5-0.5,2.9-1.1,4.4-1.6c2-0.7,4.1-1.3,6.2-1.9c0.1,0,0.3,0,0.5,0
	c0.1,0,0.3,0.1,0.4,0.1c0.1-0.2,0.2-0.3,0.3-0.5c0.3-0.4,0.6-0.4,0.9,0c0.2,0.3,0.4,0.6,0.6,0.8c0.1,0.1,0.2,0.2,0.3,0.3
	c0.5,0.4,1,0.5,1.6,0.2c0.4-0.2,0.8-0.5,1.1-0.8c0,0,0.1-0.1,0.1-0.2c0.3-1,0.7-2,1.5-2.7c0.3-0.3,0.6-0.5,1-0.5
	c0.5-0.1,0.8,0.2,0.8,0.7c0,0.6-0.2,1.1-0.5,1.6c-0.3,0.4-0.6,0.8-0.9,1.2c-0.2,0.2-0.4,0.3-0.6,0.1c-0.2-0.1-0.2-0.4,0-0.7
	c0.2-0.3,0.5-0.6,0.7-0.9c0.2-0.3,0.3-0.7,0.5-1c0,0-0.1-0.1-0.1-0.1c-0.2,0.2-0.5,0.5-0.7,0.7c-0.5,0.6-0.8,1.3-0.9,2.1
	c0,0.1,0,0.2,0,0.3c0,0.6,0.1,0.7,0.7,0.6c0.5-0.1,1-0.3,1.5-0.5c1.8-0.8,3.4-1.8,5-2.9c0.1-0.1,0.2-0.3,0.4-0.4
	c0.3-0.4,0.7-0.7,1.2-0.8c0.4-0.1,0.7,0.2,0.8,0.6c0,0.5-0.1,1-0.4,1.5c-0.3,0.4-0.6,0.9-0.9,1.3c-0.2,0.3-0.4,0.3-0.6,0.1
	c-0.2-0.2-0.1-0.5,0-0.7c0.3-0.5,0.6-0.9,0.9-1.4c0.1-0.1,0.1-0.3,0.1-0.5c-0.1,0.1-0.2,0.1-0.2,0.2c-0.9,0.8-1.4,1.8-1.5,3.1
	c0,0.3,0.1,0.5,0.4,0.4c0.5-0.1,1-0.2,1.5-0.4c1.1-0.5,2.1-1,3.1-1.6c0.3-0.1,0.5-0.1,0.6,0.1c0.2,0.2,0.1,0.5-0.1,0.7
	c-1.3,0.8-2.7,1.6-4.2,2c-0.3,0.1-0.7,0.1-1.1,0.1c-0.6,0-1-0.6-1-1.3c0-0.4,0.1-0.8,0.2-1.2c0-0.1,0-0.1,0.1-0.2
	c-0.7,0.4-1.4,0.9-2.2,1.3c-1,0.5-2,1.1-3.1,1.3c-0.3,0.1-0.6,0.1-0.9,0.1c-0.5-0.1-0.8-0.5-0.9-1.1c-0.1,0.1-0.2,0.1-0.2,0.2
	c-0.5,0.3-1,0.6-1.6,0.6c-0.5,0-1-0.2-1.4-0.5c-0.2-0.1-0.3-0.3-0.5-0.5c-0.3-0.2-0.4-0.2-0.6,0.1c-0.3,0.5-0.5,1-0.8,1.5
	c-0.1,0.2-0.2,0.4-0.4,0.6c-0.1,0.1-0.3,0.1-0.5,0.1c-0.1,0-0.1-0.2-0.1-0.4c0-0.5,0.1-1,0.1-1.4c0-0.1,0-0.3,0-0.5
	c-0.5,0.1-1,0.3-1.5,0.4c-2.1,0.7-4.2,1.4-6.4,2.2c-0.7,0.2-1.4,0.5-2.1,0.7c-1,0.3-1.6,1.1-1.7,2.1c-0.1,1.2-0.1,2.4-0.2,3.7
	c-0.1,1.2-0.2,2.5-0.2,3.7c0,0.2-0.1,0.4-0.3,0.5C97.4,85.2,97.3,85.2,97.2,85.2L97.2,85.2z"/>
<path class="st29" d="M92.4,70.7c0.1-0.1,0.2-0.3,0.3-0.4c0.4-0.9,1.2-1.4,2-1.9c1.7-1,3.6-1.8,5.6-2.3c1.3-0.3,2.7-0.4,4-0.3
	c0.7,0,1.4,0.3,2,0.6c0.3,0.2,0.6,0.5,0.8,0.8c0.1,0.2,0.1,0.4-0.1,0.5c-0.2,0.1-0.4,0.1-0.5-0.1c-0.7-1-1.7-1.1-2.8-1.2
	c-1.4-0.1-2.7,0.2-4,0.5c-1.8,0.5-3.4,1.1-5,2.1c-0.6,0.4-1.1,0.8-1.3,1.4c0,0,0,0.1-0.1,0.1c-0.3,0.5-0.5,0.5-0.8,0.1
	c0,0-0.1,0-0.1-0.1C92.4,70.8,92.4,70.8,92.4,70.7L92.4,70.7z"/>
</svg>
