<?xml version="1.0" encoding="utf-8"?>
<!-- Generator: Adobe Illustrator 24.2.0, SVG Export Plug-In . SVG Version: 6.00 Build 0)  -->
<svg version="1.1" id="Layer_1" xmlns="http://www.w3.org/2000/svg" xmlns:xlink="http://www.w3.org/1999/xlink" x="0px" y="0px"
	 viewBox="0 0 400 61" style="enable-background:new 0 0 400 61;" xml:space="preserve">
<path d="M310.6,32.9c-4.7,0-9.4,0-14.1,0c0,0-0.1,0-0.2,0c0-8.1,0-16.1,0-24.3c4.7,0,9.5,0,14.3,0c0,1.9,0,3.8,0,5.6
	c-2.5,0-5,0-7.6,0c0,1.1,0,2,0,3c0,0.4,0.1,0.5,0.5,0.5c1.8,0,3.5,0,5.3,0c0.4,0,0.9,0,1.3,0c0,1.9,0,3.6,0,5.5c-2.4,0-4.7,0-7.1,0
	c0,1.3,0,2.6,0,3.9c2.6,0,5.1,0,7.6,0C310.6,29.1,310.6,31,310.6,32.9z"/>
<path d="M283.9,33.5c-0.9-0.2-1.7-0.3-2.6-0.5c-3.4-0.9-5.4-3.4-5.8-6.9c-0.2-2-0.1-4,0.5-5.9c1.1-3.3,3.8-5.4,7.3-5.5
	c1.3,0,2.7,0,3.9,0.3c3,0.8,4.4,3,5,5.9c0.4,1.7,0.3,3.5,0,5.3c-3.4,0-6.8,0-10.2,0c0.1,1,0.7,1.5,1.4,1.8c1,0.5,2.1,0.5,3.1,0.4
	c1.6-0.1,3.1-0.4,4.6-1.1c0.1,1.1,0.3,2.2,0.4,3.2c0,0.1,0,0.3,0,0.4c0.2,1.6,0.4,1.3-1.1,1.7c-1.3,0.4-2.7,0.5-4.1,0.8
	c-0.2,0-0.3,0.1-0.5,0.1C285.4,33.5,284.7,33.5,283.9,33.5z M282.2,21.8c1.3,0,2.6,0,4,0c0.1-1.5-0.6-2.5-1.8-2.5
	C283.1,19.3,282.1,20.4,282.2,21.8z"/>
<path d="M245.4,22c0.4-0.4,0.8-0.7,1.3-1c1.1-0.8,2-0.8,2.9,0.2c0.5,0.5,0.9,1.1,1.4,1.6c0.2,0.2,0.3,0.4,0.6,0.7
	c0.5-0.4,0.9-0.8,1.3-1.2c1.4-1.2,2.5-1.3,3.9-0.1c1.1,0.9,2.1,2,3.2,2.9c2.3,1.9,5,2.5,7.9,1.6c2.7-0.8,5.4-1.9,7.6-3.7
	c0.2-0.2,0.4-0.5,0.4-0.8c0.1,0.1-0.1,2.9-0.2,3c-0.6,0.3-1.1,0.7-1.7,1c-2.3,1.4-4.9,2.3-7.5,2.7c-3,0.4-5.6-0.5-7.9-2.5
	c-0.9-0.8-1.8-1.7-2.8-2.5c-0.8-0.7-1.2-0.7-1.9,0.1c-0.3,0.4-0.7,0.7-1.1,1c-1.1,0.8-2.3,0.7-3.2-0.5c-0.5-0.7-0.9-1.4-1.3-2.2
	c-1.5,0.9-2.5,2.2-3.5,3.6c-0.5,0.7-1,1.3-1.5,2c-0.3,0.4-0.7,0.7-1.3,0.4c-0.5-0.3-0.6-0.6-0.4-1.3c0.2-0.5,0.3-1,0.5-1.6
	c-0.5,0.2-1,0.4-1.4,0.5c-1.7,0.7-3.5,1.3-5.3,1.6c-2.3,0.3-4.5,0.1-6.7-0.3c-0.8-0.1-1.6-0.2-2.3-0.1c-1.7,0.2-2,0-2-1.8
	c0-0.1,0-0.2,0-0.4c-0.4,0.1-0.9,0.2-1.3,0.4c-2.8,1-5.6,1.3-8.5,0.9c-1.4-0.2-2.5,0.4-3.4,1.4c-0.4,0.5-0.9,1-1.5,1.4
	c-1.1,0.7-2.2,0.2-2.3-0.9c0-0.3,0.1-0.6,0.2-0.8c0.4-1.4-0.1-2.6-1-3.7c-0.6-0.7-1.2-1.3-1.7-2.1c-1.3-1.9-1.6-4.1-1.2-6.4
	c0.5-3.4,1.9-6.4,4.3-8.9c2.5-2.6,5.4-4.2,9.1-4.1c1.9,0.1,3.3,1.4,3.6,3.3c0.3,2.1-0.2,4.1-0.7,6c-0.9,3.3-2.6,6.3-4.2,9.3
	c-0.4,0.7-0.7,1.4-1,2.1c-0.3,0.9,0,1.4,0.9,1.5c0.8,0.1,1.7,0.2,2.5,0.1c1.9-0.1,3.7-0.7,5.5-1.4c0.8-0.3,1.1-0.8,1.2-1.6
	c0.3-1.4,1-2.6,2.5-3c0.8-0.2,1.5-0.1,2.2,0.2c0.9,0.4,1.2,1.2,1,2.4c-0.2,1-0.5,1.9-0.8,2.9c-0.3,1.1-0.1,1.4,1.1,1.6
	c2.7,0.3,5.4,0.2,7.9-0.9c1.5-0.6,2.8-1.4,4-2.5c0.2-0.2,0.4-0.4,0.7-0.6c0.6-0.5,0.9-0.4,1.5,0.1C245,21.7,245.2,21.8,245.4,22z
	 M212.5,22c0.1,0,0.1-0.1,0.1-0.1c2.4-3.7,4.4-7.5,5.6-11.7c0.4-1.4,0.7-2.9,0.5-4.4c-0.1-1.1-0.8-1.7-1.9-1.8
	c-1.4-0.2-2.7,0.2-4,0.8c-3.6,1.8-8.2,7-7.3,13.3c0.3,1.8,1.1,3.4,2.7,4.4c0.7,0.5,1.2,0.4,1.9-0.2c0.2-0.2,0.4-0.5,0.7-0.7
	c0.4-0.4,0.8-0.4,1.2,0C212.2,21.7,212.3,21.9,212.5,22z M227,21c0.6,0.3,1.1,0.5,1.7,0.8c-0.1-0.6,0.2-1.3-0.5-1.5
	C227.6,20,227.2,20.4,227,21z"/>
<path d="M124.5,58.9c-0.6-0.2-0.8-0.7-0.8-1.3c0.2-3.9,0.5-7.8,0.7-11.7c0.1-2.1,0.2-4.2,0.3-6.3c0-0.2,0-0.5,0-0.7
	c-0.1-1.2-0.7-1.6-1.8-1.2c-1.9,0.7-3.7,1.5-5.5,2.2c-0.3,0.1-0.7,0.3-1,0.4c-0.5,0.1-0.8-0.1-1-0.5c-0.2-0.4-0.2-0.8,0.2-1.1
	c0.8-0.6,1.7-1.2,2.6-1.8c0.2-0.1,0.4-0.1,0.7-0.1c0.7-0.1,1.5-0.2,2.2-0.5c0.9-0.4,1.7-0.9,2.5-1.5c1.1-0.7,1.6-1.9,1.7-3.1
	c0.3-3.3,0.4-6.6,0.7-9.9c0.1-1,0.1-2,0.2-3.1c0-0.6,0.4-0.8,1-0.8c0.6,0,0.8,0.4,0.8,0.9c-0.1,2.1-0.2,4.2-0.3,6.4
	c-0.1,1.9-0.2,3.8-0.3,5.7c0,1.8,0.6,2.3,2.3,1.6c3.6-1.3,7.2-2.8,10.9-4.1c5.1-1.7,10.2-3.2,15.3-4.7c0.4-0.1,0.8-0.1,1.2-0.1
	c0.4,0,0.7,0.2,1.1,0.3c0.2-0.4,0.5-0.8,0.7-1.2c0.8-1.1,1.6-1.1,2.3,0c0.5,0.7,1,1.4,1.5,2.1c0.2,0.3,0.5,0.5,0.7,0.7
	c1.2,1.1,2.6,1.3,4,0.5c1-0.6,1.9-1.4,2.8-2.1c0.1-0.1,0.1-0.3,0.2-0.4c0.7-2.6,1.8-4.9,3.8-6.7c0.7-0.7,1.4-1.2,2.4-1.4
	c1.1-0.1,1.9,0.5,1.9,1.6c0,1.4-0.4,2.7-1.2,3.9c-0.6,1-1.4,2-2.1,2.9c-0.5,0.6-1,0.7-1.5,0.3c-0.5-0.4-0.5-1.1-0.1-1.6
	c0.5-0.7,1.2-1.4,1.6-2.1c0.5-0.8,0.8-1.7,1.2-2.5c-0.1-0.1-0.2-0.1-0.3-0.2c-0.6,0.6-1.2,1.1-1.7,1.8c-1.2,1.5-2,3.2-2.3,5.1
	c0,0.2-0.1,0.5-0.1,0.7c-0.1,1.5,0.2,1.8,1.8,1.5c1.2-0.3,2.4-0.7,3.6-1.2c4.4-1.9,8.5-4.4,12.4-7.2c0.4-0.3,0.6-0.7,0.9-1
	c0.8-0.9,1.7-1.8,3-1.9c1.1-0.1,1.8,0.5,1.9,1.6c0.1,1.3-0.3,2.6-1,3.7c-0.7,1.1-1.4,2.1-2.2,3.2c-0.5,0.7-1.1,0.7-1.5,0.3
	c-0.4-0.4-0.4-1.1,0-1.7c0.8-1.1,1.5-2.3,2.3-3.4c0.2-0.3,0.3-0.7,0.3-1.2c-0.2,0.1-0.4,0.2-0.6,0.4c-2.1,2.1-3.5,4.6-3.6,7.6
	c0,0.8,0.3,1.1,1,1c1.2-0.2,2.5-0.5,3.6-1c2.6-1.2,5.2-2.6,7.7-3.9c0.7-0.4,1.2-0.3,1.5,0.2c0.4,0.6,0.3,1.4-0.3,1.7
	c-3.3,2-6.7,3.9-10.5,5c-0.9,0.2-1.8,0.4-2.7,0.3c-1.4-0.1-2.5-1.4-2.4-3.1c0-1,0.2-1.9,0.4-2.9c0-0.2,0.1-0.4,0.1-0.6
	c-1.8,1.1-3.6,2.1-5.4,3.1c-2.5,1.4-5,2.6-7.8,3.3c-0.8,0.2-1.6,0.3-2.3,0.2c-1.4-0.2-2-1.2-2.3-2.6c-0.2,0.2-0.4,0.3-0.6,0.4
	c-1.2,0.8-2.4,1.5-3.9,1.5c-1.3,0.1-2.4-0.4-3.4-1.3c-0.4-0.4-0.8-0.8-1.2-1.2c-0.6-0.6-1-0.6-1.4,0.2c-0.7,1.2-1.3,2.5-2,3.7
	c-0.3,0.5-0.6,1-1,1.4c-0.3,0.2-0.8,0.3-1.1,0.2c-0.2,0-0.3-0.6-0.3-0.9c0.1-1.2,0.2-2.4,0.3-3.5c0-0.4,0.1-0.7,0.1-1.2
	c-1.3,0.4-2.5,0.7-3.7,1.1c-5.3,1.8-10.5,3.6-15.8,5.4c-1.7,0.6-3.5,1.2-5.2,1.8c-2.6,0.9-3.9,2.6-4.1,5.3c-0.2,3-0.3,6-0.5,9.1
	c-0.2,3.1-0.4,6.2-0.6,9.2c0,0.5-0.2,0.9-0.6,1.1C124.8,58.9,124.6,58.9,124.5,58.9z"/>
<path d="M112.4,23c0.2-0.4,0.5-0.7,0.6-1.1c1.1-2.2,2.9-3.6,4.8-4.8c4.3-2.6,8.9-4.5,13.9-5.6c3.3-0.7,6.6-1,9.9-0.8
	c1.8,0.1,3.5,0.7,5,1.5c0.8,0.4,1.4,1.3,2,2c0.3,0.4,0.2,0.9-0.2,1.2c-0.5,0.4-0.9,0.3-1.3-0.1c-1.7-2.4-4.3-2.7-6.9-2.9
	c-3.4-0.2-6.6,0.5-9.9,1.4c-4.4,1.2-8.5,2.8-12.3,5.3c-1.4,0.9-2.7,2-3.3,3.6c0,0.1-0.1,0.2-0.2,0.3c-0.7,1.2-1.1,1.2-2.1,0.3
	c-0.1-0.1-0.2-0.1-0.3-0.2C112.4,23.2,112.4,23.1,112.4,23z"/>
<path d="M35.7,19.3c-0.6-0.6-1-1.3-1-2.2s0.3-1.6,1-2.2c0.6-0.6,1.5-0.9,2.5-0.9c1,0,1.9,0.3,2.5,0.8s1,1.3,1,2.1
	c0,0.9-0.3,1.7-1,2.2s-1.5,0.9-2.5,0.9C37.1,20.1,36.3,19.8,35.7,19.3z M35.3,22h5.7v16.3h-5.7V22z"/>
<path d="M57.8,23.5c1.4,1.2,2.1,3.1,2.1,5.7v9.1h-5.3v-2.1c-0.8,1.6-2.4,2.4-4.8,2.4c-1.3,0-2.4-0.2-3.3-0.7c-0.9-0.4-1.6-1-2.1-1.8
	c-0.5-0.8-0.7-1.6-0.7-2.6c0-1.5,0.6-2.7,1.8-3.6c1.2-0.9,3-1.3,5.5-1.3h3.3c-0.1-1.7-1.3-2.6-3.5-2.6c-0.8,0-1.6,0.1-2.4,0.4
	c-0.8,0.3-1.5,0.6-2.1,1l-1.9-3.9c0.9-0.6,2-1.1,3.3-1.4c1.3-0.3,2.6-0.5,3.9-0.5C54.3,21.7,56.4,22.3,57.8,23.5z M53.1,34.5
	c0.5-0.3,0.9-0.8,1.1-1.4v-1.4h-2.5c-1.7,0-2.5,0.6-2.5,1.7c0,0.5,0.2,0.9,0.6,1.2c0.4,0.3,0.9,0.5,1.6,0.5
	C52,34.9,52.6,34.8,53.1,34.5z"/>
<path d="M89.5,23.5c1.2,1.2,1.8,3,1.8,5.5v9.3h-5.7v-8.4c0-1.1-0.2-2-0.6-2.5c-0.4-0.5-1-0.8-1.8-0.8c-0.9,0-1.6,0.3-2.1,0.9
	c-0.5,0.6-0.8,1.5-0.8,2.7v8.1h-5.7v-8.4c0-2.2-0.8-3.3-2.5-3.3c-0.9,0-1.6,0.3-2.1,0.9c-0.5,0.6-0.8,1.5-0.8,2.7v8.1h-5.7V22h5.5
	v1.7c0.6-0.7,1.3-1.2,2.2-1.5c0.8-0.3,1.7-0.5,2.7-0.5c1.1,0,2.2,0.2,3.1,0.6c0.9,0.4,1.6,1.1,2.2,1.9c0.6-0.8,1.5-1.5,2.4-1.9
	c1-0.4,2.1-0.7,3.2-0.7C86.7,21.7,88.3,22.3,89.5,23.5z"/>
<path d="M107.9,23.5c1.4,1.2,2.1,3.1,2.1,5.7v9.1h-5.3v-2.1c-0.8,1.6-2.4,2.4-4.8,2.4c-1.3,0-2.4-0.2-3.3-0.7
	c-0.9-0.4-1.6-1-2.1-1.8c-0.5-0.8-0.7-1.6-0.7-2.6c0-1.5,0.6-2.7,1.8-3.6c1.2-0.9,3-1.3,5.5-1.3h3.3c-0.1-1.7-1.3-2.6-3.5-2.6
	c-0.8,0-1.6,0.1-2.4,0.4c-0.8,0.3-1.5,0.6-2,1l-1.9-3.9c0.9-0.6,2-1.1,3.3-1.4c1.3-0.3,2.6-0.5,3.9-0.5
	C104.4,21.7,106.5,22.3,107.9,23.5z M103.3,34.5c0.5-0.3,0.9-0.8,1.1-1.4v-1.4h-2.5c-1.7,0-2.5,0.6-2.5,1.7c0,0.5,0.2,0.9,0.6,1.2
	c0.4,0.3,0.9,0.5,1.6,0.5S102.8,34.8,103.3,34.5z"/>
<path d="M332.7,22v16.3h-5.5v-1.7c-0.6,0.7-1.3,1.2-2.2,1.5c-0.8,0.3-1.7,0.5-2.7,0.5c-2.1,0-3.8-0.6-5.1-1.9
	c-1.3-1.2-1.9-3.1-1.9-5.6V22h5.7v8.2c0,1.2,0.2,2.1,0.7,2.7c0.5,0.6,1.1,0.8,2,0.8c0.9,0,1.6-0.3,2.2-1c0.6-0.6,0.9-1.6,0.9-2.9V22
	H332.7z"/>
<path d="M338.2,38.1c-1.3-0.3-2.4-0.7-3.2-1.2l1.7-3.9c0.7,0.5,1.6,0.8,2.7,1.1c1,0.3,2,0.4,3,0.4c0.9,0,1.6-0.1,2-0.3
	c0.4-0.2,0.6-0.5,0.6-0.8s-0.2-0.6-0.7-0.8c-0.5-0.1-1.2-0.3-2.2-0.4c-1.3-0.2-2.4-0.4-3.3-0.6c-0.9-0.3-1.7-0.7-2.4-1.4
	c-0.7-0.7-1-1.7-1-3c0-1,0.3-2,0.9-2.8c0.6-0.8,1.5-1.5,2.7-1.9c1.2-0.5,2.6-0.7,4.3-0.7c1.2,0,2.4,0.1,3.5,0.4
	c1.2,0.2,2.1,0.6,2.9,1L348,27c-1.4-0.8-3-1.2-4.7-1.2c-0.9,0-1.6,0.1-2,0.3c-0.4,0.2-0.6,0.5-0.6,0.8c0,0.4,0.2,0.6,0.7,0.8
	s1.2,0.3,2.3,0.5c1.3,0.2,2.5,0.4,3.3,0.7c0.9,0.3,1.7,0.7,2.3,1.4c0.7,0.7,1,1.7,1,2.9c0,1-0.3,1.9-0.9,2.8
	c-0.6,0.8-1.5,1.5-2.8,1.9c-1.2,0.5-2.7,0.7-4.4,0.7C340.8,38.6,339.5,38.4,338.2,38.1z"/>
<path d="M369.2,31.6h-11.9c0.2,0.8,0.7,1.5,1.4,1.9c0.7,0.5,1.6,0.7,2.6,0.7c0.8,0,1.5-0.1,2-0.3c0.6-0.2,1.2-0.6,1.7-1.1l3,3.1
	c-1.6,1.8-3.9,2.7-7,2.7c-1.9,0-3.6-0.4-5-1.1c-1.4-0.7-2.6-1.7-3.4-3c-0.8-1.3-1.2-2.7-1.2-4.4c0-1.6,0.4-3.1,1.2-4.3
	c0.8-1.3,1.8-2.3,3.2-3c1.4-0.7,2.9-1.1,4.6-1.1c1.6,0,3.1,0.3,4.4,1c1.3,0.7,2.4,1.6,3.2,2.9c0.8,1.3,1.2,2.8,1.2,4.5
	C369.3,30.2,369.3,30.7,369.2,31.6z M358.4,26.5c-0.6,0.5-1,1.2-1.1,2h6.7c-0.2-0.9-0.5-1.5-1.1-2c-0.6-0.5-1.3-0.8-2.2-0.8
	C359.7,25.8,359,26,358.4,26.5z"/>
<path d="M379.6,22.2c0.9-0.4,2-0.6,3.2-0.6v5.2c-0.5-0.1-1-0.1-1.3-0.1c-1.2,0-2.2,0.3-2.9,1c-0.7,0.7-1,1.7-1,3v7.5h-5.7V22h5.5v2
	C377.9,23.2,378.6,22.6,379.6,22.2z"/>
<path d="M0.6,22.3C3.1,22.1,5,21.7,7,21.7c2.2,0,3.7-0.9,4.7-2.8c0.8-1.6,1.9-3,3-4.5c0.7-1,1.7-1.8,3-0.7c1.2,0.9,1.2,1.8,0.4,3.1
	c-0.8,1.3-1.5,2.7-2.2,4c2.8,1.4,4.2,0,5.3-2.4c0.6,0.3,1.3,0.5,1.5,0.9c0.9,1.8,2.5,2.3,4.4,2.5c1.9,0.2,2.8,1.3,1.9,3.2
	c-2-0.2-4.2-1-5.9-0.3c-1.2,0.4-1.5,2.8-2.4,4.6c2.7,0.6,6-0.3,6.9,3.8c-1.9-0.2-3.6-0.2-5.3-0.5c-2.5-0.4-4.2,0.2-5.1,2.8
	c-0.7,2-1.9,3.8-2.9,5.7c-2.4-0.6-2.5-1.9-1.9-3.7c0.5-1.5,1-3,1.5-4.6c-3.6-0.7-4-0.5-4.8,2.7C9,36.5,9,37.6,8.6,38.7
	c-0.3,0.9-0.8,1.7-1.3,2.6c-1-0.9-2.5-1.6-2.9-2.7c-0.4-1.1,0.2-2.6,0.4-4c0.1-0.5,0.1-1,0.2-1.6C4,33,3,33.2,2.2,32.9
	C1.4,32.7,0.7,32,0,31.5c0.6-0.5,1-1.2,1.7-1.6c0.5-0.3,1.2-0.4,1.7-0.4c3,0,4.4-1.6,4.6-4.5C5.7,24.2,2.7,25.9,0.6,22.3z
	 M12.5,28.7c3.5,0.6,4,0.2,5-4.1C14.4,23.8,13.7,24.5,12.5,28.7z"/>
</svg>
