<?xml version="1.0" encoding="utf-8"?>
<!-- Generator: Adobe Illustrator 24.2.0, SVG Export Plug-In . SVG Version: 6.00 Build 0)  -->
<svg version="1.1" id="Layer_1" xmlns="http://www.w3.org/2000/svg" xmlns:xlink="http://www.w3.org/1999/xlink" x="0px" y="0px"
	 viewBox="0 0 200 88" style="enable-background:new 0 0 200 88;" xml:space="preserve">
<style type="text/css">
	.st0{fill-rule:evenodd;clip-rule:evenodd;fill:#7793CB;}
	.st1{fill-rule:evenodd;clip-rule:evenodd;fill:#ED2836;}
	.st2{fill-rule:evenodd;clip-rule:evenodd;fill:#838CC5;}
	.st3{fill-rule:evenodd;clip-rule:evenodd;fill:#90D2CC;}
	.st4{fill-rule:evenodd;clip-rule:evenodd;fill:#AA3693;}
	.st5{fill-rule:evenodd;clip-rule:evenodd;fill:#EE3D59;}
	.st6{fill-rule:evenodd;clip-rule:evenodd;fill:#F2859C;}
	.st7{fill-rule:evenodd;clip-rule:evenodd;fill:#F6E566;}
	.st8{fill-rule:evenodd;clip-rule:evenodd;fill:#AC3693;}
	.st9{fill-rule:evenodd;clip-rule:evenodd;fill:#F5D322;}
	.st10{fill-rule:evenodd;clip-rule:evenodd;fill:#4E317D;}
	.st11{fill-rule:evenodd;clip-rule:evenodd;fill:#00B5A8;}
	.st12{fill-rule:evenodd;clip-rule:evenodd;fill:#EE3E28;}
	.st13{fill-rule:evenodd;clip-rule:evenodd;fill:#EC1C24;}
	.st14{fill-rule:evenodd;clip-rule:evenodd;fill:#62C9E2;}
	.st15{fill-rule:evenodd;clip-rule:evenodd;fill:#D1232A;}
	.st16{fill-rule:evenodd;clip-rule:evenodd;fill:#080200;}
	.st17{fill-rule:evenodd;clip-rule:evenodd;fill:#EFC795;}
	.st18{fill-rule:evenodd;clip-rule:evenodd;fill:#F7A068;}
	.st19{fill-rule:evenodd;clip-rule:evenodd;fill:#F79A61;}
	.st20{fill-rule:evenodd;clip-rule:evenodd;fill:#00B58F;}
	.st21{fill-rule:evenodd;clip-rule:evenodd;fill:#90D2CD;}
	.st22{fill-rule:evenodd;clip-rule:evenodd;fill:#FBD423;}
	.st23{fill-rule:evenodd;clip-rule:evenodd;fill:#0096CC;}
	.st24{fill-rule:evenodd;clip-rule:evenodd;fill:#66C4B0;}
	.st25{fill-rule:evenodd;clip-rule:evenodd;fill:#008DCE;}
	.st26{fill-rule:evenodd;clip-rule:evenodd;fill:#FDE222;}
	.st27{fill-rule:evenodd;clip-rule:evenodd;fill:#F9D120;}
	.st28{fill-rule:evenodd;clip-rule:evenodd;fill:#00B7A7;}
	.st29{fill:#FFFFFF;}
</style>
<path class="st0" d="M39.7,19.6c-7.2,1.1-14.5,4.7-16.8,11.9c-2,6-2.4,16.3,0.1,22.1c3.5,12.2,13.6,15.2,25.5,11.1
	c6.4-1.1,13.9-10.7,15.4-16.5c1.6-6.2,1.3-13.2-2.2-18.5C57.1,23.1,48.1,18.4,39.7,19.6L39.7,19.6z M47.1,73.7
	c9.5-1.4,19.1-6.2,22.2-15.7c2.6-8,3.2-21.6-0.2-29.1c-6.2-14-20.3-16.9-33.6-14.7c-8.5,1.4-18.3,14.1-20.3,21.7
	c-2.1,8.2-1.5,17.4,3.2,24.4C24.5,69.1,36.1,75.3,47.1,73.7L47.1,73.7z M46.8,77.9c11.6-1.7,24.2-9.6,28-21.2
	c3-9.3,1.5-21.3-2.3-30.1C65.1,10.1,47.3,8.1,31.4,10.7c-11,1.9-18.3,15.6-20.8,25.5c-2.5,9.7-0.4,18.2,5.2,26.4
	C22.9,73.3,33.7,79.8,46.8,77.9L46.8,77.9z M39,7.3C26.8,9.1,13,13.9,9,26.1C5.7,36.3,4.9,53.8,9.2,63.5c8,18,27.1,18.9,44.2,16
	C64.3,77.7,75,64.2,77.5,54.4c2.7-10.6,2.9-22.4-3.1-31.3C66.7,11.8,53.2,5.2,39,7.3L39,7.3z M38,0.4C23.2,2.6,6.9,12.8,2.1,27.6
	c-3.9,11.9-2,27.4,3,38.7c9.4,21.3,32.3,23.9,52.8,20.4c14.1-2.4,23.5-20,26.8-32.8c3.2-12.5,0.5-23.4-6.7-34
	C68.8,6.4,54.8-2,38,0.4L38,0.4z M40,16.4c9.9-1.5,18.5,3.5,23.9,11.5c4.2,6.2,5.5,12.7,3.6,20c-1.9,7.5-7.5,17.9-15.8,19.3
	c-12,5.5-25.6,2.9-31.1-12.1c-3-6.7-4.1-15.8-1.8-22.8C21.6,23.7,31.2,17.7,40,16.4L40,16.4z"/>
<path class="st1" d="M67.2,71.4l5.8,5.7c5.7-6.8,9.7-15.8,11.6-23.2c0.4-1.7,0.8-3.4,1-5h-6.9c-0.3,1.9-0.7,3.7-1.1,5.5
	C76.1,59.8,72.3,66.3,67.2,71.4L67.2,71.4z"/>
<path class="st2" d="M63,67.1l2.5,2.5c4.3-3.5,7.6-7.8,9.3-12.9c0.8-2.5,1.3-5.1,1.5-7.8h-5.1c-0.4,3.3-1,6.5-1.8,9
	C68.1,61.7,65.9,64.8,63,67.1L63,67.1z"/>
<path class="st1" d="M67.2,48.9c-1.4,4.8-4.2,10.6-8.1,14.4l-3-3c3.5-3.3,6.5-7.9,7.6-11.4H67.2L67.2,48.9z"/>
<path class="st3" d="M50.5,80l2.9,7.4c1.5-0.2,3-0.4,4.4-0.6c6.6-1.1,12.1-5.5,16.5-11.2l-6.1-5.1c-4.3,4.6-9.5,8.2-14.8,9.1
	C52.4,79.7,51.5,79.8,50.5,80L50.5,80z"/>
<path class="st4" d="M48,73.5l1.5,3.9c6-1.4,12.1-4.3,16.9-8.5l-2.8-2.3C59.4,70.4,53.7,72.6,48,73.5L48,73.5z"/>
<path class="st5" d="M59.3,63c-2.2,2.2-4.7,3.7-7.6,4.2c-1.8,0.8-3.6,1.4-5.3,1.9L45,65.7c1.2-0.3,2.3-0.6,3.5-1
	c2.5-0.4,5.1-2.1,7.5-4.4L59.3,63L59.3,63z"/>
<path class="st0" d="M39.5,80.8l0.8,7.2c5.7,0.3,11.6-0.2,17.3-1.2l-3.5-7.4c-0.2,0.1-0.5,0.1-0.7,0.1
	C48.8,80.3,44.1,80.8,39.5,80.8L39.5,80.8z"/>
<path class="st6" d="M38.7,73.5l0.5,4.6c2.4,0.3,5,0.2,7.6-0.2c2-0.3,4-0.8,6-1.4l-1.7-3.6c-1.3,0.3-2.6,0.6-3.9,0.8
	C44.3,74.1,41.5,74,38.7,73.5L38.7,73.5z"/>
<path class="st0" d="M48.9,68.4c-3.6,1.2-7.2,1.8-10.6,1.5l-0.4-3.5c2.9,0.2,6.1-0.3,9.4-1.3L48.9,68.4L48.9,68.4z"/>
<path class="st7" d="M21.9,77.1l-2.7,5.2c7.4,4.3,16.4,5.8,25.5,5.7l-1.5-7.3C35.6,81.1,28.2,80.2,21.9,77.1L21.9,77.1z"/>
<path class="st5" d="M26.5,68.3l-2,3.8c5.2,3.9,11.3,6.2,18.1,6.1l-0.9-4.4C36.3,73.5,31,71.4,26.5,68.3L26.5,68.3z"/>
<path class="st8" d="M40.9,69.9c-4.7,0.1-9.3-1.2-13-4.1l1.3-2.5c3,2.3,6.8,3.3,11,3.1L40.9,69.9L40.9,69.9z"/>
<path class="st9" d="M10.1,65.2l-4.3,2.6c3.9,7.9,9.8,13.1,16.7,16.2l2.7-5.5C19,76.3,13.6,72.1,10.1,65.2L10.1,65.2z"/>
<path class="st5" d="M18.5,60.1L15.3,62c0.1,0.2,0.3,0.4,0.4,0.7c3.2,4.7,7.1,8.6,11.6,11.3l2-4c-4.4-2.4-8.1-5.8-10.8-9.8
	L18.5,60.1L18.5,60.1z"/>
<path class="st10" d="M30.5,67.6c-3.5-1.9-6.5-5-8.7-9.5l2.3-1.4c1.8,4,4.4,6.7,7.7,8.2L30.5,67.6L30.5,67.6z"/>
<path class="st0" d="M7.5,58.2l-4.7,2c0.7,2.1,1.4,4.2,2.3,6.1c0.8,1.8,1.7,3.4,2.6,4.9l4.2-2.9c-1-1.4-1.9-3.1-2.7-4.8
	C8.5,61.9,8,60.1,7.5,58.2L7.5,58.2z"/>
<path class="st11" d="M15.7,54.6l-3.6,1.6c1,2.2,2.2,4.4,3.6,6.5c0.5,0.7,0.9,1.3,1.4,2l3.1-2.1c-0.6-0.7-1.2-1.5-1.7-2.3
	C17.3,58.5,16.4,56.6,15.7,54.6L15.7,54.6z"/>
<path class="st12" d="M23.2,60.6c-1-1.6-1.9-3.3-2.6-5.3c-0.3-0.7-0.6-1.5-0.9-2.3l2.7-1.2c0.2,0.6,0.4,1.2,0.7,1.8
	c0.6,2.1,1.4,3.9,2.4,5.5L23.2,60.6L23.2,60.6z"/>
<path class="st5" d="M6.3,49.1l-5.7,1.3c0.6,4.1,1.5,8.1,2.8,11.8l4.7-1.6C7.1,57.1,6.5,53.2,6.3,49.1L6.3,49.1z"/>
<path class="st13" d="M14.3,47.3l-4.4,1c0.5,3.6,1.7,7,3.5,10.4l3.6-1.2C15.4,54.3,14.5,50.8,14.3,47.3L14.3,47.3z"/>
<path class="st14" d="M20.9,56c-0.1-0.3-0.2-0.5-0.3-0.8c-1.2-2.6-2-5.6-2.5-8.7l3.3-0.7c0.2,2.9,0.7,5.7,1.7,7.8
	c0.2,0.5,0.3,1,0.5,1.5L20.9,56L20.9,56z"/>
<path class="st15" d="M7.7,31.4l-5.8-3.2c-2.2,7.2-2.4,15.7-1,23.7L6.5,52C5.9,45.2,6.4,37.6,7.7,31.4L7.7,31.4z"/>
<path class="st16" d="M15.4,35.6l-4-2.2c-0.3,1-0.6,2-0.8,2.9C9.1,41.9,9.2,47.1,10.6,52l4.4,0c-1.2-5.2-1-10.9,0.3-16.2L15.4,35.6
	L15.4,35.6z"/>
<path class="st14" d="M19.4,52.1c-1.5-4.7-2.2-10.3-1.6-15.3l3.7,2c-0.4,4.6-0.2,9.6,1,13.3L19.4,52.1L19.4,52.1z"/>
<path class="st5" d="M19.5,13.6l-3-4.5C10.3,13.5,5.2,19.3,2.6,26.2l5.3,4.1c0.3-1.5,0.7-2.9,1.1-4.3C10.8,20.5,14.7,16.5,19.5,13.6
	L19.5,13.6z"/>
<path class="st17" d="M24.5,21.1l-3.2-4.8c-4.6,4.5-7.9,11-9.8,16.8l3.8,3l0.1-0.2C16.4,31.6,20,25.7,24.5,21.1L24.5,21.1z"/>
<path class="st8" d="M17.7,38c0.2-1.9,0.5-3.8,1.1-5.6c1.2-3.8,3.7-7.1,6.9-9.6l1.5,2.3c-1.9,1.7-3.4,3.9-4.3,6.5
	c-0.8,2.6-1.4,5.9-1.6,9.3L17.7,38L17.7,38z"/>
<path class="st0" d="M8.7,27l-5.3-2.9c-0.3,0.7-0.6,1.4-0.9,2.1l5.3,4.1C8.1,29.2,8.4,28.1,8.7,27L8.7,27z"/>
<path class="st3" d="M17,31.6l-4.1-2.3c-0.5,1.3-1,2.6-1.4,3.8l3.8,3l0.1-0.2C15.7,34.6,16.2,33.1,17,31.6L17,31.6z"/>
<path class="st2" d="M17.7,38c0.2-1.9,0.5-3.7,1-5.4l3.4,1.9c-0.4,2-0.7,4.1-0.8,6.3L17.7,38L17.7,38z"/>
<path class="st18" d="M32.1,8.6L31,2c-6.1,1.9-12.1,5-17.2,9.1l3,4.2C21.1,12.1,26.6,10,32.1,8.6L32.1,8.6z"/>
<path class="st5" d="M33,14.9l-0.7-4.3l-1,0.2c-4.8,0.8-8.9,3.9-12.2,8l3.3,4.6C25.6,19.6,29.4,16.4,33,14.9L33,14.9z"/>
<path class="st19" d="M23.5,24.8c2.8-2.9,6.3-5.2,10.1-6.6L34,21c-3.5,1.3-6.6,3.3-8.8,6.1L23.5,24.8L23.5,24.8z"/>
<path class="st20" d="M47,7l1.3-6.8C45-0.1,41.6-0.1,38,0.4c-3.1,0.5-6.2,1.2-9.3,2.4l1.7,6.3c2.8-0.8,5.8-1.4,8.6-1.8
	C41.7,6.9,44.4,6.8,47,7L47,7z"/>
<path class="st21" d="M45.8,13.5l0.7-3.6c-5-0.4-10.1,0-15.1,0.8c-0.2,0-0.3,0.1-0.4,0.1l1.2,4.4c1.1-0.5,2.3-0.9,3.4-1.1
	C39,13.6,42.4,13.3,45.8,13.5L45.8,13.5z"/>
<path class="st5" d="M40,16.4c1.8-0.3,3.6-0.3,5.3-0.2l-0.6,3.3c-1.6-0.2-3.3-0.2-4.9,0.1c-2,0.3-4,0.8-5.9,1.5L33,18.3
	C35.3,17.4,37.7,16.7,40,16.4L40,16.4z"/>
<path class="st22" d="M40.5,16.3c6.1-0.7,11.7,0.9,16.3,4.3l-1.9,2.7c-4.5-2.9-9.9-4.5-15.1-3.7L40.5,16.3L40.5,16.3z"/>
<path class="st23" d="M41.2,13.5l0.9-3.8c6.9-0.1,13.6,1.1,19.3,4.4l-2.2,3.2C53.9,14.2,47.6,13.2,41.2,13.5L41.2,13.5z"/>
<path class="st24" d="M42.7,7L44.3,0C52.4,0.1,59.7,2.8,66,7.4l-3.3,4.7C56.8,8.5,49.9,6.6,42.7,7L42.7,7z"/>
<path class="st25" d="M59.4,10.3l3.8-4.8C68.9,9,73.9,14,77.9,20c0.6,0.9,1.2,1.9,1.8,2.8L75.5,25c-0.4-0.6-0.7-1.3-1.2-1.9
	C70.6,17.5,65.4,13.1,59.4,10.3L59.4,10.3z"/>
<path class="st5" d="M55.3,15.5l2.5-3.1c6.2,2.5,11.5,7,14.7,14.2L69,28.4C66,21.8,61,17.7,55.3,15.5L55.3,15.5z"/>
<path class="st26" d="M53,18.3c4.3,2,8,5.4,10.9,9.6c0.6,0.8,1.1,1.7,1.5,2.5l-2.6,1.4c-0.3-0.7-0.7-1.4-1.2-2
	c-2.5-3.7-6.4-6.8-10.8-8.6L53,18.3L53,18.3z"/>
<path class="st27" d="M73.8,22.2l4.2-2.3c3.5,5.2,6,10.5,7.2,16l-5.9,1.4c-0.5-5.1-1.9-10-4.8-14.2C74.2,22.8,74,22.5,73.8,22.2
	L73.8,22.2z"/>
<path class="st28" d="M67.5,25.6l3.4-1.9c0.5,0.9,1,1.9,1.5,2.9c1.5,3.5,2.7,7.4,3.3,11.5l-4.4,1c-0.3-3.9-0.9-7.5-2.2-10.4
	C68.7,27.7,68.1,26.6,67.5,25.6L67.5,25.6z"/>
<path class="st12" d="M63.7,27.7l0.2,0.2c2.6,3.9,4.1,7.8,4.4,12l-3.5,0.8c0-3.9-1-7.8-3.2-11c-0.2-0.2-0.3-0.5-0.5-0.7L63.7,27.7
	L63.7,27.7z"/>
<path class="st0" d="M78.7,34.2l5.4-1.6c2,6.3,2.3,12.9,0.7,20L78,52.2C79.3,46.3,79.8,40,78.7,34.2L78.7,34.2z"/>
<path class="st21" d="M71.1,36.4l4.1-1.2c1.2,5.5,1.6,11.5,0.7,16.9l-5.1-0.3C71.6,47,71.8,41.4,71.1,36.4L71.1,36.4z"/>
<path class="st0" d="M67.9,37.4c0.6,3.3,0.5,6.8-0.5,10.6c-0.3,1.2-0.7,2.4-1.2,3.7l-3.7-0.2c0.6-1.1,1-2.2,1.2-3.2
	c0.8-3.2,1.1-6.6,0.8-9.9L67.9,37.4L67.9,37.4z"/>
<path class="st29" d="M118,80.5h0.6v2.1H118V80.5z"/>
<path class="st29" d="M122,80.5v2.1h-0.5l-0.9-1.1v1.1H120v-2.1h0.5l0.9,1.1v-1.1H122z"/>
<path class="st29" d="M123.8,82.4c-0.2-0.1-0.3-0.2-0.4-0.4c-0.1-0.2-0.1-0.3-0.1-0.6c0-0.2,0-0.4,0.1-0.6c0.1-0.2,0.2-0.3,0.4-0.4
	c0.2-0.1,0.4-0.1,0.6-0.1c0.2,0,0.4,0,0.5,0.1c0.2,0.1,0.3,0.2,0.4,0.3l-0.4,0.3c-0.1-0.2-0.3-0.2-0.5-0.2c-0.1,0-0.2,0-0.3,0.1
	c-0.1,0-0.2,0.1-0.2,0.2c0,0.1-0.1,0.2-0.1,0.3c0,0.1,0,0.2,0.1,0.3c0,0.1,0.1,0.2,0.2,0.2c0.1,0,0.2,0.1,0.3,0.1
	c0.2,0,0.4-0.1,0.5-0.2l0.4,0.3c-0.1,0.1-0.2,0.2-0.4,0.3c-0.2,0.1-0.3,0.1-0.5,0.1C124.2,82.6,124,82.5,123.8,82.4z"/>
<path class="st29" d="M126.5,80.5h0.6v1.6h1v0.5h-1.6V80.5z"/>
<path class="st29" d="M129.6,82.3c-0.2-0.2-0.3-0.4-0.3-0.7v-1.1h0.6v1.1c0,0.3,0.1,0.5,0.4,0.5c0.3,0,0.4-0.2,0.4-0.5v-1.1h0.6v1.1
	c0,0.3-0.1,0.5-0.3,0.7c-0.2,0.2-0.4,0.2-0.7,0.2C130,82.6,129.7,82.5,129.6,82.3z"/>
<path class="st29" d="M132.9,82.5c-0.2,0-0.3-0.1-0.4-0.2l0.2-0.4c0.1,0.1,0.2,0.1,0.3,0.1c0.1,0,0.2,0.1,0.4,0.1
	c0.2,0,0.3-0.1,0.3-0.2c0-0.1,0-0.1-0.1-0.1c-0.1,0-0.2-0.1-0.3-0.1c-0.2,0-0.3-0.1-0.4-0.1c-0.1,0-0.2-0.1-0.3-0.2
	c-0.1-0.1-0.1-0.2-0.1-0.3c0-0.1,0-0.2,0.1-0.3c0.1-0.1,0.2-0.2,0.3-0.2c0.1-0.1,0.3-0.1,0.5-0.1c0.1,0,0.3,0,0.4,0
	c0.1,0,0.2,0.1,0.3,0.1L134,81c-0.2-0.1-0.4-0.2-0.6-0.2c-0.1,0-0.2,0-0.3,0.1c-0.1,0-0.1,0.1-0.1,0.1s0,0.1,0.1,0.1
	c0.1,0,0.2,0.1,0.3,0.1c0.2,0,0.3,0.1,0.4,0.1c0.1,0,0.2,0.1,0.3,0.2c0.1,0.1,0.1,0.2,0.1,0.3c0,0.1,0,0.2-0.1,0.3
	c-0.1,0.1-0.2,0.2-0.3,0.2c-0.1,0.1-0.3,0.1-0.5,0.1C133.2,82.6,133,82.6,132.9,82.5z"/>
<path class="st29" d="M135.5,80.5h0.6v2.1h-0.6V80.5z"/>
<path class="st29" d="M139.6,80.5l-0.9,2.1h-0.6l-0.9-2.1h0.6l0.6,1.3l0.6-1.3H139.6z"/>
<path class="st29" d="M142.4,82.1v0.4h-1.6v-2.1h1.6v0.4h-1v0.3h0.9v0.4h-0.9v0.4H142.4z"/>
<path class="st29" d="M146,82.4c-0.2-0.1-0.3-0.2-0.4-0.4c-0.1-0.2-0.1-0.3-0.1-0.6c0-0.2,0-0.4,0.1-0.6c0.1-0.2,0.2-0.3,0.4-0.4
	c0.2-0.1,0.4-0.1,0.6-0.1c0.2,0,0.4,0,0.5,0.1c0.2,0.1,0.3,0.2,0.4,0.3l-0.4,0.3c-0.1-0.2-0.3-0.2-0.5-0.2c-0.1,0-0.2,0-0.3,0.1
	c-0.1,0-0.2,0.1-0.2,0.2c0,0.1-0.1,0.2-0.1,0.3c0,0.1,0,0.2,0.1,0.3c0,0.1,0.1,0.2,0.2,0.2c0.1,0,0.2,0.1,0.3,0.1
	c0.2,0,0.4-0.1,0.5-0.2l0.4,0.3c-0.1,0.1-0.2,0.2-0.4,0.3c-0.2,0.1-0.3,0.1-0.5,0.1C146.3,82.6,146.1,82.5,146,82.4z"/>
<path class="st29" d="M148.7,80.5h0.6v2.1h-0.6V80.5z"/>
<path class="st29" d="M151.6,82h-0.3v0.5h-0.6v-2.1h0.9c0.2,0,0.3,0,0.5,0.1c0.1,0.1,0.2,0.1,0.3,0.3c0.1,0.1,0.1,0.2,0.1,0.4
	c0,0.1,0,0.3-0.1,0.4c-0.1,0.1-0.2,0.2-0.3,0.3l0.4,0.6H152L151.6,82z M151.9,81c-0.1-0.1-0.2-0.1-0.3-0.1h-0.3v0.6h0.3
	c0.1,0,0.2,0,0.3-0.1c0.1-0.1,0.1-0.1,0.1-0.2S151.9,81.1,151.9,81z"/>
<path class="st29" d="M154.3,82.4c-0.2-0.1-0.3-0.2-0.4-0.4c-0.1-0.2-0.1-0.3-0.1-0.6c0-0.2,0-0.4,0.1-0.6c0.1-0.2,0.2-0.3,0.4-0.4
	c0.2-0.1,0.4-0.1,0.6-0.1c0.2,0,0.4,0,0.5,0.1c0.2,0.1,0.3,0.2,0.4,0.3l-0.4,0.3c-0.1-0.2-0.3-0.2-0.5-0.2c-0.1,0-0.2,0-0.3,0.1
	c-0.1,0-0.2,0.1-0.2,0.2c0,0.1-0.1,0.2-0.1,0.3c0,0.1,0,0.2,0.1,0.3c0,0.1,0.1,0.2,0.2,0.2c0.1,0,0.2,0.1,0.3,0.1
	c0.2,0,0.4-0.1,0.5-0.2l0.4,0.3c-0.1,0.1-0.2,0.2-0.4,0.3c-0.2,0.1-0.3,0.1-0.5,0.1C154.7,82.6,154.5,82.5,154.3,82.4z"/>
<path class="st29" d="M157.2,82.3c-0.2-0.2-0.3-0.4-0.3-0.7v-1.1h0.6v1.1c0,0.3,0.1,0.5,0.4,0.5c0.3,0,0.4-0.2,0.4-0.5v-1.1h0.6v1.1
	c0,0.3-0.1,0.5-0.3,0.7c-0.2,0.2-0.4,0.2-0.7,0.2C157.6,82.6,157.4,82.5,157.2,82.3z"/>
<path class="st29" d="M160.3,80.5h0.6v1.6h1v0.5h-1.6V80.5z"/>
<path class="st29" d="M164.5,82.1h-0.9l-0.2,0.4h-0.6l0.9-2.1h0.6l0.9,2.1h-0.6L164.5,82.1z M164.3,81.7L164,81l-0.3,0.7H164.3z"/>
<path class="st29" d="M167.3,82H167v0.5h-0.6v-2.1h0.9c0.2,0,0.3,0,0.5,0.1c0.1,0.1,0.2,0.1,0.3,0.3c0.1,0.1,0.1,0.2,0.1,0.4
	c0,0.1,0,0.3-0.1,0.4c-0.1,0.1-0.2,0.2-0.3,0.3l0.4,0.6h-0.6L167.3,82z M167.6,81c-0.1-0.1-0.2-0.1-0.3-0.1H167v0.6h0.3
	c0.1,0,0.2,0,0.3-0.1c0.1-0.1,0.1-0.1,0.1-0.2S167.6,81.1,167.6,81z"/>
<path class="st29" d="M173.1,82.1v0.4h-1.6v-2.1h1.6v0.4h-1v0.3h0.9v0.4H172v0.4H173.1z"/>
<path class="st29" d="M174.8,82.4c-0.2-0.1-0.3-0.2-0.4-0.4c-0.1-0.2-0.1-0.3-0.1-0.6c0-0.2,0-0.4,0.1-0.6c0.1-0.2,0.2-0.3,0.4-0.4
	c0.2-0.1,0.4-0.1,0.6-0.1c0.2,0,0.4,0,0.5,0.1c0.2,0.1,0.3,0.2,0.4,0.3l-0.4,0.3c-0.1-0.2-0.3-0.2-0.5-0.2c-0.1,0-0.2,0-0.3,0.1
	c-0.1,0-0.2,0.1-0.2,0.2c0,0.1-0.1,0.2-0.1,0.3c0,0.1,0,0.2,0.1,0.3c0,0.1,0.1,0.2,0.2,0.2c0.1,0,0.2,0.1,0.3,0.1
	c0.2,0,0.4-0.1,0.5-0.2l0.4,0.3c-0.1,0.1-0.2,0.2-0.4,0.3c-0.2,0.1-0.3,0.1-0.5,0.1C175.2,82.6,175,82.5,174.8,82.4z"/>
<path class="st29" d="M178,82.4c-0.2-0.1-0.3-0.2-0.4-0.4s-0.1-0.3-0.1-0.5c0-0.2,0-0.4,0.1-0.5c0.1-0.2,0.2-0.3,0.4-0.4
	c0.2-0.1,0.4-0.1,0.6-0.1c0.2,0,0.4,0,0.6,0.1c0.2,0.1,0.3,0.2,0.4,0.4c0.1,0.2,0.1,0.3,0.1,0.5c0,0.2,0,0.4-0.1,0.5
	c-0.1,0.2-0.2,0.3-0.4,0.4c-0.2,0.1-0.4,0.1-0.6,0.1C178.3,82.6,178.1,82.5,178,82.4z M178.8,82c0.1,0,0.2-0.1,0.2-0.2
	c0-0.1,0.1-0.2,0.1-0.3c0-0.1,0-0.2-0.1-0.3c0-0.1-0.1-0.2-0.2-0.2c-0.1,0-0.2-0.1-0.3-0.1c-0.1,0-0.2,0-0.3,0.1
	c-0.1,0-0.2,0.1-0.2,0.2c0,0.1-0.1,0.2-0.1,0.3c0,0.1,0,0.2,0.1,0.3c0,0.1,0.1,0.2,0.2,0.2c0.1,0,0.2,0.1,0.3,0.1
	C178.7,82.1,178.8,82.1,178.8,82z"/>
<path class="st29" d="M183,80.5v2.1h-0.5l-0.9-1.1v1.1H181v-2.1h0.5l0.9,1.1v-1.1H183z"/>
<path class="st29" d="M184.8,82.4c-0.2-0.1-0.3-0.2-0.4-0.4s-0.1-0.3-0.1-0.5c0-0.2,0-0.4,0.1-0.5c0.1-0.2,0.2-0.3,0.4-0.4
	c0.2-0.1,0.4-0.1,0.6-0.1c0.2,0,0.4,0,0.6,0.1c0.2,0.1,0.3,0.2,0.4,0.4c0.1,0.2,0.1,0.3,0.1,0.5c0,0.2,0,0.4-0.1,0.5
	c-0.1,0.2-0.2,0.3-0.4,0.4c-0.2,0.1-0.4,0.1-0.6,0.1C185.2,82.6,185,82.5,184.8,82.4z M185.7,82c0.1,0,0.2-0.1,0.2-0.2
	c0-0.1,0.1-0.2,0.1-0.3c0-0.1,0-0.2-0.1-0.3c0-0.1-0.1-0.2-0.2-0.2c-0.1,0-0.2-0.1-0.3-0.1c-0.1,0-0.2,0-0.3,0.1
	c-0.1,0-0.2,0.1-0.2,0.2c0,0.1-0.1,0.2-0.1,0.3c0,0.1,0,0.2,0.1,0.3c0,0.1,0.1,0.2,0.2,0.2c0.1,0,0.2,0.1,0.3,0.1
	C185.5,82.1,185.6,82.1,185.7,82z"/>
<path class="st29" d="M189.7,82.5l0-1.1l-0.5,0.9h-0.3l-0.5-0.9v1.1h-0.5v-2.1h0.5l0.7,1.2l0.7-1.2h0.5l0,2.1H189.7z"/>
<path class="st29" d="M192.7,81.8v0.7h-0.6v-0.7l-0.8-1.3h0.6l0.5,0.8l0.5-0.8h0.6L192.7,81.8z"/>
<path class="st29" d="M193.8,72.9c-0.4,0-0.7,0-1.1,0c0-0.8,0-1.6,0-2.4c0-0.3-0.2-0.6-0.4-0.8c-0.4-0.3-1,0.1-1,0.7
	c0,0.8,0,1.6,0,2.4c-0.4,0-0.7,0-1.1,0c0-0.4,0-0.9,0-1.4c0-0.3,0-0.6,0-0.9c0-0.5-0.3-0.8-0.7-0.8c-0.4,0-0.7,0.3-0.7,0.8
	c0,0.8,0,1.5,0,2.3c-0.4,0-0.7,0-1.1,0c0-1.4,0-2.7,0-4.1c0.3,0,0.7,0,1,0c0,0.1,0.1,0.3,0.1,0.4c0.8-0.7,1.6-0.8,2.3,0
	c0.2-0.1,0.4-0.3,0.6-0.4c0.9-0.5,1.7-0.1,2.1,0.9C193.8,70.8,193.8,71.8,193.8,72.9z"/>
<path class="st29" d="M185.9,70.8c0,1.2-1,2.2-2.2,2.2c-1.2,0-2.2-0.9-2.2-2.2c0-1.2,1-2.2,2.2-2.2
	C184.9,68.6,185.9,69.5,185.9,70.8z M184.8,70.8c0-0.7-0.5-1.2-1.1-1.2c-0.6,0-1,0.5-1,1.2c0,0.7,0.5,1.2,1.1,1.2
	C184.3,72,184.8,71.5,184.8,70.8z"/>
<path class="st29" d="M180.1,69.3c-0.2,0.2-0.4,0.5-0.6,0.6c-0.4-0.1-0.8-0.3-1.2-0.3c-0.2,0-0.4,0.2-0.6,0.3
	c-0.4,0.4-0.4,1.2,0,1.6c0.4,0.5,0.9,0.5,1.8,0c0.2,0.2,0.4,0.4,0.6,0.6c-0.6,0.9-2,1.1-2.9,0.3c-0.9-0.8-1-2.3-0.2-3.2
	C177.8,68.4,179.2,68.4,180.1,69.3z"/>
<path class="st29" d="M174.7,71.7c0,0.4,0,0.8,0,1.2c-0.4,0-0.7,0-1.1,0c0-0.4,0-0.7,0-1.2C173.9,71.7,174.3,71.7,174.7,71.7z"/>
<path class="st29" d="M172,72.8c-1.6,0-3.3,0-4.9,0c0,0,0,0-0.1,0c0-2.8,0-5.6,0-8.5c1.7,0,3.3,0,5,0c0,0.7,0,1.3,0,2
	c-0.9,0-1.8,0-2.7,0c0,0.4,0,0.7,0,1c0,0.1,0,0.2,0.2,0.2c0.6,0,1.2,0,1.8,0c0.2,0,0.3,0,0.5,0c0,0.7,0,1.3,0,1.9
	c-0.8,0-1.7,0-2.5,0c0,0.5,0,0.9,0,1.4c0.9,0,1.8,0,2.7,0C172,71.5,172,72.1,172,72.8z"/>
<path class="st29" d="M162.7,73c-0.3-0.1-0.6-0.1-0.9-0.2c-1.2-0.3-1.9-1.2-2-2.4c-0.1-0.7,0-1.4,0.2-2.1c0.4-1.2,1.3-1.9,2.6-1.9
	c0.5,0,0.9,0,1.4,0.1c1,0.3,1.5,1.1,1.8,2.1c0.1,0.6,0.1,1.2,0,1.8c-1.2,0-2.4,0-3.6,0c0,0.3,0.2,0.5,0.5,0.6
	c0.3,0.2,0.7,0.2,1.1,0.1c0.6,0,1.1-0.2,1.6-0.4c0,0.4,0.1,0.8,0.1,1.1c0,0,0,0.1,0,0.1c0.1,0.6,0.1,0.5-0.4,0.6
	c-0.5,0.1-1,0.2-1.4,0.3c-0.1,0-0.1,0-0.2,0C163.2,73,162.9,73,162.7,73z M162.1,68.9c0.5,0,0.9,0,1.4,0c0.1-0.5-0.2-0.9-0.6-0.9
	C162.4,68,162,68.4,162.1,68.9z"/>
<path class="st29" d="M149.2,69c0.1-0.1,0.3-0.3,0.4-0.4c0.4-0.3,0.7-0.3,1,0.1c0.2,0.2,0.3,0.4,0.5,0.6c0.1,0.1,0.1,0.1,0.2,0.2
	c0.2-0.2,0.3-0.3,0.5-0.4c0.5-0.4,0.9-0.5,1.4,0c0.4,0.3,0.7,0.7,1.1,1c0.8,0.7,1.7,0.9,2.8,0.6c1-0.3,1.9-0.7,2.6-1.3
	c0.1-0.1,0.1-0.2,0.2-0.3c0,0,0,1-0.1,1.1c-0.2,0.1-0.4,0.2-0.6,0.4c-0.8,0.5-1.7,0.8-2.6,0.9c-1.1,0.1-2-0.2-2.8-0.9
	c-0.3-0.3-0.6-0.6-1-0.9c-0.3-0.3-0.4-0.2-0.7,0c-0.1,0.1-0.2,0.3-0.4,0.4c-0.4,0.3-0.8,0.2-1.1-0.2c-0.2-0.2-0.3-0.5-0.5-0.8
	c-0.5,0.3-0.9,0.8-1.2,1.3c-0.2,0.2-0.3,0.5-0.5,0.7c-0.1,0.2-0.3,0.2-0.4,0.1c-0.2-0.1-0.2-0.2-0.1-0.5c0.1-0.2,0.1-0.3,0.2-0.6
	c-0.2,0.1-0.3,0.1-0.5,0.2c-0.6,0.2-1.2,0.5-1.9,0.6c-0.8,0.1-1.6,0-2.4-0.1c-0.3,0-0.6-0.1-0.8,0c-0.6,0.1-0.7,0-0.7-0.6
	c0,0,0-0.1,0-0.1c-0.2,0-0.3,0.1-0.4,0.1c-1,0.3-2,0.5-3,0.3c-0.5-0.1-0.9,0.2-1.2,0.5c-0.2,0.2-0.3,0.3-0.5,0.5
	c-0.4,0.2-0.8,0.1-0.8-0.3c0-0.1,0-0.2,0.1-0.3c0.2-0.5,0-0.9-0.3-1.3c-0.2-0.2-0.4-0.5-0.6-0.7c-0.5-0.7-0.5-1.4-0.4-2.2
	c0.2-1.2,0.7-2.2,1.5-3.1c0.9-0.9,1.9-1.5,3.2-1.4c0.7,0,1.2,0.5,1.3,1.1c0.1,0.7-0.1,1.4-0.3,2.1c-0.3,1.2-0.9,2.2-1.5,3.3
	c-0.1,0.2-0.3,0.5-0.4,0.7c-0.1,0.3,0,0.5,0.3,0.5c0.3,0,0.6,0.1,0.9,0c0.7,0,1.3-0.2,1.9-0.5c0.3-0.1,0.4-0.3,0.4-0.6
	c0.1-0.5,0.4-0.9,0.9-1c0.3-0.1,0.5,0,0.8,0.1c0.3,0.1,0.4,0.4,0.3,0.8c-0.1,0.3-0.2,0.7-0.3,1c-0.1,0.4,0,0.5,0.4,0.5
	c0.9,0.1,1.9,0.1,2.8-0.3c0.5-0.2,1-0.5,1.4-0.9c0.1-0.1,0.2-0.1,0.2-0.2c0.2-0.2,0.3-0.2,0.5,0C149,68.9,149.1,68.9,149.2,69z
	 M137.7,69C137.7,69,137.7,69,137.7,69c0.9-1.3,1.6-2.7,2-4.1c0.1-0.5,0.2-1,0.2-1.5c0-0.4-0.3-0.6-0.7-0.6c-0.5-0.1-1,0.1-1.4,0.3
	c-1.3,0.6-2.9,2.4-2.6,4.6c0.1,0.6,0.4,1.2,0.9,1.5c0.3,0.2,0.4,0.1,0.7-0.1c0.1-0.1,0.1-0.2,0.2-0.2c0.1-0.1,0.3-0.1,0.4,0
	C137.5,68.9,137.6,68.9,137.7,69z M142.7,68.6c0.2,0.1,0.4,0.2,0.6,0.3c0-0.2,0.1-0.5-0.2-0.5C142.9,68.3,142.8,68.4,142.7,68.6z"/>
<path class="st29" d="M106.8,81.9c-0.2-0.1-0.3-0.2-0.3-0.4c0.1-1.4,0.2-2.7,0.3-4.1c0-0.7,0.1-1.5,0.1-2.2c0-0.1,0-0.2,0-0.2
	c0-0.4-0.2-0.6-0.6-0.4c-0.6,0.2-1.3,0.5-1.9,0.8c-0.1,0-0.2,0.1-0.3,0.1c-0.2,0-0.3,0-0.4-0.2c-0.1-0.1-0.1-0.3,0.1-0.4
	c0.3-0.2,0.6-0.4,0.9-0.6c0.1,0,0.2,0,0.2,0c0.3,0,0.5-0.1,0.8-0.2c0.3-0.1,0.6-0.3,0.9-0.5c0.4-0.3,0.5-0.7,0.6-1.1
	c0.1-1.1,0.2-2.3,0.2-3.5c0-0.4,0-0.7,0.1-1.1c0-0.2,0.2-0.3,0.3-0.3c0.2,0,0.3,0.1,0.3,0.3c0,0.7-0.1,1.5-0.1,2.2
	c0,0.7-0.1,1.3-0.1,2c0,0.6,0.2,0.8,0.8,0.6c1.3-0.5,2.5-1,3.8-1.4c1.8-0.6,3.6-1.1,5.4-1.7c0.1,0,0.3,0,0.4,0
	c0.1,0,0.3,0.1,0.4,0.1c0.1-0.1,0.2-0.3,0.3-0.4c0.3-0.4,0.6-0.4,0.8,0c0.2,0.2,0.3,0.5,0.5,0.7c0.1,0.1,0.2,0.2,0.2,0.2
	c0.4,0.4,0.9,0.5,1.4,0.2c0.4-0.2,0.7-0.5,1-0.7c0,0,0-0.1,0.1-0.2c0.2-0.9,0.6-1.7,1.3-2.4c0.2-0.2,0.5-0.4,0.8-0.5
	c0.4-0.1,0.7,0.2,0.7,0.6c0,0.5-0.2,1-0.4,1.4c-0.2,0.4-0.5,0.7-0.7,1c-0.2,0.2-0.4,0.2-0.5,0.1c-0.2-0.1-0.2-0.4,0-0.6
	c0.2-0.3,0.4-0.5,0.6-0.8c0.2-0.3,0.3-0.6,0.4-0.9c0,0-0.1,0-0.1-0.1c-0.2,0.2-0.4,0.4-0.6,0.6c-0.4,0.5-0.7,1.1-0.8,1.8
	c0,0.1,0,0.2,0,0.2c0,0.5,0.1,0.6,0.6,0.5c0.4-0.1,0.9-0.2,1.3-0.4c1.5-0.7,3-1.6,4.3-2.5c0.1-0.1,0.2-0.2,0.3-0.4
	c0.3-0.3,0.6-0.6,1.1-0.7c0.4,0,0.6,0.2,0.7,0.6c0,0.5-0.1,0.9-0.4,1.3c-0.2,0.4-0.5,0.7-0.8,1.1c-0.2,0.2-0.4,0.3-0.5,0.1
	c-0.2-0.1-0.1-0.4,0-0.6c0.3-0.4,0.5-0.8,0.8-1.2c0.1-0.1,0.1-0.3,0.1-0.4c-0.1,0-0.2,0.1-0.2,0.1c-0.7,0.7-1.2,1.6-1.3,2.7
	c0,0.3,0.1,0.4,0.4,0.4c0.4-0.1,0.9-0.2,1.3-0.3c0.9-0.4,1.8-0.9,2.7-1.4c0.2-0.1,0.4-0.1,0.5,0.1c0.1,0.2,0.1,0.5-0.1,0.6
	c-1.2,0.7-2.3,1.4-3.7,1.7c-0.3,0.1-0.6,0.1-0.9,0.1c-0.5,0-0.9-0.5-0.9-1.1c0-0.3,0.1-0.7,0.1-1c0-0.1,0-0.1,0-0.2
	c-0.6,0.4-1.3,0.7-1.9,1.1c-0.9,0.5-1.8,0.9-2.7,1.1c-0.3,0.1-0.6,0.1-0.8,0.1c-0.5-0.1-0.7-0.4-0.8-0.9c-0.1,0.1-0.1,0.1-0.2,0.1
	c-0.4,0.3-0.8,0.5-1.4,0.5c-0.5,0-0.9-0.2-1.2-0.4c-0.2-0.1-0.3-0.3-0.4-0.4c-0.2-0.2-0.3-0.2-0.5,0.1c-0.2,0.4-0.5,0.9-0.7,1.3
	c-0.1,0.2-0.2,0.4-0.3,0.5c-0.1,0.1-0.3,0.1-0.4,0.1c-0.1,0-0.1-0.2-0.1-0.3c0-0.4,0.1-0.8,0.1-1.2c0-0.1,0-0.3,0-0.4
	c-0.5,0.1-0.9,0.2-1.3,0.4c-1.8,0.6-3.7,1.2-5.5,1.9c-0.6,0.2-1.2,0.4-1.8,0.6c-0.9,0.3-1.4,0.9-1.4,1.9c-0.1,1.1-0.1,2.1-0.2,3.2
	c-0.1,1.1-0.1,2.2-0.2,3.2c0,0.2-0.1,0.3-0.2,0.4C106.9,81.9,106.9,81.9,106.8,81.9z"/>
<path class="st29" d="M102.6,69.4c0.1-0.1,0.2-0.3,0.2-0.4c0.4-0.8,1-1.3,1.7-1.7c1.5-0.9,3.1-1.6,4.9-2c1.1-0.3,2.3-0.3,3.5-0.3
	c0.6,0,1.2,0.2,1.8,0.5c0.3,0.2,0.5,0.5,0.7,0.7c0.1,0.1,0.1,0.3-0.1,0.4c-0.2,0.1-0.3,0.1-0.4,0c-0.6-0.8-1.5-1-2.4-1
	c-1.2-0.1-2.3,0.2-3.5,0.5c-1.5,0.4-3,1-4.3,1.9c-0.5,0.3-0.9,0.7-1.1,1.3c0,0,0,0.1-0.1,0.1c-0.3,0.4-0.4,0.4-0.7,0.1
	C102.7,69.5,102.6,69.5,102.6,69.4C102.6,69.4,102.6,69.4,102.6,69.4z"/>
<path class="st29" d="M107.8,55.1v2.8H97.5V45h10.1v2.8h-6.5V50h5.7v2.7h-5.7v2.4H107.8z"/>
<path class="st29" d="M112.6,57.3c-1.1-0.6-1.9-1.4-2.5-2.4c-0.6-1-0.9-2.2-0.9-3.5s0.3-2.4,0.9-3.5c0.6-1,1.5-1.8,2.5-2.4
	c1.1-0.6,2.3-0.9,3.6-0.9c1.2,0,2.2,0.2,3.2,0.6c0.9,0.4,1.7,1,2.4,1.8l-2.3,2.1c-0.8-1-1.8-1.5-3-1.5c-0.7,0-1.3,0.2-1.9,0.5
	c-0.5,0.3-1,0.7-1.3,1.3c-0.3,0.6-0.5,1.2-0.5,1.9c0,0.7,0.2,1.4,0.5,1.9c0.3,0.6,0.7,1,1.3,1.3c0.5,0.3,1.2,0.5,1.9,0.5
	c1.2,0,2.2-0.5,3-1.5l2.3,2.1c-0.6,0.8-1.4,1.4-2.4,1.8s-2,0.6-3.2,0.6C114.9,58.1,113.7,57.8,112.6,57.3z"/>
<path class="st29" d="M126,57.3c-1.1-0.6-1.9-1.4-2.6-2.4c-0.6-1-0.9-2.2-0.9-3.4c0-1.3,0.3-2.4,0.9-3.4c0.6-1,1.5-1.8,2.6-2.4
	c1.1-0.6,2.3-0.9,3.7-0.9c1.4,0,2.6,0.3,3.7,0.9c1.1,0.6,1.9,1.4,2.6,2.4c0.6,1,0.9,2.2,0.9,3.4c0,1.3-0.3,2.4-0.9,3.4
	c-0.6,1-1.5,1.8-2.6,2.4c-1.1,0.6-2.3,0.9-3.7,0.9C128.3,58.1,127.1,57.8,126,57.3z M131.4,54.7c0.5-0.3,0.9-0.7,1.3-1.3
	c0.3-0.6,0.5-1.2,0.5-1.9c0-0.7-0.2-1.4-0.5-1.9c-0.3-0.6-0.7-1-1.3-1.3c-0.5-0.3-1.1-0.5-1.8-0.5c-0.7,0-1.2,0.2-1.8,0.5
	c-0.5,0.3-0.9,0.7-1.3,1.3c-0.3,0.6-0.5,1.2-0.5,1.9c0,0.7,0.2,1.4,0.5,1.9c0.3,0.6,0.7,1,1.3,1.3c0.5,0.3,1.1,0.5,1.8,0.5
	C130.3,55.1,130.9,55,131.4,54.7z"/>
<path class="st29" d="M151,45v12.9h-3l-5.7-6.9v6.9h-3.6V45h3l5.7,6.9V45H151z"/>
<path class="st29" d="M156.4,57.3c-1.1-0.6-1.9-1.4-2.6-2.4c-0.6-1-0.9-2.2-0.9-3.4c0-1.3,0.3-2.4,0.9-3.4c0.6-1,1.5-1.8,2.6-2.4
	c1.1-0.6,2.3-0.9,3.7-0.9c1.4,0,2.6,0.3,3.7,0.9c1.1,0.6,1.9,1.4,2.6,2.4c0.6,1,0.9,2.2,0.9,3.4c0,1.3-0.3,2.4-0.9,3.4
	c-0.6,1-1.5,1.8-2.6,2.4c-1.1,0.6-2.3,0.9-3.7,0.9C158.7,58.1,157.5,57.8,156.4,57.3z M161.8,54.7c0.5-0.3,0.9-0.7,1.3-1.3
	c0.3-0.6,0.5-1.2,0.5-1.9c0-0.7-0.2-1.4-0.5-1.9c-0.3-0.6-0.7-1-1.3-1.3c-0.5-0.3-1.1-0.5-1.8-0.5c-0.7,0-1.2,0.2-1.8,0.5
	c-0.5,0.3-0.9,0.7-1.3,1.3c-0.3,0.6-0.5,1.2-0.5,1.9c0,0.7,0.2,1.4,0.5,1.9c0.3,0.6,0.7,1,1.3,1.3c0.5,0.3,1.1,0.5,1.8,0.5
	C160.7,55.1,161.3,55,161.8,54.7z"/>
<path class="st29" d="M180.8,57.9l0-6.8l-3.3,5.6h-1.6l-3.3-5.4v6.6h-3.4V45h3l4.5,7.4l4.4-7.4h3l0,12.9H180.8z"/>
<path class="st29" d="M193.6,53.3v4.6h-3.6v-4.7L185,45h3.8l3.1,5.1L195,45h3.5L193.6,53.3z"/>
<path class="st29" d="M97.5,28.8h3.6v12.9h-3.6V28.8z"/>
<path class="st29" d="M116,28.8v12.9h-3l-5.7-6.9v6.9h-3.6V28.8h3l5.7,6.9v-6.9H116z"/>
<path class="st29" d="M121.4,41.1c-1.1-0.6-1.9-1.4-2.5-2.4c-0.6-1-0.9-2.2-0.9-3.5s0.3-2.4,0.9-3.5c0.6-1,1.5-1.8,2.5-2.4
	c1.1-0.6,2.3-0.9,3.6-0.9c1.2,0,2.2,0.2,3.2,0.6c0.9,0.4,1.7,1,2.4,1.8l-2.3,2.1c-0.8-1-1.8-1.5-3-1.5c-0.7,0-1.3,0.2-1.9,0.5
	c-0.5,0.3-1,0.7-1.3,1.3c-0.3,0.6-0.5,1.2-0.5,1.9c0,0.7,0.2,1.4,0.5,1.9c0.3,0.6,0.7,1,1.3,1.3c0.5,0.3,1.2,0.5,1.9,0.5
	c1.2,0,2.2-0.5,3-1.5l2.3,2.1c-0.6,0.8-1.4,1.4-2.4,1.8c-0.9,0.4-2,0.6-3.2,0.6C123.6,41.9,122.4,41.7,121.4,41.1z"/>
<path class="st29" d="M132.1,28.8h3.6v10h6.1v2.9h-9.8V28.8z"/>
<path class="st29" d="M144.7,40.4c-1.1-1-1.6-2.5-1.6-4.4v-7.1h3.6v7c0,2.1,0.8,3.1,2.4,3.1c1.6,0,2.4-1,2.4-3.1v-7h3.6v7.1
	c0,1.9-0.5,3.4-1.6,4.4c-1.1,1-2.5,1.6-4.5,1.6S145.8,41.4,144.7,40.4z"/>
<path class="st29" d="M159.2,41.6c-1-0.3-1.8-0.6-2.4-1l1.2-2.7c0.6,0.4,1.2,0.7,2,0.9c0.8,0.2,1.5,0.3,2.2,0.3c1.4,0,2.1-0.3,2.1-1
	c0-0.4-0.2-0.6-0.6-0.8c-0.4-0.2-1-0.4-1.9-0.6c-1-0.2-1.8-0.4-2.4-0.7c-0.7-0.2-1.2-0.6-1.7-1.2c-0.5-0.5-0.7-1.2-0.7-2.1
	c0-0.8,0.2-1.5,0.6-2.1c0.4-0.6,1.1-1.1,1.9-1.5c0.9-0.4,1.9-0.6,3.1-0.6c0.8,0,1.7,0.1,2.5,0.3c0.8,0.2,1.5,0.5,2.2,0.8l-1.1,2.7
	c-1.2-0.7-2.4-1-3.6-1c-0.7,0-1.3,0.1-1.6,0.3c-0.3,0.2-0.5,0.5-0.5,0.8c0,0.3,0.2,0.6,0.6,0.8c0.4,0.2,1,0.3,1.9,0.5
	c1,0.2,1.8,0.4,2.4,0.7c0.6,0.2,1.2,0.6,1.7,1.1c0.5,0.5,0.7,1.2,0.7,2.1c0,0.8-0.2,1.5-0.6,2.1c-0.4,0.6-1.1,1.1-1.9,1.5
	c-0.9,0.4-1.9,0.6-3.1,0.6C161.2,41.9,160.2,41.8,159.2,41.6z"/>
<path class="st29" d="M169.6,28.8h3.6v12.9h-3.6V28.8z"/>
<path class="st29" d="M188.9,28.8l-5.5,12.9h-3.6l-5.5-12.9h3.9l3.5,8.4l3.6-8.4H188.9z"/>
<path class="st29" d="M200,38.9v2.8h-10.3V28.8h10.1v2.8h-6.5v2.2h5.7v2.7h-5.7v2.4H200z"/>
<path class="st29" d="M100.3,24.2c-1.1-0.6-1.9-1.4-2.5-2.4c-0.6-1-0.9-2.2-0.9-3.5s0.3-2.4,0.9-3.5c0.6-1,1.5-1.8,2.5-2.4
	c1.1-0.6,2.3-0.9,3.6-0.9c1.2,0,2.2,0.2,3.2,0.6c0.9,0.4,1.7,1,2.4,1.8l-2.3,2.1c-0.8-1-1.8-1.5-3-1.5c-0.7,0-1.3,0.2-1.9,0.5
	c-0.5,0.3-1,0.7-1.3,1.3c-0.3,0.6-0.5,1.2-0.5,1.9c0,0.7,0.2,1.4,0.5,1.9c0.3,0.6,0.7,1,1.3,1.3c0.5,0.3,1.2,0.5,1.9,0.5
	c1.2,0,2.2-0.5,3-1.5l2.3,2.1c-0.6,0.8-1.4,1.4-2.4,1.8c-0.9,0.4-2,0.6-3.2,0.6C102.6,25,101.4,24.8,100.3,24.2z"/>
<path class="st29" d="M111.1,11.9h3.6v12.9h-3.6V11.9z"/>
<path class="st29" d="M122.9,21.4h-2v3.4h-3.6V11.9h5.9c1.2,0,2.2,0.2,3,0.6c0.9,0.4,1.5,0.9,2,1.7c0.5,0.7,0.7,1.6,0.7,2.5
	c0,0.9-0.2,1.7-0.7,2.4c-0.4,0.7-1.1,1.2-1.9,1.6l2.8,4h-3.9L122.9,21.4z M124.7,15.3c-0.4-0.3-0.9-0.5-1.7-0.5h-2v3.8h2
	c0.7,0,1.3-0.2,1.7-0.5c0.4-0.3,0.6-0.8,0.6-1.4C125.2,16.1,125.1,15.6,124.7,15.3z"/>
<path class="st29" d="M133.7,24.2c-1.1-0.6-1.9-1.4-2.5-2.4c-0.6-1-0.9-2.2-0.9-3.5s0.3-2.4,0.9-3.5c0.6-1,1.5-1.8,2.5-2.4
	c1.1-0.6,2.3-0.9,3.6-0.9c1.2,0,2.2,0.2,3.2,0.6c0.9,0.4,1.7,1,2.4,1.8l-2.3,2.1c-0.8-1-1.8-1.5-3-1.5c-0.7,0-1.3,0.2-1.9,0.5
	c-0.5,0.3-1,0.7-1.3,1.3c-0.3,0.6-0.5,1.2-0.5,1.9c0,0.7,0.2,1.4,0.5,1.9c0.3,0.6,0.7,1,1.3,1.3c0.5,0.3,1.2,0.5,1.9,0.5
	c1.2,0,2.2-0.5,3-1.5l2.3,2.1c-0.6,0.8-1.4,1.4-2.4,1.8c-0.9,0.4-2,0.6-3.2,0.6C136,25,134.8,24.8,133.7,24.2z"/>
<path class="st29" d="M145.9,23.5c-1.1-1-1.6-2.5-1.6-4.4v-7.1h3.6v7c0,2.1,0.8,3.1,2.4,3.1c1.6,0,2.4-1,2.4-3.1v-7h3.6V19
	c0,1.9-0.5,3.4-1.6,4.4c-1.1,1-2.5,1.6-4.5,1.6S146.9,24.5,145.9,23.5z"/>
<path class="st29" d="M158.8,11.9h3.6v10h6.1v2.9h-9.8V11.9z"/>
<path class="st29" d="M178.8,22.3h-5.4l-1,2.5h-3.7l5.7-12.9h3.6l5.7,12.9h-3.8L178.8,22.3z M177.8,19.6l-1.7-4.1l-1.7,4.1H177.8z"
	/>
<path class="st29" d="M190.3,21.4h-2v3.4h-3.6V11.9h5.9c1.2,0,2.2,0.2,3,0.6c0.9,0.4,1.5,0.9,2,1.7c0.5,0.7,0.7,1.6,0.7,2.5
	c0,0.9-0.2,1.7-0.7,2.4c-0.4,0.7-1.1,1.2-1.9,1.6l2.8,4h-3.9L190.3,21.4z M192,15.3c-0.4-0.3-0.9-0.5-1.7-0.5h-2v3.8h2
	c0.7,0,1.3-0.2,1.7-0.5c0.4-0.3,0.6-0.8,0.6-1.4C192.6,16.1,192.4,15.6,192,15.3z"/>
</svg>
