<?xml version="1.0" encoding="utf-8"?>
<svg version="1.1" id="liberdadedeexpressao" xmlns="http://www.w3.org/2000/svg" xmlns:xlink="http://www.w3.org/1999/xlink"
	 x="0px" y="0px" viewBox="0 0 160 160" style="enable-background:new 0 0 160 160;" xml:space="preserve">
<style type="text/css">
	.st0{fill:#ffffff;}
</style>
<g>
	<path class="st0" d="M39.9,122.5c-0.3-2-0.6-4-1.1-6.9c-2.3-2-2.7-3.7-1.1-7.5c-3-3.5-3.2-5.4-1.2-8.4c-0.4-2.1-1.1-3.9-1.1-5.6
		c0.1-2.7,2.5-4.8,5.3-4.5c3.4,0.4,5-1,6.2-4.1c1.1-2.8,3-5.2,4.6-7.8c0.8-1.2,0.3-2.1-0.4-3.3c-1.2-2.3-2-4.8-2.7-7.3
		c-0.1-0.5,0.8-1.3,1.3-2c0.4,0.6,0.9,1.2,1.2,1.9c0.6,2,1.2,4,1.7,6c0.4-0.1,0.9-0.1,1.3-0.2c0-1.3,0.2-2.6,0-3.8
		c-0.8-3.6,0.6-6.5,3.9-8c3.4-1.5,6.8-2.8,10.1-4.2c2.3-0.9,4.5-0.7,6.7,0.7c1,0.6,2.3,0.8,3.9,1.3c-2.1-4.4-6.6-6.4-10.8-4.7
		c-5.1,2.2-10.7,3.2-14.9,7.3c-0.3,0.3-1.2,0.1-1.7,0.1c0-0.6-0.3-1.5,0-1.8c1.3-1.2,2.5-2.5,4.1-3.2c3.8-1.8,7.6-3.3,11.5-4.8
		c5.2-2,11,0,13.9,4.8c0.8,1.4,1.7,1.7,3.2,1.5c2.8-0.3,5.6-0.4,8.5-0.6c2.8-0.1,4.6,1.3,4.7,3.7c0.1,2.4-1.5,4-4.3,4.2
		c-2.8,0.2-5.7,0.4-8.5,0.5c-1.5,0-2.2,0.7-3.1,1.9c-1.6,2.1-3.5,4.4-5.8,5.5c-4.7,2.2-9.8,3.6-14.6,5.6c-1.1,0.5-1.8,2.2-2.8,3.5
		c7.7,1.7,12.9,6.1,17.4,11.5c0.5,0.6,1.9,0.9,2.8,0.9c14.5,0.1,29,0,43.5,0.1c1.1,0,2.2,0.4,3.4,0.6c0,7.8,0,15.7,0,23.5
		c-4,0.2-7.9,0.4-11.9,0.4c-0.2,0-0.5-1.2-0.7-1.8c0.7-0.2,1.4-0.5,2.1-0.5c2.6-0.1,5.2,0,7.8,0c0-6.8,0-13.1,0-19.4
		c-15.3,0-30.5,0-46.1,0c0,6.5,0,12.8,0,19.4c0.6,0,1.4,0,2.2,0c7.6,0,15.2,0,22.7,0c1.9,0,3.8-0.1,5.7,0.1c0.5,0,1,0.8,1.5,1.3
		c-0.5,0.4-0.9,0.9-1.4,1.1c-0.6,0.2-1.3,0.1-2,0.1c-8.7,0-17.3,0.1-26-0.1c-2.9-0.1-5.4,0.3-7,3c-1.8,0-3.7,0-5.5,0
		c3.8-1.5,6.7-3.8,7-8.2c0.3-4.8,0.4-9.7,0.6-14.5c0.1-2.8-0.9-5-2.9-6.9c-5.5-5.4-11.7-8.7-19.7-7.5c-0.6,0.1-1.5,0.2-1.7,0.6
		c-1.8,3.6-3.5,7.3-5.2,10.9c4,1.3,6.3,0.1,8.3-3.6c0.4-0.8,1.5-2,2.2-1.9c0.9,0.1,2,1.1,2.6,1.9c0.6,0.8,0.4,2.1,0.8,3.1
		c0.7,1.7,1.5,3.4,2.3,5.1c0.3,0.6,1.1,0.8,1.4,1.4c0.3,0.5,0.2,1.2,0.3,1.7c-0.7,0.1-1.4,0.4-1.9,0.1c-0.8-0.4-1.5-1.1-2.2-1.6
		c-0.6,1.2-1.1,2.3-1.5,3.3c-0.2,0.5-0.3,1-0.2,1.5c0.3,2.1,0.7,4.2,1.2,7.1c2.4,1.3,2.2,4.2,1.7,7.3c-1.5,0-3,0-4.5,0
		c1.4-0.8,2.7-1.8,2.1-3.8c-0.6-2-2.2-2-3.9-2c-2.4,0-4.8,0-7.2,0c-1.7,0-3.7-0.1-4,2c-0.2,1.2,1,2.5,1.6,3.7
		C42.2,122.5,41,122.5,39.9,122.5z M46.5,106c1.9,0,3.8,0,5.7,0c1.8-0.1,3.1-0.9,3-2.9c0-1.8-1.2-2.7-3-2.7c-3.8,0-7.7,0-11.5,0
		c-1.7,0-3,0.8-3,2.6c-0.1,1.9,1.1,2.9,2.9,3C42.7,106.1,44.6,106,46.5,106z M47.1,114.1c1.7,0,3.3,0.1,5,0c1.6-0.1,2.7-0.9,2.8-2.6
		c0.1-1.9-1-2.9-2.7-2.9c-3.4-0.1-6.8-0.1-10.2,0c-1.6,0.1-2.6,1.1-2.5,2.8c0.1,1.7,1.1,2.6,2.7,2.7
		C43.8,114.2,45.4,114.1,47.1,114.1z M81.9,63.6C81.9,63.6,81.9,63.6,81.9,63.6c3.5-0.3,7-0.4,10.4-0.7c0.7-0.1,1.3-1,1.9-1.5
		c-0.7-0.4-1.4-1.1-2.1-1.1c-6.7,0.3-13.4,0.8-20.2,1.3c-0.7,0.1-1.4,1-2.1,1.5c0.8,0.4,1.6,1.1,2.4,1.1
		C75.5,64.1,78.7,63.8,81.9,63.6z M79.3,66.4c-1.6,0.1-2.6,0-3.3,0.4c-4,1.8-8,3.7-11.8,5.7c-1.3,0.7-2.3,1.9-3.4,2.8
		c0.3,0.4,0.5,0.7,0.8,1.1C67.2,73.1,74.5,72.9,79.3,66.4z M52.4,82.4c0.2,0.2,0.3,0.4,0.5,0.7c0.9-0.4,2.3-0.6,2.6-1.3
		c2-4.4,3.9-8.9,5.6-13.3c0.2-0.5-0.3-1.3-0.5-1.9c-0.6,0.3-1.6,0.4-1.8,0.8C56.7,72.3,54.6,77.4,52.4,82.4z M70.2,67.1
		c-3.4-1.9-3.6-4.4-1.8-7.5c-3.1,1.3-5.8,2.4-8.8,3.7c4,1.5,4.1,1.6,4.5,6.3C66,68.8,67.8,68,70.2,67.1z M41.5,97.7
		c0.7-1.8,1.3-3.6,2-5.3c-3.9-0.4-5.4,0.3-5.7,2.3C37.6,96.5,38.8,97.5,41.5,97.7z"/>
	<path class="st0" d="M124.9,49.5c-0.7,0.5-1.4,1.1-2.1,1.6c-0.2-0.9-0.7-1.8-0.5-2.6c0.6-3.9-1.3-7.8-4.8-9.6
		c-0.8-0.4-1.6-0.8-2.5-1.2c6.4-0.5,6.7-0.3,9.9,6.8C124.9,46.1,124.9,47.8,124.9,49.5z"/>
	<path class="st0" d="M100.4,37.7c-4.1,1.3-7,3.5-7.6,7.8c-0.1,0.8,0.6,1.7,1,2.6c0.5-0.7,1.3-1.3,1.5-2.1c0.7-3.3,3-5.4,6.5-5.4
		c3.7-0.1,7.5-0.1,11.2,0c3.8,0.1,6.4,2.5,6.5,6.2c0.1,3.7-2.2,6.3-6.1,6.5c-3.6,0.2-7.2,0-10.7,0.1c-0.8,0-1.5,0.8-2.3,1.3
		c0.8,0.4,1.5,1.2,2.3,1.3c3.5,0.1,7,0.2,10.5,0c1.8-0.1,3.6-1.2,5.4-1.6c0.7-0.2,1.4,0,2.2,0c-0.3,0.7-0.3,1.8-0.8,2
		c-2,0.9-4.1,1.9-6.3,2.1c-3.8,0.3-7.7,0.1-11.5,0.1c-2.8,0-4.3-1.4-4.4-3.8c-0.1-2.5,1.4-4,4.3-4.1c3.5-0.1,7,0,10.5,0
		c2.9,0,4.3-1.3,4.3-3.7c0-2.4-1.5-3.8-4.3-3.8c-3.5-0.1-7-0.1-10.5,0c-2.7,0-3.8,1.1-4.3,3.9c-0.4,2.6-2.1,4.1-4.4,3.8
		c-2.3-0.3-3.8-2.3-3.5-4.9c0-0.2,0-0.3,0.1-0.5C91.4,40.7,92.4,36.4,100.4,37.7z"/>
</g>
</svg>
