<?xml version="1.0" encoding="utf-8"?>
<svg version="1.1" id="conexoesb2b2p2ph2si" xmlns="http://www.w3.org/2000/svg" xmlns:xlink="http://www.w3.org/1999/xlink"
	 x="0px" y="0px" viewBox="0 0 160 160" style="enable-background:new 0 0 160 160;" xml:space="preserve">
<style type="text/css">
	.st0{fill:#ffffff;}
</style>
<path class="st0" d="M31,24.4c5.2,0.1,8.5,4.3,7.4,8.8c-0.7,3,2.4,6.2,5.4,5.6c1.2-0.2,2.7-0.5,3.7,0c2.3,1.2,4.2,0.5,6.3-0.4
	c5.6-2.5,11.3-4.8,16.9-7.4c1.1-0.5,2.1-1.6,2.7-2.6c1.4-2.5,3.4-4,6.3-4.1c3-0.1,5.1,1.4,6.7,3.9c0.8,1.2,1.9,2.4,3.2,3
	c5.9,2.7,11.8,5.2,17.7,7.6c1.3,0.5,2.9,0.2,4.3,0.2c1.3,0,2.7-0.5,4-0.3c3.6,0.5,6.5-2.1,5.8-5.6c-0.6-3.4,0.8-6.4,3.6-7.9
	c2.8-1.5,6.4-0.9,8.6,1.5c2,2.2,2.5,5.9,1,8.5c-1.6,2.8-4.7,4-8.1,3.3c-3-0.7-6,2.5-5.4,5.6c0.2,0.9,0.5,2.2,0.1,2.9
	c-1.7,3-0.1,5.4,0.9,8c1.8,4.3,3.6,8.6,5.4,13c1.1,2.6,2.1,5,5,6.7c4.6,2.6,3.7,9.5-1,12c-1.1,0.6-2.2,1.6-2.7,2.7
	c-2.7,6.2-5.3,12.4-7.7,18.7c-0.5,1.2-0.2,2.7-0.2,4.1c0,1.2,0.6,2.5,0.3,3.4c-0.8,2.2,0,3.5,1.5,5.1c1.6,1.7,2.9,1.5,4.9,1
	c3.8-0.8,7.6,2.5,7.9,6.4c0.3,4.4-2.9,7.9-7.2,7.8c-4.2-0.1-7.2-3.5-7-7.8c0.1-1.6,1.3-3.2-0.7-4.7c-1.7-1.3-2.9-3.2-5.5-1.9
	c-0.5,0.3-1.5,0.3-2,0c-3.3-1.8-6,0.1-8.8,1.3c-5.1,2.1-10.1,4.1-15.1,6.3c-1.1,0.5-2.2,1.5-2.8,2.6c-1.5,2.7-3.6,4.2-6.6,4.2
	c-3.1,0-5.3-1.5-6.7-4.4c-0.5-0.9-1.4-1.8-2.4-2.2c-6.4-2.7-12.8-5.4-19.2-7.9c-1-0.4-2.3-0.1-3.5-0.1c-1.2,0.1-2.5,0.7-3.4,0.3
	c-2.9-1.3-4.4,0.6-5.8,2.4c-0.5,0.7-0.9,1.9-0.7,2.7c0.7,3.6-0.3,6.6-3.2,8.3c-2.8,1.6-6.4,1.2-8.7-1.1c-2.2-2.2-2.7-5.8-1.1-8.7
	c1.7-2.9,4.7-4.1,8.3-3.2c2.5,0.6,5.8-2.7,5.3-5.3c-0.2-1-0.5-2.3-0.1-3.2c1.4-3.1,0-5.6-1.1-8.3c-2.2-5.2-4.3-10.5-6.6-15.7
	c-0.5-1.1-1.6-2.1-2.6-2.7c-2.7-1.5-4.1-3.6-4.1-6.6c0-3,1.5-5.1,4.2-6.6c1.1-0.6,2.1-1.7,2.6-2.8c2.6-6,5.2-12,7.5-18.1
	c0.5-1.4,0.2-3.1,0.2-4.7c0-1.1-0.5-2.3-0.1-3.2c1.5-3.4-1.4-4.7-3.1-6.3c-0.5-0.4-1.8,0-2.7,0.1c-2.9,0.4-5.5-0.3-7.2-2.8
	c-1.7-2.3-1.9-4.9-0.5-7.5C26.5,25.6,28.7,24.4,31,24.4z M52.7,42.8c0.3,7.5-1.5,9.5-9,9.8c-0.5,0-1.3,0.5-1.5,0.9
	C39.4,60,36.7,66.6,34,73.1c6.2,4.4,6.2,8.3,0.1,14.1c2.8,6.8,5.7,13.6,8.5,20.4c7.6-1,10.8,2.1,10,9.9c6.8,2.8,13.7,5.7,20.5,8.5
	c4.3-6.2,9.1-6.2,13.9,0c6-2.5,12-5,18-7.4c1.8-0.7,2.5-1.4,2.3-3.5c-0.5-4.5,2.7-7.8,7.1-7.7c0.9,0,1.9,0.2,2.9,0.3
	c2.9-6.9,5.7-13.7,8.5-20.5c-6.1-4.8-6-8.3-0.1-14.3c-2.8-6.8-5.6-13.6-8.4-20.3c-7.8,0.8-10.1-1.5-10.2-9.7
	c-6.7-2.9-13.5-5.8-20.2-8.6c-4.9,6-9.1,6-14.1,0C66.3,37,59.5,39.9,52.7,42.8z M31.2,27.9c-2.1,0.3-3.4,1.5-3.3,3.6
	c0.1,2.1,1.4,3.4,3.5,3.5c2,0.1,3.8-1.9,3.6-3.8C34.7,29.2,33.5,28,31.2,27.9z M128.5,35.1c2.1-0.3,3.5-1.3,3.5-3.5
	c0-2.2-1.2-3.4-3.4-3.6c-2-0.2-3.8,1.6-3.7,3.6C125.1,33.7,126.4,34.8,128.5,35.1z M128.6,132.1c2.1-0.3,3.5-1.4,3.5-3.6
	c0-2.2-1.4-3.4-3.5-3.5c-2-0.2-3.8,1.8-3.6,3.7C125.1,130.9,126.5,131.9,128.6,132.1z M31.5,132.1c2.2-0.2,3.5-1.4,3.6-3.5
	c0.1-2.1-1.3-3.4-3.4-3.6c-2-0.2-3.8,1.7-3.7,3.6C28.1,130.7,29.3,131.9,31.5,132.1z M79.9,132.1c2-0.2,3.4-1.2,3.5-3.4
	c0.1-2.2-1.2-3.4-3.2-3.7c-1.9-0.3-3.9,1.6-3.8,3.5C76.5,130.6,77.7,131.8,79.9,132.1z M83.5,31.5C83.3,29.3,82.2,28,80,28
	c-2.2-0.1-3.4,1.3-3.6,3.4c-0.2,2,1.6,3.8,3.6,3.7C82.2,34.9,83.3,33.6,83.5,31.5z M114.1,49.2c2.3-0.1,3.5-1.2,3.8-3.3
	c0.2-2-1.6-3.9-3.6-3.7c-2.1,0.1-3.4,1.3-3.5,3.5C110.8,47.9,112,49,114.1,49.2z M27.9,80.1c0.3,2.2,1.5,3.4,3.6,3.5
	c2,0.1,3.8-1.9,3.5-3.8c-0.3-2.1-1.5-3.3-3.8-3.2C29,76.6,28.1,78,27.9,80.1z M114.1,117.8c2.2-0.1,3.5-1.2,3.8-3.3
	c0.2-1.9-1.6-3.9-3.6-3.7c-2.1,0.1-3.4,1.3-3.5,3.5C110.7,116.4,112,117.6,114.1,117.8z M49.3,45.8c-0.2-2.1-1.3-3.5-3.4-3.7
	c-2.1-0.1-3.5,1.1-3.7,3.2c-0.2,2.1,1.3,3.8,3.4,3.8C47.8,49.2,48.9,47.9,49.3,45.8z M132.1,80c-0.2-2.1-1.3-3.4-3.5-3.5
	c-2.2-0.1-3.4,1.2-3.7,3.3c-0.2,2,1.6,3.9,3.6,3.7C130.6,83.4,131.8,82.2,132.1,80z M45.5,117.8c2.3-0.1,3.6-1.2,3.8-3.4
	c0.1-2.2-1.3-3.5-3.4-3.6c-2.1-0.1-3.6,1.1-3.6,3.3C42.1,116.4,43.4,117.5,45.5,117.8z"/>
<path class="st0" d="M80,117.7c-20.8,0-37.7-16.8-37.8-37.6c-0.1-20.9,17-38,37.8-37.9c20.7,0.1,37.7,17.1,37.7,37.8
	C117.7,100.7,100.7,117.7,80,117.7z M80,99.7c4.6,0,9.2-0.1,13.8,0c1.7,0,2.6-0.5,3.1-2.2c3.8-11.7,3.9-23.4,0-35.1
	c-0.5-1.6-1.2-2.3-3-2.3c-9.3,0.1-18.5,0.1-27.8,0c-1.6,0-2.4,0.5-2.9,2.1c-3.9,11.8-3.9,23.5-0.1,35.3c0.6,1.7,1.5,2.2,3.2,2.1
	C70.8,99.7,75.4,99.7,80,99.7z M66.1,103.6c2.6,6.4,9.1,11,14.6,10.6c5.4-0.4,11.6-5.4,13.1-10.6C84.5,103.6,75.3,103.6,66.1,103.6z
	 M94,56.6c-2.9-6.8-9.3-11.2-15-10.7c-5.3,0.5-11.5,5.6-12.7,10.7C75.4,56.6,84.6,56.6,94,56.6z M59.4,60.2c-1.2,0-2.6-0.1-4.1,0
	c-1.2,0.1-3,0-3.5,0.7c-3.6,5-5.7,10.7-5.8,17.3c3.2,0,6.1,0.1,9-0.1c0.6,0,1.5-0.8,1.6-1.4C57.7,71.3,58.5,65.9,59.4,60.2z
	 M113.9,78.1c-0.2-6.5-2.3-11.9-5.6-17c-0.3-0.5-1.1-0.9-1.7-0.9c-2.1-0.1-4.3,0-6.3,0c1.1,6.1,2.3,11.9,3.4,17.9
	C107,78.1,110.3,78.1,113.9,78.1z M56.2,82.1c-3.3,0-6.7,0-10.2,0c0.2,5.9,2,11.1,5,15.9c0.4,0.7,1.2,1.6,1.8,1.6
	c2.3,0.2,4.6,0.1,6.7,0.1C58.4,93.6,57.3,87.9,56.2,82.1z M100.4,99.7c1.7,0,3.4,0.1,5,0c1-0.1,2.4-0.2,2.9-0.8
	c3.4-5,5.5-10.5,5.6-16.8c-3.7,0-7,0-10.1,0C102.6,88,101.5,93.7,100.4,99.7z M104.3,104.4c-0.2-0.5-0.3-0.9-0.5-1.4
	c-2,0.5-4.5,0.3-5.9,1.5c-1.9,1.6-2.9,4.2-4.3,6.4c0.1,0.2,0.3,0.4,0.4,0.6C97.5,109.1,100.9,106.7,104.3,104.4z M65.8,111.4
	c0.2-0.2,0.4-0.4,0.6-0.6c-1-1.4-2-2.8-2.9-4.3c-2.3-3.6-3.2-3.9-8.3-2.5C59,106.7,62.4,109,65.8,111.4z M94.3,48.6
	c-0.2,0.2-0.4,0.4-0.6,0.7c1,1.4,2,2.8,3,4.3c2.1,3.4,3.4,3.9,8.1,2.4C101,53.3,97.6,51,94.3,48.6z M66.1,49.3
	c-0.2-0.2-0.3-0.4-0.5-0.6c-3.4,2.3-6.7,4.7-10.1,7c0.2,0.4,0.3,0.8,0.5,1.2c2-0.3,4.5,0,5.8-1.2C63.8,54.2,64.8,51.5,66.1,49.3z"/>
<path class="st0" d="M80,97.9C70,97.9,62.1,90,62.1,80c0-10.1,8-18.1,18.1-18c9.8,0.1,17.8,8.2,17.8,18C97.9,90,89.9,97.9,80,97.9z
	 M68.2,88.1c1.8-2.3,3.5-4.5,5.4-6.8c-0.9-3.6-2.2-7.6,1.3-10.9c1.9-1.8,7.6-2,9.7-0.3c4.1,3.2,2.5,7.5,1.8,11.2
	c1.8,2.3,3.5,4.5,5.2,6.6c4.2-5.8,3.5-13.6-1.9-18.5c-5.5-5.1-13.5-5.3-19.2-0.4C65,73.9,64,81.7,68.2,88.1z M80.4,94.7
	c2-0.6,4.4-1.3,6.7-2.2c0.5-0.2,1.1-1.3,1-2c-0.4-3.3-3.2-6.1-6.5-6.7c-3.5-0.7-7,0.9-8.7,4c-1.9,3.4-1.6,4.4,2.1,5.7
	C76.5,94,78.2,94.2,80.4,94.7z M76.4,76.2c-0.4,2.6,0.5,3.9,3.4,3.9c2.7,0,3.9-0.7,3.8-3.6c-0.1-2.4-0.5-3.9-3.3-3.8
	C77.8,72.8,75.9,73,76.4,76.2z"/>
</svg>
