<?xml version="1.0" encoding="utf-8"?>
<svg version="1.1" id="segurancanastransacoes" xmlns="http://www.w3.org/2000/svg" xmlns:xlink="http://www.w3.org/1999/xlink"
	 x="0px" y="0px" viewBox="0 0 160 160" style="enable-background:new 0 0 160 160;" xml:space="preserve">
<style type="text/css">
	.st0{fill:#ffffff;}
</style>
<path class="st0" d="M82.1,125.6c-1.3,0-2.7,0-4,0c-5.4-2.4-11.3-4.2-16.2-7.4c-15.8-10.5-24.9-25-24.6-44.5c0.1-6.7,0.1-13.4,0-20
	c0-2,0.5-3.1,2.5-3.8c12.9-4.9,25.8-10.1,38.7-15c1-0.4,2.5-0.3,3.5,0.1c8.1,3.1,16.1,6.3,24.2,9.4c5.5,2.1,11,4.1,16.6,6.2
	c0,10.7,0,21.4,0,32.1c-0.1,0.3-0.3,0.6-0.4,0.9c-2.6,14.7-10.9,25.7-22.8,34.2C94.2,121.4,88.2,123.5,82.1,125.6z M80.1,80
	c0,12.3,0,24.6,0,37c18-4,32.7-23.1,32.9-37.1c-6.2,0-12.3,0-18.5,0C89.6,79.9,84.8,80,80.1,80c0-0.4,0.1-0.9,0.1-1.4
	c0-11.3,0-22.7,0-34c0-0.4-0.1-0.8-0.2-1.3c-0.5,0.1-0.8,0.2-1.1,0.3c-10.1,3.9-20.2,7.9-30.3,11.7c-1.5,0.6-1.7,1.4-1.7,2.8
	c0,6.5,0,13,0,19.5c0,0.7,0.1,1.4,0.2,2.4C58.2,80,69.2,80,80.1,80z"/>
</svg>
