<?xml version="1.0" encoding="utf-8"?>
<svg version="1.1" id="seuespacopersonalizavel" xmlns="http://www.w3.org/2000/svg" xmlns:xlink="http://www.w3.org/1999/xlink"
	 x="0px" y="0px" viewBox="0 0 160 160" style="enable-background:new 0 0 160 160;" xml:space="preserve">
<style type="text/css">
	.st0{fill:#ffffff;}
</style>
<path class="st0" d="M129.4,120c-0.1-1.4,0-2.8,0-4.1c0-1.5-0.7-2.2-2.2-2.2c-2.2,0-4.3,0-6.5,0c-6,0-6,0-7.2-5.8
	c-1.9-8.6-3.8-17.3-5.6-26c2,0,3.7,0,5.6,0c0,1.8-0.1,3.4,0,5.1c0.1,0.8,0.4,2.1,1,2.3c0.6,0.3,1.7-0.3,2.4-0.9
	c1.6-1.4,3.2-2.9,4.6-4.5c1.4-1.6,2.9-2.5,5.1-2.2c2.1,0.3,2.9-0.7,2.9-2.8c-0.1-5.5-0.1-11,0-16.5c0.1-2.3-0.8-3-3-3
	c-8.6,0.1-17.2,0.1-25.8,0c-2.3,0-3.3,0.7-3.2,3.1c0.1,3.1,0,6.3,0,9.4c-3.4,0-6.3,0-10,0c0.7-1.4,1.2-2.4,1.7-3.3
	c0.9-1.4,1.7-2.8,2.7-4.1c0.6-0.8,1.4-1.8,2.3-2.2c1.9-0.9,3.2-2.1,3.2-4.3c0-4.2,0.2-8.4-0.1-12.6c-0.6-7.9-6.9-13.7-14.8-13.7
	c-2.5,0-5-0.1-7.5,0C73.5,32,72,32.3,70.8,33c-4.6,2.6-7.6,6.6-8.1,11.9c-0.5,4.4-0.3,8.9-0.3,13.4c0,2,1.4,3.5,3.4,4.1
	c1.3,0.4,6.2,7.9,6.1,9.2c0,0.1-0.1,0.1-0.3,0.5c-2.9,0-6,0-9,0c-5.6,0.1-8.9,2.9-10.2,8.3c-1.7,6.8-3.7,13.6-5.7,20.5
	c-3.5-0.2-6.8,0.2-7.9,3.9c-1,3.4-0.3,6.6,3.6,8.9c-3.6,0-6.5-0.1-9.4,0c-0.7,0-2.1,0.5-2.1,0.9c-0.2,2.5-0.4,5,0,7.4
	c0.1,0.7,1.8,1.2,2.3,1.5c0.7,1.8,1.3,3.2,1.8,4.7c30.1,0,60.2,0,90.3,0c0.5-1.6,1-3.2,1.5-5C129.1,123.7,129.5,122.1,129.4,120z
	 M100.9,62.8c8.3,0,16.7,0,25.2,0c0,5.2,0,10.3,0,15.9c-4.8-1.3-6.2,3.1-9,4.9c-0.2-0.2-0.4-0.3-0.4-0.5c-0.3-4.6-0.3-4.6-4.9-4.6
	c-3.5,0-7,0-10.8,0C100.9,73.3,100.9,68.1,100.9,62.8z M92.6,59.4c0.1-2.3,0.2-4.4,0.3-6.4c0.2,0,0.5,0.1,0.7,0.1
	C94.8,55.6,94.5,58.1,92.6,59.4z M66.7,58.9c-0.2,0-0.5,0.1-0.7,0.1c0-2,0-4,0-6c0.2,0,0.5,0,0.7,0C66.7,55,66.7,57,66.7,58.9z
	 M65.9,49.8C64,40.3,72.3,32.5,82.3,34c7.3,1.1,12.2,6.9,11.9,14.1c0,0.6-0.4,1.1-0.6,1.7c-0.3-0.5-0.8-0.9-0.9-1.4
	c-0.5-2-1.7-1.7-3.2-1.2C81.8,49.5,73.9,50,65.9,49.8z M70.4,60.2c-0.1-2.3,0-4.6,0-6.9c6.6-0.8,12.8-1.6,19.1-2.4
	c0,3.3,0.2,6.7-0.1,10.1c-0.4,5.2-4.7,8.2-10.7,7.9C74,68.7,70.5,65.1,70.4,60.2z M82.9,77.7c-1.8,1.2-4,1.3-5.8,0.1
	c-2.2-1.4-2.1-3.7-1.8-5.9c3.3,0,6.2,0,9.3,0C84.7,74.1,85,76.3,82.9,77.7z M50.8,97.7c1.6-5.9,3.2-11.8,4.8-17.6
	c0.7-2.6,2.8-4.4,5.6-4.6c2.1-0.1,4.3,0,6.4-0.1c2.5-0.1,4.5-0.1,5.8,3c1.1,2.8,4.3,3.5,7.3,3.3c2.9-0.2,5.4-1.5,6.5-4.4
	c0.6-1.6,1.4-2.1,3-2c2.3,0.1,4.6,0,6.9,0c0.5,2.1,0.3,4.8,1.4,5.8c1.3,1.1,3.9,0.6,6.2,0.8c2.3,10.4,4.5,20.8,6.8,31.5
	c-2.6,0-4.9,0-7.6,0c0-1,0-1.9,0-2.8c0-6.9,0-13.8,0-20.6c0-4.7-2.1-6.7-6.8-6.7c-11.4,0-22.9,0-34.3,0c-4.6,0-6.7,2.1-6.7,6.8
	c0,7.7,0,15.5,0,23.5c-1.8,0-3.3,0-5.3,0c3.5-2.3,4.3-5.2,3.3-8.7c-0.3-1-1-2.4-1.8-2.7C49.6,101.3,50.3,99.6,50.8,97.7z M59.1,90.1
	c0-2.8,0.7-3.6,3.5-3.6c11.5,0,23,0,34.6,0c2,0,3.5,0.5,3.5,2.8c0,7.8,0,15.6,0,23.5c0,0.2-0.2,0.5-0.3,0.8c-13.6,0-27.2,0-41.2,0
	c0-3.2,0-6.2,0-9.3C59.1,99.6,59.1,94.8,59.1,90.1z M41.6,106.5c0-0.3,0.1-0.5,0.2-0.7c0.6-1.7,3.8-2.4,7.2-1.6
	c1.9,0.4,2.3,1.8,2.2,3.5c-0.1,2.4-1,3-4.8,3C42.4,110.5,41.2,109.5,41.6,106.5z M122.9,124.5c-28.7,0-57.3,0-86,0
	c-0.1-0.2-0.1-0.5-0.2-0.7c0.7-0.2,1.5-0.5,2.2-0.6c3.8-0.1,7.6,0,11.3,0c23.2,0,46.4,0,69.6,0c1,0,2,0.2,3.1,0.3
	C123,123.9,123,124.2,122.9,124.5z M126.1,119.8c-30.7,0-61.4,0-92.3,0c0-0.9,0-1.7,0-2.8c30.7,0,61.4,0,92.3,0
	C126.1,118,126.1,118.8,126.1,119.8z"/>
<path class="st0" d="M34.4,68.8c2.2-0.3,3.7,0.5,5.1,2.2c1.5,1.8,3.2,3.4,4.9,4.9c0.5,0.5,1.6,0.8,2.2,0.6c0.4-0.1,0.8-1.2,0.8-1.9
	c0.1-1.8,0-3.6,0-5.7c3.6,0,6.8-0.1,9.9,0c2.1,0.1,2.9-0.6,2.9-2.8c-0.1-5.6-0.1-11.2,0-16.7c0-2-0.6-2.8-2.7-2.8
	c-7.8,0.1-15.6,0.1-23.4,0c-1.9,0-2.6,0.8-2.6,2.6c0,5.7,0.1,11.3,0,17C31.7,68.1,32.4,69.1,34.4,68.8z M35.1,49.9
	c7.2,0,14.5,0,21.9,0c0,5.2,0,10.3,0,15.8c-3,0-5.8,0-8.7,0c-3.8,0-3.8,0-3.9,3.9c0,0.4-0.1,0.8-0.1,1.4c-3.1-1.8-4.4-6.4-9.2-5.1
	C35.1,60.4,35.1,55.2,35.1,49.9z"/>
<path class="st0" d="M81,108.7c3.6,0.1,6.4-2.7,6.5-6.3c0-3.4-2.7-6.3-6.1-6.4c-3.6-0.1-6.5,2.6-6.6,6.2
	C74.7,105.8,77.5,108.7,81,108.7z M81.1,99.2c1.8-0.1,3.3,1.4,3.2,3.5c-0.2,1.6-1.2,2.7-3.1,2.8c-1.8,0.1-3.3-1.5-3.2-3.2
	C78.1,100.4,79.2,99.3,81.1,99.2z"/>
<path class="st0" d="M79.4,65.6c0.4,0.3,1.2,0.1,1.8,0.1c0,0,0,0,0,0c0.5,0,1.2,0.2,1.5,0c0.6-0.4,1-1.1,1.5-1.7
	c-0.9-0.4-1.8-1.3-2.7-1.3c-1.2,0-2.3,0.7-3.5,1.1C78.5,64.4,78.8,65.2,79.4,65.6z"/>
<path class="st0" d="M76.4,57.5c0.4,0.1,1.1-0.7,2-1.4c-0.9-0.7-1.4-1.6-1.9-1.5c-0.6,0.1-1.2,0.9-1.7,1.4
	C75.3,56.6,75.8,57.4,76.4,57.5z"/>
<path class="st0" d="M86,57.5c0.4,0.1,1.1-0.8,1.9-1.5c-0.9-0.7-1.4-1.4-2-1.4c-0.5,0-1,0.8-1.5,1.3C85,56.5,85.4,57.4,86,57.5z"/>
<path class="st0" d="M105.6,68.9c-0.7,0-1.4,0.9-2,1.4c0.7,0.5,1.4,1.5,2.1,1.5c2.9,0.2,5.8,0.1,8.7,0.1c3,0,6,0.1,9-0.1
	c0.8,0,1.6-0.9,2.3-1.4c-0.7-0.6-1.4-1.6-2.2-1.6C117.6,68.8,111.6,68.8,105.6,68.9z"/>
<path class="st0" d="M114.5,67.2c2.9,0,5.8,0.1,8.7-0.1c0.9-0.1,1.7-0.9,2.6-1.4c-0.8-0.5-1.6-1.5-2.4-1.6c-5.8-0.1-11.7-0.1-17.5,0
	c-0.8,0-1.5,0.9-2.3,1.4c0.8,0.5,1.6,1.5,2.4,1.5C108.8,67.4,111.6,67.2,114.5,67.2z"/>
<path class="st0" d="M109.8,76.8c1.5,0,2.9,0.2,4.4-0.1c0.7-0.1,1.3-1,1.9-1.6c-0.6-0.5-1.2-1.4-1.8-1.4c-3-0.1-6-0.1-9,0
	c-0.6,0-1.2,0.9-1.8,1.4c0.6,0.5,1.2,1.4,1.9,1.6C106.9,77,108.4,76.8,109.8,76.8z"/>
<path class="st0" d="M117.9,75.2c0.7,0.7,1.3,1.3,2.4,2.4c1-1,1.6-1.7,2.2-2.3c-0.8-0.5-1.6-1.4-2.4-1.5
	C119.4,73.8,118.7,74.7,117.9,75.2z"/>
<path class="st0" d="M45.8,54.4c2.5,0,5,0.1,7.5-0.1c0.8-0.1,1.5-0.9,2.3-1.4c-0.7-0.5-1.5-1.5-2.2-1.6c-4.9-0.1-9.8-0.1-14.7,0
	c-0.7,0-1.4,1-2.1,1.6c0.8,0.5,1.5,1.3,2.3,1.4C41.2,54.6,43.5,54.4,45.8,54.4z"/>
<path class="st0" d="M46.1,59.3c2.4,0,4.8,0.1,7.2-0.1c0.8-0.1,1.5-1,2.3-1.5c-0.7-0.5-1.5-1.5-2.2-1.5c-4.9-0.1-9.8-0.1-14.6,0
	c-0.7,0-1.4,1-2.1,1.6c0.7,0.5,1.3,1.4,2,1.4C41.1,59.4,43.6,59.3,46.1,59.3z"/>
<path class="st0" d="M38.1,64c0.9,0.3,2,0.1,3.1,0.1c0,0,0,0,0,0c1.1,0,2.3,0.2,3.3-0.1c0.6-0.1,1.3-1,1.3-1.5
	c0-0.5-0.8-1.4-1.3-1.4c-2.1-0.2-4.3-0.2-6.4,0c-0.5,0-1.5,1-1.4,1.3C36.8,63,37.5,63.8,38.1,64z"/>
<path class="st0" d="M47.7,62.6c0.6,0.6,1.3,1.2,2.3,2.3c1-1.1,1.6-1.8,2.3-2.5c-0.8-0.5-1.6-1.4-2.3-1.3
	C49.2,61.1,48.5,62.1,47.7,62.6z"/>
</svg>
