<?xml version="1.0" encoding="utf-8"?>
<svg version="1.1" id="responsabilidadesocioeconomica"
	 xmlns="http://www.w3.org/2000/svg" xmlns:xlink="http://www.w3.org/1999/xlink" x="0px" y="0px" viewBox="0 0 160 160"
	 style="enable-background:new 0 0 160 160;" xml:space="preserve">
<style type="text/css">
	.st0{fill:#ffffff;}
</style>
<path class="st0" d="M46.3,83.9c-0.2,11.4,3.5,20.5,11.2,28.6c0.1-1,0.3-1.7,0.3-2.3c0-5.5,0-11.1,0-16.6c0-3.9,1-4.8,5-4.9
	c1.6,0,3.2,0,5.1,0c0-3.2,0-6.2,0-9.2c0-3.8-0.1-7.5,0-11.3c0.1-2,0.4-4,0.6-6.2c-4.3,0-9,0-13.9,0c0-1.2,0-2.1,0-3.3
	c4.3,0,8.5,0,13,0c0-5.7,0-11.2,0-17c-5.4-0.8-10.8-1.6-16.5-2.5c0,2.2,0,4,0,6c-1.1,0.1-2,0.1-3.1,0.2c-0.7-3.1,1-7.2-2.6-9
	c-2.2-1.1-4.9-0.9-7.7-1.3c0,2.3-0.1,4,0,5.7c0.2,2.6,2,4.2,4.7,4.6c6.1,0.8,8.6,3.6,8.6,9.8c0,2.1,0,4.3,0,6.7c-2.2,0-4.2,0-6.4,0
	c-0.2,1.2-0.3,2.1-0.5,3.2c-0.9,0-1.8,0-3,0c0.4-2.5-1.2-3.5-3.1-4.7c-4.4-2.7-3.7-7.2-3.5-11.6c1,0,1.9,0,2.8,0
	c0.8,3-1.1,6.9,2.4,8.8c2.1,1.1,4.9,1,7.7,1.6c0-2.6,0.3-4.6-0.1-6.6c-0.4-2.7-2.5-3.7-5-4c-5.1-0.5-7.9-3.6-8-8.6c0-2.5,0-5,0-7.9
	c1.3,0,2.5,0.1,3.7,0c1.2-0.1,2.8,0.7,3-1.5c0-0.4,1.6-0.5,2.4-0.7c1.6,3.5,4.5,5.2,7.4,6c5.3,1.4,10.7,1.9,16.1,2.6
	c1,0.1,2.3-0.2,3.2-0.8c5.1-3.4,10.6-5.6,16.6-6.2c5.4-0.6,10.8-1,16.3-1.3c3.7-0.2,4.9,1.5,4.2,5.1c-0.2,1.1-0.7,2.2-1.3,3.7
	c2.1,0,4,0,5.9,0c3.7,0.1,5.4,1.8,5.6,5.4c0,0.6,0.2,1.4,0.6,1.8c3.7,3.5,3.7,6-0.3,9.2C132.4,74,134,93.5,119.8,113
	c-10.7,14.7-30.3,20.6-48,15.5c-14.9-4.3-31.9-18.6-32.5-44.9c-1.5,2.1-2.6,3.8-4,5.8c-2.2-2.6-3.6-4.3-5-5.8c4-4,8.4-8.3,12.6-12.5
	c4,4,8.3,8.3,12.7,12.8c-1.3,1.3-2.9,2.8-4.6,4.4C49.6,87.1,48.2,85.7,46.3,83.9z M87.9,92c4.1,0,8.1,0,12.1,0c3.3,0,4.4,1,4.4,4.3
	c0,6.3,0,12.5,0,18.8c0,0.8,0.1,1.7,0.2,2.7c0.8-0.4,1.3-0.6,1.7-0.9c16.7-11.4,21.5-34.7,10.8-51.8c-1.5-2.4-2.9-4-5.9-2.9
	c-0.2,5.1-1.6,6.4-6.9,6.4c-2,0-3.9,0-5.9,0c-3.5,0-6.9,0-10.4,0C87.9,76.6,87.9,84.1,87.9,92z M81.3,45.4c2.8,0.2,4.2-1.5,5.8-3.3
	c1.4-1.6,3.7-2.6,5.8-3.2c1.9-0.5,4.1-0.1,6.1-0.2c2.6-0.1,4.4-1.3,5.3-3.8c0.7-2.1-0.1-3-2.3-2.6C98,33,94,33.8,90,34.2
	c-6.1,0.6-11.9,2.3-17.1,5.7c-1.3,0.9-1.9,1.8-1.9,3.4c0.1,4.3,0,8.6,0,12.9c0,4.1,1.8,5.8,6,5.8c2.3,0,4.7-0.2,7,0.1
	c1.2,0.1,2.2,1.1,3.3,1.7c0.9,0.5,1.8,1.4,2.7,1.4c4.9,0.1,9.8,0.1,14.7,0.1c1.3,0,3.1,0.2,2.8-1.8c-0.1-0.6-1.8-1.5-2.8-1.5
	c-4.4-0.2-8.9-0.1-13.4-0.1c-1.1-5.3,1.6-11.2-2.7-15.3c-2.6,0.8-4.9,1.5-7.4,2.3C81.3,47.4,81.3,46.6,81.3,45.4z M87.9,123.8
	c3.5-0.9,6.5-1.5,9.4-2.4c4.2-1.3,4.2-1.5,3.5-5.9c-4.3,0-8.6,0-12.9,0C87.9,118.2,87.9,120.7,87.9,123.8z M94.3,48.6
	c-0.3,0.3-0.5,0.6-0.8,0.9c0.8,0.9,1.6,2.4,2.4,2.4c6.5,0.2,13,0.2,19.5,0c0.8,0,1.5-1.1,2.3-1.6c-0.8-0.6-1.5-1.6-2.3-1.6
	C108.4,48.6,101.4,48.6,94.3,48.6z M90.4,42.8c-0.1,0.4-0.1,0.8-0.2,1.2c1.1,0.5,2.3,1.3,3.4,1.3c6,0.1,12.1,0.1,18.2,0
	c0.9,0,1.8-1.1,2.7-1.7c-0.9-0.5-1.8-1.4-2.7-1.4c-6-0.1-12.1-0.1-18.2,0C92.5,42.1,91.5,42.5,90.4,42.8z M94.6,58.7
	c6.1,0,12.1,0,18-0.1c0.6,0,1.2-1,1.8-1.6c-0.7-0.5-1.3-1.5-2-1.5c-2.8-0.2-5.7-0.1-8.5-0.1c-3.1,0-6.2,0-9.4,0
	C94.6,56.7,94.6,57.6,94.6,58.7z M71.2,68.5c4.5,0,8.8,0,13.3,0c-0.1-1.1-0.1-2.1-0.2-3c-4.5,0-8.8,0-13.1,0
	C71.2,66.5,71.2,67.4,71.2,68.5z M87.9,98.5c4.4,0,8.7,0,13.2,0c-0.1-1.2-0.1-2.1-0.1-3.1c-4.5,0-8.7,0-13.1,0
	C87.9,96.5,87.9,97.5,87.9,98.5z M61.2,101.8c4.5,0,8.7,0,13,0c0-1.1,0-2,0-3c-4.4,0-8.7,0-13,0C61.2,99.9,61.2,100.8,61.2,101.8z
	 M74.4,115.2c-0.1-1.2-0.1-2.1-0.1-3.1c-4.5,0-8.8,0-13,0c0,1.1,0,2.1,0,3.1C65.7,115.2,70,115.2,74.4,115.2z M84.4,72.2
	c-4.4,0-8.7,0-13.1,0c0,1.1,0,2,0,3c4.4,0,8.7,0,13.1,0C84.4,74.2,84.4,73.3,84.4,72.2z M71.2,81.8c4.6,0,8.8,0,13.1,0
	c0-1.1,0-2,0-3c-4.5,0-8.8,0-13.1,0C71.2,79.9,71.2,80.7,71.2,81.8z M84.5,85.6c-4.5,0-8.9,0-13.2,0c0,1.1,0,2,0,3
	c4.4,0,8.7,0,13.1,0C84.4,87.6,84.5,86.7,84.5,85.6z M74.4,92.1c-4.5,0-8.7,0-13,0c0,1.1,0,2.1,0,3c4.5,0,8.7,0,13,0
	C74.4,94.1,74.4,93.2,74.4,92.1z M87.9,105.2c4.5,0,8.8,0,13,0c0-1.1,0-2.1,0-2.9c-4.5,0-8.8,0-13.2,0
	C87.8,103.4,87.9,104.2,87.9,105.2z M74.3,105.5c-4.5,0-8.7,0-13,0c0,1.1,0,2,0,3c4.4,0,8.7,0,13,0
	C74.3,107.5,74.3,106.6,74.3,105.5z M87.8,111.7c4.4,0,8.7,0,13.1,0c0-1,0-1.9,0-2.8c-4.5,0-8.8,0-13.1,0
	C87.8,109.9,87.8,110.7,87.8,111.7z M84.4,118.9c-2.3,0-4.3,0-6.4,0c0,1.5,0,2.7,0,4.3c2.2,0.2,4.2,0.3,6.4,0.5
	C84.4,121.8,84.4,120.5,84.4,118.9z M84.5,101.9c-0.1-1.2-0.1-2.1-0.1-3.1c-2.3,0-4.3,0-6.5,0c0.1,1.1,0.1,2.1,0.2,3.1
	C80.3,101.9,82.2,101.9,84.5,101.9z M77.9,112c0.1,1.3,0.1,2.2,0.2,3.2c2.3,0,4.2,0,6.2,0c0-1.1,0-2.1,0-3.2
	C82.2,112,80.2,112,77.9,112z M84.3,95.2c0-1.2,0-2.1,0-3c-2.2,0-4.3,0-6.5,0c0.1,1.1,0.1,2.1,0.2,3C80.3,95.2,82.2,95.2,84.3,95.2z
	 M78,108.5c2.2,0,4.3,0,6.3,0c0-1.1,0-2,0-3c-2.2,0-4.2,0-6.3,0C78,106.5,78,107.5,78,108.5z M74.3,118.9c-2.6,0-5,0-7.4,0
	c0,0.2-0.1,0.4-0.1,0.5c2.4,0.9,4.8,1.9,7.6,3C74.3,121,74.3,120,74.3,118.9z"/>
</svg>
