<?xml version="1.0" encoding="utf-8"?>
<!-- Generator: Adobe Illustrator 24.2.0, SVG Export Plug-In . SVG Version: 6.00 Build 0)  -->
<svg version="1.1" id="liberdadedeexpressao" xmlns="http://www.w3.org/2000/svg" xmlns:xlink="http://www.w3.org/1999/xlink"
	 x="0px" y="0px" viewBox="0 0 160 160" style="enable-background:new 0 0 160 160;" xml:space="preserve">
<style type="text/css">
	.st0{fill:#FFFFFF;}
</style>
<path class="st0" d="M57,40.2c1.7-0.6,3.2-0.7,4.7,0.4c1.2,0.9,1.7,2.1,1.7,3.6c0,3.4,0,6.8,0,10.2c0,0.3,0,0.7,0,1
	c0.8-0.1,1.4-0.2,2-0.2c2.2,0.1,4,1.9,4.1,4.2c0.1,3,0,6,0,8.9c0,1.8-0.7,3.4-1.8,4.9c-2.1,2.7-4.1,5.5-6.3,8.1
	c-1,1.3-1.1,2.7-1,4.2c0,0.2,0.2,0.4,0.3,0.5c1.5,0.7,1.8,2,1.8,3.5c0,0.4,0,0.9,0,1.4c0.9,0,1.8,0,2.8,0c0-0.3,0.1-0.6,0.1-0.9
	c0.1-2.5,1.8-4.2,4.3-4.2c0.5,0,1,0,1.6,0c0.7,0.1,1.1,0.5,1.1,1.2c0,0.8-0.4,1.2-1.2,1.3c-0.3,0-0.6,0-1,0c-1.8,0-2.4,0.7-2.2,2.7
	c0.5,0,1,0,1.5,0c0.7,0,1.3,0.4,1.3,1.2c0.1,0.8-0.5,1.3-1.2,1.4c-0.5,0.1-1,0-1.5,0c-0.4,1.7,0.3,2.6,2,2.7c1.7,0,3.4,0,5.1,0
	c1,0,1.6,0.5,1.6,1.3c0,0.8-0.6,1.3-1.6,1.3c-1.7,0-3.3,0-5,0c-3.2,0-4.7-1.5-4.8-4.7c0-0.1,0-0.3,0-0.5c-0.9,0-1.8,0-2.8,0
	c0,0.6,0,1.2,0,1.7c0,1.3-0.4,2.4-1.6,3.1c-0.3,0.2-0.4,0.7-0.4,1.1c0,6.9,0,13.8,0,20.7c0,0.3,0,0.7,0,1c-0.1,0.7-0.5,1.2-1.3,1.2
	c-0.7,0-1.1-0.5-1.2-1.2c0-0.4,0-0.7,0-1.1c0-6.7,0-13.5,0-20.2c0-0.4,0-0.8,0-1.2c-5.3,0-10.4,0-15.7,0c0,0.4,0,0.8,0,1.2
	c0,6.7,0,13.3,0,20c0,0.3,0,0.5,0,0.8c0,1.1-0.5,1.7-1.3,1.7c-0.8,0-1.2-0.6-1.2-1.7c0-7,0-13.9,0-20.9c0-0.7,0-1.3-0.8-1.7
	c-0.8-0.4-1.2-1.3-1.3-2.3c0-2.4,0-4.9,0-7.3c0-1.1,0.5-1.9,1.4-2.4c0.6-0.3,0.6-0.7,0.7-1.2c0.3-2.4-0.6-4.6-1.5-6.8
	c-1.3-3.3-1.7-6.6-1.7-10.2c0.1-6.7,0.2-13.4,0-20.1c-0.1-3.4,2.2-6.2,5.8-5.2c1-1,1.8-2,2.9-2.7c1.1-0.7,2.5-0.5,3.8,0
	c0.8-1.6,2.1-2.6,4-2.6C54.8,37.5,56.1,38.5,57,40.2z M57.7,85.8c0-0.3,0.1-0.6,0.1-0.8c-0.2-2.3,0.6-4.1,2.1-5.9
	c1.9-2.3,3.7-4.7,5.5-7c1.1-1.4,1.7-2.9,1.6-4.7c0-0.8,0-1.7,0-2.5c0-1.7,0-3.4,0-5.1c0-1.2-0.7-1.9-1.7-1.9c-1.1,0-1.8,0.7-1.8,2
	c0,0.3,0,0.6,0,0.9c0,2.3,0,4.7,0,7c0,0.8-0.3,1.4-1.2,1.5c-0.7,0.1-1.3-0.6-1.3-1.5c0-0.3,0-0.6,0-0.9c0-7.3,0-14.6,0-22
	c0-0.4,0-0.8-0.1-1.2c-0.2-0.8-0.7-1.3-1.6-1.3c-0.8-0.1-1.5,0.3-1.7,1.1c-0.1,0.4-0.1,0.9-0.1,1.3c0,4.9,0,9.8,0,14.7
	c0,0.3,0.1,0.7-0.1,0.9c-0.3,0.4-0.8,0.9-1.2,1c-0.4,0-0.9-0.5-1.2-0.9c-0.2-0.2-0.1-0.7-0.1-1c0-5.6,0-11.2,0-16.8
	c0-0.4,0-0.7,0-1.1c-0.2-0.9-0.9-1.5-1.8-1.4c-0.8,0-1.5,0.7-1.7,1.5c0,0.4,0,0.7,0,1.1c0,5.6,0,11.1,0,16.7c0,0.4,0,0.7-0.1,1.1
	c-0.1,0.6-0.6,1-1.3,1c-0.7,0-1.1-0.4-1.2-1.1c0-0.3,0-0.6,0-1c0-4.9,0-9.7,0-14.6c0-0.4,0-0.9-0.2-1.3c-0.3-0.8-0.9-1.2-1.8-1.1
	c-0.8,0.1-1.4,0.6-1.5,1.4c-0.1,0.4-0.1,0.8-0.1,1.2c0,4.8,0,9.7,0,14.5c0,0.4,0,0.7-0.1,1.1c-0.1,0.7-0.6,1-1.3,1
	c-0.7,0-1.1-0.4-1.2-1c-0.1-0.3,0-0.6,0-1c0-3.9,0-7.8,0-11.7c0-0.4,0-0.7,0-1.1c-0.1-0.8-0.7-1.3-1.5-1.4c-0.9-0.1-1.5,0.3-1.8,1.1
	c-0.1,0.4-0.2,0.9-0.2,1.3c0,7.2,0,14.4,0,21.7c0,2.4,0.3,4.6,1.1,6.8c1.1,3,2.4,6,2,9.4c0,0.1,0.1,0.1,0.1,0.2
	C47.4,85.8,52.5,85.8,57.7,85.8z M50,88.4c-3,0-5.9,0-8.9,0c-0.8,0-1.1,0.3-1.1,1.1c0,2,0,3.9,0,5.9c0,0.7,0.3,0.9,0.9,0.9
	c6,0,12,0,18,0c0.7,0,1-0.3,1-1c0-1.9,0-3.9,0-5.8c0-0.9-0.3-1.1-1.1-1.1C55.9,88.4,52.9,88.4,50,88.4z"/>
<path class="st0" d="M92.2,93.7c-1.1-0.3-2.8,0.5-2.8-1.4c0-1.8,1.8-1,2.7-1.3c0.4-1.8-0.3-2.6-2.1-2.6c-1.5,0-2.9,0-4.4,0
	c-0.9,0-1.5-0.5-1.5-1.3c0-0.7,0.6-1.3,1.5-1.3c1.6,0,3.1,0,4.7,0c2.7,0,4.4,1.7,4.5,4.3c0,0.3,0,0.5,0.1,0.8c0.9,0,1.8,0,2.8,0
	c0-0.6,0-1.2,0-1.7c0-1.4,0.4-2.5,1.7-3.2c0.2-0.1,0.4-0.3,0.4-0.5c0.1-1.4,0.1-2.8-0.9-4.1c-2.1-2.7-4.2-5.4-6.3-8.1
	c-1.4-1.8-2-3.7-2-5.9c0-2.5,0.1-5.1,0-7.6c-0.1-3.5,3.2-5.5,5.8-4.5c0.1,0,0.2,0,0.4,0c0-0.4,0-0.7,0-1.1c0-3.1,0.2-6.3,0-9.4
	c-0.2-3.7,2.6-6.2,6.4-4.9c2.1-3.6,6.3-3.3,8.1,0c3.5-0.8,4.7-0.3,6.4,2.8c0.2,0,0.5-0.1,0.7-0.2c2.8-0.6,5.4,1.3,5.4,4.2
	c0,8.4,0.1,16.7,0,25.1c0,1.5-0.6,3-1,4.5c-0.5,1.7-1.2,3.3-1.6,5c-0.3,1.3-0.3,2.7-0.4,4c0,0.2,0.3,0.5,0.5,0.6
	c1.1,0.6,1.6,1.6,1.6,2.8c0,2.3,0,4.5,0,6.8c0,1.1-0.4,2-1.4,2.5c-0.7,0.4-0.8,0.8-0.8,1.5c0,6.9,0,13.7,0,20.6
	c0,1.5-0.4,2.1-1.2,2.1c-0.9,0-1.3-0.7-1.3-2.2c0-6.7,0-13.5,0-20.2c0-0.4,0-0.8,0-1.2c-5.2,0-10.4,0-15.7,0c0,0.5,0,0.9,0,1.3
	c0,6.8,0,13.5,0,20.3c0,1.4-0.4,2-1.3,2c-0.9,0-1.3-0.6-1.3-2c0-6.9,0-13.9,0-20.8c0-0.6-0.1-1.1-0.7-1.4c-1-0.5-1.3-1.5-1.4-2.5
	c0-0.7,0-1.4,0-2.1c-1,0-1.8,0-2.8,0c-0.1,0.6-0.1,1.1-0.2,1.7c-0.3,1.9-1.7,3.2-3.5,3.4c-0.8,0.1-1.6,0.1-2.4,0.1
	c-0.8,0-1.3-0.5-1.3-1.3c0-0.8,0.5-1.2,1.3-1.2c0.4,0,0.7,0,1.1,0C91.7,96.2,92.3,95.6,92.2,93.7z M117.9,85.8
	c0-0.3,0.1-0.5,0.1-0.7c-0.2-2.1,0.3-4.1,1-6.1c0.5-1.5,1.1-2.9,1.5-4.4c0.3-1.2,0.6-2.4,0.6-3.6c0.1-7.8,0-15.5,0-23.3
	c0-0.4,0-0.9-0.1-1.2c-0.3-0.8-0.9-1.2-1.8-1.2c-0.9,0.1-1.4,0.6-1.6,1.5c-0.1,0.3,0,0.7,0,1.1c0,3.9,0,7.8,0,11.7c0,0.3,0,0.7,0,1
	c-0.1,0.7-0.5,1-1.2,1c-0.7,0-1.1-0.3-1.2-1c-0.1-0.3-0.1-0.7-0.1-1.1c0-4.8,0-9.7,0-14.5c0-0.4,0-0.8-0.1-1.2
	c-0.2-0.8-0.7-1.3-1.5-1.4c-0.9-0.1-1.5,0.3-1.8,1.2c-0.1,0.4-0.1,0.9-0.1,1.3c0,4.8,0,9.7,0,14.5c0,0.3,0,0.6,0,1
	c-0.1,0.7-0.5,1.1-1.2,1.2c-0.7,0-1.1-0.4-1.3-1.1c-0.1-0.3,0-0.6,0-1c0-5.5,0-11.1,0-16.6c0-0.4,0-0.7,0-1.1
	c-0.1-0.9-0.8-1.6-1.7-1.6c-0.9,0-1.7,0.6-1.8,1.6c0,0.3,0,0.6,0,1c0,5.6,0,11.1,0,16.7c0,0.3,0,0.7,0,1c-0.1,0.7-0.5,1.1-1.3,1.1
	c-0.7,0-1.1-0.4-1.2-1.1c0-0.3,0-0.6,0-1c0-4.8,0-9.7,0-14.5c0-1.7-0.6-2.6-1.8-2.5c-1.2,0-1.7,0.8-1.7,2.5c0,7.5,0,15,0,22.5
	c0,1.1-0.5,1.7-1.3,1.7c-0.8,0-1.3-0.6-1.3-1.7c0-2.5,0-5,0-7.5c0-1.3-0.7-2.1-1.8-2.1c-1.1,0-1.8,0.8-1.8,2.2c0,2.4,0,4.9,0,7.3
	c0,1.9,0.5,3.5,1.7,5c2,2.5,3.9,5.1,5.9,7.6c1,1.3,1.6,2.8,1.5,4.5c0,0.5,0,0.9,0,1.4C107.5,85.8,112.7,85.8,117.9,85.8z
	 M110.1,88.4c-3,0-6,0-9,0c-0.7,0-1,0.2-1,1c0,2,0,3.9,0,5.9c0,0.8,0.3,1,1,1c6,0,12,0,17.9,0c0.7,0,1-0.2,1-1c0-1.9,0-3.9,0-5.8
	c0-0.8-0.3-1.1-1.1-1.1C116,88.4,113.1,88.4,110.1,88.4z"/>
<path class="st0" d="M78.7,75.4c0-0.7,0-1.5,0-2.2c0-0.8,0.4-1.3,1.3-1.3c0.8,0,1.2,0.5,1.3,1.3c0,1.5,0,3,0,4.5
	c0,0.8-0.4,1.4-1.3,1.4c-0.8,0-1.2-0.6-1.2-1.3C78.7,76.9,78.7,76.1,78.7,75.4z"/>
<path class="st0" d="M89.5,77.9c-0.8,1.1-1.5,2.1-2.3,2.9c-0.2,0.2-1,0.1-1.3-0.2c-0.3-0.2-0.5-0.9-0.4-1.3c0.4-0.9,1-1.8,1.6-2.5
	c0.2-0.3,0.9-0.3,1.3-0.2C88.9,76.8,89.1,77.3,89.5,77.9z"/>
<path class="st0" d="M74.8,79.8c-0.4,0.4-0.7,1-1.1,1.1c-0.4,0.1-1.1-0.1-1.4-0.4c-0.6-0.6-1-1.4-1.4-2.1c-0.3-0.6-0.2-1.3,0.5-1.7
	c0.6-0.4,1.2-0.2,1.6,0.3C73.7,77.9,74.2,78.8,74.8,79.8z"/>
</svg>
