<svg width="56" height="56" viewBox="0 0 56 56" xmlns="http://www.w3.org/2000/svg"><path fill="#ffffff" d="M14.5,24.3c-0.6,0-1.1,0.1-1.6,0.2c0.2-0.6,0.3-1.2,0.6-1.7c0.3-0.8,0.7-1.4,1.2-2.1c0.4-0.7,1-1.2,1.5-1.8s1.2-1,1.7-1.5s1.2-0.8,1.8-1.2c0.6-0.3,1.1-0.7,1.6-0.9l1.3-0.6l1.2-0.5l-1.2-4.8l-1.5,0.4c-0.5,0.1-1.1,0.3-1.7,0.4c-0.7,0.1-1.4,0.5-2.2,0.8c-0.8,0.4-1.7,0.6-2.6,1.2c-0.9,0.5-1.8,1-2.7,1.7c-0.8,0.8-1.9,1.4-2.6,2.4c-0.8,0.9-1.6,1.8-2.3,2.9c-0.7,1-1.2,2.1-1.7,3.2c-0.5,1.1-0.9,2.2-1.2,3.3c-0.6,2.2-0.9,4.3-1,6.1c-0.1,1.8,0,3.3,0.1,4.4c0,0.5,0.1,1,0.2,1.3l0.1,0.4h0.1c0.4,2.1,1.5,4,2.9,5.5c1.5,1.5,3.4,2.6,5.4,3.1c2,0.4,4.2,0.3,6.2-0.3c2-0.7,3.8-1.9,5.1-3.6c1.3-1.6,2.2-3.6,2.4-5.7c0.2-2.1-0.1-4.2-1-6.1c-0.9-1.9-2.3-3.5-4.1-4.7C18.7,24.9,16.6,24.3,14.5,24.3z M41.9,24.3c-0.6,0-1.1,0.1-1.6,0.2c0.2-0.6,0.3-1.2,0.6-1.7c0.3-0.8,0.7-1.4,1.2-2.1c0.4-0.7,1-1.2,1.5-1.8s1.2-1,1.7-1.5s1.2-0.8,1.8-1.2c0.6-0.3,1.1-0.7,1.6-0.9l1.3-0.6l1.2-0.5L50,9.4l-1.5,0.4c-0.5,0.1-1.1,0.3-1.7,0.4c-0.7,0.1-1.4,0.5-2.2,0.8c-0.8,0.4-1.7,0.6-2.6,1.2c-0.9,0.5-1.8,1-2.7,1.7c-0.8,0.8-1.9,1.4-2.6,2.4c-0.8,0.8-1.6,1.8-2.3,2.8s-1.2,2.1-1.7,3.2c-0.5,1.1-0.9,2.2-1.2,3.3c-0.6,2.2-0.9,4.3-1,6.1c-0.1,1.8,0,3.3,0.1,4.4c0,0.5,0.1,1,0.2,1.3l0.1,0.4H31c0.4,2.1,1.5,4,2.9,5.5c1.5,1.5,3.4,2.6,5.4,3.1c2.1,0.5,4.2,0.4,6.2-0.3s3.8-1.9,5.1-3.6c1.3-1.6,2.2-3.6,2.4-5.7s-0.1-4.2-1-6.1c-0.9-1.9-2.3-3.5-4.1-4.6C46.1,24.9,44,24.3,41.9,24.3z"/></svg>