<svg width="56" height="56" viewBox="0 0 56 56" xmlns="http://www.w3.org/2000/svg"><path fill="#413e3e" d="M41.6,31.8c0.6,0,1.1-0.1,1.6-0.2c-0.2,0.6-0.3,1.2-0.6,1.7c-0.3,0.8-0.7,1.4-1.2,2.1c-0.4,0.7-1,1.2-1.5,1.8c-0.5,0.6-1.2,1-1.7,1.5c-0.5,0.5-1.2,0.8-1.8,1.2c-0.6,0.3-1.1,0.7-1.6,0.9l-1.3,0.6l-1.2,0.5l1.2,4.8l1.5-0.4c0.5-0.1,1.1-0.3,1.7-0.4c0.7-0.1,1.4-0.5,2.2-0.8c0.8-0.4,1.7-0.6,2.6-1.2c0.9-0.5,1.8-1,2.7-1.7c0.8-0.8,1.9-1.4,2.6-2.4c0.8-0.9,1.6-1.8,2.3-2.9c0.7-1,1.2-2.1,1.7-3.2c0.5-1.1,0.9-2.2,1.2-3.3c0.6-2.2,0.9-4.3,1-6.1c0.1-1.8,0-3.3-0.1-4.4c0-0.5-0.1-1-0.2-1.3l-0.1-0.4l-0.1,0c-0.4-2.1-1.5-4-2.9-5.5c-1.5-1.5-3.4-2.6-5.4-3.1C42.2,9.2,40,9.3,38,9.9c-2,0.7-3.8,1.9-5.1,3.6c-1.3,1.6-2.2,3.6-2.4,5.7c-0.2,2.1,0.1,4.2,1,6.1c0.9,1.9,2.3,3.5,4.1,4.7C37.4,31.2,39.5,31.8,41.6,31.8zM14.2,31.8c0.6,0,1.1-0.1,1.6-0.2c-0.2,0.6-0.3,1.2-0.6,1.7c-0.3,0.8-0.7,1.4-1.2,2.1c-0.4,0.7-1,1.2-1.5,1.8c-0.5,0.6-1.2,1-1.7,1.5c-0.5,0.5-1.2,0.8-1.8,1.2c-0.6,0.3-1.1,0.7-1.6,0.9l-1.3,0.6l-1.2,0.5l1.2,4.8l1.5-0.4c0.5-0.1,1.1-0.3,1.7-0.4c0.7-0.1,1.4-0.5,2.2-0.8c0.8-0.4,1.7-0.6,2.6-1.2c0.9-0.5,1.8-1,2.7-1.7c0.8-0.8,1.9-1.4,2.6-2.4C20.2,39,21,38,21.7,37c0.7-1,1.2-2.1,1.7-3.2c0.5-1.1,0.9-2.2,1.2-3.3c0.6-2.2,0.9-4.3,1-6.1c0.1-1.8,0-3.3-0.1-4.4c0-0.5-0.1-1-0.2-1.3l-0.1-0.4l-0.1,0c-0.4-2.1-1.5-4-2.9-5.5c-1.5-1.5-3.4-2.6-5.4-3.1c-2.1-0.5-4.2-0.4-6.2,0.3c-2,0.7-3.8,1.9-5.1,3.6c-1.3,1.6-2.2,3.6-2.4,5.7c-0.2,2.1,0.1,4.2,1,6.1C5,27.3,6.4,28.9,8.2,30C10,31.2,12.1,31.8,14.2,31.8z"/></svg>