<?xml version="1.0" encoding="utf-8"?>
<!-- Generator: Adobe Illustrator 24.2.0, SVG Export Plug-In . SVG Version: 6.00 Build 0)  -->
<svg version="1.1" id="iconFreedomeE" xmlns="http://www.w3.org/2000/svg" xmlns:xlink="http://www.w3.org/1999/xlink" x="0px"
	 y="0px" viewBox="0 0 640 640" style="enable-background:new 0 0 640 640;" xml:space="preserve">
<style type="text/css">
	.st0{fill:#413E3E;}
</style>
<path class="st0" d="M9.2,260.1C27.1,172,85,92.9,164.1,49.7C242.6,5.2,340.6-1.9,425.2,29.4c84.9,30.8,154.5,100.4,185.7,185.2
	c32.4,84.5,24.7,182.6-18.8,261.7C548.9,555.8,469.9,614.6,381.4,633c-44.1,9.6-90.3,9.3-134.4-0.7c-44.2-9.9-85.6-31.7-119.1-62.2
	c-33.7-30.3-59.3-68.9-76.4-110.7c-16.8-42-24.8-87.3-23.9-132.4c1.4-90.1,38.1-179.9,103-243.2c32.5-31.3,71.6-56.3,114.7-70.3
	c42.9-14.3,89.6-17.4,134-8.5c44.5,8.6,86.2,29.4,121.2,57.8c34.9,28.7,63.1,65.1,83,105.5c39.4,80.7,45.8,178.5,10.5,262
	c-18,41.4-47.1,77.6-82.4,105.4c-35.3,28-76.7,47.7-120.3,58.5c-43.6,10.9-89.4,12.2-133.6,4.5s-87-24.6-123.4-51
	c-36.6-26.1-66.2-61.6-86-101.9s-29.8-85.2-29.1-130c0.3-22.4,3.2-44.7,8.7-66.5c5.6-21.8,15.1-42.4,27.5-61
	c24.7-37.6,60.3-66.7,99.4-88c39.2-21.4,82.3-35,126.3-41.6c44-6.5,89.2-5.8,132.8,3.4c-43.6-8.9-88.7-9.2-132.6-2.4
	c-43.8,6.9-86.7,20.8-125.5,42.4C117.2,123.6,82.1,152.7,58,190c-25,36.8-34.3,81.8-34.7,125.8c-0.1,44,9.7,88.2,29.3,127.8
	c19.6,39.5,48.8,74.2,84.8,99.7c35.8,25.8,77.8,42.3,121.3,49.6c43.4,7.4,88.4,5.9,131.1-4.9c42.7-10.7,83.2-30.2,117.6-57.7
	c34.4-27.3,62.6-62.7,80-102.9c17.5-40.2,23.6-85,21.6-128.8c-2.2-43.9-13.5-87.3-32.9-126.6c-19.5-39.3-47.2-74.6-81.1-102.3
	C460.9,42.1,420.5,22.1,377.5,14c-42.9-8.4-87.8-5.2-129.2,8.8c-41.6,13.7-79.2,38-110.6,68.4C75,152.5,39.1,239.6,37.6,327.3
	c-0.8,43.8,6.9,87.8,23.1,128.5c16.5,40.5,41.2,77.9,73.7,107.2c32.3,29.5,72.1,50.5,114.7,60.1c42.7,9.7,87.5,10.1,130.3,0.8
	c86-17.9,162.7-74.8,204.7-151.9c42.3-76.8,50-172.2,18.6-254.3c-30.2-82.5-97.9-150.2-180.4-180.4c-82.2-31-177.8-24.7-254.8,18.4
	c-77.7,41.9-135,119-153,205.5c-0.3,1.5-1.7,2.4-3.2,2.1C9.9,262.9,8.9,261.5,9.2,260.1z"/>
<path class="st0" d="M320,41.2C166,41.2,41.2,166,41.2,320S166,598.8,320,598.8S598.8,474,598.8,320S474,41.2,320,41.2z
	 M470.7,230.3L470.7,230.3l-124.4,0.1V293h76.4v42.6h-76.4V398h124.3v51.2H338.8c-17.5,0-30.2-4.3-38-13.1
	c-7.9-8.8-11.8-20.5-11.8-35.3c0,0,0.1-29.8,0.2-65.4H187.3c0.9,5.8,2.6,11.2,5.1,16.2c4.5,8.9,10.9,15.9,19.1,20.9s18,7.5,29.4,7.5
	c10.8,0,20.6-2.6,29.4-7.7c0.3-0.2,0.6-0.4,0.9-0.6c0,9.1-0.1,18.7-0.1,29c0,8.8,1.3,17,3.6,24.4c-10.3,3.1-21.4,4.7-33.3,4.7
	c-20.9,0-39.6-4.5-56.2-13.6c-16.6-9-29.6-21.6-39.1-37.7c-9.5-16.1-14.2-34.8-14.2-56.2c0-19.2,4.4-36.8,13.2-52.9
	c8.8-16.1,21-28.9,36.7-38.5c15.6-9.6,33.8-14.4,54.3-14.4c21,0,38.9,4.6,53.6,13.6c0.1-8,0.1-12.8,0.1-12.9
	c1.4-10,5.1-18.3,11-24.9c7.8-8.7,20.5-13.1,38-13.1h131.9V230.3z"/>
<path class="st0" d="M257.2,271.5c-6.2-3.1-13.4-4.7-21.5-4.7c-8.4,0-15.8,1.7-22.1,4.9c-6.3,3.3-11.5,7.7-15.4,13.2
	c-1.8,2.6-3.4,5.3-4.7,8.1H277c-1.2-3-2.7-5.8-4.6-8.5C268.5,278.9,263.4,274.6,257.2,271.5z"/>
</svg>
