<?xml version="1.0" encoding="utf-8"?>
<!-- Generator: Adobe Illustrator 24.2.0, SVG Export Plug-In . SVG Version: 6.00 Build 0)  -->
<svg version="1.1" id="grafico_2" xmlns="http://www.w3.org/2000/svg" xmlns:xlink="http://www.w3.org/1999/xlink" x="0px" y="0px"
	 viewBox="0 0 400 655" style="enable-background:new 0 0 400 655;" xml:space="preserve">
<style type="text/css">
	.st0{fill:#F1F2F2;}
	.st1{fill:#D1D3D4;}
	.st2{fill:#7495DA;}
	.st3{fill:#DCB7FC;}
	.st4{fill:#606060;}
	.st5{fill:#FDD46A;}
	.st6{stroke:#FFFFFF;stroke-width:0.5;stroke-miterlimit:10;}
</style>
<path class="st0" d="M340.5,238.9H59.5v325.6c0,5.6,4.6,10.2,10.2,10.2h260.5c5.6,0,10.2-4.6,10.2-10.2V238.9z"/>
<circle class="st0" cx="200" cy="199.7" r="197.5"/>
<circle class="st1" cx="200" cy="199.7" r="195"/>
<path class="st2" d="M200,199.7L186.6,8c4.2-0.3,9.2-0.5,13.4-0.5V199.7z"/>
<path class="st3" d="M200,199.7L150.3,14c12.3-3.3,23.6-5.2,36.3-6.1L200,199.7z"/>
<path class="st4" d="M200,199.7L71.4,56.9c23.7-21.3,48.1-34.6,78.9-42.8L200,199.7z"/>
<path class="st5" d="M200,199.7V7.5c106.1,0,192.2,86,192.2,192.2s-86,192.2-192.2,192.2S7.8,305.8,7.8,199.7
	c0-57.3,21-104.5,63.6-142.8L200,199.7z"/>
<path class="st6" d="M218.9,80v25.2h-8.5V86.4h-4.3V80H218.9z"/>
<path class="st6" d="M223.4,91.8c-1.2-1.2-1.9-3-1.9-5.1c0-1.5,0.3-2.7,0.9-3.8s1.4-1.9,2.4-2.4c1-0.6,2.2-0.8,3.4-0.8
	s2.4,0.3,3.4,0.8c1,0.6,1.8,1.4,2.4,2.4s0.9,2.3,0.9,3.8c0,2.2-0.6,3.9-1.9,5.1c-1.2,1.2-2.9,1.9-4.8,1.9S224.6,93,223.4,91.8z
	 M243,80h6.1l-17.2,25.2h-6.1L243,80z M229.4,89c0.3-0.5,0.5-1.3,0.5-2.4c0-1.1-0.1-1.9-0.5-2.4c-0.3-0.5-0.7-0.7-1.1-0.7
	s-0.8,0.2-1.1,0.7c-0.3,0.5-0.5,1.3-0.5,2.4c0,1.1,0.1,1.9,0.5,2.4c0.3,0.5,0.7,0.7,1.1,0.7S229.1,89.5,229.4,89z M241.9,103.6
	c-1.2-1.2-1.9-3-1.9-5.1c0-1.5,0.3-2.7,0.9-3.8c0.6-1.1,1.4-1.9,2.4-2.4c1-0.6,2.2-0.8,3.4-0.8c1.3,0,2.4,0.3,3.4,0.8
	c1,0.6,1.8,1.4,2.4,2.4c0.6,1.1,0.9,2.3,0.9,3.8c0,2.2-0.6,3.9-1.9,5.1c-1.3,1.2-2.9,1.9-4.8,1.9
	C244.7,105.5,243.1,104.9,241.9,103.6z M247.8,100.9c0.3-0.5,0.5-1.3,0.5-2.4c0-1.1-0.2-1.9-0.5-2.4c-0.3-0.5-0.7-0.7-1.1-0.7
	c-0.5,0-0.8,0.2-1.1,0.7c-0.3,0.5-0.4,1.3-0.4,2.4c0,1.1,0.1,1.9,0.4,2.4c0.3,0.5,0.7,0.7,1.1,0.7
	C247.1,101.6,247.5,101.4,247.8,100.9z"/>
<path class="st6" d="M192.3,51c1,1.3,1.6,2.8,1.6,4.6c0,1.5-0.4,2.9-1.2,4.2c-0.8,1.3-2.1,2.4-3.8,3.2c-1.7,0.8-3.9,1.2-6.4,1.2
	c-1.8,0-3.5-0.2-5.3-0.6s-3.3-0.9-4.6-1.7l2.9-6.3c1,0.6,2.1,1.1,3.3,1.4c1.2,0.3,2.3,0.5,3.4,0.5c1,0,1.8-0.2,2.4-0.5
	c0.6-0.3,0.9-0.8,0.9-1.4c0-1.2-1-1.7-3-1.7H179v-5.2l3.7-3.8h-9v-6.4h18.8v5.2l-4.7,4.8C189.8,48.9,191.3,49.8,192.3,51z"/>
<path class="st6" d="M196.8,50.2c-1.2-1.2-1.9-3-1.9-5.1c0-1.5,0.3-2.7,0.9-3.8c0.6-1.1,1.4-1.9,2.4-2.4c1-0.6,2.2-0.8,3.4-0.8
	c1.3,0,2.4,0.3,3.4,0.8c1,0.6,1.8,1.4,2.4,2.4c0.6,1.1,0.9,2.3,0.9,3.8c0,2.2-0.6,3.9-1.9,5.1c-1.2,1.2-2.9,1.9-4.8,1.9
	C199.7,52.1,198.1,51.5,196.8,50.2z M216.4,38.4h6.1l-17.2,25.2h-6.1L216.4,38.4z M202.8,47.5c0.3-0.5,0.5-1.3,0.5-2.4
	c0-1.1-0.2-1.9-0.5-2.4c-0.3-0.5-0.7-0.7-1.1-0.7c-0.5,0-0.8,0.2-1.1,0.7c-0.3,0.5-0.4,1.3-0.4,2.4c0,1.1,0.1,1.9,0.4,2.4
	c0.3,0.5,0.7,0.7,1.1,0.7C202.1,48.2,202.5,48,202.8,47.5z M215.3,62.1c-1.2-1.2-1.9-3-1.9-5.1c0-1.5,0.3-2.7,0.9-3.8
	c0.6-1.1,1.4-1.9,2.4-2.4c1-0.6,2.2-0.8,3.4-0.8c1.3,0,2.4,0.3,3.4,0.8c1,0.6,1.8,1.4,2.4,2.4c0.6,1.1,0.9,2.3,0.9,3.8
	c0,2.2-0.6,3.9-1.9,5.1c-1.2,1.2-2.9,1.9-4.8,1.9C218.1,64,216.5,63.4,215.3,62.1z M221.2,59.4c0.3-0.5,0.5-1.3,0.5-2.4
	c0-1.1-0.2-1.9-0.5-2.4c-0.3-0.5-0.7-0.7-1.1-0.7c-0.5,0-0.8,0.2-1.1,0.7c-0.3,0.5-0.5,1.3-0.5,2.4c0,1.1,0.1,1.9,0.5,2.4
	c0.3,0.5,0.7,0.7,1.1,0.7C220.6,60.1,220.9,59.9,221.2,59.4z"/>
<path class="st6" d="M66.4,126.9v5.2l-8.4,20h-9.3l8-18.6h-4.9v3.7h-7v-10.3H66.4z"/>
<path class="st6" d="M67.8,151.2c-0.9-0.9-1.3-2-1.3-3.4c0-1.4,0.4-2.5,1.3-3.3c0.9-0.9,2-1.3,3.4-1.3c1.4,0,2.5,0.4,3.4,1.3
	c0.9,0.9,1.4,2,1.4,3.3c0,1.4-0.5,2.5-1.4,3.4c-0.9,0.9-2,1.3-3.4,1.3C69.8,152.5,68.7,152.1,67.8,151.2z"/>
<path class="st6" d="M95.8,138.1c1.7,1.5,2.5,3.4,2.5,5.8c0,1.6-0.4,3-1.2,4.4c-0.8,1.3-2.1,2.4-3.8,3.2s-3.9,1.2-6.4,1.2
	c-1.8,0-3.5-0.2-5.3-0.6c-1.8-0.4-3.3-0.9-4.6-1.7l2.9-6.3c1.1,0.6,2.2,1.1,3.3,1.4c1.2,0.3,2.3,0.5,3.4,0.5c1,0,1.8-0.2,2.4-0.5
	c0.6-0.3,0.9-0.8,0.9-1.5c0-0.6-0.3-1-0.8-1.4c-0.6-0.3-1.5-0.4-3-0.4h-7.3l1.3-15.3h16.7v6.4h-9.8l-0.2,2.5H88
	C91.5,135.8,94.1,136.6,95.8,138.1z"/>
<path class="st6" d="M101,138.8c-1.2-1.2-1.9-3-1.9-5.1c0-1.5,0.3-2.7,0.9-3.8s1.4-1.9,2.4-2.4c1-0.6,2.2-0.8,3.4-0.8
	c1.3,0,2.4,0.3,3.4,0.8c1,0.6,1.8,1.4,2.4,2.4s0.9,2.3,0.9,3.8c0,2.2-0.6,3.9-1.9,5.1c-1.2,1.2-2.9,1.9-4.8,1.9
	C103.9,140.6,102.3,140,101,138.8z M120.7,126.9h6.1l-17.2,25.2h-6.1L120.7,126.9z M107,136c0.3-0.5,0.5-1.3,0.5-2.4
	c0-1.1-0.1-1.9-0.5-2.4c-0.3-0.5-0.7-0.7-1.1-0.7c-0.5,0-0.8,0.2-1.1,0.7c-0.3,0.5-0.5,1.3-0.5,2.4c0,1.1,0.1,1.9,0.5,2.4
	c0.3,0.5,0.7,0.7,1.1,0.7C106.3,136.7,106.7,136.5,107,136z M119.5,150.6c-1.2-1.2-1.9-3-1.9-5.1c0-1.5,0.3-2.7,0.9-3.8
	c0.6-1.1,1.4-1.9,2.4-2.4c1-0.6,2.2-0.8,3.4-0.8c1.3,0,2.4,0.3,3.4,0.8c1,0.6,1.8,1.4,2.4,2.4c0.6,1.1,0.9,2.3,0.9,3.8
	c0,2.2-0.6,3.9-1.9,5.1c-1.2,1.2-2.9,1.9-4.8,1.9C122.4,152.5,120.7,151.9,119.5,150.6z M125.5,147.9c0.3-0.5,0.5-1.3,0.5-2.4
	c0-1.1-0.2-1.9-0.5-2.4c-0.3-0.5-0.7-0.7-1.1-0.7c-0.5,0-0.8,0.2-1.1,0.7c-0.3,0.5-0.5,1.3-0.5,2.4c0,1.1,0.1,1.9,0.5,2.4
	c0.3,0.5,0.7,0.7,1.1,0.7C124.8,148.6,125.2,148.4,125.5,147.9z"/>
<path class="st6" d="M221.2,291.9c0.6,1,0.9,2.1,0.9,3.3c0,1.6-0.5,3-1.4,4.2c-0.9,1.2-2.3,2.2-4,2.8s-3.7,1-5.9,1s-4.2-0.3-5.9-1
	c-1.7-0.7-3-1.6-4-2.8c-0.9-1.2-1.4-2.6-1.4-4.2c0-1.2,0.3-2.4,0.9-3.3c0.6-1,1.4-1.8,2.5-2.5c-1.7-1.3-2.5-3-2.5-5
	c0-1.5,0.4-2.8,1.3-4c0.9-1.1,2.1-2,3.7-2.6c1.6-0.6,3.4-0.9,5.4-0.9c2,0,3.8,0.3,5.4,0.9c1.6,0.6,2.8,1.5,3.7,2.6
	c0.9,1.1,1.3,2.4,1.3,4c0,2-0.8,3.6-2.5,5C219.8,290.1,220.6,291,221.2,291.9z M212.8,296.9c0.5-0.5,0.8-1.1,0.8-1.9
	s-0.3-1.4-0.8-1.9c-0.5-0.5-1.2-0.7-2-0.7c-0.8,0-1.5,0.2-2,0.7c-0.5,0.5-0.8,1.1-0.8,1.9s0.3,1.4,0.8,1.9c0.5,0.5,1.2,0.7,2,0.7
	C211.6,297.6,212.3,297.4,212.8,296.9z M209.3,283.3c-0.4,0.4-0.6,0.9-0.6,1.6c0,0.7,0.2,1.2,0.6,1.6c0.4,0.4,0.9,0.6,1.5,0.6
	c0.6,0,1.1-0.2,1.5-0.6c0.4-0.4,0.6-0.9,0.6-1.6c0-0.7-0.2-1.2-0.6-1.6c-0.4-0.4-0.9-0.6-1.5-0.6
	C210.2,282.7,209.7,282.9,209.3,283.3z"/>
<path class="st6" d="M245.6,291.9c0.6,1,0.9,2.1,0.9,3.3c0,1.6-0.5,3-1.4,4.2c-0.9,1.2-2.3,2.2-4,2.8s-3.7,1-5.9,1s-4.2-0.3-5.9-1
	c-1.7-0.7-3-1.6-4-2.8c-0.9-1.2-1.4-2.6-1.4-4.2c0-1.2,0.3-2.4,0.9-3.3c0.6-1,1.4-1.8,2.5-2.5c-1.7-1.3-2.5-3-2.5-5
	c0-1.5,0.4-2.8,1.3-4c0.9-1.1,2.1-2,3.7-2.6c1.6-0.6,3.4-0.9,5.4-0.9c2,0,3.8,0.3,5.4,0.9c1.6,0.6,2.8,1.5,3.7,2.6
	c0.9,1.1,1.3,2.4,1.3,4c0,2-0.8,3.6-2.5,5C244.2,290.1,245,291,245.6,291.9z M237.2,296.9c0.5-0.5,0.8-1.1,0.8-1.9s-0.3-1.4-0.8-1.9
	c-0.5-0.5-1.2-0.7-2-0.7c-0.8,0-1.5,0.2-2,0.7c-0.5,0.5-0.8,1.1-0.8,1.9s0.3,1.4,0.8,1.9c0.5,0.5,1.2,0.7,2,0.7
	C236,297.6,236.7,297.4,237.2,296.9z M233.7,283.3c-0.4,0.4-0.6,0.9-0.6,1.6c0,0.7,0.2,1.2,0.6,1.6c0.4,0.4,0.9,0.6,1.5,0.6
	c0.6,0,1.1-0.2,1.5-0.6c0.4-0.4,0.6-0.9,0.6-1.6c0-0.7-0.2-1.2-0.6-1.6c-0.4-0.4-0.9-0.6-1.5-0.6
	C234.6,282.7,234.1,282.9,233.7,283.3z"/>
<path class="st6" d="M249.8,301.8c-0.9-0.9-1.4-2-1.4-3.4c0-1.4,0.5-2.5,1.4-3.3c0.9-0.9,2-1.3,3.4-1.3s2.5,0.4,3.4,1.3
	c0.9,0.9,1.3,2,1.3,3.3c0,1.4-0.4,2.5-1.3,3.4c-0.9,0.9-2,1.3-3.4,1.3S250.7,302.7,249.8,301.8z"/>
<path class="st6" d="M277.8,288.7c1.7,1.5,2.5,3.4,2.5,5.8c0,1.6-0.4,3-1.2,4.4c-0.8,1.3-2.1,2.4-3.8,3.2c-1.7,0.8-3.9,1.2-6.4,1.2
	c-1.8,0-3.5-0.2-5.3-0.6c-1.8-0.4-3.3-0.9-4.6-1.7l2.9-6.3c1.1,0.6,2.2,1.1,3.3,1.4c1.2,0.3,2.3,0.5,3.4,0.5c1,0,1.8-0.2,2.4-0.5
	c0.6-0.3,0.9-0.8,0.9-1.5c0-0.6-0.3-1-0.8-1.4c-0.6-0.3-1.5-0.4-3-0.4h-7.3l1.3-15.3h16.7v6.4h-9.8l-0.2,2.5h1.3
	C273.6,286.5,276.2,287.2,277.8,288.7z"/>
<path class="st6" d="M283.1,289.4c-1.2-1.2-1.9-3-1.9-5.1c0-1.5,0.3-2.7,0.9-3.8c0.6-1.1,1.4-1.9,2.4-2.4c1-0.6,2.2-0.8,3.4-0.8
	c1.3,0,2.4,0.3,3.4,0.8c1,0.6,1.8,1.4,2.4,2.4c0.6,1.1,0.9,2.3,0.9,3.8c0,2.2-0.6,3.9-1.9,5.1c-1.2,1.2-2.9,1.9-4.8,1.9
	C285.9,291.2,284.3,290.6,283.1,289.4z M302.7,277.6h6.1l-17.2,25.2h-6.1L302.7,277.6z M289,286.6c0.3-0.5,0.5-1.3,0.5-2.4
	c0-1.1-0.2-1.9-0.5-2.4c-0.3-0.5-0.7-0.7-1.1-0.7c-0.5,0-0.8,0.2-1.1,0.7c-0.3,0.5-0.4,1.3-0.4,2.4c0,1.1,0.1,1.9,0.4,2.4
	c0.3,0.5,0.7,0.7,1.1,0.7C288.4,287.4,288.7,287.1,289,286.6z M301.6,301.2c-1.2-1.2-1.9-3-1.9-5.1c0-1.5,0.3-2.7,0.9-3.8
	c0.6-1.1,1.4-1.9,2.4-2.4c1-0.6,2.2-0.8,3.4-0.8c1.3,0,2.4,0.3,3.4,0.8c1,0.6,1.8,1.4,2.4,2.4c0.6,1.1,0.9,2.3,0.9,3.8
	c0,2.2-0.6,3.9-1.9,5.1c-1.2,1.2-2.9,1.9-4.8,1.9C304.4,303.1,302.8,302.5,301.6,301.2z M307.5,298.5c0.3-0.5,0.5-1.3,0.5-2.4
	c0-1.1-0.2-1.9-0.5-2.4c-0.3-0.5-0.7-0.7-1.1-0.7c-0.5,0-0.8,0.2-1.1,0.7c-0.3,0.5-0.5,1.3-0.5,2.4c0,1.1,0.1,1.9,0.5,2.4
	c0.3,0.5,0.7,0.7,1.1,0.7C306.8,299.2,307.2,299,307.5,298.5z"/>
<path d="M127.7,412.5c1.1,0.9,1.6,2.1,1.6,3.7c0,1.6-0.5,2.8-1.6,3.7c-1.1,0.9-2.5,1.3-4.4,1.3h-3.9v4.6h-1.6v-14.7h5.5
	C125.1,411.2,126.6,411.6,127.7,412.5z M126.6,418.9c0.8-0.6,1.2-1.5,1.2-2.7c0-1.2-0.4-2.1-1.2-2.7s-1.9-1-3.3-1h-3.9v7.4h3.9
	C124.7,419.8,125.8,419.5,126.6,418.9z"/>
<path d="M135,415.3c0.7-0.4,1.6-0.6,2.6-0.6v1.4l-0.4,0c-1.2,0-2.1,0.4-2.7,1.1s-1,1.7-1,3v5.6H132v-11h1.4v2.2
	C133.8,416.2,134.3,415.7,135,415.3z"/>
<path d="M141.8,425.2c-0.9-0.5-1.5-1.2-2-2c-0.5-0.9-0.7-1.8-0.7-2.9c0-1.1,0.2-2,0.7-2.9c0.5-0.9,1.2-1.5,2-2
	c0.9-0.5,1.8-0.7,2.9-0.7c1.1,0,2,0.2,2.9,0.7c0.9,0.5,1.5,1.1,2,2c0.5,0.9,0.7,1.8,0.7,2.9c0,1.1-0.2,2-0.7,2.9
	c-0.5,0.9-1.2,1.5-2,2c-0.9,0.5-1.8,0.7-2.9,0.7C143.6,426,142.7,425.7,141.8,425.2z M146.8,424.1c0.6-0.4,1.1-0.9,1.5-1.5
	c0.3-0.7,0.5-1.4,0.5-2.2c0-0.8-0.2-1.6-0.5-2.2c-0.4-0.7-0.8-1.2-1.5-1.5c-0.6-0.4-1.3-0.5-2.1-0.5s-1.5,0.2-2.1,0.5
	c-0.6,0.4-1.1,0.9-1.5,1.5c-0.4,0.7-0.5,1.4-0.5,2.2c0,0.8,0.2,1.6,0.5,2.2c0.4,0.7,0.8,1.2,1.5,1.5c0.6,0.4,1.3,0.5,2.1,0.5
	S146.2,424.5,146.8,424.1z"/>
<path d="M163.4,410.3v15.6H162v-2.2c-0.4,0.7-1,1.3-1.8,1.7c-0.7,0.4-1.6,0.6-2.5,0.6c-1,0-2-0.2-2.8-0.7c-0.8-0.5-1.5-1.1-2-2
	c-0.5-0.9-0.7-1.8-0.7-2.9c0-1.1,0.2-2.1,0.7-2.9c0.5-0.9,1.1-1.5,2-2c0.8-0.5,1.8-0.7,2.8-0.7c0.9,0,1.7,0.2,2.4,0.6
	c0.7,0.4,1.3,0.9,1.8,1.6v-6.6H163.4z M160,424.1c0.6-0.4,1.1-0.9,1.5-1.5c0.4-0.7,0.5-1.4,0.5-2.2c0-0.8-0.2-1.6-0.5-2.2
	c-0.4-0.7-0.8-1.2-1.5-1.5c-0.6-0.4-1.3-0.5-2.1-0.5c-0.8,0-1.5,0.2-2.1,0.5c-0.6,0.4-1.1,0.9-1.5,1.5c-0.4,0.7-0.5,1.4-0.5,2.2
	c0,0.8,0.2,1.6,0.5,2.2c0.4,0.7,0.8,1.2,1.5,1.5c0.6,0.4,1.3,0.5,2.1,0.5C158.6,424.6,159.3,424.5,160,424.1z"/>
<path d="M177.5,414.8v11h-1.4v-2c-0.4,0.7-0.9,1.2-1.6,1.6c-0.7,0.4-1.5,0.6-2.4,0.6c-1.4,0-2.6-0.4-3.4-1.2c-0.8-0.8-1.3-2-1.3-3.5
	v-6.4h1.5v6.3c0,1.2,0.3,2,0.9,2.6c0.6,0.6,1.4,0.9,2.5,0.9c1.2,0,2.1-0.4,2.8-1.1c0.7-0.7,1-1.7,1-3v-5.8H177.5z"/>
<path d="M187.5,425.2c-0.3,0.3-0.6,0.4-1,0.6s-0.8,0.2-1.3,0.2c-1,0-1.8-0.3-2.4-0.8c-0.6-0.6-0.8-1.4-0.8-2.4v-6.7h-2v-1.3h2v-2.4
	h1.5v2.4h3.4v1.3h-3.4v6.6c0,0.7,0.2,1.2,0.5,1.5s0.8,0.5,1.4,0.5c0.3,0,0.6,0,0.9-0.1c0.3-0.1,0.5-0.2,0.7-0.4L187.5,425.2z"/>
<path d="M191.5,425.2c-0.9-0.5-1.5-1.2-2-2c-0.5-0.9-0.7-1.8-0.7-2.9c0-1.1,0.2-2,0.7-2.9c0.5-0.9,1.2-1.5,2-2
	c0.9-0.5,1.8-0.7,2.9-0.7c1.1,0,2,0.2,2.9,0.7c0.9,0.5,1.5,1.1,2,2c0.5,0.9,0.7,1.8,0.7,2.9c0,1.1-0.2,2-0.7,2.9
	c-0.5,0.9-1.2,1.5-2,2c-0.9,0.5-1.8,0.7-2.9,0.7C193.3,426,192.3,425.7,191.5,425.2z M196.5,424.1c0.6-0.4,1.1-0.9,1.5-1.5
	c0.3-0.7,0.5-1.4,0.5-2.2c0-0.8-0.2-1.6-0.5-2.2c-0.4-0.7-0.8-1.2-1.5-1.5c-0.6-0.4-1.3-0.5-2.1-0.5s-1.5,0.2-2.1,0.5
	c-0.6,0.4-1.1,0.9-1.5,1.5c-0.4,0.7-0.5,1.4-0.5,2.2c0,0.8,0.2,1.6,0.5,2.2c0.4,0.7,0.8,1.2,1.5,1.5c0.6,0.4,1.3,0.5,2.1,0.5
	S195.9,424.5,196.5,424.1z"/>
<path d="M206,415.3c0.7-0.4,1.6-0.6,2.6-0.6v1.4l-0.4,0c-1.2,0-2.1,0.4-2.7,1.1s-1,1.7-1,3v5.6H203v-11h1.4v2.2
	C204.8,416.2,205.3,415.7,206,415.3z"/>
<path class="st5" d="M95.7,434.7h-21c-2.5,0-4.5-2-4.5-4.5v-21c0-2.5,2-4.5,4.5-4.5h21c2.5,0,4.5,2,4.5,4.5v21
	C100.2,432.7,98.2,434.7,95.7,434.7z"/>
<path d="M119.3,452.5v5.8h7.6v1.3h-7.6v6.2h-1.6v-14.7h10.1v1.3H119.3z"/>
<path d="M133.5,455.3c0.7-0.4,1.6-0.6,2.6-0.6v1.4l-0.4,0c-1.2,0-2.1,0.4-2.7,1.1s-1,1.7-1,3v5.6h-1.5v-11h1.4v2.2
	C132.3,456.2,132.8,455.7,133.5,455.3z"/>
<path d="M148.3,460.8h-9.2c0.1,1.1,0.5,2.1,1.3,2.8s1.8,1.1,3,1.1c0.7,0,1.3-0.1,1.9-0.4c0.6-0.2,1.1-0.6,1.5-1.1l0.8,1
	c-0.5,0.6-1.1,1-1.8,1.3c-0.7,0.3-1.5,0.5-2.4,0.5c-1.1,0-2.1-0.2-3-0.7c-0.9-0.5-1.6-1.2-2-2c-0.5-0.9-0.7-1.8-0.7-2.9
	c0-1.1,0.2-2,0.7-2.9c0.5-0.9,1.1-1.5,1.9-2c0.8-0.5,1.7-0.7,2.8-0.7c1,0,1.9,0.2,2.8,0.7c0.8,0.5,1.4,1.1,1.9,2
	c0.5,0.8,0.7,1.8,0.7,2.9L148.3,460.8z M140.3,457c-0.7,0.7-1.1,1.6-1.2,2.7h7.8c-0.1-1.1-0.5-2-1.2-2.7c-0.7-0.7-1.6-1-2.7-1
	C141.9,456,141,456.3,140.3,457z"/>
<path d="M161,460.8h-9.2c0.1,1.1,0.5,2.1,1.3,2.8s1.8,1.1,3,1.1c0.7,0,1.3-0.1,1.9-0.4c0.6-0.2,1.1-0.6,1.5-1.1l0.8,1
	c-0.5,0.6-1.1,1-1.8,1.3c-0.7,0.3-1.5,0.5-2.4,0.5c-1.1,0-2.1-0.2-3-0.7c-0.9-0.5-1.6-1.2-2-2c-0.5-0.9-0.7-1.8-0.7-2.9
	c0-1.1,0.2-2,0.7-2.9c0.5-0.9,1.1-1.5,1.9-2c0.8-0.5,1.7-0.7,2.8-0.7c1,0,1.9,0.2,2.8,0.7c0.8,0.5,1.4,1.1,1.9,2
	c0.5,0.8,0.7,1.8,0.7,2.9L161,460.8z M153,457c-0.7,0.7-1.1,1.6-1.2,2.7h7.8c-0.1-1.1-0.5-2-1.2-2.7c-0.7-0.7-1.6-1-2.7-1
	C154.6,456,153.7,456.3,153,457z"/>
<path d="M174.1,450.3v15.6h-1.4v-2.2c-0.4,0.7-1,1.3-1.8,1.7c-0.7,0.4-1.6,0.6-2.5,0.6c-1,0-2-0.2-2.8-0.7c-0.8-0.5-1.5-1.1-2-2
	c-0.5-0.9-0.7-1.8-0.7-2.9c0-1.1,0.2-2.1,0.7-2.9c0.5-0.9,1.1-1.5,2-2c0.8-0.5,1.8-0.7,2.8-0.7c0.9,0,1.7,0.2,2.4,0.6
	c0.7,0.4,1.3,0.9,1.8,1.6v-6.6H174.1z M170.7,464.1c0.6-0.4,1.1-0.9,1.5-1.5c0.4-0.7,0.5-1.4,0.5-2.2c0-0.8-0.2-1.6-0.5-2.2
	c-0.4-0.7-0.8-1.2-1.5-1.5c-0.6-0.4-1.3-0.5-2.1-0.5c-0.8,0-1.5,0.2-2.1,0.5c-0.6,0.4-1.1,0.9-1.5,1.5c-0.4,0.7-0.5,1.4-0.5,2.2
	c0,0.8,0.2,1.6,0.5,2.2c0.4,0.7,0.8,1.2,1.5,1.5c0.6,0.4,1.3,0.5,2.1,0.5C169.3,464.6,170,464.5,170.7,464.1z"/>
<path d="M179.9,465.2c-0.9-0.5-1.5-1.2-2-2c-0.5-0.9-0.7-1.8-0.7-2.9c0-1.1,0.2-2,0.7-2.9c0.5-0.9,1.2-1.5,2-2
	c0.9-0.5,1.8-0.7,2.9-0.7c1.1,0,2,0.2,2.9,0.7c0.9,0.5,1.5,1.1,2,2c0.5,0.9,0.7,1.8,0.7,2.9c0,1.1-0.2,2-0.7,2.9
	c-0.5,0.9-1.2,1.5-2,2c-0.9,0.5-1.8,0.7-2.9,0.7C181.7,466,180.8,465.7,179.9,465.2z M184.9,464.1c0.6-0.4,1.1-0.9,1.5-1.5
	c0.3-0.7,0.5-1.4,0.5-2.2c0-0.8-0.2-1.6-0.5-2.2c-0.4-0.7-0.8-1.2-1.5-1.5c-0.6-0.4-1.3-0.5-2.1-0.5s-1.5,0.2-2.1,0.5
	c-0.6,0.4-1.1,0.9-1.5,1.5c-0.4,0.7-0.5,1.4-0.5,2.2c0,0.8,0.2,1.6,0.5,2.2c0.4,0.7,0.8,1.2,1.5,1.5c0.6,0.4,1.3,0.5,2.1,0.5
	S184.3,464.5,184.9,464.1z"/>
<path d="M208.5,455.9c0.8,0.8,1.2,2,1.2,3.5v6.4h-1.5v-6.3c0-1.1-0.3-2-0.8-2.6s-1.3-0.9-2.3-0.9c-1.1,0-2.1,0.4-2.7,1.1
	s-1,1.7-1,2.9v5.8h-1.5v-6.3c0-1.1-0.3-2-0.8-2.6c-0.6-0.6-1.3-0.9-2.4-0.9c-1.1,0-2,0.4-2.7,1.1s-1,1.7-1,2.9v5.8h-1.5v-11h1.4v2
	c0.4-0.7,0.9-1.2,1.6-1.6s1.5-0.5,2.4-0.5c0.9,0,1.7,0.2,2.4,0.6c0.7,0.4,1.2,1,1.5,1.7c0.4-0.7,1-1.3,1.8-1.7
	c0.8-0.4,1.6-0.6,2.6-0.6C206.6,454.7,207.7,455.1,208.5,455.9z"/>
<path d="M223.4,460.8h-9.2c0.1,1.1,0.5,2.1,1.3,2.8s1.8,1.1,3,1.1c0.7,0,1.3-0.1,1.9-0.4c0.6-0.2,1.1-0.6,1.5-1.1l0.8,1
	c-0.5,0.6-1.1,1-1.8,1.3c-0.7,0.3-1.5,0.5-2.4,0.5c-1.1,0-2.1-0.2-3-0.7c-0.9-0.5-1.6-1.2-2-2c-0.5-0.9-0.7-1.8-0.7-2.9
	c0-1.1,0.2-2,0.7-2.9c0.5-0.9,1.1-1.5,1.9-2c0.8-0.5,1.7-0.7,2.8-0.7c1,0,1.9,0.2,2.8,0.7c0.8,0.5,1.4,1.1,1.9,2
	c0.5,0.8,0.7,1.8,0.7,2.9L223.4,460.8z M215.4,457c-0.7,0.7-1.1,1.6-1.2,2.7h7.8c-0.1-1.1-0.5-2-1.2-2.7c-0.7-0.7-1.6-1-2.7-1
	C217,456,216.1,456.3,215.4,457z"/>
<path d="M237.2,464.5v1.3h-10.4v-14.7h10.1v1.3h-8.5v5.2h7.6v1.3h-7.6v5.5H237.2z"/>
<path class="st4" d="M95.7,474.7h-21c-2.5,0-4.5-2-4.5-4.5v-21c0-2.5,2-4.5,4.5-4.5h21c2.5,0,4.5,2,4.5,4.5v21
	C100.2,472.7,98.2,474.7,95.7,474.7z"/>
<path d="M119.3,492.5v5.8h7.6v1.3h-7.6v6.2h-1.6v-14.7h10.1v1.3H119.3z"/>
<path d="M130.5,492.1c-0.2-0.2-0.3-0.5-0.3-0.8c0-0.3,0.1-0.5,0.3-0.7s0.5-0.3,0.8-0.3s0.6,0.1,0.8,0.3s0.3,0.4,0.3,0.7
	c0,0.3-0.1,0.6-0.3,0.8s-0.5,0.3-0.8,0.3S130.7,492.3,130.5,492.1z M130.5,494.8h1.5v11h-1.5V494.8z"/>
<path d="M136.2,490.3h1.5v15.6h-1.5V490.3z"/>
<path d="M149,495.8c0.8,0.7,1.2,1.8,1.2,3.2v6.8h-1.4v-1.7c-0.3,0.6-0.8,1-1.5,1.3c-0.7,0.3-1.4,0.5-2.3,0.5c-1.2,0-2.2-0.3-2.9-0.9
	c-0.7-0.6-1.1-1.4-1.1-2.3c0-0.9,0.3-1.7,1-2.3c0.7-0.6,1.8-0.9,3.2-0.9h3.5v-0.7c0-1-0.3-1.7-0.8-2.2s-1.3-0.7-2.3-0.7
	c-0.7,0-1.4,0.1-2,0.3c-0.6,0.2-1.2,0.5-1.7,1l-0.7-1.1c0.6-0.5,1.2-0.8,2-1.1s1.6-0.4,2.5-0.4C147.1,494.7,148.2,495.1,149,495.8z
	 M147.3,504.2c0.6-0.4,1-0.9,1.3-1.7v-1.8h-3.5c-1.9,0-2.8,0.7-2.8,2c0,0.6,0.2,1.2,0.7,1.5c0.5,0.4,1.2,0.6,2.1,0.6
	C146,504.8,146.7,504.6,147.3,504.2z"/>
<path d="M163.2,495.9c0.8,0.8,1.2,2,1.2,3.5v6.4h-1.5v-6.3c0-1.1-0.3-2-0.9-2.6s-1.4-0.9-2.5-0.9c-1.2,0-2.1,0.4-2.8,1.1
	s-1,1.7-1,2.9v5.8h-1.5v-11h1.4v2c0.4-0.7,1-1.2,1.7-1.6s1.6-0.6,2.5-0.6C161.2,494.7,162.3,495.1,163.2,495.9z"/>
<path d="M174.3,505.2c-0.3,0.3-0.6,0.4-1,0.6s-0.8,0.2-1.3,0.2c-1,0-1.8-0.3-2.4-0.8c-0.6-0.6-0.8-1.4-0.8-2.4v-6.7h-2v-1.3h2v-2.4
	h1.5v2.4h3.4v1.3h-3.4v6.6c0,0.7,0.2,1.2,0.5,1.5s0.8,0.5,1.4,0.5c0.3,0,0.6,0,0.9-0.1c0.3-0.1,0.5-0.2,0.7-0.4L174.3,505.2z"/>
<path d="M180,495.3c0.7-0.4,1.6-0.6,2.6-0.6v1.4l-0.4,0c-1.2,0-2.1,0.4-2.7,1.1s-1,1.7-1,3v5.6H177v-11h1.4v2.2
	C178.7,496.2,179.3,495.7,180,495.3z"/>
<path d="M186.7,505.2c-0.9-0.5-1.5-1.2-2-2c-0.5-0.9-0.7-1.8-0.7-2.9c0-1.1,0.2-2,0.7-2.9c0.5-0.9,1.2-1.5,2-2
	c0.9-0.5,1.8-0.7,2.9-0.7c1.1,0,2,0.2,2.9,0.7c0.9,0.5,1.5,1.1,2,2c0.5,0.9,0.7,1.8,0.7,2.9c0,1.1-0.2,2-0.7,2.9
	c-0.5,0.9-1.2,1.5-2,2c-0.9,0.5-1.8,0.7-2.9,0.7C188.6,506,187.6,505.7,186.7,505.2z M191.7,504.1c0.6-0.4,1.1-0.9,1.5-1.5
	c0.3-0.7,0.5-1.4,0.5-2.2c0-0.8-0.2-1.6-0.5-2.2c-0.4-0.7-0.8-1.2-1.5-1.5c-0.6-0.4-1.3-0.5-2.1-0.5s-1.5,0.2-2.1,0.5
	c-0.6,0.4-1.1,0.9-1.5,1.5c-0.4,0.7-0.5,1.4-0.5,2.2c0,0.8,0.2,1.6,0.5,2.2c0.4,0.7,0.8,1.2,1.5,1.5c0.6,0.4,1.3,0.5,2.1,0.5
	S191.1,504.5,191.7,504.1z"/>
<path d="M206.8,495.4c0.8,0.5,1.5,1.1,2,2c0.5,0.9,0.7,1.8,0.7,2.9c0,1.1-0.2,2.1-0.7,2.9c-0.5,0.9-1.1,1.5-2,2
	c-0.8,0.5-1.8,0.7-2.8,0.7c-0.9,0-1.7-0.2-2.4-0.6c-0.7-0.4-1.3-0.9-1.8-1.6v6.2h-1.5v-15.1h1.4v2.2c0.4-0.7,1-1.3,1.8-1.7
	c0.7-0.4,1.6-0.6,2.5-0.6C205,494.7,205.9,495,206.8,495.4z M206,504.1c0.6-0.4,1.1-0.9,1.5-1.5c0.4-0.7,0.5-1.4,0.5-2.2
	c0-0.8-0.2-1.6-0.5-2.2c-0.4-0.7-0.9-1.2-1.5-1.5c-0.6-0.4-1.3-0.5-2.1-0.5c-0.8,0-1.5,0.2-2.1,0.5c-0.6,0.4-1.1,0.9-1.5,1.5
	c-0.4,0.7-0.5,1.4-0.5,2.2c0,0.8,0.2,1.6,0.5,2.2c0.4,0.7,0.8,1.2,1.5,1.5c0.6,0.4,1.3,0.5,2.1,0.5
	C204.6,504.6,205.3,504.5,206,504.1z"/>
<path d="M212.5,492.1c-0.2-0.2-0.3-0.5-0.3-0.8c0-0.3,0.1-0.5,0.3-0.7s0.5-0.3,0.8-0.3s0.6,0.1,0.8,0.3s0.3,0.4,0.3,0.7
	c0,0.3-0.1,0.6-0.3,0.8s-0.5,0.3-0.8,0.3S212.7,492.3,212.5,492.1z M212.5,494.8h1.5v11h-1.5V494.8z"/>
<path d="M225.3,495.8c0.8,0.7,1.2,1.8,1.2,3.2v6.8h-1.4v-1.7c-0.3,0.6-0.8,1-1.5,1.3c-0.7,0.3-1.4,0.5-2.3,0.5
	c-1.2,0-2.2-0.3-2.9-0.9c-0.7-0.6-1.1-1.4-1.1-2.3c0-0.9,0.3-1.7,1-2.3c0.7-0.6,1.8-0.9,3.2-0.9h3.5v-0.7c0-1-0.3-1.7-0.8-2.2
	s-1.3-0.7-2.3-0.7c-0.7,0-1.4,0.1-2,0.3c-0.6,0.2-1.2,0.5-1.7,1l-0.7-1.1c0.6-0.5,1.2-0.8,2-1.1s1.6-0.4,2.5-0.4
	C223.5,494.7,224.6,495.1,225.3,495.8z M223.7,504.2c0.6-0.4,1-0.9,1.3-1.7v-1.8h-3.5c-1.9,0-2.8,0.7-2.8,2c0,0.6,0.2,1.2,0.7,1.5
	c0.5,0.4,1.2,0.6,2.1,0.6C222.3,504.8,223.1,504.6,223.7,504.2z"/>
<path class="st3" d="M95.7,514.7h-21c-2.5,0-4.5-2-4.5-4.5v-21c0-2.5,2-4.5,4.5-4.5h21c2.5,0,4.5,2,4.5,4.5v21
	C100.2,512.7,98.2,514.7,95.7,514.7z"/>
<path d="M128.2,544.5v1.3h-10.4v-14.7h10.1v1.3h-8.5v5.2h7.6v1.3h-7.6v5.5H128.2z"/>
<path d="M148.5,535.9c0.8,0.8,1.2,2,1.2,3.5v6.4h-1.5v-6.3c0-1.1-0.3-2-0.8-2.6s-1.3-0.9-2.3-0.9c-1.1,0-2.1,0.4-2.7,1.1
	s-1,1.7-1,2.9v5.8h-1.5v-6.3c0-1.1-0.3-2-0.8-2.6c-0.6-0.6-1.3-0.9-2.4-0.9c-1.1,0-2,0.4-2.7,1.1s-1,1.7-1,2.9v5.8h-1.5v-11h1.4v2
	c0.4-0.7,0.9-1.2,1.6-1.6s1.5-0.5,2.4-0.5c0.9,0,1.7,0.2,2.4,0.6c0.7,0.4,1.2,1,1.5,1.7c0.4-0.7,1-1.3,1.8-1.7
	c0.8-0.4,1.6-0.6,2.6-0.6C146.7,534.7,147.7,535.1,148.5,535.9z"/>
<path d="M162.3,535.4c0.8,0.5,1.5,1.1,2,2c0.5,0.9,0.7,1.8,0.7,2.9c0,1.1-0.2,2.1-0.7,2.9c-0.5,0.9-1.1,1.5-2,2
	c-0.8,0.5-1.8,0.7-2.8,0.7c-0.9,0-1.8-0.2-2.5-0.6c-0.7-0.4-1.3-1-1.8-1.7v2.2h-1.4v-15.6h1.5v6.6c0.5-0.7,1.1-1.3,1.8-1.6
	c0.7-0.4,1.5-0.6,2.4-0.6C160.5,534.7,161.4,535,162.3,535.4z M161.5,544.1c0.6-0.4,1.1-0.9,1.5-1.5c0.4-0.7,0.5-1.4,0.5-2.2
	c0-0.8-0.2-1.6-0.5-2.2c-0.4-0.7-0.9-1.2-1.5-1.5c-0.6-0.4-1.3-0.5-2.1-0.5c-0.8,0-1.5,0.2-2.1,0.5c-0.6,0.4-1.1,0.9-1.5,1.5
	c-0.4,0.7-0.5,1.4-0.5,2.2c0,0.8,0.2,1.6,0.5,2.2c0.4,0.7,0.8,1.2,1.5,1.5c0.6,0.4,1.3,0.5,2.1,0.5
	C160.1,544.6,160.8,544.5,161.5,544.1z"/>
<path d="M175.1,535.8c0.8,0.7,1.2,1.8,1.2,3.2v6.8h-1.4v-1.7c-0.3,0.6-0.8,1-1.5,1.3c-0.7,0.3-1.4,0.5-2.3,0.5
	c-1.2,0-2.2-0.3-2.9-0.9c-0.7-0.6-1.1-1.4-1.1-2.3c0-0.9,0.3-1.7,1-2.3c0.7-0.6,1.8-0.9,3.2-0.9h3.5v-0.7c0-1-0.3-1.7-0.8-2.2
	s-1.3-0.7-2.3-0.7c-0.7,0-1.4,0.1-2,0.3c-0.6,0.2-1.2,0.5-1.7,1l-0.7-1.1c0.6-0.5,1.2-0.8,2-1.1s1.6-0.4,2.5-0.4
	C173.3,534.7,174.4,535.1,175.1,535.8z M173.5,544.2c0.6-0.4,1-0.9,1.3-1.7v-1.8h-3.5c-1.9,0-2.8,0.7-2.8,2c0,0.6,0.2,1.2,0.7,1.5
	c0.5,0.4,1.2,0.6,2.1,0.6C172.1,544.8,172.9,544.6,173.5,544.2z"/>
<path d="M180.3,532.1c-0.2-0.2-0.3-0.5-0.3-0.8c0-0.3,0.1-0.5,0.3-0.7s0.5-0.3,0.8-0.3s0.6,0.1,0.8,0.3s0.3,0.4,0.3,0.7
	c0,0.3-0.1,0.6-0.3,0.8s-0.5,0.3-0.8,0.3S180.5,532.3,180.3,532.1z M180.3,534.8h1.5v11h-1.5V534.8z"/>
<path d="M193,545.9l-3.5-4.6l-3.5,4.6h-1.7l4.4-5.7l-4.2-5.4h1.7l3.3,4.3l3.3-4.3h1.6l-4.2,5.4l4.4,5.7H193z"/>
<path d="M204.2,535.8c0.8,0.7,1.2,1.8,1.2,3.2v6.8h-1.4v-1.7c-0.3,0.6-0.8,1-1.5,1.3c-0.7,0.3-1.4,0.5-2.3,0.5
	c-1.2,0-2.2-0.3-2.9-0.9c-0.7-0.6-1.1-1.4-1.1-2.3c0-0.9,0.3-1.7,1-2.3c0.7-0.6,1.8-0.9,3.2-0.9h3.5v-0.7c0-1-0.3-1.7-0.8-2.2
	s-1.3-0.7-2.3-0.7c-0.7,0-1.4,0.1-2,0.3c-0.6,0.2-1.2,0.5-1.7,1l-0.7-1.1c0.6-0.5,1.2-0.8,2-1.1s1.6-0.4,2.5-0.4
	C202.3,534.7,203.4,535.1,204.2,535.8z M202.5,544.2c0.6-0.4,1-0.9,1.3-1.7v-1.8h-3.5c-1.9,0-2.8,0.7-2.8,2c0,0.6,0.2,1.2,0.7,1.5
	c0.5,0.4,1.2,0.6,2.1,0.6C201.2,544.8,201.9,544.6,202.5,544.2z"/>
<path d="M219.5,530.3v15.6h-1.4v-2.2c-0.4,0.7-1,1.3-1.8,1.7c-0.7,0.4-1.6,0.6-2.5,0.6c-1,0-2-0.2-2.8-0.7c-0.8-0.5-1.5-1.1-2-2
	c-0.5-0.9-0.7-1.8-0.7-2.9c0-1.1,0.2-2.1,0.7-2.9c0.5-0.9,1.1-1.5,2-2c0.8-0.5,1.8-0.7,2.8-0.7c0.9,0,1.7,0.2,2.4,0.6
	c0.7,0.4,1.3,0.9,1.8,1.6v-6.6H219.5z M216,544.1c0.6-0.4,1.1-0.9,1.5-1.5c0.4-0.7,0.5-1.4,0.5-2.2c0-0.8-0.2-1.6-0.5-2.2
	c-0.4-0.7-0.8-1.2-1.5-1.5c-0.6-0.4-1.3-0.5-2.1-0.5c-0.8,0-1.5,0.2-2.1,0.5c-0.6,0.4-1.1,0.9-1.5,1.5c-0.4,0.7-0.5,1.4-0.5,2.2
	c0,0.8,0.2,1.6,0.5,2.2c0.4,0.7,0.8,1.2,1.5,1.5c0.6,0.4,1.3,0.5,2.1,0.5C214.7,544.6,215.4,544.5,216,544.1z"/>
<path d="M225.3,545.2c-0.9-0.5-1.5-1.2-2-2c-0.5-0.9-0.7-1.8-0.7-2.9c0-1.1,0.2-2,0.7-2.9c0.5-0.9,1.2-1.5,2-2
	c0.9-0.5,1.8-0.7,2.9-0.7c1.1,0,2,0.2,2.9,0.7c0.9,0.5,1.5,1.1,2,2c0.5,0.9,0.7,1.8,0.7,2.9c0,1.1-0.2,2-0.7,2.9
	c-0.5,0.9-1.2,1.5-2,2c-0.9,0.5-1.8,0.7-2.9,0.7C227.1,546,226.2,545.7,225.3,545.2z M230.3,544.1c0.6-0.4,1.1-0.9,1.5-1.5
	c0.3-0.7,0.5-1.4,0.5-2.2c0-0.8-0.2-1.6-0.5-2.2c-0.4-0.7-0.8-1.2-1.5-1.5c-0.6-0.4-1.3-0.5-2.1-0.5s-1.5,0.2-2.1,0.5
	c-0.6,0.4-1.1,0.9-1.5,1.5c-0.4,0.7-0.5,1.4-0.5,2.2c0,0.8,0.2,1.6,0.5,2.2c0.4,0.7,0.8,1.2,1.5,1.5c0.6,0.4,1.3,0.5,2.1,0.5
	S229.7,544.5,230.3,544.1z"/>
<path d="M239.8,535.3c0.7-0.4,1.6-0.6,2.6-0.6v1.4l-0.4,0c-1.2,0-2.1,0.4-2.7,1.1s-1,1.7-1,3v5.6h-1.5v-11h1.4v2.2
	C238.6,536.2,239.1,535.7,239.8,535.3z"/>
<path class="st2" d="M95.7,554.7h-21c-2.5,0-4.5-2-4.5-4.5v-21c0-2.5,2-4.5,4.5-4.5h21c2.5,0,4.5,2,4.5,4.5v21
	C100.2,552.7,98.2,554.7,95.7,554.7z"/>
</svg>
