<?xml version="1.0" encoding="utf-8"?>
<!-- Generator: Adobe Illustrator 24.2.0, SVG Export Plug-In . SVG Version: 6.00 Build 0)  -->
<svg version="1.1" id="Layer_1" xmlns="http://www.w3.org/2000/svg" xmlns:xlink="http://www.w3.org/1999/xlink" x="0px" y="0px"
	 viewBox="0 0 620 620" style="enable-background:new 0 0 620 620;" xml:space="preserve">
<style type="text/css">
	.st0{fill:#FFFFFF;}
	.st1{fill:#F6F6F6;}
	.st2{fill:#FA6950;}
	.st3{fill:#A0B7E3;}
	.st4{fill:#FDD46A;}
	.st5{fill:#22B573;}
	.st6{fill:#413E3E;}
</style>
<circle class="st0" cx="309.9" cy="318.5" r="291.2"/>
<circle class="st1" cx="309.9" cy="318.5" r="265.3"/>
<polygon class="st2" points="569.2,452.9 323.2,310.8 323.2,26.7 296.7,26.7 296.7,310.8 50.6,452.9 63.9,475.8 309.9,333.8 
	556,475.8 "/>
<path class="st3" d="M532.7,462.9c-76.3,118-232.6,156.5-355.5,85.4c-32.4-18.7-59.3-43.3-80.2-71.5l13.8-9.7l-45.5-12.8l-5.4,48.7
	l15.9-11.2c23,31.2,52.7,58.4,88.4,79.1c135.4,78.4,307.6,35.6,391.1-94.8L532.7,462.9z"/>
<path class="st4" d="M314.3,39l-39.5-29l1.8,19.4C188.3,39.7,105.9,90,58,172.8C6.4,262,7.3,367.1,51.3,452.4l22.6-13
	c-39.5-77.5-40.1-172.7,6.7-253.6c43.5-75.2,118.3-121,198.4-130.5l1.5,16.7L314.3,39z"/>
<path class="st5" d="M456,66.7c-41.8-24.2-87.2-36.8-132.3-38.9l0,26c40.7,2.1,81.6,13.6,119.3,35.4
	C560.6,157.3,606.3,302,553.6,423.8l-15.6-7.2l11.7,45.8l44.8-19.7l-17.4-8C635.5,300.8,585.4,141.6,456,66.7z"/>
<path class="st6" d="M271.6,462.5c0.5,0.4,0.8,1,0.8,1.8c0,0.7-0.3,1.3-0.8,1.8c-0.5,0.4-1.2,0.6-2.1,0.6h-1.9v2.2h-0.7v-7h2.6
	C270.3,461.8,271,462,271.6,462.5z M271,465.5c0.4-0.3,0.5-0.7,0.5-1.3c0-0.6-0.2-1-0.5-1.3c-0.4-0.3-0.9-0.5-1.6-0.5h-1.9v3.5h1.9
	C270.1,466,270.7,465.8,271,465.5z"/>
<path class="st6" d="M278.8,468.8l-1.6-2.3c-0.2,0-0.4,0-0.6,0h-1.9v2.2H274v-7h2.6c0.9,0,1.6,0.2,2.1,0.6c0.5,0.4,0.8,1,0.8,1.8
	c0,0.5-0.1,1-0.4,1.4c-0.3,0.4-0.7,0.6-1.2,0.8l1.7,2.4H278.8z M278.2,465.5c0.4-0.3,0.5-0.7,0.5-1.3c0-0.6-0.2-1-0.5-1.3
	c-0.4-0.3-0.9-0.5-1.6-0.5h-1.9v3.5h1.9C277.3,466,277.8,465.8,278.2,465.5z"/>
<path class="st6" d="M282.4,468.4c-0.6-0.3-1-0.7-1.3-1.3c-0.3-0.5-0.5-1.1-0.5-1.8c0-0.7,0.2-1.3,0.5-1.8c0.3-0.5,0.8-1,1.3-1.3
	c0.6-0.3,1.2-0.5,1.9-0.5c0.7,0,1.3,0.2,1.9,0.5c0.6,0.3,1,0.7,1.3,1.3c0.3,0.5,0.5,1.2,0.5,1.8c0,0.7-0.2,1.3-0.5,1.8
	c-0.3,0.5-0.8,1-1.3,1.3c-0.6,0.3-1.2,0.5-1.9,0.5C283.6,468.9,283,468.7,282.4,468.4z M285.8,467.9c0.4-0.3,0.8-0.6,1-1
	s0.4-0.9,0.4-1.5s-0.1-1-0.4-1.5s-0.6-0.8-1-1c-0.4-0.3-0.9-0.4-1.5-0.4c-0.6,0-1.1,0.1-1.5,0.4c-0.4,0.3-0.8,0.6-1.1,1
	c-0.3,0.4-0.4,0.9-0.4,1.5s0.1,1,0.4,1.5c0.3,0.4,0.6,0.8,1.1,1c0.5,0.3,1,0.4,1.5,0.4C284.9,468.2,285.4,468.1,285.8,467.9z"/>
<path class="st6" d="M289.6,461.8h2.9c0.7,0,1.4,0.1,2,0.4c0.6,0.3,1,0.7,1.3,1.2c0.3,0.5,0.5,1.1,0.5,1.8s-0.2,1.3-0.5,1.8
	c-0.3,0.5-0.8,0.9-1.3,1.2c-0.6,0.3-1.2,0.4-2,0.4h-2.9V461.8z M292.4,468.2c0.6,0,1.1-0.1,1.6-0.4s0.8-0.6,1.1-1
	c0.3-0.4,0.4-0.9,0.4-1.5s-0.1-1.1-0.4-1.5c-0.3-0.4-0.6-0.8-1.1-1s-1-0.4-1.6-0.4h-2.1v5.7H292.4z"/>
<path class="st6" d="M298.6,468.1c-0.5-0.5-0.8-1.3-0.8-2.3v-4h0.7v4c0,0.8,0.2,1.4,0.6,1.8c0.4,0.4,0.9,0.6,1.6,0.6
	c0.7,0,1.2-0.2,1.6-0.6c0.4-0.4,0.5-1,0.5-1.8v-4h0.7v4c0,1-0.3,1.8-0.8,2.3c-0.5,0.5-1.2,0.8-2.1,0.8S299.1,468.6,298.6,468.1z"/>
<path class="st6" d="M307,468.4c-0.6-0.3-1-0.7-1.3-1.3c-0.3-0.5-0.5-1.2-0.5-1.8c0-0.7,0.2-1.3,0.5-1.8c0.3-0.5,0.8-1,1.3-1.3
	s1.2-0.5,1.9-0.5c0.5,0,1,0.1,1.4,0.3c0.4,0.2,0.8,0.4,1.1,0.8l-0.5,0.5c-0.5-0.6-1.2-0.8-2.1-0.8c-0.6,0-1.1,0.1-1.5,0.4
	c-0.5,0.3-0.8,0.6-1.1,1c-0.3,0.4-0.4,0.9-0.4,1.5s0.1,1,0.4,1.5c0.3,0.4,0.6,0.8,1.1,1c0.5,0.3,1,0.4,1.5,0.4
	c0.8,0,1.5-0.3,2.1-0.8l0.5,0.5c-0.3,0.3-0.7,0.6-1.1,0.8s-0.9,0.3-1.4,0.3C308.2,468.9,307.5,468.7,307,468.4z"/>
<path class="st6" d="M314.4,462.5h-2.5v-0.6h5.7v0.6h-2.5v6.4h-0.7V462.5z"/>
<path class="st6" d="M318.7,461.8h0.7v7h-0.7V461.8z"/>
<path class="st6" d="M327.6,461.8l-3.1,7h-0.7l-3.1-7h0.8l2.7,6.1l2.7-6.1H327.6z"/>
<path class="st6" d="M328.7,461.8h0.7v7h-0.7V461.8z"/>
<path class="st6" d="M331.8,461.8h2.9c0.7,0,1.4,0.1,2,0.4c0.6,0.3,1,0.7,1.3,1.2c0.3,0.5,0.5,1.1,0.5,1.8s-0.2,1.3-0.5,1.8
	c-0.3,0.5-0.8,0.9-1.3,1.2c-0.6,0.3-1.2,0.4-2,0.4h-2.9V461.8z M334.6,468.2c0.6,0,1.1-0.1,1.6-0.4s0.8-0.6,1.1-1
	c0.3-0.4,0.4-0.9,0.4-1.5s-0.1-1.1-0.4-1.5c-0.3-0.4-0.6-0.8-1.1-1s-1-0.4-1.6-0.4h-2.1v5.7H334.6z"/>
<path class="st6" d="M344.4,467h-3.9l-0.8,1.9h-0.8l3.2-7h0.7l3.2,7h-0.8L344.4,467z M344.1,466.4l-1.7-3.8l-1.7,3.8H344.1z"/>
<path class="st6" d="M347.2,461.8h2.9c0.7,0,1.4,0.1,2,0.4c0.6,0.3,1,0.7,1.3,1.2c0.3,0.5,0.5,1.1,0.5,1.8s-0.2,1.3-0.5,1.8
	c-0.3,0.5-0.8,0.9-1.3,1.2c-0.6,0.3-1.2,0.4-2,0.4h-2.9V461.8z M350,468.2c0.6,0,1.1-0.1,1.6-0.4s0.8-0.6,1.1-1
	c0.3-0.4,0.4-0.9,0.4-1.5s-0.1-1.1-0.4-1.5c-0.3-0.4-0.6-0.8-1.1-1s-1-0.4-1.6-0.4h-2.1v5.7H350z"/>
<path class="st6" d="M292.2,476.5h-2.5v-0.6h5.7v0.6H293v6.4h-0.7V476.5z"/>
<path class="st6" d="M296.6,475.8h0.7v7h-0.7V475.8z"/>
<path class="st6" d="M304.6,482.2v0.6h-4.9v-7h4.8v0.6h-4.1v2.5h3.6v0.6h-3.6v2.6H304.6z"/>
<path class="st6" d="M313.6,475.8v7h-0.7v-5.6l-2.8,4.7h-0.4l-2.8-4.7v5.6h-0.7v-7h0.6l3,5.2l3-5.2H313.6z"/>
<path class="st6" d="M320.6,476.5c0.5,0.4,0.8,1,0.8,1.8c0,0.7-0.3,1.3-0.8,1.8c-0.5,0.4-1.2,0.6-2.1,0.6h-1.9v2.2h-0.7v-7h2.6
	C319.4,475.8,320.1,476,320.6,476.5z M320,479.5c0.4-0.3,0.5-0.7,0.5-1.3c0-0.6-0.2-1-0.5-1.3c-0.4-0.3-0.9-0.5-1.6-0.5h-1.9v3.5
	h1.9C319.1,480,319.7,479.8,320,479.5z"/>
<path class="st6" d="M324.2,482.4c-0.6-0.3-1-0.7-1.3-1.3s-0.5-1.1-0.5-1.8c0-0.7,0.2-1.3,0.5-1.8s0.8-1,1.3-1.3
	c0.6-0.3,1.2-0.5,1.9-0.5s1.3,0.2,1.9,0.5s1,0.7,1.3,1.3c0.3,0.5,0.5,1.2,0.5,1.8c0,0.7-0.2,1.3-0.5,1.8c-0.3,0.5-0.8,1-1.3,1.3
	s-1.2,0.5-1.9,0.5S324.8,482.7,324.2,482.4z M327.6,481.9c0.4-0.3,0.8-0.6,1-1c0.3-0.4,0.4-0.9,0.4-1.5s-0.1-1-0.4-1.5
	c-0.3-0.4-0.6-0.8-1-1c-0.4-0.3-0.9-0.4-1.5-0.4c-0.6,0-1.1,0.1-1.5,0.4c-0.5,0.3-0.8,0.6-1.1,1s-0.4,0.9-0.4,1.5s0.1,1,0.4,1.5
	s0.6,0.8,1.1,1c0.4,0.3,1,0.4,1.5,0.4C326.6,482.2,327.1,482.1,327.6,481.9z"/>
<path class="st6" d="M270.4,496.4c-0.6-0.3-1-0.7-1.3-1.3c-0.3-0.5-0.5-1.2-0.5-1.8c0-0.7,0.2-1.3,0.5-1.8c0.3-0.5,0.8-1,1.3-1.3
	s1.2-0.5,1.9-0.5c0.5,0,1,0.1,1.4,0.3c0.4,0.2,0.8,0.4,1.1,0.8l-0.5,0.5c-0.5-0.6-1.2-0.8-2.1-0.8c-0.6,0-1.1,0.1-1.5,0.4
	c-0.5,0.3-0.8,0.6-1.1,1c-0.3,0.4-0.4,0.9-0.4,1.5s0.1,1,0.4,1.5c0.3,0.4,0.6,0.8,1.1,1c0.5,0.3,1,0.4,1.5,0.4
	c0.8,0,1.5-0.3,2.1-0.8l0.5,0.5c-0.3,0.3-0.7,0.6-1.1,0.8s-0.9,0.3-1.4,0.3C271.6,496.9,270.9,496.7,270.4,496.4z"/>
<path class="st6" d="M277.6,496.4c-0.6-0.3-1-0.7-1.3-1.3c-0.3-0.5-0.5-1.1-0.5-1.8c0-0.7,0.2-1.3,0.5-1.8c0.3-0.5,0.8-1,1.3-1.3
	c0.6-0.3,1.2-0.5,1.9-0.5c0.7,0,1.3,0.2,1.9,0.5c0.6,0.3,1,0.7,1.3,1.3c0.3,0.5,0.5,1.2,0.5,1.8c0,0.7-0.2,1.3-0.5,1.8
	c-0.3,0.5-0.8,1-1.3,1.3c-0.6,0.3-1.2,0.5-1.9,0.5C278.8,496.9,278.2,496.7,277.6,496.4z M281,495.9c0.4-0.3,0.8-0.6,1-1
	s0.4-0.9,0.4-1.5s-0.1-1-0.4-1.5s-0.6-0.8-1-1c-0.4-0.3-0.9-0.4-1.5-0.4c-0.6,0-1.1,0.1-1.5,0.4c-0.4,0.3-0.8,0.6-1.1,1
	c-0.3,0.4-0.4,0.9-0.4,1.5s0.1,1,0.4,1.5c0.3,0.4,0.6,0.8,1.1,1c0.5,0.3,1,0.4,1.5,0.4C280,496.2,280.5,496.1,281,495.9z"/>
<path class="st6" d="M290.7,489.8v7H290l-4.5-5.7v5.7h-0.7v-7h0.6l4.5,5.7v-5.7H290.7z"/>
<path class="st6" d="M294.1,496.4c-0.6-0.3-1-0.7-1.3-1.3c-0.3-0.5-0.5-1.1-0.5-1.8c0-0.7,0.2-1.3,0.5-1.8c0.3-0.5,0.8-1,1.3-1.3
	c0.6-0.3,1.2-0.5,1.9-0.5c0.7,0,1.3,0.2,1.9,0.5c0.6,0.3,1,0.7,1.3,1.3c0.3,0.5,0.5,1.2,0.5,1.8c0,0.7-0.2,1.3-0.5,1.8
	c-0.3,0.5-0.8,1-1.3,1.3c-0.6,0.3-1.2,0.5-1.9,0.5C295.3,496.9,294.7,496.7,294.1,496.4z M297.5,495.9c0.4-0.3,0.8-0.6,1-1
	s0.4-0.9,0.4-1.5s-0.1-1-0.4-1.5s-0.6-0.8-1-1c-0.4-0.3-0.9-0.4-1.5-0.4c-0.6,0-1.1,0.1-1.5,0.4c-0.4,0.3-0.8,0.6-1.1,1
	c-0.3,0.4-0.4,0.9-0.4,1.5s0.1,1,0.4,1.5c0.3,0.4,0.6,0.8,1.1,1c0.5,0.3,1,0.4,1.5,0.4C296.5,496.2,297,496.1,297.5,495.9z"/>
<path class="st6" d="M302.5,496.4c-0.6-0.3-1-0.7-1.3-1.3c-0.3-0.5-0.5-1.2-0.5-1.8c0-0.7,0.2-1.3,0.5-1.8c0.3-0.5,0.8-1,1.3-1.3
	s1.2-0.5,1.9-0.5c0.5,0,1,0.1,1.4,0.3c0.4,0.2,0.8,0.4,1.1,0.8l-0.5,0.5c-0.5-0.6-1.2-0.8-2.1-0.8c-0.6,0-1.1,0.1-1.5,0.4
	c-0.5,0.3-0.8,0.6-1.1,1c-0.3,0.4-0.4,0.9-0.4,1.5s0.1,1,0.4,1.5c0.3,0.4,0.6,0.8,1.1,1c0.5,0.3,1,0.4,1.5,0.4
	c0.8,0,1.5-0.3,2.1-0.8l0.5,0.5c-0.3,0.3-0.7,0.6-1.1,0.8s-0.9,0.3-1.4,0.3C303.7,496.9,303,496.7,302.5,496.4z"/>
<path class="st6" d="M308.5,489.8h0.7v7h-0.7V489.8z"/>
<path class="st6" d="M318.8,489.8v7h-0.7v-5.6l-2.8,4.7H315l-2.8-4.7v5.6h-0.7v-7h0.6l3,5.2l3-5.2H318.8z"/>
<path class="st6" d="M321.1,489.8h0.7v7h-0.7V489.8z"/>
<path class="st6" d="M329.1,496.2v0.6h-5v-7h4.8v0.6h-4.1v2.5h3.6v0.6h-3.6v2.6H329.1z"/>
<path class="st6" d="M336.6,489.8v7H336l-4.5-5.7v5.7h-0.7v-7h0.6l4.5,5.7v-5.7H336.6z"/>
<path class="st6" d="M340.3,490.5h-2.5v-0.6h5.7v0.6H341v6.4h-0.7V490.5z"/>
<path class="st6" d="M345.8,496.4c-0.6-0.3-1-0.7-1.3-1.3s-0.5-1.1-0.5-1.8c0-0.7,0.2-1.3,0.5-1.8s0.8-1,1.3-1.3
	c0.6-0.3,1.2-0.5,1.9-0.5s1.3,0.2,1.9,0.5s1,0.7,1.3,1.3c0.3,0.5,0.5,1.2,0.5,1.8c0,0.7-0.2,1.3-0.5,1.8c-0.3,0.5-0.8,1-1.3,1.3
	s-1.2,0.5-1.9,0.5S346.4,496.7,345.8,496.4z M349.2,495.9c0.4-0.3,0.8-0.6,1-1c0.3-0.4,0.4-0.9,0.4-1.5s-0.1-1-0.4-1.5
	c-0.3-0.4-0.6-0.8-1-1c-0.4-0.3-0.9-0.4-1.5-0.4c-0.6,0-1.1,0.1-1.5,0.4c-0.5,0.3-0.8,0.6-1.1,1s-0.4,0.9-0.4,1.5s0.1,1,0.4,1.5
	s0.6,0.8,1.1,1c0.4,0.3,1,0.4,1.5,0.4C348.3,496.2,348.8,496.1,349.2,495.9z"/>
<path class="st6" d="M368.3,183.4l-1.6-2.3c-0.2,0-0.4,0-0.6,0h-1.9v2.2h-0.7v-7h2.6c0.9,0,1.6,0.2,2.1,0.6c0.5,0.4,0.8,1,0.8,1.8
	c0,0.5-0.1,1-0.4,1.4c-0.3,0.4-0.7,0.6-1.2,0.8l1.7,2.4H368.3z M367.7,180.1c0.4-0.3,0.5-0.7,0.5-1.3c0-0.6-0.2-1-0.5-1.3
	c-0.4-0.3-0.9-0.5-1.6-0.5h-1.9v3.5h1.9C366.8,180.6,367.3,180.4,367.7,180.1z"/>
<path class="st6" d="M375.7,182.8v0.6h-5v-7h4.8v0.6h-4.1v2.5h3.6v0.6h-3.6v2.6H375.7z"/>
<path class="st6" d="M377.4,176.4h2.9c0.7,0,1.4,0.1,2,0.4c0.6,0.3,1,0.7,1.3,1.2c0.3,0.5,0.5,1.1,0.5,1.8s-0.2,1.3-0.5,1.8
	c-0.3,0.5-0.8,0.9-1.3,1.2c-0.6,0.3-1.2,0.4-2,0.4h-2.9V176.4z M380.2,182.8c0.6,0,1.1-0.1,1.6-0.4s0.8-0.6,1.1-1
	c0.3-0.4,0.4-0.9,0.4-1.5s-0.1-1.1-0.4-1.5c-0.3-0.4-0.6-0.8-1.1-1c-0.5-0.2-1-0.4-1.6-0.4h-2.1v5.7H380.2z"/>
<path class="st6" d="M388.7,183.2c-0.5-0.2-0.8-0.4-1.1-0.7l0.3-0.6c0.3,0.3,0.6,0.5,1,0.6c0.4,0.2,0.9,0.2,1.3,0.2
	c0.6,0,1.1-0.1,1.4-0.3c0.3-0.2,0.5-0.5,0.5-0.9c0-0.3-0.1-0.5-0.3-0.7s-0.4-0.3-0.6-0.4c-0.2-0.1-0.6-0.2-1-0.3
	c-0.5-0.1-0.9-0.3-1.3-0.4s-0.6-0.3-0.8-0.6c-0.2-0.3-0.3-0.6-0.3-1c0-0.4,0.1-0.7,0.3-1s0.5-0.5,0.9-0.7s0.9-0.3,1.4-0.3
	c0.4,0,0.8,0.1,1.2,0.2c0.4,0.1,0.7,0.3,1,0.5l-0.3,0.6c-0.3-0.2-0.6-0.3-0.9-0.4c-0.3-0.1-0.7-0.1-1-0.1c-0.6,0-1.1,0.1-1.4,0.4
	c-0.3,0.2-0.5,0.5-0.5,0.9c0,0.3,0.1,0.5,0.3,0.7s0.4,0.3,0.6,0.4c0.3,0.1,0.6,0.2,1,0.3c0.5,0.1,0.9,0.3,1.2,0.4
	c0.3,0.1,0.6,0.3,0.8,0.6c0.2,0.3,0.3,0.6,0.3,1c0,0.4-0.1,0.7-0.3,1c-0.2,0.3-0.5,0.5-0.9,0.7c-0.4,0.2-0.9,0.3-1.4,0.3
	C389.7,183.5,389.2,183.4,388.7,183.2z"/>
<path class="st6" d="M395.6,183c-0.6-0.3-1-0.7-1.3-1.3s-0.5-1.1-0.5-1.8s0.2-1.3,0.5-1.8s0.8-1,1.3-1.3c0.6-0.3,1.2-0.5,1.9-0.5
	s1.3,0.2,1.9,0.5s1,0.7,1.3,1.3c0.3,0.5,0.5,1.2,0.5,1.8s-0.2,1.3-0.5,1.8c-0.3,0.5-0.8,1-1.3,1.3s-1.2,0.5-1.9,0.5
	S396.2,183.3,395.6,183z M399,182.4c0.4-0.3,0.8-0.6,1-1c0.3-0.4,0.4-0.9,0.4-1.5c0-0.5-0.1-1-0.4-1.5c-0.3-0.4-0.6-0.8-1-1
	c-0.4-0.3-0.9-0.4-1.5-0.4c-0.6,0-1.1,0.1-1.5,0.4c-0.5,0.3-0.8,0.6-1.1,1s-0.4,0.9-0.4,1.5c0,0.5,0.1,1,0.4,1.5s0.6,0.8,1.1,1
	c0.4,0.3,1,0.4,1.5,0.4C398.1,182.8,398.6,182.7,399,182.4z"/>
<path class="st6" d="M404,183c-0.6-0.3-1-0.7-1.3-1.3s-0.5-1.2-0.5-1.8s0.2-1.3,0.5-1.8c0.3-0.5,0.8-1,1.3-1.3
	c0.6-0.3,1.2-0.5,1.9-0.5c0.5,0,1,0.1,1.4,0.3c0.4,0.2,0.8,0.4,1.1,0.8l-0.5,0.5c-0.5-0.6-1.2-0.8-2.1-0.8c-0.6,0-1.1,0.1-1.5,0.4
	c-0.5,0.3-0.8,0.6-1.1,1s-0.4,0.9-0.4,1.5c0,0.5,0.1,1,0.4,1.5s0.6,0.8,1.1,1c0.5,0.3,1,0.4,1.5,0.4c0.8,0,1.5-0.3,2.1-0.8l0.5,0.5
	c-0.3,0.3-0.7,0.6-1.1,0.8c-0.4,0.2-0.9,0.3-1.4,0.3C405.2,183.5,404.6,183.3,404,183z"/>
<path class="st6" d="M410,176.4h0.7v7H410V176.4z"/>
<path class="st6" d="M417.4,181.5h-3.9l-0.8,1.9h-0.8l3.2-7h0.7l3.2,7h-0.8L417.4,181.5z M417.2,180.9l-1.7-3.8l-1.7,3.8H417.2z"/>
<path class="st6" d="M420.2,176.4h0.7v6.4h3.9v0.6h-4.7V176.4z"/>
<path class="st6" d="M425.6,180.4h2.6v0.6h-2.6V180.4z"/>
<path class="st6" d="M431.1,183c-0.6-0.3-1-0.7-1.3-1.3s-0.5-1.2-0.5-1.8s0.2-1.3,0.5-1.8c0.3-0.5,0.8-1,1.3-1.3
	c0.6-0.3,1.2-0.5,1.9-0.5c0.5,0,1,0.1,1.4,0.3c0.4,0.2,0.8,0.4,1.1,0.8l-0.5,0.5c-0.5-0.6-1.2-0.8-2.1-0.8c-0.6,0-1.1,0.1-1.5,0.4
	c-0.5,0.3-0.8,0.6-1.1,1s-0.4,0.9-0.4,1.5c0,0.5,0.1,1,0.4,1.5s0.6,0.8,1.1,1c0.5,0.3,1,0.4,1.5,0.4c0.8,0,1.5-0.3,2.1-0.8l0.5,0.5
	c-0.3,0.3-0.7,0.6-1.1,0.8c-0.4,0.2-0.9,0.3-1.4,0.3C432.3,183.5,431.7,183.3,431.1,183z"/>
<path class="st6" d="M438.3,183c-0.6-0.3-1-0.7-1.3-1.3s-0.5-1.1-0.5-1.8s0.2-1.3,0.5-1.8s0.8-1,1.3-1.3c0.6-0.3,1.2-0.5,1.9-0.5
	s1.3,0.2,1.9,0.5s1,0.7,1.3,1.3c0.3,0.5,0.5,1.2,0.5,1.8s-0.2,1.3-0.5,1.8c-0.3,0.5-0.8,1-1.3,1.3s-1.2,0.5-1.9,0.5
	S438.9,183.3,438.3,183z M441.7,182.4c0.4-0.3,0.8-0.6,1-1c0.3-0.4,0.4-0.9,0.4-1.5c0-0.5-0.1-1-0.4-1.5c-0.3-0.4-0.6-0.8-1-1
	c-0.4-0.3-0.9-0.4-1.5-0.4c-0.6,0-1.1,0.1-1.5,0.4c-0.5,0.3-0.8,0.6-1.1,1s-0.4,0.9-0.4,1.5c0,0.5,0.1,1,0.4,1.5s0.6,0.8,1.1,1
	c0.4,0.3,1,0.4,1.5,0.4C440.7,182.8,441.2,182.7,441.7,182.4z"/>
<path class="st6" d="M452.8,176.4v7h-0.7v-5.6l-2.8,4.7H449l-2.8-4.7v5.6h-0.7v-7h0.6l3,5.2l3-5.2H452.8z"/>
<path class="st6" d="M460,182.8v0.6h-5v-7h4.8v0.6h-4.1v2.5h3.6v0.6h-3.6v2.6H460z"/>
<path class="st6" d="M466.5,183.4l-1.6-2.3c-0.2,0-0.4,0-0.6,0h-1.9v2.2h-0.7v-7h2.6c0.9,0,1.6,0.2,2.1,0.6c0.5,0.4,0.8,1,0.8,1.8
	c0,0.5-0.1,1-0.4,1.4c-0.3,0.4-0.7,0.6-1.2,0.8l1.7,2.4H466.5z M465.9,180.1c0.4-0.3,0.5-0.7,0.5-1.3c0-0.6-0.2-1-0.5-1.3
	c-0.4-0.3-0.9-0.5-1.6-0.5h-1.9v3.5h1.9C465,180.6,465.6,180.4,465.9,180.1z"/>
<path class="st6" d="M470.1,183c-0.6-0.3-1-0.7-1.3-1.3s-0.5-1.2-0.5-1.8s0.2-1.3,0.5-1.8c0.3-0.5,0.8-1,1.3-1.3
	c0.6-0.3,1.2-0.5,1.9-0.5c0.5,0,1,0.1,1.4,0.3c0.4,0.2,0.8,0.4,1.1,0.8l-0.5,0.5c-0.5-0.6-1.2-0.8-2.1-0.8c-0.6,0-1.1,0.1-1.5,0.4
	c-0.5,0.3-0.8,0.6-1.1,1s-0.4,0.9-0.4,1.5c0,0.5,0.1,1,0.4,1.5s0.6,0.8,1.1,1c0.5,0.3,1,0.4,1.5,0.4c0.8,0,1.5-0.3,2.1-0.8l0.5,0.5
	c-0.3,0.3-0.7,0.6-1.1,0.8c-0.4,0.2-0.9,0.3-1.4,0.3C471.3,183.5,470.7,183.3,470.1,183z"/>
<path class="st6" d="M476.2,176.4h0.7v7h-0.7V176.4z"/>
<path class="st6" d="M483.6,181.5h-3.9l-0.8,1.9h-0.8l3.2-7h0.7l3.2,7h-0.8L483.6,181.5z M483.3,180.9l-1.7-3.8l-1.7,3.8H483.3z"/>
<path class="st6" d="M486.4,176.4h0.7v6.4h3.9v0.6h-4.7V176.4z"/>
<path class="st6" d="M410.5,193.9h0.7v2.7c-0.3,0.3-0.7,0.5-1.2,0.7c-0.4,0.2-0.9,0.2-1.4,0.2c-0.7,0-1.3-0.2-1.9-0.5
	c-0.6-0.3-1-0.7-1.3-1.3s-0.5-1.2-0.5-1.8s0.2-1.3,0.5-1.8c0.3-0.5,0.8-1,1.3-1.3c0.6-0.3,1.2-0.5,1.9-0.5c0.5,0,1,0.1,1.5,0.3
	c0.4,0.2,0.8,0.4,1.1,0.8l-0.5,0.5c-0.6-0.5-1.3-0.8-2.1-0.8c-0.6,0-1.1,0.1-1.5,0.4s-0.8,0.6-1.1,1c-0.3,0.4-0.4,0.9-0.4,1.5
	c0,0.5,0.1,1,0.4,1.5c0.3,0.4,0.6,0.8,1.1,1s1,0.4,1.5,0.4c0.7,0,1.3-0.2,1.8-0.5V193.9z"/>
<path class="st6" d="M418.1,197.4l-1.6-2.3c-0.2,0-0.4,0-0.6,0H414v2.2h-0.7v-7h2.6c0.9,0,1.6,0.2,2.1,0.6c0.5,0.4,0.8,1,0.8,1.8
	c0,0.5-0.1,1-0.4,1.4c-0.3,0.4-0.7,0.6-1.2,0.8l1.7,2.4H418.1z M417.5,194.1c0.4-0.3,0.5-0.7,0.5-1.3c0-0.6-0.2-1-0.5-1.3
	c-0.4-0.3-0.9-0.5-1.6-0.5H414v3.5h1.9C416.6,194.6,417.1,194.4,417.5,194.1z"/>
<path class="st6" d="M421.2,196.7c-0.5-0.5-0.8-1.3-0.8-2.3v-4h0.7v4c0,0.8,0.2,1.4,0.5,1.8c0.4,0.4,0.9,0.6,1.6,0.6
	c0.7,0,1.2-0.2,1.6-0.6c0.4-0.4,0.6-1,0.6-1.8v-4h0.7v4c0,1-0.3,1.8-0.8,2.3c-0.5,0.5-1.2,0.8-2.1,0.8S421.7,197.2,421.2,196.7z"/>
<path class="st6" d="M433.2,191c0.5,0.4,0.8,1,0.8,1.8s-0.3,1.3-0.8,1.8c-0.5,0.4-1.2,0.6-2.1,0.6h-1.9v2.2h-0.7v-7h2.6
	C432,190.4,432.7,190.6,433.2,191z M432.6,194.1c0.4-0.3,0.5-0.7,0.5-1.3c0-0.6-0.2-1-0.5-1.3c-0.4-0.3-0.9-0.5-1.6-0.5h-1.9v3.5
	h1.9C431.8,194.5,432.3,194.4,432.6,194.1z"/>
<path class="st6" d="M436.8,197c-0.6-0.3-1-0.7-1.3-1.3s-0.5-1.1-0.5-1.8s0.2-1.3,0.5-1.8s0.8-1,1.3-1.3c0.6-0.3,1.2-0.5,1.9-0.5
	s1.3,0.2,1.9,0.5s1,0.7,1.3,1.3c0.3,0.5,0.5,1.2,0.5,1.8s-0.2,1.3-0.5,1.8c-0.3,0.5-0.8,1-1.3,1.3s-1.2,0.5-1.9,0.5
	S437.4,197.3,436.8,197z M440.2,196.4c0.4-0.3,0.8-0.6,1-1c0.3-0.4,0.4-0.9,0.4-1.5c0-0.5-0.1-1-0.4-1.5c-0.3-0.4-0.6-0.8-1-1
	c-0.4-0.3-0.9-0.4-1.5-0.4c-0.6,0-1.1,0.1-1.5,0.4c-0.5,0.3-0.8,0.6-1.1,1s-0.4,0.9-0.4,1.5c0,0.5,0.1,1,0.4,1.5s0.6,0.8,1.1,1
	c0.4,0.3,1,0.4,1.5,0.4C439.2,196.8,439.7,196.7,440.2,196.4z"/>
<path class="st6" d="M444.5,197.2c-0.5-0.2-0.8-0.4-1.1-0.7l0.3-0.6c0.3,0.3,0.6,0.5,1,0.6c0.4,0.2,0.9,0.2,1.3,0.2
	c0.6,0,1.1-0.1,1.4-0.3c0.3-0.2,0.5-0.5,0.5-0.9c0-0.3-0.1-0.5-0.3-0.7s-0.4-0.3-0.6-0.4c-0.2-0.1-0.6-0.2-1-0.3
	c-0.5-0.1-0.9-0.3-1.3-0.4s-0.6-0.3-0.8-0.6c-0.2-0.3-0.3-0.6-0.3-1c0-0.4,0.1-0.7,0.3-1s0.5-0.5,0.9-0.7s0.9-0.3,1.4-0.3
	c0.4,0,0.8,0.1,1.2,0.2c0.4,0.1,0.7,0.3,1,0.5l-0.3,0.6c-0.3-0.2-0.6-0.3-0.9-0.4c-0.3-0.1-0.7-0.1-1-0.1c-0.6,0-1.1,0.1-1.4,0.4
	c-0.3,0.2-0.5,0.5-0.5,0.9c0,0.3,0.1,0.5,0.3,0.7s0.4,0.3,0.6,0.4c0.3,0.1,0.6,0.2,1,0.3c0.5,0.1,0.9,0.3,1.2,0.4
	c0.3,0.1,0.6,0.3,0.8,0.6c0.2,0.3,0.3,0.6,0.3,1c0,0.4-0.1,0.7-0.3,1c-0.2,0.3-0.5,0.5-0.9,0.7c-0.4,0.2-0.9,0.3-1.4,0.3
	C445.4,197.5,444.9,197.4,444.5,197.2z"/>
<path class="st6" d="M399.2,211c-0.6-0.3-1-0.7-1.3-1.3s-0.5-1.2-0.5-1.8s0.2-1.3,0.5-1.8c0.3-0.5,0.8-1,1.3-1.3
	c0.6-0.3,1.2-0.5,1.9-0.5c0.5,0,1,0.1,1.4,0.3c0.4,0.2,0.8,0.4,1.1,0.8l-0.5,0.5c-0.5-0.6-1.2-0.8-2.1-0.8c-0.6,0-1.1,0.1-1.5,0.4
	c-0.5,0.3-0.8,0.6-1.1,1s-0.4,0.9-0.4,1.5c0,0.5,0.1,1,0.4,1.5s0.6,0.8,1.1,1c0.5,0.3,1,0.4,1.5,0.4c0.8,0,1.5-0.3,2.1-0.8l0.5,0.5
	c-0.3,0.3-0.7,0.6-1.1,0.8c-0.4,0.2-0.9,0.3-1.4,0.3C400.4,211.5,399.7,211.3,399.2,211z"/>
<path class="st6" d="M409.6,209.5h-3.9l-0.8,1.9h-0.8l3.2-7h0.7l3.2,7h-0.8L409.6,209.5z M409.3,208.9l-1.7-3.8l-1.7,3.8H409.3z"/>
<path class="st6" d="M419.7,204.4v7h-0.7v-5.6l-2.8,4.7h-0.4l-2.8-4.7v5.6h-0.7v-7h0.6l3,5.2l3-5.2H419.7z"/>
<path class="st6" d="M426.7,205c0.5,0.4,0.8,1,0.8,1.8s-0.3,1.3-0.8,1.8c-0.5,0.4-1.2,0.6-2.1,0.6h-1.9v2.2h-0.7v-7h2.6
	C425.4,204.4,426.1,204.6,426.7,205z M426.1,208.1c0.4-0.3,0.5-0.7,0.5-1.3c0-0.6-0.2-1-0.5-1.3c-0.4-0.3-0.9-0.5-1.6-0.5h-1.9v3.5
	h1.9C425.2,208.5,425.8,208.4,426.1,208.1z"/>
<path class="st6" d="M433.5,209.5h-3.9l-0.8,1.9H428l3.2-7h0.7l3.2,7h-0.8L433.5,209.5z M433.2,208.9l-1.7-3.8l-1.7,3.8H433.2z"/>
<path class="st6" d="M442.1,204.4v7h-0.6l-4.5-5.7v5.7h-0.7v-7h0.6l4.5,5.7v-5.7H442.1z M439.5,203.7c-0.1-0.1-0.3-0.2-0.4-0.3
	c-0.1-0.1-0.2-0.2-0.3-0.2c-0.1,0-0.1-0.1-0.2-0.1c-0.2,0-0.3,0.1-0.4,0.2c-0.1,0.1-0.1,0.3-0.1,0.5h-0.4c0-0.3,0.1-0.6,0.3-0.8
	c0.2-0.2,0.4-0.3,0.6-0.3c0.2,0,0.3,0,0.4,0.1c0.1,0.1,0.3,0.2,0.4,0.3c0.1,0.1,0.2,0.2,0.3,0.2c0.1,0,0.2,0.1,0.2,0.1
	c0.1,0,0.3-0.1,0.4-0.2c0.1-0.1,0.1-0.3,0.2-0.5h0.4c0,0.3-0.1,0.6-0.3,0.8c-0.2,0.2-0.4,0.3-0.6,0.3
	C439.7,203.8,439.6,203.7,439.5,203.7z"/>
<path class="st6" d="M448.8,209.5h-3.9l-0.8,1.9h-0.8l3.2-7h0.7l3.2,7h-0.8L448.8,209.5z M448.5,208.9l-1.7-3.8l-1.7,3.8H448.5z"/>
<path class="st6" d="M452,211.2c-0.5-0.2-0.8-0.4-1.1-0.7l0.3-0.6c0.3,0.3,0.6,0.5,1,0.6c0.4,0.2,0.9,0.2,1.3,0.2
	c0.6,0,1.1-0.1,1.4-0.3c0.3-0.2,0.5-0.5,0.5-0.9c0-0.3-0.1-0.5-0.3-0.7s-0.4-0.3-0.6-0.4c-0.2-0.1-0.6-0.2-1-0.3
	c-0.5-0.1-0.9-0.3-1.3-0.4s-0.6-0.3-0.8-0.6c-0.2-0.3-0.3-0.6-0.3-1c0-0.4,0.1-0.7,0.3-1s0.5-0.5,0.9-0.7s0.9-0.3,1.4-0.3
	c0.4,0,0.8,0.1,1.2,0.2c0.4,0.1,0.7,0.3,1,0.5l-0.3,0.6c-0.3-0.2-0.6-0.3-0.9-0.4c-0.3-0.1-0.7-0.1-1-0.1c-0.6,0-1.1,0.1-1.4,0.4
	c-0.3,0.2-0.5,0.5-0.5,0.9c0,0.3,0.1,0.5,0.3,0.7s0.4,0.3,0.6,0.4c0.3,0.1,0.6,0.2,1,0.3c0.5,0.1,0.9,0.3,1.2,0.4
	c0.3,0.1,0.6,0.3,0.8,0.6c0.2,0.3,0.3,0.6,0.3,1c0,0.4-0.1,0.7-0.3,1c-0.2,0.3-0.5,0.5-0.9,0.7c-0.4,0.2-0.9,0.3-1.4,0.3
	C453,211.5,452.5,211.4,452,211.2z"/>
<path class="st6" d="M418.6,222.4c0.3,0.3,0.4,0.7,0.4,1.1c0,0.6-0.2,1.1-0.7,1.4s-1.1,0.5-2,0.5h-3.2v-7h3c0.8,0,1.4,0.2,1.8,0.5
	c0.4,0.3,0.6,0.8,0.6,1.3c0,0.4-0.1,0.7-0.3,1s-0.5,0.5-0.8,0.6C418,221.9,418.3,222.1,418.6,222.4z M413.8,219v2.5h2.2
	c0.6,0,1-0.1,1.3-0.3c0.3-0.2,0.5-0.5,0.5-0.9c0-0.4-0.2-0.7-0.5-0.9s-0.7-0.3-1.3-0.3H413.8z M417.7,224.5c0.3-0.2,0.5-0.5,0.5-1
	c0-0.9-0.6-1.3-1.9-1.3h-2.5v2.6h2.5C416.9,224.8,417.4,224.7,417.7,224.5z"/>
<path class="st6" d="M420.6,218.4h0.7v6.4h3.9v0.6h-4.7V218.4z"/>
<path class="st6" d="M427.7,225c-0.6-0.3-1-0.7-1.3-1.3s-0.5-1.1-0.5-1.8s0.2-1.3,0.5-1.8s0.8-1,1.3-1.3c0.6-0.3,1.2-0.5,1.9-0.5
	s1.3,0.2,1.9,0.5s1,0.7,1.3,1.3c0.3,0.5,0.5,1.2,0.5,1.8s-0.2,1.3-0.5,1.8c-0.3,0.5-0.8,1-1.3,1.3s-1.2,0.5-1.9,0.5
	S428.3,225.3,427.7,225z M431.1,224.4c0.4-0.3,0.8-0.6,1-1c0.3-0.4,0.4-0.9,0.4-1.5c0-0.5-0.1-1-0.4-1.5c-0.3-0.4-0.6-0.8-1-1
	c-0.4-0.3-0.9-0.4-1.5-0.4c-0.6,0-1.1,0.1-1.5,0.4c-0.5,0.3-0.8,0.6-1.1,1s-0.4,0.9-0.4,1.5c0,0.5,0.1,1,0.4,1.5s0.6,0.8,1.1,1
	c0.4,0.3,1,0.4,1.5,0.4C430.1,224.8,430.6,224.7,431.1,224.4z"/>
<path class="st6" d="M439.9,221.9h0.7v2.7c-0.3,0.3-0.7,0.5-1.2,0.7c-0.4,0.2-0.9,0.2-1.4,0.2c-0.7,0-1.3-0.2-1.9-0.5
	c-0.6-0.3-1-0.7-1.3-1.3s-0.5-1.2-0.5-1.8s0.2-1.3,0.5-1.8c0.3-0.5,0.8-1,1.3-1.3c0.6-0.3,1.2-0.5,1.9-0.5c0.5,0,1,0.1,1.5,0.3
	c0.4,0.2,0.8,0.4,1.1,0.8l-0.5,0.5c-0.6-0.5-1.3-0.8-2.1-0.8c-0.6,0-1.1,0.1-1.5,0.4s-0.8,0.6-1.1,1c-0.3,0.4-0.4,0.9-0.4,1.5
	c0,0.5,0.1,1,0.4,1.5c0.3,0.4,0.6,0.8,1.1,1s1,0.4,1.5,0.4c0.7,0,1.3-0.2,1.8-0.5V221.9z"/>
<path class="st6" d="M359.3,237.5h-3.9l-0.8,1.9h-0.8l3.2-7h0.7l3.2,7h-0.8L359.3,237.5z M359,236.9l-1.7-3.8l-1.7,3.8H359z"/>
<path class="st6" d="M362.1,232.4h0.7v6.4h3.9v0.6h-4.7V232.4z"/>
<path class="st6" d="M372.9,235.9h0.7v2.7c-0.3,0.3-0.7,0.5-1.2,0.7c-0.4,0.2-0.9,0.2-1.4,0.2c-0.7,0-1.3-0.2-1.9-0.5
	c-0.6-0.3-1-0.7-1.3-1.3s-0.5-1.2-0.5-1.8s0.2-1.3,0.5-1.8c0.3-0.5,0.8-1,1.3-1.3c0.6-0.3,1.2-0.5,1.9-0.5c0.5,0,1,0.1,1.5,0.3
	c0.4,0.2,0.8,0.4,1.1,0.8l-0.5,0.5c-0.6-0.5-1.3-0.8-2.1-0.8c-0.6,0-1.1,0.1-1.5,0.4s-0.8,0.6-1.1,1c-0.3,0.4-0.4,0.9-0.4,1.5
	c0,0.5,0.1,1,0.4,1.5c0.3,0.4,0.6,0.8,1.1,1s1,0.4,1.5,0.4c0.7,0,1.3-0.2,1.8-0.5V235.9z"/>
<path class="st6" d="M376.9,239c-0.6-0.3-1-0.7-1.3-1.3s-0.5-1.1-0.5-1.8s0.2-1.3,0.5-1.8s0.8-1,1.3-1.3c0.6-0.3,1.2-0.5,1.9-0.5
	s1.3,0.2,1.9,0.5s1,0.7,1.3,1.3c0.3,0.5,0.5,1.2,0.5,1.8s-0.2,1.3-0.5,1.8c-0.3,0.5-0.8,1-1.3,1.3s-1.2,0.5-1.9,0.5
	S377.4,239.3,376.9,239z M380.3,238.4c0.4-0.3,0.8-0.6,1-1c0.3-0.4,0.4-0.9,0.4-1.5c0-0.5-0.1-1-0.4-1.5c-0.3-0.4-0.6-0.8-1-1
	c-0.4-0.3-0.9-0.4-1.5-0.4c-0.6,0-1.1,0.1-1.5,0.4c-0.5,0.3-0.8,0.6-1.1,1s-0.4,0.9-0.4,1.5c0,0.5,0.1,1,0.4,1.5s0.6,0.8,1.1,1
	c0.4,0.3,1,0.4,1.5,0.4C379.3,238.8,379.8,238.7,380.3,238.4z"/>
<path class="st6" d="M388.9,239.4l-1.6-2.3c-0.2,0-0.4,0-0.6,0h-1.9v2.2h-0.7v-7h2.6c0.9,0,1.6,0.2,2.1,0.6c0.5,0.4,0.8,1,0.8,1.8
	c0,0.5-0.1,1-0.4,1.4c-0.3,0.4-0.7,0.6-1.2,0.8l1.7,2.4H388.9z M388.3,236.1c0.4-0.3,0.5-0.7,0.5-1.3c0-0.6-0.2-1-0.5-1.3
	c-0.4-0.3-0.9-0.5-1.6-0.5h-1.9v3.5h1.9C387.4,236.6,387.9,236.4,388.3,236.1z"/>
<path class="st6" d="M391.3,232.4h0.7v7h-0.7V232.4z"/>
<path class="st6" d="M395.7,233h-2.5v-0.6h5.7v0.6h-2.5v6.4h-0.7V233z"/>
<path class="st6" d="M407.3,232.4v7h-0.7v-5.6l-2.8,4.7h-0.4l-2.8-4.7v5.6h-0.7v-7h0.6l3,5.2l3-5.2H407.3z"/>
<path class="st6" d="M410.8,239c-0.6-0.3-1-0.7-1.3-1.3s-0.5-1.1-0.5-1.8s0.2-1.3,0.5-1.8s0.8-1,1.3-1.3c0.6-0.3,1.2-0.5,1.9-0.5
	s1.3,0.2,1.9,0.5s1,0.7,1.3,1.3c0.3,0.5,0.5,1.2,0.5,1.8s-0.2,1.3-0.5,1.8c-0.3,0.5-0.8,1-1.3,1.3s-1.2,0.5-1.9,0.5
	S411.4,239.3,410.8,239z M414.2,238.4c0.4-0.3,0.8-0.6,1-1c0.3-0.4,0.4-0.9,0.4-1.5c0-0.5-0.1-1-0.4-1.5c-0.3-0.4-0.6-0.8-1-1
	c-0.4-0.3-0.9-0.4-1.5-0.4c-0.6,0-1.1,0.1-1.5,0.4c-0.5,0.3-0.8,0.6-1.1,1s-0.4,0.9-0.4,1.5c0,0.5,0.1,1,0.4,1.5s0.6,0.8,1.1,1
	c0.4,0.3,1,0.4,1.5,0.4C413.2,238.8,413.7,238.7,414.2,238.4z"/>
<path class="st6" d="M418.4,239.2c-0.5-0.2-0.8-0.4-1.1-0.7l0.3-0.6c0.3,0.3,0.6,0.5,1,0.6c0.4,0.2,0.9,0.2,1.3,0.2
	c0.6,0,1.1-0.1,1.4-0.3c0.3-0.2,0.5-0.5,0.5-0.9c0-0.3-0.1-0.5-0.3-0.7s-0.4-0.3-0.6-0.4c-0.2-0.1-0.6-0.2-1-0.3
	c-0.5-0.1-0.9-0.3-1.3-0.4s-0.6-0.3-0.8-0.6c-0.2-0.3-0.3-0.6-0.3-1c0-0.4,0.1-0.7,0.3-1s0.5-0.5,0.9-0.7s0.9-0.3,1.4-0.3
	c0.4,0,0.8,0.1,1.2,0.2c0.4,0.1,0.7,0.3,1,0.5l-0.3,0.6c-0.3-0.2-0.6-0.3-0.9-0.4c-0.3-0.1-0.7-0.1-1-0.1c-0.6,0-1.1,0.1-1.4,0.4
	c-0.3,0.2-0.5,0.5-0.5,0.9c0,0.3,0.1,0.5,0.3,0.7s0.4,0.3,0.6,0.4c0.3,0.1,0.6,0.2,1,0.3c0.5,0.1,0.9,0.3,1.2,0.4
	c0.3,0.1,0.6,0.3,0.8,0.6c0.2,0.3,0.3,0.6,0.3,1c0,0.4-0.1,0.7-0.3,1c-0.2,0.3-0.5,0.5-0.9,0.7c-0.4,0.2-0.9,0.3-1.4,0.3
	C419.4,239.5,418.9,239.4,418.4,239.2z"/>
<path class="st6" d="M426.8,232.4h2.9c0.7,0,1.4,0.1,2,0.4c0.6,0.3,1,0.7,1.3,1.2c0.3,0.5,0.5,1.1,0.5,1.8s-0.2,1.3-0.5,1.8
	c-0.3,0.5-0.8,0.9-1.3,1.2c-0.6,0.3-1.2,0.4-2,0.4h-2.9V232.4z M429.6,238.8c0.6,0,1.1-0.1,1.6-0.4s0.8-0.6,1.1-1
	c0.3-0.4,0.4-0.9,0.4-1.5s-0.1-1.1-0.4-1.5c-0.3-0.4-0.6-0.8-1.1-1c-0.5-0.2-1-0.4-1.6-0.4h-2.1v5.7H429.6z"/>
<path class="st6" d="M440,238.8v0.6h-5v-7h4.8v0.6h-4.1v2.5h3.6v0.6h-3.6v2.6H440z"/>
<path class="st6" d="M445.5,239c-0.6-0.3-1-0.7-1.3-1.3s-0.5-1.2-0.5-1.8s0.2-1.3,0.5-1.8c0.3-0.5,0.8-1,1.3-1.3
	c0.6-0.3,1.2-0.5,1.9-0.5c0.5,0,1,0.1,1.4,0.3c0.4,0.2,0.8,0.4,1.1,0.8l-0.5,0.5c-0.5-0.6-1.2-0.8-2.1-0.8c-0.6,0-1.1,0.1-1.5,0.4
	c-0.5,0.3-0.8,0.6-1.1,1s-0.4,0.9-0.4,1.5c0,0.5,0.1,1,0.4,1.5s0.6,0.8,1.1,1c0.5,0.3,1,0.4,1.5,0.4c0.8,0,1.5-0.3,2.1-0.8l0.5,0.5
	c-0.3,0.3-0.7,0.6-1.1,0.8c-0.4,0.2-0.9,0.3-1.4,0.3C446.7,239.5,446.1,239.3,445.5,239z"/>
<path class="st6" d="M452.7,239c-0.6-0.3-1-0.7-1.3-1.3s-0.5-1.1-0.5-1.8s0.2-1.3,0.5-1.8s0.8-1,1.3-1.3c0.6-0.3,1.2-0.5,1.9-0.5
	s1.3,0.2,1.9,0.5s1,0.7,1.3,1.3c0.3,0.5,0.5,1.2,0.5,1.8s-0.2,1.3-0.5,1.8c-0.3,0.5-0.8,1-1.3,1.3s-1.2,0.5-1.9,0.5
	S453.3,239.3,452.7,239z M456.1,238.4c0.4-0.3,0.8-0.6,1-1c0.3-0.4,0.4-0.9,0.4-1.5c0-0.5-0.1-1-0.4-1.5c-0.3-0.4-0.6-0.8-1-1
	c-0.4-0.3-0.9-0.4-1.5-0.4c-0.6,0-1.1,0.1-1.5,0.4c-0.5,0.3-0.8,0.6-1.1,1s-0.4,0.9-0.4,1.5c0,0.5,0.1,1,0.4,1.5s0.6,0.8,1.1,1
	c0.4,0.3,1,0.4,1.5,0.4C455.2,238.8,455.7,238.7,456.1,238.4z"/>
<path class="st6" d="M465.8,232.4v7h-0.6l-4.5-5.7v5.7h-0.7v-7h0.6l4.5,5.7v-5.7H465.8z"/>
<path class="st6" d="M473,238.8v0.6h-5v-7h4.8v0.6h-4.1v2.5h3.6v0.6h-3.6v2.6H473z"/>
<path class="st6" d="M479.1,239.4l-2.3-3.1l-2.3,3.1h-0.8l2.7-3.6l-2.5-3.4h0.9l2.1,2.9l2.1-2.9h0.8l-2.5,3.4l2.7,3.6H479.1z"/>
<path class="st6" d="M481.3,232.4h0.7v7h-0.7V232.4z"/>
<path class="st6" d="M485.5,239c-0.6-0.3-1-0.7-1.3-1.3s-0.5-1.1-0.5-1.8s0.2-1.3,0.5-1.8s0.8-1,1.3-1.3c0.6-0.3,1.2-0.5,1.9-0.5
	s1.3,0.2,1.9,0.5s1,0.7,1.3,1.3c0.3,0.5,0.5,1.2,0.5,1.8s-0.2,1.3-0.5,1.8c-0.3,0.5-0.8,1-1.3,1.3s-1.2,0.5-1.9,0.5
	S486.1,239.3,485.5,239z M488.9,238.4c0.4-0.3,0.8-0.6,1-1c0.3-0.4,0.4-0.9,0.4-1.5c0-0.5-0.1-1-0.4-1.5c-0.3-0.4-0.6-0.8-1-1
	c-0.4-0.3-0.9-0.4-1.5-0.4c-0.6,0-1.1,0.1-1.5,0.4c-0.5,0.3-0.8,0.6-1.1,1s-0.4,0.9-0.4,1.5c0,0.5,0.1,1,0.4,1.5s0.6,0.8,1.1,1
	c0.4,0.3,1,0.4,1.5,0.4C487.9,238.8,488.4,238.7,488.9,238.4z M488.1,230.6h1l-1.6,1.2h-0.7L488.1,230.6z"/>
<path class="st6" d="M498.6,232.4v7H498l-4.5-5.7v5.7h-0.7v-7h0.6l4.5,5.7v-5.7H498.6z"/>
<path class="st6" d="M148.2,167h-2.5v-0.6h5.7v0.6h-2.5v6.4h-0.7V167z"/>
<path class="st6" d="M152.5,166.4h0.7v7h-0.7V166.4z"/>
<path class="st6" d="M160.5,172.8v0.6h-4.9v-7h4.8v0.6h-4.1v2.5h3.6v0.6h-3.6v2.6H160.5z"/>
<path class="st6" d="M168.1,166.4v7h-0.6l-4.5-5.7v5.7h-0.7v-7h0.6l4.5,5.7v-5.7H168.1z"/>
<path class="st6" d="M170.4,166.4h2.9c0.7,0,1.4,0.1,2,0.4c0.6,0.3,1,0.7,1.3,1.2c0.3,0.5,0.5,1.1,0.5,1.8s-0.2,1.3-0.5,1.8
	c-0.3,0.5-0.8,0.9-1.3,1.2c-0.6,0.3-1.2,0.4-2,0.4h-2.9V166.4z M173.2,172.8c0.6,0,1.1-0.1,1.6-0.4s0.8-0.6,1.1-1
	c0.3-0.4,0.4-0.9,0.4-1.5s-0.1-1.1-0.4-1.5c-0.3-0.4-0.6-0.8-1.1-1c-0.5-0.2-1-0.4-1.6-0.4h-2.1v5.7H173.2z"/>
<path class="st6" d="M183,171.5h-3.9l-0.8,1.9h-0.8l3.2-7h0.7l3.2,7h-0.8L183,171.5z M182.8,170.9l-1.7-3.8l-1.7,3.8H182.8z"/>
<path class="st6" d="M189.6,173c-0.6-0.3-1-0.7-1.3-1.3c-0.3-0.5-0.5-1.1-0.5-1.8s0.2-1.3,0.5-1.8c0.3-0.5,0.8-1,1.3-1.3
	c0.6-0.3,1.2-0.5,1.9-0.5c0.7,0,1.3,0.2,1.9,0.5c0.6,0.3,1,0.7,1.3,1.3c0.3,0.5,0.5,1.2,0.5,1.8s-0.2,1.3-0.5,1.8
	c-0.3,0.5-0.8,1-1.3,1.3c-0.6,0.3-1.2,0.5-1.9,0.5C190.8,173.5,190.2,173.3,189.6,173z M193,172.4c0.4-0.3,0.8-0.6,1-1
	s0.4-0.9,0.4-1.5c0-0.5-0.1-1-0.4-1.5s-0.6-0.8-1-1c-0.4-0.3-0.9-0.4-1.5-0.4c-0.6,0-1.1,0.1-1.5,0.4c-0.4,0.3-0.8,0.6-1.1,1
	c-0.3,0.4-0.4,0.9-0.4,1.5c0,0.5,0.1,1,0.4,1.5c0.3,0.4,0.6,0.8,1.1,1c0.5,0.3,1,0.4,1.5,0.4C192.1,172.8,192.6,172.7,193,172.4z"/>
<path class="st6" d="M202.7,166.4v7h-0.6l-4.5-5.7v5.7h-0.7v-7h0.6l4.5,5.7v-5.7H202.7z"/>
<path class="st6" d="M205,166.4h0.7v6.4h3.9v0.6H205V166.4z"/>
<path class="st6" d="M210.8,166.4h0.7v7h-0.7V166.4z"/>
<path class="st6" d="M219.7,166.4v7h-0.6l-4.5-5.7v5.7h-0.7v-7h0.6l4.5,5.7v-5.7H219.7z"/>
<path class="st6" d="M226.9,172.8v0.6H222v-7h4.8v0.6h-4.1v2.5h3.6v0.6h-3.6v2.6H226.9z"/>
<path class="st6" d="M145.4,187c-0.6-0.3-1-0.7-1.3-1.3c-0.3-0.5-0.5-1.2-0.5-1.8s0.2-1.3,0.5-1.8c0.3-0.5,0.8-1,1.3-1.3
	s1.2-0.5,1.9-0.5c0.5,0,1,0.1,1.4,0.3s0.8,0.4,1.1,0.8l-0.5,0.5c-0.5-0.6-1.2-0.8-2.1-0.8c-0.6,0-1.1,0.1-1.5,0.4
	c-0.5,0.3-0.8,0.6-1.1,1c-0.3,0.4-0.4,0.9-0.4,1.5c0,0.5,0.1,1,0.4,1.5c0.3,0.4,0.6,0.8,1.1,1c0.5,0.3,1,0.4,1.5,0.4
	c0.8,0,1.5-0.3,2.1-0.8l0.5,0.5c-0.3,0.3-0.7,0.6-1.1,0.8c-0.4,0.2-0.9,0.3-1.4,0.3C146.6,187.5,145.9,187.3,145.4,187z"/>
<path class="st6" d="M152.6,187c-0.6-0.3-1-0.7-1.3-1.3c-0.3-0.5-0.5-1.1-0.5-1.8s0.2-1.3,0.5-1.8c0.3-0.5,0.8-1,1.3-1.3
	c0.6-0.3,1.2-0.5,1.9-0.5c0.7,0,1.3,0.2,1.9,0.5c0.6,0.3,1,0.7,1.3,1.3c0.3,0.5,0.5,1.2,0.5,1.8s-0.2,1.3-0.5,1.8
	c-0.3,0.5-0.8,1-1.3,1.3c-0.6,0.3-1.2,0.5-1.9,0.5C153.8,187.5,153.1,187.3,152.6,187z M156,186.4c0.4-0.3,0.8-0.6,1-1
	s0.4-0.9,0.4-1.5c0-0.5-0.1-1-0.4-1.5s-0.6-0.8-1-1c-0.4-0.3-0.9-0.4-1.5-0.4c-0.6,0-1.1,0.1-1.5,0.4c-0.4,0.3-0.8,0.6-1.1,1
	c-0.3,0.4-0.4,0.9-0.4,1.5c0,0.5,0.1,1,0.4,1.5c0.3,0.4,0.6,0.8,1.1,1c0.5,0.3,1,0.4,1.5,0.4C155,186.8,155.5,186.7,156,186.4z"/>
<path class="st6" d="M165.6,180.4v7H165l-4.5-5.7v5.7h-0.7v-7h0.6l4.5,5.7v-5.7H165.6z"/>
<path class="st6" d="M168.4,187.2c-0.5-0.2-0.8-0.4-1.1-0.7l0.3-0.6c0.3,0.3,0.6,0.5,1,0.6c0.4,0.2,0.9,0.2,1.3,0.2
	c0.6,0,1.1-0.1,1.4-0.3s0.5-0.5,0.5-0.9c0-0.3-0.1-0.5-0.3-0.7c-0.2-0.2-0.4-0.3-0.6-0.4c-0.2-0.1-0.6-0.2-1-0.3
	c-0.5-0.1-0.9-0.3-1.3-0.4c-0.3-0.1-0.6-0.3-0.8-0.6c-0.2-0.3-0.3-0.6-0.3-1c0-0.4,0.1-0.7,0.3-1s0.5-0.5,0.9-0.7s0.9-0.3,1.4-0.3
	c0.4,0,0.8,0.1,1.2,0.2s0.7,0.3,1,0.5l-0.3,0.6c-0.3-0.2-0.6-0.3-0.9-0.4c-0.3-0.1-0.7-0.1-1-0.1c-0.6,0-1.1,0.1-1.4,0.4
	c-0.3,0.2-0.5,0.5-0.5,0.9c0,0.3,0.1,0.5,0.3,0.7s0.4,0.3,0.6,0.4c0.3,0.1,0.6,0.2,1,0.3c0.5,0.1,0.9,0.3,1.2,0.4
	c0.3,0.1,0.6,0.3,0.8,0.6c0.2,0.3,0.3,0.6,0.3,1c0,0.4-0.1,0.7-0.3,1c-0.2,0.3-0.5,0.5-0.9,0.7c-0.4,0.2-0.9,0.3-1.5,0.3
	C169.3,187.5,168.8,187.4,168.4,187.2z"/>
<path class="st6" d="M174.8,186.7c-0.5-0.5-0.8-1.3-0.8-2.3v-4h0.7v4c0,0.8,0.2,1.4,0.6,1.8c0.4,0.4,0.9,0.6,1.6,0.6
	c0.7,0,1.2-0.2,1.6-0.6c0.4-0.4,0.5-1,0.5-1.8v-4h0.7v4c0,1-0.3,1.8-0.8,2.3c-0.5,0.5-1.2,0.8-2.1,0.8S175.3,187.2,174.8,186.7z"/>
<path class="st6" d="M189.3,180.4v7h-0.7v-5.6l-2.8,4.7h-0.4l-2.8-4.7v5.6H182v-7h0.6l3,5.2l3-5.2H189.3z"/>
<path class="st6" d="M191.5,180.4h0.7v7h-0.7V180.4z"/>
<path class="st6" d="M194.6,180.4h2.9c0.7,0,1.4,0.1,2,0.4c0.6,0.3,1,0.7,1.3,1.2c0.3,0.5,0.5,1.1,0.5,1.8s-0.2,1.3-0.5,1.8
	c-0.3,0.5-0.8,0.9-1.3,1.2c-0.6,0.3-1.2,0.4-2,0.4h-2.9V180.4z M197.4,186.8c0.6,0,1.1-0.1,1.6-0.4s0.8-0.6,1.1-1
	c0.3-0.4,0.4-0.9,0.4-1.5s-0.1-1.1-0.4-1.5c-0.3-0.4-0.6-0.8-1.1-1c-0.5-0.2-1-0.4-1.6-0.4h-2.1v5.7H197.4z"/>
<path class="st6" d="M204,187c-0.6-0.3-1-0.7-1.3-1.3c-0.3-0.5-0.5-1.1-0.5-1.8s0.2-1.3,0.5-1.8c0.3-0.5,0.8-1,1.3-1.3
	c0.6-0.3,1.2-0.5,1.9-0.5c0.7,0,1.3,0.2,1.9,0.5c0.6,0.3,1,0.7,1.3,1.3c0.3,0.5,0.5,1.2,0.5,1.8s-0.2,1.3-0.5,1.8
	c-0.3,0.5-0.8,1-1.3,1.3c-0.6,0.3-1.2,0.5-1.9,0.5C205.2,187.5,204.6,187.3,204,187z M207.4,186.4c0.4-0.3,0.8-0.6,1-1
	s0.4-0.9,0.4-1.5c0-0.5-0.1-1-0.4-1.5s-0.6-0.8-1-1c-0.4-0.3-0.9-0.4-1.5-0.4c-0.6,0-1.1,0.1-1.5,0.4c-0.4,0.3-0.8,0.6-1.1,1
	c-0.3,0.4-0.4,0.9-0.4,1.5c0,0.5,0.1,1,0.4,1.5c0.3,0.4,0.6,0.8,1.1,1c0.5,0.3,1,0.4,1.5,0.4C206.4,186.8,206.9,186.7,207.4,186.4z"
	/>
<path class="st6" d="M216,187.4l-1.6-2.3c-0.2,0-0.4,0-0.6,0H212v2.2h-0.7v-7h2.6c0.9,0,1.6,0.2,2.1,0.6c0.5,0.4,0.8,1,0.8,1.8
	c0,0.5-0.1,1-0.4,1.4c-0.3,0.4-0.7,0.6-1.2,0.8l1.7,2.4H216z M215.4,184.1c0.4-0.3,0.5-0.7,0.5-1.3c0-0.6-0.2-1-0.5-1.3
	c-0.4-0.3-0.9-0.5-1.6-0.5H212v3.5h1.9C214.5,184.6,215,184.4,215.4,184.1z"/>
<path class="st6" d="M223.4,186.8v0.6h-4.9v-7h4.8v0.6h-4.1v2.5h3.6v0.6h-3.6v2.6H223.4z"/>
<path class="st6" d="M225.6,187.2c-0.5-0.2-0.8-0.4-1.1-0.7l0.3-0.6c0.3,0.3,0.6,0.5,1,0.6c0.4,0.2,0.9,0.2,1.3,0.2
	c0.6,0,1.1-0.1,1.4-0.3s0.5-0.5,0.5-0.9c0-0.3-0.1-0.5-0.3-0.7c-0.2-0.2-0.4-0.3-0.6-0.4c-0.2-0.1-0.6-0.2-1-0.3
	c-0.5-0.1-0.9-0.3-1.3-0.4c-0.3-0.1-0.6-0.3-0.8-0.6c-0.2-0.3-0.3-0.6-0.3-1c0-0.4,0.1-0.7,0.3-1s0.5-0.5,0.9-0.7s0.9-0.3,1.4-0.3
	c0.4,0,0.8,0.1,1.2,0.2s0.7,0.3,1,0.5l-0.3,0.6c-0.3-0.2-0.6-0.3-0.9-0.4c-0.3-0.1-0.7-0.1-1-0.1c-0.6,0-1.1,0.1-1.4,0.4
	c-0.3,0.2-0.5,0.5-0.5,0.9c0,0.3,0.1,0.5,0.3,0.7s0.4,0.3,0.6,0.4c0.3,0.1,0.6,0.2,1,0.3c0.5,0.1,0.9,0.3,1.2,0.4
	c0.3,0.1,0.6,0.3,0.8,0.6c0.2,0.3,0.3,0.6,0.3,1c0,0.4-0.1,0.7-0.3,1c-0.2,0.3-0.5,0.5-0.9,0.7c-0.4,0.2-0.9,0.3-1.5,0.3
	C226.5,187.5,226,187.4,225.6,187.2z"/>
<path class="st6" d="M152.3,195c0.5,0.4,0.8,1,0.8,1.8s-0.3,1.3-0.8,1.8c-0.5,0.4-1.2,0.6-2.1,0.6h-1.9v2.2h-0.7v-7h2.6
	C151.1,194.4,151.8,194.6,152.3,195z M151.8,198.1c0.4-0.3,0.5-0.7,0.5-1.3c0-0.6-0.2-1-0.5-1.3c-0.4-0.3-0.9-0.5-1.6-0.5h-1.9v3.5
	h1.9C150.9,198.5,151.4,198.4,151.8,198.1z"/>
<path class="st6" d="M159.5,201.4l-1.6-2.3c-0.2,0-0.4,0-0.6,0h-1.9v2.2h-0.7v-7h2.6c0.9,0,1.6,0.2,2.1,0.6c0.5,0.4,0.8,1,0.8,1.8
	c0,0.5-0.1,1-0.4,1.4c-0.3,0.4-0.7,0.6-1.2,0.8l1.7,2.4H159.5z M158.9,198.1c0.4-0.3,0.5-0.7,0.5-1.3c0-0.6-0.2-1-0.5-1.3
	c-0.4-0.3-0.9-0.5-1.6-0.5h-1.9v3.5h1.9C158,198.6,158.6,198.4,158.9,198.1z"/>
<path class="st6" d="M163.1,201c-0.6-0.3-1-0.7-1.3-1.3c-0.3-0.5-0.5-1.1-0.5-1.8s0.2-1.3,0.5-1.8c0.3-0.5,0.8-1,1.3-1.3
	c0.6-0.3,1.2-0.5,1.9-0.5c0.7,0,1.3,0.2,1.9,0.5c0.6,0.3,1,0.7,1.3,1.3c0.3,0.5,0.5,1.2,0.5,1.8s-0.2,1.3-0.5,1.8
	c-0.3,0.5-0.8,1-1.3,1.3c-0.6,0.3-1.2,0.5-1.9,0.5C164.3,201.5,163.7,201.3,163.1,201z M166.5,200.4c0.4-0.3,0.8-0.6,1-1
	s0.4-0.9,0.4-1.5c0-0.5-0.1-1-0.4-1.5s-0.6-0.8-1-1c-0.4-0.3-0.9-0.4-1.5-0.4c-0.6,0-1.1,0.1-1.5,0.4c-0.4,0.3-0.8,0.6-1.1,1
	c-0.3,0.4-0.4,0.9-0.4,1.5c0,0.5,0.1,1,0.4,1.5c0.3,0.4,0.6,0.8,1.1,1c0.5,0.3,1,0.4,1.5,0.4C165.6,200.8,166.1,200.7,166.5,200.4z"
	/>
<path class="st6" d="M170.4,194.4h2.9c0.7,0,1.4,0.1,2,0.4c0.6,0.3,1,0.7,1.3,1.2c0.3,0.5,0.5,1.1,0.5,1.8s-0.2,1.3-0.5,1.8
	c-0.3,0.5-0.8,0.9-1.3,1.2c-0.6,0.3-1.2,0.4-2,0.4h-2.9V194.4z M173.2,200.8c0.6,0,1.1-0.1,1.6-0.4s0.8-0.6,1.1-1
	c0.3-0.4,0.4-0.9,0.4-1.5s-0.1-1.1-0.4-1.5c-0.3-0.4-0.6-0.8-1.1-1c-0.5-0.2-1-0.4-1.6-0.4h-2.1v5.7H173.2z"/>
<path class="st6" d="M179.3,200.7c-0.5-0.5-0.8-1.3-0.8-2.3v-4h0.7v4c0,0.8,0.2,1.4,0.6,1.8c0.4,0.4,0.9,0.6,1.6,0.6
	c0.7,0,1.2-0.2,1.6-0.6c0.4-0.4,0.5-1,0.5-1.8v-4h0.7v4c0,1-0.3,1.8-0.8,2.3c-0.5,0.5-1.2,0.8-2.1,0.8S179.8,201.2,179.3,200.7z"/>
<path class="st6" d="M187.7,201c-0.6-0.3-1-0.7-1.3-1.3c-0.3-0.5-0.5-1.2-0.5-1.8s0.2-1.3,0.5-1.8c0.3-0.5,0.8-1,1.3-1.3
	s1.2-0.5,1.9-0.5c0.5,0,1,0.1,1.4,0.3s0.8,0.4,1.1,0.8l-0.5,0.5c-0.5-0.6-1.2-0.8-2.1-0.8c-0.6,0-1.1,0.1-1.5,0.4
	c-0.5,0.3-0.8,0.6-1.1,1c-0.3,0.4-0.4,0.9-0.4,1.5c0,0.5,0.1,1,0.4,1.5c0.3,0.4,0.6,0.8,1.1,1c0.5,0.3,1,0.4,1.5,0.4
	c0.8,0,1.5-0.3,2.1-0.8l0.5,0.5c-0.3,0.3-0.7,0.6-1.1,0.8c-0.4,0.2-0.9,0.3-1.4,0.3C188.9,201.5,188.3,201.3,187.7,201z"/>
<path class="st6" d="M195.1,195h-2.5v-0.6h5.7v0.6h-2.5v6.4h-0.7V195z"/>
<path class="st6" d="M200.6,201c-0.6-0.3-1-0.7-1.3-1.3c-0.3-0.5-0.5-1.1-0.5-1.8s0.2-1.3,0.5-1.8c0.3-0.5,0.8-1,1.3-1.3
	c0.6-0.3,1.2-0.5,1.9-0.5c0.7,0,1.3,0.2,1.9,0.5c0.6,0.3,1,0.7,1.3,1.3c0.3,0.5,0.5,1.2,0.5,1.8s-0.2,1.3-0.5,1.8
	c-0.3,0.5-0.8,1-1.3,1.3c-0.6,0.3-1.2,0.5-1.9,0.5C201.8,201.5,201.2,201.3,200.6,201z M204,200.4c0.4-0.3,0.8-0.6,1-1
	s0.4-0.9,0.4-1.5c0-0.5-0.1-1-0.4-1.5s-0.6-0.8-1-1c-0.4-0.3-0.9-0.4-1.5-0.4c-0.6,0-1.1,0.1-1.5,0.4c-0.4,0.3-0.8,0.6-1.1,1
	c-0.3,0.4-0.4,0.9-0.4,1.5c0,0.5,0.1,1,0.4,1.5c0.3,0.4,0.6,0.8,1.1,1c0.5,0.3,1,0.4,1.5,0.4C203.1,200.8,203.6,200.7,204,200.4z"/>
<path class="st6" d="M212.6,201.4l-1.6-2.3c-0.2,0-0.4,0-0.6,0h-1.9v2.2h-0.7v-7h2.6c0.9,0,1.6,0.2,2.1,0.6c0.5,0.4,0.8,1,0.8,1.8
	c0,0.5-0.1,1-0.4,1.4c-0.3,0.4-0.7,0.6-1.2,0.8l1.7,2.4H212.6z M212.1,198.1c0.4-0.3,0.5-0.7,0.5-1.3c0-0.6-0.2-1-0.5-1.3
	c-0.4-0.3-0.9-0.5-1.6-0.5h-1.9v3.5h1.9C211.2,198.6,211.7,198.4,212.1,198.1z"/>
<path class="st6" d="M220,200.8v0.6h-4.9v-7h4.8v0.6h-4.1v2.5h3.6v0.6h-3.6v2.6H220z"/>
<path class="st6" d="M222.2,201.2c-0.5-0.2-0.8-0.4-1.1-0.7l0.3-0.6c0.3,0.3,0.6,0.5,1,0.6c0.4,0.2,0.9,0.2,1.3,0.2
	c0.6,0,1.1-0.1,1.4-0.3s0.5-0.5,0.5-0.9c0-0.3-0.1-0.5-0.3-0.7c-0.2-0.2-0.4-0.3-0.6-0.4c-0.2-0.1-0.6-0.2-1-0.3
	c-0.5-0.1-0.9-0.3-1.3-0.4c-0.3-0.1-0.6-0.3-0.8-0.6c-0.2-0.3-0.3-0.6-0.3-1c0-0.4,0.1-0.7,0.3-1s0.5-0.5,0.9-0.7s0.9-0.3,1.4-0.3
	c0.4,0,0.8,0.1,1.2,0.2s0.7,0.3,1,0.5l-0.3,0.6c-0.3-0.2-0.6-0.3-0.9-0.4c-0.3-0.1-0.7-0.1-1-0.1c-0.6,0-1.1,0.1-1.4,0.4
	c-0.3,0.2-0.5,0.5-0.5,0.9c0,0.3,0.1,0.5,0.3,0.7s0.4,0.3,0.6,0.4c0.3,0.1,0.6,0.2,1,0.3c0.5,0.1,0.9,0.3,1.2,0.4
	c0.3,0.1,0.6,0.3,0.8,0.6c0.2,0.3,0.3,0.6,0.3,1c0,0.4-0.1,0.7-0.3,1c-0.2,0.3-0.5,0.5-0.9,0.7c-0.4,0.2-0.9,0.3-1.5,0.3
	C223.2,201.5,222.7,201.4,222.2,201.2z"/>
<path class="st6" d="M112.5,209c0.5,0.4,0.8,1,0.8,1.8s-0.3,1.3-0.8,1.8c-0.5,0.4-1.2,0.6-2.1,0.6h-1.9v2.2h-0.7v-7h2.6
	C111.3,208.4,112,208.6,112.5,209z M112,212.1c0.4-0.3,0.5-0.7,0.5-1.3c0-0.6-0.2-1-0.5-1.3c-0.4-0.3-0.9-0.5-1.6-0.5h-1.9v3.5h1.9
	C111.1,212.5,111.6,212.4,112,212.1z"/>
<path class="st6" d="M119.8,215.4l-1.6-2.3c-0.2,0-0.4,0-0.6,0h-1.9v2.2H115v-7h2.6c0.9,0,1.6,0.2,2.1,0.6c0.5,0.4,0.8,1,0.8,1.8
	c0,0.5-0.1,1-0.4,1.4c-0.3,0.4-0.7,0.6-1.2,0.8l1.7,2.4H119.8z M119.2,212.1c0.4-0.3,0.5-0.7,0.5-1.3c0-0.6-0.2-1-0.5-1.3
	c-0.4-0.3-0.9-0.5-1.6-0.5h-1.9v3.5h1.9C118.3,212.6,118.8,212.4,119.2,212.1z"/>
<path class="st6" d="M123.4,215c-0.6-0.3-1-0.7-1.3-1.3c-0.3-0.5-0.5-1.1-0.5-1.8s0.2-1.3,0.5-1.8c0.3-0.5,0.8-1,1.3-1.3
	c0.6-0.3,1.2-0.5,1.9-0.5c0.7,0,1.3,0.2,1.9,0.5c0.6,0.3,1,0.7,1.3,1.3c0.3,0.5,0.5,1.2,0.5,1.8s-0.2,1.3-0.5,1.8
	c-0.3,0.5-0.8,1-1.3,1.3c-0.6,0.3-1.2,0.5-1.9,0.5C124.6,215.5,124,215.3,123.4,215z M126.8,214.4c0.4-0.3,0.8-0.6,1-1
	s0.4-0.9,0.4-1.5c0-0.5-0.1-1-0.4-1.5s-0.6-0.8-1-1c-0.4-0.3-0.9-0.4-1.5-0.4c-0.6,0-1.1,0.1-1.5,0.4c-0.4,0.3-0.8,0.6-1.1,1
	c-0.3,0.4-0.4,0.9-0.4,1.5c0,0.5,0.1,1,0.4,1.5c0.3,0.4,0.6,0.8,1.1,1c0.5,0.3,1,0.4,1.5,0.4C125.8,214.8,126.3,214.7,126.8,214.4z"
	/>
<path class="st6" d="M131.4,209v2.8h3.6v0.6h-3.6v3h-0.7v-7h4.8v0.6H131.4z"/>
<path class="st6" d="M141.9,214.8v0.6h-4.9v-7h4.8v0.6h-4.1v2.5h3.6v0.6h-3.6v2.6H141.9z"/>
<path class="st6" d="M144.1,215.2c-0.5-0.2-0.8-0.4-1.1-0.7l0.3-0.6c0.3,0.3,0.6,0.5,1,0.6c0.4,0.2,0.9,0.2,1.3,0.2
	c0.6,0,1.1-0.1,1.4-0.3s0.5-0.5,0.5-0.9c0-0.3-0.1-0.5-0.3-0.7c-0.2-0.2-0.4-0.3-0.6-0.4c-0.2-0.1-0.6-0.2-1-0.3
	c-0.5-0.1-0.9-0.3-1.3-0.4c-0.3-0.1-0.6-0.3-0.8-0.6c-0.2-0.3-0.3-0.6-0.3-1c0-0.4,0.1-0.7,0.3-1s0.5-0.5,0.9-0.7s0.9-0.3,1.4-0.3
	c0.4,0,0.8,0.1,1.2,0.2s0.7,0.3,1,0.5l-0.3,0.6c-0.3-0.2-0.6-0.3-0.9-0.4c-0.3-0.1-0.7-0.1-1-0.1c-0.6,0-1.1,0.1-1.4,0.4
	c-0.3,0.2-0.5,0.5-0.5,0.9c0,0.3,0.1,0.5,0.3,0.7s0.4,0.3,0.6,0.4c0.3,0.1,0.6,0.2,1,0.3c0.5,0.1,0.9,0.3,1.2,0.4
	c0.3,0.1,0.6,0.3,0.8,0.6c0.2,0.3,0.3,0.6,0.3,1c0,0.4-0.1,0.7-0.3,1c-0.2,0.3-0.5,0.5-0.9,0.7c-0.4,0.2-0.9,0.3-1.5,0.3
	C145,215.5,144.6,215.4,144.1,215.2z"/>
<path class="st6" d="M149.8,208.4h0.7v7h-0.7V208.4z"/>
<path class="st6" d="M154,215c-0.6-0.3-1-0.7-1.3-1.3c-0.3-0.5-0.5-1.1-0.5-1.8s0.2-1.3,0.5-1.8c0.3-0.5,0.8-1,1.3-1.3
	c0.6-0.3,1.2-0.5,1.9-0.5c0.7,0,1.3,0.2,1.9,0.5c0.6,0.3,1,0.7,1.3,1.3c0.3,0.5,0.5,1.2,0.5,1.8s-0.2,1.3-0.5,1.8
	c-0.3,0.5-0.8,1-1.3,1.3c-0.6,0.3-1.2,0.5-1.9,0.5C155.2,215.5,154.5,215.3,154,215z M157.4,214.4c0.4-0.3,0.8-0.6,1-1
	s0.4-0.9,0.4-1.5c0-0.5-0.1-1-0.4-1.5s-0.6-0.8-1-1c-0.4-0.3-0.9-0.4-1.5-0.4c-0.6,0-1.1,0.1-1.5,0.4c-0.4,0.3-0.8,0.6-1.1,1
	c-0.3,0.4-0.4,0.9-0.4,1.5c0,0.5,0.1,1,0.4,1.5c0.3,0.4,0.6,0.8,1.1,1c0.5,0.3,1,0.4,1.5,0.4C156.4,214.8,156.9,214.7,157.4,214.4z"
	/>
<path class="st6" d="M167,208.4v7h-0.6l-4.5-5.7v5.7h-0.7v-7h0.6l4.5,5.7v-5.7H167z"/>
<path class="st6" d="M173.7,213.5h-3.9l-0.8,1.9h-0.8l3.2-7h0.7l3.2,7h-0.8L173.7,213.5z M173.4,212.9l-1.7-3.8l-1.7,3.8H173.4z"/>
<path class="st6" d="M176.5,208.4h0.7v6.4h3.9v0.6h-4.7V208.4z"/>
<path class="st6" d="M187.3,214.8v0.6h-4.9v-7h4.8v0.6h-4.1v2.5h3.6v0.6h-3.6v2.6H187.3z"/>
<path class="st6" d="M189.5,215.2c-0.5-0.2-0.8-0.4-1.1-0.7l0.3-0.6c0.3,0.3,0.6,0.5,1,0.6c0.4,0.2,0.9,0.2,1.3,0.2
	c0.6,0,1.1-0.1,1.4-0.3s0.5-0.5,0.5-0.9c0-0.3-0.1-0.5-0.3-0.7c-0.2-0.2-0.4-0.3-0.6-0.4c-0.2-0.1-0.6-0.2-1-0.3
	c-0.5-0.1-0.9-0.3-1.3-0.4c-0.3-0.1-0.6-0.3-0.8-0.6c-0.2-0.3-0.3-0.6-0.3-1c0-0.4,0.1-0.7,0.3-1s0.5-0.5,0.9-0.7s0.9-0.3,1.4-0.3
	c0.4,0,0.8,0.1,1.2,0.2s0.7,0.3,1,0.5l-0.3,0.6c-0.3-0.2-0.6-0.3-0.9-0.4c-0.3-0.1-0.7-0.1-1-0.1c-0.6,0-1.1,0.1-1.4,0.4
	c-0.3,0.2-0.5,0.5-0.5,0.9c0,0.3,0.1,0.5,0.3,0.7s0.4,0.3,0.6,0.4c0.3,0.1,0.6,0.2,1,0.3c0.5,0.1,0.9,0.3,1.2,0.4
	c0.3,0.1,0.6,0.3,0.8,0.6c0.2,0.3,0.3,0.6,0.3,1c0,0.4-0.1,0.7-0.3,1c-0.2,0.3-0.5,0.5-0.9,0.7c-0.4,0.2-0.9,0.3-1.5,0.3
	C190.5,215.5,190,215.4,189.5,215.2z"/>
<path class="st6" d="M202.2,213.5h-3.9l-0.8,1.9h-0.8l3.2-7h0.7l3.2,7h-0.8L202.2,213.5z M202,212.9l-1.7-3.8l-1.7,3.8H202z"/>
<path class="st6" d="M205.7,214.7c-0.5-0.5-0.8-1.3-0.8-2.3v-4h0.7v4c0,0.8,0.2,1.4,0.6,1.8c0.4,0.4,0.9,0.6,1.6,0.6
	c0.7,0,1.2-0.2,1.6-0.6c0.4-0.4,0.5-1,0.5-1.8v-4h0.7v4c0,1-0.3,1.8-0.8,2.3c-0.5,0.5-1.2,0.8-2.1,0.8S206.2,215.2,205.7,214.7z"/>
<path class="st6" d="M214.3,209h-2.5v-0.6h5.7v0.6H215v6.4h-0.7V209z"/>
<path class="st6" d="M219.9,215c-0.6-0.3-1-0.7-1.3-1.3c-0.3-0.5-0.5-1.1-0.5-1.8s0.2-1.3,0.5-1.8c0.3-0.5,0.8-1,1.3-1.3
	c0.6-0.3,1.2-0.5,1.9-0.5c0.7,0,1.3,0.2,1.9,0.5c0.6,0.3,1,0.7,1.3,1.3c0.3,0.5,0.5,1.2,0.5,1.8s-0.2,1.3-0.5,1.8
	c-0.3,0.5-0.8,1-1.3,1.3c-0.6,0.3-1.2,0.5-1.9,0.5C221,215.5,220.4,215.3,219.9,215z M223.2,214.4c0.4-0.3,0.8-0.6,1-1
	s0.4-0.9,0.4-1.5c0-0.5-0.1-1-0.4-1.5s-0.6-0.8-1-1c-0.4-0.3-0.9-0.4-1.5-0.4c-0.6,0-1.1,0.1-1.5,0.4c-0.4,0.3-0.8,0.6-1.1,1
	c-0.3,0.4-0.4,0.9-0.4,1.5c0,0.5,0.1,1,0.4,1.5c0.3,0.4,0.6,0.8,1.1,1c0.5,0.3,1,0.4,1.5,0.4C222.3,214.8,222.8,214.7,223.2,214.4z
	 M222.5,206.6h1l-1.6,1.2h-0.7L222.5,206.6z"/>
<path class="st6" d="M232.9,208.4v7h-0.6l-4.5-5.7v5.7h-0.7v-7h0.6l4.5,5.7v-5.7H232.9z"/>
<path class="st6" d="M236.4,215c-0.6-0.3-1-0.7-1.3-1.3c-0.3-0.5-0.5-1.1-0.5-1.8s0.2-1.3,0.5-1.8c0.3-0.5,0.8-1,1.3-1.3
	c0.6-0.3,1.2-0.5,1.9-0.5c0.7,0,1.3,0.2,1.9,0.5c0.6,0.3,1,0.7,1.3,1.3c0.3,0.5,0.5,1.2,0.5,1.8s-0.2,1.3-0.5,1.8
	c-0.3,0.5-0.8,1-1.3,1.3c-0.6,0.3-1.2,0.5-1.9,0.5C237.6,215.5,236.9,215.3,236.4,215z M239.8,214.4c0.4-0.3,0.8-0.6,1-1
	s0.4-0.9,0.4-1.5c0-0.5-0.1-1-0.4-1.5s-0.6-0.8-1-1c-0.4-0.3-0.9-0.4-1.5-0.4c-0.6,0-1.1,0.1-1.5,0.4c-0.4,0.3-0.8,0.6-1.1,1
	c-0.3,0.4-0.4,0.9-0.4,1.5c0,0.5,0.1,1,0.4,1.5c0.3,0.4,0.6,0.8,1.1,1c0.5,0.3,1,0.4,1.5,0.4C238.8,214.8,239.3,214.7,239.8,214.4z"
	/>
<path class="st6" d="M250.9,208.4v7h-0.7v-5.6l-2.8,4.7H247l-2.8-4.7v5.6h-0.7v-7h0.6l3,5.2l3-5.2H250.9z"/>
<path class="st6" d="M254.3,215c-0.6-0.3-1-0.7-1.3-1.3c-0.3-0.5-0.5-1.1-0.5-1.8s0.2-1.3,0.5-1.8c0.3-0.5,0.8-1,1.3-1.3
	c0.6-0.3,1.2-0.5,1.9-0.5c0.7,0,1.3,0.2,1.9,0.5c0.6,0.3,1,0.7,1.3,1.3c0.3,0.5,0.5,1.2,0.5,1.8s-0.2,1.3-0.5,1.8
	c-0.3,0.5-0.8,1-1.3,1.3c-0.6,0.3-1.2,0.5-1.9,0.5C255.5,215.5,254.9,215.3,254.3,215z M257.7,214.4c0.4-0.3,0.8-0.6,1-1
	s0.4-0.9,0.4-1.5c0-0.5-0.1-1-0.4-1.5s-0.6-0.8-1-1c-0.4-0.3-0.9-0.4-1.5-0.4c-0.6,0-1.1,0.1-1.5,0.4c-0.4,0.3-0.8,0.6-1.1,1
	c-0.3,0.4-0.4,0.9-0.4,1.5c0,0.5,0.1,1,0.4,1.5c0.3,0.4,0.6,0.8,1.1,1c0.5,0.3,1,0.4,1.5,0.4C256.8,214.8,257.3,214.7,257.7,214.4z"
	/>
<path class="st6" d="M262,215.2c-0.5-0.2-0.8-0.4-1.1-0.7l0.3-0.6c0.3,0.3,0.6,0.5,1,0.6c0.4,0.2,0.9,0.2,1.3,0.2
	c0.6,0,1.1-0.1,1.4-0.3s0.5-0.5,0.5-0.9c0-0.3-0.1-0.5-0.3-0.7c-0.2-0.2-0.4-0.3-0.6-0.4c-0.2-0.1-0.6-0.2-1-0.3
	c-0.5-0.1-0.9-0.3-1.3-0.4c-0.3-0.1-0.6-0.3-0.8-0.6c-0.2-0.3-0.3-0.6-0.3-1c0-0.4,0.1-0.7,0.3-1s0.5-0.5,0.9-0.7s0.9-0.3,1.4-0.3
	c0.4,0,0.8,0.1,1.2,0.2s0.7,0.3,1,0.5l-0.3,0.6c-0.3-0.2-0.6-0.3-0.9-0.4c-0.3-0.1-0.7-0.1-1-0.1c-0.6,0-1.1,0.1-1.4,0.4
	c-0.3,0.2-0.5,0.5-0.5,0.9c0,0.3,0.1,0.5,0.3,0.7s0.4,0.3,0.6,0.4c0.3,0.1,0.6,0.2,1,0.3c0.5,0.1,0.9,0.3,1.2,0.4
	c0.3,0.1,0.6,0.3,0.8,0.6c0.2,0.3,0.3,0.6,0.3,1c0,0.4-0.1,0.7-0.3,1c-0.2,0.3-0.5,0.5-0.9,0.7c-0.4,0.2-0.9,0.3-1.5,0.3
	C262.9,215.5,262.4,215.4,262,215.2z"/>
<path class="st6" d="M130.3,228.8v0.6h-4.9v-7h4.8v0.6h-4.1v2.5h3.6v0.6h-3.6v2.6H130.3z"/>
<path class="st6" d="M131.7,229.2c-0.3-0.2-0.6-0.4-0.8-0.7l0.4-0.5c0.4,0.6,0.9,0.9,1.5,0.9c0.9,0,1.3-0.5,1.3-1.5V223h-2.6v-0.6
	h3.3v4.9c0,0.7-0.2,1.3-0.5,1.7s-0.9,0.6-1.5,0.6C132.4,229.5,132,229.4,131.7,229.2z"/>
<path class="st6" d="M142,228.8v0.6H137v-7h4.8v0.6h-4.1v2.5h3.6v0.6h-3.6v2.6H142z"/>
<path class="st6" d="M144.9,229c-0.6-0.3-1-0.7-1.3-1.3c-0.3-0.5-0.5-1.2-0.5-1.8s0.2-1.3,0.5-1.8c0.3-0.5,0.8-1,1.3-1.3
	s1.2-0.5,1.9-0.5c0.5,0,1,0.1,1.4,0.3s0.8,0.4,1.1,0.8l-0.5,0.5c-0.5-0.6-1.2-0.8-2.1-0.8c-0.6,0-1.1,0.1-1.5,0.4
	c-0.5,0.3-0.8,0.6-1.1,1c-0.3,0.4-0.4,0.9-0.4,1.5c0,0.5,0.1,1,0.4,1.5c0.3,0.4,0.6,0.8,1.1,1c0.5,0.3,1,0.4,1.5,0.4
	c0.8,0,1.5-0.3,2.1-0.8l0.5,0.5c-0.3,0.3-0.7,0.6-1.1,0.8c-0.4,0.2-0.9,0.3-1.4,0.3C146.1,229.5,145.4,229.3,144.9,229z"/>
<path class="st6" d="M151.6,228.7c-0.5-0.5-0.8-1.3-0.8-2.3v-4h0.7v4c0,0.8,0.2,1.4,0.6,1.8c0.4,0.4,0.9,0.6,1.6,0.6
	c0.7,0,1.2-0.2,1.6-0.6c0.4-0.4,0.5-1,0.5-1.8v-4h0.7v4c0,1-0.3,1.8-0.8,2.3c-0.5,0.5-1.2,0.8-2.1,0.8S152.1,229.2,151.6,228.7z"/>
<path class="st6" d="M160.2,223h-2.5v-0.6h5.7v0.6h-2.5v6.4h-0.7V223z"/>
<path class="st6" d="M164.6,222.4h0.7v7h-0.7V222.4z"/>
<path class="st6" d="M173.4,222.4l-3.1,7h-0.7l-3.1-7h0.8l2.7,6.1l2.7-6.1H173.4z"/>
<path class="st6" d="M175.7,229c-0.6-0.3-1-0.7-1.3-1.3c-0.3-0.5-0.5-1.1-0.5-1.8s0.2-1.3,0.5-1.8c0.3-0.5,0.8-1,1.3-1.3
	c0.6-0.3,1.2-0.5,1.9-0.5c0.7,0,1.3,0.2,1.9,0.5c0.6,0.3,1,0.7,1.3,1.3c0.3,0.5,0.5,1.2,0.5,1.8s-0.2,1.3-0.5,1.8
	c-0.3,0.5-0.8,1-1.3,1.3c-0.6,0.3-1.2,0.5-1.9,0.5C176.9,229.5,176.3,229.3,175.7,229z M179.1,228.4c0.4-0.3,0.8-0.6,1-1
	s0.4-0.9,0.4-1.5c0-0.5-0.1-1-0.4-1.5s-0.6-0.8-1-1c-0.4-0.3-0.9-0.4-1.5-0.4c-0.6,0-1.1,0.1-1.5,0.4c-0.4,0.3-0.8,0.6-1.1,1
	c-0.3,0.4-0.4,0.9-0.4,1.5c0,0.5,0.1,1,0.4,1.5c0.3,0.4,0.6,0.8,1.1,1c0.5,0.3,1,0.4,1.5,0.4C178.2,228.8,178.7,228.7,179.1,228.4z"
	/>
<path class="st6" d="M183.4,229.2c-0.5-0.2-0.8-0.4-1.1-0.7l0.3-0.6c0.3,0.3,0.6,0.5,1,0.6c0.4,0.2,0.9,0.2,1.3,0.2
	c0.6,0,1.1-0.1,1.4-0.3s0.5-0.5,0.5-0.9c0-0.3-0.1-0.5-0.3-0.7c-0.2-0.2-0.4-0.3-0.6-0.4c-0.2-0.1-0.6-0.2-1-0.3
	c-0.5-0.1-0.9-0.3-1.3-0.4c-0.3-0.1-0.6-0.3-0.8-0.6c-0.2-0.3-0.3-0.6-0.3-1c0-0.4,0.1-0.7,0.3-1s0.5-0.5,0.9-0.7s0.9-0.3,1.4-0.3
	c0.4,0,0.8,0.1,1.2,0.2s0.7,0.3,1,0.5l-0.3,0.6c-0.3-0.2-0.6-0.3-0.9-0.4c-0.3-0.1-0.7-0.1-1-0.1c-0.6,0-1.1,0.1-1.4,0.4
	c-0.3,0.2-0.5,0.5-0.5,0.9c0,0.3,0.1,0.5,0.3,0.7s0.4,0.3,0.6,0.4c0.3,0.1,0.6,0.2,1,0.3c0.5,0.1,0.9,0.3,1.2,0.4
	c0.3,0.1,0.6,0.3,0.8,0.6c0.2,0.3,0.3,0.6,0.3,1c0,0.4-0.1,0.7-0.3,1c-0.2,0.3-0.5,0.5-0.9,0.7c-0.4,0.2-0.9,0.3-1.5,0.3
	C184.4,229.5,183.9,229.4,183.4,229.2z"/>
<path class="st6" d="M191.7,222.4h2.9c0.7,0,1.4,0.1,2,0.4c0.6,0.3,1,0.7,1.3,1.2c0.3,0.5,0.5,1.1,0.5,1.8s-0.2,1.3-0.5,1.8
	c-0.3,0.5-0.8,0.9-1.3,1.2c-0.6,0.3-1.2,0.4-2,0.4h-2.9V222.4z M194.5,228.8c0.6,0,1.1-0.1,1.6-0.4s0.8-0.6,1.1-1
	c0.3-0.4,0.4-0.9,0.4-1.5s-0.1-1.1-0.4-1.5c-0.3-0.4-0.6-0.8-1.1-1c-0.5-0.2-1-0.4-1.6-0.4h-2.1v5.7H194.5z"/>
<path class="st6" d="M204.9,228.8v0.6H200v-7h4.8v0.6h-4.1v2.5h3.6v0.6h-3.6v2.6H204.9z"/>
<path class="st6" d="M215.1,222.4l-3.1,7h-0.7l-3.1-7h0.8l2.7,6.1l2.7-6.1H215.1z"/>
<path class="st6" d="M221.2,228.8v0.6h-4.9v-7h4.8v0.6H217v2.5h3.6v0.6H217v2.6H221.2z"/>
<path class="st6" d="M228.8,222.4v7h-0.6l-4.5-5.7v5.7H223v-7h0.6l4.5,5.7v-5.7H228.8z"/>
<path class="st6" d="M232.5,223H230v-0.6h5.7v0.6h-2.5v6.4h-0.7V223z"/>
<path class="st6" d="M241.2,227.5h-3.9l-0.8,1.9h-0.8l3.2-7h0.7l3.2,7h-0.8L241.2,227.5z M241,226.9l-1.7-3.8l-1.7,3.8H241z"/>
<path class="st6" d="M244.4,229.2c-0.5-0.2-0.8-0.4-1.1-0.7l0.3-0.6c0.3,0.3,0.6,0.5,1,0.6c0.4,0.2,0.9,0.2,1.3,0.2
	c0.6,0,1.1-0.1,1.4-0.3s0.5-0.5,0.5-0.9c0-0.3-0.1-0.5-0.3-0.7c-0.2-0.2-0.4-0.3-0.6-0.4c-0.2-0.1-0.6-0.2-1-0.3
	c-0.5-0.1-0.9-0.3-1.3-0.4c-0.3-0.1-0.6-0.3-0.8-0.6c-0.2-0.3-0.3-0.6-0.3-1c0-0.4,0.1-0.7,0.3-1s0.5-0.5,0.9-0.7s0.9-0.3,1.4-0.3
	c0.4,0,0.8,0.1,1.2,0.2s0.7,0.3,1,0.5l-0.3,0.6c-0.3-0.2-0.6-0.3-0.9-0.4c-0.3-0.1-0.7-0.1-1-0.1c-0.6,0-1.1,0.1-1.4,0.4
	c-0.3,0.2-0.5,0.5-0.5,0.9c0,0.3,0.1,0.5,0.3,0.7s0.4,0.3,0.6,0.4c0.3,0.1,0.6,0.2,1,0.3c0.5,0.1,0.9,0.3,1.2,0.4
	c0.3,0.1,0.6,0.3,0.8,0.6c0.2,0.3,0.3,0.6,0.3,1c0,0.4-0.1,0.7-0.3,1c-0.2,0.3-0.5,0.5-0.9,0.7c-0.4,0.2-0.9,0.3-1.5,0.3
	C245.4,229.5,244.9,229.4,244.4,229.2z"/>
<path class="st6" d="M119.5,242.8v0.6h-4.9v-7h4.8v0.6h-4.1v2.5h3.6v0.6h-3.6v2.6H119.5z"/>
<path class="st6" d="M120.9,243.2c-0.3-0.2-0.6-0.4-0.8-0.7l0.4-0.5c0.4,0.6,0.9,0.9,1.5,0.9c0.9,0,1.3-0.5,1.3-1.5V237h-2.6v-0.6
	h3.3v4.9c0,0.7-0.2,1.3-0.5,1.7s-0.9,0.6-1.5,0.6C121.6,243.5,121.2,243.4,120.9,243.2z"/>
<path class="st6" d="M131.2,242.8v0.6h-4.9v-7h4.8v0.6H127v2.5h3.6v0.6H127v2.6H131.2z"/>
<path class="st6" d="M134.1,243c-0.6-0.3-1-0.7-1.3-1.3c-0.3-0.5-0.5-1.2-0.5-1.8s0.2-1.3,0.5-1.8c0.3-0.5,0.8-1,1.3-1.3
	s1.2-0.5,1.9-0.5c0.5,0,1,0.1,1.4,0.3s0.8,0.4,1.1,0.8l-0.5,0.5c-0.5-0.6-1.2-0.8-2.1-0.8c-0.6,0-1.1,0.1-1.5,0.4
	c-0.5,0.3-0.8,0.6-1.1,1c-0.3,0.4-0.4,0.9-0.4,1.5c0,0.5,0.1,1,0.4,1.5c0.3,0.4,0.6,0.8,1.1,1c0.5,0.3,1,0.4,1.5,0.4
	c0.8,0,1.5-0.3,2.1-0.8l0.5,0.5c-0.3,0.3-0.7,0.6-1.1,0.8c-0.4,0.2-0.9,0.3-1.4,0.3C135.3,243.5,134.7,243.3,134.1,243z"/>
<path class="st6" d="M140.9,242.7c-0.5-0.5-0.8-1.3-0.8-2.3v-4h0.7v4c0,0.8,0.2,1.4,0.6,1.8c0.4,0.4,0.9,0.6,1.6,0.6
	c0.7,0,1.2-0.2,1.6-0.6c0.4-0.4,0.5-1,0.5-1.8v-4h0.7v4c0,1-0.3,1.8-0.8,2.3c-0.5,0.5-1.2,0.8-2.1,0.8S141.4,243.2,140.9,242.7z"/>
<path class="st6" d="M149.4,237H147v-0.6h5.7v0.6h-2.5v6.4h-0.7V237z"/>
<path class="st6" d="M153.8,236.4h0.7v7h-0.7V236.4z"/>
<path class="st6" d="M162.7,236.4l-3.1,7h-0.7l-3.1-7h0.8l2.7,6.1l2.7-6.1H162.7z"/>
<path class="st6" d="M165,243c-0.6-0.3-1-0.7-1.3-1.3c-0.3-0.5-0.5-1.1-0.5-1.8s0.2-1.3,0.5-1.8c0.3-0.5,0.8-1,1.3-1.3
	c0.6-0.3,1.2-0.5,1.9-0.5c0.7,0,1.3,0.2,1.9,0.5c0.6,0.3,1,0.7,1.3,1.3c0.3,0.5,0.5,1.2,0.5,1.8s-0.2,1.3-0.5,1.8
	c-0.3,0.5-0.8,1-1.3,1.3c-0.6,0.3-1.2,0.5-1.9,0.5C166.2,243.5,165.6,243.3,165,243z M168.4,242.4c0.4-0.3,0.8-0.6,1-1
	s0.4-0.9,0.4-1.5c0-0.5-0.1-1-0.4-1.5s-0.6-0.8-1-1c-0.4-0.3-0.9-0.4-1.5-0.4c-0.6,0-1.1,0.1-1.5,0.4c-0.4,0.3-0.8,0.6-1.1,1
	c-0.3,0.4-0.4,0.9-0.4,1.5c0,0.5,0.1,1,0.4,1.5c0.3,0.4,0.6,0.8,1.1,1c0.5,0.3,1,0.4,1.5,0.4C167.4,242.8,167.9,242.7,168.4,242.4z"
	/>
<path class="st6" d="M172.6,243.2c-0.5-0.2-0.8-0.4-1.1-0.7l0.3-0.6c0.3,0.3,0.6,0.5,1,0.6c0.4,0.2,0.9,0.2,1.3,0.2
	c0.6,0,1.1-0.1,1.4-0.3s0.5-0.5,0.5-0.9c0-0.3-0.1-0.5-0.3-0.7c-0.2-0.2-0.4-0.3-0.6-0.4c-0.2-0.1-0.6-0.2-1-0.3
	c-0.5-0.1-0.9-0.3-1.3-0.4c-0.3-0.1-0.6-0.3-0.8-0.6c-0.2-0.3-0.3-0.6-0.3-1c0-0.4,0.1-0.7,0.3-1s0.5-0.5,0.9-0.7s0.9-0.3,1.4-0.3
	c0.4,0,0.8,0.1,1.2,0.2s0.7,0.3,1,0.5l-0.3,0.6c-0.3-0.2-0.6-0.3-0.9-0.4c-0.3-0.1-0.7-0.1-1-0.1c-0.6,0-1.1,0.1-1.4,0.4
	c-0.3,0.2-0.5,0.5-0.5,0.9c0,0.3,0.1,0.5,0.3,0.7s0.4,0.3,0.6,0.4c0.3,0.1,0.6,0.2,1,0.3c0.5,0.1,0.9,0.3,1.2,0.4
	c0.3,0.1,0.6,0.3,0.8,0.6c0.2,0.3,0.3,0.6,0.3,1c0,0.4-0.1,0.7-0.3,1c-0.2,0.3-0.5,0.5-0.9,0.7c-0.4,0.2-0.9,0.3-1.5,0.3
	C173.6,243.5,173.1,243.4,172.6,243.2z"/>
<path class="st6" d="M181,236.4h2.9c0.7,0,1.4,0.1,2,0.4c0.6,0.3,1,0.7,1.3,1.2c0.3,0.5,0.5,1.1,0.5,1.8s-0.2,1.3-0.5,1.8
	c-0.3,0.5-0.8,0.9-1.3,1.2c-0.6,0.3-1.2,0.4-2,0.4H181V236.4z M183.8,242.8c0.6,0,1.1-0.1,1.6-0.4s0.8-0.6,1.1-1
	c0.3-0.4,0.4-0.9,0.4-1.5s-0.1-1.1-0.4-1.5c-0.3-0.4-0.6-0.8-1.1-1c-0.5-0.2-1-0.4-1.6-0.4h-2.1v5.7H183.8z"/>
<path class="st6" d="M194.2,242.8v0.6h-4.9v-7h4.8v0.6H190v2.5h3.6v0.6H190v2.6H194.2z"/>
<path class="st6" d="M205.8,236.4v7h-0.7v-5.6l-2.8,4.7H202l-2.8-4.7v5.6h-0.7v-7h0.6l3,5.2l3-5.2H205.8z"/>
<path class="st6" d="M212.5,241.5h-3.9l-0.8,1.9H207l3.2-7h0.7l3.2,7h-0.8L212.5,241.5z M212.2,240.9l-1.7-3.8l-1.7,3.8H212.2z"/>
<path class="st6" d="M220,243.4l-1.6-2.3c-0.2,0-0.4,0-0.6,0H216v2.2h-0.7v-7h2.6c0.9,0,1.6,0.2,2.1,0.6c0.5,0.4,0.8,1,0.8,1.8
	c0,0.5-0.1,1-0.4,1.4c-0.3,0.4-0.7,0.6-1.2,0.8l1.7,2.4H220z M219.5,240.1c0.4-0.3,0.5-0.7,0.5-1.3c0-0.6-0.2-1-0.5-1.3
	c-0.4-0.3-0.9-0.5-1.6-0.5H216v3.5h1.9C218.6,240.6,219.1,240.4,219.5,240.1z"/>
<path class="st6" d="M224.7,240.1l-1.4,1.5v1.8h-0.7v-7h0.7v4.2l4.1-4.2h0.8l-3,3.2l3.2,3.8h-0.9L224.7,240.1z"/>
<path class="st6" d="M234.6,242.8v0.6h-4.9v-7h4.8v0.6h-4.1v2.5h3.6v0.6h-3.6v2.6H234.6z"/>
<path class="st6" d="M237.7,237h-2.5v-0.6h5.7v0.6h-2.5v6.4h-0.7V237z"/>
<path class="st6" d="M242,236.4h0.7v7H242V236.4z"/>
<path class="st6" d="M250.9,236.4v7h-0.6l-4.5-5.7v5.7h-0.7v-7h0.6l4.5,5.7v-5.7H250.9z"/>
<path class="st6" d="M258.1,239.9h0.7v2.7c-0.3,0.3-0.7,0.5-1.2,0.7c-0.4,0.2-0.9,0.2-1.4,0.2c-0.7,0-1.3-0.2-1.9-0.5
	s-1-0.7-1.3-1.3s-0.5-1.2-0.5-1.8s0.2-1.3,0.5-1.8c0.3-0.5,0.8-1,1.3-1.3s1.2-0.5,1.9-0.5c0.5,0,1,0.1,1.5,0.3
	c0.4,0.2,0.8,0.4,1.1,0.8l-0.5,0.5c-0.6-0.5-1.3-0.8-2.1-0.8c-0.6,0-1.1,0.1-1.5,0.4s-0.8,0.6-1.1,1c-0.3,0.4-0.4,0.9-0.4,1.5
	c0,0.5,0.1,1,0.4,1.5c0.3,0.4,0.6,0.8,1.1,1c0.5,0.3,1,0.4,1.5,0.4c0.7,0,1.3-0.2,1.8-0.5V239.9z"/>
<path class="st6" d="M163.4,256.8v0.6h-4.9v-7h4.8v0.6h-4.1v2.5h3.6v0.6h-3.6v2.6H163.4z"/>
<path class="st6" d="M172.4,250.4v7h-0.7v-5.6l-2.8,4.7h-0.4l-2.8-4.7v5.6h-0.7v-7h0.6l3,5.2l3-5.2H172.4z"/>
<path class="st6" d="M180.2,254.4c0.3,0.3,0.4,0.7,0.4,1.1c0,0.6-0.2,1.1-0.7,1.4c-0.4,0.3-1.1,0.5-2,0.5h-3.2v-7h3
	c0.8,0,1.4,0.2,1.8,0.5c0.4,0.3,0.6,0.8,0.6,1.3c0,0.4-0.1,0.7-0.3,1s-0.5,0.5-0.8,0.6C179.6,253.9,179.9,254.1,180.2,254.4z
	 M175.4,251v2.5h2.2c0.6,0,1-0.1,1.3-0.3c0.3-0.2,0.5-0.5,0.5-0.9c0-0.4-0.2-0.7-0.5-0.9s-0.7-0.3-1.3-0.3H175.4z M179.3,256.5
	c0.3-0.2,0.5-0.5,0.5-1c0-0.9-0.6-1.3-1.9-1.3h-2.5v2.6h2.5C178.5,256.8,179,256.7,179.3,256.5z"/>
<path class="st6" d="M186.6,255.5h-3.9l-0.8,1.9h-0.8l3.2-7h0.7l3.2,7h-0.8L186.6,255.5z M186.4,254.9l-1.7-3.8l-1.7,3.8H186.4z"/>
<path class="st6" d="M189.1,257.2c-0.3-0.2-0.6-0.4-0.8-0.7l0.4-0.5c0.4,0.6,0.9,0.9,1.5,0.9c0.9,0,1.3-0.5,1.3-1.5V251h-2.6v-0.6
	h3.3v4.9c0,0.7-0.2,1.3-0.5,1.7s-0.9,0.6-1.5,0.6C189.8,257.5,189.4,257.4,189.1,257.2z"/>
<path class="st6" d="M198.8,255.5h-3.9l-0.8,1.9h-0.8l3.2-7h0.7l3.2,7h-0.8L198.8,255.5z M198.5,254.9l-1.7-3.8l-1.7,3.8H198.5z"/>
<path class="st6" d="M201.6,250.4h2.9c0.7,0,1.4,0.1,2,0.4c0.6,0.3,1,0.7,1.3,1.2c0.3,0.5,0.5,1.1,0.5,1.8s-0.2,1.3-0.5,1.8
	c-0.3,0.5-0.8,0.9-1.3,1.2c-0.6,0.3-1.2,0.4-2,0.4h-2.9V250.4z M204.4,256.8c0.6,0,1.1-0.1,1.6-0.4s0.8-0.6,1.1-1
	c0.3-0.4,0.4-0.9,0.4-1.5s-0.1-1.1-0.4-1.5c-0.3-0.4-0.6-0.8-1.1-1c-0.5-0.2-1-0.4-1.6-0.4h-2.1v5.7H204.4z"/>
<path class="st6" d="M214.2,255.5h-3.9l-0.8,1.9h-0.8l3.2-7h0.7l3.2,7h-0.8L214.2,255.5z M214,254.9l-1.7-3.8l-1.7,3.8H214z"/>
<path class="st6" d="M151.1,264.4h0.7v7h-0.7V264.4z"/>
<path class="st6" d="M159.9,264.4v7h-0.6l-4.5-5.7v5.7h-0.7v-7h0.6l4.5,5.7v-5.7H159.9z"/>
<path class="st6" d="M163,265v2.8h3.6v0.6H163v3h-0.7v-7h4.8v0.6H163z"/>
<path class="st6" d="M168.5,264.4h0.7v6.4h3.9v0.6h-4.7V264.4z"/>
<path class="st6" d="M175.1,270.7c-0.5-0.5-0.8-1.3-0.8-2.3v-4h0.7v4c0,0.8,0.2,1.4,0.6,1.8c0.4,0.4,0.9,0.6,1.6,0.6
	c0.7,0,1.2-0.2,1.6-0.6c0.4-0.4,0.5-1,0.5-1.8v-4h0.7v4c0,1-0.3,1.8-0.8,2.3c-0.5,0.5-1.2,0.8-2.1,0.8S175.6,271.2,175.1,270.7z"/>
<path class="st6" d="M187.3,270.8v0.6h-4.9v-7h4.8v0.6h-4.1v2.5h3.6v0.6h-3.6v2.6H187.3z"/>
<path class="st6" d="M194.9,264.4v7h-0.6l-4.5-5.7v5.7H189v-7h0.6l4.5,5.7v-5.7H194.9z"/>
<path class="st6" d="M198.3,271c-0.6-0.3-1-0.7-1.3-1.3c-0.3-0.5-0.5-1.2-0.5-1.8s0.2-1.3,0.5-1.8c0.3-0.5,0.8-1,1.3-1.3
	s1.2-0.5,1.9-0.5c0.5,0,1,0.1,1.4,0.3s0.8,0.4,1.1,0.8l-0.5,0.5c-0.5-0.6-1.2-0.8-2.1-0.8c-0.6,0-1.1,0.1-1.5,0.4
	c-0.5,0.3-0.8,0.6-1.1,1c-0.3,0.4-0.4,0.9-0.4,1.5c0,0.5,0.1,1,0.4,1.5c0.3,0.4,0.6,0.8,1.1,1c0.5,0.3,1,0.4,1.5,0.4
	c0.8,0,1.5-0.3,2.1-0.8l0.5,0.5c-0.3,0.3-0.7,0.6-1.1,0.8c-0.4,0.2-0.9,0.3-1.4,0.3C199.5,271.5,198.9,271.3,198.3,271z"/>
<path class="st6" d="M209.3,270.8v0.6h-4.9v-7h4.8v0.6h-4.1v2.5h3.6v0.6h-3.6v2.6H209.3z"/>
<path class="st6" d="M215.8,271.4l-1.6-2.3c-0.2,0-0.4,0-0.6,0h-1.9v2.2h-0.7v-7h2.6c0.9,0,1.6,0.2,2.1,0.6c0.5,0.4,0.8,1,0.8,1.8
	c0,0.5-0.1,1-0.4,1.4c-0.3,0.4-0.7,0.6-1.2,0.8l1.7,2.4H215.8z M215.2,268.1c0.4-0.3,0.5-0.7,0.5-1.3c0-0.6-0.2-1-0.5-1.3
	c-0.4-0.3-0.9-0.5-1.6-0.5h-1.9v3.5h1.9C214.3,268.6,214.9,268.4,215.2,268.1z"/>
<path class="st6" d="M218.7,271.2c-0.5-0.2-0.8-0.4-1.1-0.7l0.3-0.6c0.3,0.3,0.6,0.5,1,0.6c0.4,0.2,0.9,0.2,1.3,0.2
	c0.6,0,1.1-0.1,1.4-0.3s0.5-0.5,0.5-0.9c0-0.3-0.1-0.5-0.3-0.7c-0.2-0.2-0.4-0.3-0.6-0.4c-0.2-0.1-0.6-0.2-1-0.3
	c-0.5-0.1-0.9-0.3-1.3-0.4c-0.3-0.1-0.6-0.3-0.8-0.6c-0.2-0.3-0.3-0.6-0.3-1c0-0.4,0.1-0.7,0.3-1s0.5-0.5,0.9-0.7s0.9-0.3,1.4-0.3
	c0.4,0,0.8,0.1,1.2,0.2s0.7,0.3,1,0.5l-0.3,0.6c-0.3-0.2-0.6-0.3-0.9-0.4c-0.3-0.1-0.7-0.1-1-0.1c-0.6,0-1.1,0.1-1.4,0.4
	c-0.3,0.2-0.5,0.5-0.5,0.9c0,0.3,0.1,0.5,0.3,0.7s0.4,0.3,0.6,0.4c0.3,0.1,0.6,0.2,1,0.3c0.5,0.1,0.9,0.3,1.2,0.4
	c0.3,0.1,0.6,0.3,0.8,0.6c0.2,0.3,0.3,0.6,0.3,1c0,0.4-0.1,0.7-0.3,1c-0.2,0.3-0.5,0.5-0.9,0.7c-0.4,0.2-0.9,0.3-1.5,0.3
	C219.7,271.5,219.2,271.4,218.7,271.2z"/>
<path class="st6" d="M151.7,279v2.8h3.6v0.6h-3.6v3h-0.7v-7h4.8v0.6H151.7z"/>
<path class="st6" d="M157.3,278.4h0.7v7h-0.7V278.4z"/>
<path class="st6" d="M160.3,278.4h0.7v6.4h3.9v0.6h-4.7V278.4z"/>
<path class="st6" d="M170.6,283.5h-3.9l-0.8,1.9h-0.8l3.2-7h0.7l3.2,7h-0.8L170.6,283.5z M170.3,282.9l-1.7-3.8l-1.7,3.8H170.3z
	 M169.3,276.6h0.9l-1.6,1.2H168L169.3,276.6z"/>
<path class="st6" d="M179.2,278.4v7h-0.6l-4.5-5.7v5.7h-0.7v-7h0.6l4.5,5.7v-5.7H179.2z"/>
<path class="st6" d="M182.8,279h-2.5v-0.6h5.7v0.6h-2.5v6.4h-0.7V279z"/>
<path class="st6" d="M192,285.4l-1.6-2.3c-0.2,0-0.4,0-0.6,0H188v2.2h-0.7v-7h2.6c0.9,0,1.6,0.2,2.1,0.6c0.5,0.4,0.8,1,0.8,1.8
	c0,0.5-0.1,1-0.4,1.4c-0.3,0.4-0.7,0.6-1.2,0.8l1.7,2.4H192z M191.4,282.1c0.4-0.3,0.5-0.7,0.5-1.3c0-0.6-0.2-1-0.5-1.3
	c-0.4-0.3-0.9-0.5-1.6-0.5H188v3.5h1.9C190.5,282.6,191,282.4,191.4,282.1z"/>
<path class="st6" d="M195.6,285c-0.6-0.3-1-0.7-1.3-1.3c-0.3-0.5-0.5-1.1-0.5-1.8s0.2-1.3,0.5-1.8c0.3-0.5,0.8-1,1.3-1.3
	c0.6-0.3,1.2-0.5,1.9-0.5c0.7,0,1.3,0.2,1.9,0.5c0.6,0.3,1,0.7,1.3,1.3c0.3,0.5,0.5,1.2,0.5,1.8s-0.2,1.3-0.5,1.8
	c-0.3,0.5-0.8,1-1.3,1.3c-0.6,0.3-1.2,0.5-1.9,0.5C196.8,285.5,196.2,285.3,195.6,285z M199,284.4c0.4-0.3,0.8-0.6,1-1
	s0.4-0.9,0.4-1.5c0-0.5-0.1-1-0.4-1.5s-0.6-0.8-1-1c-0.4-0.3-0.9-0.4-1.5-0.4c-0.6,0-1.1,0.1-1.5,0.4c-0.4,0.3-0.8,0.6-1.1,1
	c-0.3,0.4-0.4,0.9-0.4,1.5c0,0.5,0.1,1,0.4,1.5c0.3,0.4,0.6,0.8,1.1,1c0.5,0.3,1,0.4,1.5,0.4C198.1,284.8,198.6,284.7,199,284.4z"/>
<path class="st6" d="M207.6,279c0.5,0.4,0.8,1,0.8,1.8s-0.3,1.3-0.8,1.8c-0.5,0.4-1.2,0.6-2.1,0.6h-1.9v2.2h-0.7v-7h2.6
	C206.4,278.4,207.1,278.6,207.6,279z M207,282.1c0.4-0.3,0.5-0.7,0.5-1.3c0-0.6-0.2-1-0.5-1.3c-0.4-0.3-0.9-0.5-1.6-0.5h-1.9v3.5
	h1.9C206.1,282.5,206.7,282.4,207,282.1z"/>
<path class="st6" d="M211.2,285c-0.6-0.3-1-0.7-1.3-1.3c-0.3-0.5-0.5-1.1-0.5-1.8s0.2-1.3,0.5-1.8c0.3-0.5,0.8-1,1.3-1.3
	c0.6-0.3,1.2-0.5,1.9-0.5c0.7,0,1.3,0.2,1.9,0.5c0.6,0.3,1,0.7,1.3,1.3c0.3,0.5,0.5,1.2,0.5,1.8s-0.2,1.3-0.5,1.8
	c-0.3,0.5-0.8,1-1.3,1.3c-0.6,0.3-1.2,0.5-1.9,0.5C212.4,285.5,211.8,285.3,211.2,285z M214.6,284.4c0.4-0.3,0.8-0.6,1-1
	s0.4-0.9,0.4-1.5c0-0.5-0.1-1-0.4-1.5s-0.6-0.8-1-1c-0.4-0.3-0.9-0.4-1.5-0.4c-0.6,0-1.1,0.1-1.5,0.4c-0.4,0.3-0.8,0.6-1.1,1
	c-0.3,0.4-0.4,0.9-0.4,1.5c0,0.5,0.1,1,0.4,1.5c0.3,0.4,0.6,0.8,1.1,1c0.5,0.3,1,0.4,1.5,0.4C213.6,284.8,214.1,284.7,214.6,284.4z"
	/>
<path class="st6" d="M218.8,285.2c-0.5-0.2-0.8-0.4-1.1-0.7l0.3-0.6c0.3,0.3,0.6,0.5,1,0.6c0.4,0.2,0.9,0.2,1.3,0.2
	c0.6,0,1.1-0.1,1.4-0.3s0.5-0.5,0.5-0.9c0-0.3-0.1-0.5-0.3-0.7c-0.2-0.2-0.4-0.3-0.6-0.4c-0.2-0.1-0.6-0.2-1-0.3
	c-0.5-0.1-0.9-0.3-1.3-0.4c-0.3-0.1-0.6-0.3-0.8-0.6c-0.2-0.3-0.3-0.6-0.3-1c0-0.4,0.1-0.7,0.3-1s0.5-0.5,0.9-0.7s0.9-0.3,1.4-0.3
	c0.4,0,0.8,0.1,1.2,0.2s0.7,0.3,1,0.5l-0.3,0.6c-0.3-0.2-0.6-0.3-0.9-0.4c-0.3-0.1-0.7-0.1-1-0.1c-0.6,0-1.1,0.1-1.4,0.4
	c-0.3,0.2-0.5,0.5-0.5,0.9c0,0.3,0.1,0.5,0.3,0.7s0.4,0.3,0.6,0.4c0.3,0.1,0.6,0.2,1,0.3c0.5,0.1,0.9,0.3,1.2,0.4
	c0.3,0.1,0.6,0.3,0.8,0.6c0.2,0.3,0.3,0.6,0.3,1c0,0.4-0.1,0.7-0.3,1c-0.2,0.3-0.5,0.5-0.9,0.7c-0.4,0.2-0.9,0.3-1.5,0.3
	C219.8,285.5,219.3,285.4,218.8,285.2z"/>
<path class="st6" d="M259.9,423.5h4v11.9h-4V423.5z"/>
<path class="st6" d="M277.6,423.5v11.9h-3.3l-4.5-5.4v5.4h-3.9v-11.9h3.3l4.5,5.4v-5.4H277.6z"/>
<path class="st6" d="M292.2,423.5l-5,11.9h-3.9l-5-11.9h4.3l2.8,6.9l2.9-6.9H292.2z"/>
<path class="st6" d="M302.7,432.3v3h-9.9v-11.9h9.7v3h-5.7v1.4h5v2.9h-5v1.6H302.7z"/>
<path class="st6" d="M309.3,432.4h-1.1v3h-4v-11.9h5.7c1.1,0,2.1,0.2,2.9,0.5s1.4,0.9,1.9,1.6c0.4,0.7,0.7,1.5,0.7,2.4
	c0,0.8-0.2,1.6-0.6,2.2s-0.9,1.1-1.7,1.5l2.5,3.7h-4.3L309.3,432.4z M310.9,426.9c-0.3-0.2-0.7-0.4-1.2-0.4h-1.5v2.8h1.5
	c0.5,0,1-0.1,1.2-0.4c0.3-0.2,0.4-0.6,0.4-1S311.2,427.2,310.9,426.9z"/>
<path class="st6" d="M318.5,435.3c-0.9-0.2-1.7-0.5-2.3-0.9l1.3-2.9c0.6,0.3,1.2,0.6,1.9,0.8s1.4,0.3,2,0.3c0.6,0,1-0.1,1.2-0.2
	c0.2-0.1,0.4-0.3,0.4-0.5c0-0.2-0.2-0.4-0.5-0.6c-0.3-0.1-0.8-0.3-1.5-0.4c-0.9-0.2-1.7-0.4-2.3-0.6c-0.6-0.2-1.1-0.6-1.6-1.1
	c-0.5-0.5-0.7-1.2-0.7-2c0-0.7,0.2-1.4,0.6-2c0.4-0.6,1-1.1,1.9-1.4c0.8-0.4,1.8-0.5,3-0.5c0.8,0,1.6,0.1,2.4,0.3
	c0.8,0.2,1.5,0.4,2.1,0.8l-1.2,2.9c-1.2-0.6-2.3-0.9-3.3-0.9c-1,0-1.5,0.2-1.5,0.7c0,0.2,0.2,0.4,0.5,0.5s0.8,0.2,1.5,0.4
	c0.9,0.2,1.7,0.4,2.3,0.6c0.6,0.2,1.2,0.6,1.6,1.1s0.7,1.2,0.7,2c0,0.7-0.2,1.4-0.6,2c-0.4,0.6-1,1.1-1.9,1.4s-1.8,0.5-3,0.5
	C320.3,435.6,319.4,435.5,318.5,435.3z"/>
<path class="st6" d="M328.1,423.5h4v11.9h-4V423.5z"/>
<path class="st6" d="M336.8,434.8c-1-0.5-1.8-1.3-2.4-2.2c-0.6-0.9-0.9-2-0.9-3.2s0.3-2.3,0.9-3.2s1.4-1.7,2.4-2.2
	c1-0.5,2.2-0.8,3.4-0.8c1.3,0,2.4,0.3,3.4,0.8c1,0.5,1.8,1.3,2.4,2.2s0.9,2,0.9,3.2s-0.3,2.3-0.9,3.2c-0.6,0.9-1.4,1.7-2.4,2.2
	c-1,0.5-2.2,0.8-3.4,0.8C338.9,435.6,337.8,435.4,336.8,434.8z M341.6,432c0.4-0.2,0.7-0.6,1-1c0.2-0.4,0.4-1,0.4-1.6
	s-0.1-1.1-0.4-1.6c-0.2-0.4-0.6-0.8-1-1c-0.4-0.2-0.9-0.4-1.3-0.4c-0.5,0-0.9,0.1-1.3,0.4c-0.4,0.2-0.7,0.6-1,1
	c-0.2,0.4-0.4,1-0.4,1.6s0.1,1.1,0.4,1.6c0.2,0.4,0.6,0.8,1,1c0.4,0.2,0.9,0.4,1.3,0.4C340.7,432.4,341.2,432.3,341.6,432z
	 M340.7,419.8h3.6l-3.3,2.7h-2.5L340.7,419.8z"/>
<path class="st6" d="M360.1,423.5v11.9h-3.3l-4.5-5.4v5.4h-3.9v-11.9h3.3l4.5,5.4v-5.4H360.1z"/>
<path class="st6" d="M371.5,149.4c-1-0.5-1.8-1.3-2.4-2.2s-0.9-2-0.9-3.2s0.3-2.3,0.9-3.2c0.6-0.9,1.4-1.7,2.4-2.2
	c1-0.5,2.1-0.8,3.4-0.8c1.2,0,2.2,0.2,3.1,0.6c0.9,0.4,1.7,1,2.2,1.8l-2.5,2.3c-0.7-0.9-1.6-1.4-2.6-1.4c-0.8,0-1.5,0.3-2,0.8
	c-0.5,0.5-0.8,1.3-0.8,2.2c0,0.9,0.3,1.6,0.8,2.2c0.5,0.5,1.2,0.8,2,0.8c1,0,1.9-0.5,2.6-1.4l2.5,2.3c-0.6,0.8-1.3,1.4-2.2,1.8
	c-0.9,0.4-1.9,0.6-3.1,0.6C373.7,150.2,372.5,149.9,371.5,149.4z"/>
<path class="st6" d="M384.2,149.4c-1-0.5-1.8-1.3-2.4-2.2c-0.6-0.9-0.9-2-0.9-3.2c0-1.2,0.3-2.3,0.9-3.2s1.4-1.7,2.4-2.2
	c1-0.5,2.2-0.8,3.4-0.8c1.3,0,2.4,0.3,3.4,0.8c1,0.5,1.8,1.3,2.4,2.2s0.9,2,0.9,3.2c0,1.2-0.3,2.3-0.9,3.2c-0.6,0.9-1.4,1.7-2.4,2.2
	s-2.2,0.8-3.4,0.8C386.4,150.2,385.2,149.9,384.2,149.4z M389,146.6c0.4-0.2,0.7-0.6,1-1c0.2-0.4,0.4-1,0.4-1.6
	c0-0.6-0.1-1.1-0.4-1.6c-0.2-0.4-0.6-0.8-1-1c-0.4-0.2-0.9-0.4-1.3-0.4c-0.5,0-0.9,0.1-1.3,0.4c-0.4,0.2-0.7,0.6-1,1
	c-0.2,0.4-0.4,1-0.4,1.6c0,0.6,0.1,1.1,0.4,1.6c0.2,0.4,0.6,0.8,1,1c0.4,0.2,0.9,0.4,1.3,0.4C388.1,147,388.6,146.8,389,146.6z"/>
<path class="st6" d="M406.4,149.9l0-5.4l-2.6,4.3H402l-2.6-4.2v5.2h-3.6v-11.9h3.3l3.9,6.3l3.8-6.3h3.3l0,11.9H406.4z"/>
<path class="st6" d="M413.4,148.7c-1-1-1.5-2.4-1.5-4.1v-6.5h4v6.4c0,0.9,0.2,1.5,0.5,1.9c0.3,0.4,0.8,0.6,1.3,0.6s1-0.2,1.3-0.6
	c0.3-0.4,0.5-1,0.5-1.9v-6.4h3.9v6.5c0,1.8-0.5,3.2-1.5,4.1c-1,1-2.4,1.5-4.3,1.5S414.4,149.7,413.4,148.7z"/>
<path class="st6" d="M437,138.1v11.9h-3.3l-4.5-5.4v5.4h-3.9v-11.9h3.3l4.5,5.4v-5.4H437z"/>
<path class="st6" d="M439,138.1h4v11.9h-4V138.1z"/>
<path class="st6" d="M444.9,138.1h5.9c1.3,0,2.5,0.2,3.5,0.7s1.8,1.2,2.4,2.1c0.6,0.9,0.8,1.9,0.8,3.2s-0.3,2.3-0.8,3.2
	c-0.6,0.9-1.3,1.6-2.4,2.1c-1,0.5-2.2,0.7-3.5,0.7h-5.9V138.1z M450.6,146.8c0.9,0,1.5-0.2,2.1-0.7c0.5-0.5,0.8-1.2,0.8-2.1
	s-0.3-1.6-0.8-2.1c-0.5-0.5-1.2-0.7-2.1-0.7h-1.7v5.6H450.6z"/>
<path class="st6" d="M467,147.9h-4.5l-0.8,2.1h-4.1l5.2-11.9h3.9l5.2,11.9h-4.1L467,147.9z M465.9,145l-1.2-3l-1.2,3H465.9z"/>
<path class="st6" d="M472.6,138.1h5.9c1.3,0,2.5,0.2,3.5,0.7s1.8,1.2,2.4,2.1c0.6,0.9,0.8,1.9,0.8,3.2s-0.3,2.3-0.8,3.2
	c-0.6,0.9-1.3,1.6-2.4,2.1c-1,0.5-2.2,0.7-3.5,0.7h-5.9V138.1z M478.3,146.8c0.9,0,1.5-0.2,2.1-0.7c0.5-0.5,0.8-1.2,0.8-2.1
	s-0.3-1.6-0.8-2.1c-0.5-0.5-1.2-0.7-2.1-0.7h-1.7v5.6H478.3z"/>
<path class="st6" d="M150.7,149.9l0-5.4l-2.6,4.3h-1.8l-2.6-4.2v5.2h-3.6v-11.9h3.3l3.9,6.3l3.8-6.3h3.3l0,11.9H150.7z"/>
<path class="st6" d="M166.2,146.9v3h-9.9v-11.9h9.7v3h-5.7v1.4h5v2.9h-5v1.6H166.2z"/>
<path class="st6" d="M172.8,146.9h-1.1v3h-4v-11.9h5.7c1.1,0,2.1,0.2,2.9,0.5s1.4,0.9,1.9,1.6s0.7,1.5,0.7,2.4
	c0,0.8-0.2,1.6-0.6,2.2s-0.9,1.1-1.7,1.5l2.5,3.7h-4.3L172.8,146.9z M174.4,141.5c-0.3-0.2-0.7-0.4-1.2-0.4h-1.5v2.8h1.5
	c0.5,0,1-0.1,1.2-0.4c0.3-0.2,0.4-0.6,0.4-1C174.8,142.1,174.7,141.8,174.4,141.5z"/>
<path class="st6" d="M183.1,149.4c-1-0.5-1.8-1.3-2.4-2.2c-0.6-0.9-0.9-2-0.9-3.2s0.3-2.3,0.9-3.2c0.6-0.9,1.4-1.7,2.4-2.2
	c1-0.5,2.1-0.8,3.4-0.8c1.2,0,2.2,0.2,3.1,0.6c0.9,0.4,1.7,1,2.2,1.8l-2.5,2.3c-0.7-0.9-1.6-1.4-2.6-1.4c-0.8,0-1.5,0.3-2,0.8
	s-0.8,1.3-0.8,2.2c0,0.9,0.3,1.6,0.8,2.2c0.5,0.5,1.2,0.8,2,0.8c1,0,1.9-0.5,2.6-1.4l2.5,2.3c-0.6,0.8-1.3,1.4-2.2,1.8
	c-0.9,0.4-1.9,0.6-3.1,0.6C185.2,150.2,184.1,149.9,183.1,149.4z"/>
<path class="st6" d="M201.1,147.9h-4.5l-0.8,2.1h-4.1l5.2-11.9h3.9l5.2,11.9h-4.1L201.1,147.9z M200,145l-1.2-3l-1.2,3H200z"/>
<path class="st6" d="M206.7,138.1h5.9c1.3,0,2.5,0.2,3.5,0.7c1,0.5,1.8,1.2,2.4,2.1c0.6,0.9,0.8,1.9,0.8,3.2s-0.3,2.3-0.8,3.2
	c-0.6,0.9-1.3,1.6-2.4,2.1c-1,0.5-2.2,0.7-3.5,0.7h-5.9V138.1z M212.3,146.8c0.9,0,1.5-0.2,2.1-0.7c0.5-0.5,0.8-1.2,0.8-2.1
	s-0.3-1.6-0.8-2.1c-0.5-0.5-1.2-0.7-2.1-0.7h-1.7v5.6H212.3z"/>
<path class="st6" d="M223.5,149.4c-1-0.5-1.8-1.3-2.4-2.2c-0.6-0.9-0.9-2-0.9-3.2c0-1.2,0.3-2.3,0.9-3.2s1.4-1.7,2.4-2.2
	c1-0.5,2.2-0.8,3.4-0.8s2.4,0.3,3.4,0.8c1,0.5,1.8,1.3,2.4,2.2s0.9,2,0.9,3.2c0,1.2-0.3,2.3-0.9,3.2c-0.6,0.9-1.4,1.7-2.4,2.2
	s-2.2,0.8-3.4,0.8S224.5,149.9,223.5,149.4z M228.3,146.6c0.4-0.2,0.7-0.6,1-1c0.2-0.4,0.4-1,0.4-1.6c0-0.6-0.1-1.1-0.4-1.6
	c-0.2-0.4-0.6-0.8-1-1s-0.9-0.4-1.3-0.4s-0.9,0.1-1.3,0.4s-0.7,0.6-1,1c-0.2,0.4-0.4,1-0.4,1.6c0,0.6,0.1,1.1,0.4,1.6
	c0.2,0.4,0.6,0.8,1,1c0.4,0.2,0.9,0.4,1.3,0.4S227.9,146.8,228.3,146.6z"/>
</svg>
