<?xml version="1.0" encoding="utf-8"?>
<!-- Generator: Adobe Illustrator 24.2.0, SVG Export Plug-In . SVG Version: 6.00 Build 0)  -->
<svg version="1.1" id="Layer_1" xmlns="http://www.w3.org/2000/svg" xmlns:xlink="http://www.w3.org/1999/xlink" x="0px" y="0px"
	 viewBox="0 0 620 620" style="enable-background:new 0 0 620 620;" xml:space="preserve">
<style type="text/css">
	.st0{fill:#FFFFFF;}
	.st1{fill:#F6F6F6;}
	.st2{fill:#FA6950;}
	.st3{fill:#A0B7E3;}
	.st4{fill:#FDD46A;}
	.st5{fill:#22B573;}
	.st6{fill:#413E3E;}
</style>
<circle class="st0" cx="309.9" cy="318.5" r="291.2"/>
<circle class="st1" cx="309.9" cy="318.5" r="265.3"/>
<polygon class="st2" points="569.2,452.9 323.2,310.8 323.2,26.7 296.7,26.7 296.7,310.8 50.6,452.9 63.9,475.8 309.9,333.8 
	556,475.8 "/>
<path class="st3" d="M532.7,462.9c-76.3,118-232.6,156.5-355.5,85.4c-32.4-18.7-59.3-43.3-80.2-71.5l13.8-9.7l-45.5-12.8l-5.4,48.7
	l15.9-11.2c23,31.2,52.7,58.4,88.4,79.1c135.4,78.4,307.6,35.6,391.1-94.8L532.7,462.9z"/>
<path class="st4" d="M314.3,39l-39.5-29l1.8,19.4C188.3,39.7,105.9,90,58,172.8C6.4,262,7.3,367.1,51.3,452.4l22.6-13
	c-39.5-77.5-40.1-172.7,6.7-253.6c43.5-75.2,118.3-121,198.4-130.5l1.5,16.7L314.3,39z"/>
<path class="st5" d="M456,66.7c-41.8-24.2-87.2-36.8-132.3-38.9l0,26c40.7,2.1,81.6,13.6,119.3,35.4
	C560.6,157.3,606.3,302,553.6,423.8l-15.6-7.2l11.7,45.8l44.8-19.7l-17.4-8C635.5,300.8,585.4,141.6,456,66.7z"/>
<path class="st6" d="M277.4,462.5c0.5,0.4,0.8,1,0.8,1.8c0,0.7-0.3,1.3-0.8,1.8c-0.5,0.4-1.2,0.6-2.1,0.6h-1.9v2.2h-0.7v-7h2.6
	C276.1,461.8,276.8,462,277.4,462.5z M276.8,465.5c0.4-0.3,0.5-0.7,0.5-1.3c0-0.6-0.2-1-0.5-1.3c-0.4-0.3-0.9-0.5-1.6-0.5h-1.9v3.5
	h1.9C275.9,466,276.5,465.8,276.8,465.5z"/>
<path class="st6" d="M284.6,468.8l-1.6-2.3c-0.2,0-0.4,0-0.6,0h-1.9v2.2h-0.7v-7h2.6c0.9,0,1.6,0.2,2.1,0.6c0.5,0.4,0.8,1,0.8,1.8
	c0,0.5-0.1,1-0.4,1.4c-0.3,0.4-0.7,0.6-1.2,0.8l1.7,2.4H284.6z M284,465.5c0.4-0.3,0.5-0.7,0.5-1.3c0-0.6-0.2-1-0.5-1.3
	c-0.4-0.3-0.9-0.5-1.6-0.5h-1.9v3.5h1.9C283.1,466,283.6,465.8,284,465.5z"/>
<path class="st6" d="M288.2,468.4c-0.6-0.3-1-0.7-1.3-1.3c-0.3-0.5-0.5-1.1-0.5-1.8c0-0.7,0.2-1.3,0.5-1.8c0.3-0.5,0.8-1,1.3-1.3
	c0.6-0.3,1.2-0.5,1.9-0.5c0.7,0,1.3,0.2,1.9,0.5c0.6,0.3,1,0.7,1.3,1.3c0.3,0.5,0.5,1.2,0.5,1.8c0,0.7-0.2,1.3-0.5,1.8
	c-0.3,0.5-0.8,1-1.3,1.3c-0.6,0.3-1.2,0.5-1.9,0.5C289.4,468.9,288.8,468.7,288.2,468.4z M291.6,467.9c0.4-0.3,0.8-0.6,1-1
	s0.4-0.9,0.4-1.5s-0.1-1-0.4-1.5s-0.6-0.8-1-1c-0.4-0.3-0.9-0.4-1.5-0.4c-0.6,0-1.1,0.1-1.5,0.4c-0.4,0.3-0.8,0.6-1.1,1
	c-0.3,0.4-0.4,0.9-0.4,1.5s0.1,1,0.4,1.5c0.3,0.4,0.6,0.8,1.1,1c0.5,0.3,1,0.4,1.5,0.4C290.7,468.2,291.2,468.1,291.6,467.9z"/>
<path class="st6" d="M295.4,461.8h2.9c0.7,0,1.4,0.1,2,0.4c0.6,0.3,1,0.7,1.3,1.2c0.3,0.5,0.5,1.1,0.5,1.8s-0.2,1.3-0.5,1.8
	c-0.3,0.5-0.8,0.9-1.3,1.2c-0.6,0.3-1.2,0.4-2,0.4h-2.9V461.8z M298.2,468.2c0.6,0,1.1-0.1,1.6-0.4s0.8-0.6,1.1-1
	c0.3-0.4,0.4-0.9,0.4-1.5s-0.1-1.1-0.4-1.5c-0.3-0.4-0.6-0.8-1.1-1s-1-0.4-1.6-0.4h-2.1v5.7H298.2z"/>
<path class="st6" d="M304.4,468.1c-0.5-0.5-0.8-1.3-0.8-2.3v-4h0.7v4c0,0.8,0.2,1.4,0.6,1.8c0.4,0.4,0.9,0.6,1.6,0.6
	c0.7,0,1.2-0.2,1.6-0.6c0.4-0.4,0.5-1,0.5-1.8v-4h0.7v4c0,1-0.3,1.8-0.8,2.3c-0.5,0.5-1.2,0.8-2.1,0.8S304.9,468.6,304.4,468.1z"/>
<path class="st6" d="M312.8,468.4c-0.6-0.3-1-0.7-1.3-1.3c-0.3-0.5-0.5-1.2-0.5-1.8c0-0.7,0.2-1.3,0.5-1.8c0.3-0.5,0.8-1,1.3-1.3
	c0.6-0.3,1.2-0.5,1.9-0.5c0.5,0,1,0.1,1.4,0.3c0.4,0.2,0.8,0.4,1.1,0.8l-0.5,0.5c-0.5-0.6-1.2-0.8-2.1-0.8c-0.6,0-1.1,0.1-1.5,0.4
	c-0.5,0.3-0.8,0.6-1.1,1c-0.3,0.4-0.4,0.9-0.4,1.5s0.1,1,0.4,1.5c0.3,0.4,0.6,0.8,1.1,1c0.5,0.3,1,0.4,1.5,0.4
	c0.8,0,1.5-0.3,2.1-0.8l0.5,0.5c-0.3,0.3-0.7,0.6-1.1,0.8s-0.9,0.3-1.4,0.3C314,468.9,313.3,468.7,312.8,468.4z"/>
<path class="st6" d="M320.2,462.5h-2.5v-0.6h5.7v0.6h-2.5v6.4h-0.7V462.5z"/>
<path class="st6" d="M324.5,461.8h0.7v7h-0.7V461.8z"/>
<path class="st6" d="M333.4,461.8l-3.1,7h-0.7l-3.1-7h0.8l2.7,6.1l2.7-6.1H333.4z"/>
<path class="st6" d="M334.5,461.8h0.7v7h-0.7V461.8z"/>
<path class="st6" d="M338.9,462.5h-2.5v-0.6h5.7v0.6h-2.5v6.4h-0.7V462.5z"/>
<path class="st6" d="M345.7,466.4v2.4H345v-2.4l-2.8-4.6h0.8l2.4,3.9l2.4-3.9h0.7L345.7,466.4z"/>
<path class="st6" d="M300,476.5h-2.5v-0.6h5.7v0.6h-2.5v6.4H300V476.5z"/>
<path class="st6" d="M304.4,475.8h0.7v7h-0.7V475.8z"/>
<path class="st6" d="M314.7,475.8v7H314v-5.6l-2.8,4.7h-0.4l-2.8-4.7v5.6h-0.7v-7h0.6l3,5.2l3-5.2H314.7z"/>
<path class="st6" d="M321.9,482.2v0.6h-5v-7h4.8v0.6h-4.1v2.5h3.6v0.6h-3.6v2.6H321.9z"/>
<path class="st6" d="M278.3,493.5l-1.4,1.5v1.8h-0.7v-7h0.7v4.2l4.1-4.2h0.8l-3,3.2l3.2,3.8h-0.9L278.3,493.5z"/>
<path class="st6" d="M289.1,489.8v7h-0.6l-4.5-5.7v5.7h-0.7v-7h0.6l4.5,5.7v-5.7H289.1z"/>
<path class="st6" d="M292.6,496.4c-0.6-0.3-1-0.7-1.3-1.3c-0.3-0.5-0.5-1.1-0.5-1.8c0-0.7,0.2-1.3,0.5-1.8c0.3-0.5,0.8-1,1.3-1.3
	c0.6-0.3,1.2-0.5,1.9-0.5c0.7,0,1.3,0.2,1.9,0.5c0.6,0.3,1,0.7,1.3,1.3c0.3,0.5,0.5,1.2,0.5,1.8c0,0.7-0.2,1.3-0.5,1.8
	c-0.3,0.5-0.8,1-1.3,1.3c-0.6,0.3-1.2,0.5-1.9,0.5C293.7,496.9,293.1,496.7,292.6,496.4z M295.9,495.9c0.4-0.3,0.8-0.6,1-1
	s0.4-0.9,0.4-1.5s-0.1-1-0.4-1.5s-0.6-0.8-1-1c-0.4-0.3-0.9-0.4-1.5-0.4c-0.6,0-1.1,0.1-1.5,0.4c-0.4,0.3-0.8,0.6-1.1,1
	c-0.3,0.4-0.4,0.9-0.4,1.5s0.1,1,0.4,1.5c0.3,0.4,0.6,0.8,1.1,1c0.5,0.3,1,0.4,1.5,0.4C295,496.2,295.5,496.1,295.9,495.9z"/>
<path class="st6" d="M309.4,489.8l-2.4,7h-0.8l-2-6l-2.1,6h-0.8l-2.4-7h0.8l2,6l2.1-6h0.7l2.1,6l2-6H309.4z"/>
<path class="st6" d="M310.9,489.8h0.7v6.4h3.9v0.6h-4.7V489.8z"/>
<path class="st6" d="M321.7,496.2v0.6h-5v-7h4.8v0.6h-4.1v2.5h3.6v0.6h-3.6v2.6H321.7z"/>
<path class="st6" d="M323.5,489.8h2.9c0.7,0,1.4,0.1,2,0.4c0.6,0.3,1,0.7,1.3,1.2c0.3,0.5,0.5,1.1,0.5,1.8s-0.2,1.3-0.5,1.8
	c-0.3,0.5-0.8,0.9-1.3,1.2c-0.6,0.3-1.2,0.4-2,0.4h-2.9V489.8z M326.3,496.2c0.6,0,1.1-0.1,1.6-0.4s0.8-0.6,1.1-1
	c0.3-0.4,0.4-0.9,0.4-1.5s-0.1-1.1-0.4-1.5c-0.3-0.4-0.6-0.8-1.1-1s-1-0.4-1.6-0.4h-2.1v5.7H326.3z"/>
<path class="st6" d="M336.7,493.3h0.7v2.7c-0.3,0.3-0.7,0.5-1.2,0.7c-0.4,0.2-0.9,0.2-1.4,0.2c-0.7,0-1.3-0.2-1.9-0.5
	c-0.6-0.3-1-0.7-1.3-1.3c-0.3-0.5-0.5-1.2-0.5-1.8c0-0.7,0.2-1.3,0.5-1.8c0.3-0.5,0.8-1,1.3-1.3c0.6-0.3,1.2-0.5,1.9-0.5
	c0.5,0,1,0.1,1.5,0.3c0.4,0.2,0.8,0.4,1.1,0.8l-0.5,0.5c-0.6-0.5-1.3-0.8-2.1-0.8c-0.6,0-1.1,0.1-1.5,0.4s-0.8,0.6-1.1,1
	c-0.3,0.4-0.4,0.9-0.4,1.5s0.1,1,0.4,1.5c0.3,0.4,0.6,0.8,1.1,1c0.5,0.3,1,0.4,1.5,0.4c0.7,0,1.3-0.2,1.8-0.5V493.3z"/>
<path class="st6" d="M344.4,496.2v0.6h-5v-7h4.8v0.6h-4.1v2.5h3.6v0.6h-3.6v2.6H344.4z"/>
<path class="st6" d="M272.4,510.4c-0.6-0.3-1-0.7-1.3-1.3c-0.3-0.5-0.5-1.2-0.5-1.8c0-0.7,0.2-1.3,0.5-1.8c0.3-0.5,0.8-1,1.3-1.3
	s1.2-0.5,1.9-0.5c0.5,0,1,0.1,1.4,0.3c0.4,0.2,0.8,0.4,1.1,0.8l-0.5,0.5c-0.5-0.6-1.2-0.8-2.1-0.8c-0.6,0-1.1,0.1-1.5,0.4
	c-0.5,0.3-0.8,0.6-1.1,1c-0.3,0.4-0.4,0.9-0.4,1.5s0.1,1,0.4,1.5c0.3,0.4,0.6,0.8,1.1,1c0.5,0.3,1,0.4,1.5,0.4
	c0.8,0,1.5-0.3,2.1-0.8l0.5,0.5c-0.3,0.3-0.7,0.6-1.1,0.8s-0.9,0.3-1.4,0.3C273.6,510.9,273,510.7,272.4,510.4z"/>
<path class="st6" d="M279.6,510.4c-0.6-0.3-1-0.7-1.3-1.3c-0.3-0.5-0.5-1.1-0.5-1.8c0-0.7,0.2-1.3,0.5-1.8c0.3-0.5,0.8-1,1.3-1.3
	c0.6-0.3,1.2-0.5,1.9-0.5c0.7,0,1.3,0.2,1.9,0.5c0.6,0.3,1,0.7,1.3,1.3c0.3,0.5,0.5,1.2,0.5,1.8c0,0.7-0.2,1.3-0.5,1.8
	c-0.3,0.5-0.8,1-1.3,1.3c-0.6,0.3-1.2,0.5-1.9,0.5C280.8,510.9,280.2,510.7,279.6,510.4z M283,509.9c0.4-0.3,0.8-0.6,1-1
	s0.4-0.9,0.4-1.5s-0.1-1-0.4-1.5s-0.6-0.8-1-1c-0.4-0.3-0.9-0.4-1.5-0.4c-0.6,0-1.1,0.1-1.5,0.4c-0.4,0.3-0.8,0.6-1.1,1
	c-0.3,0.4-0.4,0.9-0.4,1.5s0.1,1,0.4,1.5c0.3,0.4,0.6,0.8,1.1,1c0.5,0.3,1,0.4,1.5,0.4C282,510.2,282.5,510.1,283,509.9z"/>
<path class="st6" d="M292.7,503.8v7h-0.6l-4.5-5.7v5.7h-0.7v-7h0.6l4.5,5.7v-5.7H292.7z"/>
<path class="st6" d="M295.4,510.6c-0.5-0.2-0.8-0.4-1.1-0.7l0.3-0.6c0.3,0.3,0.6,0.5,1,0.6c0.4,0.2,0.9,0.2,1.3,0.2
	c0.6,0,1.1-0.1,1.4-0.3c0.3-0.2,0.5-0.5,0.5-0.9c0-0.3-0.1-0.5-0.3-0.7c-0.2-0.2-0.4-0.3-0.6-0.4s-0.6-0.2-1-0.3
	c-0.5-0.1-0.9-0.3-1.3-0.4c-0.3-0.1-0.6-0.3-0.8-0.6c-0.2-0.3-0.3-0.6-0.3-1c0-0.4,0.1-0.7,0.3-1c0.2-0.3,0.5-0.5,0.9-0.7
	c0.4-0.2,0.9-0.3,1.4-0.3c0.4,0,0.8,0.1,1.2,0.2c0.4,0.1,0.7,0.3,1,0.5L299,505c-0.3-0.2-0.6-0.3-0.9-0.4c-0.3-0.1-0.7-0.1-1-0.1
	c-0.6,0-1.1,0.1-1.4,0.4c-0.3,0.2-0.5,0.5-0.5,0.9c0,0.3,0.1,0.5,0.3,0.7s0.4,0.3,0.6,0.4c0.3,0.1,0.6,0.2,1,0.3
	c0.5,0.1,0.9,0.3,1.2,0.4s0.6,0.3,0.8,0.6c0.2,0.3,0.3,0.6,0.3,1c0,0.4-0.1,0.7-0.3,1s-0.5,0.5-0.9,0.7c-0.4,0.2-0.9,0.3-1.5,0.3
	C296.4,510.9,295.9,510.8,295.4,510.6z"/>
<path class="st6" d="M301.8,510.1c-0.5-0.5-0.8-1.3-0.8-2.3v-4h0.7v4c0,0.8,0.2,1.4,0.6,1.8c0.4,0.4,0.9,0.6,1.6,0.6
	c0.7,0,1.2-0.2,1.6-0.6c0.4-0.4,0.5-1,0.5-1.8v-4h0.7v4c0,1-0.3,1.8-0.8,2.3c-0.5,0.5-1.2,0.8-2.1,0.8S302.3,510.6,301.8,510.1z"/>
<path class="st6" d="M316.3,503.8v7h-0.7v-5.6l-2.8,4.7h-0.4l-2.7-4.7v5.6H309v-7h0.6l3,5.2l3-5.2H316.3z"/>
<path class="st6" d="M323.3,504.5c0.5,0.4,0.8,1,0.8,1.8c0,0.7-0.3,1.3-0.8,1.8c-0.5,0.4-1.2,0.6-2.1,0.6h-1.9v2.2h-0.7v-7h2.6
	C322.1,503.8,322.8,504,323.3,504.5z M322.8,507.5c0.4-0.3,0.5-0.7,0.5-1.3c0-0.6-0.2-1-0.5-1.3c-0.4-0.3-0.9-0.5-1.6-0.5h-1.9v3.5
	h1.9C321.9,508,322.4,507.8,322.8,507.5z"/>
<path class="st6" d="M327.1,504.5h-2.5v-0.6h5.7v0.6h-2.5v6.4h-0.7V504.5z"/>
<path class="st6" d="M331.5,503.8h0.7v7h-0.7V503.8z"/>
<path class="st6" d="M335.7,510.4c-0.6-0.3-1-0.7-1.3-1.3s-0.5-1.1-0.5-1.8c0-0.7,0.2-1.3,0.5-1.8s0.8-1,1.3-1.3
	c0.6-0.3,1.2-0.5,1.9-0.5s1.3,0.2,1.9,0.5s1,0.7,1.3,1.3c0.3,0.5,0.5,1.2,0.5,1.8c0,0.7-0.2,1.3-0.5,1.8c-0.3,0.5-0.8,1-1.3,1.3
	s-1.2,0.5-1.9,0.5S336.3,510.7,335.7,510.4z M339.1,509.9c0.4-0.3,0.8-0.6,1-1c0.3-0.4,0.4-0.9,0.4-1.5s-0.1-1-0.4-1.5
	c-0.3-0.4-0.6-0.8-1-1c-0.4-0.3-0.9-0.4-1.5-0.4c-0.6,0-1.1,0.1-1.5,0.4c-0.5,0.3-0.8,0.6-1.1,1s-0.4,0.9-0.4,1.5s0.1,1,0.4,1.5
	s0.6,0.8,1.1,1c0.4,0.3,1,0.4,1.5,0.4C338.1,510.2,338.6,510.1,339.1,509.9z"/>
<path class="st6" d="M348.8,503.8v7h-0.6l-4.5-5.7v5.7h-0.7v-7h0.6l4.5,5.7v-5.7H348.8z"/>
<path class="st6" d="M273.7,524.4c-0.6-0.3-1-0.7-1.3-1.3c-0.3-0.5-0.5-1.2-0.5-1.8c0-0.7,0.2-1.3,0.5-1.8c0.3-0.5,0.8-1,1.3-1.3
	s1.2-0.5,1.9-0.5c0.5,0,1,0.1,1.4,0.3c0.4,0.2,0.8,0.4,1.1,0.8l-0.5,0.5c-0.5-0.6-1.2-0.8-2.1-0.8c-0.6,0-1.1,0.1-1.5,0.4
	c-0.5,0.3-0.8,0.6-1.1,1c-0.3,0.4-0.4,0.9-0.4,1.5s0.1,1,0.4,1.5c0.3,0.4,0.6,0.8,1.1,1c0.5,0.3,1,0.4,1.5,0.4
	c0.8,0,1.5-0.3,2.1-0.8l0.5,0.5c-0.3,0.3-0.7,0.6-1.1,0.8s-0.9,0.3-1.4,0.3C274.9,524.9,274.3,524.7,273.7,524.4z"/>
<path class="st6" d="M280.9,524.4c-0.6-0.3-1-0.7-1.3-1.3c-0.3-0.5-0.5-1.1-0.5-1.8c0-0.7,0.2-1.3,0.5-1.8c0.3-0.5,0.8-1,1.3-1.3
	c0.6-0.3,1.2-0.5,1.9-0.5c0.7,0,1.3,0.2,1.9,0.5c0.6,0.3,1,0.7,1.3,1.3c0.3,0.5,0.5,1.2,0.5,1.8c0,0.7-0.2,1.3-0.5,1.8
	c-0.3,0.5-0.8,1-1.3,1.3c-0.6,0.3-1.2,0.5-1.9,0.5C282.1,524.9,281.5,524.7,280.9,524.4z M284.3,523.9c0.4-0.3,0.8-0.6,1-1
	s0.4-0.9,0.4-1.5s-0.1-1-0.4-1.5s-0.6-0.8-1-1c-0.4-0.3-0.9-0.4-1.5-0.4c-0.6,0-1.1,0.1-1.5,0.4c-0.4,0.3-0.8,0.6-1.1,1
	c-0.3,0.4-0.4,0.9-0.4,1.5s0.1,1,0.4,1.5c0.3,0.4,0.6,0.8,1.1,1c0.5,0.3,1,0.4,1.5,0.4C283.4,524.2,283.9,524.1,284.3,523.9z"/>
<path class="st6" d="M294,517.8v7h-0.6l-4.5-5.7v5.7h-0.7v-7h0.6l4.5,5.7v-5.7H294z"/>
<path class="st6" d="M302.1,517.8v7h-0.6l-4.5-5.7v5.7h-0.7v-7h0.6l4.5,5.7v-5.7H302.1z"/>
<path class="st6" d="M309.4,524.2v0.6h-4.9v-7h4.8v0.6h-4.1v2.5h3.6v0.6h-3.6v2.6H309.4z"/>
<path class="st6" d="M312.3,524.4c-0.6-0.3-1-0.7-1.3-1.3c-0.3-0.5-0.5-1.2-0.5-1.8c0-0.7,0.2-1.3,0.5-1.8c0.3-0.5,0.8-1,1.3-1.3
	c0.6-0.3,1.2-0.5,1.9-0.5c0.5,0,1,0.1,1.4,0.3c0.4,0.2,0.8,0.4,1.1,0.8l-0.5,0.5c-0.5-0.6-1.2-0.8-2.1-0.8c-0.6,0-1.1,0.1-1.5,0.4
	c-0.5,0.3-0.8,0.6-1.1,1c-0.3,0.4-0.4,0.9-0.4,1.5s0.1,1,0.4,1.5c0.3,0.4,0.6,0.8,1.1,1c0.5,0.3,1,0.4,1.5,0.4
	c0.8,0,1.5-0.3,2.1-0.8l0.5,0.5c-0.3,0.3-0.7,0.6-1.1,0.8s-0.9,0.3-1.4,0.3C313.4,524.9,312.8,524.7,312.3,524.4z"/>
<path class="st6" d="M319.6,518.5h-2.5v-0.6h5.7v0.6h-2.5v6.4h-0.7V518.5z"/>
<path class="st6" d="M324,517.8h0.7v7H324V517.8z"/>
<path class="st6" d="M328.2,524.4c-0.6-0.3-1-0.7-1.3-1.3s-0.5-1.1-0.5-1.8c0-0.7,0.2-1.3,0.5-1.8s0.8-1,1.3-1.3
	c0.6-0.3,1.2-0.5,1.9-0.5s1.3,0.2,1.9,0.5s1,0.7,1.3,1.3c0.3,0.5,0.5,1.2,0.5,1.8c0,0.7-0.2,1.3-0.5,1.8c-0.3,0.5-0.8,1-1.3,1.3
	s-1.2,0.5-1.9,0.5S328.8,524.7,328.2,524.4z M331.6,523.9c0.4-0.3,0.8-0.6,1-1c0.3-0.4,0.4-0.9,0.4-1.5s-0.1-1-0.4-1.5
	c-0.3-0.4-0.6-0.8-1-1c-0.4-0.3-0.9-0.4-1.5-0.4c-0.6,0-1.1,0.1-1.5,0.4c-0.5,0.3-0.8,0.6-1.1,1s-0.4,0.9-0.4,1.5s0.1,1,0.4,1.5
	s0.6,0.8,1.1,1c0.4,0.3,1,0.4,1.5,0.4C330.7,524.2,331.2,524.1,331.6,523.9z"/>
<path class="st6" d="M341.3,517.8v7h-0.6l-4.5-5.7v5.7h-0.7v-7h0.6l4.5,5.7v-5.7H341.3z"/>
<path class="st6" d="M344,524.6c-0.5-0.2-0.8-0.4-1.1-0.7l0.3-0.6c0.3,0.3,0.6,0.5,1,0.6c0.4,0.2,0.9,0.2,1.3,0.2
	c0.6,0,1.1-0.1,1.4-0.3c0.3-0.2,0.5-0.5,0.5-0.9c0-0.3-0.1-0.5-0.3-0.7c-0.2-0.2-0.4-0.3-0.6-0.4c-0.2-0.1-0.6-0.2-1-0.3
	c-0.5-0.1-0.9-0.3-1.3-0.4s-0.6-0.3-0.8-0.6c-0.2-0.3-0.3-0.6-0.3-1c0-0.4,0.1-0.7,0.3-1c0.2-0.3,0.5-0.5,0.9-0.7
	c0.4-0.2,0.9-0.3,1.4-0.3c0.4,0,0.8,0.1,1.2,0.2c0.4,0.1,0.7,0.3,1,0.5l-0.3,0.6c-0.3-0.2-0.6-0.3-0.9-0.4c-0.3-0.1-0.7-0.1-1-0.1
	c-0.6,0-1.1,0.1-1.4,0.4c-0.3,0.2-0.5,0.5-0.5,0.9c0,0.3,0.1,0.5,0.3,0.7s0.4,0.3,0.6,0.4s0.6,0.2,1,0.3c0.5,0.1,0.9,0.3,1.2,0.4
	s0.6,0.3,0.8,0.6c0.2,0.3,0.3,0.6,0.3,1c0,0.4-0.1,0.7-0.3,1c-0.2,0.3-0.5,0.5-0.9,0.7c-0.4,0.2-0.9,0.3-1.4,0.3
	C345,524.9,344.5,524.8,344,524.6z"/>
<path class="st6" d="M343.1,183.2c-0.5-0.2-0.8-0.4-1.1-0.7l0.3-0.6c0.3,0.3,0.6,0.5,1,0.6c0.4,0.2,0.9,0.2,1.3,0.2
	c0.6,0,1.1-0.1,1.4-0.3c0.3-0.2,0.5-0.5,0.5-0.9c0-0.3-0.1-0.5-0.3-0.7s-0.4-0.3-0.6-0.4c-0.2-0.1-0.6-0.2-1-0.3
	c-0.5-0.1-0.9-0.3-1.3-0.4s-0.6-0.3-0.8-0.6c-0.2-0.3-0.3-0.6-0.3-1c0-0.4,0.1-0.7,0.3-1s0.5-0.5,0.9-0.7s0.9-0.3,1.4-0.3
	c0.4,0,0.8,0.1,1.2,0.2c0.4,0.1,0.7,0.3,1,0.5l-0.3,0.6c-0.3-0.2-0.6-0.3-0.9-0.4c-0.3-0.1-0.7-0.1-1-0.1c-0.6,0-1.1,0.1-1.4,0.4
	c-0.3,0.2-0.5,0.5-0.5,0.9c0,0.3,0.1,0.5,0.3,0.7s0.4,0.3,0.6,0.4c0.3,0.1,0.6,0.2,1,0.3c0.5,0.1,0.9,0.3,1.2,0.4
	c0.3,0.1,0.6,0.3,0.8,0.6c0.2,0.3,0.3,0.6,0.3,1c0,0.4-0.1,0.7-0.3,1c-0.2,0.3-0.5,0.5-0.9,0.7c-0.4,0.2-0.9,0.3-1.4,0.3
	C344,183.5,343.5,183.4,343.1,183.2z"/>
<path class="st6" d="M349.9,183c-0.6-0.3-1-0.7-1.3-1.3s-0.5-1.1-0.5-1.8s0.2-1.3,0.5-1.8s0.8-1,1.3-1.3c0.6-0.3,1.2-0.5,1.9-0.5
	s1.3,0.2,1.9,0.5s1,0.7,1.3,1.3c0.3,0.5,0.5,1.2,0.5,1.8s-0.2,1.3-0.5,1.8c-0.3,0.5-0.8,1-1.3,1.3s-1.2,0.5-1.9,0.5
	S350.5,183.3,349.9,183z M353.3,182.4c0.4-0.3,0.8-0.6,1-1c0.3-0.4,0.4-0.9,0.4-1.5c0-0.5-0.1-1-0.4-1.5c-0.3-0.4-0.6-0.8-1-1
	c-0.4-0.3-0.9-0.4-1.5-0.4c-0.6,0-1.1,0.1-1.5,0.4c-0.5,0.3-0.8,0.6-1.1,1s-0.4,0.9-0.4,1.5c0,0.5,0.1,1,0.4,1.5s0.6,0.8,1.1,1
	c0.4,0.3,1,0.4,1.5,0.4C352.4,182.8,352.9,182.7,353.3,182.4z"/>
<path class="st6" d="M358.3,183c-0.6-0.3-1-0.7-1.3-1.3s-0.5-1.2-0.5-1.8s0.2-1.3,0.5-1.8c0.3-0.5,0.8-1,1.3-1.3
	c0.6-0.3,1.2-0.5,1.9-0.5c0.5,0,1,0.1,1.4,0.3c0.4,0.2,0.8,0.4,1.1,0.8l-0.5,0.5c-0.5-0.6-1.2-0.8-2.1-0.8c-0.6,0-1.1,0.1-1.5,0.4
	c-0.5,0.3-0.8,0.6-1.1,1s-0.4,0.9-0.4,1.5c0,0.5,0.1,1,0.4,1.5s0.6,0.8,1.1,1c0.5,0.3,1,0.4,1.5,0.4c0.8,0,1.5-0.3,2.1-0.8l0.5,0.5
	c-0.3,0.3-0.7,0.6-1.1,0.8c-0.4,0.2-0.9,0.3-1.4,0.3C359.5,183.5,358.9,183.3,358.3,183z"/>
<path class="st6" d="M364.3,176.4h0.7v7h-0.7V176.4z"/>
<path class="st6" d="M371.8,181.5h-3.9l-0.8,1.9h-0.8l3.2-7h0.7l3.2,7h-0.8L371.8,181.5z M371.5,180.9l-1.7-3.8l-1.7,3.8H371.5z"/>
<path class="st6" d="M374.5,176.4h0.7v6.4h3.9v0.6h-4.7V176.4z"/>
<path class="st6" d="M379.9,180.4h2.6v0.6h-2.6V180.4z"/>
<path class="st6" d="M385.4,183c-0.6-0.3-1-0.7-1.3-1.3s-0.5-1.2-0.5-1.8s0.2-1.3,0.5-1.8c0.3-0.5,0.8-1,1.3-1.3
	c0.6-0.3,1.2-0.5,1.9-0.5c0.5,0,1,0.1,1.4,0.3c0.4,0.2,0.8,0.4,1.1,0.8l-0.5,0.5c-0.5-0.6-1.2-0.8-2.1-0.8c-0.6,0-1.1,0.1-1.5,0.4
	c-0.5,0.3-0.8,0.6-1.1,1s-0.4,0.9-0.4,1.5c0,0.5,0.1,1,0.4,1.5s0.6,0.8,1.1,1c0.5,0.3,1,0.4,1.5,0.4c0.8,0,1.5-0.3,2.1-0.8l0.5,0.5
	c-0.3,0.3-0.7,0.6-1.1,0.8c-0.4,0.2-0.9,0.3-1.4,0.3C386.6,183.5,386,183.3,385.4,183z"/>
<path class="st6" d="M392.6,183c-0.6-0.3-1-0.7-1.3-1.3s-0.5-1.1-0.5-1.8s0.2-1.3,0.5-1.8s0.8-1,1.3-1.3c0.6-0.3,1.2-0.5,1.9-0.5
	s1.3,0.2,1.9,0.5s1,0.7,1.3,1.3c0.3,0.5,0.5,1.2,0.5,1.8s-0.2,1.3-0.5,1.8c-0.3,0.5-0.8,1-1.3,1.3s-1.2,0.5-1.9,0.5
	S393.2,183.3,392.6,183z M396,182.4c0.4-0.3,0.8-0.6,1-1c0.3-0.4,0.4-0.9,0.4-1.5c0-0.5-0.1-1-0.4-1.5c-0.3-0.4-0.6-0.8-1-1
	c-0.4-0.3-0.9-0.4-1.5-0.4c-0.6,0-1.1,0.1-1.5,0.4c-0.5,0.3-0.8,0.6-1.1,1s-0.4,0.9-0.4,1.5c0,0.5,0.1,1,0.4,1.5s0.6,0.8,1.1,1
	c0.4,0.3,1,0.4,1.5,0.4C395,182.8,395.5,182.7,396,182.4z"/>
<path class="st6" d="M407.1,176.4v7h-0.7v-5.6l-2.8,4.7h-0.4l-2.8-4.7v5.6h-0.7v-7h0.6l3,5.2l3-5.2H407.1z"/>
<path class="st6" d="M416.6,176.4v7h-0.7v-5.6l-2.8,4.7h-0.4l-2.8-4.7v5.6h-0.7v-7h0.6l3,5.2l3-5.2H416.6z"/>
<path class="st6" d="M423.9,182.8v0.6h-5v-7h4.8v0.6h-4.1v2.5h3.6v0.6h-3.6v2.6H423.9z"/>
<path class="st6" d="M430.4,183.4l-1.6-2.3c-0.2,0-0.4,0-0.6,0h-1.9v2.2h-0.7v-7h2.6c0.9,0,1.6,0.2,2.1,0.6c0.5,0.4,0.8,1,0.8,1.8
	c0,0.5-0.1,1-0.4,1.4c-0.3,0.4-0.7,0.6-1.2,0.8l1.7,2.4H430.4z M429.8,180.1c0.4-0.3,0.5-0.7,0.5-1.3c0-0.6-0.2-1-0.5-1.3
	c-0.4-0.3-0.9-0.5-1.6-0.5h-1.9v3.5h1.9C428.9,180.6,429.4,180.4,429.8,180.1z"/>
<path class="st6" d="M434,183c-0.6-0.3-1-0.7-1.3-1.3s-0.5-1.2-0.5-1.8s0.2-1.3,0.5-1.8c0.3-0.5,0.8-1,1.3-1.3
	c0.6-0.3,1.2-0.5,1.9-0.5c0.5,0,1,0.1,1.4,0.3c0.4,0.2,0.8,0.4,1.1,0.8l-0.5,0.5c-0.5-0.6-1.2-0.8-2.1-0.8c-0.6,0-1.1,0.1-1.5,0.4
	c-0.5,0.3-0.8,0.6-1.1,1s-0.4,0.9-0.4,1.5c0,0.5,0.1,1,0.4,1.5s0.6,0.8,1.1,1c0.5,0.3,1,0.4,1.5,0.4c0.8,0,1.5-0.3,2.1-0.8l0.5,0.5
	c-0.3,0.3-0.7,0.6-1.1,0.8c-0.4,0.2-0.9,0.3-1.4,0.3C435.2,183.5,434.6,183.3,434,183z"/>
<path class="st6" d="M440,176.4h0.7v7H440V176.4z"/>
<path class="st6" d="M447.4,181.5h-3.9l-0.8,1.9h-0.8l3.2-7h0.7l3.2,7h-0.8L447.4,181.5z M447.2,180.9l-1.7-3.8l-1.7,3.8H447.2z"/>
<path class="st6" d="M450.2,176.4h0.7v6.4h3.9v0.6h-4.7V176.4z"/>
<path class="st6" d="M464.6,176.4v7H464l-4.5-5.7v5.7h-0.7v-7h0.6l4.5,5.7v-5.7H464.6z"/>
<path class="st6" d="M471.8,182.8v0.6h-5v-7h4.8v0.6h-4.1v2.5h3.6v0.6h-3.6v2.6H471.8z"/>
<path class="st6" d="M474.9,177h-2.5v-0.6h5.7v0.6h-2.5v6.4h-0.7V177z"/>
<path class="st6" d="M488.9,176.4l-2.4,7h-0.8l-2.1-6l-2.1,6h-0.8l-2.4-7h0.8l2,6l2.1-6h0.7l2.1,6l2-6H488.9z"/>
<path class="st6" d="M491.6,183c-0.6-0.3-1-0.7-1.3-1.3s-0.5-1.1-0.5-1.8s0.2-1.3,0.5-1.8s0.8-1,1.3-1.3c0.6-0.3,1.2-0.5,1.9-0.5
	s1.3,0.2,1.9,0.5s1,0.7,1.3,1.3c0.3,0.5,0.5,1.2,0.5,1.8s-0.2,1.3-0.5,1.8c-0.3,0.5-0.8,1-1.3,1.3s-1.2,0.5-1.9,0.5
	S492.1,183.3,491.6,183z M495,182.4c0.4-0.3,0.8-0.6,1-1c0.3-0.4,0.4-0.9,0.4-1.5c0-0.5-0.1-1-0.4-1.5c-0.3-0.4-0.6-0.8-1-1
	c-0.4-0.3-0.9-0.4-1.5-0.4c-0.6,0-1.1,0.1-1.5,0.4c-0.5,0.3-0.8,0.6-1.1,1s-0.4,0.9-0.4,1.5c0,0.5,0.1,1,0.4,1.5s0.6,0.8,1.1,1
	c0.4,0.3,1,0.4,1.5,0.4C494,182.8,494.5,182.7,495,182.4z"/>
<path class="st6" d="M503.6,183.4l-1.6-2.3c-0.2,0-0.4,0-0.6,0h-1.9v2.2h-0.7v-7h2.6c0.9,0,1.6,0.2,2.1,0.6c0.5,0.4,0.8,1,0.8,1.8
	c0,0.5-0.1,1-0.4,1.4c-0.3,0.4-0.7,0.6-1.2,0.8l1.7,2.4H503.6z M503,180.1c0.4-0.3,0.5-0.7,0.5-1.3c0-0.6-0.2-1-0.5-1.3
	c-0.4-0.3-0.9-0.5-1.6-0.5h-1.9v3.5h1.9C502.1,180.6,502.6,180.4,503,180.1z"/>
<path class="st6" d="M508.2,180.1l-1.4,1.5v1.8H506v-7h0.7v4.2l4.1-4.2h0.8l-3,3.2l3.2,3.8h-0.9L508.2,180.1z"/>
<path class="st6" d="M410.5,193.9h0.7v2.7c-0.3,0.3-0.7,0.5-1.2,0.7c-0.4,0.2-0.9,0.2-1.4,0.2c-0.7,0-1.3-0.2-1.9-0.5
	c-0.6-0.3-1-0.7-1.3-1.3s-0.5-1.2-0.5-1.8s0.2-1.3,0.5-1.8c0.3-0.5,0.8-1,1.3-1.3c0.6-0.3,1.2-0.5,1.9-0.5c0.5,0,1,0.1,1.5,0.3
	c0.4,0.2,0.8,0.4,1.1,0.8l-0.5,0.5c-0.6-0.5-1.3-0.8-2.1-0.8c-0.6,0-1.1,0.1-1.5,0.4s-0.8,0.6-1.1,1c-0.3,0.4-0.4,0.9-0.4,1.5
	c0,0.5,0.1,1,0.4,1.5c0.3,0.4,0.6,0.8,1.1,1s1,0.4,1.5,0.4c0.7,0,1.3-0.2,1.8-0.5V193.9z"/>
<path class="st6" d="M418.1,197.4l-1.6-2.3c-0.2,0-0.4,0-0.6,0H414v2.2h-0.7v-7h2.6c0.9,0,1.6,0.2,2.1,0.6c0.5,0.4,0.8,1,0.8,1.8
	c0,0.5-0.1,1-0.4,1.4c-0.3,0.4-0.7,0.6-1.2,0.8l1.7,2.4H418.1z M417.5,194.1c0.4-0.3,0.5-0.7,0.5-1.3c0-0.6-0.2-1-0.5-1.3
	c-0.4-0.3-0.9-0.5-1.6-0.5H414v3.5h1.9C416.6,194.6,417.1,194.4,417.5,194.1z"/>
<path class="st6" d="M421.7,197c-0.6-0.3-1-0.7-1.3-1.3s-0.5-1.1-0.5-1.8s0.2-1.3,0.5-1.8s0.8-1,1.3-1.3c0.6-0.3,1.2-0.5,1.9-0.5
	s1.3,0.2,1.9,0.5s1,0.7,1.3,1.3c0.3,0.5,0.5,1.2,0.5,1.8s-0.2,1.3-0.5,1.8c-0.3,0.5-0.8,1-1.3,1.3s-1.2,0.5-1.9,0.5
	S422.3,197.3,421.7,197z M425.1,196.4c0.4-0.3,0.8-0.6,1-1c0.3-0.4,0.4-0.9,0.4-1.5c0-0.5-0.1-1-0.4-1.5c-0.3-0.4-0.6-0.8-1-1
	c-0.4-0.3-0.9-0.4-1.5-0.4c-0.6,0-1.1,0.1-1.5,0.4c-0.5,0.3-0.8,0.6-1.1,1s-0.4,0.9-0.4,1.5c0,0.5,0.1,1,0.4,1.5s0.6,0.8,1.1,1
	c0.4,0.3,1,0.4,1.5,0.4C424.1,196.8,424.6,196.7,425.1,196.4z"/>
<path class="st6" d="M429.6,196.7c-0.5-0.5-0.8-1.3-0.8-2.3v-4h0.7v4c0,0.8,0.2,1.4,0.5,1.8c0.4,0.4,0.9,0.6,1.6,0.6
	c0.7,0,1.2-0.2,1.6-0.6c0.4-0.4,0.6-1,0.6-1.8v-4h0.7v4c0,1-0.3,1.8-0.8,2.3c-0.5,0.5-1.2,0.8-2.1,0.8S430.1,197.2,429.6,196.7z"/>
<path class="st6" d="M441.6,191c0.5,0.4,0.8,1,0.8,1.8s-0.3,1.3-0.8,1.8c-0.5,0.4-1.2,0.6-2.1,0.6h-1.9v2.2h-0.7v-7h2.6
	C440.4,190.4,441.1,190.6,441.6,191z M441,194.1c0.4-0.3,0.5-0.7,0.5-1.3c0-0.6-0.2-1-0.5-1.3c-0.4-0.3-0.9-0.5-1.6-0.5h-1.9v3.5
	h1.9C440.1,194.5,440.7,194.4,441,194.1z"/>
<path class="st6" d="M444.5,197.2c-0.5-0.2-0.8-0.4-1.1-0.7l0.3-0.6c0.3,0.3,0.6,0.5,1,0.6c0.4,0.2,0.9,0.2,1.3,0.2
	c0.6,0,1.1-0.1,1.4-0.3c0.3-0.2,0.5-0.5,0.5-0.9c0-0.3-0.1-0.5-0.3-0.7s-0.4-0.3-0.6-0.4c-0.2-0.1-0.6-0.2-1-0.3
	c-0.5-0.1-0.9-0.3-1.3-0.4s-0.6-0.3-0.8-0.6c-0.2-0.3-0.3-0.6-0.3-1c0-0.4,0.1-0.7,0.3-1s0.5-0.5,0.9-0.7s0.9-0.3,1.4-0.3
	c0.4,0,0.8,0.1,1.2,0.2c0.4,0.1,0.7,0.3,1,0.5l-0.3,0.6c-0.3-0.2-0.6-0.3-0.9-0.4c-0.3-0.1-0.7-0.1-1-0.1c-0.6,0-1.1,0.1-1.4,0.4
	c-0.3,0.2-0.5,0.5-0.5,0.9c0,0.3,0.1,0.5,0.3,0.7s0.4,0.3,0.6,0.4c0.3,0.1,0.6,0.2,1,0.3c0.5,0.1,0.9,0.3,1.2,0.4
	c0.3,0.1,0.6,0.3,0.8,0.6c0.2,0.3,0.3,0.6,0.3,1c0,0.4-0.1,0.7-0.3,1c-0.2,0.3-0.5,0.5-0.9,0.7c-0.4,0.2-0.9,0.3-1.4,0.3
	C445.4,197.5,444.9,197.4,444.5,197.2z"/>
<path class="st6" d="M397.4,211c-0.6-0.3-1-0.7-1.3-1.3s-0.5-1.2-0.5-1.8s0.2-1.3,0.5-1.8c0.3-0.5,0.8-1,1.3-1.3
	c0.6-0.3,1.2-0.5,1.9-0.5c0.5,0,1,0.1,1.4,0.3c0.4,0.2,0.8,0.4,1.1,0.8l-0.5,0.5c-0.5-0.6-1.2-0.8-2.1-0.8c-0.6,0-1.1,0.1-1.5,0.4
	c-0.5,0.3-0.8,0.6-1.1,1s-0.4,0.9-0.4,1.5c0,0.5,0.1,1,0.4,1.5s0.6,0.8,1.1,1c0.5,0.3,1,0.4,1.5,0.4c0.8,0,1.5-0.3,2.1-0.8l0.5,0.5
	c-0.3,0.3-0.7,0.6-1.1,0.8c-0.4,0.2-0.9,0.3-1.4,0.3C398.6,211.5,398,211.3,397.4,211z"/>
<path class="st6" d="M407.8,209.5h-3.9l-0.8,1.9h-0.8l3.2-7h0.7l3.2,7h-0.8L407.8,209.5z M407.5,208.9l-1.7-3.8l-1.7,3.8H407.5z"/>
<path class="st6" d="M417.9,204.4v7h-0.7v-5.6l-2.8,4.7h-0.4l-2.8-4.7v5.6h-0.7v-7h0.6l3,5.2l3-5.2H417.9z"/>
<path class="st6" d="M424.9,205c0.5,0.4,0.8,1,0.8,1.8s-0.3,1.3-0.8,1.8c-0.5,0.4-1.2,0.6-2.1,0.6h-1.9v2.2h-0.7v-7h2.6
	C423.7,204.4,424.4,204.6,424.9,205z M424.3,208.1c0.4-0.3,0.5-0.7,0.5-1.3c0-0.6-0.2-1-0.5-1.3c-0.4-0.3-0.9-0.5-1.6-0.5h-1.9v3.5
	h1.9C423.4,208.5,424,208.4,424.3,208.1z"/>
<path class="st6" d="M431.7,209.5h-3.9l-0.8,1.9h-0.8l3.2-7h0.7l3.2,7h-0.8L431.7,209.5z M431.4,208.9l-1.7-3.8l-1.7,3.8H431.4z"/>
<path class="st6" d="M434.5,204.4h0.7v7h-0.7V204.4z"/>
<path class="st6" d="M442.4,207.9h0.7v2.7c-0.3,0.3-0.7,0.5-1.2,0.7c-0.4,0.2-0.9,0.2-1.4,0.2c-0.7,0-1.3-0.2-1.9-0.5
	c-0.6-0.3-1-0.7-1.3-1.3s-0.5-1.2-0.5-1.8s0.2-1.3,0.5-1.8c0.3-0.5,0.8-1,1.3-1.3c0.6-0.3,1.2-0.5,1.9-0.5c0.5,0,1,0.1,1.5,0.3
	c0.4,0.2,0.8,0.4,1.1,0.8l-0.5,0.5c-0.6-0.5-1.3-0.8-2.1-0.8c-0.6,0-1.1,0.1-1.5,0.4s-0.8,0.6-1.1,1c-0.3,0.4-0.4,0.9-0.4,1.5
	c0,0.5,0.1,1,0.4,1.5c0.3,0.4,0.6,0.8,1.1,1s1,0.4,1.5,0.4c0.7,0,1.3-0.2,1.8-0.5V207.9z"/>
<path class="st6" d="M451.1,204.4v7h-0.6l-4.5-5.7v5.7h-0.7v-7h0.6l4.5,5.7v-5.7H451.1z"/>
<path class="st6" d="M453.8,211.2c-0.5-0.2-0.8-0.4-1.1-0.7l0.3-0.6c0.3,0.3,0.6,0.5,1,0.6c0.4,0.2,0.9,0.2,1.3,0.2
	c0.6,0,1.1-0.1,1.4-0.3c0.3-0.2,0.5-0.5,0.5-0.9c0-0.3-0.1-0.5-0.3-0.7s-0.4-0.3-0.6-0.4c-0.2-0.1-0.6-0.2-1-0.3
	c-0.5-0.1-0.9-0.3-1.3-0.4s-0.6-0.3-0.8-0.6c-0.2-0.3-0.3-0.6-0.3-1c0-0.4,0.1-0.7,0.3-1s0.5-0.5,0.9-0.7s0.9-0.3,1.4-0.3
	c0.4,0,0.8,0.1,1.2,0.2c0.4,0.1,0.7,0.3,1,0.5l-0.3,0.6c-0.3-0.2-0.6-0.3-0.9-0.4c-0.3-0.1-0.7-0.1-1-0.1c-0.6,0-1.1,0.1-1.4,0.4
	c-0.3,0.2-0.5,0.5-0.5,0.9c0,0.3,0.1,0.5,0.3,0.7s0.4,0.3,0.6,0.4c0.3,0.1,0.6,0.2,1,0.3c0.5,0.1,0.9,0.3,1.2,0.4
	c0.3,0.1,0.6,0.3,0.8,0.6c0.2,0.3,0.3,0.6,0.3,1c0,0.4-0.1,0.7-0.3,1c-0.2,0.3-0.5,0.5-0.9,0.7c-0.4,0.2-0.9,0.3-1.4,0.3
	C454.8,211.5,454.3,211.4,453.8,211.2z"/>
<path class="st6" d="M418.6,222.4c0.3,0.3,0.4,0.7,0.4,1.1c0,0.6-0.2,1.1-0.7,1.4s-1.1,0.5-2,0.5h-3.2v-7h3c0.8,0,1.4,0.2,1.8,0.5
	c0.4,0.3,0.6,0.8,0.6,1.3c0,0.4-0.1,0.7-0.3,1s-0.5,0.5-0.8,0.6C418,221.9,418.3,222.1,418.6,222.4z M413.8,219v2.5h2.2
	c0.6,0,1-0.1,1.3-0.3c0.3-0.2,0.5-0.5,0.5-0.9c0-0.4-0.2-0.7-0.5-0.9s-0.7-0.3-1.3-0.3H413.8z M417.7,224.5c0.3-0.2,0.5-0.5,0.5-1
	c0-0.9-0.6-1.3-1.9-1.3h-2.5v2.6h2.5C416.9,224.8,417.4,224.7,417.7,224.5z"/>
<path class="st6" d="M420.6,218.4h0.7v6.4h3.9v0.6h-4.7V218.4z"/>
<path class="st6" d="M427.7,225c-0.6-0.3-1-0.7-1.3-1.3s-0.5-1.1-0.5-1.8s0.2-1.3,0.5-1.8s0.8-1,1.3-1.3c0.6-0.3,1.2-0.5,1.9-0.5
	s1.3,0.2,1.9,0.5s1,0.7,1.3,1.3c0.3,0.5,0.5,1.2,0.5,1.8s-0.2,1.3-0.5,1.8c-0.3,0.5-0.8,1-1.3,1.3s-1.2,0.5-1.9,0.5
	S428.3,225.3,427.7,225z M431.1,224.4c0.4-0.3,0.8-0.6,1-1c0.3-0.4,0.4-0.9,0.4-1.5c0-0.5-0.1-1-0.4-1.5c-0.3-0.4-0.6-0.8-1-1
	c-0.4-0.3-0.9-0.4-1.5-0.4c-0.6,0-1.1,0.1-1.5,0.4c-0.5,0.3-0.8,0.6-1.1,1s-0.4,0.9-0.4,1.5c0,0.5,0.1,1,0.4,1.5s0.6,0.8,1.1,1
	c0.4,0.3,1,0.4,1.5,0.4C430.1,224.8,430.6,224.7,431.1,224.4z"/>
<path class="st6" d="M439.9,221.9h0.7v2.7c-0.3,0.3-0.7,0.5-1.2,0.7c-0.4,0.2-0.9,0.2-1.4,0.2c-0.7,0-1.3-0.2-1.9-0.5
	c-0.6-0.3-1-0.7-1.3-1.3s-0.5-1.2-0.5-1.8s0.2-1.3,0.5-1.8c0.3-0.5,0.8-1,1.3-1.3c0.6-0.3,1.2-0.5,1.9-0.5c0.5,0,1,0.1,1.5,0.3
	c0.4,0.2,0.8,0.4,1.1,0.8l-0.5,0.5c-0.6-0.5-1.3-0.8-2.1-0.8c-0.6,0-1.1,0.1-1.5,0.4s-0.8,0.6-1.1,1c-0.3,0.4-0.4,0.9-0.4,1.5
	c0,0.5,0.1,1,0.4,1.5c0.3,0.4,0.6,0.8,1.1,1s1,0.4,1.5,0.4c0.7,0,1.3-0.2,1.8-0.5V221.9z"/>
<path class="st6" d="M357.7,239c-0.6-0.3-1-0.7-1.3-1.3s-0.5-1.2-0.5-1.8s0.2-1.3,0.5-1.8c0.3-0.5,0.8-1,1.3-1.3
	c0.6-0.3,1.2-0.5,1.9-0.5c0.5,0,1,0.1,1.4,0.3c0.4,0.2,0.8,0.4,1.1,0.8l-0.5,0.5c-0.5-0.6-1.2-0.8-2.1-0.8c-0.6,0-1.1,0.1-1.5,0.4
	c-0.5,0.3-0.8,0.6-1.1,1s-0.4,0.9-0.4,1.5c0,0.5,0.1,1,0.4,1.5s0.6,0.8,1.1,1c0.5,0.3,1,0.4,1.5,0.4c0.8,0,1.5-0.3,2.1-0.8l0.5,0.5
	c-0.3,0.3-0.7,0.6-1.1,0.8c-0.4,0.2-0.9,0.3-1.4,0.3C358.9,239.5,358.3,239.3,357.7,239z"/>
<path class="st6" d="M364.9,239c-0.6-0.3-1-0.7-1.3-1.3s-0.5-1.1-0.5-1.8s0.2-1.3,0.5-1.8s0.8-1,1.3-1.3c0.6-0.3,1.2-0.5,1.9-0.5
	s1.3,0.2,1.9,0.5s1,0.7,1.3,1.3c0.3,0.5,0.5,1.2,0.5,1.8s-0.2,1.3-0.5,1.8c-0.3,0.5-0.8,1-1.3,1.3s-1.2,0.5-1.9,0.5
	S365.5,239.3,364.9,239z M368.3,238.4c0.4-0.3,0.8-0.6,1-1c0.3-0.4,0.4-0.9,0.4-1.5c0-0.5-0.1-1-0.4-1.5c-0.3-0.4-0.6-0.8-1-1
	c-0.4-0.3-0.9-0.4-1.5-0.4c-0.6,0-1.1,0.1-1.5,0.4c-0.5,0.3-0.8,0.6-1.1,1s-0.4,0.9-0.4,1.5c0,0.5,0.1,1,0.4,1.5s0.6,0.8,1.1,1
	c0.4,0.3,1,0.4,1.5,0.4C367.4,238.8,367.9,238.7,368.3,238.4z"/>
<path class="st6" d="M378,232.4v7h-0.6l-4.5-5.7v5.7h-0.7v-7h0.6l4.5,5.7v-5.7H378z"/>
<path class="st6" d="M386.1,232.4v7h-0.6l-4.5-5.7v5.7h-0.7v-7h0.6l4.5,5.7v-5.7H386.1z"/>
<path class="st6" d="M393.4,238.8v0.6h-5v-7h4.8v0.6h-4.1v2.5h3.6v0.6h-3.6v2.6H393.4z"/>
<path class="st6" d="M396.3,239c-0.6-0.3-1-0.7-1.3-1.3s-0.5-1.2-0.5-1.8s0.2-1.3,0.5-1.8c0.3-0.5,0.8-1,1.3-1.3
	c0.6-0.3,1.2-0.5,1.9-0.5c0.5,0,1,0.1,1.4,0.3c0.4,0.2,0.8,0.4,1.1,0.8l-0.5,0.5c-0.5-0.6-1.2-0.8-2.1-0.8c-0.6,0-1.1,0.1-1.5,0.4
	c-0.5,0.3-0.8,0.6-1.1,1s-0.4,0.9-0.4,1.5c0,0.5,0.1,1,0.4,1.5s0.6,0.8,1.1,1c0.5,0.3,1,0.4,1.5,0.4c0.8,0,1.5-0.3,2.1-0.8l0.5,0.5
	c-0.3,0.3-0.7,0.6-1.1,0.8c-0.4,0.2-0.9,0.3-1.4,0.3C397.4,239.5,396.8,239.3,396.3,239z"/>
<path class="st6" d="M403.6,233h-2.5v-0.6h5.7v0.6h-2.5v6.4h-0.7V233z"/>
<path class="st6" d="M408,232.4h0.7v7H408V232.4z"/>
<path class="st6" d="M412.2,239c-0.6-0.3-1-0.7-1.3-1.3s-0.5-1.1-0.5-1.8s0.2-1.3,0.5-1.8s0.8-1,1.3-1.3c0.6-0.3,1.2-0.5,1.9-0.5
	s1.3,0.2,1.9,0.5s1,0.7,1.3,1.3c0.3,0.5,0.5,1.2,0.5,1.8s-0.2,1.3-0.5,1.8c-0.3,0.5-0.8,1-1.3,1.3s-1.2,0.5-1.9,0.5
	S412.8,239.3,412.2,239z M415.6,238.4c0.4-0.3,0.8-0.6,1-1c0.3-0.4,0.4-0.9,0.4-1.5c0-0.5-0.1-1-0.4-1.5c-0.3-0.4-0.6-0.8-1-1
	c-0.4-0.3-0.9-0.4-1.5-0.4c-0.6,0-1.1,0.1-1.5,0.4c-0.5,0.3-0.8,0.6-1.1,1s-0.4,0.9-0.4,1.5c0,0.5,0.1,1,0.4,1.5s0.6,0.8,1.1,1
	c0.4,0.3,1,0.4,1.5,0.4C414.7,238.8,415.2,238.7,415.6,238.4z"/>
<path class="st6" d="M425.3,232.4v7h-0.6l-4.5-5.7v5.7h-0.7v-7h0.6l4.5,5.7v-5.7H425.3z"/>
<path class="st6" d="M434.6,237.5h-3.9l-0.8,1.9h-0.8l3.2-7h0.7l3.2,7h-0.8L434.6,237.5z M434.3,236.9l-1.7-3.8l-1.7,3.8H434.3z"/>
<path class="st6" d="M437.4,232.4h0.7v6.4h3.9v0.6h-4.7V232.4z"/>
<path class="st6" d="M448.2,235.9h0.7v2.7c-0.3,0.3-0.7,0.5-1.2,0.7c-0.4,0.2-0.9,0.2-1.4,0.2c-0.7,0-1.3-0.2-1.9-0.5
	c-0.6-0.3-1-0.7-1.3-1.3s-0.5-1.2-0.5-1.8s0.2-1.3,0.5-1.8c0.3-0.5,0.8-1,1.3-1.3c0.6-0.3,1.2-0.5,1.9-0.5c0.5,0,1,0.1,1.5,0.3
	c0.4,0.2,0.8,0.4,1.1,0.8l-0.5,0.5c-0.6-0.5-1.3-0.8-2.1-0.8c-0.6,0-1.1,0.1-1.5,0.4s-0.8,0.6-1.1,1c-0.3,0.4-0.4,0.9-0.4,1.5
	c0,0.5,0.1,1,0.4,1.5c0.3,0.4,0.6,0.8,1.1,1s1,0.4,1.5,0.4c0.7,0,1.3-0.2,1.8-0.5V235.9z"/>
<path class="st6" d="M452.2,239c-0.6-0.3-1-0.7-1.3-1.3s-0.5-1.1-0.5-1.8s0.2-1.3,0.5-1.8s0.8-1,1.3-1.3c0.6-0.3,1.2-0.5,1.9-0.5
	s1.3,0.2,1.9,0.5s1,0.7,1.3,1.3c0.3,0.5,0.5,1.2,0.5,1.8s-0.2,1.3-0.5,1.8c-0.3,0.5-0.8,1-1.3,1.3s-1.2,0.5-1.9,0.5
	S452.7,239.3,452.2,239z M455.5,238.4c0.4-0.3,0.8-0.6,1-1c0.3-0.4,0.4-0.9,0.4-1.5c0-0.5-0.1-1-0.4-1.5c-0.3-0.4-0.6-0.8-1-1
	c-0.4-0.3-0.9-0.4-1.5-0.4c-0.6,0-1.1,0.1-1.5,0.4c-0.5,0.3-0.8,0.6-1.1,1s-0.4,0.9-0.4,1.5c0,0.5,0.1,1,0.4,1.5s0.6,0.8,1.1,1
	c0.4,0.3,1,0.4,1.5,0.4C454.6,238.8,455.1,238.7,455.5,238.4z"/>
<path class="st6" d="M464.1,239.4l-1.6-2.3c-0.2,0-0.4,0-0.6,0h-1.9v2.2h-0.7v-7h2.6c0.9,0,1.6,0.2,2.1,0.6c0.5,0.4,0.8,1,0.8,1.8
	c0,0.5-0.1,1-0.4,1.4c-0.3,0.4-0.7,0.6-1.2,0.8l1.7,2.4H464.1z M463.6,236.1c0.4-0.3,0.5-0.7,0.5-1.3c0-0.6-0.2-1-0.5-1.3
	c-0.4-0.3-0.9-0.5-1.6-0.5h-1.9v3.5h1.9C462.7,236.6,463.2,236.4,463.6,236.1z"/>
<path class="st6" d="M466.6,232.4h0.7v7h-0.7V232.4z"/>
<path class="st6" d="M471,233h-2.5v-0.6h5.7v0.6h-2.5v6.4H471V233z"/>
<path class="st6" d="M481.2,232.4v7h-0.7v-3.2h-4.4v3.2h-0.7v-7h0.7v3.1h4.4v-3.1H481.2z"/>
<path class="st6" d="M490.8,232.4v7H490v-5.6l-2.8,4.7h-0.4l-2.8-4.7v5.6h-0.7v-7h0.6l3,5.2l3-5.2H490.8z"/>
<path class="st6" d="M493.5,239.2c-0.5-0.2-0.8-0.4-1.1-0.7l0.3-0.6c0.3,0.3,0.6,0.5,1,0.6c0.4,0.2,0.9,0.2,1.3,0.2
	c0.6,0,1.1-0.1,1.4-0.3c0.3-0.2,0.5-0.5,0.5-0.9c0-0.3-0.1-0.5-0.3-0.7s-0.4-0.3-0.6-0.4c-0.2-0.1-0.6-0.2-1-0.3
	c-0.5-0.1-0.9-0.3-1.3-0.4s-0.6-0.3-0.8-0.6c-0.2-0.3-0.3-0.6-0.3-1c0-0.4,0.1-0.7,0.3-1s0.5-0.5,0.9-0.7s0.9-0.3,1.4-0.3
	c0.4,0,0.8,0.1,1.2,0.2c0.4,0.1,0.7,0.3,1,0.5l-0.3,0.6c-0.3-0.2-0.6-0.3-0.9-0.4c-0.3-0.1-0.7-0.1-1-0.1c-0.6,0-1.1,0.1-1.4,0.4
	c-0.3,0.2-0.5,0.5-0.5,0.9c0,0.3,0.1,0.5,0.3,0.7s0.4,0.3,0.6,0.4c0.3,0.1,0.6,0.2,1,0.3c0.5,0.1,0.9,0.3,1.2,0.4
	c0.3,0.1,0.6,0.3,0.8,0.6c0.2,0.3,0.3,0.6,0.3,1c0,0.4-0.1,0.7-0.3,1c-0.2,0.3-0.5,0.5-0.9,0.7c-0.4,0.2-0.9,0.3-1.4,0.3
	C494.4,239.5,493.9,239.4,493.5,239.2z"/>
<path class="st6" d="M152.6,173c-0.6-0.3-1-0.7-1.3-1.3c-0.3-0.5-0.5-1.1-0.5-1.8s0.2-1.3,0.5-1.8c0.3-0.5,0.8-1,1.3-1.3
	c0.6-0.3,1.2-0.5,1.9-0.5c0.7,0,1.3,0.2,1.9,0.5c0.6,0.3,1,0.7,1.3,1.3c0.3,0.5,0.5,1.2,0.5,1.8s-0.2,1.3-0.5,1.8
	c-0.3,0.5-0.8,1-1.3,1.3c-0.6,0.3-1.2,0.5-1.9,0.5C153.8,173.5,153.1,173.3,152.6,173z M155.9,172.4c0.4-0.3,0.8-0.6,1-1
	s0.4-0.9,0.4-1.5c0-0.5-0.1-1-0.4-1.5s-0.6-0.8-1-1c-0.4-0.3-0.9-0.4-1.5-0.4c-0.6,0-1.1,0.1-1.5,0.4c-0.4,0.3-0.8,0.6-1.1,1
	c-0.3,0.4-0.4,0.9-0.4,1.5c0,0.5,0.1,1,0.4,1.5c0.3,0.4,0.6,0.8,1.1,1c0.5,0.3,1,0.4,1.5,0.4C155,172.8,155.5,172.7,155.9,172.4z"/>
<path class="st6" d="M165.6,166.4v7H165l-4.5-5.7v5.7h-0.7v-7h0.6l4.5,5.7v-5.7H165.6z"/>
<path class="st6" d="M167.9,166.4h0.7v6.4h3.9v0.6h-4.7V166.4z"/>
<path class="st6" d="M173.8,166.4h0.7v7h-0.7V166.4z"/>
<path class="st6" d="M182.7,166.4v7h-0.6l-4.5-5.7v5.7h-0.7v-7h0.6l4.5,5.7v-5.7H182.7z"/>
<path class="st6" d="M189.9,172.8v0.6h-4.9v-7h4.8v0.6h-4.1v2.5h3.6v0.6h-3.6v2.6H189.9z"/>
<path class="st6" d="M194.7,173.2c-0.5-0.2-0.8-0.4-1.1-0.7l0.3-0.6c0.3,0.3,0.6,0.5,1,0.6c0.4,0.2,0.9,0.2,1.3,0.2
	c0.6,0,1.1-0.1,1.4-0.3s0.5-0.5,0.5-0.9c0-0.3-0.1-0.5-0.3-0.7c-0.2-0.2-0.4-0.3-0.6-0.4c-0.2-0.1-0.6-0.2-1-0.3
	c-0.5-0.1-0.9-0.3-1.3-0.4c-0.3-0.1-0.6-0.3-0.8-0.6c-0.2-0.3-0.3-0.6-0.3-1c0-0.4,0.1-0.7,0.3-1s0.5-0.5,0.9-0.7s0.9-0.3,1.4-0.3
	c0.4,0,0.8,0.1,1.2,0.2s0.7,0.3,1,0.5l-0.3,0.6c-0.3-0.2-0.6-0.3-0.9-0.4c-0.3-0.1-0.7-0.1-1-0.1c-0.6,0-1.1,0.1-1.4,0.4
	c-0.3,0.2-0.5,0.5-0.5,0.9c0,0.3,0.1,0.5,0.3,0.7s0.4,0.3,0.6,0.4c0.3,0.1,0.6,0.2,1,0.3c0.5,0.1,0.9,0.3,1.2,0.4
	c0.3,0.1,0.6,0.3,0.8,0.6c0.2,0.3,0.3,0.6,0.3,1c0,0.4-0.1,0.7-0.3,1c-0.2,0.3-0.5,0.5-0.9,0.7c-0.4,0.2-0.9,0.3-1.5,0.3
	C195.7,173.5,195.2,173.4,194.7,173.2z"/>
<path class="st6" d="M206.3,166.4v7h-0.7v-3.2h-4.4v3.2h-0.7v-7h0.7v3.1h4.4v-3.1H206.3z"/>
<path class="st6" d="M209.7,173c-0.6-0.3-1-0.7-1.3-1.3c-0.3-0.5-0.5-1.1-0.5-1.8s0.2-1.3,0.5-1.8c0.3-0.5,0.8-1,1.3-1.3
	c0.6-0.3,1.2-0.5,1.9-0.5c0.7,0,1.3,0.2,1.9,0.5c0.6,0.3,1,0.7,1.3,1.3c0.3,0.5,0.5,1.2,0.5,1.8s-0.2,1.3-0.5,1.8
	c-0.3,0.5-0.8,1-1.3,1.3c-0.6,0.3-1.2,0.5-1.9,0.5C210.9,173.5,210.3,173.3,209.7,173z M213.1,172.4c0.4-0.3,0.8-0.6,1-1
	s0.4-0.9,0.4-1.5c0-0.5-0.1-1-0.4-1.5s-0.6-0.8-1-1c-0.4-0.3-0.9-0.4-1.5-0.4c-0.6,0-1.1,0.1-1.5,0.4c-0.4,0.3-0.8,0.6-1.1,1
	c-0.3,0.4-0.4,0.9-0.4,1.5c0,0.5,0.1,1,0.4,1.5c0.3,0.4,0.6,0.8,1.1,1c0.5,0.3,1,0.4,1.5,0.4C212.2,172.8,212.7,172.7,213.1,172.4z"
	/>
<path class="st6" d="M221.6,167c0.5,0.4,0.8,1,0.8,1.8s-0.3,1.3-0.8,1.8c-0.5,0.4-1.2,0.6-2.1,0.6h-1.9v2.2h-0.7v-7h2.6
	C220.4,166.4,221.1,166.6,221.6,167z M221.1,170.1c0.4-0.3,0.5-0.7,0.5-1.3c0-0.6-0.2-1-0.5-1.3c-0.4-0.3-0.9-0.5-1.6-0.5h-1.9v3.5
	h1.9C220.2,170.5,220.8,170.4,221.1,170.1z"/>
<path class="st6" d="M155.2,187c-0.6-0.3-1-0.7-1.3-1.3c-0.3-0.5-0.5-1.2-0.5-1.8s0.2-1.3,0.5-1.8c0.3-0.5,0.8-1,1.3-1.3
	s1.2-0.5,1.9-0.5c0.5,0,1,0.1,1.4,0.3s0.8,0.4,1.1,0.8l-0.5,0.5c-0.5-0.6-1.2-0.8-2.1-0.8c-0.6,0-1.1,0.1-1.5,0.4
	c-0.5,0.3-0.8,0.6-1.1,1c-0.3,0.4-0.4,0.9-0.4,1.5c0,0.5,0.1,1,0.4,1.5c0.3,0.4,0.6,0.8,1.1,1c0.5,0.3,1,0.4,1.5,0.4
	c0.8,0,1.5-0.3,2.1-0.8l0.5,0.5c-0.3,0.3-0.7,0.6-1.1,0.8c-0.4,0.2-0.9,0.3-1.4,0.3C156.4,187.5,155.8,187.3,155.2,187z"/>
<path class="st6" d="M162.4,187c-0.6-0.3-1-0.7-1.3-1.3c-0.3-0.5-0.5-1.1-0.5-1.8s0.2-1.3,0.5-1.8c0.3-0.5,0.8-1,1.3-1.3
	c0.6-0.3,1.2-0.5,1.9-0.5c0.7,0,1.3,0.2,1.9,0.5c0.6,0.3,1,0.7,1.3,1.3c0.3,0.5,0.5,1.2,0.5,1.8s-0.2,1.3-0.5,1.8
	c-0.3,0.5-0.8,1-1.3,1.3c-0.6,0.3-1.2,0.5-1.9,0.5C163.6,187.5,163,187.3,162.4,187z M165.8,186.4c0.4-0.3,0.8-0.6,1-1
	s0.4-0.9,0.4-1.5c0-0.5-0.1-1-0.4-1.5s-0.6-0.8-1-1c-0.4-0.3-0.9-0.4-1.5-0.4c-0.6,0-1.1,0.1-1.5,0.4c-0.4,0.3-0.8,0.6-1.1,1
	c-0.3,0.4-0.4,0.9-0.4,1.5c0,0.5,0.1,1,0.4,1.5c0.3,0.4,0.6,0.8,1.1,1c0.5,0.3,1,0.4,1.5,0.4C164.9,186.8,165.4,186.7,165.8,186.4z"
	/>
<path class="st6" d="M175.5,180.4v7h-0.6l-4.5-5.7v5.7h-0.7v-7h0.6l4.5,5.7v-5.7H175.5z"/>
<path class="st6" d="M178.2,187.2c-0.5-0.2-0.8-0.4-1.1-0.7l0.3-0.6c0.3,0.3,0.6,0.5,1,0.6c0.4,0.2,0.9,0.2,1.3,0.2
	c0.6,0,1.1-0.1,1.4-0.3s0.5-0.5,0.5-0.9c0-0.3-0.1-0.5-0.3-0.7c-0.2-0.2-0.4-0.3-0.6-0.4c-0.2-0.1-0.6-0.2-1-0.3
	c-0.5-0.1-0.9-0.3-1.3-0.4c-0.3-0.1-0.6-0.3-0.8-0.6c-0.2-0.3-0.3-0.6-0.3-1c0-0.4,0.1-0.7,0.3-1s0.5-0.5,0.9-0.7s0.9-0.3,1.4-0.3
	c0.4,0,0.8,0.1,1.2,0.2s0.7,0.3,1,0.5l-0.3,0.6c-0.3-0.2-0.6-0.3-0.9-0.4c-0.3-0.1-0.7-0.1-1-0.1c-0.6,0-1.1,0.1-1.4,0.4
	c-0.3,0.2-0.5,0.5-0.5,0.9c0,0.3,0.1,0.5,0.3,0.7s0.4,0.3,0.6,0.4c0.3,0.1,0.6,0.2,1,0.3c0.5,0.1,0.9,0.3,1.2,0.4
	c0.3,0.1,0.6,0.3,0.8,0.6c0.2,0.3,0.3,0.6,0.3,1c0,0.4-0.1,0.7-0.3,1c-0.2,0.3-0.5,0.5-0.9,0.7c-0.4,0.2-0.9,0.3-1.5,0.3
	C179.2,187.5,178.7,187.4,178.2,187.2z"/>
<path class="st6" d="M184.6,186.7c-0.5-0.5-0.8-1.3-0.8-2.3v-4h0.7v4c0,0.8,0.2,1.4,0.6,1.8c0.4,0.4,0.9,0.6,1.6,0.6
	c0.7,0,1.2-0.2,1.6-0.6c0.4-0.4,0.5-1,0.5-1.8v-4h0.7v4c0,1-0.3,1.8-0.8,2.3c-0.5,0.5-1.2,0.8-2.1,0.8S185.1,187.2,184.6,186.7z"/>
<path class="st6" d="M199.1,180.4v7h-0.7v-5.6l-2.8,4.7h-0.4l-2.8-4.7v5.6h-0.7v-7h0.6l3,5.2l3-5.2H199.1z"/>
<path class="st6" d="M206.3,186.8v0.6h-4.9v-7h4.8v0.6h-4.1v2.5h3.6v0.6h-3.6v2.6H206.3z"/>
<path class="st6" d="M212.8,187.4l-1.6-2.3c-0.2,0-0.4,0-0.6,0h-1.9v2.2h-0.7v-7h2.6c0.9,0,1.6,0.2,2.1,0.6c0.5,0.4,0.8,1,0.8,1.8
	c0,0.5-0.1,1-0.4,1.4c-0.3,0.4-0.7,0.6-1.2,0.8l1.7,2.4H212.8z M212.3,184.1c0.4-0.3,0.5-0.7,0.5-1.3c0-0.6-0.2-1-0.5-1.3
	c-0.4-0.3-0.9-0.5-1.6-0.5h-1.9v3.5h1.9C211.4,184.6,211.9,184.4,212.3,184.1z"/>
<path class="st6" d="M215.7,187.2c-0.5-0.2-0.8-0.4-1.1-0.7l0.3-0.6c0.3,0.3,0.6,0.5,1,0.6c0.4,0.2,0.9,0.2,1.3,0.2
	c0.6,0,1.1-0.1,1.4-0.3s0.5-0.5,0.5-0.9c0-0.3-0.1-0.5-0.3-0.7c-0.2-0.2-0.4-0.3-0.6-0.4c-0.2-0.1-0.6-0.2-1-0.3
	c-0.5-0.1-0.9-0.3-1.3-0.4c-0.3-0.1-0.6-0.3-0.8-0.6c-0.2-0.3-0.3-0.6-0.3-1c0-0.4,0.1-0.7,0.3-1s0.5-0.5,0.9-0.7s0.9-0.3,1.4-0.3
	c0.4,0,0.8,0.1,1.2,0.2s0.7,0.3,1,0.5l-0.3,0.6c-0.3-0.2-0.6-0.3-0.9-0.4c-0.3-0.1-0.7-0.1-1-0.1c-0.6,0-1.1,0.1-1.4,0.4
	c-0.3,0.2-0.5,0.5-0.5,0.9c0,0.3,0.1,0.5,0.3,0.7s0.4,0.3,0.6,0.4c0.3,0.1,0.6,0.2,1,0.3c0.5,0.1,0.9,0.3,1.2,0.4
	c0.3,0.1,0.6,0.3,0.8,0.6c0.2,0.3,0.3,0.6,0.3,1c0,0.4-0.1,0.7-0.3,1c-0.2,0.3-0.5,0.5-0.9,0.7c-0.4,0.2-0.9,0.3-1.5,0.3
	C216.7,187.5,216.2,187.4,215.7,187.2z"/>
<path class="st6" d="M159.3,195c0.5,0.4,0.8,1,0.8,1.8s-0.3,1.3-0.8,1.8c-0.5,0.4-1.2,0.6-2.1,0.6h-1.9v2.2h-0.7v-7h2.6
	C158.1,194.4,158.8,194.6,159.3,195z M158.8,198.1c0.4-0.3,0.5-0.7,0.5-1.3c0-0.6-0.2-1-0.5-1.3c-0.4-0.3-0.9-0.5-1.6-0.5h-1.9v3.5
	h1.9C157.9,198.5,158.5,198.4,158.8,198.1z"/>
<path class="st6" d="M166.6,201.4l-1.6-2.3c-0.2,0-0.4,0-0.6,0h-1.9v2.2h-0.7v-7h2.6c0.9,0,1.6,0.2,2.1,0.6c0.5,0.4,0.8,1,0.8,1.8
	c0,0.5-0.1,1-0.4,1.4c-0.3,0.4-0.7,0.6-1.2,0.8l1.7,2.4H166.6z M166,198.1c0.4-0.3,0.5-0.7,0.5-1.3c0-0.6-0.2-1-0.5-1.3
	c-0.4-0.3-0.9-0.5-1.6-0.5h-1.9v3.5h1.9C165.1,198.6,165.6,198.4,166,198.1z"/>
<path class="st6" d="M170.2,201c-0.6-0.3-1-0.7-1.3-1.3c-0.3-0.5-0.5-1.1-0.5-1.8s0.2-1.3,0.5-1.8c0.3-0.5,0.8-1,1.3-1.3
	c0.6-0.3,1.2-0.5,1.9-0.5c0.7,0,1.3,0.2,1.9,0.5c0.6,0.3,1,0.7,1.3,1.3c0.3,0.5,0.5,1.2,0.5,1.8s-0.2,1.3-0.5,1.8
	c-0.3,0.5-0.8,1-1.3,1.3c-0.6,0.3-1.2,0.5-1.9,0.5C171.4,201.5,170.8,201.3,170.2,201z M173.6,200.4c0.4-0.3,0.8-0.6,1-1
	s0.4-0.9,0.4-1.5c0-0.5-0.1-1-0.4-1.5s-0.6-0.8-1-1c-0.4-0.3-0.9-0.4-1.5-0.4c-0.6,0-1.1,0.1-1.5,0.4c-0.4,0.3-0.8,0.6-1.1,1
	c-0.3,0.4-0.4,0.9-0.4,1.5c0,0.5,0.1,1,0.4,1.5c0.3,0.4,0.6,0.8,1.1,1c0.5,0.3,1,0.4,1.5,0.4C172.7,200.8,173.2,200.7,173.6,200.4z"
	/>
<path class="st6" d="M177.4,194.4h2.9c0.7,0,1.4,0.1,2,0.4c0.6,0.3,1,0.7,1.3,1.2c0.3,0.5,0.5,1.1,0.5,1.8s-0.2,1.3-0.5,1.8
	c-0.3,0.5-0.8,0.9-1.3,1.2c-0.6,0.3-1.2,0.4-2,0.4h-2.9V194.4z M180.2,200.8c0.6,0,1.1-0.1,1.6-0.4s0.8-0.6,1.1-1
	c0.3-0.4,0.4-0.9,0.4-1.5s-0.1-1.1-0.4-1.5c-0.3-0.4-0.6-0.8-1.1-1c-0.5-0.2-1-0.4-1.6-0.4h-2.1v5.7H180.2z"/>
<path class="st6" d="M186.4,200.7c-0.5-0.5-0.8-1.3-0.8-2.3v-4h0.7v4c0,0.8,0.2,1.4,0.6,1.8c0.4,0.4,0.9,0.6,1.6,0.6
	c0.7,0,1.2-0.2,1.6-0.6c0.4-0.4,0.5-1,0.5-1.8v-4h0.7v4c0,1-0.3,1.8-0.8,2.3c-0.5,0.5-1.2,0.8-2.1,0.8S186.9,201.2,186.4,200.7z"/>
<path class="st6" d="M194.8,201c-0.6-0.3-1-0.7-1.3-1.3c-0.3-0.5-0.5-1.2-0.5-1.8s0.2-1.3,0.5-1.8c0.3-0.5,0.8-1,1.3-1.3
	s1.2-0.5,1.9-0.5c0.5,0,1,0.1,1.4,0.3s0.8,0.4,1.1,0.8l-0.5,0.5c-0.5-0.6-1.2-0.8-2.1-0.8c-0.6,0-1.1,0.1-1.5,0.4
	c-0.5,0.3-0.8,0.6-1.1,1c-0.3,0.4-0.4,0.9-0.4,1.5c0,0.5,0.1,1,0.4,1.5c0.3,0.4,0.6,0.8,1.1,1c0.5,0.3,1,0.4,1.5,0.4
	c0.8,0,1.5-0.3,2.1-0.8l0.5,0.5c-0.3,0.3-0.7,0.6-1.1,0.8c-0.4,0.2-0.9,0.3-1.4,0.3C196,201.5,195.3,201.3,194.8,201z"/>
<path class="st6" d="M205.7,200.8v0.6h-4.9v-7h4.8v0.6h-4.1v2.5h3.6v0.6h-3.6v2.6H205.7z"/>
<path class="st6" d="M212.3,201.4l-1.6-2.3c-0.2,0-0.4,0-0.6,0h-1.9v2.2h-0.7v-7h2.6c0.9,0,1.6,0.2,2.1,0.6c0.5,0.4,0.8,1,0.8,1.8
	c0,0.5-0.1,1-0.4,1.4c-0.3,0.4-0.7,0.6-1.2,0.8l1.7,2.4H212.3z M211.7,198.1c0.4-0.3,0.5-0.7,0.5-1.3c0-0.6-0.2-1-0.5-1.3
	c-0.4-0.3-0.9-0.5-1.6-0.5h-1.9v3.5h1.9C210.8,198.6,211.3,198.4,211.7,198.1z"/>
<path class="st6" d="M215.2,201.2c-0.5-0.2-0.8-0.4-1.1-0.7l0.3-0.6c0.3,0.3,0.6,0.5,1,0.6c0.4,0.2,0.9,0.2,1.3,0.2
	c0.6,0,1.1-0.1,1.4-0.3s0.5-0.5,0.5-0.9c0-0.3-0.1-0.5-0.3-0.7c-0.2-0.2-0.4-0.3-0.6-0.4c-0.2-0.1-0.6-0.2-1-0.3
	c-0.5-0.1-0.9-0.3-1.3-0.4c-0.3-0.1-0.6-0.3-0.8-0.6c-0.2-0.3-0.3-0.6-0.3-1c0-0.4,0.1-0.7,0.3-1s0.5-0.5,0.9-0.7s0.9-0.3,1.4-0.3
	c0.4,0,0.8,0.1,1.2,0.2s0.7,0.3,1,0.5l-0.3,0.6c-0.3-0.2-0.6-0.3-0.9-0.4c-0.3-0.1-0.7-0.1-1-0.1c-0.6,0-1.1,0.1-1.4,0.4
	c-0.3,0.2-0.5,0.5-0.5,0.9c0,0.3,0.1,0.5,0.3,0.7s0.4,0.3,0.6,0.4c0.3,0.1,0.6,0.2,1,0.3c0.5,0.1,0.9,0.3,1.2,0.4
	c0.3,0.1,0.6,0.3,0.8,0.6c0.2,0.3,0.3,0.6,0.3,1c0,0.4-0.1,0.7-0.3,1c-0.2,0.3-0.5,0.5-0.9,0.7c-0.4,0.2-0.9,0.3-1.5,0.3
	C216.1,201.5,215.6,201.4,215.2,201.2z"/>
<path class="st6" d="M99.5,215.2c-0.5-0.2-0.8-0.4-1.1-0.7l0.3-0.6c0.3,0.3,0.6,0.5,1,0.6c0.4,0.2,0.9,0.2,1.3,0.2
	c0.6,0,1.1-0.1,1.4-0.3s0.5-0.5,0.5-0.9c0-0.3-0.1-0.5-0.3-0.7c-0.2-0.2-0.4-0.3-0.6-0.4c-0.2-0.1-0.6-0.2-1-0.3
	c-0.5-0.1-0.9-0.3-1.3-0.4c-0.3-0.1-0.6-0.3-0.8-0.6c-0.2-0.3-0.3-0.6-0.3-1c0-0.4,0.1-0.7,0.3-1s0.5-0.5,0.9-0.7s0.9-0.3,1.4-0.3
	c0.4,0,0.8,0.1,1.2,0.2s0.7,0.3,1,0.5l-0.3,0.6c-0.3-0.2-0.6-0.3-0.9-0.4c-0.3-0.1-0.7-0.1-1-0.1c-0.6,0-1.1,0.1-1.4,0.4
	c-0.3,0.2-0.5,0.5-0.5,0.9c0,0.3,0.1,0.5,0.3,0.7s0.4,0.3,0.6,0.4c0.3,0.1,0.6,0.2,1,0.3c0.5,0.1,0.9,0.3,1.2,0.4
	c0.3,0.1,0.6,0.3,0.8,0.6c0.2,0.3,0.3,0.6,0.3,1c0,0.4-0.1,0.7-0.3,1c-0.2,0.3-0.5,0.5-0.9,0.7c-0.4,0.2-0.9,0.3-1.5,0.3
	C100.5,215.5,100,215.4,99.5,215.2z"/>
<path class="st6" d="M110.2,214.8v0.6h-4.9v-7h4.8v0.6H106v2.5h3.6v0.6H106v2.6H110.2z"/>
<path class="st6" d="M111.9,208.4h0.7v6.4h3.9v0.6h-4.7V208.4z"/>
<path class="st6" d="M118.5,209v2.8h3.6v0.6h-3.6v3h-0.7v-7h4.8v0.6H118.5z"/>
<path class="st6" d="M123.6,212.4h2.6v0.6h-2.6V212.4z"/>
<path class="st6" d="M132.9,214.8v0.6h-4.9v-7h4.8v0.6h-4.1v2.5h3.6v0.6h-3.6v2.6H132.9z"/>
<path class="st6" d="M141.9,208.4v7h-0.7v-5.6l-2.8,4.7h-0.4l-2.8-4.7v5.6h-0.7v-7h0.6l3,5.2l3-5.2H141.9z"/>
<path class="st6" d="M148.9,209c0.5,0.4,0.8,1,0.8,1.8s-0.3,1.3-0.8,1.8c-0.5,0.4-1.2,0.6-2.1,0.6h-1.9v2.2h-0.7v-7h2.6
	C147.7,208.4,148.4,208.6,148.9,209z M148.4,212.1c0.4-0.3,0.5-0.7,0.5-1.3c0-0.6-0.2-1-0.5-1.3c-0.4-0.3-0.9-0.5-1.6-0.5h-1.9v3.5
	h1.9C147.5,212.5,148,212.4,148.4,212.1z"/>
<path class="st6" d="M151.4,208.4h0.7v6.4h3.9v0.6h-4.7V208.4z"/>
<path class="st6" d="M158.4,215c-0.6-0.3-1-0.7-1.3-1.3c-0.3-0.5-0.5-1.1-0.5-1.8s0.2-1.3,0.5-1.8c0.3-0.5,0.8-1,1.3-1.3
	c0.6-0.3,1.2-0.5,1.9-0.5c0.7,0,1.3,0.2,1.9,0.5c0.6,0.3,1,0.7,1.3,1.3c0.3,0.5,0.5,1.2,0.5,1.8s-0.2,1.3-0.5,1.8
	c-0.3,0.5-0.8,1-1.3,1.3c-0.6,0.3-1.2,0.5-1.9,0.5C159.6,215.5,159,215.3,158.4,215z M161.8,214.4c0.4-0.3,0.8-0.6,1-1
	s0.4-0.9,0.4-1.5c0-0.5-0.1-1-0.4-1.5s-0.6-0.8-1-1c-0.4-0.3-0.9-0.4-1.5-0.4c-0.6,0-1.1,0.1-1.5,0.4c-0.4,0.3-0.8,0.6-1.1,1
	c-0.3,0.4-0.4,0.9-0.4,1.5c0,0.5,0.1,1,0.4,1.5c0.3,0.4,0.6,0.8,1.1,1c0.5,0.3,1,0.4,1.5,0.4C160.9,214.8,161.4,214.7,161.8,214.4z"
	/>
<path class="st6" d="M168,213v2.4h-0.7V213l-2.8-4.6h0.8l2.4,3.9l2.4-3.9h0.7L168,213z"/>
<path class="st6" d="M176.9,214.8v0.6H172v-7h4.8v0.6h-4.1v2.5h3.6v0.6h-3.6v2.6H176.9z"/>
<path class="st6" d="M178.7,208.4h2.9c0.7,0,1.4,0.1,2,0.4c0.6,0.3,1,0.7,1.3,1.2c0.3,0.5,0.5,1.1,0.5,1.8s-0.2,1.3-0.5,1.8
	c-0.3,0.5-0.8,0.9-1.3,1.2c-0.6,0.3-1.2,0.4-2,0.4h-2.9V208.4z M181.5,214.8c0.6,0,1.1-0.1,1.6-0.4s0.8-0.6,1.1-1
	c0.3-0.4,0.4-0.9,0.4-1.5s-0.1-1.1-0.4-1.5c-0.3-0.4-0.6-0.8-1.1-1c-0.5-0.2-1-0.4-1.6-0.4h-2.1v5.7H181.5z"/>
<path class="st6" d="M194.3,209c0.5,0.4,0.8,1,0.8,1.8s-0.3,1.3-0.8,1.8c-0.5,0.4-1.2,0.6-2.1,0.6h-1.9v2.2h-0.7v-7h2.6
	C193.1,208.4,193.8,208.6,194.3,209z M193.8,212.1c0.4-0.3,0.5-0.7,0.5-1.3c0-0.6-0.2-1-0.5-1.3c-0.4-0.3-0.9-0.5-1.6-0.5h-1.9v3.5
	h1.9C192.9,212.5,193.4,212.4,193.8,212.1z"/>
<path class="st6" d="M201.5,215.4l-1.6-2.3c-0.2,0-0.4,0-0.6,0h-1.9v2.2h-0.7v-7h2.6c0.9,0,1.6,0.2,2.1,0.6c0.5,0.4,0.8,1,0.8,1.8
	c0,0.5-0.1,1-0.4,1.4c-0.3,0.4-0.7,0.6-1.2,0.8l1.7,2.4H201.5z M200.9,212.1c0.4-0.3,0.5-0.7,0.5-1.3c0-0.6-0.2-1-0.5-1.3
	c-0.4-0.3-0.9-0.5-1.6-0.5h-1.9v3.5h1.9C200,212.6,200.6,212.4,200.9,212.1z"/>
<path class="st6" d="M205.1,215c-0.6-0.3-1-0.7-1.3-1.3c-0.3-0.5-0.5-1.1-0.5-1.8s0.2-1.3,0.5-1.8c0.3-0.5,0.8-1,1.3-1.3
	c0.6-0.3,1.2-0.5,1.9-0.5c0.7,0,1.3,0.2,1.9,0.5c0.6,0.3,1,0.7,1.3,1.3c0.3,0.5,0.5,1.2,0.5,1.8s-0.2,1.3-0.5,1.8
	c-0.3,0.5-0.8,1-1.3,1.3c-0.6,0.3-1.2,0.5-1.9,0.5C206.3,215.5,205.7,215.3,205.1,215z M208.5,214.4c0.4-0.3,0.8-0.6,1-1
	s0.4-0.9,0.4-1.5c0-0.5-0.1-1-0.4-1.5s-0.6-0.8-1-1c-0.4-0.3-0.9-0.4-1.5-0.4c-0.6,0-1.1,0.1-1.5,0.4c-0.4,0.3-0.8,0.6-1.1,1
	c-0.3,0.4-0.4,0.9-0.4,1.5c0,0.5,0.1,1,0.4,1.5c0.3,0.4,0.6,0.8,1.1,1c0.5,0.3,1,0.4,1.5,0.4C207.6,214.8,208.1,214.7,208.5,214.4z"
	/>
<path class="st6" d="M213.1,209v2.8h3.6v0.6h-3.6v3h-0.7v-7h4.8v0.6H213.1z"/>
<path class="st6" d="M223.6,214.8v0.6h-4.9v-7h4.8v0.6h-4.1v2.5h3.6v0.6h-3.6v2.6H223.6z"/>
<path class="st6" d="M225.8,215.2c-0.5-0.2-0.8-0.4-1.1-0.7l0.3-0.6c0.3,0.3,0.6,0.5,1,0.6c0.4,0.2,0.9,0.2,1.3,0.2
	c0.6,0,1.1-0.1,1.4-0.3s0.5-0.5,0.5-0.9c0-0.3-0.1-0.5-0.3-0.7c-0.2-0.2-0.4-0.3-0.6-0.4c-0.2-0.1-0.6-0.2-1-0.3
	c-0.5-0.1-0.9-0.3-1.3-0.4c-0.3-0.1-0.6-0.3-0.8-0.6c-0.2-0.3-0.3-0.6-0.3-1c0-0.4,0.1-0.7,0.3-1s0.5-0.5,0.9-0.7s0.9-0.3,1.4-0.3
	c0.4,0,0.8,0.1,1.2,0.2s0.7,0.3,1,0.5l-0.3,0.6c-0.3-0.2-0.6-0.3-0.9-0.4c-0.3-0.1-0.7-0.1-1-0.1c-0.6,0-1.1,0.1-1.4,0.4
	c-0.3,0.2-0.5,0.5-0.5,0.9c0,0.3,0.1,0.5,0.3,0.7s0.4,0.3,0.6,0.4c0.3,0.1,0.6,0.2,1,0.3c0.5,0.1,0.9,0.3,1.2,0.4
	c0.3,0.1,0.6,0.3,0.8,0.6c0.2,0.3,0.3,0.6,0.3,1c0,0.4-0.1,0.7-0.3,1c-0.2,0.3-0.5,0.5-0.9,0.7c-0.4,0.2-0.9,0.3-1.5,0.3
	C226.8,215.5,226.3,215.4,225.8,215.2z"/>
<path class="st6" d="M232,215.2c-0.5-0.2-0.8-0.4-1.1-0.7l0.3-0.6c0.3,0.3,0.6,0.5,1,0.6c0.4,0.2,0.9,0.2,1.3,0.2
	c0.6,0,1.1-0.1,1.4-0.3s0.5-0.5,0.5-0.9c0-0.3-0.1-0.5-0.3-0.7c-0.2-0.2-0.4-0.3-0.6-0.4c-0.2-0.1-0.6-0.2-1-0.3
	c-0.5-0.1-0.9-0.3-1.3-0.4c-0.3-0.1-0.6-0.3-0.8-0.6c-0.2-0.3-0.3-0.6-0.3-1c0-0.4,0.1-0.7,0.3-1s0.5-0.5,0.9-0.7s0.9-0.3,1.4-0.3
	c0.4,0,0.8,0.1,1.2,0.2s0.7,0.3,1,0.5l-0.3,0.6c-0.3-0.2-0.6-0.3-0.9-0.4c-0.3-0.1-0.7-0.1-1-0.1c-0.6,0-1.1,0.1-1.4,0.4
	c-0.3,0.2-0.5,0.5-0.5,0.9c0,0.3,0.1,0.5,0.3,0.7s0.4,0.3,0.6,0.4c0.3,0.1,0.6,0.2,1,0.3c0.5,0.1,0.9,0.3,1.2,0.4
	c0.3,0.1,0.6,0.3,0.8,0.6c0.2,0.3,0.3,0.6,0.3,1c0,0.4-0.1,0.7-0.3,1c-0.2,0.3-0.5,0.5-0.9,0.7c-0.4,0.2-0.9,0.3-1.5,0.3
	C232.9,215.5,232.4,215.4,232,215.2z"/>
<path class="st6" d="M237.7,208.4h0.7v7h-0.7V208.4z"/>
<path class="st6" d="M241.9,215c-0.6-0.3-1-0.7-1.3-1.3c-0.3-0.5-0.5-1.1-0.5-1.8s0.2-1.3,0.5-1.8c0.3-0.5,0.8-1,1.3-1.3
	c0.6-0.3,1.2-0.5,1.9-0.5c0.7,0,1.3,0.2,1.9,0.5c0.6,0.3,1,0.7,1.3,1.3c0.3,0.5,0.5,1.2,0.5,1.8s-0.2,1.3-0.5,1.8
	c-0.3,0.5-0.8,1-1.3,1.3c-0.6,0.3-1.2,0.5-1.9,0.5C243.1,215.5,242.4,215.3,241.9,215z M245.3,214.4c0.4-0.3,0.8-0.6,1-1
	s0.4-0.9,0.4-1.5c0-0.5-0.1-1-0.4-1.5s-0.6-0.8-1-1c-0.4-0.3-0.9-0.4-1.5-0.4c-0.6,0-1.1,0.1-1.5,0.4c-0.4,0.3-0.8,0.6-1.1,1
	c-0.3,0.4-0.4,0.9-0.4,1.5c0,0.5,0.1,1,0.4,1.5c0.3,0.4,0.6,0.8,1.1,1c0.5,0.3,1,0.4,1.5,0.4C244.3,214.8,244.8,214.7,245.3,214.4z"
	/>
<path class="st6" d="M254.9,208.4v7h-0.6l-4.5-5.7v5.7h-0.7v-7h0.6l4.5,5.7v-5.7H254.9z"/>
<path class="st6" d="M261.6,213.5h-3.9l-0.8,1.9h-0.8l3.2-7h0.7l3.2,7h-0.8L261.6,213.5z M261.3,212.9l-1.7-3.8l-1.7,3.8H261.3z"/>
<path class="st6" d="M264.4,208.4h0.7v6.4h3.9v0.6h-4.7V208.4z"/>
<path class="st6" d="M270.7,215.2c-0.5-0.2-0.8-0.4-1.1-0.7l0.3-0.6c0.3,0.3,0.6,0.5,1,0.6c0.4,0.2,0.9,0.2,1.3,0.2
	c0.6,0,1.1-0.1,1.4-0.3s0.5-0.5,0.5-0.9c0-0.3-0.1-0.5-0.3-0.7c-0.2-0.2-0.4-0.3-0.6-0.4c-0.2-0.1-0.6-0.2-1-0.3
	c-0.5-0.1-0.9-0.3-1.3-0.4c-0.3-0.1-0.6-0.3-0.8-0.6c-0.2-0.3-0.3-0.6-0.3-1c0-0.4,0.1-0.7,0.3-1s0.5-0.5,0.9-0.7s0.9-0.3,1.4-0.3
	c0.4,0,0.8,0.1,1.2,0.2s0.7,0.3,1,0.5l-0.3,0.6c-0.3-0.2-0.6-0.3-0.9-0.4c-0.3-0.1-0.7-0.1-1-0.1c-0.6,0-1.1,0.1-1.4,0.4
	c-0.3,0.2-0.5,0.5-0.5,0.9c0,0.3,0.1,0.5,0.3,0.7s0.4,0.3,0.6,0.4c0.3,0.1,0.6,0.2,1,0.3c0.5,0.1,0.9,0.3,1.2,0.4
	c0.3,0.1,0.6,0.3,0.8,0.6c0.2,0.3,0.3,0.6,0.3,1c0,0.4-0.1,0.7-0.3,1c-0.2,0.3-0.5,0.5-0.9,0.7c-0.4,0.2-0.9,0.3-1.5,0.3
	C271.7,215.5,271.2,215.4,270.7,215.2z"/>
<path class="st6" d="M139,229.2c-0.5-0.2-0.8-0.4-1.1-0.7l0.3-0.6c0.3,0.3,0.6,0.5,1,0.6c0.4,0.2,0.9,0.2,1.3,0.2
	c0.6,0,1.1-0.1,1.4-0.3s0.5-0.5,0.5-0.9c0-0.3-0.1-0.5-0.3-0.7c-0.2-0.2-0.4-0.3-0.6-0.4c-0.2-0.1-0.6-0.2-1-0.3
	c-0.5-0.1-0.9-0.3-1.3-0.4c-0.3-0.1-0.6-0.3-0.8-0.6c-0.2-0.3-0.3-0.6-0.3-1c0-0.4,0.1-0.7,0.3-1s0.5-0.5,0.9-0.7s0.9-0.3,1.4-0.3
	c0.4,0,0.8,0.1,1.2,0.2s0.7,0.3,1,0.5l-0.3,0.6c-0.3-0.2-0.6-0.3-0.9-0.4c-0.3-0.1-0.7-0.1-1-0.1c-0.6,0-1.1,0.1-1.4,0.4
	c-0.3,0.2-0.5,0.5-0.5,0.9c0,0.3,0.1,0.5,0.3,0.7s0.4,0.3,0.6,0.4c0.3,0.1,0.6,0.2,1,0.3c0.5,0.1,0.9,0.3,1.2,0.4
	c0.3,0.1,0.6,0.3,0.8,0.6c0.2,0.3,0.3,0.6,0.3,1c0,0.4-0.1,0.7-0.3,1c-0.2,0.3-0.5,0.5-0.9,0.7c-0.4,0.2-0.9,0.3-1.5,0.3
	C140,229.5,139.5,229.4,139,229.2z"/>
<path class="st6" d="M149.1,227.5h-3.9l-0.8,1.9h-0.8l3.2-7h0.7l3.2,7H150L149.1,227.5z M148.9,226.9l-1.7-3.8l-1.7,3.8H148.9z"/>
<path class="st6" d="M151.9,222.4h0.7v6.4h3.9v0.6h-4.7V222.4z"/>
<path class="st6" d="M162.8,228.8v0.6h-4.9v-7h4.8v0.6h-4.1v2.5h3.6v0.6h-3.6v2.6H162.8z"/>
<path class="st6" d="M164.9,229.2c-0.5-0.2-0.8-0.4-1.1-0.7l0.3-0.6c0.3,0.3,0.6,0.5,1,0.6c0.4,0.2,0.9,0.2,1.3,0.2
	c0.6,0,1.1-0.1,1.4-0.3s0.5-0.5,0.5-0.9c0-0.3-0.1-0.5-0.3-0.7c-0.2-0.2-0.4-0.3-0.6-0.4c-0.2-0.1-0.6-0.2-1-0.3
	c-0.5-0.1-0.9-0.3-1.3-0.4c-0.3-0.1-0.6-0.3-0.8-0.6c-0.2-0.3-0.3-0.6-0.3-1c0-0.4,0.1-0.7,0.3-1s0.5-0.5,0.9-0.7s0.9-0.3,1.4-0.3
	c0.4,0,0.8,0.1,1.2,0.2s0.7,0.3,1,0.5l-0.3,0.6c-0.3-0.2-0.6-0.3-0.9-0.4c-0.3-0.1-0.7-0.1-1-0.1c-0.6,0-1.1,0.1-1.4,0.4
	c-0.3,0.2-0.5,0.5-0.5,0.9c0,0.3,0.1,0.5,0.3,0.7s0.4,0.3,0.6,0.4c0.3,0.1,0.6,0.2,1,0.3c0.5,0.1,0.9,0.3,1.2,0.4
	c0.3,0.1,0.6,0.3,0.8,0.6c0.2,0.3,0.3,0.6,0.3,1c0,0.4-0.1,0.7-0.3,1c-0.2,0.3-0.5,0.5-0.9,0.7c-0.4,0.2-0.9,0.3-1.5,0.3
	C165.9,229.5,165.4,229.4,164.9,229.2z"/>
<path class="st6" d="M178.2,228.8v0.6h-4.9v-7h4.8v0.6H174v2.5h3.6v0.6H174v2.6H178.2z"/>
<path class="st6" d="M184.3,229.4l-2.3-3.1l-2.3,3.1H179l2.7-3.6l-2.5-3.4h0.9l2.1,2.9l2.1-2.9h0.8l-2.5,3.4l2.7,3.6H184.3z"/>
<path class="st6" d="M191.5,228.8v0.6h-4.9v-7h4.8v0.6h-4.1v2.5h3.6v0.6h-3.6v2.6H191.5z"/>
<path class="st6" d="M194.4,229c-0.6-0.3-1-0.7-1.3-1.3c-0.3-0.5-0.5-1.2-0.5-1.8s0.2-1.3,0.5-1.8c0.3-0.5,0.8-1,1.3-1.3
	s1.2-0.5,1.9-0.5c0.5,0,1,0.1,1.4,0.3s0.8,0.4,1.1,0.8l-0.5,0.5c-0.5-0.6-1.2-0.8-2.1-0.8c-0.6,0-1.1,0.1-1.5,0.4
	c-0.5,0.3-0.8,0.6-1.1,1c-0.3,0.4-0.4,0.9-0.4,1.5c0,0.5,0.1,1,0.4,1.5c0.3,0.4,0.6,0.8,1.1,1c0.5,0.3,1,0.4,1.5,0.4
	c0.8,0,1.5-0.3,2.1-0.8l0.5,0.5c-0.3,0.3-0.7,0.6-1.1,0.8c-0.4,0.2-0.9,0.3-1.4,0.3C195.6,229.5,194.9,229.3,194.4,229z"/>
<path class="st6" d="M201.1,228.7c-0.5-0.5-0.8-1.3-0.8-2.3v-4h0.7v4c0,0.8,0.2,1.4,0.6,1.8c0.4,0.4,0.9,0.6,1.6,0.6
	c0.7,0,1.2-0.2,1.6-0.6c0.4-0.4,0.5-1,0.5-1.8v-4h0.7v4c0,1-0.3,1.8-0.8,2.3c-0.5,0.5-1.2,0.8-2.1,0.8S201.6,229.2,201.1,228.7z"/>
<path class="st6" d="M209.7,223h-2.5v-0.6h5.7v0.6h-2.5v6.4h-0.7V223z"/>
<path class="st6" d="M214.1,222.4h0.7v7h-0.7V222.4z"/>
<path class="st6" d="M222.9,222.4l-3.1,7h-0.7l-3.1-7h0.8l2.7,6.1l2.7-6.1H222.9z"/>
<path class="st6" d="M229,228.8v0.6h-4.9v-7h4.8v0.6h-4.1v2.5h3.6v0.6h-3.6v2.6H229z"/>
<path class="st6" d="M231.2,229.2c-0.5-0.2-0.8-0.4-1.1-0.7l0.3-0.6c0.3,0.3,0.6,0.5,1,0.6c0.4,0.2,0.9,0.2,1.3,0.2
	c0.6,0,1.1-0.1,1.4-0.3s0.5-0.5,0.5-0.9c0-0.3-0.1-0.5-0.3-0.7c-0.2-0.2-0.4-0.3-0.6-0.4c-0.2-0.1-0.6-0.2-1-0.3
	c-0.5-0.1-0.9-0.3-1.3-0.4c-0.3-0.1-0.6-0.3-0.8-0.6c-0.2-0.3-0.3-0.6-0.3-1c0-0.4,0.1-0.7,0.3-1s0.5-0.5,0.9-0.7s0.9-0.3,1.4-0.3
	c0.4,0,0.8,0.1,1.2,0.2s0.7,0.3,1,0.5l-0.3,0.6c-0.3-0.2-0.6-0.3-0.9-0.4c-0.3-0.1-0.7-0.1-1-0.1c-0.6,0-1.1,0.1-1.4,0.4
	c-0.3,0.2-0.5,0.5-0.5,0.9c0,0.3,0.1,0.5,0.3,0.7s0.4,0.3,0.6,0.4c0.3,0.1,0.6,0.2,1,0.3c0.5,0.1,0.9,0.3,1.2,0.4
	c0.3,0.1,0.6,0.3,0.8,0.6c0.2,0.3,0.3,0.6,0.3,1c0,0.4-0.1,0.7-0.3,1c-0.2,0.3-0.5,0.5-0.9,0.7c-0.4,0.2-0.9,0.3-1.5,0.3
	C232.2,229.5,231.7,229.4,231.2,229.2z"/>
<path class="st6" d="M130.7,236.4v7H130v-5.6l-2.8,4.7h-0.4l-2.8-4.7v5.6h-0.7v-7h0.6l3,5.2l3-5.2H130.7z"/>
<path class="st6" d="M137.4,241.5h-3.9l-0.8,1.9h-0.8l3.2-7h0.7l3.2,7h-0.8L137.4,241.5z M137.1,240.9l-1.7-3.8l-1.7,3.8H137.1z"/>
<path class="st6" d="M144.9,243.4l-1.6-2.3c-0.2,0-0.4,0-0.6,0h-1.9v2.2h-0.7v-7h2.6c0.9,0,1.6,0.2,2.1,0.6c0.5,0.4,0.8,1,0.8,1.8
	c0,0.5-0.1,1-0.4,1.4c-0.3,0.4-0.7,0.6-1.2,0.8l1.7,2.4H144.9z M144.3,240.1c0.4-0.3,0.5-0.7,0.5-1.3c0-0.6-0.2-1-0.5-1.3
	c-0.4-0.3-0.9-0.5-1.6-0.5h-1.9v3.5h1.9C143.5,240.6,144,240.4,144.3,240.1z"/>
<path class="st6" d="M149.6,240.1l-1.4,1.5v1.8h-0.7v-7h0.7v4.2l4.1-4.2h0.8l-3,3.2l3.2,3.8h-0.9L149.6,240.1z"/>
<path class="st6" d="M159.4,242.8v0.6h-4.9v-7h4.8v0.6h-4.1v2.5h3.6v0.6h-3.6v2.6H159.4z"/>
<path class="st6" d="M162.5,237h-2.5v-0.6h5.7v0.6h-2.5v6.4h-0.7V237z"/>
<path class="st6" d="M166.9,236.4h0.7v7h-0.7V236.4z"/>
<path class="st6" d="M175.8,236.4v7h-0.6l-4.5-5.7v5.7h-0.7v-7h0.6l4.5,5.7v-5.7H175.8z"/>
<path class="st6" d="M183,239.9h0.7v2.7c-0.3,0.3-0.7,0.5-1.2,0.7c-0.4,0.2-0.9,0.2-1.4,0.2c-0.7,0-1.3-0.2-1.9-0.5s-1-0.7-1.3-1.3
	s-0.5-1.2-0.5-1.8s0.2-1.3,0.5-1.8c0.3-0.5,0.8-1,1.3-1.3s1.2-0.5,1.9-0.5c0.5,0,1,0.1,1.5,0.3c0.4,0.2,0.8,0.4,1.1,0.8l-0.5,0.5
	c-0.6-0.5-1.3-0.8-2.1-0.8c-0.6,0-1.1,0.1-1.5,0.4s-0.8,0.6-1.1,1c-0.3,0.4-0.4,0.9-0.4,1.5c0,0.5,0.1,1,0.4,1.5
	c0.3,0.4,0.6,0.8,1.1,1c0.5,0.3,1,0.4,1.5,0.4c0.7,0,1.3-0.2,1.8-0.5V239.9z"/>
<path class="st6" d="M193.4,242.8v0.6h-4.9v-7h4.8v0.6h-4.1v2.5h3.6v0.6h-3.6v2.6H193.4z"/>
<path class="st6" d="M199.5,243.4l-2.3-3.1l-2.3,3.1h-0.9l2.7-3.6l-2.5-3.4h0.9l2.1,2.9l2.1-2.9h0.8l-2.5,3.4l2.7,3.6H199.5z"/>
<path class="st6" d="M206.6,242.8v0.6h-4.9v-7h4.8v0.6h-4.1v2.5h3.6v0.6h-3.6v2.6H206.6z"/>
<path class="st6" d="M209.5,243c-0.6-0.3-1-0.7-1.3-1.3c-0.3-0.5-0.5-1.2-0.5-1.8s0.2-1.3,0.5-1.8c0.3-0.5,0.8-1,1.3-1.3
	s1.2-0.5,1.9-0.5c0.5,0,1,0.1,1.4,0.3s0.8,0.4,1.1,0.8l-0.5,0.5c-0.5-0.6-1.2-0.8-2.1-0.8c-0.6,0-1.1,0.1-1.5,0.4
	c-0.5,0.3-0.8,0.6-1.1,1c-0.3,0.4-0.4,0.9-0.4,1.5c0,0.5,0.1,1,0.4,1.5c0.3,0.4,0.6,0.8,1.1,1c0.5,0.3,1,0.4,1.5,0.4
	c0.8,0,1.5-0.3,2.1-0.8l0.5,0.5c-0.3,0.3-0.7,0.6-1.1,0.8c-0.4,0.2-0.9,0.3-1.4,0.3C210.7,243.5,210.1,243.3,209.5,243z"/>
<path class="st6" d="M216.3,242.7c-0.5-0.5-0.8-1.3-0.8-2.3v-4h0.7v4c0,0.8,0.2,1.4,0.6,1.8c0.4,0.4,0.9,0.6,1.6,0.6
	c0.7,0,1.2-0.2,1.6-0.6c0.4-0.4,0.5-1,0.5-1.8v-4h0.7v4c0,1-0.3,1.8-0.8,2.3c-0.5,0.5-1.2,0.8-2.1,0.8S216.8,243.2,216.3,242.7z"/>
<path class="st6" d="M224.8,237h-2.5v-0.6h5.7v0.6h-2.5v6.4h-0.7V237z"/>
<path class="st6" d="M229.2,236.4h0.7v7h-0.7V236.4z"/>
<path class="st6" d="M238.1,236.4l-3.1,7h-0.7l-3.1-7h0.8l2.7,6.1l2.7-6.1H238.1z"/>
<path class="st6" d="M244.2,242.8v0.6h-4.9v-7h4.8v0.6H240v2.5h3.6v0.6H240v2.6H244.2z"/>
<path class="st6" d="M246.3,243.2c-0.5-0.2-0.8-0.4-1.1-0.7l0.3-0.6c0.3,0.3,0.6,0.5,1,0.6c0.4,0.2,0.9,0.2,1.3,0.2
	c0.6,0,1.1-0.1,1.4-0.3s0.5-0.5,0.5-0.9c0-0.3-0.1-0.5-0.3-0.7c-0.2-0.2-0.4-0.3-0.6-0.4c-0.2-0.1-0.6-0.2-1-0.3
	c-0.5-0.1-0.9-0.3-1.3-0.4c-0.3-0.1-0.6-0.3-0.8-0.6c-0.2-0.3-0.3-0.6-0.3-1c0-0.4,0.1-0.7,0.3-1s0.5-0.5,0.9-0.7s0.9-0.3,1.4-0.3
	c0.4,0,0.8,0.1,1.2,0.2s0.7,0.3,1,0.5l-0.3,0.6c-0.3-0.2-0.6-0.3-0.9-0.4c-0.3-0.1-0.7-0.1-1-0.1c-0.6,0-1.1,0.1-1.4,0.4
	c-0.3,0.2-0.5,0.5-0.5,0.9c0,0.3,0.1,0.5,0.3,0.7s0.4,0.3,0.6,0.4c0.3,0.1,0.6,0.2,1,0.3c0.5,0.1,0.9,0.3,1.2,0.4
	c0.3,0.1,0.6,0.3,0.8,0.6c0.2,0.3,0.3,0.6,0.3,1c0,0.4-0.1,0.7-0.3,1c-0.2,0.3-0.5,0.5-0.9,0.7c-0.4,0.2-0.9,0.3-1.5,0.3
	C247.3,243.5,246.8,243.4,246.3,243.2z"/>
<path class="st6" d="M152.5,256.8v0.6h-4.9v-7h4.8v0.6h-4.1v2.5h3.6v0.6h-3.6v2.6H152.5z"/>
<path class="st6" d="M161.5,250.4v7h-0.7v-5.6l-2.8,4.7h-0.4l-2.8-4.7v5.6h-0.7v-7h0.6l3,5.2l3-5.2H161.5z"/>
<path class="st6" d="M169.2,254.4c0.3,0.3,0.4,0.7,0.4,1.1c0,0.6-0.2,1.1-0.7,1.4c-0.4,0.3-1.1,0.5-2,0.5h-3.2v-7h3
	c0.8,0,1.4,0.2,1.8,0.5c0.4,0.3,0.6,0.8,0.6,1.3c0,0.4-0.1,0.7-0.3,1s-0.5,0.5-0.8,0.6C168.6,253.9,169,254.1,169.2,254.4z
	 M164.5,251v2.5h2.2c0.6,0,1-0.1,1.3-0.3c0.3-0.2,0.5-0.5,0.5-0.9c0-0.4-0.2-0.7-0.5-0.9s-0.7-0.3-1.3-0.3H164.5z M168.4,256.5
	c0.3-0.2,0.5-0.5,0.5-1c0-0.9-0.6-1.3-1.9-1.3h-2.5v2.6h2.5C167.6,256.8,168.1,256.7,168.4,256.5z"/>
<path class="st6" d="M175.7,255.5h-3.9l-0.8,1.9h-0.8l3.2-7h0.7l3.2,7h-0.8L175.7,255.5z M175.4,254.9l-1.7-3.8l-1.7,3.8H175.4z"/>
<path class="st6" d="M178.9,257.2c-0.5-0.2-0.8-0.4-1.1-0.7l0.3-0.6c0.3,0.3,0.6,0.5,1,0.6c0.4,0.2,0.9,0.2,1.3,0.2
	c0.6,0,1.1-0.1,1.4-0.3s0.5-0.5,0.5-0.9c0-0.3-0.1-0.5-0.3-0.7c-0.2-0.2-0.4-0.3-0.6-0.4c-0.2-0.1-0.6-0.2-1-0.3
	c-0.5-0.1-0.9-0.3-1.3-0.4c-0.3-0.1-0.6-0.3-0.8-0.6c-0.2-0.3-0.3-0.6-0.3-1c0-0.4,0.1-0.7,0.3-1s0.5-0.5,0.9-0.7s0.9-0.3,1.4-0.3
	c0.4,0,0.8,0.1,1.2,0.2s0.7,0.3,1,0.5l-0.3,0.6c-0.3-0.2-0.6-0.3-0.9-0.4c-0.3-0.1-0.7-0.1-1-0.1c-0.6,0-1.1,0.1-1.4,0.4
	c-0.3,0.2-0.5,0.5-0.5,0.9c0,0.3,0.1,0.5,0.3,0.7s0.4,0.3,0.6,0.4c0.3,0.1,0.6,0.2,1,0.3c0.5,0.1,0.9,0.3,1.2,0.4
	c0.3,0.1,0.6,0.3,0.8,0.6c0.2,0.3,0.3,0.6,0.3,1c0,0.4-0.1,0.7-0.3,1c-0.2,0.3-0.5,0.5-0.9,0.7c-0.4,0.2-0.9,0.3-1.5,0.3
	C179.9,257.5,179.4,257.4,178.9,257.2z"/>
<path class="st6" d="M185.1,257.2c-0.5-0.2-0.8-0.4-1.1-0.7l0.3-0.6c0.3,0.3,0.6,0.5,1,0.6c0.4,0.2,0.9,0.2,1.3,0.2
	c0.6,0,1.1-0.1,1.4-0.3s0.5-0.5,0.5-0.9c0-0.3-0.1-0.5-0.3-0.7c-0.2-0.2-0.4-0.3-0.6-0.4c-0.2-0.1-0.6-0.2-1-0.3
	c-0.5-0.1-0.9-0.3-1.3-0.4c-0.3-0.1-0.6-0.3-0.8-0.6c-0.2-0.3-0.3-0.6-0.3-1c0-0.4,0.1-0.7,0.3-1s0.5-0.5,0.9-0.7s0.9-0.3,1.4-0.3
	c0.4,0,0.8,0.1,1.2,0.2s0.7,0.3,1,0.5l-0.3,0.6c-0.3-0.2-0.6-0.3-0.9-0.4c-0.3-0.1-0.7-0.1-1-0.1c-0.6,0-1.1,0.1-1.4,0.4
	c-0.3,0.2-0.5,0.5-0.5,0.9c0,0.3,0.1,0.5,0.3,0.7s0.4,0.3,0.6,0.4c0.3,0.1,0.6,0.2,1,0.3c0.5,0.1,0.9,0.3,1.2,0.4
	c0.3,0.1,0.6,0.3,0.8,0.6c0.2,0.3,0.3,0.6,0.3,1c0,0.4-0.1,0.7-0.3,1c-0.2,0.3-0.5,0.5-0.9,0.7c-0.4,0.2-0.9,0.3-1.5,0.3
	C186,257.5,185.5,257.4,185.1,257.2z"/>
<path class="st6" d="M195.2,255.5h-3.9l-0.8,1.9h-0.8l3.2-7h0.7l3.2,7H196L195.2,255.5z M194.9,254.9l-1.7-3.8l-1.7,3.8H194.9z"/>
<path class="st6" d="M197.9,250.4h2.9c0.7,0,1.4,0.1,2,0.4c0.6,0.3,1,0.7,1.3,1.2c0.3,0.5,0.5,1.1,0.5,1.8s-0.2,1.3-0.5,1.8
	c-0.3,0.5-0.8,0.9-1.3,1.2c-0.6,0.3-1.2,0.4-2,0.4h-2.9V250.4z M200.8,256.8c0.6,0,1.1-0.1,1.6-0.4s0.8-0.6,1.1-1
	c0.3-0.4,0.4-0.9,0.4-1.5s-0.1-1.1-0.4-1.5c-0.3-0.4-0.6-0.8-1.1-1c-0.5-0.2-1-0.4-1.6-0.4h-2.1v5.7H200.8z"/>
<path class="st6" d="M207.4,257c-0.6-0.3-1-0.7-1.3-1.3c-0.3-0.5-0.5-1.1-0.5-1.8s0.2-1.3,0.5-1.8c0.3-0.5,0.8-1,1.3-1.3
	c0.6-0.3,1.2-0.5,1.9-0.5c0.7,0,1.3,0.2,1.9,0.5c0.6,0.3,1,0.7,1.3,1.3c0.3,0.5,0.5,1.2,0.5,1.8s-0.2,1.3-0.5,1.8
	c-0.3,0.5-0.8,1-1.3,1.3c-0.6,0.3-1.2,0.5-1.9,0.5C208.6,257.5,207.9,257.3,207.4,257z M210.8,256.4c0.4-0.3,0.8-0.6,1-1
	s0.4-0.9,0.4-1.5c0-0.5-0.1-1-0.4-1.5s-0.6-0.8-1-1c-0.4-0.3-0.9-0.4-1.5-0.4c-0.6,0-1.1,0.1-1.5,0.4c-0.4,0.3-0.8,0.6-1.1,1
	c-0.3,0.4-0.4,0.9-0.4,1.5c0,0.5,0.1,1,0.4,1.5c0.3,0.4,0.6,0.8,1.1,1c0.5,0.3,1,0.4,1.5,0.4C209.8,256.8,210.3,256.7,210.8,256.4z"
	/>
<path class="st6" d="M219.4,257.4l-1.6-2.3c-0.2,0-0.4,0-0.6,0h-1.9v2.2h-0.7v-7h2.6c0.9,0,1.6,0.2,2.1,0.6c0.5,0.4,0.8,1,0.8,1.8
	c0,0.5-0.1,1-0.4,1.4c-0.3,0.4-0.7,0.6-1.2,0.8l1.7,2.4H219.4z M218.8,254.1c0.4-0.3,0.5-0.7,0.5-1.3c0-0.6-0.2-1-0.5-1.3
	c-0.4-0.3-0.9-0.5-1.6-0.5h-1.9v3.5h1.9C217.9,254.6,218.4,254.4,218.8,254.1z"/>
<path class="st6" d="M222.3,257.2c-0.5-0.2-0.8-0.4-1.1-0.7l0.3-0.6c0.3,0.3,0.6,0.5,1,0.6c0.4,0.2,0.9,0.2,1.3,0.2
	c0.6,0,1.1-0.1,1.4-0.3s0.5-0.5,0.5-0.9c0-0.3-0.1-0.5-0.3-0.7c-0.2-0.2-0.4-0.3-0.6-0.4c-0.2-0.1-0.6-0.2-1-0.3
	c-0.5-0.1-0.9-0.3-1.3-0.4c-0.3-0.1-0.6-0.3-0.8-0.6c-0.2-0.3-0.3-0.6-0.3-1c0-0.4,0.1-0.7,0.3-1s0.5-0.5,0.9-0.7s0.9-0.3,1.4-0.3
	c0.4,0,0.8,0.1,1.2,0.2s0.7,0.3,1,0.5l-0.3,0.6c-0.3-0.2-0.6-0.3-0.9-0.4c-0.3-0.1-0.7-0.1-1-0.1c-0.6,0-1.1,0.1-1.4,0.4
	c-0.3,0.2-0.5,0.5-0.5,0.9c0,0.3,0.1,0.5,0.3,0.7s0.4,0.3,0.6,0.4c0.3,0.1,0.6,0.2,1,0.3c0.5,0.1,0.9,0.3,1.2,0.4
	c0.3,0.1,0.6,0.3,0.8,0.6c0.2,0.3,0.3,0.6,0.3,1c0,0.4-0.1,0.7-0.3,1c-0.2,0.3-0.5,0.5-0.9,0.7c-0.4,0.2-0.9,0.3-1.5,0.3
	C223.2,257.5,222.7,257.4,222.3,257.2z"/>
<path class="st6" d="M151.1,264.4h0.7v7h-0.7V264.4z"/>
<path class="st6" d="M159.9,264.4v7h-0.6l-4.5-5.7v5.7h-0.7v-7h0.6l4.5,5.7v-5.7H159.9z"/>
<path class="st6" d="M163,265v2.8h3.6v0.6H163v3h-0.7v-7h4.8v0.6H163z"/>
<path class="st6" d="M168.5,264.4h0.7v6.4h3.9v0.6h-4.7V264.4z"/>
<path class="st6" d="M175.1,270.7c-0.5-0.5-0.8-1.3-0.8-2.3v-4h0.7v4c0,0.8,0.2,1.4,0.6,1.8c0.4,0.4,0.9,0.6,1.6,0.6
	c0.7,0,1.2-0.2,1.6-0.6c0.4-0.4,0.5-1,0.5-1.8v-4h0.7v4c0,1-0.3,1.8-0.8,2.3c-0.5,0.5-1.2,0.8-2.1,0.8S175.6,271.2,175.1,270.7z"/>
<path class="st6" d="M187.3,270.8v0.6h-4.9v-7h4.8v0.6h-4.1v2.5h3.6v0.6h-3.6v2.6H187.3z"/>
<path class="st6" d="M194.9,264.4v7h-0.6l-4.5-5.7v5.7H189v-7h0.6l4.5,5.7v-5.7H194.9z"/>
<path class="st6" d="M198.3,271c-0.6-0.3-1-0.7-1.3-1.3c-0.3-0.5-0.5-1.2-0.5-1.8s0.2-1.3,0.5-1.8c0.3-0.5,0.8-1,1.3-1.3
	s1.2-0.5,1.9-0.5c0.5,0,1,0.1,1.4,0.3s0.8,0.4,1.1,0.8l-0.5,0.5c-0.5-0.6-1.2-0.8-2.1-0.8c-0.6,0-1.1,0.1-1.5,0.4
	c-0.5,0.3-0.8,0.6-1.1,1c-0.3,0.4-0.4,0.9-0.4,1.5c0,0.5,0.1,1,0.4,1.5c0.3,0.4,0.6,0.8,1.1,1c0.5,0.3,1,0.4,1.5,0.4
	c0.8,0,1.5-0.3,2.1-0.8l0.5,0.5c-0.3,0.3-0.7,0.6-1.1,0.8c-0.4,0.2-0.9,0.3-1.4,0.3C199.5,271.5,198.9,271.3,198.3,271z"/>
<path class="st6" d="M209.3,270.8v0.6h-4.9v-7h4.8v0.6h-4.1v2.5h3.6v0.6h-3.6v2.6H209.3z"/>
<path class="st6" d="M215.8,271.4l-1.6-2.3c-0.2,0-0.4,0-0.6,0h-1.9v2.2h-0.7v-7h2.6c0.9,0,1.6,0.2,2.1,0.6c0.5,0.4,0.8,1,0.8,1.8
	c0,0.5-0.1,1-0.4,1.4c-0.3,0.4-0.7,0.6-1.2,0.8l1.7,2.4H215.8z M215.2,268.1c0.4-0.3,0.5-0.7,0.5-1.3c0-0.6-0.2-1-0.5-1.3
	c-0.4-0.3-0.9-0.5-1.6-0.5h-1.9v3.5h1.9C214.3,268.6,214.9,268.4,215.2,268.1z"/>
<path class="st6" d="M218.7,271.2c-0.5-0.2-0.8-0.4-1.1-0.7l0.3-0.6c0.3,0.3,0.6,0.5,1,0.6c0.4,0.2,0.9,0.2,1.3,0.2
	c0.6,0,1.1-0.1,1.4-0.3s0.5-0.5,0.5-0.9c0-0.3-0.1-0.5-0.3-0.7c-0.2-0.2-0.4-0.3-0.6-0.4c-0.2-0.1-0.6-0.2-1-0.3
	c-0.5-0.1-0.9-0.3-1.3-0.4c-0.3-0.1-0.6-0.3-0.8-0.6c-0.2-0.3-0.3-0.6-0.3-1c0-0.4,0.1-0.7,0.3-1s0.5-0.5,0.9-0.7s0.9-0.3,1.4-0.3
	c0.4,0,0.8,0.1,1.2,0.2s0.7,0.3,1,0.5l-0.3,0.6c-0.3-0.2-0.6-0.3-0.9-0.4c-0.3-0.1-0.7-0.1-1-0.1c-0.6,0-1.1,0.1-1.4,0.4
	c-0.3,0.2-0.5,0.5-0.5,0.9c0,0.3,0.1,0.5,0.3,0.7s0.4,0.3,0.6,0.4c0.3,0.1,0.6,0.2,1,0.3c0.5,0.1,0.9,0.3,1.2,0.4
	c0.3,0.1,0.6,0.3,0.8,0.6c0.2,0.3,0.3,0.6,0.3,1c0,0.4-0.1,0.7-0.3,1c-0.2,0.3-0.5,0.5-0.9,0.7c-0.4,0.2-0.9,0.3-1.5,0.3
	C219.7,271.5,219.2,271.4,218.7,271.2z"/>
<path class="st6" d="M160.3,284.8v0.6h-4.9v-7h4.8v0.6h-4.1v2.5h3.6v0.6h-3.6v2.6H160.3z"/>
<path class="st6" d="M162.1,278.4h2.9c0.7,0,1.4,0.1,2,0.4c0.6,0.3,1,0.7,1.3,1.2c0.3,0.5,0.5,1.1,0.5,1.8s-0.2,1.3-0.5,1.8
	c-0.3,0.5-0.8,0.9-1.3,1.2c-0.6,0.3-1.2,0.4-2,0.4h-2.9V278.4z M164.9,284.8c0.6,0,1.1-0.1,1.6-0.4s0.8-0.6,1.1-1
	c0.3-0.4,0.4-0.9,0.4-1.5s-0.1-1.1-0.4-1.5c-0.3-0.4-0.6-0.8-1.1-1c-0.5-0.2-1-0.4-1.6-0.4h-2.1v5.7H164.9z"/>
<path class="st6" d="M171,284.7c-0.5-0.5-0.8-1.3-0.8-2.3v-4h0.7v4c0,0.8,0.2,1.4,0.6,1.8c0.4,0.4,0.9,0.6,1.6,0.6
	c0.7,0,1.2-0.2,1.6-0.6c0.4-0.4,0.5-1,0.5-1.8v-4h0.7v4c0,1-0.3,1.8-0.8,2.3c-0.5,0.5-1.2,0.8-2.1,0.8S171.5,285.2,171,284.7z"/>
<path class="st6" d="M179.4,285c-0.6-0.3-1-0.7-1.3-1.3c-0.3-0.5-0.5-1.2-0.5-1.8s0.2-1.3,0.5-1.8c0.3-0.5,0.8-1,1.3-1.3
	s1.2-0.5,1.9-0.5c0.5,0,1,0.1,1.4,0.3s0.8,0.4,1.1,0.8l-0.5,0.5c-0.5-0.6-1.2-0.8-2.1-0.8c-0.6,0-1.1,0.1-1.5,0.4
	c-0.5,0.3-0.8,0.6-1.1,1c-0.3,0.4-0.4,0.9-0.4,1.5c0,0.5,0.1,1,0.4,1.5c0.3,0.4,0.6,0.8,1.1,1c0.5,0.3,1,0.4,1.5,0.4
	c0.8,0,1.5-0.3,2.1-0.8l0.5,0.5c-0.3,0.3-0.7,0.6-1.1,0.8c-0.4,0.2-0.9,0.3-1.4,0.3C180.6,285.5,180,285.3,179.4,285z"/>
<path class="st6" d="M189.8,283.5h-3.9l-0.8,1.9h-0.8l3.2-7h0.7l3.2,7h-0.8L189.8,283.5z M189.6,282.9l-1.7-3.8l-1.7,3.8H189.6z"/>
<path class="st6" d="M194,279h-2.5v-0.6h5.7v0.6h-2.5v6.4H194V279z"/>
<path class="st6" d="M199.5,285c-0.6-0.3-1-0.7-1.3-1.3c-0.3-0.5-0.5-1.1-0.5-1.8s0.2-1.3,0.5-1.8c0.3-0.5,0.8-1,1.3-1.3
	c0.6-0.3,1.2-0.5,1.9-0.5c0.7,0,1.3,0.2,1.9,0.5c0.6,0.3,1,0.7,1.3,1.3c0.3,0.5,0.5,1.2,0.5,1.8s-0.2,1.3-0.5,1.8
	c-0.3,0.5-0.8,1-1.3,1.3c-0.6,0.3-1.2,0.5-1.9,0.5C200.7,285.5,200.1,285.3,199.5,285z M202.9,284.4c0.4-0.3,0.8-0.6,1-1
	s0.4-0.9,0.4-1.5c0-0.5-0.1-1-0.4-1.5s-0.6-0.8-1-1c-0.4-0.3-0.9-0.4-1.5-0.4c-0.6,0-1.1,0.1-1.5,0.4c-0.4,0.3-0.8,0.6-1.1,1
	c-0.3,0.4-0.4,0.9-0.4,1.5c0,0.5,0.1,1,0.4,1.5c0.3,0.4,0.6,0.8,1.1,1c0.5,0.3,1,0.4,1.5,0.4C202,284.8,202.5,284.7,202.9,284.4z"/>
<path class="st6" d="M211.5,285.4l-1.6-2.3c-0.2,0-0.4,0-0.6,0h-1.9v2.2h-0.7v-7h2.6c0.9,0,1.6,0.2,2.1,0.6c0.5,0.4,0.8,1,0.8,1.8
	c0,0.5-0.1,1-0.4,1.4c-0.3,0.4-0.7,0.6-1.2,0.8l1.7,2.4H211.5z M210.9,282.1c0.4-0.3,0.5-0.7,0.5-1.3c0-0.6-0.2-1-0.5-1.3
	c-0.4-0.3-0.9-0.5-1.6-0.5h-1.9v3.5h1.9C210,282.6,210.6,282.4,210.9,282.1z"/>
<path class="st6" d="M214.4,285.2c-0.5-0.2-0.8-0.4-1.1-0.7l0.3-0.6c0.3,0.3,0.6,0.5,1,0.6c0.4,0.2,0.9,0.2,1.3,0.2
	c0.6,0,1.1-0.1,1.4-0.3s0.5-0.5,0.5-0.9c0-0.3-0.1-0.5-0.3-0.7c-0.2-0.2-0.4-0.3-0.6-0.4c-0.2-0.1-0.6-0.2-1-0.3
	c-0.5-0.1-0.9-0.3-1.3-0.4c-0.3-0.1-0.6-0.3-0.8-0.6c-0.2-0.3-0.3-0.6-0.3-1c0-0.4,0.1-0.7,0.3-1s0.5-0.5,0.9-0.7s0.9-0.3,1.4-0.3
	c0.4,0,0.8,0.1,1.2,0.2s0.7,0.3,1,0.5l-0.3,0.6c-0.3-0.2-0.6-0.3-0.9-0.4c-0.3-0.1-0.7-0.1-1-0.1c-0.6,0-1.1,0.1-1.4,0.4
	c-0.3,0.2-0.5,0.5-0.5,0.9c0,0.3,0.1,0.5,0.3,0.7s0.4,0.3,0.6,0.4c0.3,0.1,0.6,0.2,1,0.3c0.5,0.1,0.9,0.3,1.2,0.4
	c0.3,0.1,0.6,0.3,0.8,0.6c0.2,0.3,0.3,0.6,0.3,1c0,0.4-0.1,0.7-0.3,1c-0.2,0.3-0.5,0.5-0.9,0.7c-0.4,0.2-0.9,0.3-1.5,0.3
	C215.4,285.5,214.9,285.4,214.4,285.2z"/>
<path class="st6" d="M115.7,293v2.8h3.6v0.6h-3.6v3H115v-7h4.8v0.6H115.7z"/>
<path class="st6" d="M121.3,292.4h0.7v7h-0.7V292.4z"/>
<path class="st6" d="M130.2,292.4v7h-0.6l-4.5-5.7v5.7h-0.7v-7h0.6l4.5,5.7v-5.7H130.2z"/>
<path class="st6" d="M136.8,297.5h-3.9l-0.8,1.9h-0.8l3.2-7h0.7l3.2,7h-0.8L136.8,297.5z M136.6,296.9l-1.7-3.8l-1.7,3.8H136.6z"/>
<path class="st6" d="M145.5,292.4v7h-0.6l-4.5-5.7v5.7h-0.7v-7h0.6l4.5,5.7v-5.7H145.5z"/>
<path class="st6" d="M148.9,299c-0.6-0.3-1-0.7-1.3-1.3c-0.3-0.5-0.5-1.2-0.5-1.8s0.2-1.3,0.5-1.8c0.3-0.5,0.8-1,1.3-1.3
	s1.2-0.5,1.9-0.5c0.5,0,1,0.1,1.4,0.3s0.8,0.4,1.1,0.8l-0.5,0.5c-0.5-0.6-1.2-0.8-2.1-0.8c-0.6,0-1.1,0.1-1.5,0.4
	c-0.5,0.3-0.8,0.6-1.1,1c-0.3,0.4-0.4,0.9-0.4,1.5c0,0.5,0.1,1,0.4,1.5c0.3,0.4,0.6,0.8,1.1,1c0.5,0.3,1,0.4,1.5,0.4
	c0.8,0,1.5-0.3,2.1-0.8l0.5,0.5c-0.3,0.3-0.7,0.6-1.1,0.8s-0.9,0.3-1.4,0.3C150.1,299.5,149.5,299.3,148.9,299z"/>
<path class="st6" d="M154.9,292.4h0.7v7h-0.7V292.4z"/>
<path class="st6" d="M162.4,297.5h-3.9l-0.8,1.9h-0.8l3.2-7h0.7l3.2,7h-0.8L162.4,297.5z M162.1,296.9l-1.7-3.8l-1.7,3.8H162.1z"/>
<path class="st6" d="M165.1,292.4h0.7v6.4h3.9v0.6h-4.7V292.4z"/>
<path class="st6" d="M178.4,293c0.5,0.4,0.8,1,0.8,1.8s-0.3,1.3-0.8,1.8c-0.5,0.4-1.2,0.6-2.1,0.6h-1.9v2.2h-0.7v-7h2.6
	C177.2,292.4,177.9,292.6,178.4,293z M177.8,296.1c0.4-0.3,0.5-0.7,0.5-1.3c0-0.6-0.2-1-0.5-1.3c-0.4-0.3-0.9-0.5-1.6-0.5h-1.9v3.5
	h1.9C176.9,296.5,177.5,296.4,177.8,296.1z"/>
<path class="st6" d="M185.6,299.4l-1.6-2.3c-0.2,0-0.4,0-0.6,0h-1.9v2.2h-0.7v-7h2.6c0.9,0,1.6,0.2,2.1,0.6c0.5,0.4,0.8,1,0.8,1.8
	c0,0.5-0.1,1-0.4,1.4c-0.3,0.4-0.7,0.6-1.2,0.8l1.7,2.4H185.6z M185,296.1c0.4-0.3,0.5-0.7,0.5-1.3c0-0.6-0.2-1-0.5-1.3
	c-0.4-0.3-0.9-0.5-1.6-0.5h-1.9v3.5h1.9C184.1,296.6,184.7,296.4,185,296.1z"/>
<path class="st6" d="M189.2,299c-0.6-0.3-1-0.7-1.3-1.3c-0.3-0.5-0.5-1.1-0.5-1.8s0.2-1.3,0.5-1.8c0.3-0.5,0.8-1,1.3-1.3
	c0.6-0.3,1.2-0.5,1.9-0.5c0.7,0,1.3,0.2,1.9,0.5c0.6,0.3,1,0.7,1.3,1.3c0.3,0.5,0.5,1.2,0.5,1.8s-0.2,1.3-0.5,1.8
	c-0.3,0.5-0.8,1-1.3,1.3c-0.6,0.3-1.2,0.5-1.9,0.5C190.4,299.5,189.8,299.3,189.2,299z M192.6,298.4c0.4-0.3,0.8-0.6,1-1
	s0.4-0.9,0.4-1.5c0-0.5-0.1-1-0.4-1.5s-0.6-0.8-1-1c-0.4-0.3-0.9-0.4-1.5-0.4c-0.6,0-1.1,0.1-1.5,0.4c-0.4,0.3-0.8,0.6-1.1,1
	c-0.3,0.4-0.4,0.9-0.4,1.5c0,0.5,0.1,1,0.4,1.5c0.3,0.4,0.6,0.8,1.1,1c0.5,0.3,1,0.4,1.5,0.4C191.7,298.8,192.2,298.7,192.6,298.4z"
	/>
<path class="st6" d="M197.2,293v2.8h3.6v0.6h-3.6v3h-0.7v-7h4.8v0.6H197.2z"/>
<path class="st6" d="M207.7,298.8v0.6h-4.9v-7h4.8v0.6h-4.1v2.5h3.6v0.6h-3.6v2.6H207.7z"/>
<path class="st6" d="M209.9,299.2c-0.5-0.2-0.8-0.4-1.1-0.7l0.3-0.6c0.3,0.3,0.6,0.5,1,0.6c0.4,0.2,0.9,0.2,1.3,0.2
	c0.6,0,1.1-0.1,1.4-0.3s0.5-0.5,0.5-0.9c0-0.3-0.1-0.5-0.3-0.7c-0.2-0.2-0.4-0.3-0.6-0.4c-0.2-0.1-0.6-0.2-1-0.3
	c-0.5-0.1-0.9-0.3-1.3-0.4c-0.3-0.1-0.6-0.3-0.8-0.6c-0.2-0.3-0.3-0.6-0.3-1c0-0.4,0.1-0.7,0.3-1s0.5-0.5,0.9-0.7s0.9-0.3,1.4-0.3
	c0.4,0,0.8,0.1,1.2,0.2s0.7,0.3,1,0.5l-0.3,0.6c-0.3-0.2-0.6-0.3-0.9-0.4c-0.3-0.1-0.7-0.1-1-0.1c-0.6,0-1.1,0.1-1.4,0.4
	c-0.3,0.2-0.5,0.5-0.5,0.9c0,0.3,0.1,0.5,0.3,0.7s0.4,0.3,0.6,0.4c0.3,0.1,0.6,0.2,1,0.3c0.5,0.1,0.9,0.3,1.2,0.4
	c0.3,0.1,0.6,0.3,0.8,0.6c0.2,0.3,0.3,0.6,0.3,1c0,0.4-0.1,0.7-0.3,1c-0.2,0.3-0.5,0.5-0.9,0.7c-0.4,0.2-0.9,0.3-1.5,0.3
	C210.9,299.5,210.4,299.4,209.9,299.2z"/>
<path class="st6" d="M216.1,299.2c-0.5-0.2-0.8-0.4-1.1-0.7l0.3-0.6c0.3,0.3,0.6,0.5,1,0.6c0.4,0.2,0.9,0.2,1.3,0.2
	c0.6,0,1.1-0.1,1.4-0.3s0.5-0.5,0.5-0.9c0-0.3-0.1-0.5-0.3-0.7c-0.2-0.2-0.4-0.3-0.6-0.4c-0.2-0.1-0.6-0.2-1-0.3
	c-0.5-0.1-0.9-0.3-1.3-0.4c-0.3-0.1-0.6-0.3-0.8-0.6c-0.2-0.3-0.3-0.6-0.3-1c0-0.4,0.1-0.7,0.3-1s0.5-0.5,0.9-0.7s0.9-0.3,1.4-0.3
	c0.4,0,0.8,0.1,1.2,0.2s0.7,0.3,1,0.5l-0.3,0.6c-0.3-0.2-0.6-0.3-0.9-0.4c-0.3-0.1-0.7-0.1-1-0.1c-0.6,0-1.1,0.1-1.4,0.4
	c-0.3,0.2-0.5,0.5-0.5,0.9c0,0.3,0.1,0.5,0.3,0.7s0.4,0.3,0.6,0.4c0.3,0.1,0.6,0.2,1,0.3c0.5,0.1,0.9,0.3,1.2,0.4
	c0.3,0.1,0.6,0.3,0.8,0.6c0.2,0.3,0.3,0.6,0.3,1c0,0.4-0.1,0.7-0.3,1c-0.2,0.3-0.5,0.5-0.9,0.7c-0.4,0.2-0.9,0.3-1.5,0.3
	C217,299.5,216.5,299.4,216.1,299.2z"/>
<path class="st6" d="M221.8,292.4h0.7v7h-0.7V292.4z"/>
<path class="st6" d="M226,299c-0.6-0.3-1-0.7-1.3-1.3c-0.3-0.5-0.5-1.1-0.5-1.8s0.2-1.3,0.5-1.8c0.3-0.5,0.8-1,1.3-1.3
	c0.6-0.3,1.2-0.5,1.9-0.5c0.7,0,1.3,0.2,1.9,0.5c0.6,0.3,1,0.7,1.3,1.3c0.3,0.5,0.5,1.2,0.5,1.8s-0.2,1.3-0.5,1.8
	c-0.3,0.5-0.8,1-1.3,1.3c-0.6,0.3-1.2,0.5-1.9,0.5C227.2,299.5,226.5,299.3,226,299z M229.3,298.4c0.4-0.3,0.8-0.6,1-1
	s0.4-0.9,0.4-1.5c0-0.5-0.1-1-0.4-1.5s-0.6-0.8-1-1c-0.4-0.3-0.9-0.4-1.5-0.4c-0.6,0-1.1,0.1-1.5,0.4c-0.4,0.3-0.8,0.6-1.1,1
	c-0.3,0.4-0.4,0.9-0.4,1.5c0,0.5,0.1,1,0.4,1.5c0.3,0.4,0.6,0.8,1.1,1c0.5,0.3,1,0.4,1.5,0.4C228.4,298.8,228.9,298.7,229.3,298.4z"
	/>
<path class="st6" d="M239,292.4v7h-0.6l-4.5-5.7v5.7h-0.7v-7h0.6l4.5,5.7v-5.7H239z"/>
<path class="st6" d="M245.7,297.5h-3.9l-0.8,1.9h-0.8l3.2-7h0.7l3.2,7h-0.8L245.7,297.5z M245.4,296.9l-1.7-3.8l-1.7,3.8H245.4z"/>
<path class="st6" d="M248.5,292.4h0.7v6.4h3.9v0.6h-4.7V292.4z"/>
<path class="st6" d="M254.8,299.2c-0.5-0.2-0.8-0.4-1.1-0.7l0.3-0.6c0.3,0.3,0.6,0.5,1,0.6c0.4,0.2,0.9,0.2,1.3,0.2
	c0.6,0,1.1-0.1,1.4-0.3s0.5-0.5,0.5-0.9c0-0.3-0.1-0.5-0.3-0.7c-0.2-0.2-0.4-0.3-0.6-0.4c-0.2-0.1-0.6-0.2-1-0.3
	c-0.5-0.1-0.9-0.3-1.3-0.4c-0.3-0.1-0.6-0.3-0.8-0.6c-0.2-0.3-0.3-0.6-0.3-1c0-0.4,0.1-0.7,0.3-1s0.5-0.5,0.9-0.7s0.9-0.3,1.4-0.3
	c0.4,0,0.8,0.1,1.2,0.2s0.7,0.3,1,0.5l-0.3,0.6c-0.3-0.2-0.6-0.3-0.9-0.4c-0.3-0.1-0.7-0.1-1-0.1c-0.6,0-1.1,0.1-1.4,0.4
	c-0.3,0.2-0.5,0.5-0.5,0.9c0,0.3,0.1,0.5,0.3,0.7s0.4,0.3,0.6,0.4c0.3,0.1,0.6,0.2,1,0.3c0.5,0.1,0.9,0.3,1.2,0.4
	c0.3,0.1,0.6,0.3,0.8,0.6c0.2,0.3,0.3,0.6,0.3,1c0,0.4-0.1,0.7-0.3,1c-0.2,0.3-0.5,0.5-0.9,0.7c-0.4,0.2-0.9,0.3-1.5,0.3
	C255.8,299.5,255.3,299.4,254.8,299.2z"/>
<path class="st6" d="M126.3,306.4h0.7v6.4h3.9v0.6h-4.7V306.4z"/>
<path class="st6" d="M137.2,312.8v0.6h-4.9v-7h4.8v0.6h-4.1v2.5h3.6v0.6h-3.6v2.6H137.2z"/>
<path class="st6" d="M143.8,309.9h0.7v2.7c-0.3,0.3-0.7,0.5-1.2,0.7c-0.4,0.2-0.9,0.2-1.4,0.2c-0.7,0-1.3-0.2-1.9-0.5
	s-1-0.7-1.3-1.3c-0.3-0.5-0.5-1.2-0.5-1.8c0-0.7,0.2-1.3,0.5-1.8c0.3-0.5,0.8-1,1.3-1.3s1.2-0.5,1.9-0.5c0.5,0,1,0.1,1.5,0.3
	s0.8,0.4,1.1,0.8l-0.5,0.5c-0.6-0.5-1.3-0.8-2.1-0.8c-0.6,0-1.1,0.1-1.5,0.4s-0.8,0.6-1.1,1c-0.3,0.4-0.4,0.9-0.4,1.5s0.1,1,0.4,1.5
	c0.3,0.4,0.6,0.8,1.1,1c0.5,0.3,1,0.4,1.5,0.4c0.7,0,1.3-0.2,1.8-0.5V309.9z"/>
<path class="st6" d="M151,311.5h-3.9l-0.8,1.9h-0.8l3.2-7h0.7l3.2,7h-0.8L151,311.5z M150.7,310.9l-1.7-3.8l-1.7,3.8H150.7z"/>
<path class="st6" d="M153.8,306.4h0.7v6.4h3.9v0.6h-4.7V306.4z"/>
<path class="st6" d="M167,307c0.5,0.4,0.8,1,0.8,1.8c0,0.7-0.3,1.3-0.8,1.8c-0.5,0.4-1.2,0.6-2.1,0.6H163v2.2h-0.7v-7h2.6
	C165.8,306.4,166.5,306.6,167,307z M166.5,310.1c0.4-0.3,0.5-0.7,0.5-1.3c0-0.6-0.2-1-0.5-1.3c-0.4-0.3-0.9-0.5-1.6-0.5H163v3.5h1.9
	C165.6,310.5,166.1,310.4,166.5,310.1z"/>
<path class="st6" d="M174.3,313.4l-1.6-2.3c-0.2,0-0.4,0-0.6,0h-1.9v2.2h-0.7v-7h2.6c0.9,0,1.6,0.2,2.1,0.6c0.5,0.4,0.8,1,0.8,1.8
	c0,0.5-0.1,1-0.4,1.4c-0.3,0.4-0.7,0.6-1.2,0.8l1.7,2.4H174.3z M173.7,310.1c0.4-0.3,0.5-0.7,0.5-1.3c0-0.6-0.2-1-0.5-1.3
	c-0.4-0.3-0.9-0.5-1.6-0.5h-1.9v3.5h1.9C172.8,310.6,173.3,310.4,173.7,310.1z"/>
<path class="st6" d="M177.9,313c-0.6-0.3-1-0.7-1.3-1.3c-0.3-0.5-0.5-1.1-0.5-1.8c0-0.7,0.2-1.3,0.5-1.8c0.3-0.5,0.8-1,1.3-1.3
	c0.6-0.3,1.2-0.5,1.9-0.5c0.7,0,1.3,0.2,1.9,0.5c0.6,0.3,1,0.7,1.3,1.3c0.3,0.5,0.5,1.2,0.5,1.8c0,0.7-0.2,1.3-0.5,1.8
	c-0.3,0.5-0.8,1-1.3,1.3c-0.6,0.3-1.2,0.5-1.9,0.5C179.1,313.5,178.5,313.3,177.9,313z M181.3,312.4c0.4-0.3,0.8-0.6,1-1
	c0.3-0.4,0.4-0.9,0.4-1.5s-0.1-1-0.4-1.5s-0.6-0.8-1-1c-0.4-0.3-0.9-0.4-1.5-0.4c-0.6,0-1.1,0.1-1.5,0.4c-0.4,0.3-0.8,0.6-1.1,1
	c-0.3,0.4-0.4,0.9-0.4,1.5s0.1,1,0.4,1.5c0.3,0.4,0.6,0.8,1.1,1c0.5,0.3,1,0.4,1.5,0.4C180.3,312.8,180.8,312.7,181.3,312.4z"/>
<path class="st6" d="M185.8,307v2.8h3.6v0.6h-3.6v3h-0.7v-7h4.8v0.6H185.8z"/>
<path class="st6" d="M196.4,312.8v0.6h-4.9v-7h4.8v0.6h-4.1v2.5h3.6v0.6h-3.6v2.6H196.4z"/>
<path class="st6" d="M198.6,313.2c-0.5-0.2-0.8-0.4-1.1-0.7l0.3-0.6c0.3,0.3,0.6,0.5,1,0.6c0.4,0.2,0.9,0.2,1.3,0.2
	c0.6,0,1.1-0.1,1.4-0.3c0.3-0.2,0.5-0.5,0.5-0.9c0-0.3-0.1-0.5-0.3-0.7c-0.2-0.2-0.4-0.3-0.6-0.4s-0.6-0.2-1-0.3
	c-0.5-0.1-0.9-0.3-1.3-0.4c-0.3-0.1-0.6-0.3-0.8-0.6c-0.2-0.3-0.3-0.6-0.3-1c0-0.4,0.1-0.7,0.3-1c0.2-0.3,0.5-0.5,0.9-0.7
	c0.4-0.2,0.9-0.3,1.4-0.3c0.4,0,0.8,0.1,1.2,0.2c0.4,0.1,0.7,0.3,1,0.5l-0.3,0.6c-0.3-0.2-0.6-0.3-0.9-0.4c-0.3-0.1-0.7-0.1-1-0.1
	c-0.6,0-1.1,0.1-1.4,0.4c-0.3,0.2-0.5,0.5-0.5,0.9c0,0.3,0.1,0.5,0.3,0.7s0.4,0.3,0.6,0.4c0.3,0.1,0.6,0.2,1,0.3
	c0.5,0.1,0.9,0.3,1.2,0.4s0.6,0.3,0.8,0.6c0.2,0.3,0.3,0.6,0.3,1c0,0.4-0.1,0.7-0.3,1s-0.5,0.5-0.9,0.7c-0.4,0.2-0.9,0.3-1.5,0.3
	C199.5,313.5,199,313.4,198.6,313.2z"/>
<path class="st6" d="M204.7,313.2c-0.5-0.2-0.8-0.4-1.1-0.7l0.3-0.6c0.3,0.3,0.6,0.5,1,0.6c0.4,0.2,0.9,0.2,1.3,0.2
	c0.6,0,1.1-0.1,1.4-0.3c0.3-0.2,0.5-0.5,0.5-0.9c0-0.3-0.1-0.5-0.3-0.7c-0.2-0.2-0.4-0.3-0.6-0.4s-0.6-0.2-1-0.3
	c-0.5-0.1-0.9-0.3-1.3-0.4c-0.3-0.1-0.6-0.3-0.8-0.6c-0.2-0.3-0.3-0.6-0.3-1c0-0.4,0.1-0.7,0.3-1c0.2-0.3,0.5-0.5,0.9-0.7
	c0.4-0.2,0.9-0.3,1.4-0.3c0.4,0,0.8,0.1,1.2,0.2c0.4,0.1,0.7,0.3,1,0.5l-0.3,0.6c-0.3-0.2-0.6-0.3-0.9-0.4c-0.3-0.1-0.7-0.1-1-0.1
	c-0.6,0-1.1,0.1-1.4,0.4c-0.3,0.2-0.5,0.5-0.5,0.9c0,0.3,0.1,0.5,0.3,0.7s0.4,0.3,0.6,0.4c0.3,0.1,0.6,0.2,1,0.3
	c0.5,0.1,0.9,0.3,1.2,0.4s0.6,0.3,0.8,0.6c0.2,0.3,0.3,0.6,0.3,1c0,0.4-0.1,0.7-0.3,1s-0.5,0.5-0.9,0.7c-0.4,0.2-0.9,0.3-1.5,0.3
	C205.7,313.5,205.2,313.4,204.7,313.2z"/>
<path class="st6" d="M210.4,306.4h0.7v7h-0.7V306.4z"/>
<path class="st6" d="M214.6,313c-0.6-0.3-1-0.7-1.3-1.3c-0.3-0.5-0.5-1.1-0.5-1.8c0-0.7,0.2-1.3,0.5-1.8c0.3-0.5,0.8-1,1.3-1.3
	c0.6-0.3,1.2-0.5,1.9-0.5c0.7,0,1.3,0.2,1.9,0.5c0.6,0.3,1,0.7,1.3,1.3c0.3,0.5,0.5,1.2,0.5,1.8c0,0.7-0.2,1.3-0.5,1.8
	c-0.3,0.5-0.8,1-1.3,1.3c-0.6,0.3-1.2,0.5-1.9,0.5C215.8,313.5,215.2,313.3,214.6,313z M218,312.4c0.4-0.3,0.8-0.6,1-1
	c0.3-0.4,0.4-0.9,0.4-1.5s-0.1-1-0.4-1.5s-0.6-0.8-1-1c-0.4-0.3-0.9-0.4-1.5-0.4c-0.6,0-1.1,0.1-1.5,0.4c-0.4,0.3-0.8,0.6-1.1,1
	c-0.3,0.4-0.4,0.9-0.4,1.5s0.1,1,0.4,1.5c0.3,0.4,0.6,0.8,1.1,1c0.5,0.3,1,0.4,1.5,0.4C217.1,312.8,217.6,312.7,218,312.4z"/>
<path class="st6" d="M227.7,306.4v7h-0.6l-4.5-5.7v5.7h-0.7v-7h0.6l4.5,5.7v-5.7H227.7z"/>
<path class="st6" d="M234.4,311.5h-3.9l-0.8,1.9h-0.8l3.2-7h0.7l3.2,7h-0.8L234.4,311.5z M234.1,310.9l-1.7-3.8l-1.7,3.8H234.1z"/>
<path class="st6" d="M237.1,306.4h0.7v6.4h3.9v0.6h-4.7V306.4z"/>
<path class="st6" d="M243.5,313.2c-0.5-0.2-0.8-0.4-1.1-0.7l0.3-0.6c0.3,0.3,0.6,0.5,1,0.6c0.4,0.2,0.9,0.2,1.3,0.2
	c0.6,0,1.1-0.1,1.4-0.3c0.3-0.2,0.5-0.5,0.5-0.9c0-0.3-0.1-0.5-0.3-0.7c-0.2-0.2-0.4-0.3-0.6-0.4s-0.6-0.2-1-0.3
	c-0.5-0.1-0.9-0.3-1.3-0.4c-0.3-0.1-0.6-0.3-0.8-0.6c-0.2-0.3-0.3-0.6-0.3-1c0-0.4,0.1-0.7,0.3-1c0.2-0.3,0.5-0.5,0.9-0.7
	c0.4-0.2,0.9-0.3,1.4-0.3c0.4,0,0.8,0.1,1.2,0.2c0.4,0.1,0.7,0.3,1,0.5l-0.3,0.6c-0.3-0.2-0.6-0.3-0.9-0.4c-0.3-0.1-0.7-0.1-1-0.1
	c-0.6,0-1.1,0.1-1.4,0.4c-0.3,0.2-0.5,0.5-0.5,0.9c0,0.3,0.1,0.5,0.3,0.7s0.4,0.3,0.6,0.4c0.3,0.1,0.6,0.2,1,0.3
	c0.5,0.1,0.9,0.3,1.2,0.4s0.6,0.3,0.8,0.6c0.2,0.3,0.3,0.6,0.3,1c0,0.4-0.1,0.7-0.3,1s-0.5,0.5-0.9,0.7c-0.4,0.2-0.9,0.3-1.5,0.3
	C244.4,313.5,243.9,313.4,243.5,313.2z"/>
<path class="st6" d="M160,321c0.5,0.4,0.8,1,0.8,1.8c0,0.7-0.3,1.3-0.8,1.8c-0.5,0.4-1.2,0.6-2.1,0.6H156v2.2h-0.7v-7h2.6
	C158.8,320.4,159.5,320.6,160,321z M159.5,324.1c0.4-0.3,0.5-0.7,0.5-1.3c0-0.6-0.2-1-0.5-1.3c-0.4-0.3-0.9-0.5-1.6-0.5H156v3.5h1.9
	C158.6,324.5,159.1,324.4,159.5,324.1z"/>
<path class="st6" d="M163.7,327c-0.6-0.3-1-0.7-1.3-1.3c-0.3-0.5-0.5-1.1-0.5-1.8c0-0.7,0.2-1.3,0.5-1.8c0.3-0.5,0.8-1,1.3-1.3
	c0.6-0.3,1.2-0.5,1.9-0.5c0.7,0,1.3,0.2,1.9,0.5c0.6,0.3,1,0.7,1.3,1.3c0.3,0.5,0.5,1.2,0.5,1.8c0,0.7-0.2,1.3-0.5,1.8
	c-0.3,0.5-0.8,1-1.3,1.3c-0.6,0.3-1.2,0.5-1.9,0.5C164.8,327.5,164.2,327.3,163.7,327z M167,326.4c0.4-0.3,0.8-0.6,1-1
	s0.4-0.9,0.4-1.5s-0.1-1-0.4-1.5s-0.6-0.8-1-1c-0.4-0.3-0.9-0.4-1.5-0.4c-0.6,0-1.1,0.1-1.5,0.4c-0.4,0.3-0.8,0.6-1.1,1
	c-0.3,0.4-0.4,0.9-0.4,1.5s0.1,1,0.4,1.5c0.3,0.4,0.6,0.8,1.1,1c0.5,0.3,1,0.4,1.5,0.4C166.1,326.8,166.6,326.7,167,326.4z"/>
<path class="st6" d="M170.9,320.4h0.7v6.4h3.9v0.6h-4.7V320.4z"/>
<path class="st6" d="M176.8,320.4h0.7v7h-0.7V320.4z"/>
<path class="st6" d="M181.1,321h-2.5v-0.6h5.7v0.6h-2.5v6.4h-0.7V321z"/>
<path class="st6" d="M185.5,320.4h0.7v7h-0.7V320.4z"/>
<path class="st6" d="M189.7,327c-0.6-0.3-1-0.7-1.3-1.3c-0.3-0.5-0.5-1.2-0.5-1.8c0-0.7,0.2-1.3,0.5-1.8c0.3-0.5,0.8-1,1.3-1.3
	s1.2-0.5,1.9-0.5c0.5,0,1,0.1,1.4,0.3c0.4,0.2,0.8,0.4,1.1,0.8l-0.5,0.5c-0.5-0.6-1.2-0.8-2.1-0.8c-0.6,0-1.1,0.1-1.5,0.4
	c-0.5,0.3-0.8,0.6-1.1,1c-0.3,0.4-0.4,0.9-0.4,1.5s0.1,1,0.4,1.5c0.3,0.4,0.6,0.8,1.1,1c0.5,0.3,1,0.4,1.5,0.4
	c0.8,0,1.5-0.3,2.1-0.8l0.5,0.5c-0.3,0.3-0.7,0.6-1.1,0.8s-0.9,0.3-1.4,0.3C190.9,327.5,190.3,327.3,189.7,327z"/>
<path class="st6" d="M195.7,320.4h0.7v7h-0.7V320.4z"/>
<path class="st6" d="M203.1,325.5h-3.9l-0.8,1.9h-0.8l3.2-7h0.7l3.2,7H204L203.1,325.5z M202.9,324.9l-1.7-3.8l-1.7,3.8H202.9z"/>
<path class="st6" d="M211.8,320.4v7h-0.6l-4.5-5.7v5.7h-0.7v-7h0.6l4.5,5.7v-5.7H211.8z"/>
<path class="st6" d="M214.5,327.2c-0.5-0.2-0.8-0.4-1.1-0.7l0.3-0.6c0.3,0.3,0.6,0.5,1,0.6c0.4,0.2,0.9,0.2,1.3,0.2
	c0.6,0,1.1-0.1,1.4-0.3c0.3-0.2,0.5-0.5,0.5-0.9c0-0.3-0.1-0.5-0.3-0.7c-0.2-0.2-0.4-0.3-0.6-0.4s-0.6-0.2-1-0.3
	c-0.5-0.1-0.9-0.3-1.3-0.4c-0.3-0.1-0.6-0.3-0.8-0.6c-0.2-0.3-0.3-0.6-0.3-1c0-0.4,0.1-0.7,0.3-1c0.2-0.3,0.5-0.5,0.9-0.7
	c0.4-0.2,0.9-0.3,1.4-0.3c0.4,0,0.8,0.1,1.2,0.2c0.4,0.1,0.7,0.3,1,0.5l-0.3,0.6c-0.3-0.2-0.6-0.3-0.9-0.4c-0.3-0.1-0.7-0.1-1-0.1
	c-0.6,0-1.1,0.1-1.4,0.4c-0.3,0.2-0.5,0.5-0.5,0.9c0,0.3,0.1,0.5,0.3,0.7s0.4,0.3,0.6,0.4c0.3,0.1,0.6,0.2,1,0.3
	c0.5,0.1,0.9,0.3,1.2,0.4s0.6,0.3,0.8,0.6c0.2,0.3,0.3,0.6,0.3,1c0,0.4-0.1,0.7-0.3,1s-0.5,0.5-0.9,0.7c-0.4,0.2-0.9,0.3-1.5,0.3
	C215.5,327.5,215,327.4,214.5,327.2z"/>
<path class="st6" d="M143.8,335c0.5,0.4,0.8,1,0.8,1.8c0,0.7-0.3,1.3-0.8,1.8c-0.5,0.4-1.2,0.6-2.1,0.6h-1.9v2.2h-0.7v-7h2.6
	C142.6,334.4,143.3,334.6,143.8,335z M143.3,338.1c0.4-0.3,0.5-0.7,0.5-1.3c0-0.6-0.2-1-0.5-1.3c-0.4-0.3-0.9-0.5-1.6-0.5h-1.9v3.5
	h1.9C142.4,338.5,142.9,338.4,143.3,338.1z"/>
<path class="st6" d="M152.2,334.4v7h-0.7v-3.2H147v3.2h-0.7v-7h0.7v3.1h4.4v-3.1H152.2z"/>
<path class="st6" d="M154.4,334.4h0.7v7h-0.7V334.4z"/>
<path class="st6" d="M157.5,334.4h0.7v6.4h3.9v0.6h-4.7V334.4z"/>
<path class="st6" d="M167.7,339.5h-3.9l-0.8,1.9h-0.8l3.2-7h0.7l3.2,7h-0.8L167.7,339.5z M167.5,338.9l-1.7-3.8l-1.7,3.8H167.5z"/>
<path class="st6" d="M176.4,334.4v7h-0.6l-4.5-5.7v5.7h-0.7v-7h0.6l4.5,5.7v-5.7H176.4z"/>
<path class="st6" d="M180,335h-2.5v-0.6h5.7v0.6h-2.5v6.4H180V335z"/>
<path class="st6" d="M190.2,334.4v7h-0.7v-3.2h-4.4v3.2h-0.7v-7h0.7v3.1h4.4v-3.1H190.2z"/>
<path class="st6" d="M197.3,341.4l-1.6-2.3c-0.2,0-0.4,0-0.6,0h-1.9v2.2h-0.7v-7h2.6c0.9,0,1.6,0.2,2.1,0.6c0.5,0.4,0.8,1,0.8,1.8
	c0,0.5-0.1,1-0.4,1.4c-0.3,0.4-0.7,0.6-1.2,0.8l1.7,2.4H197.3z M196.7,338.1c0.4-0.3,0.5-0.7,0.5-1.3c0-0.6-0.2-1-0.5-1.3
	c-0.4-0.3-0.9-0.5-1.6-0.5h-1.9v3.5h1.9C195.8,338.6,196.3,338.4,196.7,338.1z"/>
<path class="st6" d="M200.9,341c-0.6-0.3-1-0.7-1.3-1.3c-0.3-0.5-0.5-1.1-0.5-1.8c0-0.7,0.2-1.3,0.5-1.8c0.3-0.5,0.8-1,1.3-1.3
	c0.6-0.3,1.2-0.5,1.9-0.5c0.7,0,1.3,0.2,1.9,0.5c0.6,0.3,1,0.7,1.3,1.3c0.3,0.5,0.5,1.2,0.5,1.8c0,0.7-0.2,1.3-0.5,1.8
	c-0.3,0.5-0.8,1-1.3,1.3c-0.6,0.3-1.2,0.5-1.9,0.5C202.1,341.5,201.5,341.3,200.9,341z M204.3,340.4c0.4-0.3,0.8-0.6,1-1
	s0.4-0.9,0.4-1.5s-0.1-1-0.4-1.5s-0.6-0.8-1-1c-0.4-0.3-0.9-0.4-1.5-0.4c-0.6,0-1.1,0.1-1.5,0.4c-0.4,0.3-0.8,0.6-1.1,1
	c-0.3,0.4-0.4,0.9-0.4,1.5s0.1,1,0.4,1.5c0.3,0.4,0.6,0.8,1.1,1c0.5,0.3,1,0.4,1.5,0.4C203.4,340.8,203.9,340.7,204.3,340.4z"/>
<path class="st6" d="M212.9,335c0.5,0.4,0.8,1,0.8,1.8c0,0.7-0.3,1.3-0.8,1.8c-0.5,0.4-1.2,0.6-2.1,0.6h-1.9v2.2h-0.7v-7h2.6
	C211.6,334.4,212.3,334.6,212.9,335z M212.3,338.1c0.4-0.3,0.5-0.7,0.5-1.3c0-0.6-0.2-1-0.5-1.3c-0.4-0.3-0.9-0.5-1.6-0.5h-1.9v3.5
	h1.9C211.4,338.5,212,338.4,212.3,338.1z"/>
<path class="st6" d="M215.3,334.4h0.7v7h-0.7V334.4z"/>
<path class="st6" d="M218.8,341.2c-0.5-0.2-0.8-0.4-1.1-0.7l0.3-0.6c0.3,0.3,0.6,0.5,1,0.6c0.4,0.2,0.9,0.2,1.3,0.2
	c0.6,0,1.1-0.1,1.4-0.3c0.3-0.2,0.5-0.5,0.5-0.9c0-0.3-0.1-0.5-0.3-0.7c-0.2-0.2-0.4-0.3-0.6-0.4s-0.6-0.2-1-0.3
	c-0.5-0.1-0.9-0.3-1.3-0.4c-0.3-0.1-0.6-0.3-0.8-0.6c-0.2-0.3-0.3-0.6-0.3-1c0-0.4,0.1-0.7,0.3-1c0.2-0.3,0.5-0.5,0.9-0.7
	c0.4-0.2,0.9-0.3,1.4-0.3c0.4,0,0.8,0.1,1.2,0.2c0.4,0.1,0.7,0.3,1,0.5l-0.3,0.6c-0.3-0.2-0.6-0.3-0.9-0.4c-0.3-0.1-0.7-0.1-1-0.1
	c-0.6,0-1.1,0.1-1.4,0.4c-0.3,0.2-0.5,0.5-0.5,0.9c0,0.3,0.1,0.5,0.3,0.7s0.4,0.3,0.6,0.4c0.3,0.1,0.6,0.2,1,0.3
	c0.5,0.1,0.9,0.3,1.2,0.4s0.6,0.3,0.8,0.6c0.2,0.3,0.3,0.6,0.3,1c0,0.4-0.1,0.7-0.3,1s-0.5,0.5-0.9,0.7c-0.4,0.2-0.9,0.3-1.5,0.3
	C219.7,341.5,219.2,341.4,218.8,341.2z"/>
<path class="st6" d="M225.8,335h-2.5v-0.6h5.7v0.6h-2.5v6.4h-0.7V335z"/>
<path class="st6" d="M230.7,341.2c-0.5-0.2-0.8-0.4-1.1-0.7l0.3-0.6c0.3,0.3,0.6,0.5,1,0.6c0.4,0.2,0.9,0.2,1.3,0.2
	c0.6,0,1.1-0.1,1.4-0.3c0.3-0.2,0.5-0.5,0.5-0.9c0-0.3-0.1-0.5-0.3-0.7c-0.2-0.2-0.4-0.3-0.6-0.4s-0.6-0.2-1-0.3
	c-0.5-0.1-0.9-0.3-1.3-0.4c-0.3-0.1-0.6-0.3-0.8-0.6c-0.2-0.3-0.3-0.6-0.3-1c0-0.4,0.1-0.7,0.3-1c0.2-0.3,0.5-0.5,0.9-0.7
	c0.4-0.2,0.9-0.3,1.4-0.3c0.4,0,0.8,0.1,1.2,0.2c0.4,0.1,0.7,0.3,1,0.5l-0.3,0.6c-0.3-0.2-0.6-0.3-0.9-0.4c-0.3-0.1-0.7-0.1-1-0.1
	c-0.6,0-1.1,0.1-1.4,0.4c-0.3,0.2-0.5,0.5-0.5,0.9c0,0.3,0.1,0.5,0.3,0.7s0.4,0.3,0.6,0.4c0.3,0.1,0.6,0.2,1,0.3
	c0.5,0.1,0.9,0.3,1.2,0.4s0.6,0.3,0.8,0.6c0.2,0.3,0.3,0.6,0.3,1c0,0.4-0.1,0.7-0.3,1s-0.5,0.5-0.9,0.7c-0.4,0.2-0.9,0.3-1.5,0.3
	C231.6,341.5,231.1,341.4,230.7,341.2z"/>
<path class="st6" d="M251.5,423.5h4v11.9h-4V423.5z"/>
<path class="st6" d="M269.1,423.5v11.9h-3.3l-4.5-5.4v5.4h-3.9v-11.9h3.3l4.5,5.4v-5.4H269.1z"/>
<path class="st6" d="M283.8,423.5l-5,11.9h-3.9l-5-11.9h4.3l2.8,6.9l2.9-6.9H283.8z"/>
<path class="st6" d="M294.3,432.3v3h-9.9v-11.9h9.7v3h-5.7v1.4h5v2.9h-5v1.6H294.3z"/>
<path class="st6" d="M297.4,435.3c-0.9-0.2-1.7-0.5-2.3-0.9l1.3-2.9c0.6,0.3,1.2,0.6,1.9,0.8s1.4,0.3,2,0.3c0.6,0,1-0.1,1.2-0.2
	s0.4-0.3,0.4-0.5c0-0.2-0.2-0.4-0.5-0.6c-0.3-0.1-0.8-0.3-1.5-0.4c-0.9-0.2-1.7-0.4-2.3-0.6c-0.6-0.2-1.1-0.6-1.6-1.1
	c-0.5-0.5-0.7-1.2-0.7-2c0-0.7,0.2-1.4,0.6-2c0.4-0.6,1-1.1,1.9-1.4c0.8-0.4,1.8-0.5,3-0.5c0.8,0,1.6,0.1,2.4,0.3s1.5,0.4,2.1,0.8
	l-1.2,2.9c-1.2-0.6-2.3-0.9-3.3-0.9c-1,0-1.5,0.2-1.5,0.7c0,0.2,0.2,0.4,0.5,0.5s0.8,0.2,1.5,0.4c0.9,0.2,1.7,0.4,2.3,0.6
	c0.6,0.2,1.2,0.6,1.6,1.1s0.7,1.2,0.7,2c0,0.7-0.2,1.4-0.6,2c-0.4,0.6-1,1.1-1.9,1.4c-0.8,0.4-1.8,0.5-3,0.5
	C299.3,435.6,298.3,435.5,297.4,435.3z"/>
<path class="st6" d="M309.6,426.6h-3.5v-3.1h11v3.1h-3.5v8.8h-4V426.6z"/>
<path class="st6" d="M328.7,435.4l0-5.4l-2.6,4.3h-1.8l-2.6-4.2v5.2h-3.6v-11.9h3.3l3.9,6.3l3.8-6.3h3.3l0,11.9H328.7z"/>
<path class="st6" d="M344.2,432.3v3h-9.9v-11.9h9.7v3h-5.7v1.4h5v2.9h-5v1.6H344.2z"/>
<path class="st6" d="M357.4,423.5v11.9h-3.3l-4.5-5.4v5.4h-3.9v-11.9h3.3l4.5,5.4v-5.4H357.4z"/>
<path class="st6" d="M361.9,426.6h-3.5v-3.1h11v3.1h-3.5v8.8h-4V426.6z"/>
<path class="st6" d="M372.7,149.4c-1-0.5-1.8-1.3-2.4-2.2s-0.9-2-0.9-3.2s0.3-2.3,0.9-3.2c0.6-0.9,1.4-1.7,2.4-2.2
	c1-0.5,2.1-0.8,3.4-0.8c1.2,0,2.2,0.2,3.1,0.6c0.9,0.4,1.7,1,2.2,1.8l-2.5,2.3c-0.7-0.9-1.6-1.4-2.6-1.4c-0.8,0-1.5,0.3-2,0.8
	c-0.5,0.5-0.8,1.3-0.8,2.2c0,0.9,0.3,1.6,0.8,2.2c0.5,0.5,1.2,0.8,2,0.8c1,0,1.9-0.5,2.6-1.4l2.5,2.3c-0.6,0.8-1.3,1.4-2.2,1.8
	c-0.9,0.4-1.9,0.6-3.1,0.6C374.9,150.2,373.7,149.9,372.7,149.4z"/>
<path class="st6" d="M385.4,149.4c-1-0.5-1.8-1.3-2.4-2.2c-0.6-0.9-0.9-2-0.9-3.2c0-1.2,0.3-2.3,0.9-3.2s1.4-1.7,2.4-2.2
	c1-0.5,2.2-0.8,3.4-0.8c1.3,0,2.4,0.3,3.4,0.8c1,0.5,1.8,1.3,2.4,2.2s0.9,2,0.9,3.2c0,1.2-0.3,2.3-0.9,3.2c-0.6,0.9-1.4,1.7-2.4,2.2
	s-2.2,0.8-3.4,0.8C387.5,150.2,386.4,149.9,385.4,149.4z M390.2,146.6c0.4-0.2,0.7-0.6,1-1c0.2-0.4,0.4-1,0.4-1.6
	c0-0.6-0.1-1.1-0.4-1.6c-0.2-0.4-0.6-0.8-1-1c-0.4-0.2-0.9-0.4-1.3-0.4c-0.5,0-0.9,0.1-1.3,0.4c-0.4,0.2-0.7,0.6-1,1
	c-0.2,0.4-0.4,1-0.4,1.6c0,0.6,0.1,1.1,0.4,1.6c0.2,0.4,0.6,0.8,1,1c0.4,0.2,0.9,0.4,1.3,0.4C389.3,147,389.8,146.8,390.2,146.6z"/>
<path class="st6" d="M407.6,149.9l0-5.4l-2.6,4.3h-1.8l-2.6-4.2v5.2H397v-11.9h3.3l3.9,6.3l3.8-6.3h3.3l0,11.9H407.6z"/>
<path class="st6" d="M423.8,149.9l0-5.4l-2.6,4.3h-1.8l-2.6-4.2v5.2h-3.6v-11.9h3.3l3.9,6.3l3.8-6.3h3.3l0,11.9H423.8z"/>
<path class="st6" d="M430.8,148.7c-1-1-1.5-2.4-1.5-4.1v-6.5h4v6.4c0,0.9,0.2,1.5,0.5,1.9c0.3,0.4,0.8,0.6,1.3,0.6s1-0.2,1.3-0.6
	c0.3-0.4,0.5-1,0.5-1.9v-6.4h3.9v6.5c0,1.8-0.5,3.2-1.5,4.1c-1,1-2.4,1.5-4.3,1.5S431.8,149.7,430.8,148.7z"/>
<path class="st6" d="M454.4,138.1v11.9h-3.3l-4.5-5.4v5.4h-3.9v-11.9h3.3l4.5,5.4v-5.4H454.4z"/>
<path class="st6" d="M456.3,138.1h4v11.9h-4V138.1z"/>
<path class="st6" d="M464.9,141.2h-3.5v-3.1h11v3.1h-3.5v8.8h-4V141.2z"/>
<path class="st6" d="M480.4,145.6v4.3h-4v-4.4l-4.5-7.5h4.2l2.4,4.1l2.4-4.1h3.9L480.4,145.6z"/>
<path class="st6" d="M159.2,149.9l0-5.4l-2.6,4.3h-1.8l-2.6-4.2v5.2h-3.6v-11.9h3.3l3.9,6.3l3.8-6.3h3.3l0,11.9H159.2z"/>
<path class="st6" d="M172.8,147.9h-4.5l-0.8,2.1h-4.1l5.2-11.9h3.9l5.2,11.9h-4.1L172.8,147.9z M171.7,145l-1.2-3l-1.2,3H171.7z"/>
<path class="st6" d="M183.5,146.9h-1.1v3h-4v-11.9h5.7c1.1,0,2.1,0.2,2.9,0.5s1.4,0.9,1.9,1.6s0.7,1.5,0.7,2.4
	c0,0.8-0.2,1.6-0.6,2.2s-0.9,1.1-1.7,1.5l2.5,3.7h-4.3L183.5,146.9z M185.1,141.5c-0.3-0.2-0.7-0.4-1.2-0.4h-1.5v2.8h1.5
	c0.5,0,1-0.1,1.2-0.4c0.3-0.2,0.4-0.6,0.4-1C185.5,142.1,185.4,141.8,185.1,141.5z"/>
<path class="st6" d="M195.9,146l-0.9,1v2.9h-3.9v-11.9h3.9v4.3l3.9-4.3h4.4l-4.8,5.2l5,6.7h-4.6L195.9,146z"/>
<path class="st6" d="M213.9,146.9v3h-9.9v-11.9h9.7v3H208v1.4h5v2.9h-5v1.6H213.9z"/>
<path class="st6" d="M218.1,141.2h-3.5v-3.1h11v3.1h-3.5v8.8h-4V141.2z"/>
</svg>
