<?xml version="1.0" encoding="utf-8"?>
<!-- Generator: Adobe Illustrator 24.2.0, SVG Export Plug-In . SVG Version: 6.00 Build 0)  -->
<svg version="1.1" id="grafico_3" xmlns="http://www.w3.org/2000/svg" xmlns:xlink="http://www.w3.org/1999/xlink" x="0px" y="0px"
	 viewBox="0 0 620 400" style="enable-background:new 0 0 620 400;" xml:space="preserve">
<style type="text/css">
	.st0{fill:#F1F2F2;}
	.st1{fill:#7495DA;}
	.st2{fill:#13C2A5;}
	.st3{fill:#FEFF01;}
	.st4{fill:#CC9AFD;}
	.st5{fill:#413E3E;}
</style>
<path class="st0" d="M590,334H401.3c-5.3,0-10.4-2.1-14.2-5.9L184.3,200L387.2,73.8c3.7-3.7,8.8-5.8,14-5.8H590c5.5,0,10,4.5,10,10
	v246C600,329.5,595.5,334,590,334z"/>
<circle class="st0" cx="185" cy="200" r="160"/>
<path class="st1" d="M400,107.6h-4c-1.7,0-3-1.3-3-3v-4c0-1.7,1.3-3,3-3h4c1.7,0,3,1.3,3,3v4C403,106.3,401.7,107.6,400,107.6z"/>
<path class="st2" d="M400,151.9h-4c-1.7,0-3-1.3-3-3v-4c0-1.7,1.3-3,3-3h4c1.7,0,3,1.3,3,3v4C403,150.5,401.7,151.9,400,151.9z"/>
<path class="st3" d="M400,215.3h-4c-1.7,0-3-1.3-3-3v-4c0-1.7,1.3-3,3-3h4c1.7,0,3,1.3,3,3v4C403,213.9,401.7,215.3,400,215.3z"/>
<path class="st4" d="M400,258.3h-4c-1.7,0-3-1.3-3-3v-4c0-1.7,1.3-3,3-3h4c1.7,0,3,1.3,3,3v4C403,256.9,401.7,258.3,400,258.3z"/>
<path class="st5" d="M423.6,96.6c0.9,0.8,1.4,1.8,1.4,3.2c0,1.3-0.5,2.4-1.4,3.2c-0.9,0.8-2.2,1.1-3.8,1.1h-3.4v4h-1.3V95.5h4.7
	C421.4,95.5,422.7,95.9,423.6,96.6z M422.6,102.1c0.7-0.5,1-1.3,1-2.3c0-1-0.3-1.8-1-2.3c-0.7-0.5-1.6-0.8-2.9-0.8h-3.3v6.3h3.3
	C421,102.9,422,102.7,422.6,102.1z"/>
<path class="st5" d="M429.9,99c0.6-0.3,1.3-0.5,2.2-0.5v1.2l-0.3,0c-1,0-1.8,0.3-2.3,0.9c-0.6,0.6-0.8,1.5-0.8,2.6v4.8h-1.3v-9.5
	h1.2v1.9C428.8,99.8,429.3,99.4,429.9,99z"/>
<path class="st5" d="M435.7,107.6c-0.7-0.4-1.3-1-1.7-1.7c-0.4-0.7-0.6-1.6-0.6-2.5c0-0.9,0.2-1.8,0.6-2.5c0.4-0.7,1-1.3,1.7-1.7
	c0.7-0.4,1.6-0.6,2.5-0.6s1.7,0.2,2.5,0.6c0.7,0.4,1.3,1,1.7,1.7c0.4,0.7,0.6,1.6,0.6,2.5c0,0.9-0.2,1.8-0.6,2.5
	c-0.4,0.7-1,1.3-1.7,1.7c-0.7,0.4-1.6,0.6-2.5,0.6S436.4,108,435.7,107.6z M440,106.6c0.5-0.3,1-0.7,1.3-1.3
	c0.3-0.6,0.5-1.2,0.5-1.9c0-0.7-0.2-1.4-0.5-1.9c-0.3-0.6-0.7-1-1.3-1.3c-0.5-0.3-1.1-0.5-1.8-0.5s-1.3,0.2-1.8,0.5
	c-0.5,0.3-1,0.7-1.3,1.3c-0.3,0.6-0.5,1.2-0.5,1.9c0,0.7,0.2,1.4,0.5,1.9c0.3,0.6,0.7,1,1.3,1.3s1.1,0.5,1.8,0.5
	S439.4,106.9,440,106.6z"/>
<path class="st5" d="M454.2,94.7v13.4H453v-1.9c-0.4,0.6-0.9,1.1-1.5,1.5s-1.3,0.5-2.1,0.5c-0.9,0-1.7-0.2-2.4-0.6
	c-0.7-0.4-1.3-1-1.7-1.7c-0.4-0.7-0.6-1.6-0.6-2.5c0-0.9,0.2-1.8,0.6-2.5c0.4-0.7,1-1.3,1.7-1.7c0.7-0.4,1.5-0.6,2.4-0.6
	c0.8,0,1.5,0.2,2.1,0.5c0.6,0.3,1.1,0.8,1.5,1.4v-5.7H454.2z M451.2,106.6c0.5-0.3,1-0.7,1.3-1.3c0.3-0.6,0.5-1.2,0.5-1.9
	c0-0.7-0.2-1.4-0.5-1.9c-0.3-0.6-0.7-1-1.3-1.3c-0.5-0.3-1.1-0.5-1.8-0.5c-0.7,0-1.3,0.2-1.8,0.5c-0.5,0.3-1,0.7-1.3,1.3
	c-0.3,0.6-0.5,1.2-0.5,1.9c0,0.7,0.2,1.4,0.5,1.9c0.3,0.6,0.7,1,1.3,1.3s1.1,0.5,1.8,0.5C450.1,107,450.7,106.9,451.2,106.6z"/>
<path class="st5" d="M466.3,98.6v9.5h-1.2v-1.7c-0.3,0.6-0.8,1-1.4,1.3c-0.6,0.3-1.3,0.5-2,0.5c-1.2,0-2.2-0.3-2.9-1
	c-0.7-0.7-1.1-1.7-1.1-3v-5.5h1.3v5.4c0,1,0.2,1.8,0.7,2.3c0.5,0.5,1.2,0.8,2.1,0.8c1,0,1.8-0.3,2.4-0.9c0.6-0.6,0.9-1.4,0.9-2.5v-5
	H466.3z"/>
<path class="st5" d="M471.3,107.6c-0.7-0.4-1.3-1-1.7-1.7c-0.4-0.7-0.6-1.6-0.6-2.5c0-0.9,0.2-1.8,0.6-2.5c0.4-0.7,1-1.3,1.7-1.7
	s1.6-0.6,2.5-0.6c0.8,0,1.5,0.2,2.2,0.5c0.6,0.3,1.1,0.8,1.5,1.4l-1,0.6c-0.3-0.5-0.7-0.8-1.2-1.1c-0.5-0.2-1-0.4-1.6-0.4
	c-0.7,0-1.3,0.2-1.8,0.5c-0.5,0.3-1,0.7-1.3,1.3c-0.3,0.6-0.5,1.2-0.5,1.9c0,0.7,0.2,1.4,0.5,1.9c0.3,0.6,0.7,1,1.3,1.3
	s1.2,0.5,1.8,0.5c0.6,0,1.1-0.1,1.6-0.3c0.5-0.2,0.9-0.6,1.2-1l1,0.6c-0.4,0.6-0.9,1.1-1.5,1.4c-0.6,0.3-1.4,0.5-2.2,0.5
	C472.9,108.2,472.1,108,471.3,107.6z"/>
<path class="st5" d="M485.1,107.5c-0.2,0.2-0.5,0.4-0.9,0.5c-0.4,0.1-0.7,0.2-1.1,0.2c-0.9,0-1.6-0.2-2.1-0.7
	c-0.5-0.5-0.7-1.2-0.7-2v-5.7h-1.7v-1.1h1.7v-2.1h1.3v2.1h2.9v1.1h-2.9v5.7c0,0.6,0.1,1,0.4,1.3c0.3,0.3,0.7,0.4,1.2,0.4
	c0.3,0,0.5,0,0.8-0.1s0.5-0.2,0.6-0.4L485.1,107.5z"/>
<path class="st5" d="M488.5,107.6c-0.7-0.4-1.3-1-1.7-1.7c-0.4-0.7-0.6-1.6-0.6-2.5c0-0.9,0.2-1.8,0.6-2.5c0.4-0.7,1-1.3,1.7-1.7
	c0.7-0.4,1.6-0.6,2.5-0.6c0.9,0,1.7,0.2,2.5,0.6c0.7,0.4,1.3,1,1.7,1.7c0.4,0.7,0.6,1.6,0.6,2.5c0,0.9-0.2,1.8-0.6,2.5
	c-0.4,0.7-1,1.3-1.7,1.7c-0.7,0.4-1.6,0.6-2.5,0.6C490.1,108.2,489.2,108,488.5,107.6z M492.8,106.6c0.5-0.3,1-0.7,1.3-1.3
	c0.3-0.6,0.5-1.2,0.5-1.9c0-0.7-0.2-1.4-0.5-1.9c-0.3-0.6-0.7-1-1.3-1.3c-0.5-0.3-1.1-0.5-1.8-0.5c-0.7,0-1.3,0.2-1.8,0.5
	c-0.5,0.3-1,0.7-1.3,1.3c-0.3,0.6-0.5,1.2-0.5,1.9c0,0.7,0.2,1.4,0.5,1.9c0.3,0.6,0.7,1,1.3,1.3s1.1,0.5,1.8,0.5
	C491.7,107,492.3,106.9,492.8,106.6z"/>
<path class="st5" d="M501,99c0.6-0.3,1.3-0.5,2.2-0.5v1.2l-0.3,0c-1,0-1.8,0.3-2.3,0.9c-0.6,0.6-0.8,1.5-0.8,2.6v4.8h-1.3v-9.5h1.2
	v1.9C499.9,99.8,500.4,99.4,501,99z"/>
<path class="st5" d="M424,150.1v1.2h-8.9v-12.6h8.6v1.2h-7.3v4.5h6.5v1.1h-6.5v4.7H424z"/>
<path class="st5" d="M441.5,142.8c0.7,0.7,1,1.7,1,3v5.5h-1.3v-5.4c0-1-0.2-1.7-0.7-2.3c-0.5-0.5-1.1-0.8-2-0.8
	c-1,0-1.8,0.3-2.3,0.9c-0.6,0.6-0.8,1.4-0.8,2.5v5H434v-5.4c0-1-0.2-1.7-0.7-2.3c-0.5-0.5-1.1-0.8-2-0.8c-1,0-1.7,0.3-2.3,0.9
	c-0.6,0.6-0.9,1.4-0.9,2.5v5h-1.3v-9.5h1.2v1.7c0.3-0.6,0.8-1,1.4-1.3c0.6-0.3,1.3-0.5,2.1-0.5c0.8,0,1.5,0.2,2.1,0.5s1,0.8,1.3,1.5
	c0.3-0.6,0.8-1.1,1.5-1.5c0.7-0.4,1.4-0.5,2.2-0.5C439.8,141.8,440.8,142.1,441.5,142.8z"/>
<path class="st5" d="M453.2,142.4c0.7,0.4,1.3,1,1.7,1.7c0.4,0.7,0.6,1.6,0.6,2.5c0,0.9-0.2,1.8-0.6,2.5c-0.4,0.7-1,1.3-1.7,1.7
	s-1.5,0.6-2.4,0.6c-0.8,0-1.5-0.2-2.1-0.5c-0.6-0.3-1.1-0.8-1.5-1.4v5.3h-1.3v-13h1.2v1.9c0.4-0.6,0.9-1.1,1.5-1.4s1.3-0.5,2.1-0.5
	C451.7,141.8,452.5,142,453.2,142.4z M452.5,149.8c0.5-0.3,1-0.7,1.3-1.3c0.3-0.6,0.5-1.2,0.5-1.9c0-0.7-0.2-1.4-0.5-1.9
	c-0.3-0.6-0.7-1-1.3-1.3c-0.5-0.3-1.1-0.5-1.8-0.5c-0.7,0-1.3,0.2-1.8,0.5c-0.5,0.3-1,0.7-1.3,1.3c-0.3,0.6-0.5,1.2-0.5,1.9
	c0,0.7,0.2,1.4,0.5,1.9c0.3,0.6,0.7,1,1.3,1.3c0.5,0.3,1.1,0.5,1.8,0.5C451.4,150.2,452,150.1,452.5,149.8z"/>
<path class="st5" d="M460.7,142.2c0.6-0.3,1.3-0.5,2.2-0.5v1.2l-0.3,0c-1,0-1.8,0.3-2.3,0.9c-0.6,0.6-0.8,1.5-0.8,2.6v4.8h-1.3v-9.5
	h1.2v1.9C459.7,143,460.1,142.6,460.7,142.2z"/>
<path class="st5" d="M473.4,147h-7.9c0.1,1,0.5,1.8,1.1,2.4c0.7,0.6,1.5,0.9,2.6,0.9c0.6,0,1.1-0.1,1.6-0.3c0.5-0.2,0.9-0.5,1.3-0.9
	l0.7,0.8c-0.4,0.5-0.9,0.9-1.6,1.2s-1.3,0.4-2.1,0.4c-1,0-1.8-0.2-2.6-0.6s-1.3-1-1.8-1.7c-0.4-0.7-0.6-1.6-0.6-2.5
	c0-0.9,0.2-1.8,0.6-2.5c0.4-0.7,1-1.3,1.7-1.7s1.5-0.6,2.4-0.6c0.9,0,1.7,0.2,2.4,0.6s1.2,1,1.6,1.7c0.4,0.7,0.6,1.6,0.6,2.5
	L473.4,147z M466.5,143.7c-0.6,0.6-1,1.3-1.1,2.3h6.7c-0.1-0.9-0.4-1.7-1.1-2.3c-0.6-0.6-1.4-0.9-2.3-0.9
	C467.9,142.8,467.1,143.1,466.5,143.7z"/>
<path class="st5" d="M483.7,142.8c0.7,0.7,1.1,1.7,1.1,3v5.5h-1.3v-5.4c0-1-0.2-1.7-0.7-2.3c-0.5-0.5-1.2-0.8-2.1-0.8
	c-1,0-1.8,0.3-2.4,0.9c-0.6,0.6-0.9,1.4-0.9,2.5v5H476v-9.5h1.2v1.7c0.3-0.6,0.8-1,1.4-1.3c0.6-0.3,1.3-0.5,2.2-0.5
	C482,141.8,483,142.1,483.7,142.8z"/>
<path class="st5" d="M496.9,137.9v13.4h-1.2v-1.9c-0.4,0.6-0.9,1.1-1.5,1.5s-1.3,0.5-2.1,0.5c-0.9,0-1.7-0.2-2.4-0.6
	c-0.7-0.4-1.3-1-1.7-1.7c-0.4-0.7-0.6-1.6-0.6-2.5c0-0.9,0.2-1.8,0.6-2.5c0.4-0.7,1-1.3,1.7-1.7c0.7-0.4,1.5-0.6,2.4-0.6
	c0.8,0,1.5,0.2,2.1,0.5c0.6,0.3,1.1,0.8,1.5,1.4v-5.7H496.9z M493.9,149.8c0.5-0.3,1-0.7,1.3-1.3c0.3-0.6,0.5-1.2,0.5-1.9
	c0-0.7-0.2-1.4-0.5-1.9c-0.3-0.6-0.7-1-1.3-1.3c-0.5-0.3-1.1-0.5-1.8-0.5c-0.7,0-1.3,0.2-1.8,0.5c-0.5,0.3-1,0.7-1.3,1.3
	c-0.3,0.6-0.5,1.2-0.5,1.9c0,0.7,0.2,1.4,0.5,1.9c0.3,0.6,0.7,1,1.3,1.3s1.1,0.5,1.8,0.5C492.8,150.2,493.4,150.1,493.9,149.8z"/>
<path class="st5" d="M508.7,147h-7.9c0.1,1,0.4,1.8,1.1,2.4c0.7,0.6,1.5,0.9,2.6,0.9c0.6,0,1.1-0.1,1.6-0.3c0.5-0.2,0.9-0.5,1.3-0.9
	l0.7,0.8c-0.4,0.5-0.9,0.9-1.6,1.2s-1.3,0.4-2.1,0.4c-1,0-1.8-0.2-2.6-0.6s-1.3-1-1.8-1.7c-0.4-0.7-0.6-1.6-0.6-2.5
	c0-0.9,0.2-1.8,0.6-2.5c0.4-0.7,1-1.3,1.7-1.7s1.5-0.6,2.4-0.6s1.7,0.2,2.4,0.6c0.7,0.4,1.2,1,1.6,1.7c0.4,0.7,0.6,1.6,0.6,2.5
	L508.7,147z M501.8,143.7c-0.6,0.6-1,1.3-1.1,2.3h6.7c-0.1-0.9-0.4-1.7-1.1-2.3c-0.6-0.6-1.4-0.9-2.3-0.9
	C503.2,142.8,502.4,143.1,501.8,143.7z"/>
<path class="st5" d="M519.9,137.9v13.4h-1.2v-1.9c-0.4,0.6-0.9,1.1-1.5,1.5s-1.3,0.5-2.1,0.5c-0.9,0-1.7-0.2-2.4-0.6
	c-0.7-0.4-1.3-1-1.7-1.7c-0.4-0.7-0.6-1.6-0.6-2.5c0-0.9,0.2-1.8,0.6-2.5c0.4-0.7,1-1.3,1.7-1.7c0.7-0.4,1.5-0.6,2.4-0.6
	c0.8,0,1.5,0.2,2.1,0.5c0.6,0.3,1.1,0.8,1.5,1.4v-5.7H519.9z M517,149.8c0.5-0.3,1-0.7,1.3-1.3c0.3-0.6,0.5-1.2,0.5-1.9
	c0-0.7-0.2-1.4-0.5-1.9c-0.3-0.6-0.7-1-1.3-1.3c-0.5-0.3-1.1-0.5-1.8-0.5c-0.7,0-1.3,0.2-1.8,0.5c-0.5,0.3-1,0.7-1.3,1.3
	c-0.3,0.6-0.5,1.2-0.5,1.9c0,0.7,0.2,1.4,0.5,1.9c0.3,0.6,0.7,1,1.3,1.3s1.1,0.5,1.8,0.5C515.8,150.2,516.4,150.1,517,149.8z"/>
<path class="st5" d="M524.9,150.8c-0.7-0.4-1.3-1-1.7-1.7c-0.4-0.7-0.6-1.6-0.6-2.5c0-0.9,0.2-1.8,0.6-2.5c0.4-0.7,1-1.3,1.7-1.7
	c0.7-0.4,1.6-0.6,2.5-0.6c0.9,0,1.7,0.2,2.5,0.6c0.7,0.4,1.3,1,1.7,1.7c0.4,0.7,0.6,1.6,0.6,2.5c0,0.9-0.2,1.8-0.6,2.5
	c-0.4,0.7-1,1.3-1.7,1.7c-0.7,0.4-1.6,0.6-2.5,0.6C526.5,151.4,525.6,151.2,524.9,150.8z M529.2,149.8c0.5-0.3,1-0.7,1.3-1.3
	c0.3-0.6,0.5-1.2,0.5-1.9c0-0.7-0.2-1.4-0.5-1.9c-0.3-0.6-0.7-1-1.3-1.3c-0.5-0.3-1.1-0.5-1.8-0.5c-0.7,0-1.3,0.2-1.8,0.5
	c-0.5,0.3-1,0.7-1.3,1.3c-0.3,0.6-0.5,1.2-0.5,1.9c0,0.7,0.2,1.4,0.5,1.9c0.3,0.6,0.7,1,1.3,1.3s1.1,0.5,1.8,0.5
	C528,150.2,528.6,150.1,529.2,149.8z"/>
<path class="st5" d="M537.4,142.2c0.6-0.3,1.3-0.5,2.2-0.5v1.2l-0.3,0c-1,0-1.8,0.3-2.3,0.9c-0.6,0.6-0.8,1.5-0.8,2.6v4.8h-1.3v-9.5
	h1.2v1.9C536.3,143,536.8,142.6,537.4,142.2z"/>
<path class="st5" d="M414.8,161.1c-0.2-0.2-0.3-0.4-0.3-0.6c0-0.2,0.1-0.5,0.3-0.6c0.2-0.2,0.4-0.3,0.7-0.3c0.3,0,0.5,0.1,0.7,0.3
	c0.2,0.2,0.3,0.4,0.3,0.6c0,0.3-0.1,0.5-0.3,0.7c-0.2,0.2-0.4,0.3-0.7,0.3C415.2,161.4,415,161.3,414.8,161.1z M414.8,163.4h1.3v9.5
	h-1.3V163.4z"/>
<path class="st5" d="M427.3,164.4c0.7,0.7,1.1,1.7,1.1,3v5.5h-1.3v-5.4c0-1-0.2-1.7-0.7-2.3c-0.5-0.5-1.2-0.8-2.1-0.8
	c-1,0-1.8,0.3-2.4,0.9c-0.6,0.6-0.9,1.4-0.9,2.5v5h-1.3v-9.5h1.2v1.7c0.3-0.6,0.8-1,1.4-1.3c0.6-0.3,1.3-0.5,2.2-0.5
	C425.7,163.4,426.6,163.7,427.3,164.4z"/>
<path class="st5" d="M433.7,161c-0.3,0.3-0.4,0.7-0.4,1.3v1.1h2.9v1.1h-2.9v8.4H432v-8.4h-1.7v-1.1h1.7v-1.2c0-0.9,0.2-1.5,0.7-2.1
	c0.5-0.5,1.2-0.8,2.1-0.8c0.4,0,0.7,0.1,1,0.2c0.3,0.1,0.6,0.2,0.8,0.4l-0.4,1c-0.4-0.3-0.8-0.5-1.4-0.5
	C434.4,160.5,434,160.7,433.7,161z M437.9,159.5h1.3v13.4h-1.3V159.5z"/>
<path class="st5" d="M451.3,163.4v9.5h-1.2v-1.7c-0.3,0.6-0.8,1-1.4,1.3c-0.6,0.3-1.3,0.5-2,0.5c-1.2,0-2.2-0.3-2.9-1
	c-0.7-0.7-1.1-1.7-1.1-3v-5.5h1.3v5.4c0,1,0.2,1.8,0.7,2.3s1.2,0.8,2.1,0.8c1,0,1.8-0.3,2.4-0.9c0.6-0.6,0.9-1.4,0.9-2.5v-5H451.3z"
	/>
<path class="st5" d="M462.8,163.4l-4.7,10.6c-0.4,0.9-0.8,1.5-1.3,1.9c-0.5,0.4-1.1,0.6-1.8,0.6c-0.5,0-0.9-0.1-1.3-0.2
	c-0.4-0.1-0.7-0.4-1-0.6l0.6-1c0.5,0.5,1.1,0.7,1.7,0.7c0.4,0,0.8-0.1,1.1-0.4c0.3-0.2,0.6-0.6,0.9-1.2l0.4-0.9l-4.2-9.5h1.3l3.6,8
	l3.6-8H462.8z"/>
<path class="st5" d="M472.6,168.6h-7.9c0.1,1,0.5,1.8,1.1,2.4c0.7,0.6,1.5,0.9,2.6,0.9c0.6,0,1.1-0.1,1.6-0.3
	c0.5-0.2,0.9-0.5,1.3-0.9l0.7,0.8c-0.4,0.5-0.9,0.9-1.6,1.2s-1.3,0.4-2.1,0.4c-1,0-1.8-0.2-2.6-0.6s-1.3-1-1.8-1.7
	c-0.4-0.7-0.6-1.6-0.6-2.5c0-0.9,0.2-1.8,0.6-2.5c0.4-0.7,1-1.3,1.7-1.7s1.5-0.6,2.4-0.6s1.7,0.2,2.4,0.6c0.7,0.4,1.2,1,1.6,1.7
	c0.4,0.7,0.6,1.6,0.6,2.5L472.6,168.6z M465.8,165.3c-0.6,0.6-1,1.3-1.1,2.3h6.7c-0.1-0.9-0.4-1.7-1.1-2.3c-0.6-0.6-1.4-0.9-2.3-0.9
	C467.1,164.4,466.4,164.7,465.8,165.3z"/>
<path class="st5" d="M482.9,164.4c0.7,0.7,1.1,1.7,1.1,3v5.5h-1.3v-5.4c0-1-0.2-1.7-0.7-2.3c-0.5-0.5-1.2-0.8-2.1-0.8
	c-1,0-1.8,0.3-2.4,0.9c-0.6,0.6-0.9,1.4-0.9,2.5v5h-1.3v-9.5h1.2v1.7c0.3-0.6,0.8-1,1.4-1.3c0.6-0.3,1.3-0.5,2.2-0.5
	C481.3,163.4,482.2,163.7,482.9,164.4z"/>
<path class="st5" d="M492.4,172.3c-0.2,0.2-0.5,0.4-0.9,0.5c-0.4,0.1-0.7,0.2-1.1,0.2c-0.9,0-1.6-0.2-2.1-0.7
	c-0.5-0.5-0.7-1.2-0.7-2v-5.7H486v-1.1h1.7v-2.1h1.3v2.1h2.9v1.1h-2.9v5.7c0,0.6,0.1,1,0.4,1.3c0.3,0.3,0.7,0.4,1.2,0.4
	c0.3,0,0.5,0,0.8-0.1s0.5-0.2,0.6-0.4L492.4,172.3z"/>
<path class="st5" d="M502.6,168.6h-7.9c0.1,1,0.4,1.8,1.1,2.4c0.7,0.6,1.5,0.9,2.6,0.9c0.6,0,1.1-0.1,1.6-0.3
	c0.5-0.2,0.9-0.5,1.3-0.9l0.7,0.8c-0.4,0.5-0.9,0.9-1.6,1.2s-1.3,0.4-2.1,0.4c-1,0-1.8-0.2-2.6-0.6s-1.3-1-1.8-1.7
	c-0.4-0.7-0.6-1.6-0.6-2.5c0-0.9,0.2-1.8,0.6-2.5c0.4-0.7,1-1.3,1.7-1.7s1.5-0.6,2.4-0.6s1.7,0.2,2.4,0.6c0.7,0.4,1.2,1,1.6,1.7
	c0.4,0.7,0.6,1.6,0.6,2.5L502.6,168.6z M495.8,165.3c-0.6,0.6-1,1.3-1.1,2.3h6.7c-0.1-0.9-0.4-1.7-1.1-2.3c-0.6-0.6-1.4-0.9-2.3-0.9
	C497.2,164.4,496.4,164.7,495.8,165.3z"/>
<path class="st5" d="M416.4,204.6v5h6.5v1.2h-6.5v5.3h-1.3v-12.6h8.6v1.2H416.4z"/>
<path class="st5" d="M428.6,207c0.6-0.3,1.3-0.5,2.2-0.5v1.2l-0.3,0c-1,0-1.8,0.3-2.3,0.9c-0.6,0.6-0.8,1.5-0.8,2.6v4.8H426v-9.5
	h1.2v1.9C427.5,207.8,428,207.4,428.6,207z"/>
<path class="st5" d="M441.2,211.8h-7.9c0.1,1,0.5,1.8,1.1,2.4c0.7,0.6,1.5,0.9,2.6,0.9c0.6,0,1.1-0.1,1.6-0.3
	c0.5-0.2,0.9-0.5,1.3-0.9l0.7,0.8c-0.4,0.5-0.9,0.9-1.6,1.2s-1.3,0.4-2.1,0.4c-1,0-1.8-0.2-2.6-0.6s-1.3-1-1.8-1.7
	c-0.4-0.7-0.6-1.6-0.6-2.5c0-0.9,0.2-1.8,0.6-2.5c0.4-0.7,1-1.3,1.7-1.7s1.5-0.6,2.4-0.6s1.7,0.2,2.4,0.6c0.7,0.4,1.2,1,1.6,1.7
	c0.4,0.7,0.6,1.6,0.6,2.5L441.2,211.8z M434.4,208.5c-0.6,0.6-1,1.3-1.1,2.3h6.7c-0.1-0.9-0.4-1.7-1.1-2.3c-0.6-0.6-1.4-0.9-2.3-0.9
	C435.8,207.6,435,207.9,434.4,208.5z"/>
<path class="st5" d="M452.1,211.8h-7.9c0.1,1,0.5,1.8,1.1,2.4c0.7,0.6,1.5,0.9,2.6,0.9c0.6,0,1.1-0.1,1.6-0.3
	c0.5-0.2,0.9-0.5,1.3-0.9l0.7,0.8c-0.4,0.5-0.9,0.9-1.6,1.2s-1.3,0.4-2.1,0.4c-1,0-1.8-0.2-2.6-0.6s-1.3-1-1.8-1.7
	c-0.4-0.7-0.6-1.6-0.6-2.5c0-0.9,0.2-1.8,0.6-2.5c0.4-0.7,1-1.3,1.7-1.7s1.5-0.6,2.4-0.6c0.9,0,1.7,0.2,2.4,0.6s1.2,1,1.6,1.7
	c0.4,0.7,0.6,1.6,0.6,2.5L452.1,211.8z M445.3,208.5c-0.6,0.6-1,1.3-1.1,2.3h6.7c-0.1-0.9-0.4-1.7-1.1-2.3c-0.6-0.6-1.4-0.9-2.3-0.9
	C446.6,207.6,445.9,207.9,445.3,208.5z"/>
<path class="st5" d="M463.4,202.7v13.4h-1.2v-1.9c-0.4,0.6-0.9,1.1-1.5,1.5c-0.6,0.3-1.3,0.5-2.1,0.5c-0.9,0-1.7-0.2-2.4-0.6
	c-0.7-0.4-1.3-1-1.7-1.7c-0.4-0.7-0.6-1.6-0.6-2.5c0-0.9,0.2-1.8,0.6-2.5c0.4-0.7,1-1.3,1.7-1.7c0.7-0.4,1.5-0.6,2.4-0.6
	c0.8,0,1.5,0.2,2.1,0.5c0.6,0.3,1.1,0.8,1.5,1.4v-5.7H463.4z M460.4,214.6c0.5-0.3,1-0.7,1.3-1.3c0.3-0.6,0.5-1.2,0.5-1.9
	c0-0.7-0.2-1.4-0.5-1.9c-0.3-0.6-0.7-1-1.3-1.3c-0.5-0.3-1.1-0.5-1.8-0.5c-0.7,0-1.3,0.2-1.8,0.5c-0.5,0.3-1,0.7-1.3,1.3
	c-0.3,0.6-0.5,1.2-0.5,1.9c0,0.7,0.2,1.4,0.5,1.9c0.3,0.6,0.7,1,1.3,1.3c0.5,0.3,1.1,0.5,1.8,0.5C459.3,215,459.9,214.9,460.4,214.6
	z"/>
<path class="st5" d="M468.4,215.6c-0.7-0.4-1.3-1-1.7-1.7c-0.4-0.7-0.6-1.6-0.6-2.5c0-0.9,0.2-1.8,0.6-2.5c0.4-0.7,1-1.3,1.7-1.7
	c0.7-0.4,1.6-0.6,2.5-0.6s1.7,0.2,2.5,0.6c0.7,0.4,1.3,1,1.7,1.7c0.4,0.7,0.6,1.6,0.6,2.5c0,0.9-0.2,1.8-0.6,2.5
	c-0.4,0.7-1,1.3-1.7,1.7c-0.7,0.4-1.6,0.6-2.5,0.6S469.1,216,468.4,215.6z M472.6,214.6c0.5-0.3,1-0.7,1.3-1.3
	c0.3-0.6,0.5-1.2,0.5-1.9c0-0.7-0.2-1.4-0.5-1.9c-0.3-0.6-0.7-1-1.3-1.3c-0.5-0.3-1.1-0.5-1.8-0.5s-1.3,0.2-1.8,0.5
	c-0.5,0.3-1,0.7-1.3,1.3c-0.3,0.6-0.5,1.2-0.5,1.9c0,0.7,0.2,1.4,0.5,1.9c0.3,0.6,0.7,1,1.3,1.3c0.5,0.3,1.1,0.5,1.8,0.5
	S472.1,214.9,472.6,214.6z"/>
<path class="st5" d="M492.8,207.6c0.7,0.7,1,1.7,1,3v5.5h-1.3v-5.4c0-1-0.2-1.7-0.7-2.3c-0.5-0.5-1.1-0.8-2-0.8
	c-1,0-1.8,0.3-2.3,0.9c-0.6,0.6-0.8,1.4-0.8,2.5v5h-1.3v-5.4c0-1-0.2-1.7-0.7-2.3c-0.5-0.5-1.1-0.8-2-0.8c-1,0-1.7,0.3-2.3,0.9
	c-0.6,0.6-0.9,1.4-0.9,2.5v5h-1.3v-9.5h1.2v1.7c0.3-0.6,0.8-1,1.4-1.3c0.6-0.3,1.3-0.5,2.1-0.5c0.8,0,1.5,0.2,2.1,0.5s1,0.8,1.3,1.5
	c0.3-0.6,0.8-1.1,1.5-1.5c0.7-0.4,1.4-0.5,2.2-0.5C491.2,206.6,492.2,206.9,492.8,207.6z"/>
<path class="st5" d="M505.6,211.8h-7.9c0.1,1,0.4,1.8,1.1,2.4c0.7,0.6,1.5,0.9,2.6,0.9c0.6,0,1.1-0.1,1.6-0.3
	c0.5-0.2,0.9-0.5,1.3-0.9l0.7,0.8c-0.4,0.5-0.9,0.9-1.6,1.2s-1.3,0.4-2.1,0.4c-1,0-1.8-0.2-2.6-0.6s-1.3-1-1.8-1.7
	c-0.4-0.7-0.6-1.6-0.6-2.5c0-0.9,0.2-1.8,0.6-2.5c0.4-0.7,1-1.3,1.7-1.7s1.5-0.6,2.4-0.6s1.7,0.2,2.4,0.6c0.7,0.4,1.2,1,1.6,1.7
	c0.4,0.7,0.6,1.6,0.6,2.5L505.6,211.8z M498.7,208.5c-0.6,0.6-1,1.3-1.1,2.3h6.7c-0.1-0.9-0.4-1.7-1.1-2.3c-0.6-0.6-1.4-0.9-2.3-0.9
	C500.1,207.6,499.4,207.9,498.7,208.5z"/>
<path class="st5" d="M517.4,214.9v1.2h-8.9v-12.6h8.6v1.2h-7.3v4.5h6.5v1.1h-6.5v4.7H517.4z"/>
<path class="st5" d="M428.2,246.7v12.6h-1.3v-10.1l-5,8.5h-0.6l-5-8.4v10h-1.3v-12.6h1.1l5.5,9.3l5.4-9.3H428.2z"/>
<path class="st5" d="M438.1,250.7c0.7,0.6,1,1.5,1,2.7v5.9h-1.2v-1.5c-0.3,0.5-0.7,0.9-1.3,1.2c-0.6,0.3-1.2,0.4-2,0.4
	c-1.1,0-1.9-0.3-2.5-0.8s-0.9-1.2-0.9-2c0-0.8,0.3-1.5,0.9-1.9c0.6-0.5,1.5-0.7,2.8-0.7h3v-0.6c0-0.8-0.2-1.4-0.7-1.9
	s-1.1-0.6-2-0.6c-0.6,0-1.2,0.1-1.7,0.3c-0.6,0.2-1,0.5-1.4,0.8l-0.6-1c0.5-0.4,1.1-0.7,1.7-0.9c0.7-0.2,1.4-0.3,2.1-0.3
	C436.5,249.8,437.5,250.1,438.1,250.7z M436.7,257.9c0.5-0.3,0.9-0.8,1.2-1.4v-1.5h-3c-1.6,0-2.4,0.6-2.4,1.7c0,0.6,0.2,1,0.6,1.3
	c0.4,0.3,1,0.5,1.8,0.5C435.6,258.4,436.2,258.2,436.7,257.9z"/>
<path class="st5" d="M445.2,250.2c0.6-0.3,1.3-0.5,2.2-0.5v1.2l-0.3,0c-1,0-1.8,0.3-2.3,0.9c-0.6,0.6-0.8,1.5-0.8,2.6v4.8h-1.3v-9.5
	h1.2v1.9C444.1,251,444.6,250.6,445.2,250.2z"/>
<path class="st5" d="M453.2,254.5l-2.2,2.1v2.7h-1.3v-13.4h1.3v9.1l5.7-5.2h1.6l-4,3.9l4.4,5.6H457L453.2,254.5z"/>
<path class="st5" d="M468.4,255h-7.9c0.1,1,0.5,1.8,1.1,2.4c0.7,0.6,1.5,0.9,2.6,0.9c0.6,0,1.1-0.1,1.6-0.3c0.5-0.2,0.9-0.5,1.3-0.9
	l0.7,0.8c-0.4,0.5-0.9,0.9-1.6,1.2s-1.3,0.4-2.1,0.4c-1,0-1.8-0.2-2.6-0.6s-1.3-1-1.8-1.7c-0.4-0.7-0.6-1.6-0.6-2.5
	c0-0.9,0.2-1.8,0.6-2.5c0.4-0.7,1-1.3,1.7-1.7s1.5-0.6,2.4-0.6c0.9,0,1.7,0.2,2.4,0.6s1.2,1,1.6,1.7c0.4,0.7,0.6,1.6,0.6,2.5
	L468.4,255z M461.5,251.7c-0.6,0.6-1,1.3-1.1,2.3h6.7c-0.1-0.9-0.4-1.7-1.1-2.3c-0.6-0.6-1.4-0.9-2.3-0.9
	C462.9,250.8,462.1,251.1,461.5,251.7z"/>
<path class="st5" d="M476,258.7c-0.2,0.2-0.5,0.4-0.9,0.5c-0.4,0.1-0.7,0.2-1.1,0.2c-0.9,0-1.6-0.2-2.1-0.7c-0.5-0.5-0.7-1.2-0.7-2
	v-5.7h-1.7v-1.1h1.7v-2.1h1.3v2.1h2.9v1.1h-2.9v5.7c0,0.6,0.1,1,0.4,1.3s0.7,0.4,1.2,0.4c0.3,0,0.5,0,0.8-0.1
	c0.2-0.1,0.5-0.2,0.6-0.4L476,258.7z"/>
<path class="st5" d="M478.3,247.5c-0.2-0.2-0.3-0.4-0.3-0.6c0-0.2,0.1-0.5,0.3-0.6c0.2-0.2,0.4-0.3,0.7-0.3s0.5,0.1,0.7,0.3
	c0.2,0.2,0.3,0.4,0.3,0.6c0,0.3-0.1,0.5-0.3,0.7c-0.2,0.2-0.4,0.3-0.7,0.3S478.5,247.7,478.3,247.5z M478.3,249.8h1.3v9.5h-1.3
	V249.8z"/>
<path class="st5" d="M490.8,250.8c0.7,0.7,1.1,1.7,1.1,3v5.5h-1.3v-5.4c0-1-0.2-1.7-0.7-2.3c-0.5-0.5-1.2-0.8-2.1-0.8
	c-1,0-1.8,0.3-2.4,0.9c-0.6,0.6-0.9,1.4-0.9,2.5v5h-1.3v-9.5h1.2v1.7c0.3-0.6,0.8-1,1.4-1.3c0.6-0.3,1.3-0.5,2.2-0.5
	C489.2,249.8,490.1,250.1,490.8,250.8z"/>
<path class="st5" d="M504.1,249.8v8.3c0,1.6-0.4,2.8-1.2,3.6c-0.8,0.8-2,1.2-3.6,1.2c-0.9,0-1.7-0.1-2.5-0.4
	c-0.8-0.3-1.4-0.6-1.9-1.1l0.6-1c0.5,0.4,1,0.7,1.7,1c0.7,0.2,1.3,0.3,2.1,0.3c1.2,0,2.1-0.3,2.6-0.8c0.6-0.6,0.8-1.4,0.8-2.6v-1.2
	c-0.4,0.6-0.9,1.1-1.6,1.4c-0.6,0.3-1.4,0.5-2.1,0.5c-0.9,0-1.7-0.2-2.4-0.6c-0.7-0.4-1.3-0.9-1.7-1.6s-0.6-1.5-0.6-2.4
	s0.2-1.7,0.6-2.4s1-1.2,1.7-1.6c0.7-0.4,1.5-0.6,2.4-0.6c0.8,0,1.5,0.2,2.2,0.5c0.6,0.3,1.2,0.8,1.6,1.4v-1.8H504.1z M501.1,257.4
	c0.6-0.3,1-0.7,1.3-1.2c0.3-0.5,0.5-1.1,0.5-1.8s-0.2-1.3-0.5-1.8c-0.3-0.5-0.7-0.9-1.3-1.2c-0.5-0.3-1.2-0.4-1.9-0.4
	c-0.7,0-1.3,0.1-1.8,0.4c-0.5,0.3-1,0.7-1.3,1.2c-0.3,0.5-0.5,1.1-0.5,1.8s0.2,1.3,0.5,1.8s0.7,0.9,1.3,1.2c0.5,0.3,1.2,0.4,1.8,0.4
	S500.6,257.7,501.1,257.4z"/>
<path class="st5" d="M520.4,249.8l-4.7,10.6c-0.4,0.9-0.8,1.5-1.3,1.9c-0.5,0.4-1.1,0.6-1.8,0.6c-0.5,0-0.9-0.1-1.3-0.2
	c-0.4-0.1-0.7-0.4-1-0.6l0.6-1c0.5,0.5,1.1,0.7,1.7,0.7c0.4,0,0.8-0.1,1.1-0.4c0.3-0.2,0.6-0.6,0.9-1.2l0.4-0.9l-4.2-9.5h1.3l3.6,8
	l3.6-8H520.4z"/>
<path class="st5" d="M534.9,249.8l-4.2,9.5h-1.3l-4.2-9.5h1.3l3.5,8.1l3.6-8.1H534.9z"/>
<path class="st5" d="M544.6,255h-7.9c0.1,1,0.4,1.8,1.1,2.4c0.7,0.6,1.5,0.9,2.6,0.9c0.6,0,1.1-0.1,1.6-0.3c0.5-0.2,0.9-0.5,1.3-0.9
	l0.7,0.8c-0.4,0.5-0.9,0.9-1.6,1.2s-1.3,0.4-2.1,0.4c-1,0-1.8-0.2-2.6-0.6s-1.3-1-1.8-1.7c-0.4-0.7-0.6-1.6-0.6-2.5
	c0-0.9,0.2-1.8,0.6-2.5c0.4-0.7,1-1.3,1.7-1.7s1.5-0.6,2.4-0.6s1.7,0.2,2.4,0.6c0.7,0.4,1.2,1,1.6,1.7c0.4,0.7,0.6,1.6,0.6,2.5
	L544.6,255z M537.8,251.7c-0.6,0.6-1,1.3-1.1,2.3h6.7c-0.1-0.9-0.4-1.7-1.1-2.3c-0.6-0.6-1.4-0.9-2.3-0.9
	C539.2,250.8,538.4,251.1,537.8,251.7z"/>
<path class="st5" d="M554.9,250.8c0.7,0.7,1.1,1.7,1.1,3v5.5h-1.3v-5.4c0-1-0.2-1.7-0.7-2.3c-0.5-0.5-1.2-0.8-2.1-0.8
	c-1,0-1.8,0.3-2.4,0.9c-0.6,0.6-0.9,1.4-0.9,2.5v5h-1.3v-9.5h1.2v1.7c0.3-0.6,0.8-1,1.4-1.3c0.6-0.3,1.3-0.5,2.2-0.5
	C553.3,249.8,554.2,250.1,554.9,250.8z"/>
<path class="st5" d="M564.4,258.7c-0.2,0.2-0.5,0.4-0.9,0.5c-0.4,0.1-0.7,0.2-1.1,0.2c-0.9,0-1.6-0.2-2.1-0.7
	c-0.5-0.5-0.7-1.2-0.7-2v-5.7H558v-1.1h1.7v-2.1h1.3v2.1h2.9v1.1h-2.9v5.7c0,0.6,0.1,1,0.4,1.3c0.3,0.3,0.7,0.4,1.2,0.4
	c0.3,0,0.5,0,0.8-0.1s0.5-0.2,0.6-0.4L564.4,258.7z"/>
<path class="st5" d="M572.9,250.7c0.7,0.6,1,1.5,1,2.7v5.9h-1.2v-1.5c-0.3,0.5-0.7,0.9-1.3,1.2c-0.6,0.3-1.2,0.4-2,0.4
	c-1.1,0-1.9-0.3-2.5-0.8s-0.9-1.2-0.9-2c0-0.8,0.3-1.5,0.9-1.9c0.6-0.5,1.5-0.7,2.8-0.7h3v-0.6c0-0.8-0.2-1.4-0.7-1.9
	s-1.1-0.6-2-0.6c-0.6,0-1.2,0.1-1.7,0.3c-0.6,0.2-1,0.5-1.4,0.8l-0.6-1c0.5-0.4,1.1-0.7,1.7-0.9c0.7-0.2,1.4-0.3,2.1-0.3
	C571.3,249.8,572.3,250.1,572.9,250.7z M571.5,257.9c0.5-0.3,0.9-0.8,1.2-1.4v-1.5h-3c-1.6,0-2.4,0.6-2.4,1.7c0,0.6,0.2,1,0.6,1.3
	c0.4,0.3,1,0.5,1.8,0.5C570.3,258.4,571,258.2,571.5,257.9z"/>
<path class="st5" d="M416.2,280.4c-0.7-0.4-1.3-1-1.7-1.7c-0.4-0.7-0.6-1.6-0.6-2.5c0-0.9,0.2-1.8,0.6-2.5c0.4-0.7,1-1.3,1.7-1.7
	s1.6-0.6,2.5-0.6c0.8,0,1.5,0.2,2.2,0.5c0.6,0.3,1.1,0.8,1.5,1.4l-1,0.6c-0.3-0.5-0.7-0.8-1.2-1.1c-0.5-0.2-1-0.4-1.6-0.4
	c-0.7,0-1.3,0.2-1.8,0.5c-0.5,0.3-1,0.7-1.3,1.3c-0.3,0.6-0.5,1.2-0.5,1.9c0,0.7,0.2,1.4,0.5,1.9c0.3,0.6,0.7,1,1.3,1.3
	s1.2,0.5,1.8,0.5c0.6,0,1.1-0.1,1.6-0.3c0.5-0.2,0.9-0.6,1.2-1l1,0.6c-0.4,0.6-0.9,1.1-1.5,1.4c-0.6,0.3-1.4,0.5-2.2,0.5
	C417.8,281,417,280.8,416.2,280.4z"/>
<path class="st5" d="M426.2,280.4c-0.7-0.4-1.3-1-1.7-1.7c-0.4-0.7-0.6-1.6-0.6-2.5c0-0.9,0.2-1.8,0.6-2.5c0.4-0.7,1-1.3,1.7-1.7
	c0.7-0.4,1.6-0.6,2.5-0.6s1.7,0.2,2.5,0.6c0.7,0.4,1.3,1,1.7,1.7c0.4,0.7,0.6,1.6,0.6,2.5c0,0.9-0.2,1.8-0.6,2.5
	c-0.4,0.7-1,1.3-1.7,1.7c-0.7,0.4-1.6,0.6-2.5,0.6S426.9,280.8,426.2,280.4z M430.5,279.4c0.5-0.3,1-0.7,1.3-1.3
	c0.3-0.6,0.5-1.2,0.5-1.9c0-0.7-0.2-1.4-0.5-1.9c-0.3-0.6-0.7-1-1.3-1.3c-0.5-0.3-1.1-0.5-1.8-0.5s-1.3,0.2-1.8,0.5
	c-0.5,0.3-1,0.7-1.3,1.3c-0.3,0.6-0.5,1.2-0.5,1.9c0,0.7,0.2,1.4,0.5,1.9c0.3,0.6,0.7,1,1.3,1.3s1.1,0.5,1.8,0.5
	S429.9,279.7,430.5,279.4z"/>
<path class="st5" d="M437.5,280.4c-0.7-0.4-1.3-1-1.7-1.7c-0.4-0.7-0.6-1.6-0.6-2.5c0-0.9,0.2-1.8,0.6-2.5c0.4-0.7,1-1.3,1.7-1.7
	c0.7-0.4,1.6-0.6,2.5-0.6s1.7,0.2,2.5,0.6c0.7,0.4,1.3,1,1.7,1.7c0.4,0.7,0.6,1.6,0.6,2.5c0,0.9-0.2,1.8-0.6,2.5
	c-0.4,0.7-1,1.3-1.7,1.7c-0.7,0.4-1.6,0.6-2.5,0.6S438.2,280.8,437.5,280.4z M441.7,279.4c0.5-0.3,1-0.7,1.3-1.3
	c0.3-0.6,0.5-1.2,0.5-1.9c0-0.7-0.2-1.4-0.5-1.9c-0.3-0.6-0.7-1-1.3-1.3c-0.5-0.3-1.1-0.5-1.8-0.5s-1.3,0.2-1.8,0.5
	c-0.5,0.3-1,0.7-1.3,1.3c-0.3,0.6-0.5,1.2-0.5,1.9c0,0.7,0.2,1.4,0.5,1.9c0.3,0.6,0.7,1,1.3,1.3c0.5,0.3,1.1,0.5,1.8,0.5
	S441.2,279.7,441.7,279.4z"/>
<path class="st5" d="M454.6,272c0.7,0.4,1.3,1,1.7,1.7c0.4,0.7,0.6,1.6,0.6,2.5c0,0.9-0.2,1.8-0.6,2.5c-0.4,0.7-1,1.3-1.7,1.7
	s-1.5,0.6-2.4,0.6c-0.8,0-1.5-0.2-2.1-0.5c-0.6-0.3-1.1-0.8-1.5-1.4v5.3h-1.3v-13h1.2v1.9c0.4-0.6,0.9-1.1,1.5-1.4s1.3-0.5,2.1-0.5
	C453.1,271.4,453.9,271.6,454.6,272z M453.9,279.4c0.5-0.3,1-0.7,1.3-1.3c0.3-0.6,0.5-1.2,0.5-1.9c0-0.7-0.2-1.4-0.5-1.9
	c-0.3-0.6-0.7-1-1.3-1.3c-0.5-0.3-1.1-0.5-1.8-0.5c-0.7,0-1.3,0.2-1.8,0.5c-0.5,0.3-1,0.7-1.3,1.3c-0.3,0.6-0.5,1.2-0.5,1.9
	c0,0.7,0.2,1.4,0.5,1.9c0.3,0.6,0.7,1,1.3,1.3c0.5,0.3,1.1,0.5,1.8,0.5C452.8,279.8,453.4,279.7,453.9,279.4z"/>
<path class="st5" d="M467.8,276.6h-7.9c0.1,1,0.5,1.8,1.1,2.4c0.7,0.6,1.5,0.9,2.6,0.9c0.6,0,1.1-0.1,1.6-0.3
	c0.5-0.2,0.9-0.5,1.3-0.9l0.7,0.8c-0.4,0.5-0.9,0.9-1.6,1.2s-1.3,0.4-2.1,0.4c-1,0-1.8-0.2-2.6-0.6s-1.3-1-1.8-1.7
	c-0.4-0.7-0.6-1.6-0.6-2.5c0-0.9,0.2-1.8,0.6-2.5c0.4-0.7,1-1.3,1.7-1.7s1.5-0.6,2.4-0.6s1.7,0.2,2.4,0.6c0.7,0.4,1.2,1,1.6,1.7
	c0.4,0.7,0.6,1.6,0.6,2.5L467.8,276.6z M460.9,273.3c-0.6,0.6-1,1.3-1.1,2.3h6.7c-0.1-0.9-0.4-1.7-1.1-2.3c-0.6-0.6-1.4-0.9-2.3-0.9
	C462.3,272.4,461.5,272.7,460.9,273.3z"/>
<path class="st5" d="M473,271.8c0.6-0.3,1.3-0.5,2.2-0.5v1.2l-0.3,0c-1,0-1.8,0.3-2.3,0.9c-0.6,0.6-0.8,1.5-0.8,2.6v4.8h-1.3v-9.5
	h1.2v1.9C471.9,272.6,472.4,272.2,473,271.8z"/>
<path class="st5" d="M483.6,272.3c0.7,0.6,1,1.5,1,2.7v5.9h-1.2v-1.5c-0.3,0.5-0.7,0.9-1.3,1.2c-0.6,0.3-1.2,0.4-2,0.4
	c-1.1,0-1.9-0.3-2.5-0.8s-0.9-1.2-0.9-2c0-0.8,0.3-1.5,0.9-1.9c0.6-0.5,1.5-0.7,2.8-0.7h3V275c0-0.8-0.2-1.4-0.7-1.9s-1.1-0.6-2-0.6
	c-0.6,0-1.2,0.1-1.7,0.3c-0.6,0.2-1,0.5-1.4,0.8l-0.6-1c0.5-0.4,1.1-0.7,1.7-0.9c0.7-0.2,1.4-0.3,2.1-0.3
	C482,271.4,483,271.7,483.6,272.3z M482.2,279.5c0.5-0.3,0.9-0.8,1.2-1.4v-1.5h-3c-1.6,0-2.4,0.6-2.4,1.7c0,0.6,0.2,1,0.6,1.3
	c0.4,0.3,1,0.5,1.8,0.5C481.1,280,481.7,279.8,482.2,279.5z"/>
<path class="st5" d="M493.1,280.3c-0.2,0.2-0.5,0.4-0.9,0.5c-0.4,0.1-0.7,0.2-1.1,0.2c-0.9,0-1.6-0.2-2.1-0.7
	c-0.5-0.5-0.7-1.2-0.7-2v-5.7h-1.7v-1.1h1.7v-2.1h1.3v2.1h2.9v1.1h-2.9v5.7c0,0.6,0.1,1,0.4,1.3c0.3,0.3,0.7,0.4,1.2,0.4
	c0.3,0,0.5,0,0.8-0.1s0.5-0.2,0.6-0.4L493.1,280.3z"/>
<path class="st5" d="M495.4,269.1c-0.2-0.2-0.3-0.4-0.3-0.6c0-0.2,0.1-0.5,0.3-0.6c0.2-0.2,0.4-0.3,0.7-0.3s0.5,0.1,0.7,0.3
	c0.2,0.2,0.3,0.4,0.3,0.6c0,0.3-0.1,0.5-0.3,0.7c-0.2,0.2-0.4,0.3-0.7,0.3S495.6,269.3,495.4,269.1z M495.4,271.4h1.3v9.5h-1.3
	V271.4z"/>
<path class="st5" d="M508.2,271.4l-4.2,9.5h-1.3l-4.2-9.5h1.3l3.5,8.1l3.6-8.1H508.2z"/>
<path class="st5" d="M515.9,272.3c0.7,0.6,1,1.5,1,2.7v5.9h-1.2v-1.5c-0.3,0.5-0.7,0.9-1.3,1.2c-0.6,0.3-1.2,0.4-2,0.4
	c-1.1,0-1.9-0.3-2.5-0.8s-0.9-1.2-0.9-2c0-0.8,0.3-1.5,0.9-1.9c0.6-0.5,1.5-0.7,2.8-0.7h3V275c0-0.8-0.2-1.4-0.7-1.9s-1.1-0.6-2-0.6
	c-0.6,0-1.2,0.1-1.7,0.3c-0.6,0.2-1,0.5-1.4,0.8l-0.6-1c0.5-0.4,1.1-0.7,1.7-0.9c0.7-0.2,1.4-0.3,2.1-0.3
	C514.3,271.4,515.2,271.7,515.9,272.3z M514.4,279.5c0.5-0.3,0.9-0.8,1.2-1.4v-1.5h-3c-1.6,0-2.4,0.6-2.4,1.7c0,0.6,0.2,1,0.6,1.3
	c0.4,0.3,1,0.5,1.8,0.5C513.3,280,513.9,279.8,514.4,279.5z"/>
<path class="st5" d="M416.2,302c-0.7-0.4-1.3-1-1.7-1.7c-0.4-0.7-0.6-1.6-0.6-2.5c0-0.9,0.2-1.8,0.6-2.5c0.4-0.7,1-1.3,1.7-1.7
	s1.6-0.6,2.5-0.6c0.8,0,1.5,0.2,2.2,0.5c0.6,0.3,1.1,0.8,1.5,1.4l-1,0.6c-0.3-0.5-0.7-0.8-1.2-1.1c-0.5-0.2-1-0.4-1.6-0.4
	c-0.7,0-1.3,0.2-1.8,0.5c-0.5,0.3-1,0.7-1.3,1.3c-0.3,0.6-0.5,1.2-0.5,1.9c0,0.7,0.2,1.4,0.5,1.9c0.3,0.6,0.7,1,1.3,1.3
	s1.2,0.5,1.8,0.5c0.6,0,1.1-0.1,1.6-0.3c0.5-0.2,0.9-0.6,1.2-1l1,0.6c-0.4,0.6-0.9,1.1-1.5,1.4c-0.6,0.3-1.4,0.5-2.2,0.5
	C417.8,302.6,417,302.4,416.2,302z"/>
<path class="st5" d="M426.2,302c-0.7-0.4-1.3-1-1.7-1.7c-0.4-0.7-0.6-1.6-0.6-2.5c0-0.9,0.2-1.8,0.6-2.5c0.4-0.7,1-1.3,1.7-1.7
	c0.7-0.4,1.6-0.6,2.5-0.6s1.7,0.2,2.5,0.6c0.7,0.4,1.3,1,1.7,1.7c0.4,0.7,0.6,1.6,0.6,2.5c0,0.9-0.2,1.8-0.6,2.5
	c-0.4,0.7-1,1.3-1.7,1.7c-0.7,0.4-1.6,0.6-2.5,0.6S426.9,302.4,426.2,302z M430.5,301c0.5-0.3,1-0.7,1.3-1.3
	c0.3-0.6,0.5-1.2,0.5-1.9c0-0.7-0.2-1.4-0.5-1.9c-0.3-0.6-0.7-1-1.3-1.3c-0.5-0.3-1.1-0.5-1.8-0.5s-1.3,0.2-1.8,0.5
	c-0.5,0.3-1,0.7-1.3,1.3c-0.3,0.6-0.5,1.2-0.5,1.9c0,0.7,0.2,1.4,0.5,1.9c0.3,0.6,0.7,1,1.3,1.3s1.1,0.5,1.8,0.5
	S429.9,301.3,430.5,301z"/>
<path class="st5" d="M436.1,289.1h1.3v13.4h-1.3V289.1z"/>
<path class="st5" d="M449.1,298.2h-7.9c0.1,1,0.5,1.8,1.1,2.4c0.7,0.6,1.5,0.9,2.6,0.9c0.6,0,1.1-0.1,1.6-0.3
	c0.5-0.2,0.9-0.5,1.3-0.9l0.7,0.8c-0.4,0.5-0.9,0.9-1.6,1.2s-1.3,0.4-2.1,0.4c-1,0-1.8-0.2-2.6-0.6s-1.3-1-1.8-1.7
	c-0.4-0.7-0.6-1.6-0.6-2.5c0-0.9,0.2-1.8,0.6-2.5c0.4-0.7,1-1.3,1.7-1.7s1.5-0.6,2.4-0.6c0.9,0,1.7,0.2,2.4,0.6s1.2,1,1.6,1.7
	c0.4,0.7,0.6,1.6,0.6,2.5L449.1,298.2z M442.3,294.9c-0.6,0.6-1,1.3-1.1,2.3h6.7c-0.1-0.9-0.4-1.7-1.1-2.3c-0.6-0.6-1.4-0.9-2.3-0.9
	C443.7,294,442.9,294.3,442.3,294.9z"/>
<path class="st5" d="M453.2,302c-0.7-0.4-1.3-1-1.7-1.7c-0.4-0.7-0.6-1.6-0.6-2.5c0-0.9,0.2-1.8,0.6-2.5c0.4-0.7,1-1.3,1.7-1.7
	s1.6-0.6,2.5-0.6c0.8,0,1.5,0.2,2.2,0.5c0.6,0.3,1.1,0.8,1.5,1.4l-1,0.6c-0.3-0.5-0.7-0.8-1.2-1.1c-0.5-0.2-1-0.4-1.6-0.4
	c-0.7,0-1.3,0.2-1.8,0.5c-0.5,0.3-1,0.7-1.3,1.3c-0.3,0.6-0.5,1.2-0.5,1.9c0,0.7,0.2,1.4,0.5,1.9c0.3,0.6,0.7,1,1.3,1.3
	s1.2,0.5,1.8,0.5c0.6,0,1.1-0.1,1.6-0.3c0.5-0.2,0.9-0.6,1.2-1l1,0.6c-0.4,0.6-0.9,1.1-1.5,1.4c-0.6,0.3-1.4,0.5-2.2,0.5
	C454.8,302.6,453.9,302.4,453.2,302z"/>
<path class="st5" d="M467,301.9c-0.2,0.2-0.5,0.4-0.9,0.5c-0.4,0.1-0.7,0.2-1.1,0.2c-0.9,0-1.6-0.2-2.1-0.7c-0.5-0.5-0.7-1.2-0.7-2
	v-5.7h-1.7V293h1.7V291h1.3v2.1h2.9v1.1h-2.9v5.7c0,0.6,0.1,1,0.4,1.3c0.3,0.3,0.7,0.4,1.2,0.4c0.3,0,0.5,0,0.8-0.1s0.5-0.2,0.6-0.4
	L467,301.9z"/>
<path class="st5" d="M469.3,290.7c-0.2-0.2-0.3-0.4-0.3-0.6c0-0.2,0.1-0.5,0.3-0.6c0.2-0.2,0.4-0.3,0.7-0.3c0.3,0,0.5,0.1,0.7,0.3
	c0.2,0.2,0.3,0.4,0.3,0.6c0,0.3-0.1,0.5-0.3,0.7c-0.2,0.2-0.4,0.3-0.7,0.3C469.7,291,469.5,290.9,469.3,290.7z M469.3,293h1.3v9.5
	h-1.3V293z"/>
<path class="st5" d="M482.1,293l-4.2,9.5h-1.3l-4.2-9.5h1.3l3.5,8.1l3.6-8.1H482.1z"/>
<path class="st5" d="M489.8,293.9c0.7,0.6,1,1.5,1,2.7v5.9h-1.2V301c-0.3,0.5-0.7,0.9-1.3,1.2c-0.6,0.3-1.2,0.4-2,0.4
	c-1.1,0-1.9-0.3-2.5-0.8s-0.9-1.2-0.9-2c0-0.8,0.3-1.5,0.9-1.9c0.6-0.5,1.5-0.7,2.8-0.7h3v-0.6c0-0.8-0.2-1.4-0.7-1.9
	s-1.1-0.6-2-0.6c-0.6,0-1.2,0.1-1.7,0.3c-0.6,0.2-1,0.5-1.4,0.8l-0.6-1c0.5-0.4,1.1-0.7,1.7-0.9c0.7-0.2,1.4-0.3,2.1-0.3
	C488.2,293,489.1,293.3,489.8,293.9z M488.4,301.1c0.5-0.3,0.9-0.8,1.2-1.4v-1.5h-3c-1.6,0-2.4,0.6-2.4,1.7c0,0.6,0.2,1,0.6,1.3
	c0.4,0.3,1,0.5,1.8,0.5C487.2,301.6,487.8,301.4,488.4,301.1z"/>
<path class="st4" d="M185,200L102.1,72.3c25.4-16.5,52.7-24.6,82.9-24.6V200z"/>
<path class="st3" d="M185,200L42.9,145.4c12.1-31.4,31-54.8,59.2-73.1L185,200z"/>
<path class="st2" d="M185,200L40.2,153c1-3.2,1.5-4.4,2.7-7.5L185,200z"/>
<path class="st1" d="M185,200V47.8c84.1,0,152.3,68.2,152.3,152.3S269.1,352.3,185,352.3S32.8,284.1,32.8,200
	c0-16.8,2.3-31.1,7.5-47L185,200z"/>
<path class="st5" d="M149.5,91.5c1.1,0.5,1.9,1.4,2.5,2.4c0.6,1.1,0.9,2.4,0.9,4c0,1.7-0.3,3.1-1,4.4s-1.6,2.2-2.9,2.8
	c-1.2,0.6-2.6,1-4.3,1c-0.9,0-1.7-0.1-2.5-0.3c-0.8-0.2-1.5-0.5-2-0.9l1.8-3.5c0.7,0.5,1.6,0.8,2.7,0.8c0.9,0,1.6-0.2,2.1-0.6
	c0.6-0.4,0.9-1,1.1-1.9c-0.8,0.5-1.7,0.8-2.9,0.8c-0.9,0-1.7-0.2-2.5-0.6s-1.4-0.9-1.8-1.7c-0.5-0.7-0.7-1.5-0.7-2.5
	c0-1,0.3-1.9,0.8-2.7c0.5-0.8,1.2-1.4,2.2-1.8c0.9-0.4,1.9-0.6,3-0.6C147.2,90.7,148.5,91,149.5,91.5z M147.2,96.7
	c0.3-0.3,0.4-0.6,0.4-1.1s-0.1-0.8-0.4-1.1c-0.3-0.3-0.6-0.4-1.1-0.4c-0.4,0-0.8,0.1-1.1,0.4c-0.3,0.3-0.4,0.6-0.4,1.1
	s0.1,0.8,0.4,1.1c0.3,0.3,0.6,0.4,1.1,0.4C146.6,97.1,147,97,147.2,96.7z"/>
<path class="st5" d="M154.9,97.9c-0.7-0.7-1.1-1.7-1.1-3c0-0.9,0.2-1.6,0.5-2.2c0.3-0.6,0.8-1.1,1.4-1.4c0.6-0.3,1.3-0.5,2-0.5
	c0.7,0,1.4,0.2,2,0.5c0.6,0.3,1.1,0.8,1.4,1.4c0.3,0.6,0.5,1.4,0.5,2.2c0,1.3-0.4,2.3-1.1,3c-0.7,0.7-1.7,1.1-2.8,1.1
	C156.6,99,155.6,98.7,154.9,97.9z M166.4,91h3.5l-10,14.7h-3.5L166.4,91z M158.4,96.3c0.2-0.3,0.3-0.8,0.3-1.4s-0.1-1.1-0.3-1.4
	c-0.2-0.3-0.4-0.4-0.7-0.4c-0.3,0-0.5,0.1-0.7,0.4c-0.2,0.3-0.3,0.8-0.3,1.4s0.1,1.1,0.3,1.4c0.2,0.3,0.4,0.4,0.7,0.4
	C158,96.8,158.2,96.6,158.4,96.3z M165.7,104.9c-0.7-0.7-1.1-1.7-1.1-3c0-0.9,0.2-1.6,0.5-2.2c0.3-0.6,0.8-1.1,1.4-1.4
	c0.6-0.3,1.3-0.5,2-0.5c0.7,0,1.4,0.2,2,0.5c0.6,0.3,1.1,0.8,1.4,1.4s0.5,1.4,0.5,2.2c0,1.3-0.4,2.3-1.1,3c-0.7,0.7-1.7,1.1-2.8,1.1
	C167.4,105.9,166.4,105.6,165.7,104.9z M169.2,103.3c0.2-0.3,0.3-0.8,0.3-1.4s-0.1-1.1-0.3-1.4c-0.2-0.3-0.4-0.4-0.7-0.4
	c-0.3,0-0.5,0.1-0.7,0.4c-0.2,0.3-0.3,0.8-0.3,1.4s0.1,1.1,0.3,1.4c0.2,0.3,0.4,0.4,0.7,0.4C168.8,103.7,169,103.5,169.2,103.3z"/>
<path class="st5" d="M92.4,124.5v14.7h-5v-11h-2.5v-3.7H92.4z"/>
<path class="st5" d="M97.4,138.6c-1-0.6-1.8-1.5-2.4-2.6c-0.6-1.2-0.9-2.5-0.9-4.1c0-1.6,0.3-3,0.9-4.1c0.6-1.2,1.4-2,2.4-2.6
	s2.2-0.9,3.5-0.9c1.3,0,2.5,0.3,3.5,0.9c1,0.6,1.8,1.5,2.4,2.6c0.6,1.2,0.9,2.5,0.9,4.1c0,1.6-0.3,3-0.9,4.1c-0.6,1.2-1.4,2-2.4,2.6
	c-1,0.6-2.2,0.9-3.5,0.9C99.6,139.5,98.4,139.2,97.4,138.6z M102.6,131.8c0-2.5-0.6-3.7-1.7-3.7c-1.1,0-1.7,1.2-1.7,3.7
	s0.6,3.7,1.7,3.7C102,135.5,102.6,134.3,102.6,131.8z"/>
<path class="st5" d="M109.6,131.4c-0.7-0.7-1.1-1.7-1.1-3c0-0.9,0.2-1.6,0.5-2.2c0.3-0.6,0.8-1.1,1.4-1.4c0.6-0.3,1.3-0.5,2-0.5
	c0.7,0,1.4,0.2,2,0.5c0.6,0.3,1.1,0.8,1.4,1.4c0.3,0.6,0.5,1.4,0.5,2.2c0,1.3-0.4,2.3-1.1,3c-0.7,0.7-1.7,1.1-2.8,1.1
	C111.2,132.5,110.3,132.1,109.6,131.4z M121,124.5h3.5l-10,14.7H111L121,124.5z M113,129.8c0.2-0.3,0.3-0.8,0.3-1.4
	s-0.1-1.1-0.3-1.4c-0.2-0.3-0.4-0.4-0.7-0.4c-0.3,0-0.5,0.1-0.7,0.4c-0.2,0.3-0.3,0.8-0.3,1.4s0.1,1.1,0.3,1.4
	c0.2,0.3,0.4,0.4,0.7,0.4C112.7,130.2,112.9,130.1,113,129.8z M120.3,138.3c-0.7-0.7-1.1-1.7-1.1-3c0-0.9,0.2-1.6,0.5-2.2
	c0.3-0.6,0.8-1.1,1.4-1.4c0.6-0.3,1.3-0.5,2-0.5c0.7,0,1.4,0.2,2,0.5c0.6,0.3,1.1,0.8,1.4,1.4s0.5,1.4,0.5,2.2c0,1.3-0.4,2.3-1.1,3
	c-0.7,0.7-1.7,1.1-2.8,1.1C122,139.4,121.1,139,120.3,138.3z M123.8,136.7c0.2-0.3,0.3-0.8,0.3-1.4s-0.1-1.1-0.3-1.4
	c-0.2-0.3-0.4-0.4-0.7-0.4c-0.3,0-0.5,0.1-0.7,0.4c-0.2,0.3-0.3,0.8-0.3,1.4s0.1,1.1,0.3,1.4c0.2,0.3,0.4,0.4,0.7,0.4
	C123.4,137.1,123.6,137,123.8,136.7z"/>
<path class="st5" d="M82.9,154.5v14.7h-5v-11h-2.5v-3.7H82.9z"/>
<path class="st5" d="M85.5,161.4c-0.7-0.7-1.1-1.7-1.1-3c0-0.9,0.2-1.6,0.5-2.2c0.3-0.6,0.8-1.1,1.4-1.4c0.6-0.3,1.3-0.5,2-0.5
	c0.7,0,1.4,0.2,2,0.5c0.6,0.3,1.1,0.8,1.4,1.4c0.3,0.6,0.5,1.4,0.5,2.2c0,1.3-0.4,2.3-1.1,3c-0.7,0.7-1.7,1.1-2.8,1.1
	C87.2,162.5,86.2,162.1,85.5,161.4z M97,154.5h3.5l-10,14.7h-3.5L97,154.5z M89,159.8c0.2-0.3,0.3-0.8,0.3-1.4s-0.1-1.1-0.3-1.4
	c-0.2-0.3-0.4-0.4-0.7-0.4c-0.3,0-0.5,0.1-0.7,0.4c-0.2,0.3-0.3,0.8-0.3,1.4s0.1,1.1,0.3,1.4c0.2,0.3,0.4,0.4,0.7,0.4
	C88.6,160.2,88.8,160,89,159.8z M96.3,168.3c-0.7-0.7-1.1-1.7-1.1-3c0-0.9,0.2-1.6,0.5-2.2c0.3-0.6,0.8-1.1,1.4-1.4
	c0.6-0.3,1.3-0.5,2-0.5c0.7,0,1.4,0.2,2,0.5c0.6,0.3,1.1,0.8,1.4,1.4s0.5,1.4,0.5,2.2c0,1.3-0.4,2.3-1.1,3c-0.7,0.7-1.7,1.1-2.8,1.1
	C97.9,169.4,97,169,96.3,168.3z M99.8,166.7c0.2-0.3,0.3-0.8,0.3-1.4s-0.1-1.1-0.3-1.4c-0.2-0.3-0.4-0.4-0.7-0.4
	c-0.3,0-0.5,0.1-0.7,0.4c-0.2,0.3-0.3,0.8-0.3,1.4s0.1,1.1,0.3,1.4c0.2,0.3,0.4,0.4,0.7,0.4C99.4,167.1,99.6,167,99.8,166.7z"/>
<path class="st5" d="M233.8,278.9c0.3,0.6,0.5,1.2,0.5,1.9c0,0.9-0.3,1.8-0.8,2.5s-1.3,1.3-2.3,1.6c-1,0.4-2.1,0.6-3.4,0.6
	c-1.3,0-2.4-0.2-3.4-0.6s-1.8-0.9-2.3-1.6c-0.6-0.7-0.8-1.5-0.8-2.5c0-0.7,0.2-1.4,0.5-1.9c0.3-0.6,0.8-1,1.5-1.4
	c-1-0.8-1.4-1.7-1.4-2.9c0-0.9,0.3-1.7,0.8-2.3c0.5-0.7,1.2-1.2,2.1-1.5c0.9-0.4,2-0.5,3.2-0.5c1.2,0,2.2,0.2,3.2,0.5
	c0.9,0.4,1.6,0.9,2.1,1.5s0.8,1.4,0.8,2.3c0,1.2-0.5,2.1-1.4,2.9C233,277.8,233.5,278.3,233.8,278.9z M228.9,281.8
	c0.3-0.3,0.5-0.7,0.5-1.1s-0.2-0.8-0.5-1.1c-0.3-0.3-0.7-0.4-1.2-0.4c-0.5,0-0.9,0.1-1.2,0.4c-0.3,0.3-0.5,0.7-0.5,1.1
	s0.2,0.8,0.5,1.1c0.3,0.3,0.7,0.4,1.2,0.4C228.2,282.2,228.6,282,228.9,281.8z M226.9,273.8c-0.2,0.2-0.3,0.5-0.3,0.9
	c0,0.4,0.1,0.7,0.3,0.9c0.2,0.2,0.5,0.3,0.9,0.3c0.3,0,0.6-0.1,0.9-0.3c0.2-0.2,0.3-0.5,0.3-0.9c0-0.4-0.1-0.7-0.3-0.9
	c-0.2-0.2-0.5-0.3-0.9-0.3C227.4,273.5,227.1,273.6,226.9,273.8z"/>
<path class="st5" d="M238.7,284.6c-1-0.6-1.8-1.5-2.4-2.6s-0.9-2.5-0.9-4.1c0-1.6,0.3-3,0.9-4.1s1.4-2,2.4-2.6
	c1-0.6,2.2-0.9,3.5-0.9c1.3,0,2.5,0.3,3.5,0.9c1,0.6,1.8,1.5,2.4,2.6c0.6,1.2,0.9,2.5,0.9,4.1c0,1.6-0.3,3-0.9,4.1
	c-0.6,1.2-1.4,2-2.4,2.6c-1,0.6-2.2,0.9-3.5,0.9C240.8,285.5,239.7,285.2,238.7,284.6z M243.8,277.8c0-2.5-0.6-3.7-1.7-3.7
	c-1.1,0-1.7,1.2-1.7,3.7c0,2.5,0.6,3.7,1.7,3.7C243.3,281.5,243.8,280.3,243.8,277.8z"/>
<path class="st5" d="M250.8,277.4c-0.7-0.7-1.1-1.7-1.1-3c0-0.9,0.2-1.6,0.5-2.2s0.8-1.1,1.4-1.4s1.3-0.5,2-0.5c0.7,0,1.4,0.2,2,0.5
	c0.6,0.3,1.1,0.8,1.4,1.4s0.5,1.4,0.5,2.2c0,1.3-0.4,2.3-1.1,3c-0.7,0.7-1.7,1.1-2.8,1.1C252.5,278.5,251.6,278.1,250.8,277.4z
	 M262.3,270.5h3.5l-10,14.7h-3.5L262.3,270.5z M254.3,275.8c0.2-0.3,0.3-0.8,0.3-1.4c0-0.6-0.1-1.1-0.3-1.4
	c-0.2-0.3-0.4-0.4-0.7-0.4c-0.3,0-0.5,0.1-0.7,0.4c-0.2,0.3-0.3,0.8-0.3,1.4c0,0.6,0.1,1.1,0.3,1.4c0.2,0.3,0.4,0.4,0.7,0.4
	C253.9,276.2,254.1,276,254.3,275.8z M261.6,284.3c-0.7-0.7-1.1-1.7-1.1-3c0-0.9,0.2-1.6,0.5-2.2c0.3-0.6,0.8-1.1,1.4-1.4
	s1.3-0.5,2-0.5c0.7,0,1.4,0.2,2,0.5c0.6,0.3,1.1,0.8,1.4,1.4s0.5,1.4,0.5,2.2c0,1.3-0.4,2.3-1.1,3c-0.7,0.7-1.7,1.1-2.8,1.1
	C263.3,285.4,262.3,285,261.6,284.3z M265.1,282.7c0.2-0.3,0.3-0.8,0.3-1.4s-0.1-1.1-0.3-1.4c-0.2-0.3-0.4-0.4-0.7-0.4
	c-0.3,0-0.5,0.1-0.7,0.4c-0.2,0.3-0.3,0.8-0.3,1.4s0.1,1.1,0.3,1.4c0.2,0.3,0.4,0.4,0.7,0.4C264.7,283.1,264.9,283,265.1,282.7z"/>
</svg>
