<?xml version="1.0" encoding="utf-8"?>
<!-- Generator: Adobe Illustrator 24.2.0, SVG Export Plug-In . SVG Version: 6.00 Build 0)  -->
<svg version="1.1" id="grafico_4" xmlns="http://www.w3.org/2000/svg" xmlns:xlink="http://www.w3.org/1999/xlink" x="0px" y="0px"
	 viewBox="0 0 620 400" style="enable-background:new 0 0 620 400;" xml:space="preserve">
<style type="text/css">
	.st0{fill:#F1F2F2;}
	.st1{fill:#7495DA;}
	.st2{fill:#FF3657;}
	.st3{fill:#FEFF01;}
	.st4{fill:#CC9AFD;}
	.st5{fill:#413E3E;}
</style>
<path class="st0" d="M590,335H401.3c-5.3,0-10.4-2.1-14.2-5.9L184.3,200L387.2,71.8c3.7-3.7,8.8-5.8,14-5.8H590c5.5,0,10,4.5,10,10
	v249C600,330.5,595.5,335,590,335z"/>
<circle class="st0" cx="185" cy="200" r="160"/>
<path class="st1" d="M400,116.9h-4c-1.7,0-3-1.3-3-3v-4c0-1.7,1.3-3,3-3h4c1.7,0,3,1.3,3,3v4C403,115.5,401.7,116.9,400,116.9z"/>
<path class="st2" d="M400,161.9h-4c-1.7,0-3-1.3-3-3v-4c0-1.7,1.3-3,3-3h4c1.7,0,3,1.3,3,3v4C403,160.5,401.7,161.9,400,161.9z"/>
<path class="st3" d="M400,225.9h-4c-1.7,0-3-1.3-3-3v-4c0-1.7,1.3-3,3-3h4c1.7,0,3,1.3,3,3v4C403,224.5,401.7,225.9,400,225.9z"/>
<path class="st4" d="M400,268.9h-4c-1.7,0-3-1.3-3-3v-4c0-1.7,1.3-3,3-3h4c1.7,0,3,1.3,3,3v4C403,267.5,401.7,268.9,400,268.9z"/>
<path class="st5" d="M423.6,107.4c0.9,0.8,1.4,1.8,1.4,3.2c0,1.3-0.5,2.4-1.4,3.2c-0.9,0.8-2.2,1.1-3.8,1.1h-3.4v4h-1.3v-12.6h4.7
	C421.4,106.3,422.7,106.7,423.6,107.4z M422.6,112.9c0.7-0.5,1-1.3,1-2.3c0-1-0.3-1.8-1-2.3c-0.7-0.5-1.6-0.8-2.9-0.8h-3.3v6.3h3.3
	C421,113.7,422,113.5,422.6,112.9z"/>
<path class="st5" d="M429.9,109.8c0.6-0.3,1.3-0.5,2.2-0.5v1.2l-0.3,0c-1,0-1.8,0.3-2.3,0.9c-0.6,0.6-0.8,1.5-0.8,2.6v4.8h-1.3v-9.5
	h1.2v1.9C428.8,110.6,429.3,110.2,429.9,109.8z"/>
<path class="st5" d="M435.7,118.4c-0.7-0.4-1.3-1-1.7-1.7c-0.4-0.7-0.6-1.6-0.6-2.5c0-0.9,0.2-1.8,0.6-2.5c0.4-0.7,1-1.3,1.7-1.7
	c0.7-0.4,1.6-0.6,2.5-0.6s1.7,0.2,2.5,0.6c0.7,0.4,1.3,1,1.7,1.7c0.4,0.7,0.6,1.6,0.6,2.5c0,0.9-0.2,1.8-0.6,2.5
	c-0.4,0.7-1,1.3-1.7,1.7c-0.7,0.4-1.6,0.6-2.5,0.6S436.4,118.8,435.7,118.4z M440,117.4c0.5-0.3,1-0.7,1.3-1.3
	c0.3-0.6,0.5-1.2,0.5-1.9c0-0.7-0.2-1.4-0.5-1.9c-0.3-0.6-0.7-1-1.3-1.3c-0.5-0.3-1.1-0.5-1.8-0.5s-1.3,0.2-1.8,0.5
	c-0.5,0.3-1,0.7-1.3,1.3c-0.3,0.6-0.5,1.2-0.5,1.9c0,0.7,0.2,1.4,0.5,1.9c0.3,0.6,0.7,1,1.3,1.3s1.1,0.5,1.8,0.5
	S439.4,117.7,440,117.4z"/>
<path class="st5" d="M454.2,105.5v13.4H453V117c-0.4,0.6-0.9,1.1-1.5,1.5s-1.3,0.5-2.1,0.5c-0.9,0-1.7-0.2-2.4-0.6
	c-0.7-0.4-1.3-1-1.7-1.7c-0.4-0.7-0.6-1.6-0.6-2.5c0-0.9,0.2-1.8,0.6-2.5c0.4-0.7,1-1.3,1.7-1.7c0.7-0.4,1.5-0.6,2.4-0.6
	c0.8,0,1.5,0.2,2.1,0.5c0.6,0.3,1.1,0.8,1.5,1.4v-5.7H454.2z M451.2,117.4c0.5-0.3,1-0.7,1.3-1.3c0.3-0.6,0.5-1.2,0.5-1.9
	c0-0.7-0.2-1.4-0.5-1.9c-0.3-0.6-0.7-1-1.3-1.3c-0.5-0.3-1.1-0.5-1.8-0.5c-0.7,0-1.3,0.2-1.8,0.5c-0.5,0.3-1,0.7-1.3,1.3
	c-0.3,0.6-0.5,1.2-0.5,1.9c0,0.7,0.2,1.4,0.5,1.9c0.3,0.6,0.7,1,1.3,1.3s1.1,0.5,1.8,0.5C450.1,117.8,450.7,117.7,451.2,117.4z"/>
<path class="st5" d="M466.3,109.4v9.5h-1.2v-1.7c-0.3,0.6-0.8,1-1.4,1.3c-0.6,0.3-1.3,0.5-2,0.5c-1.2,0-2.2-0.3-2.9-1
	c-0.7-0.7-1.1-1.7-1.1-3v-5.5h1.3v5.4c0,1,0.2,1.8,0.7,2.3c0.5,0.5,1.2,0.8,2.1,0.8c1,0,1.8-0.3,2.4-0.9c0.6-0.6,0.9-1.4,0.9-2.5v-5
	H466.3z"/>
<path class="st5" d="M471.3,118.4c-0.7-0.4-1.3-1-1.7-1.7c-0.4-0.7-0.6-1.6-0.6-2.5c0-0.9,0.2-1.8,0.6-2.5c0.4-0.7,1-1.3,1.7-1.7
	s1.6-0.6,2.5-0.6c0.8,0,1.5,0.2,2.2,0.5c0.6,0.3,1.1,0.8,1.5,1.4l-1,0.6c-0.3-0.5-0.7-0.8-1.2-1.1c-0.5-0.2-1-0.4-1.6-0.4
	c-0.7,0-1.3,0.2-1.8,0.5c-0.5,0.3-1,0.7-1.3,1.3c-0.3,0.6-0.5,1.2-0.5,1.9c0,0.7,0.2,1.4,0.5,1.9c0.3,0.6,0.7,1,1.3,1.3
	s1.2,0.5,1.8,0.5c0.6,0,1.1-0.1,1.6-0.3c0.5-0.2,0.9-0.6,1.2-1l1,0.6c-0.4,0.6-0.9,1.1-1.5,1.4c-0.6,0.3-1.4,0.5-2.2,0.5
	C472.9,119,472.1,118.8,471.3,118.4z"/>
<path class="st5" d="M488.1,114.6h-7.9c0.1,1,0.4,1.8,1.1,2.4c0.7,0.6,1.5,0.9,2.6,0.9c0.6,0,1.1-0.1,1.6-0.3
	c0.5-0.2,0.9-0.5,1.3-0.9l0.7,0.8c-0.4,0.5-0.9,0.9-1.6,1.2s-1.3,0.4-2.1,0.4c-1,0-1.8-0.2-2.6-0.6s-1.3-1-1.8-1.7
	c-0.4-0.7-0.6-1.6-0.6-2.5c0-0.9,0.2-1.8,0.6-2.5c0.4-0.7,1-1.3,1.7-1.7s1.5-0.6,2.4-0.6s1.7,0.2,2.4,0.6c0.7,0.4,1.2,1,1.6,1.7
	c0.4,0.7,0.6,1.6,0.6,2.5L488.1,114.6z M481.3,111.3c-0.6,0.6-1,1.3-1.1,2.3h6.7c-0.1-0.9-0.4-1.7-1.1-2.3c-0.6-0.6-1.4-0.9-2.3-0.9
	C482.6,110.4,481.9,110.7,481.3,111.3z"/>
<path class="st5" d="M493.3,109.8c0.6-0.3,1.3-0.5,2.2-0.5v1.2l-0.3,0c-1,0-1.8,0.3-2.3,0.9c-0.6,0.6-0.8,1.5-0.8,2.6v4.8h-1.3v-9.5
	h1.2v1.9C492.3,110.6,492.7,110.2,493.3,109.8z"/>
<path class="st5" d="M415.9,161.8c-0.9-0.3-1.5-0.7-2-1.2l0.5-1c0.5,0.5,1.1,0.8,1.8,1.1c0.8,0.3,1.5,0.4,2.3,0.4
	c1.1,0,2-0.2,2.5-0.6c0.6-0.4,0.8-1,0.8-1.6c0-0.5-0.2-0.9-0.5-1.2s-0.7-0.5-1.1-0.7s-1.1-0.3-1.9-0.5c-0.9-0.2-1.7-0.5-2.3-0.7
	s-1-0.6-1.4-1c-0.4-0.5-0.6-1.1-0.6-1.9c0-0.6,0.2-1.2,0.5-1.7c0.3-0.5,0.9-0.9,1.5-1.3c0.7-0.3,1.6-0.5,2.6-0.5
	c0.7,0,1.4,0.1,2.1,0.3s1.3,0.5,1.8,0.8l-0.5,1.1c-0.5-0.3-1.1-0.6-1.7-0.8c-0.6-0.2-1.2-0.3-1.8-0.3c-1.1,0-1.9,0.2-2.5,0.6
	c-0.6,0.4-0.8,1-0.8,1.6c0,0.5,0.2,0.9,0.5,1.2c0.3,0.3,0.7,0.5,1.2,0.7s1.1,0.3,1.9,0.5c0.9,0.2,1.7,0.5,2.2,0.7
	c0.6,0.2,1.1,0.6,1.4,1c0.4,0.5,0.6,1.1,0.6,1.8c0,0.6-0.2,1.2-0.5,1.7c-0.3,0.5-0.9,0.9-1.6,1.2c-0.7,0.3-1.6,0.5-2.6,0.5
	C417.6,162.2,416.7,162,415.9,161.8z"/>
<path class="st5" d="M434.1,157.8h-7.9c0.1,1,0.5,1.8,1.1,2.4c0.7,0.6,1.5,0.9,2.6,0.9c0.6,0,1.1-0.1,1.6-0.3
	c0.5-0.2,0.9-0.5,1.3-0.9l0.7,0.8c-0.4,0.5-0.9,0.9-1.6,1.2s-1.3,0.4-2.1,0.4c-1,0-1.8-0.2-2.6-0.6s-1.3-1-1.8-1.7
	c-0.4-0.7-0.6-1.6-0.6-2.5c0-0.9,0.2-1.8,0.6-2.5c0.4-0.7,1-1.3,1.7-1.7s1.5-0.6,2.4-0.6c0.9,0,1.7,0.2,2.4,0.6s1.2,1,1.6,1.7
	c0.4,0.7,0.6,1.6,0.6,2.5L434.1,157.8z M427.3,154.5c-0.6,0.6-1,1.3-1.1,2.3h6.7c-0.1-0.9-0.4-1.7-1.1-2.3c-0.6-0.6-1.4-0.9-2.3-0.9
	C428.6,153.6,427.9,153.9,427.3,154.5z"/>
<path class="st5" d="M436.7,148.7h1.3v13.4h-1.3V148.7z"/>
<path class="st5" d="M441.6,148.7h1.3v13.4h-1.3V148.7z"/>
<path class="st5" d="M454.7,157.8h-7.9c0.1,1,0.5,1.8,1.1,2.4c0.7,0.6,1.5,0.9,2.6,0.9c0.6,0,1.1-0.1,1.6-0.3
	c0.5-0.2,0.9-0.5,1.3-0.9l0.7,0.8c-0.4,0.5-0.9,0.9-1.6,1.2s-1.3,0.4-2.1,0.4c-1,0-1.8-0.2-2.6-0.6s-1.3-1-1.8-1.7
	c-0.4-0.7-0.6-1.6-0.6-2.5c0-0.9,0.2-1.8,0.6-2.5c0.4-0.7,1-1.3,1.7-1.7s1.5-0.6,2.4-0.6c0.9,0,1.7,0.2,2.4,0.6s1.2,1,1.6,1.7
	c0.4,0.7,0.6,1.6,0.6,2.5L454.7,157.8z M447.8,154.5c-0.6,0.6-1,1.3-1.1,2.3h6.7c-0.1-0.9-0.4-1.7-1.1-2.3c-0.6-0.6-1.4-0.9-2.3-0.9
	C449.2,153.6,448.4,153.9,447.8,154.5z"/>
<path class="st5" d="M459.9,153c0.6-0.3,1.3-0.5,2.2-0.5v1.2l-0.3,0c-1,0-1.8,0.3-2.3,0.9c-0.6,0.6-0.8,1.5-0.8,2.6v4.8h-1.3v-9.5
	h1.2v1.9C458.8,153.8,459.3,153.4,459.9,153z"/>
<path class="st5" d="M424,182.5v1.2h-8.9v-12.6h8.6v1.2h-7.3v4.5h6.5v1.1h-6.5v4.7H424z"/>
<path class="st5" d="M434.5,175.2c0.7,0.7,1.1,1.7,1.1,3v5.5h-1.3v-5.4c0-1-0.2-1.7-0.7-2.3c-0.5-0.5-1.2-0.8-2.1-0.8
	c-1,0-1.8,0.3-2.4,0.9c-0.6,0.6-0.9,1.4-0.9,2.5v5h-1.3v-9.5h1.2v1.7c0.3-0.6,0.8-1,1.4-1.3c0.6-0.3,1.3-0.5,2.2-0.5
	C432.9,174.2,433.8,174.5,434.5,175.2z"/>
<path class="st5" d="M444,183.1c-0.2,0.2-0.5,0.4-0.9,0.5c-0.4,0.1-0.7,0.2-1.1,0.2c-0.9,0-1.6-0.2-2.1-0.7c-0.5-0.5-0.7-1.2-0.7-2
	v-5.7h-1.7v-1.1h1.7v-2.1h1.3v2.1h2.9v1.1h-2.9v5.7c0,0.6,0.1,1,0.4,1.3s0.7,0.4,1.2,0.4c0.3,0,0.5,0,0.8-0.1
	c0.2-0.1,0.5-0.2,0.6-0.4L444,183.1z"/>
<path class="st5" d="M448.9,174.6c0.6-0.3,1.3-0.5,2.2-0.5v1.2l-0.3,0c-1,0-1.8,0.3-2.3,0.9c-0.6,0.6-0.8,1.5-0.8,2.6v4.8h-1.3v-9.5
	h1.2v1.9C447.9,175.4,448.3,175,448.9,174.6z"/>
<path class="st5" d="M461.6,179.4h-7.9c0.1,1,0.5,1.8,1.1,2.4c0.7,0.6,1.5,0.9,2.6,0.9c0.6,0,1.1-0.1,1.6-0.3
	c0.5-0.2,0.9-0.5,1.3-0.9l0.7,0.8c-0.4,0.5-0.9,0.9-1.6,1.2s-1.3,0.4-2.1,0.4c-1,0-1.8-0.2-2.6-0.6s-1.3-1-1.8-1.7
	c-0.4-0.7-0.6-1.6-0.6-2.5c0-0.9,0.2-1.8,0.6-2.5c0.4-0.7,1-1.3,1.7-1.7s1.5-0.6,2.4-0.6s1.7,0.2,2.4,0.6c0.7,0.4,1.2,1,1.6,1.7
	c0.4,0.7,0.6,1.6,0.6,2.5L461.6,179.4z M454.7,176.1c-0.6,0.6-1,1.3-1.1,2.3h6.7c-0.1-0.9-0.4-1.7-1.1-2.3c-0.6-0.6-1.4-0.9-2.3-0.9
	C456.1,175.2,455.3,175.5,454.7,176.1z"/>
<path class="st5" d="M471.5,174.8c0.7,0.4,1.3,1,1.7,1.7c0.4,0.7,0.6,1.6,0.6,2.5c0,0.9-0.2,1.8-0.6,2.5s-1,1.3-1.7,1.7
	c-0.7,0.4-1.5,0.6-2.4,0.6c-0.8,0-1.5-0.2-2.1-0.5c-0.6-0.3-1.1-0.8-1.5-1.4v5.3h-1.3v-13h1.2v1.9c0.4-0.6,0.9-1.1,1.5-1.4
	c0.6-0.3,1.3-0.5,2.1-0.5C470,174.2,470.8,174.4,471.5,174.8z M470.8,182.2c0.5-0.3,1-0.7,1.3-1.3c0.3-0.6,0.5-1.2,0.5-1.9
	c0-0.7-0.2-1.4-0.5-1.9c-0.3-0.6-0.7-1-1.3-1.3c-0.5-0.3-1.1-0.5-1.8-0.5c-0.7,0-1.3,0.2-1.8,0.5c-0.5,0.3-1,0.7-1.3,1.3
	c-0.3,0.6-0.5,1.2-0.5,1.9c0,0.7,0.2,1.4,0.5,1.9c0.3,0.6,0.7,1,1.3,1.3s1.1,0.5,1.8,0.5C469.6,182.6,470.2,182.5,470.8,182.2z"/>
<path class="st5" d="M479,174.6c0.6-0.3,1.3-0.5,2.2-0.5v1.2l-0.3,0c-1,0-1.8,0.3-2.3,0.9c-0.6,0.6-0.8,1.5-0.8,2.6v4.8h-1.3v-9.5
	h1.2v1.9C477.9,175.4,478.4,175,479,174.6z"/>
<path class="st5" d="M491.6,179.4h-7.9c0.1,1,0.4,1.8,1.1,2.4c0.7,0.6,1.5,0.9,2.6,0.9c0.6,0,1.1-0.1,1.6-0.3
	c0.5-0.2,0.9-0.5,1.3-0.9l0.7,0.8c-0.4,0.5-0.9,0.9-1.6,1.2s-1.3,0.4-2.1,0.4c-1,0-1.8-0.2-2.6-0.6s-1.3-1-1.8-1.7
	c-0.4-0.7-0.6-1.6-0.6-2.5c0-0.9,0.2-1.8,0.6-2.5c0.4-0.7,1-1.3,1.7-1.7s1.5-0.6,2.4-0.6s1.7,0.2,2.4,0.6c0.7,0.4,1.2,1,1.6,1.7
	c0.4,0.7,0.6,1.6,0.6,2.5L491.6,179.4z M484.8,176.1c-0.6,0.6-1,1.3-1.1,2.3h6.7c-0.1-0.9-0.4-1.7-1.1-2.3c-0.6-0.6-1.4-0.9-2.3-0.9
	C486.1,175.2,485.4,175.5,484.8,176.1z"/>
<path class="st5" d="M501.9,175.2c0.7,0.7,1.1,1.7,1.1,3v5.5h-1.3v-5.4c0-1-0.2-1.7-0.7-2.3c-0.5-0.5-1.2-0.8-2.1-0.8
	c-1,0-1.8,0.3-2.4,0.9c-0.6,0.6-0.9,1.4-0.9,2.5v5h-1.3v-9.5h1.2v1.7c0.3-0.6,0.8-1,1.4-1.3c0.6-0.3,1.3-0.5,2.2-0.5
	C500.3,174.2,501.2,174.5,501.9,175.2z"/>
<path class="st5" d="M514.7,179.4h-7.9c0.1,1,0.4,1.8,1.1,2.4c0.7,0.6,1.5,0.9,2.6,0.9c0.6,0,1.1-0.1,1.6-0.3
	c0.5-0.2,0.9-0.5,1.3-0.9l0.7,0.8c-0.4,0.5-0.9,0.9-1.6,1.2s-1.3,0.4-2.1,0.4c-1,0-1.8-0.2-2.6-0.6s-1.3-1-1.8-1.7
	c-0.4-0.7-0.6-1.6-0.6-2.5c0-0.9,0.2-1.8,0.6-2.5c0.4-0.7,1-1.3,1.7-1.7s1.5-0.6,2.4-0.6s1.7,0.2,2.4,0.6c0.7,0.4,1.2,1,1.6,1.7
	c0.4,0.7,0.6,1.6,0.6,2.5L514.7,179.4z M507.9,176.1c-0.6,0.6-1,1.3-1.1,2.3h6.7c-0.1-0.9-0.4-1.7-1.1-2.3c-0.6-0.6-1.4-0.9-2.3-0.9
	C509.2,175.2,508.5,175.5,507.9,176.1z"/>
<path class="st5" d="M525.9,174.2v9.5h-1.2V182c-0.3,0.6-0.8,1-1.4,1.3c-0.6,0.3-1.3,0.5-2,0.5c-1.2,0-2.2-0.3-2.9-1
	c-0.7-0.7-1.1-1.7-1.1-3v-5.5h1.3v5.4c0,1,0.2,1.8,0.7,2.3s1.2,0.8,2.1,0.8c1,0,1.8-0.3,2.4-0.9c0.6-0.6,0.9-1.4,0.9-2.5v-5H525.9z"
	/>
<path class="st5" d="M532,174.6c0.6-0.3,1.3-0.5,2.2-0.5v1.2l-0.3,0c-1,0-1.8,0.3-2.3,0.9c-0.6,0.6-0.8,1.5-0.8,2.6v4.8h-1.3v-9.5
	h1.2v1.9C531,175.4,531.4,175,532,174.6z"/>
<path class="st5" d="M416.4,215.4v5h6.5v1.2h-6.5v5.3h-1.3v-12.6h8.6v1.2H416.4z"/>
<path class="st5" d="M428.6,217.8c0.6-0.3,1.3-0.5,2.2-0.5v1.2l-0.3,0c-1,0-1.8,0.3-2.3,0.9c-0.6,0.6-0.8,1.5-0.8,2.6v4.8H426v-9.5
	h1.2v1.9C427.5,218.6,428,218.2,428.6,217.8z"/>
<path class="st5" d="M441.2,222.6h-7.9c0.1,1,0.5,1.8,1.1,2.4c0.7,0.6,1.5,0.9,2.6,0.9c0.6,0,1.1-0.1,1.6-0.3
	c0.5-0.2,0.9-0.5,1.3-0.9l0.7,0.8c-0.4,0.5-0.9,0.9-1.6,1.2s-1.3,0.4-2.1,0.4c-1,0-1.8-0.2-2.6-0.6s-1.3-1-1.8-1.7
	c-0.4-0.7-0.6-1.6-0.6-2.5c0-0.9,0.2-1.8,0.6-2.5c0.4-0.7,1-1.3,1.7-1.7s1.5-0.6,2.4-0.6s1.7,0.2,2.4,0.6c0.7,0.4,1.2,1,1.6,1.7
	c0.4,0.7,0.6,1.6,0.6,2.5L441.2,222.6z M434.4,219.3c-0.6,0.6-1,1.3-1.1,2.3h6.7c-0.1-0.9-0.4-1.7-1.1-2.3c-0.6-0.6-1.4-0.9-2.3-0.9
	C435.8,218.4,435,218.7,434.4,219.3z"/>
<path class="st5" d="M452.1,222.6h-7.9c0.1,1,0.5,1.8,1.1,2.4c0.7,0.6,1.5,0.9,2.6,0.9c0.6,0,1.1-0.1,1.6-0.3
	c0.5-0.2,0.9-0.5,1.3-0.9l0.7,0.8c-0.4,0.5-0.9,0.9-1.6,1.2s-1.3,0.4-2.1,0.4c-1,0-1.8-0.2-2.6-0.6s-1.3-1-1.8-1.7
	c-0.4-0.7-0.6-1.6-0.6-2.5c0-0.9,0.2-1.8,0.6-2.5c0.4-0.7,1-1.3,1.7-1.7s1.5-0.6,2.4-0.6c0.9,0,1.7,0.2,2.4,0.6s1.2,1,1.6,1.7
	c0.4,0.7,0.6,1.6,0.6,2.5L452.1,222.6z M445.3,219.3c-0.6,0.6-1,1.3-1.1,2.3h6.7c-0.1-0.9-0.4-1.7-1.1-2.3c-0.6-0.6-1.4-0.9-2.3-0.9
	C446.6,218.4,445.9,218.7,445.3,219.3z"/>
<path class="st5" d="M463.4,213.5v13.4h-1.2V225c-0.4,0.6-0.9,1.1-1.5,1.5c-0.6,0.3-1.3,0.5-2.1,0.5c-0.9,0-1.7-0.2-2.4-0.6
	c-0.7-0.4-1.3-1-1.7-1.7c-0.4-0.7-0.6-1.6-0.6-2.5c0-0.9,0.2-1.8,0.6-2.5c0.4-0.7,1-1.3,1.7-1.7c0.7-0.4,1.5-0.6,2.4-0.6
	c0.8,0,1.5,0.2,2.1,0.5c0.6,0.3,1.1,0.8,1.5,1.4v-5.7H463.4z M460.4,225.4c0.5-0.3,1-0.7,1.3-1.3c0.3-0.6,0.5-1.2,0.5-1.9
	c0-0.7-0.2-1.4-0.5-1.9c-0.3-0.6-0.7-1-1.3-1.3c-0.5-0.3-1.1-0.5-1.8-0.5c-0.7,0-1.3,0.2-1.8,0.5c-0.5,0.3-1,0.7-1.3,1.3
	c-0.3,0.6-0.5,1.2-0.5,1.9c0,0.7,0.2,1.4,0.5,1.9c0.3,0.6,0.7,1,1.3,1.3c0.5,0.3,1.1,0.5,1.8,0.5
	C459.3,225.8,459.9,225.7,460.4,225.4z"/>
<path class="st5" d="M468.4,226.4c-0.7-0.4-1.3-1-1.7-1.7c-0.4-0.7-0.6-1.6-0.6-2.5c0-0.9,0.2-1.8,0.6-2.5c0.4-0.7,1-1.3,1.7-1.7
	c0.7-0.4,1.6-0.6,2.5-0.6s1.7,0.2,2.5,0.6c0.7,0.4,1.3,1,1.7,1.7c0.4,0.7,0.6,1.6,0.6,2.5c0,0.9-0.2,1.8-0.6,2.5
	c-0.4,0.7-1,1.3-1.7,1.7c-0.7,0.4-1.6,0.6-2.5,0.6S469.1,226.8,468.4,226.4z M472.6,225.4c0.5-0.3,1-0.7,1.3-1.3
	c0.3-0.6,0.5-1.2,0.5-1.9c0-0.7-0.2-1.4-0.5-1.9c-0.3-0.6-0.7-1-1.3-1.3c-0.5-0.3-1.1-0.5-1.8-0.5s-1.3,0.2-1.8,0.5
	c-0.5,0.3-1,0.7-1.3,1.3c-0.3,0.6-0.5,1.2-0.5,1.9c0,0.7,0.2,1.4,0.5,1.9c0.3,0.6,0.7,1,1.3,1.3c0.5,0.3,1.1,0.5,1.8,0.5
	S472.1,225.7,472.6,225.4z"/>
<path class="st5" d="M492.8,218.4c0.7,0.7,1,1.7,1,3v5.5h-1.3v-5.4c0-1-0.2-1.7-0.7-2.3c-0.5-0.5-1.1-0.8-2-0.8
	c-1,0-1.8,0.3-2.3,0.9c-0.6,0.6-0.8,1.4-0.8,2.5v5h-1.3v-5.4c0-1-0.2-1.7-0.7-2.3c-0.5-0.5-1.1-0.8-2-0.8c-1,0-1.7,0.3-2.3,0.9
	c-0.6,0.6-0.9,1.4-0.9,2.5v5h-1.3v-9.5h1.2v1.7c0.3-0.6,0.8-1,1.4-1.3c0.6-0.3,1.3-0.5,2.1-0.5c0.8,0,1.5,0.2,2.1,0.5s1,0.8,1.3,1.5
	c0.3-0.6,0.8-1.1,1.5-1.5c0.7-0.4,1.4-0.5,2.2-0.5C491.2,217.4,492.2,217.7,492.8,218.4z"/>
<path class="st5" d="M505.6,222.6h-7.9c0.1,1,0.4,1.8,1.1,2.4c0.7,0.6,1.5,0.9,2.6,0.9c0.6,0,1.1-0.1,1.6-0.3
	c0.5-0.2,0.9-0.5,1.3-0.9l0.7,0.8c-0.4,0.5-0.9,0.9-1.6,1.2s-1.3,0.4-2.1,0.4c-1,0-1.8-0.2-2.6-0.6s-1.3-1-1.8-1.7
	c-0.4-0.7-0.6-1.6-0.6-2.5c0-0.9,0.2-1.8,0.6-2.5c0.4-0.7,1-1.3,1.7-1.7s1.5-0.6,2.4-0.6s1.7,0.2,2.4,0.6c0.7,0.4,1.2,1,1.6,1.7
	c0.4,0.7,0.6,1.6,0.6,2.5L505.6,222.6z M498.7,219.3c-0.6,0.6-1,1.3-1.1,2.3h6.7c-0.1-0.9-0.4-1.7-1.1-2.3c-0.6-0.6-1.4-0.9-2.3-0.9
	C500.1,218.4,499.4,218.7,498.7,219.3z"/>
<path class="st5" d="M517.4,225.7v1.2h-8.9v-12.6h8.6v1.2h-7.3v4.5h6.5v1.1h-6.5v4.7H517.4z"/>
<path class="st5" d="M428.2,257.5v12.6h-1.3V260l-5,8.5h-0.6l-5-8.4v10h-1.3v-12.6h1.1l5.5,9.3l5.4-9.3H428.2z"/>
<path class="st5" d="M438.1,261.5c0.7,0.6,1,1.5,1,2.7v5.9h-1.2v-1.5c-0.3,0.5-0.7,0.9-1.3,1.2c-0.6,0.3-1.2,0.4-2,0.4
	c-1.1,0-1.9-0.3-2.5-0.8s-0.9-1.2-0.9-2c0-0.8,0.3-1.5,0.9-1.9c0.6-0.5,1.5-0.7,2.8-0.7h3v-0.6c0-0.8-0.2-1.4-0.7-1.9
	s-1.1-0.6-2-0.6c-0.6,0-1.2,0.1-1.7,0.3c-0.6,0.2-1,0.5-1.4,0.8l-0.6-1c0.5-0.4,1.1-0.7,1.7-0.9c0.7-0.2,1.4-0.3,2.1-0.3
	C436.5,260.6,437.5,260.9,438.1,261.5z M436.7,268.7c0.5-0.3,0.9-0.8,1.2-1.4v-1.5h-3c-1.6,0-2.4,0.6-2.4,1.7c0,0.6,0.2,1,0.6,1.3
	c0.4,0.3,1,0.5,1.8,0.5C435.6,269.2,436.2,269,436.7,268.7z"/>
<path class="st5" d="M445.2,261c0.6-0.3,1.3-0.5,2.2-0.5v1.2l-0.3,0c-1,0-1.8,0.3-2.3,0.9c-0.6,0.6-0.8,1.5-0.8,2.6v4.8h-1.3v-9.5
	h1.2v1.9C444.1,261.8,444.6,261.4,445.2,261z"/>
<path class="st5" d="M453.2,265.3l-2.2,2.1v2.7h-1.3v-13.4h1.3v9.1l5.7-5.2h1.6l-4,3.9l4.4,5.6H457L453.2,265.3z"/>
<path class="st5" d="M468.4,265.8h-7.9c0.1,1,0.5,1.8,1.1,2.4c0.7,0.6,1.5,0.9,2.6,0.9c0.6,0,1.1-0.1,1.6-0.3
	c0.5-0.2,0.9-0.5,1.3-0.9l0.7,0.8c-0.4,0.5-0.9,0.9-1.6,1.2s-1.3,0.4-2.1,0.4c-1,0-1.8-0.2-2.6-0.6s-1.3-1-1.8-1.7
	c-0.4-0.7-0.6-1.6-0.6-2.5c0-0.9,0.2-1.8,0.6-2.5c0.4-0.7,1-1.3,1.7-1.7s1.5-0.6,2.4-0.6c0.9,0,1.7,0.2,2.4,0.6s1.2,1,1.6,1.7
	c0.4,0.7,0.6,1.6,0.6,2.5L468.4,265.8z M461.5,262.5c-0.6,0.6-1,1.3-1.1,2.3h6.7c-0.1-0.9-0.4-1.7-1.1-2.3c-0.6-0.6-1.4-0.9-2.3-0.9
	C462.9,261.6,462.1,261.9,461.5,262.5z"/>
<path class="st5" d="M476,269.5c-0.2,0.2-0.5,0.4-0.9,0.5c-0.4,0.1-0.7,0.2-1.1,0.2c-0.9,0-1.6-0.2-2.1-0.7c-0.5-0.5-0.7-1.2-0.7-2
	v-5.7h-1.7v-1.1h1.7v-2.1h1.3v2.1h2.9v1.1h-2.9v5.7c0,0.6,0.1,1,0.4,1.3s0.7,0.4,1.2,0.4c0.3,0,0.5,0,0.8-0.1
	c0.2-0.1,0.5-0.2,0.6-0.4L476,269.5z"/>
<path class="st5" d="M478.3,258.3c-0.2-0.2-0.3-0.4-0.3-0.6c0-0.2,0.1-0.5,0.3-0.6c0.2-0.2,0.4-0.3,0.7-0.3s0.5,0.1,0.7,0.3
	c0.2,0.2,0.3,0.4,0.3,0.6c0,0.3-0.1,0.5-0.3,0.7c-0.2,0.2-0.4,0.3-0.7,0.3S478.5,258.5,478.3,258.3z M478.3,260.6h1.3v9.5h-1.3
	V260.6z"/>
<path class="st5" d="M490.8,261.6c0.7,0.7,1.1,1.7,1.1,3v5.5h-1.3v-5.4c0-1-0.2-1.7-0.7-2.3c-0.5-0.5-1.2-0.8-2.1-0.8
	c-1,0-1.8,0.3-2.4,0.9c-0.6,0.6-0.9,1.4-0.9,2.5v5h-1.3v-9.5h1.2v1.7c0.3-0.6,0.8-1,1.4-1.3c0.6-0.3,1.3-0.5,2.2-0.5
	C489.2,260.6,490.1,260.9,490.8,261.6z"/>
<path class="st5" d="M504.1,260.6v8.3c0,1.6-0.4,2.8-1.2,3.6c-0.8,0.8-2,1.2-3.6,1.2c-0.9,0-1.7-0.1-2.5-0.4
	c-0.8-0.3-1.4-0.6-1.9-1.1l0.6-1c0.5,0.4,1,0.7,1.7,1c0.7,0.2,1.3,0.3,2.1,0.3c1.2,0,2.1-0.3,2.6-0.8c0.6-0.6,0.8-1.4,0.8-2.6v-1.2
	c-0.4,0.6-0.9,1.1-1.6,1.4c-0.6,0.3-1.4,0.5-2.1,0.5c-0.9,0-1.7-0.2-2.4-0.6c-0.7-0.4-1.3-0.9-1.7-1.6s-0.6-1.5-0.6-2.4
	s0.2-1.7,0.6-2.4s1-1.2,1.7-1.6c0.7-0.4,1.5-0.6,2.4-0.6c0.8,0,1.5,0.2,2.2,0.5c0.6,0.3,1.2,0.8,1.6,1.4v-1.8H504.1z M501.1,268.2
	c0.6-0.3,1-0.7,1.3-1.2c0.3-0.5,0.5-1.1,0.5-1.8s-0.2-1.3-0.5-1.8c-0.3-0.5-0.7-0.9-1.3-1.2c-0.5-0.3-1.2-0.4-1.9-0.4
	c-0.7,0-1.3,0.1-1.8,0.4c-0.5,0.3-1,0.7-1.3,1.2c-0.3,0.5-0.5,1.1-0.5,1.8s0.2,1.3,0.5,1.8s0.7,0.9,1.3,1.2c0.5,0.3,1.2,0.4,1.8,0.4
	S500.6,268.5,501.1,268.2z"/>
<path class="st5" d="M518.6,261.5c0.7,0.6,1,1.5,1,2.7v5.9h-1.2v-1.5c-0.3,0.5-0.7,0.9-1.3,1.2c-0.6,0.3-1.2,0.4-2,0.4
	c-1.1,0-1.9-0.3-2.5-0.8s-0.9-1.2-0.9-2c0-0.8,0.3-1.5,0.9-1.9c0.6-0.5,1.5-0.7,2.8-0.7h3v-0.6c0-0.8-0.2-1.4-0.7-1.9
	s-1.1-0.6-2-0.6c-0.6,0-1.2,0.1-1.7,0.3c-0.6,0.2-1,0.5-1.4,0.8l-0.6-1c0.5-0.4,1.1-0.7,1.7-0.9c0.7-0.2,1.4-0.3,2.1-0.3
	C517,260.6,517.9,260.9,518.6,261.5z M517.2,268.7c0.5-0.3,0.9-0.8,1.2-1.4v-1.5h-3c-1.6,0-2.4,0.6-2.4,1.7c0,0.6,0.2,1,0.6,1.3
	c0.4,0.3,1,0.5,1.8,0.5C516,269.2,516.6,269,517.2,268.7z"/>
<path class="st5" d="M530.7,261.6c0.7,0.7,1.1,1.7,1.1,3v5.5h-1.3v-5.4c0-1-0.2-1.7-0.7-2.3c-0.5-0.5-1.2-0.8-2.1-0.8
	c-1,0-1.8,0.3-2.4,0.9c-0.6,0.6-0.9,1.4-0.9,2.5v5h-1.3v-9.5h1.2v1.7c0.3-0.6,0.8-1,1.4-1.3c0.6-0.3,1.3-0.5,2.2-0.5
	C529.1,260.6,530,260.9,530.7,261.6z"/>
<path class="st5" d="M543.9,256.7v13.4h-1.2v-1.9c-0.4,0.6-0.9,1.1-1.5,1.5s-1.3,0.5-2.1,0.5c-0.9,0-1.7-0.2-2.4-0.6
	c-0.7-0.4-1.3-1-1.7-1.7c-0.4-0.7-0.6-1.6-0.6-2.5c0-0.9,0.2-1.8,0.6-2.5c0.4-0.7,1-1.3,1.7-1.7c0.7-0.4,1.5-0.6,2.4-0.6
	c0.8,0,1.5,0.2,2.1,0.5c0.6,0.3,1.1,0.8,1.5,1.4v-5.7H543.9z M540.9,268.6c0.5-0.3,1-0.7,1.3-1.3c0.3-0.6,0.5-1.2,0.5-1.9
	c0-0.7-0.2-1.4-0.5-1.9c-0.3-0.6-0.7-1-1.3-1.3c-0.5-0.3-1.1-0.5-1.8-0.5c-0.7,0-1.3,0.2-1.8,0.5c-0.5,0.3-1,0.7-1.3,1.3
	c-0.3,0.6-0.5,1.2-0.5,1.9c0,0.7,0.2,1.4,0.5,1.9c0.3,0.6,0.7,1,1.3,1.3s1.1,0.5,1.8,0.5C539.8,269,540.4,268.9,540.9,268.6z"/>
<path class="st5" d="M416.2,291.2c-0.7-0.4-1.3-1-1.7-1.7c-0.4-0.7-0.6-1.6-0.6-2.5c0-0.9,0.2-1.8,0.6-2.5c0.4-0.7,1-1.3,1.7-1.7
	s1.6-0.6,2.5-0.6c0.8,0,1.5,0.2,2.2,0.5c0.6,0.3,1.1,0.8,1.5,1.4l-1,0.6c-0.3-0.5-0.7-0.8-1.2-1.1c-0.5-0.2-1-0.4-1.6-0.4
	c-0.7,0-1.3,0.2-1.8,0.5c-0.5,0.3-1,0.7-1.3,1.3c-0.3,0.6-0.5,1.2-0.5,1.9c0,0.7,0.2,1.4,0.5,1.9c0.3,0.6,0.7,1,1.3,1.3
	s1.2,0.5,1.8,0.5c0.6,0,1.1-0.1,1.6-0.3c0.5-0.2,0.9-0.6,1.2-1l1,0.6c-0.4,0.6-0.9,1.1-1.5,1.4c-0.6,0.3-1.4,0.5-2.2,0.5
	C417.8,291.8,417,291.6,416.2,291.2z"/>
<path class="st5" d="M426.2,291.2c-0.7-0.4-1.3-1-1.7-1.7c-0.4-0.7-0.6-1.6-0.6-2.5c0-0.9,0.2-1.8,0.6-2.5c0.4-0.7,1-1.3,1.7-1.7
	c0.7-0.4,1.6-0.6,2.5-0.6s1.7,0.2,2.5,0.6c0.7,0.4,1.3,1,1.7,1.7c0.4,0.7,0.6,1.6,0.6,2.5c0,0.9-0.2,1.8-0.6,2.5
	c-0.4,0.7-1,1.3-1.7,1.7c-0.7,0.4-1.6,0.6-2.5,0.6S426.9,291.6,426.2,291.2z M430.5,290.2c0.5-0.3,1-0.7,1.3-1.3
	c0.3-0.6,0.5-1.2,0.5-1.9c0-0.7-0.2-1.4-0.5-1.9c-0.3-0.6-0.7-1-1.3-1.3c-0.5-0.3-1.1-0.5-1.8-0.5s-1.3,0.2-1.8,0.5
	c-0.5,0.3-1,0.7-1.3,1.3c-0.3,0.6-0.5,1.2-0.5,1.9c0,0.7,0.2,1.4,0.5,1.9c0.3,0.6,0.7,1,1.3,1.3s1.1,0.5,1.8,0.5
	S429.9,290.5,430.5,290.2z"/>
<path class="st5" d="M436.1,278.3h1.3v13.4h-1.3V278.3z"/>
<path class="st5" d="M440.9,278.3h1.3v13.4h-1.3V278.3z"/>
<path class="st5" d="M454,287.4h-7.9c0.1,1,0.5,1.8,1.1,2.4c0.7,0.6,1.5,0.9,2.6,0.9c0.6,0,1.1-0.1,1.6-0.3c0.5-0.2,0.9-0.5,1.3-0.9
	l0.7,0.8c-0.4,0.5-0.9,0.9-1.6,1.2s-1.3,0.4-2.1,0.4c-1,0-1.8-0.2-2.6-0.6s-1.3-1-1.8-1.7c-0.4-0.7-0.6-1.6-0.6-2.5
	c0-0.9,0.2-1.8,0.6-2.5c0.4-0.7,1-1.3,1.7-1.7s1.5-0.6,2.4-0.6c0.9,0,1.7,0.2,2.4,0.6s1.2,1,1.6,1.7c0.4,0.7,0.6,1.6,0.6,2.5
	L454,287.4z M447.1,284.1c-0.6,0.6-1,1.3-1.1,2.3h6.7c-0.1-0.9-0.4-1.7-1.1-2.3c-0.6-0.6-1.4-0.9-2.3-0.9
	C448.5,283.2,447.7,283.5,447.1,284.1z"/>
<path class="st5" d="M458,291.2c-0.7-0.4-1.3-1-1.7-1.7c-0.4-0.7-0.6-1.6-0.6-2.5c0-0.9,0.2-1.8,0.6-2.5c0.4-0.7,1-1.3,1.7-1.7
	s1.6-0.6,2.5-0.6c0.8,0,1.5,0.2,2.2,0.5c0.6,0.3,1.1,0.8,1.5,1.4l-1,0.6c-0.3-0.5-0.7-0.8-1.2-1.1c-0.5-0.2-1-0.4-1.6-0.4
	c-0.7,0-1.3,0.2-1.8,0.5c-0.5,0.3-1,0.7-1.3,1.3c-0.3,0.6-0.5,1.2-0.5,1.9c0,0.7,0.2,1.4,0.5,1.9c0.3,0.6,0.7,1,1.3,1.3
	s1.2,0.5,1.8,0.5c0.6,0,1.1-0.1,1.6-0.3c0.5-0.2,0.9-0.6,1.2-1l1,0.6c-0.4,0.6-0.9,1.1-1.5,1.4c-0.6,0.3-1.4,0.5-2.2,0.5
	C459.6,291.8,458.8,291.6,458,291.2z"/>
<path class="st5" d="M471.8,291.1c-0.2,0.2-0.5,0.4-0.9,0.5c-0.4,0.1-0.7,0.2-1.1,0.2c-0.9,0-1.6-0.2-2.1-0.7
	c-0.5-0.5-0.7-1.2-0.7-2v-5.7h-1.7v-1.1h1.7v-2.1h1.3v2.1h2.9v1.1h-2.9v5.7c0,0.6,0.1,1,0.4,1.3s0.7,0.4,1.2,0.4
	c0.3,0,0.5,0,0.8-0.1c0.2-0.1,0.5-0.2,0.6-0.4L471.8,291.1z"/>
<path class="st5" d="M474.1,279.9c-0.2-0.2-0.3-0.4-0.3-0.6c0-0.2,0.1-0.5,0.3-0.6c0.2-0.2,0.4-0.3,0.7-0.3c0.3,0,0.5,0.1,0.7,0.3
	c0.2,0.2,0.3,0.4,0.3,0.6c0,0.3-0.1,0.5-0.3,0.7c-0.2,0.2-0.4,0.3-0.7,0.3C474.6,280.2,474.3,280.1,474.1,279.9z M474.2,282.2h1.3
	v9.5h-1.3V282.2z"/>
<path class="st5" d="M487,282.2l-4.2,9.5h-1.3l-4.2-9.5h1.3l3.5,8.1l3.6-8.1H487z"/>
<path class="st5" d="M496.7,287.4h-7.9c0.1,1,0.4,1.8,1.1,2.4c0.7,0.6,1.5,0.9,2.6,0.9c0.6,0,1.1-0.1,1.6-0.3
	c0.5-0.2,0.9-0.5,1.3-0.9l0.7,0.8c-0.4,0.5-0.9,0.9-1.6,1.2s-1.3,0.4-2.1,0.4c-1,0-1.8-0.2-2.6-0.6s-1.3-1-1.8-1.7
	c-0.4-0.7-0.6-1.6-0.6-2.5c0-0.9,0.2-1.8,0.6-2.5c0.4-0.7,1-1.3,1.7-1.7s1.5-0.6,2.4-0.6s1.7,0.2,2.4,0.6c0.7,0.4,1.2,1,1.6,1.7
	c0.4,0.7,0.6,1.6,0.6,2.5L496.7,287.4z M489.9,284.1c-0.6,0.6-1,1.3-1.1,2.3h6.7c-0.1-0.9-0.4-1.7-1.1-2.3c-0.6-0.6-1.4-0.9-2.3-0.9
	C491.3,283.2,490.5,283.5,489.9,284.1z"/>
<path class="st5" d="M504.4,291.4c-0.7-0.2-1.3-0.5-1.6-0.8l0.6-1c0.4,0.3,0.9,0.6,1.5,0.8c0.6,0.2,1.2,0.3,1.9,0.3
	c0.9,0,1.5-0.1,1.9-0.4c0.4-0.3,0.6-0.7,0.6-1.1c0-0.3-0.1-0.6-0.3-0.8c-0.2-0.2-0.5-0.3-0.9-0.5c-0.3-0.1-0.8-0.2-1.4-0.3
	c-0.8-0.1-1.4-0.3-1.9-0.4c-0.5-0.1-0.9-0.4-1.2-0.8c-0.3-0.4-0.5-0.9-0.5-1.5c0-0.8,0.3-1.4,1-1.9s1.6-0.8,2.8-0.8
	c0.6,0,1.2,0.1,1.8,0.2c0.6,0.2,1.1,0.4,1.5,0.6l-0.6,1c-0.8-0.5-1.7-0.8-2.8-0.8c-0.8,0-1.4,0.1-1.8,0.4s-0.6,0.7-0.6,1.1
	c0,0.4,0.1,0.6,0.4,0.9c0.2,0.2,0.5,0.4,0.9,0.5c0.3,0.1,0.8,0.2,1.4,0.3c0.8,0.1,1.4,0.3,1.8,0.4c0.5,0.1,0.8,0.4,1.2,0.7
	s0.5,0.8,0.5,1.4c0,0.8-0.3,1.5-1,2c-0.7,0.5-1.6,0.7-2.9,0.7C505.9,291.8,505.1,291.7,504.4,291.4z"/>
<path class="st5" d="M521.1,287.4h-7.9c0.1,1,0.4,1.8,1.1,2.4c0.7,0.6,1.5,0.9,2.6,0.9c0.6,0,1.1-0.1,1.6-0.3
	c0.5-0.2,0.9-0.5,1.3-0.9l0.7,0.8c-0.4,0.5-0.9,0.9-1.6,1.2s-1.3,0.4-2.1,0.4c-1,0-1.8-0.2-2.6-0.6s-1.3-1-1.8-1.7
	c-0.4-0.7-0.6-1.6-0.6-2.5c0-0.9,0.2-1.8,0.6-2.5c0.4-0.7,1-1.3,1.7-1.7s1.5-0.6,2.4-0.6s1.7,0.2,2.4,0.6c0.7,0.4,1.2,1,1.6,1.7
	c0.4,0.7,0.6,1.6,0.6,2.5L521.1,287.4z M514.3,284.1c-0.6,0.6-1,1.3-1.1,2.3h6.7c-0.1-0.9-0.4-1.7-1.1-2.3c-0.6-0.6-1.4-0.9-2.3-0.9
	C515.6,283.2,514.9,283.5,514.3,284.1z"/>
<path class="st5" d="M523.8,278.3h1.3v13.4h-1.3V278.3z"/>
<path class="st5" d="M528.6,278.3h1.3v13.4h-1.3V278.3z"/>
<path class="st5" d="M533.4,279.9c-0.2-0.2-0.3-0.4-0.3-0.6c0-0.2,0.1-0.5,0.3-0.6c0.2-0.2,0.4-0.3,0.7-0.3s0.5,0.1,0.7,0.3
	c0.2,0.2,0.3,0.4,0.3,0.6c0,0.3-0.1,0.5-0.3,0.7c-0.2,0.2-0.4,0.3-0.7,0.3S533.6,280.1,533.4,279.9z M533.4,282.2h1.3v9.5h-1.3
	V282.2z"/>
<path class="st5" d="M545.9,283.2c0.7,0.7,1.1,1.7,1.1,3v5.5h-1.3v-5.4c0-1-0.2-1.7-0.7-2.3c-0.5-0.5-1.2-0.8-2.1-0.8
	c-1,0-1.8,0.3-2.4,0.9c-0.6,0.6-0.9,1.4-0.9,2.5v5h-1.3v-9.5h1.2v1.7c0.3-0.6,0.8-1,1.4-1.3c0.6-0.3,1.3-0.5,2.2-0.5
	C544.3,282.2,545.2,282.5,545.9,283.2z"/>
<path class="st5" d="M559.3,282.2v8.3c0,1.6-0.4,2.8-1.2,3.6c-0.8,0.8-2,1.2-3.6,1.2c-0.9,0-1.7-0.1-2.5-0.4
	c-0.8-0.3-1.4-0.6-1.9-1.1l0.6-1c0.5,0.4,1,0.7,1.7,1c0.7,0.2,1.3,0.3,2.1,0.3c1.2,0,2.1-0.3,2.6-0.8c0.6-0.6,0.8-1.4,0.8-2.6v-1.2
	c-0.4,0.6-0.9,1.1-1.6,1.4c-0.6,0.3-1.4,0.5-2.1,0.5c-0.9,0-1.7-0.2-2.4-0.6c-0.7-0.4-1.3-0.9-1.7-1.6s-0.6-1.5-0.6-2.4
	s0.2-1.7,0.6-2.4s1-1.2,1.7-1.6c0.7-0.4,1.5-0.6,2.4-0.6c0.8,0,1.5,0.2,2.2,0.5c0.6,0.3,1.2,0.8,1.6,1.4v-1.8H559.3z M556.3,289.8
	c0.6-0.3,1-0.7,1.3-1.2c0.3-0.5,0.5-1.1,0.5-1.8s-0.2-1.3-0.5-1.8c-0.3-0.5-0.7-0.9-1.3-1.2c-0.5-0.3-1.2-0.4-1.9-0.4
	c-0.7,0-1.3,0.1-1.8,0.4c-0.5,0.3-1,0.7-1.3,1.2c-0.3,0.5-0.5,1.1-0.5,1.8s0.2,1.3,0.5,1.8s0.7,0.9,1.3,1.2c0.5,0.3,1.2,0.4,1.8,0.4
	S555.7,290.1,556.3,289.8z"/>
<g>
	<path class="st1" d="M185,200V47.8c84.1,0,152.3,68.2,152.3,152.3S269.1,352.3,185,352.3c-77.4,0-140-54.5-150.8-131.1L185,200z"/>
</g>
<g>
	<path class="st2" d="M185,200L34.2,221.2c-3.7-26.6-1-50.6,8.6-75.8L185,200z"/>
</g>
<g>
	<path class="st3" d="M185,200L42.9,145.4c12.1-31.4,31-54.8,59.2-73.1L185,200z"/>
</g>
<g>
	<path class="st4" d="M185,200L102.1,72.3c25.4-16.5,52.7-24.6,82.9-24.6V200z"/>
</g>
<path class="st5" d="M149.5,91.5c1.1,0.5,1.9,1.4,2.5,2.4c0.6,1.1,0.9,2.4,0.9,4c0,1.7-0.3,3.1-1,4.4s-1.6,2.2-2.9,2.8
	c-1.2,0.6-2.6,1-4.3,1c-0.9,0-1.7-0.1-2.5-0.3c-0.8-0.2-1.5-0.5-2-0.9l1.8-3.5c0.7,0.5,1.6,0.8,2.7,0.8c0.9,0,1.6-0.2,2.1-0.6
	c0.6-0.4,0.9-1,1.1-1.9c-0.8,0.5-1.7,0.8-2.9,0.8c-0.9,0-1.7-0.2-2.5-0.6s-1.4-0.9-1.8-1.7c-0.5-0.7-0.7-1.5-0.7-2.5
	c0-1,0.3-1.9,0.8-2.7c0.5-0.8,1.2-1.4,2.2-1.8c0.9-0.4,1.9-0.6,3-0.6C147.2,90.7,148.5,91,149.5,91.5z M147.2,96.7
	c0.3-0.3,0.4-0.6,0.4-1.1s-0.1-0.8-0.4-1.1c-0.3-0.3-0.6-0.4-1.1-0.4c-0.4,0-0.8,0.1-1.1,0.4c-0.3,0.3-0.4,0.6-0.4,1.1
	s0.1,0.8,0.4,1.1c0.3,0.3,0.6,0.4,1.1,0.4C146.6,97.1,147,97,147.2,96.7z"/>
<path class="st5" d="M154.9,97.9c-0.7-0.7-1.1-1.7-1.1-3c0-0.9,0.2-1.6,0.5-2.2c0.3-0.6,0.8-1.1,1.4-1.4c0.6-0.3,1.3-0.5,2-0.5
	c0.7,0,1.4,0.2,2,0.5c0.6,0.3,1.1,0.8,1.4,1.4c0.3,0.6,0.5,1.4,0.5,2.2c0,1.3-0.4,2.3-1.1,3c-0.7,0.7-1.7,1.1-2.8,1.1
	C156.6,99,155.6,98.7,154.9,97.9z M166.4,91h3.5l-10,14.7h-3.5L166.4,91z M158.4,96.3c0.2-0.3,0.3-0.8,0.3-1.4s-0.1-1.1-0.3-1.4
	c-0.2-0.3-0.4-0.4-0.7-0.4c-0.3,0-0.5,0.1-0.7,0.4c-0.2,0.3-0.3,0.8-0.3,1.4s0.1,1.1,0.3,1.4c0.2,0.3,0.4,0.4,0.7,0.4
	C158,96.8,158.2,96.6,158.4,96.3z M165.7,104.9c-0.7-0.7-1.1-1.7-1.1-3c0-0.9,0.2-1.6,0.5-2.2c0.3-0.6,0.8-1.1,1.4-1.4
	c0.6-0.3,1.3-0.5,2-0.5c0.7,0,1.4,0.2,2,0.5c0.6,0.3,1.1,0.8,1.4,1.4s0.5,1.4,0.5,2.2c0,1.3-0.4,2.3-1.1,3c-0.7,0.7-1.7,1.1-2.8,1.1
	C167.4,105.9,166.4,105.6,165.7,104.9z M169.2,103.3c0.2-0.3,0.3-0.8,0.3-1.4s-0.1-1.1-0.3-1.4c-0.2-0.3-0.4-0.4-0.7-0.4
	c-0.3,0-0.5,0.1-0.7,0.4c-0.2,0.3-0.3,0.8-0.3,1.4s0.1,1.1,0.3,1.4c0.2,0.3,0.4,0.4,0.7,0.4C168.8,103.7,169,103.5,169.2,103.3z"/>
<path class="st5" d="M92.4,124.5v14.7h-5v-11h-2.5v-3.7H92.4z"/>
<path class="st5" d="M97.4,138.6c-1-0.6-1.8-1.5-2.4-2.6c-0.6-1.2-0.9-2.5-0.9-4.1c0-1.6,0.3-3,0.9-4.1c0.6-1.2,1.4-2,2.4-2.6
	s2.2-0.9,3.5-0.9c1.3,0,2.5,0.3,3.5,0.9c1,0.6,1.8,1.5,2.4,2.6c0.6,1.2,0.9,2.5,0.9,4.1c0,1.6-0.3,3-0.9,4.1c-0.6,1.2-1.4,2-2.4,2.6
	c-1,0.6-2.2,0.9-3.5,0.9C99.6,139.5,98.4,139.2,97.4,138.6z M102.6,131.8c0-2.5-0.6-3.7-1.7-3.7c-1.1,0-1.7,1.2-1.7,3.7
	s0.6,3.7,1.7,3.7C102,135.5,102.6,134.3,102.6,131.8z"/>
<path class="st5" d="M109.6,131.4c-0.7-0.7-1.1-1.7-1.1-3c0-0.9,0.2-1.6,0.5-2.2c0.3-0.6,0.8-1.1,1.4-1.4c0.6-0.3,1.3-0.5,2-0.5
	c0.7,0,1.4,0.2,2,0.5c0.6,0.3,1.1,0.8,1.4,1.4c0.3,0.6,0.5,1.4,0.5,2.2c0,1.3-0.4,2.3-1.1,3c-0.7,0.7-1.7,1.1-2.8,1.1
	C111.2,132.5,110.3,132.1,109.6,131.4z M121,124.5h3.5l-10,14.7H111L121,124.5z M113,129.8c0.2-0.3,0.3-0.8,0.3-1.4
	s-0.1-1.1-0.3-1.4c-0.2-0.3-0.4-0.4-0.7-0.4c-0.3,0-0.5,0.1-0.7,0.4c-0.2,0.3-0.3,0.8-0.3,1.4s0.1,1.1,0.3,1.4
	c0.2,0.3,0.4,0.4,0.7,0.4C112.7,130.2,112.9,130.1,113,129.8z M120.3,138.3c-0.7-0.7-1.1-1.7-1.1-3c0-0.9,0.2-1.6,0.5-2.2
	c0.3-0.6,0.8-1.1,1.4-1.4c0.6-0.3,1.3-0.5,2-0.5c0.7,0,1.4,0.2,2,0.5c0.6,0.3,1.1,0.8,1.4,1.4s0.5,1.4,0.5,2.2c0,1.3-0.4,2.3-1.1,3
	c-0.7,0.7-1.7,1.1-2.8,1.1C122,139.4,121.1,139,120.3,138.3z M123.8,136.7c0.2-0.3,0.3-0.8,0.3-1.4s-0.1-1.1-0.3-1.4
	c-0.2-0.3-0.4-0.4-0.7-0.4c-0.3,0-0.5,0.1-0.7,0.4c-0.2,0.3-0.3,0.8-0.3,1.4s0.1,1.1,0.3,1.4c0.2,0.3,0.4,0.4,0.7,0.4
	C123.4,137.1,123.6,137,123.8,136.7z"/>
<path class="st5" d="M80.7,185.3c0.3,0.6,0.5,1.2,0.5,1.9c0,0.9-0.3,1.8-0.8,2.5c-0.6,0.7-1.3,1.3-2.3,1.6c-1,0.4-2.1,0.6-3.4,0.6
	c-1.3,0-2.4-0.2-3.4-0.6c-1-0.4-1.8-0.9-2.3-1.6c-0.6-0.7-0.8-1.5-0.8-2.5c0-0.7,0.2-1.4,0.5-1.9c0.3-0.6,0.8-1,1.5-1.4
	c-1-0.8-1.4-1.7-1.4-2.9c0-0.9,0.3-1.7,0.8-2.3c0.5-0.7,1.2-1.2,2.1-1.5c0.9-0.4,2-0.5,3.2-0.5c1.2,0,2.2,0.2,3.2,0.5
	c0.9,0.4,1.6,0.9,2.1,1.5c0.5,0.7,0.8,1.4,0.8,2.3c0,1.2-0.5,2.1-1.4,2.9C79.9,184.2,80.4,184.7,80.7,185.3z M75.8,188.1
	c0.3-0.3,0.5-0.7,0.5-1.1s-0.2-0.8-0.5-1.1c-0.3-0.3-0.7-0.4-1.2-0.4c-0.5,0-0.9,0.1-1.2,0.4c-0.3,0.3-0.5,0.7-0.5,1.1
	s0.2,0.8,0.5,1.1c0.3,0.3,0.7,0.4,1.2,0.4C75.1,188.6,75.5,188.4,75.8,188.1z M73.8,180.2c-0.2,0.2-0.3,0.5-0.3,0.9
	c0,0.4,0.1,0.7,0.3,0.9c0.2,0.2,0.5,0.3,0.9,0.3c0.3,0,0.6-0.1,0.9-0.3c0.2-0.2,0.3-0.5,0.3-0.9c0-0.4-0.1-0.7-0.3-0.9
	c-0.2-0.2-0.5-0.3-0.9-0.3C74.3,179.9,74,180,73.8,180.2z"/>
<path class="st5" d="M83,183.8c-0.7-0.7-1.1-1.7-1.1-3c0-0.9,0.2-1.6,0.5-2.2c0.3-0.6,0.8-1.1,1.4-1.4c0.6-0.3,1.3-0.5,2-0.5
	c0.7,0,1.4,0.2,2,0.5c0.6,0.3,1.1,0.8,1.4,1.4c0.3,0.6,0.5,1.4,0.5,2.2c0,1.3-0.4,2.3-1.1,3c-0.7,0.7-1.7,1.1-2.8,1.1
	C84.6,184.8,83.7,184.5,83,183.8z M94.4,176.9H98l-10,14.7h-3.5L94.4,176.9z M86.4,182.2c0.2-0.3,0.3-0.8,0.3-1.4s-0.1-1.1-0.3-1.4
	c-0.2-0.3-0.4-0.4-0.7-0.4c-0.3,0-0.5,0.1-0.7,0.4c-0.2,0.3-0.3,0.8-0.3,1.4s0.1,1.1,0.3,1.4c0.2,0.3,0.4,0.4,0.7,0.4
	C86,182.6,86.3,182.4,86.4,182.2z M93.7,190.7c-0.7-0.7-1.1-1.7-1.1-3c0-0.9,0.2-1.6,0.5-2.2c0.3-0.6,0.8-1.1,1.4-1.4
	c0.6-0.3,1.3-0.5,2-0.5c0.7,0,1.4,0.2,2,0.5c0.6,0.3,1.1,0.8,1.4,1.4s0.5,1.4,0.5,2.2c0,1.3-0.4,2.3-1.1,3c-0.7,0.7-1.7,1.1-2.8,1.1
	C95.4,191.8,94.5,191.4,93.7,190.7z M97.2,189.1c0.2-0.3,0.3-0.8,0.3-1.4s-0.1-1.1-0.3-1.4c-0.2-0.3-0.4-0.4-0.7-0.4
	c-0.3,0-0.5,0.1-0.7,0.4c-0.2,0.3-0.3,0.8-0.3,1.4s0.1,1.1,0.3,1.4c0.2,0.3,0.4,0.4,0.7,0.4C96.8,189.5,97,189.4,97.2,189.1z"/>
<path class="st5" d="M251.9,254.9v3l-4.9,11.7h-5.4l4.7-10.9h-2.8v2.1h-4.1v-6H251.9z"/>
<path class="st5" d="M263.8,262.3c0.6,0.7,0.9,1.6,0.9,2.7c0,0.9-0.2,1.7-0.7,2.5s-1.2,1.4-2.2,1.9c-1,0.5-2.3,0.7-3.8,0.7
	c-1,0-2.1-0.1-3.1-0.3c-1-0.2-1.9-0.6-2.7-1l1.7-3.7c0.6,0.3,1.2,0.6,1.9,0.8s1.4,0.3,2,0.3c0.6,0,1-0.1,1.4-0.3
	c0.3-0.2,0.5-0.5,0.5-0.8c0-0.7-0.6-1-1.7-1h-2v-3l2.2-2.2H253v-3.7h11v3l-2.7,2.8C262.3,261,263.2,261.6,263.8,262.3z"/>
<path class="st5" d="M266.5,261.8c-0.7-0.7-1.1-1.7-1.1-3c0-0.9,0.2-1.6,0.5-2.2s0.8-1.1,1.4-1.4s1.3-0.5,2-0.5c0.7,0,1.4,0.2,2,0.5
	c0.6,0.3,1.1,0.8,1.4,1.4s0.5,1.4,0.5,2.2c0,1.3-0.4,2.3-1.1,3c-0.7,0.7-1.7,1.1-2.8,1.1C268.1,262.9,267.2,262.6,266.5,261.8z
	 M277.9,254.9h3.5l-10,14.7h-3.5L277.9,254.9z M269.9,260.2c0.2-0.3,0.3-0.8,0.3-1.4c0-0.6-0.1-1.1-0.3-1.4
	c-0.2-0.3-0.4-0.4-0.7-0.4c-0.3,0-0.5,0.1-0.7,0.4c-0.2,0.3-0.3,0.8-0.3,1.4c0,0.6,0.1,1.1,0.3,1.4c0.2,0.3,0.4,0.4,0.7,0.4
	C269.5,260.7,269.8,260.5,269.9,260.2z M277.2,268.8c-0.7-0.7-1.1-1.7-1.1-3c0-0.9,0.2-1.6,0.5-2.2c0.3-0.6,0.8-1.1,1.4-1.4
	s1.3-0.5,2-0.5c0.7,0,1.4,0.2,2,0.5c0.6,0.3,1.1,0.8,1.4,1.4s0.5,1.4,0.5,2.2c0,1.3-0.4,2.3-1.1,3c-0.7,0.7-1.7,1.1-2.8,1.1
	C278.9,269.9,278,269.5,277.2,268.8z M280.7,267.2c0.2-0.3,0.3-0.8,0.3-1.4s-0.1-1.1-0.3-1.4c-0.2-0.3-0.4-0.4-0.7-0.4
	c-0.3,0-0.5,0.1-0.7,0.4c-0.2,0.3-0.3,0.8-0.3,1.4s0.1,1.1,0.3,1.4c0.2,0.3,0.4,0.4,0.7,0.4C280.3,267.6,280.5,267.4,280.7,267.2z"
	/>
</svg>
