<?xml version="1.0" encoding="utf-8"?>
<!-- Generator: Adobe Illustrator 24.2.0, SVG Export Plug-In . SVG Version: 6.00 Build 0)  -->
<svg version="1.1" id="grafico_4" xmlns="http://www.w3.org/2000/svg" xmlns:xlink="http://www.w3.org/1999/xlink" x="0px" y="0px"
	 viewBox="0 0 400 655" style="enable-background:new 0 0 400 655;" xml:space="preserve">
<style type="text/css">
	.st0{fill:#F1F2F2;}
	.st1{fill:#D1D3D4;}
	.st2{fill:#7495DA;}
	.st3{fill:#22B573;}
	.st4{fill:#DCB7FC;}
	.st5{fill:#606060;}
	.st6{fill:#FDD46A;}
	.st7{fill:#FFFFFF;}
</style>
<path class="st0" d="M397.5,199.7C397.5,90.6,309.1,2.2,200,2.2S2.5,90.6,2.5,199.7c0,54.1,21.8,103.1,57,138.8v266
	c0,5.6,4.6,10.2,10.2,10.2h260.5c5.6,0,10.2-4.6,10.2-10.2v-266C375.7,302.8,397.5,253.8,397.5,199.7z"/>
<circle class="st1" cx="200" cy="199.7" r="195"/>
<path class="st2" d="M200,199.7L186.6,8c4.2-0.3,9.2-0.5,13.4-0.5V199.7z"/>
<path class="st3" d="M200,199.7L173.3,9.4c4.2-0.6,9.1-1.1,13.3-1.4L200,199.7z"/>
<path class="st4" d="M200,199.7L140.6,16.9c12.1-3.9,20-5.8,32.6-7.5L200,199.7z"/>
<path class="st5" d="M200,199.7L64.1,63.8c22.5-22.5,46.2-37,76.5-46.9L200,199.7z"/>
<path class="st6" d="M200,199.7V7.5c106.1,0,192.2,86,192.2,192.2s-86,192.2-192.2,192.2S7.8,305.8,7.8,199.7
	c0-53.1,18.8-98.4,56.3-135.9L200,199.7z"/>
<path d="M214.5,70.3v25.2H206V76.7h-4.3v-6.4C201.7,70.3,214.5,70.3,214.5,70.3z"/>
<path class="st7" d="M214.8,95.8h-9V77h-4.3V70h13.3V95.8z M206.3,95.3h8V70.5H202v5.9h4.3V95.3z"/>
<path d="M219,82.1c-1.2-1.2-1.9-3-1.9-5.1c0-1.5,0.3-2.7,0.9-3.8s1.4-1.9,2.4-2.4c1-0.6,2.2-0.8,3.4-0.8c1.3,0,2.4,0.3,3.4,0.8
	c1,0.6,1.8,1.4,2.4,2.4s0.9,2.3,0.9,3.8c0,2.2-0.6,3.9-1.9,5.1c-1.2,1.2-2.9,1.9-4.8,1.9C221.8,84,220.2,83.3,219,82.1z M238.6,70.3
	h6.1l-17.2,25.2h-6.1L238.6,70.3z M225,79.3c0.3-0.5,0.5-1.3,0.5-2.4s-0.2-1.9-0.5-2.4s-0.7-0.7-1.1-0.7c-0.5,0-0.8,0.2-1.1,0.7
	s-0.5,1.3-0.5,2.4s0.1,1.9,0.5,2.4c0.3,0.5,0.7,0.7,1.1,0.7C224.3,80.1,224.7,79.8,225,79.3z M237.5,94c-1.2-1.2-1.9-3-1.9-5.1
	c0-1.5,0.3-2.7,0.9-3.8c0.6-1.1,1.4-1.9,2.4-2.4c1-0.6,2.2-0.8,3.4-0.8c1.3,0,2.4,0.3,3.4,0.8c1,0.6,1.8,1.4,2.4,2.4
	c0.6,1.1,0.9,2.3,0.9,3.8c0,2.2-0.6,3.9-1.9,5.1c-1.3,1.2-2.9,1.9-4.8,1.9C240.3,95.8,238.7,95.2,237.5,94z M243.4,91.2
	c0.3-0.5,0.5-1.3,0.5-2.4s-0.2-1.9-0.5-2.4s-0.7-0.7-1.1-0.7c-0.5,0-0.8,0.2-1.1,0.7s-0.4,1.3-0.4,2.4s0.1,1.9,0.4,2.4
	c0.3,0.5,0.7,0.7,1.1,0.7C242.7,92,243.1,91.7,243.4,91.2z"/>
<path class="st7" d="M242.3,96.1c-2.1-0.1-3.8-0.8-5-2c-1.3-1.3-2-3.1-2-5.3c0-1.5,0.3-2.8,0.9-3.9c0.6-1.1,1.5-2,2.5-2.5
	c0.9-0.5,2.1-0.8,3.5-0.8c1.3,0,2.4,0.3,3.5,0.8c1,0.6,1.9,1.5,2.5,2.5c0.6,1.2,0.9,2.4,0.9,3.9c0,2.3-0.6,4.1-2,5.3
	C245.9,95.5,244.2,96.1,242.3,96.1z M242.3,82.1c-1.3,0-2.4,0.3-3.3,0.8c-1,0.5-1.7,1.3-2.3,2.3c-0.6,1.1-0.9,2.3-0.9,3.7
	c0,2,0.6,3.7,1.8,4.9c1.1,1.1,2.6,1.7,4.6,1.8c1.7,0,3.3-0.6,4.6-1.8c1.2-1.1,1.8-2.7,1.8-4.9c0-1.4-0.3-2.6-0.9-3.7
	c-0.6-1-1.3-1.7-2.3-2.3C244.5,82.4,243.5,82.1,242.3,82.1z M227.6,95.8h-6.7l0.3-0.4L238.5,70h6.7l-0.3,0.4L227.6,95.8z
	 M221.9,95.3h5.5l16.9-24.7h-5.5L221.9,95.3z M242.5,92.2c-0.1,0-0.1,0-0.2,0c-0.5,0-0.9-0.3-1.3-0.8c-0.3-0.5-0.4-1.3-0.4-2.5
	c0-1.2,0.1-2,0.4-2.5c0.4-0.6,0.7-0.8,1.3-0.8c0.5,0,1,0.3,1.3,0.8c0.4,0.6,0.5,1.5,0.5,2.5c0,1.1-0.2,1.9-0.5,2.5l0,0
	C243.3,91.9,242.9,92.2,242.5,92.2z M242.3,86c-0.4,0-0.6,0.1-0.9,0.6c-0.3,0.4-0.4,1.1-0.4,2.3c0,1.2,0.1,1.9,0.4,2.3
	c0.2,0.4,0.5,0.6,0.9,0.6c0.3,0.1,0.6-0.1,0.9-0.6c0.3-0.5,0.5-1.3,0.5-2.3s-0.2-1.8-0.5-2.3C243,86.1,242.7,86,242.3,86z
	 M223.8,84.3c-2,0-3.7-0.7-5-2l0,0c-1.3-1.3-2-3.1-2-5.3c0-1.5,0.3-2.8,0.9-3.9c0.6-1.1,1.5-2,2.5-2.5c0.9-0.5,2.1-0.8,3.5-0.8
	c1.3,0,2.4,0.3,3.5,0.8c1,0.6,1.9,1.5,2.5,2.5c0.6,1,0.9,2.4,0.9,3.9c0,2.3-0.6,4.1-2,5.3C227.5,83.5,225.7,84.3,223.8,84.3z
	 M219.2,81.9c1.2,1.2,2.8,1.8,4.6,1.8c1.8,0,3.4-0.6,4.6-1.8c1.2-1.1,1.8-2.7,1.8-4.9c0-1.5-0.3-2.7-0.9-3.7c-0.6-1-1.4-1.7-2.3-2.3
	c-1-0.5-2.1-0.8-3.3-0.8c-1.3,0-2.4,0.3-3.3,0.8c-1,0.5-1.7,1.3-2.3,2.3c-0.6,1.1-0.9,2.3-0.9,3.7C217.3,79,218,80.7,219.2,81.9
	L219.2,81.9z M224.1,80.3c-0.1,0-0.1,0-0.2,0c-0.5,0-0.9-0.3-1.3-0.8c-0.5-0.6-0.5-1.6-0.5-2.5c0-1.1,0.2-1.9,0.5-2.5
	c0.4-0.6,0.7-0.8,1.3-0.8c0.5,0,1,0.3,1.3,0.8c0.3,0.6,0.5,1.5,0.5,2.5s-0.2,1.9-0.5,2.5C224.9,80,224.5,80.3,224.1,80.3z M223.9,74
	c-0.4,0-0.6,0.1-0.9,0.6c-0.3,0.5-0.5,1.3-0.5,2.3c0,1.2,0.1,1.8,0.4,2.2c0.2,0.4,0.6,0.6,0.9,0.6c0.3,0.1,0.6-0.1,0.9-0.6
	c0.3-0.5,0.5-1.3,0.5-2.3s-0.2-1.8-0.5-2.3C224.6,74.3,224.3,74,223.9,74z"/>
<path d="M230,110.6v25.2h-8.5V117h-4.3v-6.4H230z"/>
<path class="st7" d="M230.3,136h-9v-18.8H217v-6.9h13.3V136z M221.8,135.5h8v-24.7h-12.3v5.9h4.3V135.5z"/>
<path d="M234.5,122.4c-1.2-1.2-1.9-3-1.9-5.1c0-1.5,0.3-2.7,0.9-3.8c0.6-1.1,1.4-1.9,2.4-2.4c1-0.6,2.2-0.8,3.4-0.8
	c1.3,0,2.4,0.3,3.4,0.8c1,0.6,1.8,1.4,2.4,2.4c0.6,1.1,0.9,2.3,0.9,3.8c0,2.2-0.6,3.9-1.9,5.1c-1.2,1.2-2.9,1.9-4.8,1.9
	C237.3,124.3,235.7,123.6,234.5,122.4z M254.1,110.6h6.1L243,135.8h-6.1L254.1,110.6z M240.4,119.6c0.3-0.5,0.5-1.3,0.5-2.4
	s-0.2-1.9-0.5-2.4s-0.7-0.7-1.1-0.7c-0.5,0-0.8,0.2-1.1,0.7s-0.4,1.3-0.4,2.4s0.1,1.9,0.4,2.4c0.3,0.5,0.7,0.7,1.1,0.7
	C239.8,120.4,240.1,120.1,240.4,119.6z M252.9,134.3c-1.2-1.2-1.9-3-1.9-5.1c0-1.5,0.3-2.7,0.9-3.8c0.6-1.1,1.4-1.9,2.4-2.4
	c1-0.6,2.2-0.8,3.4-0.8c1.3,0,2.4,0.3,3.4,0.8c1,0.6,1.8,1.4,2.4,2.4c0.6,1.1,0.9,2.3,0.9,3.8c0,2.2-0.6,3.9-1.9,5.1
	c-1.2,1.2-2.9,1.9-4.8,1.9C255.8,136.1,254.2,135.5,252.9,134.3z M258.9,131.5c0.3-0.5,0.5-1.3,0.5-2.4c0-1.1-0.2-1.9-0.5-2.4
	s-0.7-0.7-1.1-0.7c-0.5,0-0.8,0.2-1.1,0.7c-0.3,0.5-0.5,1.3-0.5,2.4s0.1,1.9,0.5,2.4c0.3,0.5,0.7,0.7,1.1,0.7
	C258.2,132.3,258.6,132,258.9,131.5z"/>
<path class="st7" d="M257.7,136.5c-2-0.1-3.7-0.8-5-2l0,0c-1.3-1.3-2-3.1-2-5.3c0-1.5,0.3-2.8,0.9-3.9c0.6-1.1,1.5-2,2.5-2.5
	c0.9-0.5,2.1-0.8,3.5-0.8c1.3,0,2.4,0.3,3.5,0.8c1,0.6,1.9,1.5,2.5,2.5c0.6,1.2,0.9,2.4,0.9,3.9c0,2.3-0.6,4.1-2,5.3
	C261.4,135.7,259.6,136.5,257.7,136.5z M253.1,134.1c1.2,1.1,2.7,1.7,4.6,1.8c1.8,0,3.4-0.6,4.6-1.8c1.2-1.1,1.8-2.7,1.8-4.9
	c0-1.4-0.3-2.6-0.9-3.7c-0.6-1-1.3-1.7-2.3-2.3c-1-0.5-2.1-0.8-3.3-0.8c-1.3,0-2.4,0.3-3.3,0.8c-1,0.5-1.7,1.3-2.3,2.3
	c-0.6,1.1-0.9,2.3-0.9,3.7C251.3,131.2,251.9,132.9,253.1,134.1z M243.1,136h-6.7l0.3-0.4l17.3-25.3h6.7l-0.3,0.4L243.1,136z
	 M237.4,135.5h5.5l16.9-24.7h-5.5L237.4,135.5z M258,132.5c-0.1,0-0.1,0-0.2,0c-0.5,0-0.9-0.3-1.3-0.8c-0.5-0.6-0.5-1.6-0.5-2.5
	c0-1.1,0.2-1.9,0.5-2.5c0.4-0.6,0.7-0.8,1.3-0.8c0.5,0,1,0.3,1.3,0.8c0.4,0.6,0.5,1.5,0.5,2.5s-0.2,1.9-0.5,2.5l0,0
	C258.8,132.2,258.4,132.5,258,132.5z M257.8,126.3c-0.4,0-0.6,0.1-0.9,0.6c-0.3,0.5-0.5,1.3-0.5,2.3c0,1.2,0.1,1.8,0.4,2.2
	c0.2,0.4,0.6,0.6,0.9,0.6c0.3,0.1,0.6-0.1,0.9-0.6l0,0c0.3-0.5,0.5-1.3,0.5-2.3s-0.2-1.8-0.5-2.3
	C258.5,126.4,258.2,126.3,257.8,126.3z M239.3,124.5c-2,0-3.7-0.7-5-2l0,0l0,0c-1.3-1.3-2-3.1-2-5.3c0-1.5,0.3-2.8,0.9-3.9
	c0.6-1.1,1.5-2,2.5-2.5c0.9-0.5,2.1-0.8,3.5-0.8c1.3,0,2.4,0.3,3.5,0.8c1,0.6,1.9,1.5,2.5,2.5c0.6,1.2,0.9,2.4,0.9,3.9
	c0,2.3-0.6,4.1-2,5.3C243,123.8,241.2,124.5,239.3,124.5z M239.3,110.5c-1.3,0-2.4,0.3-3.3,0.8c-1,0.5-1.7,1.3-2.3,2.3
	c-0.6,1.1-0.9,2.3-0.9,3.7c0,2,0.6,3.7,1.8,4.9l0,0c1.2,1.2,2.8,1.8,4.6,1.8c1.8,0,3.4-0.6,4.6-1.8c1.2-1.1,1.8-2.7,1.8-4.9
	c0-1.4-0.3-2.6-0.9-3.7c-0.6-1-1.3-1.7-2.3-2.3C241.5,110.8,240.5,110.5,239.3,110.5z M239.5,120.6c-0.1,0-0.2,0-0.2,0
	c-0.5,0-0.9-0.3-1.3-0.8c-0.3-0.5-0.4-1.3-0.4-2.5c0-1.3,0.1-2,0.4-2.5c0.4-0.6,0.7-0.8,1.3-0.8c0.5,0,1,0.3,1.3,0.8
	c0.4,0.6,0.5,1.5,0.5,2.5c0,1.1-0.2,1.9-0.5,2.5l0,0C240.4,120.2,240,120.6,239.5,120.6z M239.3,114.4c-0.4,0-0.6,0.1-0.9,0.6
	c-0.3,0.4-0.4,1.1-0.4,2.3c0,1.1,0.1,1.9,0.4,2.3c0.2,0.4,0.5,0.6,0.9,0.6c0.4,0.1,0.6-0.1,0.9-0.6l0,0c0.3-0.5,0.5-1.3,0.5-2.3
	s-0.2-1.8-0.5-2.3C240,114.5,239.7,114.4,239.3,114.4z"/>
<path d="M184.6,42.5c1,1.3,1.6,2.8,1.6,4.6c0,1.5-0.4,2.9-1.2,4.2s-2.1,2.4-3.8,3.2s-3.9,1.2-6.4,1.2c-1.8,0-3.5-0.2-5.3-0.6
	c-1.8-0.4-3.3-0.9-4.6-1.7l2.9-6.3c1,0.6,2.1,1.1,3.3,1.4c1.2,0.3,2.3,0.5,3.4,0.5c1,0,1.8-0.2,2.4-0.5c0.6-0.3,0.9-0.8,0.9-1.4
	c0-1.2-1-1.7-3-1.7h-3.3v-5.2l3.7-3.8h-9V30H185v5.2l-4.7,4.8C182.1,40.4,183.6,41.3,184.6,42.5z"/>
<path class="st7" d="M174.8,56c-1.8,0-3.5-0.2-5.4-0.6c-2-0.4-3.5-1-4.7-1.7l-0.2-0.1l3.1-6.8l0.2,0.1c1.1,0.6,2.2,1.1,3.2,1.4
	c1.4,0.3,2.4,0.5,3.3,0.5c0.9,0,1.7-0.2,2.3-0.5c0.5-0.2,0.8-0.7,0.8-1.2c0-0.7-0.3-1.5-2.8-1.5h-3.5v-5.6l3.4-3.4H166v-6.9h19.3
	v5.6l-4.5,4.6c1.6,0.4,3,1.3,4,2.5l0,0c1.1,1.4,1.7,3,1.7,4.8c0,1.5-0.4,3-1.2,4.3c-0.8,1.3-2.2,2.5-3.9,3.3
	C179.6,55.5,177.4,56,174.8,56z M165.2,53.3c1.1,0.7,2.5,1.1,4.3,1.6c1.8,0.4,3.5,0.6,5.2,0.6c2.5,0,4.7-0.4,6.3-1.2
	c1.6-0.8,2.9-1.8,3.7-3.1c0.8-1.3,1.2-2.6,1.2-4.1c0-1.6-0.5-3.1-1.5-4.4c-1-1.2-2.5-2-4.2-2.4l-0.4-0.1l4.9-5v-4.8h-18.3v5.9h9.3
	l-4,4.2v4.8h3c1.4,0,3.3,0.2,3.3,2c0,0.7-0.4,1.3-1,1.6c-0.7,0.3-1.6,0.5-2.5,0.5c-1,0-2.1-0.2-3.5-0.5c-1-0.3-2.1-0.7-3.1-1.3
	L165.2,53.3z"/>
<path d="M189.1,41.8c-1.2-1.2-1.9-3-1.9-5.1c0-1.5,0.3-2.7,0.9-3.8s1.4-1.9,2.4-2.4c1-0.6,2.2-0.8,3.4-0.8c1.3,0,2.4,0.3,3.4,0.8
	c1,0.6,1.8,1.4,2.4,2.4s0.9,2.3,0.9,3.8c0,2.2-0.6,3.9-1.9,5.1c-1.2,1.2-2.9,1.9-4.8,1.9C192,43.6,190.4,43,189.1,41.8z M208.8,30
	h6.1l-17.2,25.2h-6.1L208.8,30z M195.1,39c0.3-0.5,0.5-1.3,0.5-2.4c0-1.1-0.1-1.9-0.5-2.4c-0.3-0.5-0.7-0.7-1.1-0.7
	c-0.5,0-0.8,0.2-1.1,0.7s-0.5,1.3-0.5,2.4c0,1.1,0.1,1.9,0.5,2.4c0.3,0.5,0.7,0.7,1.1,0.7C194.4,39.8,194.8,39.5,195.1,39z
	 M207.6,53.6c-1.2-1.2-1.9-3-1.9-5.1c0-1.5,0.3-2.7,0.9-3.8c0.6-1.1,1.4-1.9,2.4-2.4c1-0.6,2.2-0.8,3.4-0.8c1.3,0,2.4,0.3,3.4,0.8
	c1,0.6,1.8,1.4,2.4,2.4c0.6,1.1,0.9,2.3,0.9,3.8c0,2.2-0.6,3.9-1.9,5.1c-1.3,1.2-2.9,1.9-4.8,1.9C210.5,55.5,208.9,54.9,207.6,53.6z
	 M213.6,50.9c0.3-0.5,0.5-1.3,0.5-2.4c0-1.1-0.2-1.9-0.5-2.4s-0.7-0.7-1.1-0.7c-0.5,0-0.8,0.2-1.1,0.7s-0.4,1.3-0.4,2.4
	c0,1.1,0.1,1.9,0.4,2.4c0.3,0.5,0.7,0.7,1.1,0.7C212.9,51.6,213.3,51.4,213.6,50.9z"/>
<path class="st7" d="M212.4,55.8c-2,0-3.6-0.6-5-2l0,0c-1.3-1.3-2-3.1-2-5.3c0-1.5,0.3-2.8,0.9-3.9c0.6-1.1,1.5-2,2.5-2.5
	c0.9-0.5,2.1-0.8,3.5-0.8c1.3,0,2.4,0.3,3.5,0.8c1,0.6,1.9,1.5,2.5,2.5c0.6,1.2,0.9,2.4,0.9,3.9c0,2.3-0.6,4.1-2,5.3
	C216,55.1,214.3,55.8,212.4,55.8z M207.8,53.4c1.2,1.2,2.7,1.8,4.6,1.8c1.8,0,3.3-0.6,4.6-1.8c1.2-1.1,1.8-2.7,1.8-4.9
	c0-1.4-0.3-2.6-0.9-3.7c-0.6-1-1.4-1.7-2.3-2.3c-1-0.5-2.1-0.8-3.3-0.8c-1.3,0-2.4,0.3-3.3,0.8c-1,0.5-1.7,1.3-2.3,2.3
	c-0.6,1.1-0.9,2.3-0.9,3.7C206,50.5,206.6,52.2,207.8,53.4L207.8,53.4z M197.8,55.5h-6.7l17.5-25.7h6.7l-0.3,0.4L197.8,55.5z
	 M192.1,55h5.5l16.9-24.7h-5.5L192.1,55z M212.5,51.9c-0.5,0-1-0.3-1.3-0.8c-0.3-0.5-0.4-1.3-0.4-2.5s0.1-2,0.4-2.5
	c0.3-0.6,0.7-0.8,1.3-0.8c0.5,0,1,0.3,1.3,0.8c0.3,0.6,0.5,1.5,0.5,2.5c0,1.1-0.2,1.9-0.5,2.5l0,0C213.5,51.6,213,51.9,212.5,51.9z
	 M212.5,45.6c-0.4,0-0.6,0.1-0.9,0.6c-0.3,0.4-0.4,1.1-0.4,2.3s0.1,1.9,0.4,2.3c0.5,0.8,1.3,0.8,1.8,0l0,0c0.2-0.4,0.5-1,0.5-2.3
	s-0.3-1.9-0.5-2.3C213.2,45.8,212.9,45.6,212.5,45.6z M193.9,44c-2-0.1-3.7-0.8-5-2l0,0c-1.3-1.3-2-3.1-2-5.3c0-1.5,0.3-2.8,0.9-3.9
	c0.6-1.1,1.5-2,2.5-2.5c0.9-0.5,2.1-0.8,3.5-0.8c1.3,0,2.4,0.3,3.5,0.8c1,0.6,1.9,1.5,2.5,2.5c0.6,1,0.9,2.4,0.9,3.9
	c0,2.3-0.6,4.1-2,5.3C197.6,43.2,195.8,44,193.9,44z M189.3,41.6c1.2,1.1,2.7,1.7,4.6,1.8c1.8,0,3.4-0.6,4.6-1.8
	c1.2-1.1,1.8-2.7,1.8-4.9c0-1.5-0.3-2.7-0.9-3.7c-0.6-1-1.4-1.7-2.3-2.3c-1-0.5-2.1-0.8-3.3-0.8c-1.3,0-2.4,0.3-3.3,0.8
	c-1,0.5-1.7,1.3-2.3,2.3c-0.6,1.1-0.9,2.3-0.9,3.7C187.5,38.7,188.1,40.4,189.3,41.6z M194.2,40c-0.1,0-0.1,0-0.2,0c0,0,0,0,0,0
	c-0.5,0-0.9-0.3-1.2-0.8c-0.5-0.6-0.5-1.6-0.5-2.5c0-1.1,0.2-1.9,0.5-2.5s0.7-0.8,1.3-0.8c0.5,0,1,0.3,1.3,0.8
	c0.5,0.6,0.5,1.6,0.5,2.5c0,1.1-0.2,1.9-0.5,2.5v0C195,39.7,194.6,40,194.2,40z M194,33.8c-0.4,0-0.6,0.1-0.9,0.6
	c-0.3,0.5-0.5,1.3-0.5,2.3c0,1.2,0.1,1.8,0.4,2.2c0.2,0.4,0.6,0.6,0.9,0.6c0.3,0.1,0.6-0.1,0.9-0.6c0.3-0.5,0.5-1.3,0.5-2.3
	c0-1.2-0.1-1.8-0.4-2.2C194.7,34,194.4,33.8,194,33.8z"/>
<path d="M60.6,130.3v5.2l-8.4,20H43l8-18.6h-4.9v3.7h-7v-10.3L60.6,130.3L60.6,130.3z"/>
<path class="st7" d="M52.4,155.8h-9.7l8-18.6h-4.3v3.7h-7.5V130h22l0,5.5L52.4,155.8z M43.4,155.3H52l8.3-19.8v-4.9h-21v9.8h6.5
	v-3.7h5.5L43.4,155.3z"/>
<path d="M62,154.5c-0.9-0.9-1.3-2-1.3-3.4s0.4-2.5,1.3-3.3c0.9-0.9,2-1.3,3.4-1.3s2.5,0.4,3.4,1.3c0.9,0.9,1.4,2,1.4,3.3
	c0,1.4-0.5,2.5-1.4,3.4s-2,1.3-3.4,1.3C64,155.9,62.9,155.4,62,154.5z"/>
<path class="st7" d="M65,156.1c-1.2,0-2.3-0.5-3.2-1.4c-0.9-0.9-1.4-2.1-1.4-3.6c0-1.5,0.5-2.7,1.4-3.5c0.9-0.9,2.1-1.4,3.6-1.4
	s2.6,0.4,3.6,1.4c1,1,1.5,2.1,1.5,3.5c0,1.4-0.5,2.6-1.5,3.6c-0.9,0.9-2.1,1.4-3.6,1.4C65.3,156.1,65.2,156.1,65,156.1z M65.4,146.8
	c-1.4,0-2.4,0.4-3.2,1.2c-0.8,0.7-1.2,1.8-1.2,3.1c0,1.4,0.4,2.4,1.2,3.2c0.9,0.9,2,1.3,3.2,1.2c1.4,0,2.4-0.4,3.2-1.2
	c0.9-0.9,1.3-1.9,1.3-3.2c0-1.2-0.4-2.2-1.3-3.1C67.8,147.1,66.8,146.8,65.4,146.8z"/>
<path d="M90,141.4c1.7,1.5,2.5,3.4,2.5,5.8c0,1.6-0.4,3-1.2,4.4c-0.8,1.3-2.1,2.4-3.8,3.2s-3.9,1.2-6.4,1.2c-1.8,0-3.5-0.2-5.3-0.6
	c-1.8-0.4-3.3-0.9-4.6-1.7l2.9-6.3c1.1,0.6,2.2,1.1,3.3,1.4c1.2,0.3,2.3,0.5,3.4,0.5c1,0,1.8-0.2,2.4-0.5s0.9-0.8,0.9-1.5
	c0-0.6-0.3-1-0.8-1.4c-0.6-0.3-1.5-0.4-3-0.4H73l1.3-15.3H91v6.4h-9.8l-0.2,2.5h1.3C85.7,139.2,88.3,139.9,90,141.4z"/>
<path class="st7" d="M81.1,156.3c-1.8,0-3.5-0.2-5.4-0.6c-2-0.4-3.5-1-4.7-1.7l-0.2-0.1l3.1-6.7l0.2,0.1c1.2,0.7,2.3,1.1,3.2,1.4
	c1.4,0.3,2.4,0.5,3.3,0.5c0.9,0,1.7-0.2,2.3-0.5c0.5-0.3,0.8-0.7,0.8-1.3c0-0.5-0.2-0.8-0.7-1.2c-0.5-0.2-1.3-0.3-2.8-0.3h-7.6
	l1.3-15.8h17.2v6.9h-9.8l-0.2,2h1c3.6,0.1,6.2,0.9,7.9,2.4c1.7,1.5,2.6,3.5,2.6,6c0,1.6-0.4,3.1-1.2,4.5c-0.8,1.3-2.2,2.5-3.9,3.3
	C85.9,155.8,83.7,156.3,81.1,156.3z M71.5,153.6c1.1,0.7,2.5,1.1,4.3,1.6c1.8,0.4,3.5,0.6,5.2,0.6c2.5,0,4.7-0.4,6.3-1.2
	c1.6-0.8,2.9-1.8,3.7-3.1c0.8-1.4,1.2-2.7,1.2-4.3c0-2.3-0.8-4.2-2.4-5.6c-1.6-1.4-4.1-2.1-7.5-2.2h-1.6l0.2-3h9.8v-5.9H74.5
	l-1.3,14.8h7c1.6,0,2.5,0.1,3.1,0.4c0.5,0.4,0.9,0.8,0.9,1.6c0,0.8-0.3,1.4-1,1.7c-0.7,0.3-1.6,0.5-2.5,0.5c-1,0-2.1-0.2-3.5-0.5
	c-0.9-0.3-2-0.7-3.1-1.3L71.5,153.6z"/>
<path d="M95.2,142.1c-1.2-1.2-1.9-3-1.9-5.1c0-1.5,0.3-2.7,0.9-3.8s1.4-1.9,2.4-2.4c1-0.6,2.2-0.8,3.4-0.8c1.3,0,2.4,0.3,3.4,0.8
	c1,0.6,1.8,1.4,2.4,2.4s0.9,2.3,0.9,3.8c0,2.2-0.6,3.9-1.9,5.1c-1.2,1.2-2.9,1.9-4.8,1.9S96.5,143.4,95.2,142.1z M114.8,130.3h6.1
	l-17.2,25.2h-6.1L114.8,130.3z M101.2,139.4c0.3-0.5,0.5-1.3,0.5-2.4c0-1.1-0.1-1.9-0.5-2.4c-0.3-0.5-0.7-0.7-1.1-0.7
	c-0.5,0-0.8,0.2-1.1,0.7c-0.3,0.5-0.5,1.3-0.5,2.4c0,1.1,0.1,1.9,0.5,2.4c0.3,0.5,0.7,0.7,1.1,0.7
	C100.5,140.1,100.9,139.8,101.2,139.4z M113.7,154c-1.2-1.2-1.9-3-1.9-5.1c0-1.5,0.3-2.7,0.9-3.8s1.4-1.9,2.4-2.4
	c1-0.6,2.2-0.8,3.4-0.8c1.3,0,2.4,0.3,3.4,0.8c1,0.6,1.8,1.4,2.4,2.4c0.6,1.1,0.9,2.3,0.9,3.8c0,2.2-0.6,3.9-1.9,5.1
	c-1.2,1.2-2.9,1.9-4.8,1.9C116.5,155.9,114.9,155.2,113.7,154z M119.6,151.2c0.3-0.5,0.5-1.3,0.5-2.4c0-1.1-0.2-1.9-0.5-2.4
	s-0.7-0.7-1.1-0.7c-0.5,0-0.8,0.2-1.1,0.7c-0.3,0.5-0.5,1.3-0.5,2.4c0,1.1,0.1,1.9,0.5,2.4c0.3,0.5,0.7,0.7,1.1,0.7
	C119,152,119.3,151.7,119.6,151.2z"/>
<path class="st7" d="M118.5,156.1c-2,0-3.7-0.7-5-2c-1.3-1.3-2-3.1-2-5.3c0-1.5,0.3-2.8,0.9-3.9c0.6-1.1,1.5-2,2.5-2.5
	c0.9-0.5,2.1-0.8,3.5-0.8c1.3,0,2.4,0.3,3.5,0.8c1,0.6,1.9,1.5,2.5,2.5c0.6,1.2,0.9,2.4,0.9,3.9c0,2.3-0.6,4.1-2,5.3
	C122.2,155.4,120.4,156.1,118.5,156.1z M118.5,142.1c-1.3,0-2.4,0.3-3.3,0.8c-1,0.5-1.7,1.3-2.3,2.3c-0.6,1.1-0.9,2.3-0.9,3.7
	c0,2,0.6,3.7,1.8,4.9l0,0c1.2,1.2,2.8,1.8,4.6,1.8c1.8,0,3.4-0.6,4.6-1.8c1.2-1.1,1.8-2.7,1.8-4.9c0-1.4-0.3-2.6-0.9-3.7
	c-0.6-1-1.3-1.7-2.3-2.3C120.7,142.4,119.7,142.1,118.5,142.1z M103.8,155.8h-6.7l17.5-25.7h6.7L103.8,155.8z M98.1,155.3h5.5
	l16.9-24.7h-5.5L98.1,155.3z M118.7,152.2c-0.1,0-0.2,0-0.2,0c-0.5,0-0.9-0.3-1.3-0.8c-0.5-0.6-0.5-1.6-0.5-2.5
	c0-1.1,0.2-1.9,0.5-2.5c0.4-0.6,0.7-0.8,1.3-0.8c0.5,0,1,0.3,1.3,0.8c0.4,0.6,0.5,1.5,0.5,2.5c0,1.1-0.2,1.9-0.5,2.5v0
	C119.6,151.8,119.2,152.2,118.7,152.2z M118.5,146c-0.4,0-0.6,0.1-0.9,0.6c-0.3,0.5-0.5,1.3-0.5,2.3c0,1.2,0.1,1.8,0.4,2.2
	c0.2,0.4,0.6,0.6,0.9,0.6c0.3,0.1,0.5,0,0.9-0.6c0.3-0.5,0.5-1.3,0.5-2.3s-0.2-1.8-0.5-2.3C119.2,146.2,118.9,146,118.5,146z
	 M100,144.3c-2,0-3.6-0.6-5-2c-1.3-1.3-2-3.1-2-5.3c0-1.5,0.3-2.8,0.9-3.9c0.6-1.1,1.5-2,2.5-2.5c0.9-0.5,2.1-0.8,3.5-0.8
	c1.3,0,2.4,0.3,3.5,0.8c1,0.6,1.9,1.5,2.5,2.5c0.6,1,0.9,2.4,0.9,3.9c0,2.3-0.6,4.1-2,5.3C103.7,143.5,101.9,144.3,100,144.3z
	 M100,130.3c-1.3,0-2.4,0.3-3.3,0.8c-1,0.5-1.7,1.3-2.3,2.3c-0.6,1.1-0.9,2.3-0.9,3.7c0,2,0.6,3.7,1.8,4.9c1.2,1.2,2.7,1.8,4.6,1.8
	c1.8,0,3.4-0.6,4.6-1.8c1.2-1.1,1.8-2.7,1.8-4.9c0-1.5-0.3-2.7-0.9-3.7c-0.6-1-1.4-1.7-2.3-2.3C102.2,130.5,101.2,130.3,100,130.3z
	 M100.1,140.4c-0.5,0-1-0.3-1.3-0.8c-0.5-0.6-0.5-1.6-0.5-2.5c0-1.1,0.2-1.9,0.5-2.5c0.4-0.6,0.7-0.8,1.3-0.8c0.5,0,1,0.3,1.3,0.8
	c0.5,0.6,0.5,1.6,0.5,2.5c0,1.1-0.2,1.9-0.5,2.5l0,0C101,140.1,100.5,140.4,100.1,140.4z M100.1,134.1c-0.4,0-0.6,0.1-0.9,0.6
	c-0.3,0.5-0.5,1.3-0.5,2.3c0,1.2,0.1,1.8,0.4,2.2c0.2,0.4,0.6,0.6,0.9,0.6c0.3,0,0.6-0.2,0.9-0.6c0.3-0.5,0.5-1.3,0.5-2.3
	c0-1.2-0.1-1.8-0.4-2.2C100.8,134.4,100.5,134.1,100.1,134.1z"/>
<path d="M225.9,290.7c0.6,1,0.9,2.1,0.9,3.3c0,1.6-0.5,3-1.4,4.2s-2.3,2.2-4,2.8s-3.7,1-5.9,1s-4.2-0.3-5.9-1s-3-1.6-4-2.8
	c-0.9-1.2-1.4-2.6-1.4-4.2c0-1.2,0.3-2.4,0.9-3.3c0.6-1,1.4-1.8,2.5-2.5c-1.7-1.3-2.5-3-2.5-5c0-1.5,0.4-2.8,1.3-4
	c0.9-1.1,2.1-2,3.7-2.6c1.6-0.6,3.4-0.9,5.4-0.9s3.8,0.3,5.4,0.9c1.6,0.6,2.8,1.5,3.7,2.6s1.3,2.4,1.3,4c0,2-0.8,3.6-2.5,5
	C224.5,288.9,225.3,289.7,225.9,290.7z M217.5,295.6c0.5-0.5,0.8-1.1,0.8-1.9s-0.3-1.4-0.8-1.9s-1.2-0.7-2-0.7s-1.5,0.2-2,0.7
	s-0.8,1.1-0.8,1.9s0.3,1.4,0.8,1.9s1.2,0.7,2,0.7C216.3,296.4,217,296.1,217.5,295.6z M214,282c-0.4,0.4-0.6,0.9-0.6,1.6
	s0.2,1.2,0.6,1.6c0.4,0.4,0.9,0.6,1.5,0.6s1.1-0.2,1.5-0.6s0.6-0.9,0.6-1.6s-0.2-1.2-0.6-1.6c-0.4-0.4-0.9-0.6-1.5-0.6
	C214.9,281.5,214.4,281.7,214,282z"/>
<path class="st7" d="M215.5,302.3c-2.3,0-4.4-0.3-6-1c-1.7-0.7-3.1-1.7-4.1-2.9c-1-1.3-1.5-2.8-1.5-4.4c0-1.3,0.3-2.5,0.9-3.4
	c0.6-0.9,1.3-1.7,2.3-2.4c-1.5-1.3-2.3-3-2.3-5c0-1.6,0.4-2.9,1.4-4.1c1-1.2,2.3-2.1,3.8-2.7c1.6-0.6,3.5-0.9,5.5-0.9
	s3.9,0.3,5.5,0.9c1.5,0.6,2.8,1.5,3.8,2.7c0.9,1.1,1.4,2.5,1.4,4.2c0,2-0.7,3.6-2.3,5c1,0.7,1.7,1.4,2.3,2.4l0,0
	c0.6,1,0.9,2.2,0.9,3.4c0,1.6-0.5,3.1-1.4,4.4c-0.9,1.3-2.4,2.3-4.1,2.9C219.6,301.9,217.6,302.3,215.5,302.3z M215.5,276
	c-2,0-3.7,0.3-5.3,0.9c-1.5,0.5-2.7,1.4-3.6,2.5c-0.8,1.1-1.2,2.4-1.2,3.8c0,2,0.8,3.6,2.4,4.8l0.3,0.2l-0.3,0.2
	c-1.1,0.7-1.8,1.4-2.4,2.4c-0.6,0.8-0.9,2-0.9,3.2c0,1.5,0.5,2.9,1.3,4.1c0.9,1.1,2.2,2,3.9,2.7c1.6,0.7,3.5,1,5.8,1
	c2,0,4-0.3,5.8-1c1.6-0.6,3-1.5,3.9-2.7c0.9-1.2,1.3-2.6,1.3-4.1c0-1.1-0.3-2.2-0.9-3.2c-0.6-1-1.4-1.7-2.4-2.4l-0.3-0.2l0.3-0.2
	c1.6-1.4,2.4-2.9,2.4-4.8c0-1.6-0.4-2.8-1.2-3.8c-0.9-1.1-2.1-2-3.6-2.5C219.2,276.2,217.5,276,215.5,276z M215.8,296.6
	c-0.1,0-0.2,0-0.3,0c0,0,0,0,0,0c-0.9,0-1.6-0.3-2.1-0.8c-0.6-0.6-0.9-1.3-0.9-2.1s0.3-1.5,0.9-2.1c0.5-0.5,1.2-0.8,2.2-0.8
	s1.7,0.3,2.2,0.8c0.6,0.6,0.9,1.3,0.9,2.1s-0.3,1.5-0.9,2.1C217.2,296.3,216.5,296.6,215.8,296.6z M215.5,291.4
	c-0.8,0-1.4,0.2-1.8,0.6c-0.5,0.5-0.7,1-0.7,1.7c0,0.7,0.2,1.2,0.7,1.7c0.4,0.4,1,0.6,1.8,0.6c0.7,0.1,1.3-0.1,1.8-0.6
	c0.5-0.5,0.7-1,0.7-1.7c0-0.7-0.2-1.2-0.7-1.7C216.9,291.6,216.3,291.4,215.5,291.4z M215.5,286c-0.7,0-1.2-0.2-1.7-0.7
	c-0.5-0.5-0.7-1-0.7-1.8c0-0.8,0.2-1.3,0.7-1.8l0,0c0.4-0.3,1-0.5,1.6-0.6c0,0,0,0,0,0c0.7,0,1.3,0.2,1.7,0.7c0.5,0.5,0.7,1,0.7,1.8
	c0,0.8-0.2,1.3-0.7,1.8C216.7,285.8,216.2,286,215.5,286z M214.2,282.2c-0.4,0.4-0.5,0.8-0.5,1.4c0,0.6,0.2,1.1,0.5,1.4
	c0.4,0.4,0.8,0.5,1.3,0.5s1-0.2,1.3-0.5c0.4-0.4,0.5-0.8,0.5-1.4c0-0.6-0.2-1.1-0.5-1.4c-0.4-0.4-0.8-0.5-1.3-0.5
	C215,281.7,214.5,281.9,214.2,282.2z"/>
<path d="M250,276.3v5.2l-8.4,20h-9.3l8-18.6h-4.9v3.7h-7v-10.3L250,276.3L250,276.3z"/>
<path class="st7" d="M241.8,301.8h-9.8l8-18.6h-4.3v3.7h-7.5V276h22.1l0,5.5L241.8,301.8z M232.7,301.3h8.8l8.3-19.8v-4.9h-21.1v9.8
	h6.5v-3.7h5.5L232.7,301.3z"/>
<path d="M251.4,300.6c-0.9-0.9-1.4-2-1.4-3.4s0.5-2.5,1.4-3.3c0.9-0.9,2-1.3,3.4-1.3s2.5,0.4,3.4,1.3s1.3,2,1.3,3.3
	c0,1.4-0.4,2.5-1.3,3.4s-2,1.3-3.4,1.3S252.3,301.4,251.4,300.6z"/>
<path class="st7" d="M254.8,302.1c-1.4,0-2.5-0.4-3.6-1.4l0,0c-1-1-1.5-2.2-1.5-3.6c0-1.4,0.5-2.6,1.5-3.5c0.9-0.9,2.1-1.4,3.6-1.4
	c1.5,0,2.6,0.4,3.6,1.4c0.9,0.9,1.4,2.1,1.4,3.5c0,1.5-0.4,2.6-1.4,3.6C257.4,301.7,256.3,302.1,254.8,302.1z M251.6,300.4
	c0.9,0.8,2,1.2,3.2,1.2c1.4,0,2.4-0.4,3.2-1.2c0.8-0.8,1.2-1.9,1.2-3.2c0-1.3-0.4-2.3-1.2-3.1c-0.8-0.8-1.9-1.2-3.2-1.2
	s-2.4,0.4-3.2,1.2c-0.9,0.8-1.3,1.8-1.3,3.1C250.3,298.5,250.7,299.5,251.6,300.4z"/>
<path d="M279.4,287.4c1.7,1.5,2.5,3.4,2.5,5.8c0,1.6-0.4,3-1.2,4.4c-0.8,1.3-2.1,2.4-3.8,3.2c-1.7,0.8-3.9,1.2-6.4,1.2
	c-1.8,0-3.5-0.2-5.3-0.6s-3.3-0.9-4.6-1.7l2.9-6.3c1.1,0.6,2.2,1.1,3.3,1.4c1.2,0.3,2.3,0.5,3.4,0.5c1,0,1.8-0.2,2.4-0.5
	s0.9-0.8,0.9-1.5c0-0.6-0.3-1-0.8-1.4c-0.6-0.3-1.5-0.4-3-0.4h-7.3l1.3-15.3h16.7v6.4h-9.8l-0.2,2.5h1.3
	C275.1,285.2,277.7,285.9,279.4,287.4z"/>
<path class="st7" d="M270.5,302.3c-1.8,0-3.5-0.2-5.4-0.6c-2-0.4-3.5-1-4.7-1.7l-0.2-0.1l3.1-6.7l0.2,0.1c1.2,0.7,2.3,1.1,3.2,1.4
	c1.4,0.3,2.4,0.5,3.3,0.5c0.9,0,1.7-0.2,2.3-0.5c0.5-0.3,0.8-0.7,0.8-1.3c0-0.5-0.2-0.8-0.7-1.2c-0.5-0.2-1.3-0.3-2.8-0.3h-7.6
	l1.3-15.8h17.2v6.9h-9.8l-0.2,2h1c3.6,0.1,6.2,0.9,7.9,2.4l0,0c1.7,1.5,2.6,3.5,2.6,6c0,1.6-0.4,3.1-1.2,4.5
	c-0.8,1.3-2.2,2.5-3.9,3.3C275.3,301.8,273.1,302.3,270.5,302.3z M260.9,299.6c1.1,0.7,2.5,1.1,4.3,1.6c1.8,0.4,3.5,0.6,5.2,0.6
	c2.5,0,4.7-0.4,6.3-1.2c1.6-0.8,2.9-1.8,3.7-3.1c0.8-1.4,1.2-2.7,1.2-4.3c0-2.3-0.8-4.2-2.4-5.6l0,0c-1.6-1.4-4.1-2.1-7.5-2.2h-1.6
	l0.2-3h9.8v-5.9h-16.2l-1.3,14.8h7c1.6,0,2.5,0.1,3.1,0.4c0.5,0.4,0.9,0.8,0.9,1.6c0,0.8-0.3,1.4-1,1.7c-0.7,0.3-1.6,0.5-2.5,0.5
	c-1,0-2.1-0.2-3.5-0.5c-0.9-0.3-2-0.7-3.1-1.3L260.9,299.6z"/>
<path d="M284.6,288.1c-1.2-1.2-1.9-3-1.9-5.1c0-1.5,0.3-2.7,0.9-3.8c0.6-1.1,1.4-1.9,2.4-2.4c1-0.6,2.2-0.8,3.4-0.8
	c1.3,0,2.4,0.3,3.4,0.8c1,0.6,1.8,1.4,2.4,2.4c0.6,1.1,0.9,2.3,0.9,3.8c0,2.2-0.6,3.9-1.9,5.1c-1.2,1.2-2.9,1.9-4.8,1.9
	S285.9,289.4,284.6,288.1z M304.2,276.3h6.1l-17.2,25.2H287L304.2,276.3z M290.6,285.4c0.3-0.5,0.5-1.3,0.5-2.4s-0.2-1.9-0.5-2.4
	s-0.7-0.7-1.1-0.7c-0.5,0-0.8,0.2-1.1,0.7c-0.3,0.5-0.4,1.3-0.4,2.4s0.1,1.9,0.4,2.4s0.7,0.7,1.1,0.7S290.3,285.9,290.6,285.4z
	 M303.1,300c-1.2-1.2-1.9-3-1.9-5.1c0-1.5,0.3-2.7,0.9-3.8c0.6-1.1,1.4-1.9,2.4-2.4c1-0.6,2.2-0.8,3.4-0.8c1.3,0,2.4,0.3,3.4,0.8
	c1,0.6,1.8,1.4,2.4,2.4c0.6,1.1,0.9,2.3,0.9,3.8c0,2.2-0.6,3.9-1.9,5.1c-1.2,1.2-2.9,1.9-4.8,1.9C305.9,301.9,304.3,301.3,303.1,300
	z M309,297.3c0.3-0.5,0.5-1.3,0.5-2.4s-0.2-1.9-0.5-2.4s-0.7-0.7-1.1-0.7c-0.5,0-0.8,0.2-1.1,0.7c-0.3,0.5-0.5,1.3-0.5,2.4
	s0.1,1.9,0.5,2.4c0.3,0.5,0.7,0.7,1.1,0.7C308.4,298,308.7,297.7,309,297.3z"/>
<path class="st7" d="M307.9,302.1c-2.1,0-3.8-0.6-5-2c-1.3-1.3-2-3.1-2-5.3c0-1.5,0.3-2.8,0.9-3.9c0.6-1.1,1.5-2,2.5-2.5
	c0.9-0.5,2.1-0.8,3.5-0.8c1.3,0,2.4,0.3,3.5,0.8c1,0.6,1.9,1.5,2.5,2.5c0.6,1.2,0.9,2.4,0.9,3.9c0,2.3-0.6,4.1-2,5.3
	C311.6,301.4,309.8,302.1,307.9,302.1z M307.9,288.1c-1.3,0-2.4,0.3-3.3,0.8c-1,0.5-1.7,1.3-2.3,2.3c-0.6,1.1-0.9,2.3-0.9,3.7
	c0,2,0.6,3.7,1.8,4.9l0,0c1.1,1.2,2.6,1.8,4.6,1.8c1.8,0,3.4-0.6,4.6-1.8c1.2-1.1,1.8-2.7,1.8-4.9c0-1.4-0.3-2.6-0.9-3.7
	c-0.6-1-1.4-1.7-2.3-2.3C310.1,288.4,309.1,288.1,307.9,288.1z M293.2,301.8h-6.7l0.3-0.4l17.3-25.3h6.7l-0.3,0.4L293.2,301.8z
	 M287.5,301.3h5.5l16.9-24.7h-5.5L287.5,301.3z M307.9,298.3c-0.5,0-1-0.3-1.3-0.8c-0.5-0.6-0.5-1.6-0.5-2.5c0-1.1,0.2-1.9,0.5-2.5
	c0.4-0.6,0.7-0.8,1.3-0.8c0.5,0,1,0.3,1.3,0.8c0.3,0.6,0.5,1.5,0.5,2.5s-0.2,1.9-0.5,2.5l0,0C308.9,297.8,308.5,298.3,307.9,298.3z
	 M307.9,292c-0.4,0-0.6,0.1-0.9,0.6c-0.3,0.5-0.5,1.3-0.5,2.3c0,1.2,0.1,1.8,0.4,2.2c0.2,0.4,0.6,0.6,0.9,0.6c0.4,0,0.6-0.2,0.9-0.6
	c0.3-0.5,0.5-1.3,0.5-2.3c0-1-0.2-1.8-0.5-2.3C308.6,292.3,308.3,292,307.9,292z M289.4,290.3c-2,0-3.6-0.6-5-2l0,0
	c-1.3-1.3-2-3.1-2-5.3c0-1.5,0.3-2.8,0.9-3.9c0.6-1.1,1.5-2,2.5-2.5c0.9-0.5,2.1-0.8,3.5-0.8c1.3,0,2.4,0.3,3.5,0.8
	c1,0.6,1.9,1.5,2.5,2.5c0.6,1.2,0.9,2.4,0.9,3.9c0,2.3-0.6,4.1-2,5.3C293.1,289.5,291.3,290.3,289.4,290.3z M284.8,287.9
	c1.2,1.2,2.7,1.8,4.6,1.8c1.8,0,3.4-0.6,4.6-1.8c1.2-1.1,1.8-2.7,1.8-4.9c0-1.4-0.3-2.6-0.9-3.7c-0.6-1-1.4-1.7-2.3-2.3
	c-1-0.5-2.1-0.8-3.3-0.8c-1.3,0-2.4,0.3-3.3,0.8c-1,0.5-1.7,1.3-2.3,2.3c-0.6,1.1-0.9,2.3-0.9,3.7C283,285,283.6,286.7,284.8,287.9
	L284.8,287.9z M289.5,286.4c-0.5,0-1-0.3-1.3-0.8c-0.3-0.5-0.4-1.3-0.4-2.5s0.1-2,0.4-2.5c0.3-0.6,0.7-0.8,1.3-0.8
	c0.5,0,1,0.3,1.3,0.8c0.3,0.6,0.5,1.5,0.5,2.5c0,1.1-0.2,1.9-0.5,2.5l0,0C290.5,286.1,290,286.4,289.5,286.4z M289.5,280.1
	c-0.4,0-0.6,0.1-0.9,0.6c-0.3,0.4-0.4,1.1-0.4,2.3s0.1,1.9,0.4,2.3c0.5,0.8,1.3,0.8,1.8,0l0,0c0.2-0.4,0.5-1,0.5-2.3
	s-0.3-1.9-0.5-2.3C290.2,280.3,289.9,280.1,289.5,280.1z"/>
<path d="M127.7,412.5c1.1,0.9,1.6,2.1,1.6,3.7c0,1.6-0.5,2.8-1.6,3.7c-1.1,0.9-2.5,1.3-4.4,1.3h-3.9v4.6h-1.6v-14.7h5.5
	C125.1,411.2,126.6,411.6,127.7,412.5z M126.6,418.9c0.8-0.6,1.2-1.5,1.2-2.7c0-1.2-0.4-2.1-1.2-2.7s-1.9-1-3.3-1h-3.9v7.4h3.9
	C124.7,419.8,125.8,419.5,126.6,418.9z"/>
<path d="M135,415.3c0.7-0.4,1.6-0.6,2.6-0.6v1.4l-0.4,0c-1.2,0-2.1,0.4-2.7,1.1c-0.7,0.7-1,1.7-1,3v5.6H132v-11h1.4v2.2
	C133.8,416.2,134.3,415.7,135,415.3z"/>
<path d="M141.8,425.2c-0.9-0.5-1.5-1.2-2-2c-0.5-0.9-0.7-1.8-0.7-2.9c0-1.1,0.2-2,0.7-2.9c0.5-0.9,1.2-1.5,2-2
	c0.9-0.5,1.8-0.7,2.9-0.7c1.1,0,2,0.2,2.9,0.7c0.9,0.5,1.5,1.1,2,2c0.5,0.9,0.7,1.8,0.7,2.9c0,1.1-0.2,2-0.7,2.9
	c-0.5,0.9-1.2,1.5-2,2c-0.9,0.5-1.8,0.7-2.9,0.7C143.6,426,142.7,425.7,141.8,425.2z M146.8,424.1c0.6-0.4,1.1-0.9,1.5-1.5
	c0.3-0.7,0.5-1.4,0.5-2.2c0-0.8-0.2-1.6-0.5-2.2c-0.4-0.7-0.8-1.2-1.5-1.5c-0.6-0.4-1.3-0.5-2.1-0.5c-0.8,0-1.5,0.2-2.1,0.5
	c-0.6,0.4-1.1,0.9-1.5,1.5s-0.5,1.4-0.5,2.2c0,0.8,0.2,1.6,0.5,2.2c0.4,0.7,0.8,1.2,1.5,1.5c0.6,0.4,1.3,0.5,2.1,0.5
	C145.5,424.6,146.2,424.5,146.8,424.1z"/>
<path d="M163.4,410.3v15.6H162v-2.2c-0.4,0.7-1,1.3-1.8,1.7c-0.7,0.4-1.6,0.6-2.5,0.6c-1,0-2-0.2-2.8-0.7c-0.8-0.5-1.5-1.1-2-2
	c-0.5-0.9-0.7-1.8-0.7-2.9c0-1.1,0.2-2.1,0.7-2.9c0.5-0.9,1.1-1.5,2-2c0.8-0.5,1.8-0.7,2.8-0.7c0.9,0,1.7,0.2,2.4,0.6
	c0.7,0.4,1.3,0.9,1.8,1.6v-6.6H163.4z M160,424.1c0.6-0.4,1.1-0.9,1.5-1.5c0.4-0.7,0.5-1.4,0.5-2.2c0-0.8-0.2-1.6-0.5-2.2
	c-0.4-0.7-0.8-1.2-1.5-1.5c-0.6-0.4-1.3-0.5-2.1-0.5c-0.8,0-1.5,0.2-2.1,0.5c-0.6,0.4-1.1,0.9-1.5,1.5s-0.5,1.4-0.5,2.2
	c0,0.8,0.2,1.6,0.5,2.2c0.4,0.7,0.8,1.2,1.5,1.5c0.6,0.4,1.3,0.5,2.1,0.5C158.6,424.6,159.3,424.5,160,424.1z"/>
<path d="M177.5,414.8v11h-1.4v-2c-0.4,0.7-0.9,1.2-1.6,1.6s-1.5,0.6-2.4,0.6c-1.4,0-2.6-0.4-3.4-1.2c-0.8-0.8-1.2-2-1.2-3.5v-6.4
	h1.5v6.3c0,1.2,0.3,2,0.9,2.6c0.6,0.6,1.4,0.9,2.5,0.9c1.2,0,2.1-0.4,2.8-1.1c0.7-0.7,1-1.7,1-3v-5.8H177.5z"/>
<path d="M187.5,425.2c-0.3,0.3-0.6,0.4-1,0.6c-0.4,0.1-0.8,0.2-1.3,0.2c-1,0-1.8-0.3-2.4-0.8c-0.6-0.6-0.8-1.4-0.8-2.4v-6.7h-2v-1.3
	h2v-2.4h1.5v2.4h3.4v1.3h-3.4v6.6c0,0.7,0.2,1.2,0.5,1.5c0.3,0.3,0.8,0.5,1.4,0.5c0.3,0,0.6,0,0.9-0.1c0.3-0.1,0.5-0.2,0.7-0.4
	L187.5,425.2z"/>
<path d="M191.5,425.2c-0.9-0.5-1.5-1.2-2-2c-0.5-0.9-0.7-1.8-0.7-2.9c0-1.1,0.2-2,0.7-2.9c0.5-0.9,1.2-1.5,2-2
	c0.9-0.5,1.8-0.7,2.9-0.7c1.1,0,2,0.2,2.9,0.7c0.9,0.5,1.5,1.1,2,2c0.5,0.9,0.7,1.8,0.7,2.9c0,1.1-0.2,2-0.7,2.9
	c-0.5,0.9-1.2,1.5-2,2c-0.9,0.5-1.8,0.7-2.9,0.7C193.3,426,192.3,425.7,191.5,425.2z M196.5,424.1c0.6-0.4,1.1-0.9,1.5-1.5
	c0.3-0.7,0.5-1.4,0.5-2.2c0-0.8-0.2-1.6-0.5-2.2c-0.4-0.7-0.8-1.2-1.5-1.5c-0.6-0.4-1.3-0.5-2.1-0.5c-0.8,0-1.5,0.2-2.1,0.5
	c-0.6,0.4-1.1,0.9-1.5,1.5s-0.5,1.4-0.5,2.2c0,0.8,0.2,1.6,0.5,2.2c0.4,0.7,0.8,1.2,1.5,1.5c0.6,0.4,1.3,0.5,2.1,0.5
	C195.2,424.6,195.9,424.5,196.5,424.1z"/>
<path d="M206,415.3c0.7-0.4,1.6-0.6,2.6-0.6v1.4l-0.4,0c-1.2,0-2.1,0.4-2.7,1.1c-0.7,0.7-1,1.7-1,3v5.6H203v-11h1.4v2.2
	C204.8,416.2,205.3,415.7,206,415.3z"/>
<path class="st6" d="M95.7,434.7h-21c-2.5,0-4.5-2-4.5-4.5v-21c0-2.5,2-4.5,4.5-4.5h21c2.5,0,4.5,2,4.5,4.5v21
	C100.2,432.7,98.2,434.7,95.7,434.7z"/>
<path d="M119.3,452.5v5.8h7.6v1.3h-7.6v6.2h-1.6v-14.7h10.1v1.3H119.3z"/>
<path d="M133.5,455.3c0.7-0.4,1.6-0.6,2.6-0.6v1.4l-0.4,0c-1.2,0-2.1,0.4-2.7,1.1c-0.7,0.7-1,1.7-1,3v5.6h-1.5v-11h1.4v2.2
	C132.3,456.2,132.8,455.7,133.5,455.3z"/>
<path d="M148.3,460.8h-9.2c0.1,1.1,0.5,2.1,1.3,2.8c0.8,0.7,1.8,1.1,3,1.1c0.7,0,1.3-0.1,1.9-0.4c0.6-0.2,1.1-0.6,1.5-1.1l0.8,1
	c-0.5,0.6-1.1,1-1.8,1.3c-0.7,0.3-1.5,0.5-2.4,0.5c-1.1,0-2.1-0.2-3-0.7c-0.9-0.5-1.6-1.2-2-2c-0.5-0.9-0.7-1.8-0.7-2.9
	c0-1.1,0.2-2,0.7-2.9c0.5-0.9,1.1-1.5,1.9-2c0.8-0.5,1.7-0.7,2.8-0.7s1.9,0.2,2.8,0.7c0.8,0.5,1.4,1.1,1.9,2
	c0.5,0.8,0.7,1.8,0.7,2.9L148.3,460.8z M140.3,457c-0.7,0.7-1.1,1.6-1.2,2.7h7.8c-0.1-1.1-0.5-2-1.2-2.7c-0.7-0.7-1.6-1-2.7-1
	C141.9,456,141,456.3,140.3,457z"/>
<path d="M161,460.8h-9.2c0.1,1.1,0.5,2.1,1.3,2.8c0.8,0.7,1.8,1.1,3,1.1c0.7,0,1.3-0.1,1.9-0.4c0.6-0.2,1.1-0.6,1.5-1.1l0.8,1
	c-0.5,0.6-1.1,1-1.8,1.3c-0.7,0.3-1.5,0.5-2.4,0.5c-1.1,0-2.1-0.2-3-0.7c-0.9-0.5-1.6-1.2-2-2c-0.5-0.9-0.7-1.8-0.7-2.9
	c0-1.1,0.2-2,0.7-2.9c0.5-0.9,1.1-1.5,1.9-2c0.8-0.5,1.7-0.7,2.8-0.7s1.9,0.2,2.8,0.7c0.8,0.5,1.4,1.1,1.9,2
	c0.5,0.8,0.7,1.8,0.7,2.9L161,460.8z M153,457c-0.7,0.7-1.1,1.6-1.2,2.7h7.8c-0.1-1.1-0.5-2-1.2-2.7c-0.7-0.7-1.6-1-2.7-1
	C154.6,456,153.7,456.3,153,457z"/>
<path d="M174.1,450.3v15.6h-1.4v-2.2c-0.4,0.7-1,1.3-1.8,1.7c-0.7,0.4-1.6,0.6-2.5,0.6c-1,0-2-0.2-2.8-0.7c-0.8-0.5-1.5-1.1-2-2
	c-0.5-0.9-0.7-1.8-0.7-2.9c0-1.1,0.2-2.1,0.7-2.9c0.5-0.9,1.1-1.5,2-2c0.8-0.5,1.8-0.7,2.8-0.7c0.9,0,1.7,0.2,2.4,0.6
	c0.7,0.4,1.3,0.9,1.8,1.6v-6.6H174.1z M170.7,464.1c0.6-0.4,1.1-0.9,1.5-1.5c0.4-0.7,0.5-1.4,0.5-2.2c0-0.8-0.2-1.6-0.5-2.2
	c-0.4-0.7-0.8-1.2-1.5-1.5c-0.6-0.4-1.3-0.5-2.1-0.5c-0.8,0-1.5,0.2-2.1,0.5c-0.6,0.4-1.1,0.9-1.5,1.5s-0.5,1.4-0.5,2.2
	c0,0.8,0.2,1.6,0.5,2.2c0.4,0.7,0.8,1.2,1.5,1.5c0.6,0.4,1.3,0.5,2.1,0.5C169.3,464.6,170,464.5,170.7,464.1z"/>
<path d="M179.9,465.2c-0.9-0.5-1.5-1.2-2-2c-0.5-0.9-0.7-1.8-0.7-2.9c0-1.1,0.2-2,0.7-2.9c0.5-0.9,1.2-1.5,2-2
	c0.9-0.5,1.8-0.7,2.9-0.7c1.1,0,2,0.2,2.9,0.7c0.9,0.5,1.5,1.1,2,2c0.5,0.9,0.7,1.8,0.7,2.9c0,1.1-0.2,2-0.7,2.9
	c-0.5,0.9-1.2,1.5-2,2c-0.9,0.5-1.8,0.7-2.9,0.7C181.7,466,180.8,465.7,179.9,465.2z M184.9,464.1c0.6-0.4,1.1-0.9,1.5-1.5
	c0.3-0.7,0.5-1.4,0.5-2.2c0-0.8-0.2-1.6-0.5-2.2c-0.4-0.7-0.8-1.2-1.5-1.5c-0.6-0.4-1.3-0.5-2.1-0.5c-0.8,0-1.5,0.2-2.1,0.5
	c-0.6,0.4-1.1,0.9-1.5,1.5s-0.5,1.4-0.5,2.2c0,0.8,0.2,1.6,0.5,2.2c0.4,0.7,0.8,1.2,1.5,1.5c0.6,0.4,1.3,0.5,2.1,0.5
	C183.6,464.6,184.3,464.5,184.9,464.1z"/>
<path d="M208.5,455.9c0.8,0.8,1.2,2,1.2,3.5v6.4h-1.5v-6.3c0-1.1-0.3-2-0.8-2.6c-0.6-0.6-1.3-0.9-2.3-0.9c-1.1,0-2.1,0.4-2.7,1.1
	s-1,1.7-1,2.9v5.8h-1.5v-6.3c0-1.1-0.3-2-0.8-2.6c-0.6-0.6-1.3-0.9-2.4-0.9c-1.1,0-2,0.4-2.7,1.1s-1,1.7-1,2.9v5.8h-1.5v-11h1.4v2
	c0.4-0.7,0.9-1.2,1.6-1.6c0.7-0.4,1.5-0.5,2.4-0.5c0.9,0,1.7,0.2,2.4,0.6c0.7,0.4,1.2,1,1.5,1.7c0.4-0.7,1-1.3,1.8-1.7
	c0.8-0.4,1.6-0.6,2.6-0.6C206.6,454.7,207.7,455.1,208.5,455.9z"/>
<path d="M223.4,460.8h-9.2c0.1,1.1,0.5,2.1,1.3,2.8s1.8,1.1,3,1.1c0.7,0,1.3-0.1,1.9-0.4c0.6-0.2,1.1-0.6,1.5-1.1l0.8,1
	c-0.5,0.6-1.1,1-1.8,1.3c-0.7,0.3-1.5,0.5-2.4,0.5c-1.1,0-2.1-0.2-3-0.7c-0.9-0.5-1.6-1.2-2-2c-0.5-0.9-0.7-1.8-0.7-2.9
	c0-1.1,0.2-2,0.7-2.9c0.5-0.9,1.1-1.5,1.9-2c0.8-0.5,1.7-0.7,2.8-0.7c1,0,1.9,0.2,2.8,0.7c0.8,0.5,1.4,1.1,1.9,2
	c0.5,0.8,0.7,1.8,0.7,2.9L223.4,460.8z M215.4,457c-0.7,0.7-1.1,1.6-1.2,2.7h7.8c-0.1-1.1-0.5-2-1.2-2.7c-0.7-0.7-1.6-1-2.7-1
	C217,456,216.1,456.3,215.4,457z"/>
<path d="M237.2,464.5v1.3h-10.4v-14.7h10.1v1.3h-8.5v5.2h7.6v1.3h-7.6v5.5H237.2z"/>
<path class="st5" d="M95.7,474.7h-21c-2.5,0-4.5-2-4.5-4.5v-21c0-2.5,2-4.5,4.5-4.5h21c2.5,0,4.5,2,4.5,4.5v21
	C100.2,472.7,98.2,474.7,95.7,474.7z"/>
<path d="M119.3,492.5v5.8h7.6v1.3h-7.6v6.2h-1.6v-14.7h10.1v1.3H119.3z"/>
<path d="M130.5,492.1c-0.2-0.2-0.3-0.5-0.3-0.8c0-0.3,0.1-0.5,0.3-0.7s0.5-0.3,0.8-0.3c0.3,0,0.6,0.1,0.8,0.3s0.3,0.4,0.3,0.7
	c0,0.3-0.1,0.6-0.3,0.8s-0.5,0.3-0.8,0.3C131,492.4,130.7,492.3,130.5,492.1z M130.5,494.8h1.5v11h-1.5V494.8z"/>
<path d="M136.2,490.3h1.5v15.6h-1.5V490.3z"/>
<path d="M149,495.8c0.8,0.7,1.2,1.8,1.2,3.2v6.8h-1.4v-1.7c-0.3,0.6-0.8,1-1.5,1.3c-0.7,0.3-1.4,0.5-2.3,0.5c-1.2,0-2.2-0.3-2.9-0.9
	c-0.7-0.6-1.1-1.4-1.1-2.3c0-0.9,0.3-1.7,1-2.3s1.8-0.9,3.2-0.9h3.5v-0.7c0-1-0.3-1.7-0.8-2.2c-0.5-0.5-1.3-0.7-2.3-0.7
	c-0.7,0-1.4,0.1-2,0.3c-0.6,0.2-1.2,0.5-1.7,1l-0.7-1.1c0.6-0.5,1.2-0.8,2-1.1s1.6-0.4,2.5-0.4C147.1,494.7,148.2,495.1,149,495.8z
	 M147.3,504.2c0.6-0.4,1-0.9,1.3-1.7v-1.8h-3.5c-1.9,0-2.8,0.7-2.8,2c0,0.6,0.2,1.2,0.7,1.5c0.5,0.4,1.2,0.6,2.1,0.6
	C146,504.8,146.7,504.6,147.3,504.2z"/>
<path d="M163.2,495.9c0.8,0.8,1.2,2,1.2,3.5v6.4h-1.5v-6.3c0-1.1-0.3-2-0.9-2.6c-0.6-0.6-1.4-0.9-2.5-0.9c-1.2,0-2.1,0.4-2.8,1.1
	c-0.7,0.7-1,1.7-1,2.9v5.8h-1.5v-11h1.4v2c0.4-0.7,1-1.2,1.7-1.6s1.6-0.6,2.5-0.6C161.2,494.7,162.3,495.1,163.2,495.9z"/>
<path d="M174.3,505.2c-0.3,0.3-0.6,0.4-1,0.6c-0.4,0.1-0.8,0.2-1.3,0.2c-1,0-1.8-0.3-2.4-0.8c-0.6-0.6-0.8-1.4-0.8-2.4v-6.7h-2v-1.3
	h2v-2.4h1.5v2.4h3.4v1.3h-3.4v6.6c0,0.7,0.2,1.2,0.5,1.5c0.3,0.3,0.8,0.5,1.4,0.5c0.3,0,0.6,0,0.9-0.1c0.3-0.1,0.5-0.2,0.7-0.4
	L174.3,505.2z"/>
<path d="M180,495.3c0.7-0.4,1.6-0.6,2.6-0.6v1.4l-0.4,0c-1.2,0-2.1,0.4-2.7,1.1c-0.7,0.7-1,1.7-1,3v5.6H177v-11h1.4v2.2
	C178.7,496.2,179.3,495.7,180,495.3z"/>
<path d="M186.7,505.2c-0.9-0.5-1.5-1.2-2-2c-0.5-0.9-0.7-1.8-0.7-2.9c0-1.1,0.2-2,0.7-2.9c0.5-0.9,1.2-1.5,2-2
	c0.9-0.5,1.8-0.7,2.9-0.7c1.1,0,2,0.2,2.9,0.7c0.9,0.5,1.5,1.1,2,2c0.5,0.9,0.7,1.8,0.7,2.9c0,1.1-0.2,2-0.7,2.9
	c-0.5,0.9-1.2,1.5-2,2c-0.9,0.5-1.8,0.7-2.9,0.7C188.6,506,187.6,505.7,186.7,505.2z M191.7,504.1c0.6-0.4,1.1-0.9,1.5-1.5
	c0.3-0.7,0.5-1.4,0.5-2.2c0-0.8-0.2-1.6-0.5-2.2c-0.4-0.7-0.8-1.2-1.5-1.5c-0.6-0.4-1.3-0.5-2.1-0.5c-0.8,0-1.5,0.2-2.1,0.5
	c-0.6,0.4-1.1,0.9-1.5,1.5s-0.5,1.4-0.5,2.2c0,0.8,0.2,1.6,0.5,2.2c0.4,0.7,0.8,1.2,1.5,1.5c0.6,0.4,1.3,0.5,2.1,0.5
	C190.4,504.6,191.1,504.5,191.7,504.1z"/>
<path d="M206.8,495.4c0.8,0.5,1.5,1.1,2,2c0.5,0.9,0.7,1.8,0.7,2.9c0,1.1-0.2,2.1-0.7,2.9c-0.5,0.9-1.1,1.5-2,2
	c-0.8,0.5-1.8,0.7-2.8,0.7c-0.9,0-1.7-0.2-2.4-0.6c-0.7-0.4-1.3-0.9-1.8-1.6v6.2h-1.5v-15.1h1.4v2.2c0.4-0.7,1-1.3,1.8-1.7
	c0.7-0.4,1.6-0.6,2.5-0.6C205,494.7,205.9,495,206.8,495.4z M206,504.1c0.6-0.4,1.1-0.9,1.5-1.5c0.4-0.7,0.5-1.4,0.5-2.2
	c0-0.8-0.2-1.6-0.5-2.2c-0.4-0.7-0.9-1.2-1.5-1.5c-0.6-0.4-1.3-0.5-2.1-0.5c-0.8,0-1.5,0.2-2.1,0.5c-0.6,0.4-1.1,0.9-1.5,1.5
	c-0.4,0.7-0.5,1.4-0.5,2.2c0,0.8,0.2,1.6,0.5,2.2c0.4,0.7,0.8,1.2,1.5,1.5c0.6,0.4,1.3,0.5,2.1,0.5
	C204.6,504.6,205.3,504.5,206,504.1z"/>
<path d="M212.5,492.1c-0.2-0.2-0.3-0.5-0.3-0.8c0-0.3,0.1-0.5,0.3-0.7s0.5-0.3,0.8-0.3s0.6,0.1,0.8,0.3s0.3,0.4,0.3,0.7
	c0,0.3-0.1,0.6-0.3,0.8s-0.5,0.3-0.8,0.3S212.7,492.3,212.5,492.1z M212.5,494.8h1.5v11h-1.5V494.8z"/>
<path d="M225.3,495.8c0.8,0.7,1.2,1.8,1.2,3.2v6.8h-1.4v-1.7c-0.3,0.6-0.8,1-1.5,1.3c-0.7,0.3-1.4,0.5-2.3,0.5
	c-1.2,0-2.2-0.3-2.9-0.9c-0.7-0.6-1.1-1.4-1.1-2.3c0-0.9,0.3-1.7,1-2.3c0.7-0.6,1.8-0.9,3.2-0.9h3.5v-0.7c0-1-0.3-1.7-0.8-2.2
	c-0.5-0.5-1.3-0.7-2.3-0.7c-0.7,0-1.4,0.1-2,0.3c-0.6,0.2-1.2,0.5-1.7,1l-0.7-1.1c0.6-0.5,1.2-0.8,2-1.1s1.6-0.4,2.5-0.4
	C223.5,494.7,224.6,495.1,225.3,495.8z M223.7,504.2c0.6-0.4,1-0.9,1.3-1.7v-1.8h-3.5c-1.9,0-2.8,0.7-2.8,2c0,0.6,0.2,1.2,0.7,1.5
	c0.5,0.4,1.2,0.6,2.1,0.6C222.3,504.8,223.1,504.6,223.7,504.2z"/>
<path class="st4" d="M95.7,514.7h-21c-2.5,0-4.5-2-4.5-4.5v-21c0-2.5,2-4.5,4.5-4.5h21c2.5,0,4.5,2,4.5,4.5v21
	C100.2,512.7,98.2,514.7,95.7,514.7z"/>
<path d="M128.2,584.5v1.3h-10.4v-14.7h10.1v1.3h-8.5v5.2h7.6v1.3h-7.6v5.5H128.2z"/>
<path d="M148.5,575.9c0.8,0.8,1.2,2,1.2,3.5v6.4h-1.5v-6.3c0-1.1-0.3-2-0.8-2.6s-1.3-0.9-2.3-0.9c-1.1,0-2.1,0.4-2.7,1.1
	c-0.7,0.7-1,1.7-1,2.9v5.8h-1.5v-6.3c0-1.1-0.3-2-0.8-2.6c-0.6-0.6-1.3-0.9-2.4-0.9c-1.1,0-2,0.4-2.7,1.1s-1,1.7-1,2.9v5.8h-1.5v-11
	h1.4v2c0.4-0.7,0.9-1.2,1.6-1.6c0.7-0.4,1.5-0.5,2.4-0.5c0.9,0,1.7,0.2,2.4,0.6c0.7,0.4,1.2,1,1.5,1.7c0.4-0.7,1-1.3,1.8-1.7
	c0.8-0.4,1.6-0.6,2.6-0.6C146.7,574.7,147.7,575.1,148.5,575.9z"/>
<path d="M162.3,575.4c0.8,0.5,1.5,1.1,2,2c0.5,0.9,0.7,1.8,0.7,2.9c0,1.1-0.2,2.1-0.7,2.9c-0.5,0.9-1.1,1.5-2,2
	c-0.8,0.5-1.8,0.7-2.8,0.7c-0.9,0-1.8-0.2-2.5-0.6c-0.7-0.4-1.3-1-1.8-1.7v2.2h-1.4v-15.6h1.5v6.6c0.5-0.7,1.1-1.3,1.8-1.6
	c0.7-0.4,1.5-0.6,2.4-0.6C160.5,574.7,161.4,575,162.3,575.4z M161.5,584.1c0.6-0.4,1.1-0.9,1.5-1.5c0.4-0.7,0.5-1.4,0.5-2.2
	c0-0.8-0.2-1.6-0.5-2.2s-0.9-1.2-1.5-1.5c-0.6-0.4-1.3-0.5-2.1-0.5c-0.8,0-1.5,0.2-2.1,0.5c-0.6,0.4-1.1,0.9-1.5,1.5
	s-0.5,1.4-0.5,2.2c0,0.8,0.2,1.6,0.5,2.2c0.4,0.7,0.8,1.2,1.5,1.5c0.6,0.4,1.3,0.5,2.1,0.5C160.1,584.6,160.8,584.5,161.5,584.1z"/>
<path d="M175.1,575.8c0.8,0.7,1.2,1.8,1.2,3.2v6.8h-1.4v-1.7c-0.3,0.6-0.8,1-1.5,1.3c-0.7,0.3-1.4,0.5-2.3,0.5
	c-1.2,0-2.2-0.3-2.9-0.9c-0.7-0.6-1.1-1.4-1.1-2.3c0-0.9,0.3-1.7,1-2.3s1.8-0.9,3.2-0.9h3.5v-0.7c0-1-0.3-1.7-0.8-2.2
	c-0.5-0.5-1.3-0.7-2.3-0.7c-0.7,0-1.4,0.1-2,0.3c-0.6,0.2-1.2,0.5-1.7,1l-0.7-1.1c0.6-0.5,1.2-0.8,2-1.1s1.6-0.4,2.5-0.4
	C173.3,574.7,174.4,575.1,175.1,575.8z M173.5,584.2c0.6-0.4,1-0.9,1.3-1.7v-1.8h-3.5c-1.9,0-2.8,0.7-2.8,2c0,0.6,0.2,1.2,0.7,1.5
	c0.5,0.4,1.2,0.6,2.1,0.6C172.1,584.8,172.9,584.6,173.5,584.2z"/>
<path d="M180.3,572.1c-0.2-0.2-0.3-0.5-0.3-0.8c0-0.3,0.1-0.5,0.3-0.7s0.5-0.3,0.8-0.3c0.3,0,0.6,0.1,0.8,0.3s0.3,0.4,0.3,0.7
	c0,0.3-0.1,0.6-0.3,0.8s-0.5,0.3-0.8,0.3C180.8,572.4,180.5,572.3,180.3,572.1z M180.3,574.8h1.5v11h-1.5V574.8z"/>
<path d="M193,585.9l-3.5-4.6l-3.5,4.6h-1.7l4.4-5.7l-4.2-5.4h1.7l3.3,4.3l3.3-4.3h1.6l-4.2,5.4l4.4,5.7H193z"/>
<path d="M204.2,575.8c0.8,0.7,1.2,1.8,1.2,3.2v6.8h-1.4v-1.7c-0.3,0.6-0.8,1-1.5,1.3c-0.7,0.3-1.4,0.5-2.3,0.5
	c-1.2,0-2.2-0.3-2.9-0.9c-0.7-0.6-1.1-1.4-1.1-2.3c0-0.9,0.3-1.7,1-2.3s1.8-0.9,3.2-0.9h3.5v-0.7c0-1-0.3-1.7-0.8-2.2
	c-0.5-0.5-1.3-0.7-2.3-0.7c-0.7,0-1.4,0.1-2,0.3c-0.6,0.2-1.2,0.5-1.7,1l-0.7-1.1c0.6-0.5,1.2-0.8,2-1.1s1.6-0.4,2.5-0.4
	C202.3,574.7,203.4,575.1,204.2,575.8z M202.5,584.2c0.6-0.4,1-0.9,1.3-1.7v-1.8h-3.5c-1.9,0-2.8,0.7-2.8,2c0,0.6,0.2,1.2,0.7,1.5
	c0.5,0.4,1.2,0.6,2.1,0.6C201.2,584.8,201.9,584.6,202.5,584.2z"/>
<path d="M219.5,570.3v15.6h-1.4v-2.2c-0.4,0.7-1,1.3-1.8,1.7c-0.7,0.4-1.6,0.6-2.5,0.6c-1,0-2-0.2-2.8-0.7c-0.8-0.5-1.5-1.1-2-2
	c-0.5-0.9-0.7-1.8-0.7-2.9c0-1.1,0.2-2.1,0.7-2.9c0.5-0.9,1.1-1.5,2-2c0.8-0.5,1.8-0.7,2.8-0.7c0.9,0,1.7,0.2,2.4,0.6
	s1.3,0.9,1.8,1.6v-6.6H219.5z M216,584.1c0.6-0.4,1.1-0.9,1.5-1.5c0.4-0.7,0.5-1.4,0.5-2.2c0-0.8-0.2-1.6-0.5-2.2
	c-0.4-0.7-0.8-1.2-1.5-1.5c-0.6-0.4-1.3-0.5-2.1-0.5c-0.8,0-1.5,0.2-2.1,0.5c-0.6,0.4-1.1,0.9-1.5,1.5c-0.4,0.7-0.5,1.4-0.5,2.2
	c0,0.8,0.2,1.6,0.5,2.2c0.4,0.7,0.8,1.2,1.5,1.5c0.6,0.4,1.3,0.5,2.1,0.5C214.7,584.6,215.4,584.5,216,584.1z"/>
<path d="M225.3,585.2c-0.9-0.5-1.5-1.2-2-2c-0.5-0.9-0.7-1.8-0.7-2.9c0-1.1,0.2-2,0.7-2.9c0.5-0.9,1.2-1.5,2-2
	c0.9-0.5,1.8-0.7,2.9-0.7c1.1,0,2,0.2,2.9,0.7c0.9,0.5,1.5,1.1,2,2c0.5,0.9,0.7,1.8,0.7,2.9c0,1.1-0.2,2-0.7,2.9
	c-0.5,0.9-1.2,1.5-2,2c-0.9,0.5-1.8,0.7-2.9,0.7C227.1,586,226.2,585.7,225.3,585.2z M230.3,584.1c0.6-0.4,1.1-0.9,1.5-1.5
	c0.3-0.7,0.5-1.4,0.5-2.2c0-0.8-0.2-1.6-0.5-2.2c-0.4-0.7-0.8-1.2-1.5-1.5c-0.6-0.4-1.3-0.5-2.1-0.5s-1.5,0.2-2.1,0.5
	c-0.6,0.4-1.1,0.9-1.5,1.5c-0.4,0.7-0.5,1.4-0.5,2.2c0,0.8,0.2,1.6,0.5,2.2c0.4,0.7,0.8,1.2,1.5,1.5c0.6,0.4,1.3,0.5,2.1,0.5
	S229.7,584.5,230.3,584.1z"/>
<path d="M239.8,575.3c0.7-0.4,1.6-0.6,2.6-0.6v1.4l-0.4,0c-1.2,0-2.1,0.4-2.7,1.1s-1,1.7-1,3v5.6h-1.5v-11h1.4v2.2
	C238.6,576.2,239.1,575.7,239.8,575.3z"/>
<path class="st2" d="M95.7,594.7h-21c-2.5,0-4.5-2-4.5-4.5v-21c0-2.5,2-4.5,4.5-4.5h21c2.5,0,4.5,2,4.5,4.5v21
	C100.2,592.7,98.2,594.7,95.7,594.7z"/>
<path d="M117.8,531.2h1.6v14.7h-1.6V531.2z"/>
<path d="M132.7,535.9c0.8,0.8,1.2,2,1.2,3.5v6.4h-1.5v-6.3c0-1.1-0.3-2-0.9-2.6c-0.6-0.6-1.4-0.9-2.5-0.9c-1.2,0-2.1,0.4-2.8,1.1
	c-0.7,0.7-1,1.7-1,2.9v5.8h-1.5v-11h1.4v2c0.4-0.7,1-1.2,1.7-1.6s1.6-0.6,2.5-0.6C130.8,534.7,131.9,535.1,132.7,535.9z"/>
<path d="M140.2,532c-0.3,0.4-0.5,0.9-0.5,1.6v1.3h3.4v1.3h-3.4v9.8h-1.5v-9.8h-2v-1.3h2v-1.4c0-1,0.3-1.8,0.9-2.4
	c0.6-0.6,1.4-0.9,2.5-0.9c0.4,0,0.8,0.1,1.2,0.2c0.4,0.1,0.7,0.3,1,0.5l-0.5,1.1c-0.4-0.4-1-0.5-1.6-0.5
	C141,531.4,140.5,531.6,140.2,532z M145.1,530.3h1.5v15.6h-1.5V530.3z"/>
<path d="M160.7,534.8v11h-1.4v-2c-0.4,0.7-0.9,1.2-1.6,1.6s-1.5,0.6-2.4,0.6c-1.4,0-2.6-0.4-3.4-1.2c-0.8-0.8-1.2-2-1.2-3.5v-6.4
	h1.5v6.3c0,1.2,0.3,2,0.9,2.6c0.6,0.6,1.4,0.9,2.5,0.9c1.2,0,2.1-0.4,2.8-1.1c0.7-0.7,1-1.7,1-3v-5.8H160.7z"/>
<path d="M174.5,540.8h-9.2c0.1,1.1,0.5,2.1,1.3,2.8c0.8,0.7,1.8,1.1,3,1.1c0.7,0,1.3-0.1,1.9-0.4c0.6-0.2,1.1-0.6,1.5-1.1l0.8,1
	c-0.5,0.6-1.1,1-1.8,1.3c-0.7,0.3-1.5,0.5-2.4,0.5c-1.1,0-2.1-0.2-3-0.7c-0.9-0.5-1.6-1.2-2-2c-0.5-0.9-0.7-1.8-0.7-2.9
	c0-1.1,0.2-2,0.7-2.9c0.5-0.9,1.1-1.5,1.9-2c0.8-0.5,1.7-0.7,2.8-0.7s1.9,0.2,2.8,0.7c0.8,0.5,1.4,1.1,1.9,2
	c0.5,0.8,0.7,1.8,0.7,2.9L174.5,540.8z M166.5,537c-0.7,0.7-1.1,1.6-1.2,2.7h7.8c-0.1-1.1-0.5-2-1.2-2.7c-0.7-0.7-1.6-1-2.7-1
	C168.1,536,167.2,536.3,166.5,537z"/>
<path d="M186.5,535.9c0.8,0.8,1.2,2,1.2,3.5v6.4h-1.5v-6.3c0-1.1-0.3-2-0.9-2.6c-0.6-0.6-1.4-0.9-2.5-0.9c-1.2,0-2.1,0.4-2.8,1.1
	c-0.7,0.7-1,1.7-1,2.9v5.8h-1.5v-11h1.4v2c0.4-0.7,1-1.2,1.7-1.6s1.6-0.6,2.5-0.6C184.6,534.7,185.7,535.1,186.5,535.9z"/>
<path d="M193.5,545.2c-0.9-0.5-1.5-1.1-2-2c-0.5-0.9-0.7-1.8-0.7-2.9c0-1.1,0.2-2,0.7-2.9c0.5-0.9,1.2-1.5,2-2
	c0.9-0.5,1.8-0.7,2.9-0.7c1,0,1.8,0.2,2.6,0.6s1.3,0.9,1.8,1.6l-1.1,0.8c-0.4-0.5-0.8-1-1.4-1.2c-0.6-0.3-1.2-0.4-1.8-0.4
	c-0.8,0-1.5,0.2-2.2,0.5c-0.6,0.4-1.1,0.9-1.5,1.5s-0.5,1.4-0.5,2.2c0,0.9,0.2,1.6,0.5,2.3c0.4,0.7,0.9,1.2,1.5,1.5
	c0.6,0.4,1.4,0.5,2.2,0.5c0.7,0,1.3-0.1,1.8-0.4c0.6-0.3,1-0.7,1.4-1.2l1.1,0.8c-0.4,0.7-1,1.3-1.8,1.6c-0.8,0.4-1.6,0.6-2.5,0.6
	C195.3,546,194.4,545.7,193.5,545.2z"/>
<path d="M203.7,532.1c-0.2-0.2-0.3-0.5-0.3-0.8c0-0.3,0.1-0.5,0.3-0.7s0.5-0.3,0.8-0.3c0.3,0,0.6,0.1,0.8,0.3s0.3,0.4,0.3,0.7
	c0,0.3-0.1,0.6-0.3,0.8s-0.5,0.3-0.8,0.3C204.1,532.4,203.9,532.3,203.7,532.1z M203.7,534.8h1.5v11h-1.5V534.8z"/>
<path d="M216.5,535.8c0.8,0.7,1.2,1.8,1.2,3.2v6.8h-1.4v-1.7c-0.3,0.6-0.8,1-1.5,1.3s-1.4,0.5-2.3,0.5c-1.2,0-2.2-0.3-2.9-0.9
	s-1.1-1.4-1.1-2.3c0-0.9,0.3-1.7,1-2.3c0.7-0.6,1.8-0.9,3.2-0.9h3.5v-0.7c0-1-0.3-1.7-0.8-2.2s-1.3-0.7-2.3-0.7
	c-0.7,0-1.4,0.1-2,0.3c-0.6,0.2-1.2,0.5-1.7,1l-0.7-1.1c0.6-0.5,1.2-0.8,2-1.1s1.6-0.4,2.5-0.4C214.6,534.7,215.7,535.1,216.5,535.8
	z M214.8,544.2c0.6-0.4,1-0.9,1.3-1.7v-1.8h-3.5c-1.9,0-2.8,0.7-2.8,2c0,0.6,0.2,1.2,0.7,1.5c0.5,0.4,1.2,0.6,2.1,0.6
	C213.5,544.8,214.2,544.6,214.8,544.2z"/>
<path d="M231.8,530.3v15.6h-1.4v-2.2c-0.4,0.7-1,1.3-1.8,1.7c-0.7,0.4-1.6,0.6-2.5,0.6c-1,0-2-0.2-2.8-0.7c-0.8-0.5-1.5-1.1-2-2
	c-0.5-0.9-0.7-1.8-0.7-2.9c0-1.1,0.2-2.1,0.7-2.9c0.5-0.9,1.1-1.5,2-2c0.8-0.5,1.8-0.7,2.8-0.7c0.9,0,1.7,0.2,2.4,0.6
	c0.7,0.4,1.3,0.9,1.8,1.6v-6.6H231.8z M228.4,544.1c0.6-0.4,1.1-0.9,1.5-1.5c0.4-0.7,0.5-1.4,0.5-2.2c0-0.8-0.2-1.6-0.5-2.2
	s-0.8-1.2-1.5-1.5c-0.6-0.4-1.3-0.5-2.1-0.5c-0.8,0-1.5,0.2-2.1,0.5c-0.6,0.4-1.1,0.9-1.5,1.5c-0.4,0.7-0.5,1.4-0.5,2.2
	c0,0.8,0.2,1.6,0.5,2.2c0.4,0.7,0.8,1.2,1.5,1.5c0.6,0.4,1.3,0.5,2.1,0.5C227,544.6,227.7,544.5,228.4,544.1z"/>
<path d="M237.6,545.2c-0.9-0.5-1.5-1.2-2-2c-0.5-0.9-0.7-1.8-0.7-2.9c0-1.1,0.2-2,0.7-2.9c0.5-0.9,1.2-1.5,2-2
	c0.9-0.5,1.8-0.7,2.9-0.7c1.1,0,2,0.2,2.9,0.7c0.9,0.5,1.5,1.1,2,2c0.5,0.9,0.7,1.8,0.7,2.9c0,1.1-0.2,2-0.7,2.9
	c-0.5,0.9-1.2,1.5-2,2c-0.9,0.5-1.8,0.7-2.9,0.7C239.4,546,238.5,545.7,237.6,545.2z M242.6,544.1c0.6-0.4,1.1-0.9,1.5-1.5
	c0.3-0.7,0.5-1.4,0.5-2.2c0-0.8-0.2-1.6-0.5-2.2s-0.8-1.2-1.5-1.5c-0.6-0.4-1.3-0.5-2.1-0.5c-0.8,0-1.5,0.2-2.1,0.5
	c-0.6,0.4-1.1,0.9-1.5,1.5c-0.4,0.7-0.5,1.4-0.5,2.2c0,0.8,0.2,1.6,0.5,2.2c0.4,0.7,0.8,1.2,1.5,1.5c0.6,0.4,1.3,0.5,2.1,0.5
	C241.3,544.6,242,544.5,242.6,544.1z"/>
<path d="M252.1,535.3c0.7-0.4,1.6-0.6,2.6-0.6v1.4l-0.4,0c-1.2,0-2.1,0.4-2.7,1.1c-0.7,0.7-1,1.7-1,3v5.6h-1.5v-11h1.4v2.2
	C250.9,536.2,251.5,535.7,252.1,535.3z"/>
<path class="st3" d="M95.7,554.7h-21c-2.5,0-4.5-2-4.5-4.5v-21c0-2.5,2-4.5,4.5-4.5h21c2.5,0,4.5,2,4.5,4.5v21
	C100.2,552.7,98.2,554.7,95.7,554.7z"/>
</svg>
