<?xml version="1.0" encoding="utf-8"?>
<!-- Generator: Adobe Illustrator 24.2.0, SVG Export Plug-In . SVG Version: 6.00 Build 0)  -->
<svg version="1.1" id="grafico_6" xmlns="http://www.w3.org/2000/svg" xmlns:xlink="http://www.w3.org/1999/xlink" x="0px" y="0px"
	 viewBox="0 0 400 400" style="enable-background:new 0 0 400 400;" xml:space="preserve">
<style type="text/css">
	.st0{fill:#F1F2F2;}
	.st1{fill:#D1D3D4;}
	.st2{fill:#7495DA;}
	.st3{fill:#22B573;}
	.st4{fill:#DCB7FC;}
	.st5{fill:#FA6950;}
	.st6{fill:#606060;}
	.st7{fill:#FDD46A;}
	.st8{fill:#FFFFFF;}
</style>
<circle class="st0" cx="200" cy="200" r="197.5"/>
<circle class="st1" cx="200" cy="199.7" r="195"/>
<path class="st2" d="M200,199.7L186.6,8c4.2-0.3,9.2-0.5,13.4-0.5V199.7z"/>
<path class="st3" d="M200,199.7L173.3,9.4c4.2-0.6,9.1-1.1,13.3-1.4L200,199.7z"/>
<path class="st4" d="M200,199.7L140.6,16.9c12.1-3.9,20-5.8,32.6-7.5L200,199.7z"/>
<path class="st5" d="M200,199.7L87,44.2c17.2-12.5,33.4-20.7,53.6-27.3L200,199.7z"/>
<path class="st6" d="M200,199.7L28.8,112.4C43.2,84.1,61.3,62.9,87,44.2L200,199.7z"/>
<path class="st7" d="M200,199.7V7.5c106.1,0,192.2,86,192.2,192.2s-86,192.2-192.2,192.2S7.8,305.8,7.8,199.7
	c0-31.8,6.5-58.9,20.9-87.3L200,199.7z"/>
<path d="M216.5,138.3v25.2H208v-18.8h-4.3v-6.4H216.5z"/>
<path class="st8" d="M216.8,163.8h-9V145h-4.3v-7h13.3V163.8z M208.3,163.3h8v-24.7H204v5.9h4.3V163.3z"/>
<path d="M221,150.1c-1.2-1.2-1.9-3-1.9-5.1c0-1.5,0.3-2.7,0.9-3.8s1.4-1.9,2.4-2.4c1-0.6,2.2-0.8,3.4-0.8c1.3,0,2.4,0.3,3.4,0.8
	c1,0.6,1.8,1.4,2.4,2.4s0.9,2.3,0.9,3.8c0,2.2-0.6,3.9-1.9,5.1c-1.2,1.2-2.9,1.9-4.8,1.9C223.8,152,222.2,151.3,221,150.1z
	 M240.6,138.3h6.1l-17.2,25.2h-6.1L240.6,138.3z M227,147.3c0.3-0.5,0.5-1.3,0.5-2.4c0-1.1-0.2-1.9-0.5-2.4s-0.7-0.7-1.1-0.7
	c-0.5,0-0.8,0.2-1.1,0.7s-0.5,1.3-0.5,2.4c0,1.1,0.1,1.9,0.5,2.4c0.3,0.5,0.7,0.7,1.1,0.7C226.3,148.1,226.7,147.8,227,147.3z
	 M239.5,162c-1.2-1.2-1.9-3-1.9-5.1c0-1.5,0.3-2.7,0.9-3.8c0.6-1.1,1.4-1.9,2.4-2.4c1-0.6,2.2-0.8,3.4-0.8c1.3,0,2.4,0.3,3.4,0.8
	c1,0.6,1.8,1.4,2.4,2.4c0.6,1.1,0.9,2.3,0.9,3.8c0,2.2-0.6,3.9-1.9,5.1c-1.3,1.2-2.9,1.9-4.8,1.9C242.3,163.8,240.7,163.2,239.5,162
	z M245.4,159.2c0.3-0.5,0.5-1.3,0.5-2.4c0-1.1-0.2-1.9-0.5-2.4s-0.7-0.7-1.1-0.7c-0.5,0-0.8,0.2-1.1,0.7s-0.4,1.3-0.4,2.4
	c0,1.1,0.1,1.9,0.4,2.4c0.3,0.5,0.7,0.7,1.1,0.7C244.7,160,245.1,159.7,245.4,159.2z"/>
<path class="st8" d="M244.3,164.1c-2.1-0.1-3.8-0.8-5-2c-1.3-1.3-2-3.1-2-5.3c0-1.5,0.3-2.8,0.9-3.9c0.6-1.1,1.5-2,2.5-2.5
	c0.9-0.5,2.1-0.8,3.5-0.8c1.3,0,2.4,0.3,3.5,0.8c1,0.6,1.9,1.5,2.5,2.5c0.6,1.2,0.9,2.4,0.9,3.9c0,2.3-0.6,4.1-2,5.3
	C247.9,163.5,246.2,164.1,244.3,164.1z M244.3,150.1c-1.3,0-2.4,0.3-3.3,0.8c-1,0.5-1.7,1.3-2.3,2.3c-0.6,1.1-0.9,2.3-0.9,3.7
	c0,2,0.6,3.7,1.8,4.9c1.1,1.1,2.6,1.7,4.6,1.8c1.7,0,3.3-0.6,4.6-1.8c1.2-1.1,1.8-2.7,1.8-4.9c0-1.4-0.3-2.6-0.9-3.7
	c-0.6-1-1.3-1.7-2.3-2.3C246.5,150.4,245.5,150.1,244.3,150.1z M229.6,163.8h-6.7l0.3-0.4l17.3-25.3h6.7l-0.3,0.4L229.6,163.8z
	 M223.9,163.3h5.5l16.9-24.7h-5.5L223.9,163.3z M244.5,160.2c-0.1,0-0.1,0-0.2,0c-0.5,0-0.9-0.3-1.3-0.8c-0.3-0.5-0.4-1.3-0.4-2.5
	s0.1-2,0.4-2.5c0.4-0.6,0.7-0.8,1.3-0.8c0.5,0,1,0.3,1.3,0.8c0.4,0.6,0.5,1.5,0.5,2.5c0,1.1-0.2,1.9-0.5,2.5l0,0
	C245.3,159.9,244.9,160.2,244.5,160.2z M244.3,154c-0.4,0-0.6,0.1-0.9,0.6c-0.3,0.4-0.4,1.1-0.4,2.3s0.1,1.9,0.4,2.3
	c0.2,0.4,0.5,0.6,0.9,0.6c0.3,0.1,0.6-0.1,0.9-0.6c0.3-0.5,0.5-1.3,0.5-2.3s-0.2-1.8-0.5-2.3C245,154.1,244.7,154,244.3,154z
	 M225.8,152.3c-2,0-3.7-0.7-5-2l0,0c-1.3-1.3-2-3.1-2-5.3c0-1.5,0.3-2.8,0.9-3.9c0.6-1.1,1.5-2,2.5-2.5c0.9-0.5,2.1-0.8,3.5-0.8
	c1.3,0,2.4,0.3,3.5,0.8c1,0.6,1.9,1.5,2.5,2.5s0.9,2.4,0.9,3.9c0,2.3-0.6,4.1-2,5.3C229.5,151.5,227.7,152.3,225.8,152.3z
	 M221.2,149.9c1.2,1.2,2.8,1.8,4.6,1.8s3.4-0.6,4.6-1.8c1.2-1.1,1.8-2.7,1.8-4.9c0-1.5-0.3-2.7-0.9-3.7c-0.6-1-1.4-1.7-2.3-2.3
	c-1-0.5-2.1-0.8-3.3-0.8c-1.3,0-2.4,0.3-3.3,0.8c-1,0.5-1.7,1.3-2.3,2.3c-0.6,1.1-0.9,2.3-0.9,3.7C219.3,147,220,148.7,221.2,149.9
	L221.2,149.9z M226.1,148.3c-0.1,0-0.1,0-0.2,0c-0.5,0-0.9-0.3-1.3-0.8c-0.5-0.6-0.5-1.6-0.5-2.5c0-1.1,0.2-1.9,0.5-2.5
	c0.4-0.6,0.7-0.8,1.3-0.8c0.5,0,1,0.3,1.3,0.8c0.3,0.6,0.5,1.5,0.5,2.5s-0.2,1.9-0.5,2.5C226.9,148,226.5,148.3,226.1,148.3z
	 M225.9,142c-0.4,0-0.6,0.1-0.9,0.6c-0.3,0.5-0.5,1.3-0.5,2.3c0,1.2,0.1,1.8,0.4,2.2c0.2,0.4,0.6,0.6,0.9,0.6
	c0.3,0.1,0.6-0.1,0.9-0.6c0.3-0.5,0.5-1.3,0.5-2.3s-0.2-1.8-0.5-2.3C226.6,142.3,226.3,142,225.9,142z"/>
<path d="M237.6,172.9v25.2h-8.5v-18.8h-4.3v-6.4H237.6z"/>
<path class="st8" d="M237.8,198.4h-9v-18.8h-4.3v-6.9h13.3V198.4z M229.3,197.9h8v-24.7H225v5.9h4.3V197.9z"/>
<path d="M242.1,184.7c-1.2-1.2-1.9-3-1.9-5.1c0-1.5,0.3-2.7,0.9-3.8c0.6-1.1,1.4-1.9,2.4-2.4c1-0.6,2.2-0.8,3.4-0.8
	c1.3,0,2.4,0.3,3.4,0.8c1,0.6,1.8,1.4,2.4,2.4c0.6,1.1,0.9,2.3,0.9,3.8c0,2.2-0.6,3.9-1.9,5.1c-1.2,1.2-2.9,1.9-4.8,1.9
	C244.9,186.6,243.3,186,242.1,184.7z M261.7,172.9h6.1l-17.2,25.2h-6.1L261.7,172.9z M248,182c0.3-0.5,0.5-1.3,0.5-2.4
	c0-1.1-0.2-1.9-0.5-2.4s-0.7-0.7-1.1-0.7c-0.5,0-0.8,0.2-1.1,0.7s-0.4,1.3-0.4,2.4c0,1.1,0.1,1.9,0.4,2.4c0.3,0.5,0.7,0.7,1.1,0.7
	C247.4,182.7,247.7,182.5,248,182z M260.5,196.6c-1.2-1.2-1.9-3-1.9-5.1c0-1.5,0.3-2.7,0.9-3.8s1.4-1.9,2.4-2.4
	c1-0.6,2.2-0.8,3.4-0.8c1.3,0,2.4,0.3,3.4,0.8c1,0.6,1.8,1.4,2.4,2.4c0.6,1.1,0.9,2.3,0.9,3.8c0,2.2-0.6,3.9-1.9,5.1
	c-1.2,1.2-2.9,1.9-4.8,1.9S261.8,197.8,260.5,196.6z M266.5,193.8c0.3-0.5,0.5-1.3,0.5-2.4c0-1.1-0.2-1.9-0.5-2.4s-0.7-0.7-1.1-0.7
	c-0.5,0-0.8,0.2-1.1,0.7c-0.3,0.5-0.5,1.3-0.5,2.4c0,1.1,0.1,1.9,0.5,2.4c0.3,0.5,0.7,0.7,1.1,0.7
	C265.8,194.6,266.2,194.3,266.5,193.8z"/>
<path class="st8" d="M265.3,198.8c-1.9,0-3.6-0.7-5-2l0,0c-1.3-1.3-2-3.1-2-5.3c0-1.5,0.3-2.8,0.9-3.9c0.6-1.1,1.5-2,2.5-2.5
	c0.9-0.5,2.1-0.8,3.5-0.8c1.3,0,2.4,0.3,3.5,0.8c1,0.6,1.9,1.5,2.5,2.5c0.6,1.2,0.9,2.4,0.9,3.9c0,2.3-0.6,4.1-2,5.3
	C269,198,267.2,198.8,265.3,198.8z M260.7,196.4c1.3,1.2,2.9,1.8,4.6,1.8c1.8,0,3.4-0.6,4.6-1.8c1.2-1.1,1.8-2.7,1.8-4.9
	c0-1.4-0.3-2.6-0.9-3.7c-0.6-1-1.3-1.7-2.3-2.3c-1-0.5-2.1-0.8-3.3-0.8c-1.3,0-2.4,0.3-3.3,0.8c-1,0.5-1.7,1.3-2.3,2.3
	c-0.6,1.1-0.9,2.3-0.9,3.7C258.8,193.5,259.5,195.2,260.7,196.4z M250.7,198.4H244l0.3-0.4l17.3-25.3h6.7L268,173L250.7,198.4z
	 M245,197.9h5.5l16.9-24.7h-5.5L245,197.9z M265.6,194.8c-0.1,0-0.1,0-0.2,0c-0.5,0-0.9-0.3-1.3-0.8c-0.5-0.6-0.5-1.6-0.5-2.5
	c0-1.1,0.2-1.9,0.5-2.5c0.4-0.6,0.7-0.8,1.3-0.8c0.5,0,1,0.3,1.3,0.8c0.3,0.6,0.5,1.5,0.5,2.5s-0.2,1.9-0.5,2.5
	C266.4,194.5,266,194.8,265.6,194.8z M265.4,188.5c-0.4,0-0.6,0.1-0.9,0.6s-0.5,1.3-0.5,2.3c0,1.2,0.1,1.8,0.4,2.2
	c0.2,0.4,0.6,0.6,0.9,0.6c0.3,0.1,0.6-0.1,0.9-0.6s0.5-1.3,0.5-2.3s-0.2-1.8-0.5-2.3C266.1,188.8,265.8,188.5,265.4,188.5z
	 M246.9,186.9c-2.1,0-3.8-0.6-5-2c-1.3-1.3-2-3.1-2-5.3c0-1.5,0.3-2.8,0.9-3.9c0.6-1.1,1.5-2,2.5-2.5c0.9-0.5,2.1-0.8,3.5-0.8
	c1.3,0,2.4,0.3,3.5,0.8c1,0.6,1.9,1.5,2.5,2.5c0.6,1.2,0.9,2.4,0.9,3.9c0,2.3-0.6,4.1-2,5.3C250.6,186.1,248.8,186.9,246.9,186.9z
	 M246.9,172.9c-1.3,0-2.4,0.3-3.3,0.8c-1,0.5-1.7,1.3-2.3,2.3c-0.6,1.1-0.9,2.3-0.9,3.7c0,2,0.6,3.7,1.8,4.9l0,0
	c1.1,1.2,2.6,1.8,4.6,1.8c1.8,0,3.4-0.6,4.6-1.8c1.2-1.1,1.8-2.7,1.8-4.9c0-1.4-0.3-2.6-0.9-3.7c-0.6-1-1.3-1.7-2.3-2.3
	C249.1,173.1,248.1,172.9,246.9,172.9z M246.9,183c-0.5,0-1-0.3-1.3-0.8s-0.4-1.3-0.4-2.5s0.1-2,0.4-2.5c0.4-0.6,0.7-0.8,1.3-0.8
	c0.5,0,1,0.3,1.3,0.8c0.3,0.6,0.5,1.5,0.5,2.5s-0.2,1.9-0.5,2.5C247.9,182.7,247.5,183,246.9,183z M246.9,176.8
	c-0.4,0-0.6,0.1-0.9,0.6c-0.3,0.4-0.4,1.1-0.4,2.3s0.1,1.9,0.4,2.3c0.2,0.4,0.5,0.6,0.9,0.6s0.6-0.1,0.9-0.6
	c0.3-0.5,0.5-1.3,0.5-2.3s-0.2-1.8-0.5-2.3C247.6,177,247.3,176.8,246.9,176.8z"/>
<path d="M194.9,115.7c1,1.3,1.6,2.8,1.6,4.6c0,1.5-0.4,2.9-1.2,4.2c-0.8,1.3-2.1,2.4-3.8,3.2s-3.9,1.2-6.4,1.2
	c-1.8,0-3.5-0.2-5.3-0.6c-1.8-0.4-3.3-0.9-4.6-1.7l2.9-6.3c1,0.6,2.1,1.1,3.3,1.4s2.3,0.5,3.4,0.5c1,0,1.8-0.2,2.4-0.5
	c0.6-0.3,0.9-0.8,0.9-1.4c0-1.2-1-1.7-3-1.7h-3.3v-5.2l3.7-3.8h-9v-6.4h18.8v5.2l-4.7,4.8C192.3,113.6,193.8,114.5,194.9,115.7z"/>
<path class="st8" d="M185.1,129.1c-1.8,0-3.5-0.2-5.4-0.6c-2-0.4-3.5-1-4.7-1.7l-0.2-0.1l3.1-6.8l0.2,0.1c1.1,0.6,2.2,1.1,3.2,1.4
	c1.4,0.3,2.4,0.5,3.3,0.5c0.9,0,1.7-0.2,2.3-0.5c0.5-0.2,0.8-0.7,0.8-1.2c0-0.7-0.3-1.4-2.8-1.4h-3.6v-5.6l3.4-3.4H176V103h19.3v5.6
	l-4.5,4.6c1.5,0.4,2.9,1.3,4,2.5l0,0c1.1,1.4,1.7,3,1.7,4.8c0,1.5-0.4,3-1.2,4.3s-2.2,2.5-3.9,3.3
	C189.9,128.7,187.7,129.1,185.1,129.1z M175.5,126.5c1.1,0.7,2.5,1.1,4.3,1.6c1.8,0.4,3.5,0.6,5.2,0.6c2.5,0,4.7-0.4,6.3-1.2
	s2.9-1.8,3.7-3.1c0.8-1.3,1.2-2.6,1.2-4.1c0-1.6-0.5-3.1-1.5-4.4c-1.1-1.2-2.6-2-4.2-2.4l-0.4-0.1l4.9-5v-4.8h-18.3v5.9h9.3l-4,4.2
	v4.8h3.1c1.4,0,3.3,0.2,3.3,1.9c0,0.7-0.4,1.3-1,1.6c-0.7,0.3-1.6,0.5-2.5,0.5c-1,0-2.1-0.2-3.5-0.5c-1-0.3-2.1-0.7-3.1-1.3
	L175.5,126.5z"/>
<path d="M199.4,115c-1.2-1.2-1.9-3-1.9-5.1c0-1.5,0.3-2.7,0.9-3.8c0.6-1.1,1.4-1.9,2.4-2.4c1-0.6,2.2-0.8,3.4-0.8
	c1.3,0,2.4,0.3,3.4,0.8c1,0.6,1.8,1.4,2.4,2.4c0.6,1.1,0.9,2.3,0.9,3.8c0,2.2-0.6,3.9-1.9,5.1c-1.2,1.2-2.9,1.9-4.8,1.9
	C202.3,116.8,200.6,116.2,199.4,115z M219,103.2h6.1l-17.2,25.2h-6.1L219,103.2z M205.4,112.2c0.3-0.5,0.5-1.3,0.5-2.4
	s-0.2-1.9-0.5-2.4s-0.7-0.7-1.1-0.7c-0.5,0-0.8,0.2-1.1,0.7s-0.4,1.3-0.4,2.4s0.1,1.9,0.4,2.4c0.3,0.5,0.7,0.7,1.1,0.7
	C204.7,113,205.1,112.7,205.4,112.2z M217.9,126.9c-1.2-1.2-1.9-3-1.9-5.1c0-1.5,0.3-2.7,0.9-3.8c0.6-1.1,1.4-1.9,2.4-2.4
	c1-0.6,2.2-0.8,3.4-0.8c1.3,0,2.4,0.3,3.4,0.8c1,0.6,1.8,1.4,2.4,2.4c0.6,1.1,0.9,2.3,0.9,3.8c0,2.2-0.6,3.9-1.9,5.1
	c-1.2,1.2-2.9,1.9-4.8,1.9C220.7,128.7,219.1,128.1,217.9,126.9z M223.8,124.1c0.3-0.5,0.5-1.3,0.5-2.4s-0.2-1.9-0.5-2.4
	s-0.7-0.7-1.1-0.7c-0.5,0-0.8,0.2-1.1,0.7s-0.5,1.3-0.5,2.4s0.1,1.9,0.5,2.4c0.3,0.5,0.7,0.7,1.1,0.7
	C223.1,124.8,223.5,124.6,223.8,124.1z"/>
<path class="st8" d="M222.7,129c-2.1-0.1-3.8-0.8-5-2l0,0c-1.3-1.3-2-3.1-2-5.3c0-1.5,0.3-2.8,0.9-3.9c0.6-1.1,1.5-2,2.5-2.5
	c0.9-0.5,2.1-0.8,3.5-0.8c1.3,0,2.4,0.3,3.5,0.8c1,0.6,1.9,1.5,2.5,2.5c0.6,1.2,0.9,2.4,0.9,3.9c0,2.3-0.6,4.1-2,5.3
	C226.4,128.3,224.6,129,222.7,129z M222.7,115c-1.3,0-2.4,0.3-3.3,0.8c-1,0.5-1.7,1.3-2.3,2.3c-0.6,1.1-0.9,2.3-0.9,3.7
	c0,2,0.6,3.7,1.8,4.9l0,0c1.1,1.1,2.6,1.7,4.6,1.8c1.8,0,3.4-0.6,4.6-1.8c1.2-1.1,1.8-2.7,1.8-4.9c0-1.4-0.3-2.6-0.9-3.7
	c-0.6-0.9-1.3-1.7-2.3-2.3C224.9,115.3,223.9,115,222.7,115z M208,128.6h-6.7l0.3-0.4l17.3-25.3h6.7l-0.3,0.4L208,128.6z
	 M202.3,128.1h5.5l16.9-24.7h-5.5L202.3,128.1z M222.7,125c-0.5,0-1-0.3-1.3-0.8c-0.5-0.6-0.5-1.6-0.5-2.5c0-1.1,0.2-1.9,0.5-2.5
	c0.4-0.6,0.7-0.8,1.3-0.8c0.5,0,1,0.3,1.3,0.8c0.3,0.6,0.5,1.5,0.5,2.5c0,1.1-0.2,1.9-0.5,2.5C223.7,124.8,223.2,125,222.7,125z
	 M222.7,118.9c-0.4,0-0.6,0.1-0.9,0.6c-0.3,0.5-0.5,1.3-0.5,2.3c0,1.2,0.1,1.8,0.4,2.2c0.3,0.4,0.5,0.6,0.9,0.6s0.7-0.2,0.9-0.6
	c0.3-0.5,0.5-1.3,0.5-2.3s-0.2-1.8-0.5-2.3C223.4,119.1,223.1,118.9,222.7,118.9z M204.2,117.1c-2.1-0.1-3.8-0.8-5-2l0,0
	c-1.3-1.3-2-3.1-2-5.3c0-1.5,0.3-2.8,0.9-3.9c0.6-1.1,1.5-2,2.5-2.5c0.9-0.5,2.1-0.8,3.5-0.8c1.3,0,2.4,0.3,3.5,0.8
	c1,0.6,1.9,1.5,2.5,2.5c0.6,1.2,0.9,2.4,0.9,3.9c0,2.3-0.6,4.1-2,5.3C207.9,116.4,206.1,117.1,204.2,117.1z M199.6,114.8
	c1.1,1.1,2.7,1.7,4.6,1.8c1.8,0,3.4-0.6,4.6-1.8c1.2-1.1,1.8-2.7,1.8-4.9c0-1.4-0.3-2.6-0.9-3.7c-0.6-1-1.3-1.7-2.3-2.3
	c-1-0.5-2.1-0.8-3.3-0.8c-1.3,0-2.4,0.3-3.3,0.8c-1,0.5-1.7,1.3-2.3,2.3c-0.6,1.1-0.9,2.3-0.9,3.7
	C197.8,111.9,198.4,113.6,199.6,114.8L199.6,114.8z M204.5,113.2c-0.1,0-0.1,0-0.2,0c-0.5,0-0.9-0.3-1.3-0.8
	c-0.3-0.5-0.4-1.3-0.4-2.5s0.1-2,0.4-2.5c0.4-0.6,0.7-0.8,1.3-0.8c0.5,0,1,0.3,1.3,0.8c0.4,0.6,0.5,1.5,0.5,2.5
	c0,1.1-0.2,1.9-0.5,2.5l0,0C205.3,112.9,204.9,113.2,204.5,113.2z M204.3,107c-0.4,0-0.6,0.1-0.9,0.6c-0.3,0.4-0.4,1.1-0.4,2.3
	c0,1.2,0.1,1.9,0.4,2.3c0.2,0.4,0.5,0.6,0.9,0.6c0.3,0.1,0.6-0.1,0.9-0.6c0.3-0.5,0.5-1.3,0.5-2.3s-0.2-1.8-0.5-2.3
	C205,107.1,204.7,107,204.3,107z"/>
<path d="M164.6,81.7c1.7,1.5,2.5,3.4,2.5,5.8c0,1.6-0.4,3-1.2,4.4c-0.8,1.3-2.1,2.4-3.8,3.2s-3.9,1.2-6.4,1.2
	c-1.8,0-3.5-0.2-5.3-0.6s-3.3-0.9-4.6-1.7l2.9-6.3c1.1,0.6,2.2,1.1,3.3,1.4c1.2,0.3,2.3,0.5,3.4,0.5c1,0,1.8-0.2,2.4-0.5
	c0.6-0.3,0.9-0.8,0.9-1.5c0-0.6-0.3-1-0.8-1.4c-0.6-0.3-1.5-0.4-3-0.4h-7.3l1.3-15.3h16.7V77h-9.8l-0.2,2.5h1.3
	C160.4,79.5,163,80.3,164.6,81.7z"/>
<path class="st8" d="M155.7,96.5c-1.8,0-3.5-0.2-5.4-0.6c-2-0.4-3.5-1-4.7-1.7l-0.2-0.1l3.1-6.7l0.2,0.1c1.2,0.7,2.3,1.1,3.2,1.4
	c1.4,0.3,2.4,0.5,3.3,0.5c0.9,0,1.7-0.2,2.3-0.5c0.5-0.3,0.8-0.7,0.8-1.3c0-0.5-0.2-0.8-0.7-1.2c-0.5-0.2-1.3-0.3-2.8-0.3h-7.6
	l1.3-15.8h17.2v7H156l-0.2,2h1c3.5,0,6.2,0.8,7.9,2.3l0,0c1.7,1.5,2.6,3.5,2.6,6c0,1.6-0.4,3.1-1.2,4.5c-0.8,1.3-2.2,2.5-3.9,3.3
	C160.5,96.1,158.3,96.5,155.7,96.5z M146.1,93.9c1.1,0.7,2.5,1.1,4.3,1.6c1.8,0.4,3.5,0.6,5.2,0.6c2.5,0,4.7-0.4,6.3-1.2
	c1.6-0.8,2.9-1.8,3.7-3.1c0.8-1.4,1.2-2.7,1.2-4.3c0-2.3-0.8-4.2-2.4-5.6c-1.6-1.4-4.2-2.1-7.5-2.1h-1.6l0.2-3h9.8v-6h-16.2
	l-1.3,14.8h7c1.6,0,2.5,0.1,3.1,0.4c0.5,0.4,0.9,0.8,0.9,1.6c0,0.8-0.3,1.4-1,1.7c-0.7,0.3-1.6,0.5-2.5,0.5c-1,0-2.1-0.2-3.5-0.5
	c-0.9-0.3-2-0.7-3.1-1.3L146.1,93.9z"/>
<path d="M169.9,82.4c-1.2-1.2-1.9-3-1.9-5.1c0-1.5,0.3-2.7,0.9-3.8s1.4-1.9,2.4-2.4c1-0.6,2.2-0.8,3.4-0.8c1.3,0,2.4,0.3,3.4,0.8
	c1,0.6,1.8,1.4,2.4,2.4s0.9,2.3,0.9,3.8c0,2.2-0.6,3.9-1.9,5.1c-1.2,1.2-2.9,1.9-4.8,1.9C172.7,84.3,171.1,83.7,169.9,82.4z
	 M189.5,70.6h6.1l-17.2,25.2h-6.1L189.5,70.6z M175.8,79.7c0.3-0.5,0.5-1.3,0.5-2.4s-0.1-1.9-0.5-2.4c-0.3-0.5-0.7-0.7-1.1-0.7
	c-0.5,0-0.8,0.2-1.1,0.7s-0.5,1.3-0.5,2.4s0.1,1.9,0.5,2.4c0.3,0.5,0.7,0.7,1.1,0.7C175.2,80.4,175.5,80.2,175.8,79.7z M188.4,94.3
	c-1.2-1.2-1.9-3-1.9-5.1c0-1.5,0.3-2.7,0.9-3.8c0.6-1.1,1.4-1.9,2.4-2.4c1-0.6,2.2-0.8,3.4-0.8c1.3,0,2.4,0.3,3.4,0.8
	c1,0.6,1.8,1.4,2.4,2.4c0.6,1.1,0.9,2.3,0.9,3.8c0,2.2-0.6,3.9-1.9,5.1c-1.2,1.2-2.9,1.9-4.8,1.9C191.2,96.2,189.6,95.6,188.4,94.3z
	 M194.3,91.6c0.3-0.5,0.5-1.3,0.5-2.4s-0.2-1.9-0.5-2.4s-0.7-0.7-1.1-0.7c-0.5,0-0.8,0.2-1.1,0.7s-0.5,1.3-0.5,2.4s0.1,1.9,0.5,2.4
	c0.3,0.5,0.7,0.7,1.1,0.7C193.6,92.3,194,92.1,194.3,91.6z"/>
<path class="st8" d="M193.2,96.5c-2.1,0-3.8-0.6-5-2c-1.3-1.3-2-3.1-2-5.3c0-1.5,0.3-2.8,0.9-3.9c0.6-1.1,1.5-2,2.5-2.5
	c0.9-0.5,2.1-0.8,3.5-0.8c1.3,0,2.4,0.3,3.5,0.8c1,0.6,1.9,1.5,2.5,2.5c0.6,1.2,0.9,2.4,0.9,3.9c0,2.3-0.6,4.1-2,5.3
	C196.9,95.7,195.1,96.5,193.2,96.5z M193.2,82.5c-1.3,0-2.4,0.3-3.3,0.8c-1,0.5-1.7,1.3-2.3,2.3c-0.6,1.1-0.9,2.3-0.9,3.7
	c0,2,0.6,3.7,1.8,4.9l0,0c1.1,1.2,2.6,1.8,4.6,1.8c1.8,0,3.4-0.6,4.6-1.8c1.2-1.1,1.8-2.7,1.8-4.9c0-1.4-0.3-2.6-0.9-3.7
	c-0.6-1-1.3-1.7-2.3-2.3C195.4,82.7,194.4,82.5,193.2,82.5z M178.5,96h-6.7l17.5-25.7h6.7L178.5,96z M172.8,95.5h5.5l16.9-24.7h-5.5
	L172.8,95.5z M193.2,92.5c-0.5,0-1-0.3-1.3-0.8c-0.5-0.6-0.5-1.6-0.5-2.5c0-1.1,0.2-1.9,0.5-2.5s0.7-0.8,1.3-0.8
	c0.5,0,1,0.3,1.3,0.8c0.4,0.6,0.5,1.5,0.5,2.5c0,1.1-0.2,1.9-0.5,2.5l0,0l0,0l0,0C194.2,92.3,193.7,92.5,193.2,92.5z M193.2,86.4
	c-0.4,0-0.6,0.1-0.9,0.6c-0.3,0.5-0.5,1.3-0.5,2.3c0,1.2,0.1,1.8,0.4,2.2c0.2,0.4,0.5,0.6,0.9,0.6s0.7-0.2,0.9-0.6l0,0
	c0.3-0.5,0.5-1.3,0.5-2.3s-0.2-1.8-0.5-2.3C193.9,86.6,193.6,86.4,193.2,86.4z M174.7,84.5c-2.1,0-3.8-0.6-5-2c-1.3-1.3-2-3.1-2-5.3
	c0-1.5,0.3-2.8,0.9-3.9c0.6-1.1,1.5-2,2.5-2.5c0.9-0.5,2.1-0.8,3.5-0.8c1.3,0,2.4,0.3,3.5,0.8c1,0.6,1.9,1.5,2.5,2.5
	s0.9,2.4,0.9,3.9c0,2.3-0.6,4.1-2,5.3C178.4,83.8,176.6,84.5,174.7,84.5z M174.7,70.5c-1.3,0-2.4,0.3-3.3,0.8
	c-1,0.5-1.7,1.3-2.3,2.3c-0.6,1.1-0.9,2.3-0.9,3.7c0,2,0.6,3.7,1.8,4.9l0,0c1.1,1.2,2.6,1.8,4.6,1.8c1.8,0,3.4-0.6,4.6-1.8
	c1.2-1.1,1.8-2.7,1.8-4.9c0-1.5-0.3-2.7-0.9-3.7c-0.6-1-1.4-1.7-2.3-2.3C176.9,70.8,175.9,70.5,174.7,70.5z M174.7,80.6
	c-0.5,0-1-0.3-1.3-0.8c-0.5-0.6-0.5-1.6-0.5-2.5c0-1.1,0.2-1.9,0.5-2.5s0.7-0.8,1.3-0.8c0.5,0,1,0.3,1.3,0.8
	c0.5,0.6,0.5,1.6,0.5,2.5c0,1.1-0.2,1.9-0.5,2.5l0,0l0,0l0,0C175.7,80.4,175.3,80.6,174.7,80.6z M174.7,74.5c-0.4,0-0.6,0.1-0.9,0.6
	c-0.3,0.5-0.5,1.3-0.5,2.3c0,1.2,0.1,1.8,0.4,2.2c0.2,0.4,0.5,0.6,0.9,0.6s0.6-0.1,0.9-0.6l0,0c0.3-0.5,0.5-1.3,0.5-2.3
	c0-1.2-0.1-1.8-0.4-2.2C175.4,74.7,175.1,74.5,174.7,74.5z"/>
<path d="M50.1,156.3v5.2l-8.4,20h-9.3l8-18.6h-4.9v3.7h-7v-10.3L50.1,156.3L50.1,156.3z"/>
<path class="st8" d="M41.9,181.8H32l8-18.6h-4.3v3.7h-7.5V156h22.1v5.5L41.9,181.8z M32.8,181.3h8.8l8.3-19.8v-4.9H28.8v9.8h6.5
	v-3.7h5.5L32.8,181.3z"/>
<path d="M51.5,180.6c-0.9-0.9-1.3-2-1.3-3.4s0.4-2.5,1.3-3.3c0.9-0.9,2-1.3,3.4-1.3s2.5,0.4,3.4,1.3c0.9,0.9,1.4,2,1.4,3.3
	c0,1.4-0.5,2.5-1.4,3.4s-2,1.3-3.4,1.3C53.5,181.9,52.4,181.5,51.5,180.6z"/>
<path class="st8" d="M54.9,182.1c-1.5,0-2.6-0.4-3.6-1.4s-1.4-2.1-1.4-3.6s0.5-2.7,1.4-3.5c0.9-0.9,2.1-1.4,3.6-1.4s2.6,0.4,3.6,1.4
	s1.5,2.1,1.5,3.5s-0.5,2.6-1.5,3.6C57.5,181.7,56.4,182.1,54.9,182.1z M54.9,172.9c-1.4,0-2.4,0.4-3.2,1.2c-0.8,0.7-1.2,1.8-1.2,3.1
	c0,1.4,0.4,2.4,1.2,3.2s1.9,1.2,3.2,1.2s2.4-0.4,3.2-1.2c0.9-0.9,1.3-1.9,1.3-3.2c0-1.2-0.4-2.2-1.3-3.1
	C57.3,173.2,56.3,172.9,54.9,172.9z"/>
<path d="M79.5,167.4c1.7,1.5,2.5,3.4,2.5,5.8c0,1.6-0.4,3-1.2,4.4c-0.8,1.3-2.1,2.4-3.8,3.2s-3.9,1.2-6.4,1.2
	c-1.8,0-3.5-0.2-5.3-0.6c-1.8-0.4-3.3-0.9-4.6-1.7l2.9-6.3c1.1,0.6,2.2,1.1,3.3,1.4c1.2,0.3,2.3,0.5,3.4,0.5c1,0,1.8-0.2,2.4-0.5
	s0.9-0.8,0.9-1.5c0-0.6-0.3-1-0.8-1.4c-0.6-0.3-1.5-0.4-3-0.4h-7.3l1.3-15.3h16.7v6.4h-9.8l-0.2,2.5h1.3
	C75.2,165.2,77.8,166,79.5,167.4z"/>
<path class="st8" d="M70.6,182.3c-1.8,0-3.5-0.2-5.4-0.6c-2-0.4-3.5-1-4.7-1.7l-0.2-0.1l3.1-6.7l0.2,0.1c1.2,0.7,2.3,1.1,3.2,1.4
	c1.4,0.3,2.4,0.5,3.3,0.5s1.7-0.2,2.3-0.5c0.5-0.3,0.8-0.7,0.8-1.3c0-0.5-0.2-0.8-0.7-1.2c-0.5-0.2-1.3-0.3-2.8-0.3h-7.6l1.3-15.8
	h17.2v6.9h-9.8l-0.2,2h1c3.4,0.1,6.1,0.9,7.9,2.4l0,0c1.7,1.5,2.6,3.5,2.6,6c0,1.6-0.4,3.1-1.2,4.5c-0.8,1.3-2.2,2.5-3.9,3.3
	C75.4,181.8,73.2,182.3,70.6,182.3z M61,179.6c1.1,0.7,2.5,1.1,4.3,1.6c1.8,0.4,3.5,0.6,5.2,0.6c2.5,0,4.7-0.4,6.3-1.2
	c1.6-0.8,2.9-1.8,3.7-3.1c0.8-1.4,1.2-2.7,1.2-4.3c0-2.3-0.8-4.2-2.4-5.6c-1.7-1.4-4.2-2.1-7.5-2.2h-1.6l0.2-3h9.8v-5.9H64
	l-1.3,14.8h7c1.6,0,2.5,0.1,3.1,0.4c0.5,0.4,0.9,0.8,0.9,1.6s-0.3,1.4-1,1.7s-1.6,0.5-2.5,0.5c-1,0-2.1-0.2-3.5-0.5
	c-0.9-0.3-2-0.7-3.1-1.3L61,179.6z"/>
<path d="M84.7,168.1c-1.2-1.2-1.9-3-1.9-5.1c0-1.5,0.3-2.7,0.9-3.8s1.4-1.9,2.4-2.4c1-0.6,2.2-0.8,3.4-0.8c1.3,0,2.4,0.3,3.4,0.8
	c1,0.6,1.8,1.4,2.4,2.4s0.9,2.3,0.9,3.8c0,2.2-0.6,3.9-1.9,5.1c-1.2,1.2-2.9,1.9-4.8,1.9S86,169.4,84.7,168.1z M104.4,156.3h6.1
	l-17.2,25.2h-6.1L104.4,156.3z M90.7,165.4c0.3-0.5,0.5-1.3,0.5-2.4c0-1.1-0.1-1.9-0.5-2.4c-0.3-0.5-0.7-0.7-1.1-0.7
	c-0.5,0-0.8,0.2-1.1,0.7c-0.3,0.5-0.5,1.3-0.5,2.4c0,1.1,0.1,1.9,0.5,2.4c0.3,0.5,0.7,0.7,1.1,0.7C90,166.1,90.4,165.9,90.7,165.4z
	 M103.2,180c-1.2-1.2-1.9-3-1.9-5.1c0-1.5,0.3-2.7,0.9-3.8s1.4-1.9,2.4-2.4c1-0.6,2.2-0.8,3.4-0.8c1.3,0,2.4,0.3,3.4,0.8
	c1,0.6,1.8,1.4,2.4,2.4c0.6,1.1,0.9,2.3,0.9,3.8c0,2.2-0.6,3.9-1.9,5.1c-1.2,1.2-2.9,1.9-4.8,1.9S104.5,181.3,103.2,180z
	 M109.2,177.3c0.3-0.5,0.5-1.3,0.5-2.4c0-1.1-0.2-1.9-0.5-2.4s-0.7-0.7-1.1-0.7c-0.5,0-0.8,0.2-1.1,0.7c-0.3,0.5-0.5,1.3-0.5,2.4
	c0,1.1,0.1,1.9,0.5,2.4c0.3,0.5,0.7,0.7,1.1,0.7S108.9,177.8,109.2,177.3z"/>
<path class="st8" d="M108,182.1c-2,0-3.6-0.6-5-2c-1.3-1.3-2-3.1-2-5.3c0-1.5,0.3-2.8,0.9-3.9c0.6-1.1,1.5-2,2.5-2.5
	c0.9-0.5,2.1-0.8,3.5-0.8c1.3,0,2.4,0.3,3.5,0.8c1,0.6,1.9,1.5,2.5,2.5c0.6,1.2,0.9,2.4,0.9,3.9c0,2.3-0.6,4.1-2,5.3
	C111.7,181.4,109.9,182.1,108,182.1z M108,168.1c-1.3,0-2.4,0.3-3.3,0.8c-1,0.5-1.7,1.3-2.3,2.3c-0.6,1.1-0.9,2.3-0.9,3.7
	c0,2,0.6,3.7,1.8,4.9c1.2,1.2,2.7,1.8,4.6,1.8c1.8,0,3.4-0.6,4.6-1.8c1.2-1.1,1.8-2.7,1.8-4.9c0-1.4-0.3-2.6-0.9-3.7
	c-0.6-1-1.3-1.7-2.3-2.3C110.2,168.4,109.2,168.1,108,168.1z M93.4,181.8h-6.7l17.5-25.7h6.7L93.4,181.8z M87.7,181.3h5.5l16.9-24.7
	h-5.5L87.7,181.3z M108.1,178.3c-0.5,0-1-0.3-1.3-0.8c-0.5-0.6-0.5-1.6-0.5-2.5c0-1.1,0.2-1.9,0.5-2.5c0.4-0.6,0.7-0.8,1.3-0.8
	c0.5,0,1,0.3,1.3,0.8c0.4,0.6,0.5,1.5,0.5,2.5s-0.2,1.9-0.5,2.5l0,0C109.1,178,108.6,178.3,108.1,178.3z M108.1,172
	c-0.4,0-0.6,0.1-0.9,0.6s-0.5,1.3-0.5,2.3c0,1.2,0.1,1.8,0.4,2.2c0.5,0.8,1.3,0.8,1.8,0c0.3-0.5,0.5-1.3,0.5-2.3s-0.2-1.8-0.5-2.3
	C108.8,172.3,108.5,172,108.1,172z M89.5,170.3c-2,0-3.6-0.6-5-2c-1.3-1.3-2-3.1-2-5.3c0-1.5,0.3-2.8,0.9-3.9c0.6-1.1,1.5-2,2.5-2.5
	c0.9-0.5,2.1-0.8,3.5-0.8c1.3,0,2.4,0.3,3.5,0.8c1,0.6,1.9,1.5,2.5,2.5s0.9,2.4,0.9,3.9c0,2.3-0.6,4.1-2,5.3
	C93.2,169.5,91.4,170.3,89.5,170.3z M89.5,156.3c-1.3,0-2.4,0.3-3.3,0.8c-1,0.5-1.7,1.3-2.3,2.3c-0.6,1.1-0.9,2.3-0.9,3.7
	c0,2,0.6,3.7,1.8,4.9c1.2,1.2,2.7,1.8,4.6,1.8c1.8,0,3.4-0.6,4.6-1.8c1.2-1.1,1.8-2.7,1.8-4.9c0-1.5-0.3-2.7-0.9-3.7
	s-1.4-1.7-2.3-2.3C91.7,156.5,90.7,156.3,89.5,156.3z M89.6,166.4c-0.5,0-1-0.3-1.3-0.8c-0.5-0.6-0.5-1.6-0.5-2.5
	c0-1.1,0.2-1.9,0.5-2.5c0.4-0.6,0.7-0.8,1.3-0.8c0.5,0,1,0.3,1.3,0.8c0.5,0.6,0.5,1.6,0.5,2.5c0,1.1-0.2,1.9-0.5,2.5l0,0
	C90.6,166.1,90.1,166.4,89.6,166.4z M89.6,160.1c-0.4,0-0.6,0.1-0.9,0.6s-0.5,1.3-0.5,2.3c0,1.2,0.1,1.8,0.4,2.2
	c0.5,0.8,1.3,0.8,1.8,0c0.3-0.5,0.5-1.3,0.5-2.3c0-1.2-0.1-1.8-0.4-2.2C90.3,160.4,90,160.1,89.6,160.1z"/>
<path d="M243.5,281.6c0.6,1,0.9,2.1,0.9,3.3c0,1.6-0.5,3-1.4,4.2s-2.3,2.2-4,2.8s-3.7,1-5.9,1s-4.2-0.3-5.9-1s-3-1.6-4-2.8
	c-0.9-1.2-1.4-2.6-1.4-4.2c0-1.2,0.3-2.4,0.9-3.3c0.6-1,1.4-1.8,2.5-2.5c-1.7-1.3-2.5-3-2.5-5c0-1.5,0.4-2.8,1.3-4
	c0.9-1.1,2.1-2,3.7-2.6c1.6-0.6,3.4-0.9,5.4-0.9s3.8,0.3,5.4,0.9c1.6,0.6,2.8,1.5,3.7,2.6s1.3,2.4,1.3,4c0,2-0.8,3.6-2.5,5
	C242.1,279.8,242.9,280.6,243.5,281.6z M235.1,286.5c0.5-0.5,0.8-1.1,0.8-1.9s-0.3-1.4-0.8-1.9s-1.2-0.7-2-0.7s-1.5,0.2-2,0.7
	s-0.8,1.1-0.8,1.9s0.3,1.4,0.8,1.9s1.2,0.7,2,0.7C233.9,287.2,234.6,287,235.1,286.5z M231.6,272.9c-0.4,0.4-0.6,0.9-0.6,1.6
	s0.2,1.2,0.6,1.6c0.4,0.4,0.9,0.6,1.5,0.6s1.1-0.2,1.5-0.6s0.6-0.9,0.6-1.6s-0.2-1.2-0.6-1.6c-0.4-0.4-0.9-0.6-1.5-0.6
	S232,272.5,231.6,272.9z"/>
<path class="st8" d="M233.1,293.1c-2.3,0-4.4-0.3-6-1c-1.7-0.7-3.1-1.7-4.1-2.9c-1-1.3-1.5-2.8-1.5-4.4c0-1.3,0.3-2.5,0.9-3.4
	c0.6-0.9,1.3-1.7,2.3-2.4c-1.5-1.3-2.3-3-2.3-5c0-1.6,0.4-2.9,1.3-4.1c1-1.2,2.3-2.1,3.8-2.7c1.6-0.6,3.5-0.9,5.5-0.9
	s3.9,0.3,5.5,0.9c1.5,0.6,2.8,1.5,3.8,2.7c0.9,1.1,1.4,2.5,1.4,4.2c0,2-0.7,3.6-2.3,5c1,0.7,1.7,1.4,2.3,2.4s0.9,2.2,0.9,3.4
	c0,1.6-0.5,3.1-1.5,4.4c-0.9,1.3-2.4,2.3-4.1,2.9C237.2,292.8,235.2,293.1,233.1,293.1z M233.1,266.9c-2,0-3.7,0.3-5.3,0.9
	c-1.5,0.5-2.7,1.4-3.6,2.5c-0.8,1.1-1.2,2.4-1.2,3.8c0,2,0.8,3.6,2.4,4.8l0.3,0.2l-0.3,0.2c-1.1,0.7-1.8,1.4-2.4,2.4
	c-0.6,0.8-0.9,2-0.9,3.2c0,1.5,0.5,2.9,1.4,4.1c1,1.1,2.2,2,3.9,2.7c1.6,0.7,3.5,1,5.8,1c2,0,4-0.3,5.8-1c1.6-0.6,3-1.5,3.9-2.7
	s1.4-2.6,1.4-4.1c0-1.1-0.3-2.2-0.9-3.2c-0.6-1-1.3-1.7-2.4-2.4l-0.3-0.2l0.3-0.2c1.6-1.4,2.4-2.9,2.4-4.8c0-1.6-0.4-2.8-1.2-3.8
	c-0.9-1.1-2.1-2-3.6-2.5C236.8,267.1,235.1,266.9,233.1,266.9z M233.1,287.5c-0.9,0-1.7-0.3-2.2-0.8c-0.6-0.6-0.9-1.3-0.9-2.1
	s0.3-1.5,0.9-2.1c0.5-0.5,1.2-0.8,2.2-0.8s1.7,0.3,2.2,0.8c0.6,0.6,0.9,1.3,0.9,2.1s-0.3,1.5-0.9,2.1
	C234.8,287.2,234,287.5,233.1,287.5z M233.1,282.3c-0.8,0-1.4,0.2-1.8,0.6c-0.5,0.5-0.7,1-0.7,1.7s0.2,1.2,0.7,1.7
	c0.4,0.4,1,0.6,1.8,0.6s1.4-0.2,1.8-0.6c0.5-0.5,0.7-1,0.7-1.7s-0.2-1.2-0.7-1.7C234.5,282.5,233.9,282.3,233.1,282.3z M233.1,277
	c-0.7,0-1.2-0.2-1.7-0.7s-0.7-1-0.7-1.8s0.2-1.3,0.7-1.8l0,0c0.4-0.4,1-0.7,1.7-0.7s1.2,0.2,1.7,0.7s0.7,1,0.7,1.8s-0.2,1.3-0.7,1.8
	C234.3,276.7,233.8,277,233.1,277z M231.8,273.1c-0.4,0.4-0.5,0.8-0.5,1.4s0.2,1.1,0.5,1.4c0.4,0.4,0.8,0.5,1.3,0.5s1-0.2,1.3-0.5
	c0.4-0.4,0.5-0.8,0.5-1.4s-0.2-1.1-0.5-1.4c-0.4-0.4-0.8-0.5-1.3-0.5C232.6,272.5,232.1,272.7,231.8,273.1L231.8,273.1z"/>
<path d="M266.5,285.8v6.6h-20.2v-5.2l9.1-8.4c0.8-0.7,1.3-1.4,1.6-1.9s0.4-1,0.4-1.5c0-0.6-0.2-1.1-0.6-1.5c-0.4-0.3-1-0.5-1.8-0.5
	s-1.5,0.2-2.2,0.6s-1.2,1-1.5,1.7l-6.4-3.2c1-1.8,2.4-3.2,4.2-4.3c1.8-1,4.1-1.6,6.7-1.6c2,0,3.8,0.3,5.3,1c1.5,0.6,2.7,1.6,3.6,2.8
	c0.9,1.2,1.3,2.6,1.3,4.1c0,1.4-0.3,2.7-0.9,3.9c-0.6,1.2-1.7,2.6-3.4,4.1l-3.6,3.3H266.5z"/>
<path class="st8" d="M266.8,292.6H246V287l9.2-8.5c0.6-0.5,1.1-1.2,1.6-1.8c0.2-0.4,0.4-0.9,0.4-1.4s-0.2-1-0.5-1.3
	c-0.2-0.2-0.8-0.4-1.6-0.4c-0.7,0-1.4,0.2-2.1,0.6c-0.6,0.4-1.1,0.9-1.4,1.6l-0.1,0.2l-6.9-3.4l0.1-0.2c1-1.8,2.4-3.2,4.3-4.4
	c1.9-1.1,4.3-1.6,6.8-1.6c2.1,0,4,0.3,5.4,1c1.5,0.6,2.7,1.6,3.7,2.9c0.9,1.2,1.3,2.6,1.3,4.3c0,1.4-0.3,2.8-0.9,4
	c-0.7,1.3-1.9,2.8-3.5,4.2l-3.1,2.9h8v6.9H266.8z M246.5,292.1h19.7V286h-8.8l4.1-3.7c1.6-1.4,2.7-2.8,3.3-4
	c0.6-1.2,0.9-2.4,0.9-3.8c0-1.5-0.4-2.8-1.3-4c-0.9-1.3-2.1-2.2-3.5-2.7c-1.4-0.7-3.1-1-5.2-1c-2.5,0-4.7,0.5-6.6,1.6
	c-1.7,1-3,2.4-4,4l5.9,3c0.3-0.7,0.9-1.2,1.5-1.6c0.8-0.4,1.5-0.6,2.3-0.6s1.5,0.2,2,0.6c0.5,0.5,0.7,1,0.7,1.7
	c0,0.6-0.1,1.1-0.4,1.6c-0.4,0.7-1,1.4-1.6,2l-9,8.3L246.5,292.1L246.5,292.1z"/>
<path d="M269.6,291.4c-0.9-0.9-1.4-2-1.4-3.4s0.5-2.5,1.4-3.3c0.9-0.9,2-1.3,3.4-1.3s2.5,0.4,3.4,1.3s1.3,2,1.3,3.3
	c0,1.4-0.4,2.5-1.3,3.4s-2,1.3-3.4,1.3S270.5,292.3,269.6,291.4z"/>
<path class="st8" d="M273,293c-1.5,0-2.6-0.4-3.6-1.4l0,0c-1-1-1.5-2.2-1.5-3.6s0.5-2.6,1.5-3.5c0.9-0.9,2.1-1.4,3.6-1.4
	s2.6,0.4,3.6,1.4c0.9,0.9,1.4,2.1,1.4,3.5c0,1.5-0.4,2.6-1.4,3.6C275.6,292.5,274.5,293,273,293z M269.8,291.2
	c0.8,0.8,1.9,1.2,3.2,1.2s2.4-0.4,3.2-1.2c0.8-0.8,1.2-1.9,1.2-3.2c0-1.3-0.4-2.3-1.2-3.1c-0.8-0.8-1.9-1.2-3.2-1.2
	s-2.4,0.4-3.2,1.2c-0.9,0.8-1.3,1.8-1.3,3.1C268.5,289.3,268.9,290.3,269.8,291.2L269.8,291.2z"/>
<path d="M297.6,278.3c1.7,1.5,2.5,3.4,2.5,5.8c0,1.6-0.4,3-1.2,4.4c-0.8,1.3-2.1,2.4-3.8,3.2c-1.7,0.8-3.9,1.2-6.4,1.2
	c-1.8,0-3.5-0.2-5.3-0.6s-3.3-0.9-4.6-1.7l2.9-6.3c1.1,0.6,2.2,1.1,3.3,1.4c1.2,0.3,2.3,0.5,3.4,0.5c1,0,1.8-0.2,2.4-0.5
	s0.9-0.8,0.9-1.5c0-0.6-0.3-1-0.8-1.4c-0.6-0.3-1.5-0.4-3-0.4h-7.3l1.3-15.3h16.7v6.4h-9.8l-0.2,2.5h1.3
	C293.3,276.1,295.9,276.8,297.6,278.3z"/>
<path class="st8" d="M288.7,293.1c-1.8,0-3.5-0.2-5.4-0.6c-2-0.4-3.5-1-4.7-1.7l-0.2-0.1l3.1-6.7l0.2,0.1c1.2,0.7,2.3,1.1,3.2,1.4
	c1.4,0.3,2.4,0.5,3.3,0.5s1.7-0.2,2.3-0.5c0.5-0.3,0.8-0.7,0.8-1.3c0-0.5-0.2-0.8-0.7-1.2c-0.5-0.2-1.3-0.3-2.8-0.3h-7.6l1.3-15.8
	h17.2v6.9H289l-0.2,2h1c3.6,0.1,6.2,0.9,7.9,2.4c1.7,1.5,2.6,3.5,2.6,6c0,1.6-0.4,3.1-1.2,4.5c-0.8,1.3-2.2,2.5-3.9,3.3
	C293.5,292.7,291.3,293.1,288.7,293.1z M279.1,290.5c1.1,0.7,2.5,1.1,4.3,1.6c1.8,0.4,3.5,0.6,5.2,0.6c2.5,0,4.7-0.4,6.3-1.2
	c1.6-0.8,2.9-1.8,3.7-3.1c0.8-1.4,1.2-2.7,1.2-4.3c0-2.3-0.8-4.2-2.4-5.6l0,0c-1.6-1.4-4.1-2.1-7.5-2.2h-1.6l0.2-3h9.8v-5.9h-16.2
	l-1.3,14.8h7c1.6,0,2.5,0.1,3.1,0.4c0.5,0.4,0.9,0.8,0.9,1.6c0,0.8-0.3,1.4-1,1.7c-0.7,0.3-1.6,0.5-2.5,0.5c-1,0-2.1-0.2-3.5-0.5
	c-0.9-0.3-2-0.7-3.1-1.3L279.1,290.5z"/>
<path d="M302.9,279c-1.2-1.2-1.9-3-1.9-5.1c0-1.5,0.3-2.7,0.9-3.8c0.6-1.1,1.4-1.9,2.4-2.4c1-0.6,2.2-0.8,3.4-0.8
	c1.3,0,2.4,0.3,3.4,0.8c1,0.6,1.8,1.4,2.4,2.4c0.6,1.1,0.9,2.3,0.9,3.8c0,2.2-0.6,3.9-1.9,5.1c-1.2,1.2-2.9,1.9-4.8,1.9
	C305.7,280.9,304.1,280.2,302.9,279z M322.5,267.2h6.1l-17.2,25.2h-6.1L322.5,267.2z M308.8,276.2c0.3-0.5,0.5-1.3,0.5-2.4
	s-0.2-1.9-0.5-2.4s-0.7-0.7-1.1-0.7c-0.5,0-0.8,0.2-1.1,0.7c-0.3,0.5-0.4,1.3-0.4,2.4s0.1,1.9,0.4,2.4s0.7,0.7,1.1,0.7
	C308.1,277,308.5,276.7,308.8,276.2z M321.3,290.9c-1.2-1.2-1.9-3-1.9-5.1c0-1.5,0.3-2.7,0.9-3.8c0.6-1.1,1.4-1.9,2.4-2.4
	c1-0.6,2.2-0.8,3.4-0.8c1.3,0,2.4,0.3,3.4,0.8c1,0.6,1.8,1.4,2.4,2.4c0.6,1.1,0.9,2.3,0.9,3.8c0,2.2-0.6,3.9-1.9,5.1
	c-1.2,1.2-2.9,1.9-4.8,1.9C324.2,292.8,322.6,292.1,321.3,290.9z M327.3,288.1c0.3-0.5,0.5-1.3,0.5-2.4s-0.2-1.9-0.5-2.4
	s-0.7-0.7-1.1-0.7c-0.5,0-0.8,0.2-1.1,0.7c-0.3,0.5-0.5,1.3-0.5,2.4s0.1,1.9,0.5,2.4c0.3,0.5,0.7,0.7,1.1,0.7
	C326.6,288.9,327,288.6,327.3,288.1z"/>
<path class="st8" d="M326.1,293c-1.9,0-3.6-0.7-5-2l0,0c-1.3-1.3-2-3.1-2-5.3c0-1.5,0.3-2.8,0.9-3.9s1.5-2,2.5-2.5
	c0.9-0.5,2.1-0.8,3.5-0.8c1.3,0,2.4,0.3,3.5,0.8c1,0.6,1.9,1.5,2.5,2.5c0.6,1.2,0.9,2.4,0.9,3.9c0,2.3-0.6,4.1-2,5.3
	C329.8,292.3,328,293,326.1,293z M321.5,290.7c1.3,1.2,2.9,1.8,4.6,1.8c1.8,0,3.4-0.6,4.6-1.8c1.2-1.1,1.8-2.7,1.8-4.9
	c0-1.4-0.3-2.6-0.9-3.7c-0.6-1-1.3-1.7-2.3-2.3c-1-0.5-2.1-0.8-3.3-0.8c-1.3,0-2.4,0.3-3.3,0.8c-1,0.5-1.7,1.3-2.3,2.3
	c-0.6,1.1-0.9,2.3-0.9,3.7C319.7,287.8,320.3,289.5,321.5,290.7z M311.5,292.6h-6.7l0.3-0.4l17.3-25.3h6.7l-0.3,0.4L311.5,292.6z
	 M305.8,292.1h5.5l16.9-24.7h-5.5L305.8,292.1z M326.4,289.1c-0.1,0-0.1,0-0.2,0c-0.5,0-0.9-0.3-1.3-0.8c-0.5-0.6-0.5-1.6-0.5-2.5
	c0-1.1,0.2-1.9,0.5-2.5c0.4-0.6,0.7-0.8,1.3-0.8c0.5,0,1,0.3,1.3,0.8c0.3,0.6,0.5,1.5,0.5,2.5c0,1.1-0.2,1.9-0.5,2.5
	C327.2,288.8,326.8,289.1,326.4,289.1z M326.2,282.9c-0.4,0-0.6,0.1-0.9,0.6s-0.5,1.3-0.5,2.3c0,1.2,0.1,1.8,0.4,2.2
	c0.3,0.4,0.5,0.6,0.9,0.6c0.3,0.1,0.6-0.1,0.9-0.6s0.5-1.3,0.5-2.3s-0.2-1.8-0.5-2.3C326.9,283.1,326.6,282.9,326.2,282.9z
	 M307.7,281.1c-2,0-3.7-0.7-5-2s-2-3.1-2-5.3c0-1.5,0.3-2.8,0.9-3.9s1.5-2,2.5-2.5c0.9-0.5,2.1-0.8,3.5-0.8c1.3,0,2.4,0.3,3.5,0.8
	c1,0.6,1.9,1.5,2.5,2.5c0.6,1.2,0.9,2.4,0.9,3.9c0,2.3-0.6,4.1-2,5.3C311.4,280.4,309.6,281.1,307.7,281.1z M307.7,267.1
	c-1.3,0-2.4,0.3-3.3,0.8c-1,0.5-1.7,1.3-2.3,2.3c-0.6,1.1-0.9,2.3-0.9,3.7c0,2,0.6,3.7,1.8,4.9l0,0c1.2,1.2,2.8,1.8,4.6,1.8
	c1.8,0,3.4-0.6,4.6-1.8c1.2-1.1,1.8-2.7,1.8-4.9c0-1.4-0.3-2.6-0.9-3.7c-0.6-1-1.3-1.7-2.3-2.3C309.9,267.4,308.9,267.1,307.7,267.1
	z M307.9,277.2c-0.1,0-0.1,0-0.2,0l0,0c-0.5,0-0.9-0.3-1.2-0.8c-0.3-0.5-0.4-1.3-0.4-2.5c0-1.3,0.1-2,0.4-2.5
	c0.4-0.6,0.7-0.8,1.3-0.8c0.5,0,1,0.3,1.3,0.8c0.3,0.6,0.5,1.5,0.5,2.5c0,1.1-0.2,1.9-0.5,2.5C308.7,276.9,308.3,277.2,307.9,277.2z
	 M307.7,271c-0.4,0-0.6,0.1-0.9,0.6c-0.3,0.4-0.4,1.1-0.4,2.3s0.1,1.9,0.4,2.3c0.2,0.4,0.5,0.6,0.9,0.6c0.3,0.1,0.6-0.1,0.9-0.6
	s0.5-1.3,0.5-2.3s-0.2-1.8-0.5-2.3C308.4,271.2,308.1,271,307.7,271z"/>
</svg>
