<?xml version="1.0" encoding="utf-8"?>
<!-- Generator: Adobe Illustrator 24.2.0, SVG Export Plug-In . SVG Version: 6.00 Build 0)  -->
<svg version="1.1" id="Layer_1" xmlns="http://www.w3.org/2000/svg" xmlns:xlink="http://www.w3.org/1999/xlink" x="0px" y="0px"
	 viewBox="0 0 620 620" style="enable-background:new 0 0 620 620;" xml:space="preserve">
<style type="text/css">
	.st0{fill:#FFFFFF;}
	.st1{fill:#C4C4C4;}
	.st2{fill:#A0B7E3;}
	.st3{fill:#FDD46A;}
	.st4{fill:#22B573;}
	.st5{fill:#413E3E;}
</style>
<circle class="st0" cx="309.9" cy="318.5" r="291.2"/>
<circle class="st1" cx="309.9" cy="318.5" r="265.3"/>
<polygon class="st0" points="569.2,452.9 323.2,310.8 323.2,26.7 296.7,26.7 296.7,310.8 50.6,452.9 63.9,475.8 309.9,333.8 
	556,475.8 "/>
<path class="st2" d="M532.7,462.9c-76.3,118-232.6,156.5-355.5,85.4c-32.4-18.7-59.3-43.3-80.2-71.5l13.8-9.7l-45.5-12.8l-5.4,48.7
	l15.9-11.2c23,31.2,52.7,58.4,88.4,79.1c135.4,78.4,307.6,35.6,391.1-94.8L532.7,462.9z"/>
<path class="st3" d="M314.3,39l-39.5-29l1.8,19.4C188.3,39.7,105.9,90,58,172.8C6.4,262,7.3,367.1,51.3,452.4l22.6-13
	c-39.5-77.5-40.1-172.7,6.7-253.6c43.5-75.2,118.3-121,198.4-130.5l1.5,16.7L314.3,39z"/>
<path class="st4" d="M456,66.7c-41.8-24.2-87.2-36.8-132.3-38.9l0,26c40.7,2.1,81.6,13.6,119.3,35.4
	C560.6,157.3,606.3,302,553.6,423.8l-15.6-7.2l11.7,45.8l44.8-19.7l-17.4-8C635.5,300.8,585.4,141.6,456,66.7z"/>
<path class="st5" d="M271.8,462.5c0.5,0.4,0.8,1,0.8,1.8c0,0.7-0.3,1.3-0.8,1.8c-0.5,0.4-1.2,0.6-2.1,0.6h-1.9v2.2h-0.7v-7h2.6
	C270.6,461.8,271.3,462,271.8,462.5z M271.3,465.5c0.4-0.3,0.5-0.7,0.5-1.3c0-0.6-0.2-1-0.5-1.3c-0.4-0.3-0.9-0.5-1.6-0.5h-1.9v3.5
	h1.9C270.4,466,270.9,465.8,271.3,465.5z"/>
<path class="st5" d="M279,468.8l-1.6-2.3c-0.2,0-0.4,0-0.6,0H275v2.2h-0.7v-7h2.6c0.9,0,1.6,0.2,2.1,0.6c0.5,0.4,0.8,1,0.8,1.8
	c0,0.5-0.1,1-0.4,1.4c-0.3,0.4-0.7,0.6-1.2,0.8l1.7,2.4H279z M278.5,465.5c0.4-0.3,0.5-0.7,0.5-1.3c0-0.6-0.2-1-0.5-1.3
	c-0.4-0.3-0.9-0.5-1.6-0.5H275v3.5h1.9C277.6,466,278.1,465.8,278.5,465.5z"/>
<path class="st5" d="M282.7,468.4c-0.6-0.3-1-0.7-1.3-1.3c-0.3-0.5-0.5-1.1-0.5-1.8c0-0.7,0.2-1.3,0.5-1.8c0.3-0.5,0.8-1,1.3-1.3
	c0.6-0.3,1.2-0.5,1.9-0.5c0.7,0,1.3,0.2,1.9,0.5c0.6,0.3,1,0.7,1.3,1.3c0.3,0.5,0.5,1.2,0.5,1.8c0,0.7-0.2,1.3-0.5,1.8
	c-0.3,0.5-0.8,1-1.3,1.3c-0.6,0.3-1.2,0.5-1.9,0.5C283.9,468.9,283.2,468.7,282.7,468.4z M286.1,467.9c0.4-0.3,0.8-0.6,1-1
	s0.4-0.9,0.4-1.5s-0.1-1-0.4-1.5s-0.6-0.8-1-1c-0.4-0.3-0.9-0.4-1.5-0.4c-0.6,0-1.1,0.1-1.5,0.4c-0.4,0.3-0.8,0.6-1.1,1
	c-0.3,0.4-0.4,0.9-0.4,1.5s0.1,1,0.4,1.5c0.3,0.4,0.6,0.8,1.1,1c0.5,0.3,1,0.4,1.5,0.4C285.1,468.2,285.6,468.1,286.1,467.9z"/>
<path class="st5" d="M289.9,461.8h2.9c0.7,0,1.4,0.1,2,0.4c0.6,0.3,1,0.7,1.3,1.2c0.3,0.5,0.5,1.1,0.5,1.8s-0.2,1.3-0.5,1.8
	c-0.3,0.5-0.8,0.9-1.3,1.2c-0.6,0.3-1.2,0.4-2,0.4h-2.9V461.8z M292.7,468.2c0.6,0,1.1-0.1,1.6-0.4s0.8-0.6,1.1-1
	c0.3-0.4,0.4-0.9,0.4-1.5s-0.1-1.1-0.4-1.5c-0.3-0.4-0.6-0.8-1.1-1s-1-0.4-1.6-0.4h-2.1v5.7H292.7z"/>
<path class="st5" d="M298.8,468.1c-0.5-0.5-0.8-1.3-0.8-2.3v-4h0.7v4c0,0.8,0.2,1.4,0.6,1.8c0.4,0.4,0.9,0.6,1.6,0.6
	c0.7,0,1.2-0.2,1.6-0.6c0.4-0.4,0.5-1,0.5-1.8v-4h0.7v4c0,1-0.3,1.8-0.8,2.3c-0.5,0.5-1.2,0.8-2.1,0.8S299.3,468.6,298.8,468.1z"/>
<path class="st5" d="M307.4,462.5H305v-0.6h5.7v0.6h-2.5v6.4h-0.7V462.5z"/>
<path class="st5" d="M311.8,461.8h0.7v7h-0.7V461.8z"/>
<path class="st5" d="M320.6,461.8l-3.1,7h-0.7l-3.1-7h0.8l2.7,6.1l2.7-6.1H320.6z"/>
<path class="st5" d="M321.8,461.8h0.7v7h-0.7V461.8z"/>
<path class="st5" d="M324.8,461.8h2.9c0.7,0,1.4,0.1,2,0.4c0.6,0.3,1,0.7,1.3,1.2c0.3,0.5,0.5,1.1,0.5,1.8s-0.2,1.3-0.5,1.8
	c-0.3,0.5-0.8,0.9-1.3,1.2c-0.6,0.3-1.2,0.4-2,0.4h-2.9V461.8z M327.6,468.2c0.6,0,1.1-0.1,1.6-0.4s0.8-0.6,1.1-1
	c0.3-0.4,0.4-0.9,0.4-1.5s-0.1-1.1-0.4-1.5c-0.3-0.4-0.6-0.8-1.1-1s-1-0.4-1.6-0.4h-2.1v5.7H327.6z"/>
<path class="st5" d="M337.5,467h-3.9l-0.8,1.9H332l3.2-7h0.7l3.2,7h-0.8L337.5,467z M337.2,466.4l-1.7-3.8l-1.7,3.8H337.2z"/>
<path class="st5" d="M340.2,461.8h2.9c0.7,0,1.4,0.1,2,0.4c0.6,0.3,1,0.7,1.3,1.2c0.3,0.5,0.5,1.1,0.5,1.8s-0.2,1.3-0.5,1.8
	c-0.3,0.5-0.8,0.9-1.3,1.2c-0.6,0.3-1.2,0.4-2,0.4h-2.9V461.8z M343.1,468.2c0.6,0,1.1-0.1,1.6-0.4s0.8-0.6,1.1-1
	c0.3-0.4,0.4-0.9,0.4-1.5s-0.1-1.1-0.4-1.5c-0.3-0.4-0.6-0.8-1.1-1s-1-0.4-1.6-0.4H341v5.7H343.1z"/>
<path class="st5" d="M353.5,468.2v0.6h-5v-7h4.8v0.6h-4.1v2.5h3.6v0.6h-3.6v2.6H353.5z"/>
<path class="st5" d="M293.7,476.5h-2.5v-0.6h5.7v0.6h-2.5v6.4h-0.7V476.5z"/>
<path class="st5" d="M303.1,482.2v0.6h-4.9v-7h4.8v0.6h-4.1v2.5h3.6v0.6h-3.6v2.6H303.1z"/>
<path class="st5" d="M312.1,475.8v7h-0.7v-5.6l-2.8,4.7h-0.4l-2.8-4.7v5.6h-0.7v-7h0.6l3,5.2l3-5.2H312.1z"/>
<path class="st5" d="M319.1,476.5c0.5,0.4,0.8,1,0.8,1.8c0,0.7-0.3,1.3-0.8,1.8c-0.5,0.4-1.2,0.6-2.1,0.6h-1.9v2.2h-0.7v-7h2.6
	C317.9,475.8,318.6,476,319.1,476.5z M318.5,479.5c0.4-0.3,0.5-0.7,0.5-1.3c0-0.6-0.2-1-0.5-1.3c-0.4-0.3-0.9-0.5-1.6-0.5h-1.9v3.5
	h1.9C317.6,480,318.2,479.8,318.5,479.5z"/>
<path class="st5" d="M322.7,482.4c-0.6-0.3-1-0.7-1.3-1.3s-0.5-1.1-0.5-1.8c0-0.7,0.2-1.3,0.5-1.8s0.8-1,1.3-1.3
	c0.6-0.3,1.2-0.5,1.9-0.5s1.3,0.2,1.9,0.5s1,0.7,1.3,1.3c0.3,0.5,0.5,1.2,0.5,1.8c0,0.7-0.2,1.3-0.5,1.8c-0.3,0.5-0.8,1-1.3,1.3
	s-1.2,0.5-1.9,0.5S323.3,482.7,322.7,482.4z M326.1,481.9c0.4-0.3,0.8-0.6,1-1c0.3-0.4,0.4-0.9,0.4-1.5s-0.1-1-0.4-1.5
	c-0.3-0.4-0.6-0.8-1-1c-0.4-0.3-0.9-0.4-1.5-0.4c-0.6,0-1.1,0.1-1.5,0.4c-0.5,0.3-0.8,0.6-1.1,1s-0.4,0.9-0.4,1.5s0.1,1,0.4,1.5
	s0.6,0.8,1.1,1c0.4,0.3,1,0.4,1.5,0.4C325.1,482.2,325.6,482.1,326.1,481.9z"/>
<path class="st5" d="M268.7,496.4c-0.6-0.3-1-0.7-1.3-1.3c-0.3-0.5-0.5-1.2-0.5-1.8c0-0.7,0.2-1.3,0.5-1.8c0.3-0.5,0.8-1,1.3-1.3
	s1.2-0.5,1.9-0.5c0.5,0,1,0.1,1.4,0.3c0.4,0.2,0.8,0.4,1.1,0.8l-0.5,0.5c-0.5-0.6-1.2-0.8-2.1-0.8c-0.6,0-1.1,0.1-1.5,0.4
	c-0.5,0.3-0.8,0.6-1.1,1c-0.3,0.4-0.4,0.9-0.4,1.5s0.1,1,0.4,1.5c0.3,0.4,0.6,0.8,1.1,1c0.5,0.3,1,0.4,1.5,0.4
	c0.8,0,1.5-0.3,2.1-0.8l0.5,0.5c-0.3,0.3-0.7,0.6-1.1,0.8s-0.9,0.3-1.4,0.3C269.9,496.9,269.2,496.7,268.7,496.4z"/>
<path class="st5" d="M275.9,496.4c-0.6-0.3-1-0.7-1.3-1.3c-0.3-0.5-0.5-1.1-0.5-1.8c0-0.7,0.2-1.3,0.5-1.8c0.3-0.5,0.8-1,1.3-1.3
	c0.6-0.3,1.2-0.5,1.9-0.5c0.7,0,1.3,0.2,1.9,0.5c0.6,0.3,1,0.7,1.3,1.3c0.3,0.5,0.5,1.2,0.5,1.8c0,0.7-0.2,1.3-0.5,1.8
	c-0.3,0.5-0.8,1-1.3,1.3c-0.6,0.3-1.2,0.5-1.9,0.5C277.1,496.9,276.4,496.7,275.9,496.4z M279.3,495.9c0.4-0.3,0.8-0.6,1-1
	s0.4-0.9,0.4-1.5s-0.1-1-0.4-1.5s-0.6-0.8-1-1c-0.4-0.3-0.9-0.4-1.5-0.4c-0.6,0-1.1,0.1-1.5,0.4c-0.4,0.3-0.8,0.6-1.1,1
	c-0.3,0.4-0.4,0.9-0.4,1.5s0.1,1,0.4,1.5c0.3,0.4,0.6,0.8,1.1,1c0.5,0.3,1,0.4,1.5,0.4C278.3,496.2,278.8,496.1,279.3,495.9z"/>
<path class="st5" d="M289,489.8v7h-0.6l-4.5-5.7v5.7h-0.7v-7h0.6l4.5,5.7v-5.7H289z"/>
<path class="st5" d="M297.1,489.8v7h-0.7v-3.2H292v3.2h-0.7v-7h0.7v3.1h4.4v-3.1H297.1z"/>
<path class="st5" d="M304.3,496.2v0.6h-4.9v-7h4.8v0.6h-4.1v2.5h3.6v0.6h-3.6v2.6H304.3z"/>
<path class="st5" d="M307.2,496.4c-0.6-0.3-1-0.7-1.3-1.3c-0.3-0.5-0.5-1.2-0.5-1.8c0-0.7,0.2-1.3,0.5-1.8c0.3-0.5,0.8-1,1.3-1.3
	s1.2-0.5,1.9-0.5c0.5,0,1,0.1,1.4,0.3c0.4,0.2,0.8,0.4,1.1,0.8l-0.5,0.5c-0.5-0.6-1.2-0.8-2.1-0.8c-0.6,0-1.1,0.1-1.5,0.4
	c-0.5,0.3-0.8,0.6-1.1,1c-0.3,0.4-0.4,0.9-0.4,1.5s0.1,1,0.4,1.5c0.3,0.4,0.6,0.8,1.1,1c0.5,0.3,1,0.4,1.5,0.4
	c0.8,0,1.5-0.3,2.1-0.8l0.5,0.5c-0.3,0.3-0.7,0.6-1.1,0.8s-0.9,0.3-1.4,0.3C308.4,496.9,307.8,496.7,307.2,496.4z"/>
<path class="st5" d="M313.2,489.8h0.7v7h-0.7V489.8z"/>
<path class="st5" d="M323.5,489.8v7h-0.7v-5.6l-2.8,4.7h-0.4l-2.8-4.7v5.6h-0.7v-7h0.6l3,5.2l3-5.2H323.5z"/>
<path class="st5" d="M330.8,496.2v0.6h-5v-7h4.8v0.6h-4.1v2.5h3.6v0.6h-3.6v2.6H330.8z"/>
<path class="st5" d="M338.4,489.8v7h-0.6l-4.5-5.7v5.7h-0.7v-7h0.6l4.5,5.7v-5.7H338.4z"/>
<path class="st5" d="M342,490.5h-2.5v-0.6h5.7v0.6h-2.5v6.4H342V490.5z"/>
<path class="st5" d="M347.5,496.4c-0.6-0.3-1-0.7-1.3-1.3s-0.5-1.1-0.5-1.8c0-0.7,0.2-1.3,0.5-1.8s0.8-1,1.3-1.3
	c0.6-0.3,1.2-0.5,1.9-0.5s1.3,0.2,1.9,0.5s1,0.7,1.3,1.3c0.3,0.5,0.5,1.2,0.5,1.8c0,0.7-0.2,1.3-0.5,1.8c-0.3,0.5-0.8,1-1.3,1.3
	s-1.2,0.5-1.9,0.5S348.1,496.7,347.5,496.4z M350.9,495.9c0.4-0.3,0.8-0.6,1-1c0.3-0.4,0.4-0.9,0.4-1.5s-0.1-1-0.4-1.5
	c-0.3-0.4-0.6-0.8-1-1c-0.4-0.3-0.9-0.4-1.5-0.4c-0.6,0-1.1,0.1-1.5,0.4c-0.5,0.3-0.8,0.6-1.1,1s-0.4,0.9-0.4,1.5s0.1,1,0.4,1.5
	s0.6,0.8,1.1,1c0.4,0.3,1,0.4,1.5,0.4C350,496.2,350.5,496.1,350.9,495.9z"/>
<path class="st5" d="M284.4,510.4c-0.6-0.3-1-0.7-1.3-1.3c-0.3-0.5-0.5-1.2-0.5-1.8c0-0.7,0.2-1.3,0.5-1.8c0.3-0.5,0.8-1,1.3-1.3
	s1.2-0.5,1.9-0.5c0.5,0,1,0.1,1.4,0.3c0.4,0.2,0.8,0.4,1.1,0.8l-0.5,0.5c-0.5-0.6-1.2-0.8-2.1-0.8c-0.6,0-1.1,0.1-1.5,0.4
	c-0.5,0.3-0.8,0.6-1.1,1c-0.3,0.4-0.4,0.9-0.4,1.5s0.1,1,0.4,1.5c0.3,0.4,0.6,0.8,1.1,1c0.5,0.3,1,0.4,1.5,0.4
	c0.8,0,1.5-0.3,2.1-0.8l0.5,0.5c-0.3,0.3-0.7,0.6-1.1,0.8s-0.9,0.3-1.4,0.3C285.6,510.9,285,510.7,284.4,510.4z"/>
<path class="st5" d="M291.6,510.4c-0.6-0.3-1-0.7-1.3-1.3c-0.3-0.5-0.5-1.1-0.5-1.8c0-0.7,0.2-1.3,0.5-1.8c0.3-0.5,0.8-1,1.3-1.3
	c0.6-0.3,1.2-0.5,1.9-0.5c0.7,0,1.3,0.2,1.9,0.5c0.6,0.3,1,0.7,1.3,1.3c0.3,0.5,0.5,1.2,0.5,1.8c0,0.7-0.2,1.3-0.5,1.8
	c-0.3,0.5-0.8,1-1.3,1.3c-0.6,0.3-1.2,0.5-1.9,0.5C292.8,510.9,292.2,510.7,291.6,510.4z M295,509.9c0.4-0.3,0.8-0.6,1-1
	s0.4-0.9,0.4-1.5s-0.1-1-0.4-1.5s-0.6-0.8-1-1c-0.4-0.3-0.9-0.4-1.5-0.4c-0.6,0-1.1,0.1-1.5,0.4c-0.4,0.3-0.8,0.6-1.1,1
	c-0.3,0.4-0.4,0.9-0.4,1.5s0.1,1,0.4,1.5c0.3,0.4,0.6,0.8,1.1,1c0.5,0.3,1,0.4,1.5,0.4C294.1,510.2,294.6,510.1,295,509.9z"/>
<path class="st5" d="M304.7,503.8v7h-0.6l-4.5-5.7v5.7h-0.7v-7h0.6l4.5,5.7v-5.7H304.7z"/>
<path class="st5" d="M307.4,510.6c-0.5-0.2-0.8-0.4-1.1-0.7l0.3-0.6c0.3,0.3,0.6,0.5,1,0.6c0.4,0.2,0.9,0.2,1.3,0.2
	c0.6,0,1.1-0.1,1.4-0.3c0.3-0.2,0.5-0.5,0.5-0.9c0-0.3-0.1-0.5-0.3-0.7c-0.2-0.2-0.4-0.3-0.6-0.4s-0.6-0.2-1-0.3
	c-0.5-0.1-0.9-0.3-1.3-0.4c-0.3-0.1-0.6-0.3-0.8-0.6c-0.2-0.3-0.3-0.6-0.3-1c0-0.4,0.1-0.7,0.3-1c0.2-0.3,0.5-0.5,0.9-0.7
	c0.4-0.2,0.9-0.3,1.4-0.3c0.4,0,0.8,0.1,1.2,0.2c0.4,0.1,0.7,0.3,1,0.5L311,505c-0.3-0.2-0.6-0.3-0.9-0.4c-0.3-0.1-0.7-0.1-1-0.1
	c-0.6,0-1.1,0.1-1.4,0.4c-0.3,0.2-0.5,0.5-0.5,0.9c0,0.3,0.1,0.5,0.3,0.7s0.4,0.3,0.6,0.4c0.3,0.1,0.6,0.2,1,0.3
	c0.5,0.1,0.9,0.3,1.2,0.4s0.6,0.3,0.8,0.6c0.2,0.3,0.3,0.6,0.3,1c0,0.4-0.1,0.7-0.3,1c-0.2,0.3-0.5,0.5-0.9,0.7
	c-0.4,0.2-0.9,0.3-1.5,0.3C308.4,510.9,307.9,510.8,307.4,510.6z"/>
<path class="st5" d="M313.8,510.1c-0.5-0.5-0.8-1.3-0.8-2.3v-4h0.7v4c0,0.8,0.2,1.4,0.5,1.8c0.4,0.4,0.9,0.6,1.6,0.6
	c0.7,0,1.2-0.2,1.6-0.6c0.4-0.4,0.6-1,0.6-1.8v-4h0.7v4c0,1-0.3,1.8-0.8,2.3c-0.5,0.5-1.2,0.8-2.1,0.8S314.3,510.6,313.8,510.1z"/>
<path class="st5" d="M328.3,503.8v7h-0.7v-5.6l-2.8,4.7h-0.4l-2.8-4.7v5.6h-0.7v-7h0.6l3,5.2l3-5.2H328.3z"/>
<path class="st5" d="M331.8,510.4c-0.6-0.3-1-0.7-1.3-1.3s-0.5-1.1-0.5-1.8c0-0.7,0.2-1.3,0.5-1.8s0.8-1,1.3-1.3
	c0.6-0.3,1.2-0.5,1.9-0.5s1.3,0.2,1.9,0.5s1,0.7,1.3,1.3c0.3,0.5,0.5,1.2,0.5,1.8c0,0.7-0.2,1.3-0.5,1.8c-0.3,0.5-0.8,1-1.3,1.3
	s-1.2,0.5-1.9,0.5S332.3,510.7,331.8,510.4z M335.2,509.9c0.4-0.3,0.8-0.6,1-1c0.3-0.4,0.4-0.9,0.4-1.5s-0.1-1-0.4-1.5
	c-0.3-0.4-0.6-0.8-1-1c-0.4-0.3-0.9-0.4-1.5-0.4c-0.6,0-1.1,0.1-1.5,0.4c-0.5,0.3-0.8,0.6-1.1,1s-0.4,0.9-0.4,1.5s0.1,1,0.4,1.5
	s0.6,0.8,1.1,1c0.4,0.3,1,0.4,1.5,0.4C334.2,510.2,334.7,510.1,335.2,509.9z"/>
<path class="st5" d="M283.2,524.4c-0.6-0.3-1-0.7-1.3-1.3c-0.3-0.5-0.5-1.2-0.5-1.8c0-0.7,0.2-1.3,0.5-1.8c0.3-0.5,0.8-1,1.3-1.3
	s1.2-0.5,1.9-0.5c0.5,0,1,0.1,1.4,0.3c0.4,0.2,0.8,0.4,1.1,0.8l-0.5,0.5c-0.5-0.6-1.2-0.8-2.1-0.8c-0.6,0-1.1,0.1-1.5,0.4
	c-0.5,0.3-0.8,0.6-1.1,1c-0.3,0.4-0.4,0.9-0.4,1.5s0.1,1,0.4,1.5c0.3,0.4,0.6,0.8,1.1,1c0.5,0.3,1,0.4,1.5,0.4
	c0.8,0,1.5-0.3,2.1-0.8l0.5,0.5c-0.3,0.3-0.7,0.6-1.1,0.8s-0.9,0.3-1.4,0.3C284.4,524.9,283.8,524.7,283.2,524.4z"/>
<path class="st5" d="M290.4,524.4c-0.6-0.3-1-0.7-1.3-1.3c-0.3-0.5-0.5-1.1-0.5-1.8c0-0.7,0.2-1.3,0.5-1.8c0.3-0.5,0.8-1,1.3-1.3
	c0.6-0.3,1.2-0.5,1.9-0.5c0.7,0,1.3,0.2,1.9,0.5c0.6,0.3,1,0.7,1.3,1.3c0.3,0.5,0.5,1.2,0.5,1.8c0,0.7-0.2,1.3-0.5,1.8
	c-0.3,0.5-0.8,1-1.3,1.3c-0.6,0.3-1.2,0.5-1.9,0.5C291.6,524.9,291,524.7,290.4,524.4z M293.8,523.9c0.4-0.3,0.8-0.6,1-1
	s0.4-0.9,0.4-1.5s-0.1-1-0.4-1.5s-0.6-0.8-1-1c-0.4-0.3-0.9-0.4-1.5-0.4c-0.6,0-1.1,0.1-1.5,0.4c-0.4,0.3-0.8,0.6-1.1,1
	c-0.3,0.4-0.4,0.9-0.4,1.5s0.1,1,0.4,1.5c0.3,0.4,0.6,0.8,1.1,1c0.5,0.3,1,0.4,1.5,0.4C292.8,524.2,293.3,524.1,293.8,523.9z"/>
<path class="st5" d="M303.5,517.8v7h-0.6l-4.5-5.7v5.7h-0.7v-7h0.6l4.5,5.7v-5.7H303.5z"/>
<path class="st5" d="M310.7,524.2v0.6h-4.9v-7h4.8v0.6h-4.1v2.5h3.6v0.6h-3.6v2.6H310.7z"/>
<path class="st5" d="M316.8,524.8l-2.3-3.1l-2.3,3.1h-0.8l2.7-3.6l-2.5-3.4h0.9l2.1,2.9l2.1-2.9h0.8l-2.5,3.4l2.7,3.6H316.8z"/>
<path class="st5" d="M320.2,524.4c-0.6-0.3-1-0.7-1.3-1.3s-0.5-1.1-0.5-1.8c0-0.7,0.2-1.3,0.5-1.8s0.8-1,1.3-1.3
	c0.6-0.3,1.2-0.5,1.9-0.5s1.3,0.2,1.9,0.5s1,0.7,1.3,1.3c0.3,0.5,0.5,1.2,0.5,1.8c0,0.7-0.2,1.3-0.5,1.8c-0.3,0.5-0.8,1-1.3,1.3
	s-1.2,0.5-1.9,0.5S320.7,524.7,320.2,524.4z M323.6,523.9c0.4-0.3,0.8-0.6,1-1c0.3-0.4,0.4-0.9,0.4-1.5s-0.1-1-0.4-1.5
	c-0.3-0.4-0.6-0.8-1-1c-0.4-0.3-0.9-0.4-1.5-0.4c-0.6,0-1.1,0.1-1.5,0.4c-0.5,0.3-0.8,0.6-1.1,1s-0.4,0.9-0.4,1.5s0.1,1,0.4,1.5
	s0.6,0.8,1.1,1c0.4,0.3,1,0.4,1.5,0.4C322.6,524.2,323.1,524.1,323.6,523.9z M322.3,517.1c-0.1-0.1-0.3-0.2-0.4-0.3
	c-0.1-0.1-0.2-0.2-0.3-0.2c-0.1,0-0.1-0.1-0.2-0.1c-0.2,0-0.3,0.1-0.4,0.2c-0.1,0.1-0.1,0.3-0.2,0.5h-0.4c0-0.3,0.1-0.6,0.3-0.8
	s0.4-0.3,0.6-0.3c0.2,0,0.3,0,0.4,0.1c0.1,0.1,0.3,0.2,0.4,0.3c0.1,0.1,0.2,0.2,0.3,0.2s0.2,0.1,0.2,0.1c0.1,0,0.3-0.1,0.4-0.2
	c0.1-0.1,0.1-0.3,0.2-0.5h0.4c0,0.3-0.1,0.6-0.3,0.8c-0.2,0.2-0.4,0.3-0.6,0.3C322.6,517.2,322.5,517.2,322.3,517.1z"/>
<path class="st5" d="M332.3,524.2v0.6h-5v-7h4.8v0.6h-4.1v2.5h3.6v0.6h-3.6v2.6H332.3z"/>
<path class="st5" d="M334.5,524.6c-0.5-0.2-0.8-0.4-1.1-0.7l0.3-0.6c0.3,0.3,0.6,0.5,1,0.6c0.4,0.2,0.9,0.2,1.3,0.2
	c0.6,0,1.1-0.1,1.4-0.3c0.3-0.2,0.5-0.5,0.5-0.9c0-0.3-0.1-0.5-0.3-0.7c-0.2-0.2-0.4-0.3-0.6-0.4c-0.2-0.1-0.6-0.2-1-0.3
	c-0.5-0.1-0.9-0.3-1.3-0.4s-0.6-0.3-0.8-0.6c-0.2-0.3-0.3-0.6-0.3-1c0-0.4,0.1-0.7,0.3-1c0.2-0.3,0.5-0.5,0.9-0.7
	c0.4-0.2,0.9-0.3,1.4-0.3c0.4,0,0.8,0.1,1.2,0.2c0.4,0.1,0.7,0.3,1,0.5l-0.3,0.6c-0.3-0.2-0.6-0.3-0.9-0.4c-0.3-0.1-0.7-0.1-1-0.1
	c-0.6,0-1.1,0.1-1.4,0.4c-0.3,0.2-0.5,0.5-0.5,0.9c0,0.3,0.1,0.5,0.3,0.7s0.4,0.3,0.6,0.4s0.6,0.2,1,0.3c0.5,0.1,0.9,0.3,1.2,0.4
	s0.6,0.3,0.8,0.6c0.2,0.3,0.3,0.6,0.3,1c0,0.4-0.1,0.7-0.3,1c-0.2,0.3-0.5,0.5-0.9,0.7c-0.4,0.2-0.9,0.3-1.4,0.3
	C335.5,524.9,335,524.8,334.5,524.6z"/>
<path class="st5" d="M364.9,183.4l-1.6-2.3c-0.2,0-0.4,0-0.6,0h-1.9v2.2h-0.7v-7h2.6c0.9,0,1.6,0.2,2.1,0.6c0.5,0.4,0.8,1,0.8,1.8
	c0,0.5-0.1,1-0.4,1.4c-0.3,0.4-0.7,0.6-1.2,0.8l1.7,2.4H364.9z M364.3,180.1c0.4-0.3,0.5-0.7,0.5-1.3c0-0.6-0.2-1-0.5-1.3
	c-0.4-0.3-0.9-0.5-1.6-0.5h-1.9v3.5h1.9C363.5,180.6,364,180.4,364.3,180.1z"/>
<path class="st5" d="M372.3,182.8v0.6h-5v-7h4.8v0.6h-4.1v2.5h3.6v0.6h-3.6v2.6H372.3z"/>
<path class="st5" d="M374.1,176.4h2.9c0.7,0,1.4,0.1,2,0.4c0.6,0.3,1,0.7,1.3,1.2c0.3,0.5,0.5,1.1,0.5,1.8s-0.2,1.3-0.5,1.8
	c-0.3,0.5-0.8,0.9-1.3,1.2c-0.6,0.3-1.2,0.4-2,0.4h-2.9V176.4z M376.9,182.8c0.6,0,1.1-0.1,1.6-0.4s0.8-0.6,1.1-1
	c0.3-0.4,0.4-0.9,0.4-1.5s-0.1-1.1-0.4-1.5c-0.3-0.4-0.6-0.8-1.1-1c-0.5-0.2-1-0.4-1.6-0.4h-2.1v5.7H376.9z"/>
<path class="st5" d="M387.3,182.8v0.6h-5v-7h4.8v0.6h-4.1v2.5h3.6v0.6h-3.6v2.6H387.3z"/>
<path class="st5" d="M392.1,183.2c-0.5-0.2-0.8-0.4-1.1-0.7l0.3-0.6c0.3,0.3,0.6,0.5,1,0.6c0.4,0.2,0.9,0.2,1.3,0.2
	c0.6,0,1.1-0.1,1.4-0.3c0.3-0.2,0.5-0.5,0.5-0.9c0-0.3-0.1-0.5-0.3-0.7s-0.4-0.3-0.6-0.4c-0.2-0.1-0.6-0.2-1-0.3
	c-0.5-0.1-0.9-0.3-1.3-0.4s-0.6-0.3-0.8-0.6c-0.2-0.3-0.3-0.6-0.3-1c0-0.4,0.1-0.7,0.3-1s0.5-0.5,0.9-0.7s0.9-0.3,1.4-0.3
	c0.4,0,0.8,0.1,1.2,0.2c0.4,0.1,0.7,0.3,1,0.5l-0.3,0.6c-0.3-0.2-0.6-0.3-0.9-0.4c-0.3-0.1-0.7-0.1-1-0.1c-0.6,0-1.1,0.1-1.4,0.4
	c-0.3,0.2-0.5,0.5-0.5,0.9c0,0.3,0.1,0.5,0.3,0.7s0.4,0.3,0.6,0.4c0.3,0.1,0.6,0.2,1,0.3c0.5,0.1,0.9,0.3,1.2,0.4
	c0.3,0.1,0.6,0.3,0.8,0.6c0.2,0.3,0.3,0.6,0.3,1c0,0.4-0.1,0.7-0.3,1c-0.2,0.3-0.5,0.5-0.9,0.7c-0.4,0.2-0.9,0.3-1.4,0.3
	C393.1,183.5,392.6,183.4,392.1,183.2z"/>
<path class="st5" d="M399,183c-0.6-0.3-1-0.7-1.3-1.3s-0.5-1.1-0.5-1.8s0.2-1.3,0.5-1.8s0.8-1,1.3-1.3c0.6-0.3,1.2-0.5,1.9-0.5
	s1.3,0.2,1.9,0.5s1,0.7,1.3,1.3c0.3,0.5,0.5,1.2,0.5,1.8s-0.2,1.3-0.5,1.8c-0.3,0.5-0.8,1-1.3,1.3s-1.2,0.5-1.9,0.5
	S399.5,183.3,399,183z M402.4,182.4c0.4-0.3,0.8-0.6,1-1c0.3-0.4,0.4-0.9,0.4-1.5c0-0.5-0.1-1-0.4-1.5c-0.3-0.4-0.6-0.8-1-1
	c-0.4-0.3-0.9-0.4-1.5-0.4c-0.6,0-1.1,0.1-1.5,0.4c-0.5,0.3-0.8,0.6-1.1,1s-0.4,0.9-0.4,1.5c0,0.5,0.1,1,0.4,1.5s0.6,0.8,1.1,1
	c0.4,0.3,1,0.4,1.5,0.4C401.4,182.8,401.9,182.7,402.4,182.4z"/>
<path class="st5" d="M407.4,183c-0.6-0.3-1-0.7-1.3-1.3s-0.5-1.2-0.5-1.8s0.2-1.3,0.5-1.8c0.3-0.5,0.8-1,1.3-1.3
	c0.6-0.3,1.2-0.5,1.9-0.5c0.5,0,1,0.1,1.4,0.3c0.4,0.2,0.8,0.4,1.1,0.8l-0.5,0.5c-0.5-0.6-1.2-0.8-2.1-0.8c-0.6,0-1.1,0.1-1.5,0.4
	c-0.5,0.3-0.8,0.6-1.1,1s-0.4,0.9-0.4,1.5c0,0.5,0.1,1,0.4,1.5s0.6,0.8,1.1,1c0.5,0.3,1,0.4,1.5,0.4c0.8,0,1.5-0.3,2.1-0.8l0.5,0.5
	c-0.3,0.3-0.7,0.6-1.1,0.8c-0.4,0.2-0.9,0.3-1.4,0.3C408.5,183.5,407.9,183.3,407.4,183z"/>
<path class="st5" d="M413.4,176.4h0.7v7h-0.7V176.4z"/>
<path class="st5" d="M420.8,181.5h-3.9l-0.8,1.9h-0.8l3.2-7h0.7l3.2,7h-0.8L420.8,181.5z M420.5,180.9l-1.7-3.8l-1.7,3.8H420.5z"/>
<path class="st5" d="M423.6,176.4h0.7v6.4h3.9v0.6h-4.7V176.4z"/>
<path class="st5" d="M428.9,180.4h2.6v0.6h-2.6V180.4z"/>
<path class="st5" d="M434.4,183c-0.6-0.3-1-0.7-1.3-1.3s-0.5-1.2-0.5-1.8s0.2-1.3,0.5-1.8c0.3-0.5,0.8-1,1.3-1.3
	c0.6-0.3,1.2-0.5,1.9-0.5c0.5,0,1,0.1,1.4,0.3c0.4,0.2,0.8,0.4,1.1,0.8l-0.5,0.5c-0.5-0.6-1.2-0.8-2.1-0.8c-0.6,0-1.1,0.1-1.5,0.4
	c-0.5,0.3-0.8,0.6-1.1,1s-0.4,0.9-0.4,1.5c0,0.5,0.1,1,0.4,1.5s0.6,0.8,1.1,1c0.5,0.3,1,0.4,1.5,0.4c0.8,0,1.5-0.3,2.1-0.8l0.5,0.5
	c-0.3,0.3-0.7,0.6-1.1,0.8c-0.4,0.2-0.9,0.3-1.4,0.3C435.6,183.5,435,183.3,434.4,183z"/>
<path class="st5" d="M441.6,183c-0.6-0.3-1-0.7-1.3-1.3s-0.5-1.1-0.5-1.8s0.2-1.3,0.5-1.8s0.8-1,1.3-1.3c0.6-0.3,1.2-0.5,1.9-0.5
	s1.3,0.2,1.9,0.5s1,0.7,1.3,1.3c0.3,0.5,0.5,1.2,0.5,1.8s-0.2,1.3-0.5,1.8c-0.3,0.5-0.8,1-1.3,1.3s-1.2,0.5-1.9,0.5
	S442.2,183.3,441.6,183z M445,182.4c0.4-0.3,0.8-0.6,1-1c0.3-0.4,0.4-0.9,0.4-1.5c0-0.5-0.1-1-0.4-1.5c-0.3-0.4-0.6-0.8-1-1
	c-0.4-0.3-0.9-0.4-1.5-0.4c-0.6,0-1.1,0.1-1.5,0.4c-0.5,0.3-0.8,0.6-1.1,1s-0.4,0.9-0.4,1.5c0,0.5,0.1,1,0.4,1.5s0.6,0.8,1.1,1
	c0.4,0.3,1,0.4,1.5,0.4C444.1,182.8,444.6,182.7,445,182.4z"/>
<path class="st5" d="M456.1,176.4v7h-0.7v-5.6l-2.8,4.7h-0.4l-2.8-4.7v5.6h-0.7v-7h0.6l3,5.2l3-5.2H456.1z"/>
<path class="st5" d="M463.4,182.8v0.6h-5v-7h4.8v0.6h-4.1v2.5h3.6v0.6h-3.6v2.6H463.4z"/>
<path class="st5" d="M469.9,183.4l-1.6-2.3c-0.2,0-0.4,0-0.6,0h-1.9v2.2h-0.7v-7h2.6c0.9,0,1.6,0.2,2.1,0.6c0.5,0.4,0.8,1,0.8,1.8
	c0,0.5-0.1,1-0.4,1.4c-0.3,0.4-0.7,0.6-1.2,0.8l1.7,2.4H469.9z M469.3,180.1c0.4-0.3,0.5-0.7,0.5-1.3c0-0.6-0.2-1-0.5-1.3
	c-0.4-0.3-0.9-0.5-1.6-0.5h-1.9v3.5h1.9C468.4,180.6,468.9,180.4,469.3,180.1z"/>
<path class="st5" d="M473.5,183c-0.6-0.3-1-0.7-1.3-1.3s-0.5-1.2-0.5-1.8s0.2-1.3,0.5-1.8c0.3-0.5,0.8-1,1.3-1.3
	c0.6-0.3,1.2-0.5,1.9-0.5c0.5,0,1,0.1,1.4,0.3c0.4,0.2,0.8,0.4,1.1,0.8l-0.5,0.5c-0.5-0.6-1.2-0.8-2.1-0.8c-0.6,0-1.1,0.1-1.5,0.4
	c-0.5,0.3-0.8,0.6-1.1,1s-0.4,0.9-0.4,1.5c0,0.5,0.1,1,0.4,1.5s0.6,0.8,1.1,1c0.5,0.3,1,0.4,1.5,0.4c0.8,0,1.5-0.3,2.1-0.8l0.5,0.5
	c-0.3,0.3-0.7,0.6-1.1,0.8c-0.4,0.2-0.9,0.3-1.4,0.3C474.7,183.5,474,183.3,473.5,183z"/>
<path class="st5" d="M479.5,176.4h0.7v7h-0.7V176.4z"/>
<path class="st5" d="M486.9,181.5H483l-0.8,1.9h-0.8l3.2-7h0.7l3.2,7h-0.8L486.9,181.5z M486.7,180.9l-1.7-3.8l-1.7,3.8H486.7z"/>
<path class="st5" d="M489.7,176.4h0.7v6.4h3.9v0.6h-4.7V176.4z"/>
<path class="st5" d="M410.5,193.9h0.7v2.7c-0.3,0.3-0.7,0.5-1.2,0.7c-0.4,0.2-0.9,0.2-1.4,0.2c-0.7,0-1.3-0.2-1.9-0.5
	c-0.6-0.3-1-0.7-1.3-1.3s-0.5-1.2-0.5-1.8s0.2-1.3,0.5-1.8c0.3-0.5,0.8-1,1.3-1.3c0.6-0.3,1.2-0.5,1.9-0.5c0.5,0,1,0.1,1.5,0.3
	c0.4,0.2,0.8,0.4,1.1,0.8l-0.5,0.5c-0.6-0.5-1.3-0.8-2.1-0.8c-0.6,0-1.1,0.1-1.5,0.4s-0.8,0.6-1.1,1c-0.3,0.4-0.4,0.9-0.4,1.5
	c0,0.5,0.1,1,0.4,1.5c0.3,0.4,0.6,0.8,1.1,1s1,0.4,1.5,0.4c0.7,0,1.3-0.2,1.8-0.5V193.9z"/>
<path class="st5" d="M418.1,197.4l-1.6-2.3c-0.2,0-0.4,0-0.6,0H414v2.2h-0.7v-7h2.6c0.9,0,1.6,0.2,2.1,0.6c0.5,0.4,0.8,1,0.8,1.8
	c0,0.5-0.1,1-0.4,1.4c-0.3,0.4-0.7,0.6-1.2,0.8l1.7,2.4H418.1z M417.5,194.1c0.4-0.3,0.5-0.7,0.5-1.3c0-0.6-0.2-1-0.5-1.3
	c-0.4-0.3-0.9-0.5-1.6-0.5H414v3.5h1.9C416.6,194.6,417.1,194.4,417.5,194.1z"/>
<path class="st5" d="M421.2,196.7c-0.5-0.5-0.8-1.3-0.8-2.3v-4h0.7v4c0,0.8,0.2,1.4,0.5,1.8c0.4,0.4,0.9,0.6,1.6,0.6
	c0.7,0,1.2-0.2,1.6-0.6c0.4-0.4,0.6-1,0.6-1.8v-4h0.7v4c0,1-0.3,1.8-0.8,2.3c-0.5,0.5-1.2,0.8-2.1,0.8S421.7,197.2,421.2,196.7z"/>
<path class="st5" d="M433.2,191c0.5,0.4,0.8,1,0.8,1.8s-0.3,1.3-0.8,1.8c-0.5,0.4-1.2,0.6-2.1,0.6h-1.9v2.2h-0.7v-7h2.6
	C432,190.4,432.7,190.6,433.2,191z M432.6,194.1c0.4-0.3,0.5-0.7,0.5-1.3c0-0.6-0.2-1-0.5-1.3c-0.4-0.3-0.9-0.5-1.6-0.5h-1.9v3.5
	h1.9C431.8,194.5,432.3,194.4,432.6,194.1z"/>
<path class="st5" d="M436.8,197c-0.6-0.3-1-0.7-1.3-1.3s-0.5-1.1-0.5-1.8s0.2-1.3,0.5-1.8s0.8-1,1.3-1.3c0.6-0.3,1.2-0.5,1.9-0.5
	s1.3,0.2,1.9,0.5s1,0.7,1.3,1.3c0.3,0.5,0.5,1.2,0.5,1.8s-0.2,1.3-0.5,1.8c-0.3,0.5-0.8,1-1.3,1.3s-1.2,0.5-1.9,0.5
	S437.4,197.3,436.8,197z M440.2,196.4c0.4-0.3,0.8-0.6,1-1c0.3-0.4,0.4-0.9,0.4-1.5c0-0.5-0.1-1-0.4-1.5c-0.3-0.4-0.6-0.8-1-1
	c-0.4-0.3-0.9-0.4-1.5-0.4c-0.6,0-1.1,0.1-1.5,0.4c-0.5,0.3-0.8,0.6-1.1,1s-0.4,0.9-0.4,1.5c0,0.5,0.1,1,0.4,1.5s0.6,0.8,1.1,1
	c0.4,0.3,1,0.4,1.5,0.4C439.2,196.8,439.7,196.7,440.2,196.4z"/>
<path class="st5" d="M444.5,197.2c-0.5-0.2-0.8-0.4-1.1-0.7l0.3-0.6c0.3,0.3,0.6,0.5,1,0.6c0.4,0.2,0.9,0.2,1.3,0.2
	c0.6,0,1.1-0.1,1.4-0.3c0.3-0.2,0.5-0.5,0.5-0.9c0-0.3-0.1-0.5-0.3-0.7s-0.4-0.3-0.6-0.4c-0.2-0.1-0.6-0.2-1-0.3
	c-0.5-0.1-0.9-0.3-1.3-0.4s-0.6-0.3-0.8-0.6c-0.2-0.3-0.3-0.6-0.3-1c0-0.4,0.1-0.7,0.3-1s0.5-0.5,0.9-0.7s0.9-0.3,1.4-0.3
	c0.4,0,0.8,0.1,1.2,0.2c0.4,0.1,0.7,0.3,1,0.5l-0.3,0.6c-0.3-0.2-0.6-0.3-0.9-0.4c-0.3-0.1-0.7-0.1-1-0.1c-0.6,0-1.1,0.1-1.4,0.4
	c-0.3,0.2-0.5,0.5-0.5,0.9c0,0.3,0.1,0.5,0.3,0.7s0.4,0.3,0.6,0.4c0.3,0.1,0.6,0.2,1,0.3c0.5,0.1,0.9,0.3,1.2,0.4
	c0.3,0.1,0.6,0.3,0.8,0.6c0.2,0.3,0.3,0.6,0.3,1c0,0.4-0.1,0.7-0.3,1c-0.2,0.3-0.5,0.5-0.9,0.7c-0.4,0.2-0.9,0.3-1.4,0.3
	C445.4,197.5,444.9,197.4,444.5,197.2z"/>
<path class="st5" d="M395.1,211c-0.6-0.3-1-0.7-1.3-1.3s-0.5-1.2-0.5-1.8s0.2-1.3,0.5-1.8c0.3-0.5,0.8-1,1.3-1.3
	c0.6-0.3,1.2-0.5,1.9-0.5c0.5,0,1,0.1,1.4,0.3c0.4,0.2,0.8,0.4,1.1,0.8l-0.5,0.5c-0.5-0.6-1.2-0.8-2.1-0.8c-0.6,0-1.1,0.1-1.5,0.4
	c-0.5,0.3-0.8,0.6-1.1,1s-0.4,0.9-0.4,1.5c0,0.5,0.1,1,0.4,1.5s0.6,0.8,1.1,1c0.5,0.3,1,0.4,1.5,0.4c0.8,0,1.5-0.3,2.1-0.8l0.5,0.5
	c-0.3,0.3-0.7,0.6-1.1,0.8c-0.4,0.2-0.9,0.3-1.4,0.3C396.3,211.5,395.7,211.3,395.1,211z"/>
<path class="st5" d="M405.5,209.5h-3.9l-0.8,1.9H400l3.2-7h0.7l3.2,7h-0.8L405.5,209.5z M405.3,208.9l-1.7-3.8l-1.7,3.8H405.3z"/>
<path class="st5" d="M415.6,204.4v7h-0.7v-5.6l-2.8,4.7h-0.4l-2.8-4.7v5.6h-0.7v-7h0.6l3,5.2l3-5.2H415.6z"/>
<path class="st5" d="M422.6,205c0.5,0.4,0.8,1,0.8,1.8s-0.3,1.3-0.8,1.8c-0.5,0.4-1.2,0.6-2.1,0.6h-1.9v2.2h-0.7v-7h2.6
	C421.4,204.4,422.1,204.6,422.6,205z M422.1,208.1c0.4-0.3,0.5-0.7,0.5-1.3c0-0.6-0.2-1-0.5-1.3c-0.4-0.3-0.9-0.5-1.6-0.5h-1.9v3.5
	h1.9C421.2,208.5,421.7,208.4,422.1,208.1z"/>
<path class="st5" d="M429.4,209.5h-3.9l-0.8,1.9h-0.8l3.2-7h0.7l3.2,7h-0.8L429.4,209.5z M429.2,208.9l-1.7-3.8l-1.7,3.8H429.2z"/>
<path class="st5" d="M438.1,204.4v7h-0.6l-4.5-5.7v5.7h-0.7v-7h0.6l4.5,5.7v-5.7H438.1z"/>
<path class="st5" d="M446.2,204.4v7h-0.7v-3.2h-4.4v3.2h-0.7v-7h0.7v3.1h4.4v-3.1H446.2z"/>
<path class="st5" d="M452.9,209.5H449l-0.8,1.9h-0.8l3.2-7h0.7l3.2,7h-0.8L452.9,209.5z M452.6,208.9l-1.7-3.8l-1.7,3.8H452.6z"/>
<path class="st5" d="M456.1,211.2c-0.5-0.2-0.8-0.4-1.1-0.7l0.3-0.6c0.3,0.3,0.6,0.5,1,0.6c0.4,0.2,0.9,0.2,1.3,0.2
	c0.6,0,1.1-0.1,1.4-0.3c0.3-0.2,0.5-0.5,0.5-0.9c0-0.3-0.1-0.5-0.3-0.7s-0.4-0.3-0.6-0.4c-0.2-0.1-0.6-0.2-1-0.3
	c-0.5-0.1-0.9-0.3-1.3-0.4s-0.6-0.3-0.8-0.6c-0.2-0.3-0.3-0.6-0.3-1c0-0.4,0.1-0.7,0.3-1s0.5-0.5,0.9-0.7s0.9-0.3,1.4-0.3
	c0.4,0,0.8,0.1,1.2,0.2c0.4,0.1,0.7,0.3,1,0.5l-0.3,0.6c-0.3-0.2-0.6-0.3-0.9-0.4c-0.3-0.1-0.7-0.1-1-0.1c-0.6,0-1.1,0.1-1.4,0.4
	c-0.3,0.2-0.5,0.5-0.5,0.9c0,0.3,0.1,0.5,0.3,0.7s0.4,0.3,0.6,0.4c0.3,0.1,0.6,0.2,1,0.3c0.5,0.1,0.9,0.3,1.2,0.4
	c0.3,0.1,0.6,0.3,0.8,0.6c0.2,0.3,0.3,0.6,0.3,1c0,0.4-0.1,0.7-0.3,1c-0.2,0.3-0.5,0.5-0.9,0.7c-0.4,0.2-0.9,0.3-1.4,0.3
	C457.1,211.5,456.6,211.4,456.1,211.2z"/>
<path class="st5" d="M418.6,222.4c0.3,0.3,0.4,0.7,0.4,1.1c0,0.6-0.2,1.1-0.7,1.4s-1.1,0.5-2,0.5h-3.2v-7h3c0.8,0,1.4,0.2,1.8,0.5
	c0.4,0.3,0.6,0.8,0.6,1.3c0,0.4-0.1,0.7-0.3,1s-0.5,0.5-0.8,0.6C418,221.9,418.3,222.1,418.6,222.4z M413.8,219v2.5h2.2
	c0.6,0,1-0.1,1.3-0.3c0.3-0.2,0.5-0.5,0.5-0.9c0-0.4-0.2-0.7-0.5-0.9s-0.7-0.3-1.3-0.3H413.8z M417.7,224.5c0.3-0.2,0.5-0.5,0.5-1
	c0-0.9-0.6-1.3-1.9-1.3h-2.5v2.6h2.5C416.9,224.8,417.4,224.7,417.7,224.5z"/>
<path class="st5" d="M420.6,218.4h0.7v6.4h3.9v0.6h-4.7V218.4z"/>
<path class="st5" d="M427.7,225c-0.6-0.3-1-0.7-1.3-1.3s-0.5-1.1-0.5-1.8s0.2-1.3,0.5-1.8s0.8-1,1.3-1.3c0.6-0.3,1.2-0.5,1.9-0.5
	s1.3,0.2,1.9,0.5s1,0.7,1.3,1.3c0.3,0.5,0.5,1.2,0.5,1.8s-0.2,1.3-0.5,1.8c-0.3,0.5-0.8,1-1.3,1.3s-1.2,0.5-1.9,0.5
	S428.3,225.3,427.7,225z M431.1,224.4c0.4-0.3,0.8-0.6,1-1c0.3-0.4,0.4-0.9,0.4-1.5c0-0.5-0.1-1-0.4-1.5c-0.3-0.4-0.6-0.8-1-1
	c-0.4-0.3-0.9-0.4-1.5-0.4c-0.6,0-1.1,0.1-1.5,0.4c-0.5,0.3-0.8,0.6-1.1,1s-0.4,0.9-0.4,1.5c0,0.5,0.1,1,0.4,1.5s0.6,0.8,1.1,1
	c0.4,0.3,1,0.4,1.5,0.4C430.1,224.8,430.6,224.7,431.1,224.4z"/>
<path class="st5" d="M439.9,221.9h0.7v2.7c-0.3,0.3-0.7,0.5-1.2,0.7c-0.4,0.2-0.9,0.2-1.4,0.2c-0.7,0-1.3-0.2-1.9-0.5
	c-0.6-0.3-1-0.7-1.3-1.3s-0.5-1.2-0.5-1.8s0.2-1.3,0.5-1.8c0.3-0.5,0.8-1,1.3-1.3c0.6-0.3,1.2-0.5,1.9-0.5c0.5,0,1,0.1,1.5,0.3
	c0.4,0.2,0.8,0.4,1.1,0.8l-0.5,0.5c-0.6-0.5-1.3-0.8-2.1-0.8c-0.6,0-1.1,0.1-1.5,0.4s-0.8,0.6-1.1,1c-0.3,0.4-0.4,0.9-0.4,1.5
	c0,0.5,0.1,1,0.4,1.5c0.3,0.4,0.6,0.8,1.1,1s1,0.4,1.5,0.4c0.7,0,1.3-0.2,1.8-0.5V221.9z"/>
<path class="st5" d="M361.3,237.5h-3.9l-0.8,1.9h-0.8l3.2-7h0.7l3.2,7h-0.8L361.3,237.5z M361,236.9l-1.7-3.8l-1.7,3.8H361z"/>
<path class="st5" d="M364.1,232.4h0.7v6.4h3.9v0.6h-4.7V232.4z"/>
<path class="st5" d="M374.9,235.9h0.7v2.7c-0.3,0.3-0.7,0.5-1.2,0.7c-0.4,0.2-0.9,0.2-1.4,0.2c-0.7,0-1.3-0.2-1.9-0.5
	c-0.6-0.3-1-0.7-1.3-1.3s-0.5-1.2-0.5-1.8s0.2-1.3,0.5-1.8c0.3-0.5,0.8-1,1.3-1.3c0.6-0.3,1.2-0.5,1.9-0.5c0.5,0,1,0.1,1.5,0.3
	c0.4,0.2,0.8,0.4,1.1,0.8l-0.5,0.5c-0.6-0.5-1.3-0.8-2.1-0.8c-0.6,0-1.1,0.1-1.5,0.4s-0.8,0.6-1.1,1c-0.3,0.4-0.4,0.9-0.4,1.5
	c0,0.5,0.1,1,0.4,1.5c0.3,0.4,0.6,0.8,1.1,1s1,0.4,1.5,0.4c0.7,0,1.3-0.2,1.8-0.5V235.9z"/>
<path class="st5" d="M378.9,239c-0.6-0.3-1-0.7-1.3-1.3s-0.5-1.1-0.5-1.8s0.2-1.3,0.5-1.8s0.8-1,1.3-1.3c0.6-0.3,1.2-0.5,1.9-0.5
	s1.3,0.2,1.9,0.5s1,0.7,1.3,1.3c0.3,0.5,0.5,1.2,0.5,1.8s-0.2,1.3-0.5,1.8c-0.3,0.5-0.8,1-1.3,1.3s-1.2,0.5-1.9,0.5
	S379.4,239.3,378.9,239z M382.2,238.4c0.4-0.3,0.8-0.6,1-1c0.3-0.4,0.4-0.9,0.4-1.5c0-0.5-0.1-1-0.4-1.5c-0.3-0.4-0.6-0.8-1-1
	c-0.4-0.3-0.9-0.4-1.5-0.4c-0.6,0-1.1,0.1-1.5,0.4c-0.5,0.3-0.8,0.6-1.1,1s-0.4,0.9-0.4,1.5c0,0.5,0.1,1,0.4,1.5s0.6,0.8,1.1,1
	c0.4,0.3,1,0.4,1.5,0.4C381.3,238.8,381.8,238.7,382.2,238.4z"/>
<path class="st5" d="M390.9,239.4l-1.6-2.3c-0.2,0-0.4,0-0.6,0h-1.9v2.2h-0.7v-7h2.6c0.9,0,1.6,0.2,2.1,0.6c0.5,0.4,0.8,1,0.8,1.8
	c0,0.5-0.1,1-0.4,1.4c-0.3,0.4-0.7,0.6-1.2,0.8l1.7,2.4H390.9z M390.3,236.1c0.4-0.3,0.5-0.7,0.5-1.3c0-0.6-0.2-1-0.5-1.3
	c-0.4-0.3-0.9-0.5-1.6-0.5h-1.9v3.5h1.9C389.4,236.6,389.9,236.4,390.3,236.1z"/>
<path class="st5" d="M393.3,232.4h0.7v7h-0.7V232.4z"/>
<path class="st5" d="M397.7,233h-2.5v-0.6h5.7v0.6h-2.5v6.4h-0.7V233z"/>
<path class="st5" d="M409.3,232.4v7h-0.7v-5.6l-2.8,4.7h-0.4l-2.8-4.7v5.6h-0.7v-7h0.6l3,5.2l3-5.2H409.3z"/>
<path class="st5" d="M412.8,239c-0.6-0.3-1-0.7-1.3-1.3s-0.5-1.1-0.5-1.8s0.2-1.3,0.5-1.8s0.8-1,1.3-1.3c0.6-0.3,1.2-0.5,1.9-0.5
	s1.3,0.2,1.9,0.5s1,0.7,1.3,1.3c0.3,0.5,0.5,1.2,0.5,1.8s-0.2,1.3-0.5,1.8c-0.3,0.5-0.8,1-1.3,1.3s-1.2,0.5-1.9,0.5
	S413.3,239.3,412.8,239z M416.2,238.4c0.4-0.3,0.8-0.6,1-1c0.3-0.4,0.4-0.9,0.4-1.5c0-0.5-0.1-1-0.4-1.5c-0.3-0.4-0.6-0.8-1-1
	c-0.4-0.3-0.9-0.4-1.5-0.4c-0.6,0-1.1,0.1-1.5,0.4c-0.5,0.3-0.8,0.6-1.1,1s-0.4,0.9-0.4,1.5c0,0.5,0.1,1,0.4,1.5s0.6,0.8,1.1,1
	c0.4,0.3,1,0.4,1.5,0.4C415.2,238.8,415.7,238.7,416.2,238.4z"/>
<path class="st5" d="M420.4,239.2c-0.5-0.2-0.8-0.4-1.1-0.7l0.3-0.6c0.3,0.3,0.6,0.5,1,0.6c0.4,0.2,0.9,0.2,1.3,0.2
	c0.6,0,1.1-0.1,1.4-0.3c0.3-0.2,0.5-0.5,0.5-0.9c0-0.3-0.1-0.5-0.3-0.7s-0.4-0.3-0.6-0.4c-0.2-0.1-0.6-0.2-1-0.3
	c-0.5-0.1-0.9-0.3-1.3-0.4s-0.6-0.3-0.8-0.6c-0.2-0.3-0.3-0.6-0.3-1c0-0.4,0.1-0.7,0.3-1s0.5-0.5,0.9-0.7s0.9-0.3,1.4-0.3
	c0.4,0,0.8,0.1,1.2,0.2c0.4,0.1,0.7,0.3,1,0.5l-0.3,0.6c-0.3-0.2-0.6-0.3-0.9-0.4c-0.3-0.1-0.7-0.1-1-0.1c-0.6,0-1.1,0.1-1.4,0.4
	c-0.3,0.2-0.5,0.5-0.5,0.9c0,0.3,0.1,0.5,0.3,0.7s0.4,0.3,0.6,0.4c0.3,0.1,0.6,0.2,1,0.3c0.5,0.1,0.9,0.3,1.2,0.4
	c0.3,0.1,0.6,0.3,0.8,0.6c0.2,0.3,0.3,0.6,0.3,1c0,0.4-0.1,0.7-0.3,1c-0.2,0.3-0.5,0.5-0.9,0.7c-0.4,0.2-0.9,0.3-1.4,0.3
	C421.4,239.5,420.9,239.4,420.4,239.2z"/>
<path class="st5" d="M428.8,232.4h2.9c0.7,0,1.4,0.1,2,0.4c0.6,0.3,1,0.7,1.3,1.2c0.3,0.5,0.5,1.1,0.5,1.8s-0.2,1.3-0.5,1.8
	c-0.3,0.5-0.8,0.9-1.3,1.2c-0.6,0.3-1.2,0.4-2,0.4h-2.9V232.4z M431.6,238.8c0.6,0,1.1-0.1,1.6-0.4s0.8-0.6,1.1-1
	c0.3-0.4,0.4-0.9,0.4-1.5s-0.1-1.1-0.4-1.5c-0.3-0.4-0.6-0.8-1.1-1c-0.5-0.2-1-0.4-1.6-0.4h-2.1v5.7H431.6z"/>
<path class="st5" d="M442,238.8v0.6h-5v-7h4.8v0.6h-4.1v2.5h3.6v0.6h-3.6v2.6H442z"/>
<path class="st5" d="M447.5,239c-0.6-0.3-1-0.7-1.3-1.3s-0.5-1.2-0.5-1.8s0.2-1.3,0.5-1.8c0.3-0.5,0.8-1,1.3-1.3
	c0.6-0.3,1.2-0.5,1.9-0.5c0.5,0,1,0.1,1.4,0.3c0.4,0.2,0.8,0.4,1.1,0.8l-0.5,0.5c-0.5-0.6-1.2-0.8-2.1-0.8c-0.6,0-1.1,0.1-1.5,0.4
	c-0.5,0.3-0.8,0.6-1.1,1s-0.4,0.9-0.4,1.5c0,0.5,0.1,1,0.4,1.5s0.6,0.8,1.1,1c0.5,0.3,1,0.4,1.5,0.4c0.8,0,1.5-0.3,2.1-0.8l0.5,0.5
	c-0.3,0.3-0.7,0.6-1.1,0.8c-0.4,0.2-0.9,0.3-1.4,0.3C448.7,239.5,448.1,239.3,447.5,239z"/>
<path class="st5" d="M454.7,239c-0.6-0.3-1-0.7-1.3-1.3s-0.5-1.1-0.5-1.8s0.2-1.3,0.5-1.8s0.8-1,1.3-1.3c0.6-0.3,1.2-0.5,1.9-0.5
	s1.3,0.2,1.9,0.5s1,0.7,1.3,1.3c0.3,0.5,0.5,1.2,0.5,1.8s-0.2,1.3-0.5,1.8c-0.3,0.5-0.8,1-1.3,1.3s-1.2,0.5-1.9,0.5
	S455.3,239.3,454.7,239z M458.1,238.4c0.4-0.3,0.8-0.6,1-1c0.3-0.4,0.4-0.9,0.4-1.5c0-0.5-0.1-1-0.4-1.5c-0.3-0.4-0.6-0.8-1-1
	c-0.4-0.3-0.9-0.4-1.5-0.4c-0.6,0-1.1,0.1-1.5,0.4c-0.5,0.3-0.8,0.6-1.1,1s-0.4,0.9-0.4,1.5c0,0.5,0.1,1,0.4,1.5s0.6,0.8,1.1,1
	c0.4,0.3,1,0.4,1.5,0.4C457.1,238.8,457.6,238.7,458.1,238.4z"/>
<path class="st5" d="M467.8,232.4v7h-0.6l-4.5-5.7v5.7h-0.7v-7h0.6l4.5,5.7v-5.7H467.8z"/>
<path class="st5" d="M475,238.8v0.6h-5v-7h4.8v0.6h-4.1v2.5h3.6v0.6h-3.6v2.6H475z"/>
<path class="st5" d="M481.1,239.4l-2.3-3.1l-2.3,3.1h-0.8l2.7-3.6l-2.5-3.4h0.9l2.1,2.9l2.1-2.9h0.8l-2.5,3.4l2.7,3.6H481.1z"/>
<path class="st5" d="M487.7,237.5h-3.9l-0.8,1.9h-0.8l3.2-7h0.7l3.2,7h-0.8L487.7,237.5z M487.4,236.9l-1.7-3.8l-1.7,3.8H487.4z
	 M486,231.7c-0.1-0.1-0.3-0.2-0.4-0.3c-0.1-0.1-0.2-0.2-0.3-0.2c-0.1,0-0.1-0.1-0.2-0.1c-0.2,0-0.3,0.1-0.4,0.2
	c-0.1,0.1-0.1,0.3-0.1,0.5h-0.4c0-0.3,0.1-0.6,0.3-0.8c0.2-0.2,0.4-0.3,0.6-0.3c0.2,0,0.3,0,0.4,0.1c0.1,0.1,0.3,0.2,0.4,0.3
	c0.1,0.1,0.2,0.2,0.3,0.2c0.1,0,0.1,0.1,0.2,0.1c0.1,0,0.3-0.1,0.4-0.2c0.1-0.1,0.1-0.3,0.2-0.5h0.4c0,0.3-0.1,0.6-0.3,0.8
	c-0.2,0.2-0.4,0.3-0.6,0.3C486.3,231.8,486.1,231.7,486,231.7z"/>
<path class="st5" d="M491.6,239c-0.6-0.3-1-0.7-1.3-1.3s-0.5-1.1-0.5-1.8s0.2-1.3,0.5-1.8s0.8-1,1.3-1.3c0.6-0.3,1.2-0.5,1.9-0.5
	s1.3,0.2,1.9,0.5s1,0.7,1.3,1.3c0.3,0.5,0.5,1.2,0.5,1.8s-0.2,1.3-0.5,1.8c-0.3,0.5-0.8,1-1.3,1.3s-1.2,0.5-1.9,0.5
	S492.2,239.3,491.6,239z M495,238.4c0.4-0.3,0.8-0.6,1-1c0.3-0.4,0.4-0.9,0.4-1.5c0-0.5-0.1-1-0.4-1.5c-0.3-0.4-0.6-0.8-1-1
	c-0.4-0.3-0.9-0.4-1.5-0.4c-0.6,0-1.1,0.1-1.5,0.4c-0.5,0.3-0.8,0.6-1.1,1s-0.4,0.9-0.4,1.5c0,0.5,0.1,1,0.4,1.5s0.6,0.8,1.1,1
	c0.4,0.3,1,0.4,1.5,0.4C494.1,238.8,494.6,238.7,495,238.4z"/>
<path class="st5" d="M153.1,166.4h0.7v6.4h3.9v0.6h-4.7V166.4z"/>
<path class="st5" d="M160.1,173c-0.6-0.3-1-0.7-1.3-1.3c-0.3-0.5-0.5-1.1-0.5-1.8s0.2-1.3,0.5-1.8c0.3-0.5,0.8-1,1.3-1.3
	c0.6-0.3,1.2-0.5,1.9-0.5c0.7,0,1.3,0.2,1.9,0.5c0.6,0.3,1,0.7,1.3,1.3c0.3,0.5,0.5,1.2,0.5,1.8s-0.2,1.3-0.5,1.8
	c-0.3,0.5-0.8,1-1.3,1.3c-0.6,0.3-1.2,0.5-1.9,0.5C161.3,173.5,160.7,173.3,160.1,173z M163.5,172.4c0.4-0.3,0.8-0.6,1-1
	s0.4-0.9,0.4-1.5c0-0.5-0.1-1-0.4-1.5s-0.6-0.8-1-1c-0.4-0.3-0.9-0.4-1.5-0.4c-0.6,0-1.1,0.1-1.5,0.4c-0.4,0.3-0.8,0.6-1.1,1
	c-0.3,0.4-0.4,0.9-0.4,1.5c0,0.5,0.1,1,0.4,1.5c0.3,0.4,0.6,0.8,1.1,1c0.5,0.3,1,0.4,1.5,0.4C162.6,172.8,163.1,172.7,163.5,172.4z"
	/>
<path class="st5" d="M167,173.2c-0.3-0.2-0.6-0.4-0.8-0.7l0.4-0.5c0.4,0.6,0.9,0.9,1.5,0.9c0.9,0,1.3-0.5,1.3-1.5V167h-2.6v-0.6h3.3
	v4.9c0,0.7-0.2,1.3-0.5,1.7s-0.9,0.6-1.5,0.6C167.7,173.5,167.3,173.4,167,173.2z"/>
<path class="st5" d="M176.8,171.5h-3.9l-0.8,1.9h-0.8l3.2-7h0.7l3.2,7h-0.8L176.8,171.5z M176.5,170.9l-1.7-3.8l-1.7,3.8H176.5z"/>
<path class="st5" d="M183.3,173c-0.6-0.3-1-0.7-1.3-1.3c-0.3-0.5-0.5-1.1-0.5-1.8s0.2-1.3,0.5-1.8c0.3-0.5,0.8-1,1.3-1.3
	c0.6-0.3,1.2-0.5,1.9-0.5c0.7,0,1.3,0.2,1.9,0.5c0.6,0.3,1,0.7,1.3,1.3c0.3,0.5,0.5,1.2,0.5,1.8s-0.2,1.3-0.5,1.8
	c-0.3,0.5-0.8,1-1.3,1.3c-0.6,0.3-1.2,0.5-1.9,0.5C184.5,173.5,183.9,173.3,183.3,173z M186.7,172.4c0.4-0.3,0.8-0.6,1-1
	s0.4-0.9,0.4-1.5c0-0.5-0.1-1-0.4-1.5s-0.6-0.8-1-1c-0.4-0.3-0.9-0.4-1.5-0.4c-0.6,0-1.1,0.1-1.5,0.4c-0.4,0.3-0.8,0.6-1.1,1
	c-0.3,0.4-0.4,0.9-0.4,1.5c0,0.5,0.1,1,0.4,1.5c0.3,0.4,0.6,0.8,1.1,1c0.5,0.3,1,0.4,1.5,0.4C185.8,172.8,186.3,172.7,186.7,172.4z"
	/>
<path class="st5" d="M196.4,166.4v7h-0.6l-4.5-5.7v5.7h-0.7v-7h0.6l4.5,5.7v-5.7H196.4z"/>
<path class="st5" d="M198.7,166.4h0.7v6.4h3.9v0.6h-4.7V166.4z"/>
<path class="st5" d="M204.6,166.4h0.7v7h-0.7V166.4z"/>
<path class="st5" d="M213.4,166.4v7h-0.6l-4.5-5.7v5.7h-0.7v-7h0.6l4.5,5.7v-5.7H213.4z"/>
<path class="st5" d="M220.7,172.8v0.6h-4.9v-7h4.8v0.6h-4.1v2.5h3.6v0.6h-3.6v2.6H220.7z"/>
<path class="st5" d="M145.4,187c-0.6-0.3-1-0.7-1.3-1.3c-0.3-0.5-0.5-1.2-0.5-1.8s0.2-1.3,0.5-1.8c0.3-0.5,0.8-1,1.3-1.3
	s1.2-0.5,1.9-0.5c0.5,0,1,0.1,1.4,0.3s0.8,0.4,1.1,0.8l-0.5,0.5c-0.5-0.6-1.2-0.8-2.1-0.8c-0.6,0-1.1,0.1-1.5,0.4
	c-0.5,0.3-0.8,0.6-1.1,1c-0.3,0.4-0.4,0.9-0.4,1.5c0,0.5,0.1,1,0.4,1.5c0.3,0.4,0.6,0.8,1.1,1c0.5,0.3,1,0.4,1.5,0.4
	c0.8,0,1.5-0.3,2.1-0.8l0.5,0.5c-0.3,0.3-0.7,0.6-1.1,0.8c-0.4,0.2-0.9,0.3-1.4,0.3C146.6,187.5,145.9,187.3,145.4,187z"/>
<path class="st5" d="M152.6,187c-0.6-0.3-1-0.7-1.3-1.3c-0.3-0.5-0.5-1.1-0.5-1.8s0.2-1.3,0.5-1.8c0.3-0.5,0.8-1,1.3-1.3
	c0.6-0.3,1.2-0.5,1.9-0.5c0.7,0,1.3,0.2,1.9,0.5c0.6,0.3,1,0.7,1.3,1.3c0.3,0.5,0.5,1.2,0.5,1.8s-0.2,1.3-0.5,1.8
	c-0.3,0.5-0.8,1-1.3,1.3c-0.6,0.3-1.2,0.5-1.9,0.5C153.8,187.5,153.1,187.3,152.6,187z M156,186.4c0.4-0.3,0.8-0.6,1-1
	s0.4-0.9,0.4-1.5c0-0.5-0.1-1-0.4-1.5s-0.6-0.8-1-1c-0.4-0.3-0.9-0.4-1.5-0.4c-0.6,0-1.1,0.1-1.5,0.4c-0.4,0.3-0.8,0.6-1.1,1
	c-0.3,0.4-0.4,0.9-0.4,1.5c0,0.5,0.1,1,0.4,1.5c0.3,0.4,0.6,0.8,1.1,1c0.5,0.3,1,0.4,1.5,0.4C155,186.8,155.5,186.7,156,186.4z"/>
<path class="st5" d="M165.6,180.4v7H165l-4.5-5.7v5.7h-0.7v-7h0.6l4.5,5.7v-5.7H165.6z"/>
<path class="st5" d="M168.4,187.2c-0.5-0.2-0.8-0.4-1.1-0.7l0.3-0.6c0.3,0.3,0.6,0.5,1,0.6c0.4,0.2,0.9,0.2,1.3,0.2
	c0.6,0,1.1-0.1,1.4-0.3s0.5-0.5,0.5-0.9c0-0.3-0.1-0.5-0.3-0.7c-0.2-0.2-0.4-0.3-0.6-0.4c-0.2-0.1-0.6-0.2-1-0.3
	c-0.5-0.1-0.9-0.3-1.3-0.4c-0.3-0.1-0.6-0.3-0.8-0.6c-0.2-0.3-0.3-0.6-0.3-1c0-0.4,0.1-0.7,0.3-1s0.5-0.5,0.9-0.7s0.9-0.3,1.4-0.3
	c0.4,0,0.8,0.1,1.2,0.2s0.7,0.3,1,0.5l-0.3,0.6c-0.3-0.2-0.6-0.3-0.9-0.4c-0.3-0.1-0.7-0.1-1-0.1c-0.6,0-1.1,0.1-1.4,0.4
	c-0.3,0.2-0.5,0.5-0.5,0.9c0,0.3,0.1,0.5,0.3,0.7s0.4,0.3,0.6,0.4c0.3,0.1,0.6,0.2,1,0.3c0.5,0.1,0.9,0.3,1.2,0.4
	c0.3,0.1,0.6,0.3,0.8,0.6c0.2,0.3,0.3,0.6,0.3,1c0,0.4-0.1,0.7-0.3,1c-0.2,0.3-0.5,0.5-0.9,0.7c-0.4,0.2-0.9,0.3-1.5,0.3
	C169.3,187.5,168.8,187.4,168.4,187.2z"/>
<path class="st5" d="M174.8,186.7c-0.5-0.5-0.8-1.3-0.8-2.3v-4h0.7v4c0,0.8,0.2,1.4,0.6,1.8c0.4,0.4,0.9,0.6,1.6,0.6
	c0.7,0,1.2-0.2,1.6-0.6c0.4-0.4,0.5-1,0.5-1.8v-4h0.7v4c0,1-0.3,1.8-0.8,2.3c-0.5,0.5-1.2,0.8-2.1,0.8S175.3,187.2,174.8,186.7z"/>
<path class="st5" d="M189.3,180.4v7h-0.7v-5.6l-2.8,4.7h-0.4l-2.8-4.7v5.6H182v-7h0.6l3,5.2l3-5.2H189.3z"/>
<path class="st5" d="M191.5,180.4h0.7v7h-0.7V180.4z"/>
<path class="st5" d="M194.6,180.4h2.9c0.7,0,1.4,0.1,2,0.4c0.6,0.3,1,0.7,1.3,1.2c0.3,0.5,0.5,1.1,0.5,1.8s-0.2,1.3-0.5,1.8
	c-0.3,0.5-0.8,0.9-1.3,1.2c-0.6,0.3-1.2,0.4-2,0.4h-2.9V180.4z M197.4,186.8c0.6,0,1.1-0.1,1.6-0.4s0.8-0.6,1.1-1
	c0.3-0.4,0.4-0.9,0.4-1.5s-0.1-1.1-0.4-1.5c-0.3-0.4-0.6-0.8-1.1-1c-0.5-0.2-1-0.4-1.6-0.4h-2.1v5.7H197.4z"/>
<path class="st5" d="M204,187c-0.6-0.3-1-0.7-1.3-1.3c-0.3-0.5-0.5-1.1-0.5-1.8s0.2-1.3,0.5-1.8c0.3-0.5,0.8-1,1.3-1.3
	c0.6-0.3,1.2-0.5,1.9-0.5c0.7,0,1.3,0.2,1.9,0.5c0.6,0.3,1,0.7,1.3,1.3c0.3,0.5,0.5,1.2,0.5,1.8s-0.2,1.3-0.5,1.8
	c-0.3,0.5-0.8,1-1.3,1.3c-0.6,0.3-1.2,0.5-1.9,0.5C205.2,187.5,204.6,187.3,204,187z M207.4,186.4c0.4-0.3,0.8-0.6,1-1
	s0.4-0.9,0.4-1.5c0-0.5-0.1-1-0.4-1.5s-0.6-0.8-1-1c-0.4-0.3-0.9-0.4-1.5-0.4c-0.6,0-1.1,0.1-1.5,0.4c-0.4,0.3-0.8,0.6-1.1,1
	c-0.3,0.4-0.4,0.9-0.4,1.5c0,0.5,0.1,1,0.4,1.5c0.3,0.4,0.6,0.8,1.1,1c0.5,0.3,1,0.4,1.5,0.4C206.4,186.8,206.9,186.7,207.4,186.4z"
	/>
<path class="st5" d="M216,187.4l-1.6-2.3c-0.2,0-0.4,0-0.6,0H212v2.2h-0.7v-7h2.6c0.9,0,1.6,0.2,2.1,0.6c0.5,0.4,0.8,1,0.8,1.8
	c0,0.5-0.1,1-0.4,1.4c-0.3,0.4-0.7,0.6-1.2,0.8l1.7,2.4H216z M215.4,184.1c0.4-0.3,0.5-0.7,0.5-1.3c0-0.6-0.2-1-0.5-1.3
	c-0.4-0.3-0.9-0.5-1.6-0.5H212v3.5h1.9C214.5,184.6,215,184.4,215.4,184.1z"/>
<path class="st5" d="M223.4,186.8v0.6h-4.9v-7h4.8v0.6h-4.1v2.5h3.6v0.6h-3.6v2.6H223.4z"/>
<path class="st5" d="M225.6,187.2c-0.5-0.2-0.8-0.4-1.1-0.7l0.3-0.6c0.3,0.3,0.6,0.5,1,0.6c0.4,0.2,0.9,0.2,1.3,0.2
	c0.6,0,1.1-0.1,1.4-0.3s0.5-0.5,0.5-0.9c0-0.3-0.1-0.5-0.3-0.7c-0.2-0.2-0.4-0.3-0.6-0.4c-0.2-0.1-0.6-0.2-1-0.3
	c-0.5-0.1-0.9-0.3-1.3-0.4c-0.3-0.1-0.6-0.3-0.8-0.6c-0.2-0.3-0.3-0.6-0.3-1c0-0.4,0.1-0.7,0.3-1s0.5-0.5,0.9-0.7s0.9-0.3,1.4-0.3
	c0.4,0,0.8,0.1,1.2,0.2s0.7,0.3,1,0.5l-0.3,0.6c-0.3-0.2-0.6-0.3-0.9-0.4c-0.3-0.1-0.7-0.1-1-0.1c-0.6,0-1.1,0.1-1.4,0.4
	c-0.3,0.2-0.5,0.5-0.5,0.9c0,0.3,0.1,0.5,0.3,0.7s0.4,0.3,0.6,0.4c0.3,0.1,0.6,0.2,1,0.3c0.5,0.1,0.9,0.3,1.2,0.4
	c0.3,0.1,0.6,0.3,0.8,0.6c0.2,0.3,0.3,0.6,0.3,1c0,0.4-0.1,0.7-0.3,1c-0.2,0.3-0.5,0.5-0.9,0.7c-0.4,0.2-0.9,0.3-1.5,0.3
	C226.5,187.5,226,187.4,225.6,187.2z"/>
<path class="st5" d="M155.9,195c0.5,0.4,0.8,1,0.8,1.8s-0.3,1.3-0.8,1.8c-0.5,0.4-1.2,0.6-2.1,0.6h-1.9v2.2h-0.7v-7h2.6
	C154.7,194.4,155.4,194.6,155.9,195z M155.3,198.1c0.4-0.3,0.5-0.7,0.5-1.3c0-0.6-0.2-1-0.5-1.3c-0.4-0.3-0.9-0.5-1.6-0.5h-1.9v3.5
	h1.9C154.5,198.5,155,198.4,155.3,198.1z"/>
<path class="st5" d="M163.1,201.4l-1.6-2.3c-0.2,0-0.4,0-0.6,0h-1.9v2.2h-0.7v-7h2.6c0.9,0,1.6,0.2,2.1,0.6c0.5,0.4,0.8,1,0.8,1.8
	c0,0.5-0.1,1-0.4,1.4c-0.3,0.4-0.7,0.6-1.2,0.8l1.7,2.4H163.1z M162.5,198.1c0.4-0.3,0.5-0.7,0.5-1.3c0-0.6-0.2-1-0.5-1.3
	c-0.4-0.3-0.9-0.5-1.6-0.5h-1.9v3.5h1.9C161.6,198.6,162.2,198.4,162.5,198.1z"/>
<path class="st5" d="M166.7,201c-0.6-0.3-1-0.7-1.3-1.3c-0.3-0.5-0.5-1.1-0.5-1.8s0.2-1.3,0.5-1.8c0.3-0.5,0.8-1,1.3-1.3
	c0.6-0.3,1.2-0.5,1.9-0.5c0.7,0,1.3,0.2,1.9,0.5c0.6,0.3,1,0.7,1.3,1.3c0.3,0.5,0.5,1.2,0.5,1.8s-0.2,1.3-0.5,1.8
	c-0.3,0.5-0.8,1-1.3,1.3c-0.6,0.3-1.2,0.5-1.9,0.5C167.9,201.5,167.3,201.3,166.7,201z M170.1,200.4c0.4-0.3,0.8-0.6,1-1
	s0.4-0.9,0.4-1.5c0-0.5-0.1-1-0.4-1.5s-0.6-0.8-1-1c-0.4-0.3-0.9-0.4-1.5-0.4c-0.6,0-1.1,0.1-1.5,0.4c-0.4,0.3-0.8,0.6-1.1,1
	c-0.3,0.4-0.4,0.9-0.4,1.5c0,0.5,0.1,1,0.4,1.5c0.3,0.4,0.6,0.8,1.1,1c0.5,0.3,1,0.4,1.5,0.4C169.2,200.8,169.7,200.7,170.1,200.4z"
	/>
<path class="st5" d="M174,194.4h2.9c0.7,0,1.4,0.1,2,0.4c0.6,0.3,1,0.7,1.3,1.2c0.3,0.5,0.5,1.1,0.5,1.8s-0.2,1.3-0.5,1.8
	c-0.3,0.5-0.8,0.9-1.3,1.2c-0.6,0.3-1.2,0.4-2,0.4H174V194.4z M176.8,200.8c0.6,0,1.1-0.1,1.6-0.4s0.8-0.6,1.1-1
	c0.3-0.4,0.4-0.9,0.4-1.5s-0.1-1.1-0.4-1.5c-0.3-0.4-0.6-0.8-1.1-1c-0.5-0.2-1-0.4-1.6-0.4h-2.1v5.7H176.8z"/>
<path class="st5" d="M182.9,200.7c-0.5-0.5-0.8-1.3-0.8-2.3v-4h0.7v4c0,0.8,0.2,1.4,0.6,1.8c0.4,0.4,0.9,0.6,1.6,0.6
	c0.7,0,1.2-0.2,1.6-0.6c0.4-0.4,0.5-1,0.5-1.8v-4h0.7v4c0,1-0.3,1.8-0.8,2.3c-0.5,0.5-1.2,0.8-2.1,0.8S183.4,201.2,182.9,200.7z"/>
<path class="st5" d="M191.5,195H189v-0.6h5.7v0.6h-2.5v6.4h-0.7V195z"/>
<path class="st5" d="M197.1,201c-0.6-0.3-1-0.7-1.3-1.3c-0.3-0.5-0.5-1.1-0.5-1.8s0.2-1.3,0.5-1.8c0.3-0.5,0.8-1,1.3-1.3
	c0.6-0.3,1.2-0.5,1.9-0.5c0.7,0,1.3,0.2,1.9,0.5c0.6,0.3,1,0.7,1.3,1.3c0.3,0.5,0.5,1.2,0.5,1.8s-0.2,1.3-0.5,1.8
	c-0.3,0.5-0.8,1-1.3,1.3c-0.6,0.3-1.2,0.5-1.9,0.5C198.2,201.5,197.6,201.3,197.1,201z M200.4,200.4c0.4-0.3,0.8-0.6,1-1
	s0.4-0.9,0.4-1.5c0-0.5-0.1-1-0.4-1.5s-0.6-0.8-1-1c-0.4-0.3-0.9-0.4-1.5-0.4c-0.6,0-1.1,0.1-1.5,0.4c-0.4,0.3-0.8,0.6-1.1,1
	c-0.3,0.4-0.4,0.9-0.4,1.5c0,0.5,0.1,1,0.4,1.5c0.3,0.4,0.6,0.8,1.1,1c0.5,0.3,1,0.4,1.5,0.4C199.5,200.8,200,200.7,200.4,200.4z"/>
<path class="st5" d="M209,201.4l-1.6-2.3c-0.2,0-0.4,0-0.6,0H205v2.2h-0.7v-7h2.6c0.9,0,1.6,0.2,2.1,0.6c0.5,0.4,0.8,1,0.8,1.8
	c0,0.5-0.1,1-0.4,1.4c-0.3,0.4-0.7,0.6-1.2,0.8l1.7,2.4H209z M208.5,198.1c0.4-0.3,0.5-0.7,0.5-1.3c0-0.6-0.2-1-0.5-1.3
	c-0.4-0.3-0.9-0.5-1.6-0.5H205v3.5h1.9C207.6,198.6,208.1,198.4,208.5,198.1z"/>
<path class="st5" d="M216.4,200.8v0.6h-4.9v-7h4.8v0.6h-4.1v2.5h3.6v0.6h-3.6v2.6H216.4z"/>
<path class="st5" d="M218.6,201.2c-0.5-0.2-0.8-0.4-1.1-0.7l0.3-0.6c0.3,0.3,0.6,0.5,1,0.6c0.4,0.2,0.9,0.2,1.3,0.2
	c0.6,0,1.1-0.1,1.4-0.3s0.5-0.5,0.5-0.9c0-0.3-0.1-0.5-0.3-0.7c-0.2-0.2-0.4-0.3-0.6-0.4c-0.2-0.1-0.6-0.2-1-0.3
	c-0.5-0.1-0.9-0.3-1.3-0.4c-0.3-0.1-0.6-0.3-0.8-0.6c-0.2-0.3-0.3-0.6-0.3-1c0-0.4,0.1-0.7,0.3-1s0.5-0.5,0.9-0.7s0.9-0.3,1.4-0.3
	c0.4,0,0.8,0.1,1.2,0.2s0.7,0.3,1,0.5l-0.3,0.6c-0.3-0.2-0.6-0.3-0.9-0.4c-0.3-0.1-0.7-0.1-1-0.1c-0.6,0-1.1,0.1-1.4,0.4
	c-0.3,0.2-0.5,0.5-0.5,0.9c0,0.3,0.1,0.5,0.3,0.7s0.4,0.3,0.6,0.4c0.3,0.1,0.6,0.2,1,0.3c0.5,0.1,0.9,0.3,1.2,0.4
	c0.3,0.1,0.6,0.3,0.8,0.6c0.2,0.3,0.3,0.6,0.3,1c0,0.4-0.1,0.7-0.3,1c-0.2,0.3-0.5,0.5-0.9,0.7c-0.4,0.2-0.9,0.3-1.5,0.3
	C219.6,201.5,219.1,201.4,218.6,201.2z"/>
<path class="st5" d="M116.1,209c0.5,0.4,0.8,1,0.8,1.8s-0.3,1.3-0.8,1.8c-0.5,0.4-1.2,0.6-2.1,0.6h-1.9v2.2h-0.7v-7h2.6
	C114.9,208.4,115.6,208.6,116.1,209z M115.5,212.1c0.4-0.3,0.5-0.7,0.5-1.3c0-0.6-0.2-1-0.5-1.3c-0.4-0.3-0.9-0.5-1.6-0.5h-1.9v3.5
	h1.9C114.7,212.5,115.2,212.4,115.5,212.1z"/>
<path class="st5" d="M123.3,215.4l-1.6-2.3c-0.2,0-0.4,0-0.6,0h-1.9v2.2h-0.7v-7h2.6c0.9,0,1.6,0.2,2.1,0.6c0.5,0.4,0.8,1,0.8,1.8
	c0,0.5-0.1,1-0.4,1.4c-0.3,0.4-0.7,0.6-1.2,0.8l1.7,2.4H123.3z M122.7,212.1c0.4-0.3,0.5-0.7,0.5-1.3c0-0.6-0.2-1-0.5-1.3
	c-0.4-0.3-0.9-0.5-1.6-0.5h-1.9v3.5h1.9C121.8,212.6,122.4,212.4,122.7,212.1z"/>
<path class="st5" d="M126.9,215c-0.6-0.3-1-0.7-1.3-1.3c-0.3-0.5-0.5-1.1-0.5-1.8s0.2-1.3,0.5-1.8c0.3-0.5,0.8-1,1.3-1.3
	c0.6-0.3,1.2-0.5,1.9-0.5c0.7,0,1.3,0.2,1.9,0.5c0.6,0.3,1,0.7,1.3,1.3c0.3,0.5,0.5,1.2,0.5,1.8s-0.2,1.3-0.5,1.8
	c-0.3,0.5-0.8,1-1.3,1.3c-0.6,0.3-1.2,0.5-1.9,0.5C128.1,215.5,127.5,215.3,126.9,215z M130.3,214.4c0.4-0.3,0.8-0.6,1-1
	s0.4-0.9,0.4-1.5c0-0.5-0.1-1-0.4-1.5s-0.6-0.8-1-1c-0.4-0.3-0.9-0.4-1.5-0.4c-0.6,0-1.1,0.1-1.5,0.4c-0.4,0.3-0.8,0.6-1.1,1
	c-0.3,0.4-0.4,0.9-0.4,1.5c0,0.5,0.1,1,0.4,1.5c0.3,0.4,0.6,0.8,1.1,1c0.5,0.3,1,0.4,1.5,0.4C129.4,214.8,129.9,214.7,130.3,214.4z"
	/>
<path class="st5" d="M134.9,209v2.8h3.6v0.6h-3.6v3h-0.7v-7h4.8v0.6H134.9z"/>
<path class="st5" d="M140.5,208.4h0.7v7h-0.7V208.4z"/>
<path class="st5" d="M143.9,215.2c-0.5-0.2-0.8-0.4-1.1-0.7l0.3-0.6c0.3,0.3,0.6,0.5,1,0.6c0.4,0.2,0.9,0.2,1.3,0.2
	c0.6,0,1.1-0.1,1.4-0.3s0.5-0.5,0.5-0.9c0-0.3-0.1-0.5-0.3-0.7c-0.2-0.2-0.4-0.3-0.6-0.4c-0.2-0.1-0.6-0.2-1-0.3
	c-0.5-0.1-0.9-0.3-1.3-0.4c-0.3-0.1-0.6-0.3-0.8-0.6c-0.2-0.3-0.3-0.6-0.3-1c0-0.4,0.1-0.7,0.3-1s0.5-0.5,0.9-0.7s0.9-0.3,1.4-0.3
	c0.4,0,0.8,0.1,1.2,0.2s0.7,0.3,1,0.5l-0.3,0.6c-0.3-0.2-0.6-0.3-0.9-0.4c-0.3-0.1-0.7-0.1-1-0.1c-0.6,0-1.1,0.1-1.4,0.4
	c-0.3,0.2-0.5,0.5-0.5,0.9c0,0.3,0.1,0.5,0.3,0.7s0.4,0.3,0.6,0.4c0.3,0.1,0.6,0.2,1,0.3c0.5,0.1,0.9,0.3,1.2,0.4
	c0.3,0.1,0.6,0.3,0.8,0.6c0.2,0.3,0.3,0.6,0.3,1c0,0.4-0.1,0.7-0.3,1c-0.2,0.3-0.5,0.5-0.9,0.7c-0.4,0.2-0.9,0.3-1.5,0.3
	C144.9,215.5,144.4,215.4,143.9,215.2z"/>
<path class="st5" d="M150.1,215.2c-0.5-0.2-0.8-0.4-1.1-0.7l0.3-0.6c0.3,0.3,0.6,0.5,1,0.6c0.4,0.2,0.9,0.2,1.3,0.2
	c0.6,0,1.1-0.1,1.4-0.3s0.5-0.5,0.5-0.9c0-0.3-0.1-0.5-0.3-0.7c-0.2-0.2-0.4-0.3-0.6-0.4c-0.2-0.1-0.6-0.2-1-0.3
	c-0.5-0.1-0.9-0.3-1.3-0.4c-0.3-0.1-0.6-0.3-0.8-0.6c-0.2-0.3-0.3-0.6-0.3-1c0-0.4,0.1-0.7,0.3-1s0.5-0.5,0.9-0.7s0.9-0.3,1.4-0.3
	c0.4,0,0.8,0.1,1.2,0.2s0.7,0.3,1,0.5l-0.3,0.6c-0.3-0.2-0.6-0.3-0.9-0.4c-0.3-0.1-0.7-0.1-1-0.1c-0.6,0-1.1,0.1-1.4,0.4
	c-0.3,0.2-0.5,0.5-0.5,0.9c0,0.3,0.1,0.5,0.3,0.7s0.4,0.3,0.6,0.4c0.3,0.1,0.6,0.2,1,0.3c0.5,0.1,0.9,0.3,1.2,0.4
	c0.3,0.1,0.6,0.3,0.8,0.6c0.2,0.3,0.3,0.6,0.3,1c0,0.4-0.1,0.7-0.3,1c-0.2,0.3-0.5,0.5-0.9,0.7c-0.4,0.2-0.9,0.3-1.5,0.3
	C151.1,215.5,150.6,215.4,150.1,215.2z"/>
<path class="st5" d="M155.8,208.4h0.7v7h-0.7V208.4z"/>
<path class="st5" d="M160,215c-0.6-0.3-1-0.7-1.3-1.3c-0.3-0.5-0.5-1.1-0.5-1.8s0.2-1.3,0.5-1.8c0.3-0.5,0.8-1,1.3-1.3
	c0.6-0.3,1.2-0.5,1.9-0.5c0.7,0,1.3,0.2,1.9,0.5c0.6,0.3,1,0.7,1.3,1.3c0.3,0.5,0.5,1.2,0.5,1.8s-0.2,1.3-0.5,1.8
	c-0.3,0.5-0.8,1-1.3,1.3c-0.6,0.3-1.2,0.5-1.9,0.5C161.2,215.5,160.6,215.3,160,215z M163.4,214.4c0.4-0.3,0.8-0.6,1-1
	s0.4-0.9,0.4-1.5c0-0.5-0.1-1-0.4-1.5s-0.6-0.8-1-1c-0.4-0.3-0.9-0.4-1.5-0.4c-0.6,0-1.1,0.1-1.5,0.4c-0.4,0.3-0.8,0.6-1.1,1
	c-0.3,0.4-0.4,0.9-0.4,1.5c0,0.5,0.1,1,0.4,1.5c0.3,0.4,0.6,0.8,1.1,1c0.5,0.3,1,0.4,1.5,0.4C162.4,214.8,162.9,214.7,163.4,214.4z"
	/>
<path class="st5" d="M173.1,208.4v7h-0.6l-4.5-5.7v5.7h-0.7v-7h0.6l4.5,5.7v-5.7H173.1z"/>
<path class="st5" d="M179.7,213.5h-3.9l-0.8,1.9h-0.8l3.2-7h0.7l3.2,7h-0.8L179.7,213.5z M179.5,212.9l-1.7-3.8l-1.7,3.8H179.5z"/>
<path class="st5" d="M182.5,208.4h0.7v7h-0.7V208.4z"/>
<path class="st5" d="M186,215.2c-0.5-0.2-0.8-0.4-1.1-0.7l0.3-0.6c0.3,0.3,0.6,0.5,1,0.6c0.4,0.2,0.9,0.2,1.3,0.2
	c0.6,0,1.1-0.1,1.4-0.3s0.5-0.5,0.5-0.9c0-0.3-0.1-0.5-0.3-0.7c-0.2-0.2-0.4-0.3-0.6-0.4c-0.2-0.1-0.6-0.2-1-0.3
	c-0.5-0.1-0.9-0.3-1.3-0.4c-0.3-0.1-0.6-0.3-0.8-0.6c-0.2-0.3-0.3-0.6-0.3-1c0-0.4,0.1-0.7,0.3-1s0.5-0.5,0.9-0.7s0.9-0.3,1.4-0.3
	c0.4,0,0.8,0.1,1.2,0.2s0.7,0.3,1,0.5l-0.3,0.6c-0.3-0.2-0.6-0.3-0.9-0.4c-0.3-0.1-0.7-0.1-1-0.1c-0.6,0-1.1,0.1-1.4,0.4
	c-0.3,0.2-0.5,0.5-0.5,0.9c0,0.3,0.1,0.5,0.3,0.7s0.4,0.3,0.6,0.4c0.3,0.1,0.6,0.2,1,0.3c0.5,0.1,0.9,0.3,1.2,0.4
	c0.3,0.1,0.6,0.3,0.8,0.6c0.2,0.3,0.3,0.6,0.3,1c0,0.4-0.1,0.7-0.3,1c-0.2,0.3-0.5,0.5-0.9,0.7c-0.4,0.2-0.9,0.3-1.5,0.3
	C186.9,215.5,186.4,215.4,186,215.2z"/>
<path class="st5" d="M198.7,213.5h-3.9l-0.8,1.9h-0.8l3.2-7h0.7l3.2,7h-0.8L198.7,213.5z M198.4,212.9l-1.7-3.8l-1.7,3.8H198.4z"/>
<path class="st5" d="M202.2,214.7c-0.5-0.5-0.8-1.3-0.8-2.3v-4h0.7v4c0,0.8,0.2,1.4,0.6,1.8c0.4,0.4,0.9,0.6,1.6,0.6
	c0.7,0,1.2-0.2,1.6-0.6c0.4-0.4,0.5-1,0.5-1.8v-4h0.7v4c0,1-0.3,1.8-0.8,2.3c-0.5,0.5-1.2,0.8-2.1,0.8S202.7,215.2,202.2,214.7z"/>
<path class="st5" d="M210.8,209h-2.5v-0.6h5.7v0.6h-2.5v6.4h-0.7V209z"/>
<path class="st5" d="M216.3,215c-0.6-0.3-1-0.7-1.3-1.3c-0.3-0.5-0.5-1.1-0.5-1.8s0.2-1.3,0.5-1.8c0.3-0.5,0.8-1,1.3-1.3
	c0.6-0.3,1.2-0.5,1.9-0.5c0.7,0,1.3,0.2,1.9,0.5c0.6,0.3,1,0.7,1.3,1.3c0.3,0.5,0.5,1.2,0.5,1.8s-0.2,1.3-0.5,1.8
	c-0.3,0.5-0.8,1-1.3,1.3c-0.6,0.3-1.2,0.5-1.9,0.5C217.5,215.5,216.9,215.3,216.3,215z M219.7,214.4c0.4-0.3,0.8-0.6,1-1
	s0.4-0.9,0.4-1.5c0-0.5-0.1-1-0.4-1.5s-0.6-0.8-1-1c-0.4-0.3-0.9-0.4-1.5-0.4c-0.6,0-1.1,0.1-1.5,0.4c-0.4,0.3-0.8,0.6-1.1,1
	c-0.3,0.4-0.4,0.9-0.4,1.5c0,0.5,0.1,1,0.4,1.5c0.3,0.4,0.6,0.8,1.1,1c0.5,0.3,1,0.4,1.5,0.4C218.8,214.8,219.3,214.7,219.7,214.4z
	 M219.2,207.8l-1-0.8l-1,0.8h-0.7l1.3-1.2h0.7l1.3,1.2H219.2z"/>
<path class="st5" d="M229.4,208.4v7h-0.6l-4.5-5.7v5.7h-0.7v-7h0.6l4.5,5.7v-5.7H229.4z"/>
<path class="st5" d="M232.8,215c-0.6-0.3-1-0.7-1.3-1.3c-0.3-0.5-0.5-1.1-0.5-1.8s0.2-1.3,0.5-1.8c0.3-0.5,0.8-1,1.3-1.3
	c0.6-0.3,1.2-0.5,1.9-0.5c0.7,0,1.3,0.2,1.9,0.5c0.6,0.3,1,0.7,1.3,1.3c0.3,0.5,0.5,1.2,0.5,1.8s-0.2,1.3-0.5,1.8
	c-0.3,0.5-0.8,1-1.3,1.3c-0.6,0.3-1.2,0.5-1.9,0.5C234,215.5,233.4,215.3,232.8,215z M236.2,214.4c0.4-0.3,0.8-0.6,1-1
	s0.4-0.9,0.4-1.5c0-0.5-0.1-1-0.4-1.5s-0.6-0.8-1-1c-0.4-0.3-0.9-0.4-1.5-0.4c-0.6,0-1.1,0.1-1.5,0.4c-0.4,0.3-0.8,0.6-1.1,1
	c-0.3,0.4-0.4,0.9-0.4,1.5c0,0.5,0.1,1,0.4,1.5c0.3,0.4,0.6,0.8,1.1,1c0.5,0.3,1,0.4,1.5,0.4C235.3,214.8,235.8,214.7,236.2,214.4z"
	/>
<path class="st5" d="M247.3,208.4v7h-0.7v-5.6l-2.8,4.7h-0.4l-2.8-4.7v5.6H240v-7h0.6l3,5.2l3-5.2H247.3z"/>
<path class="st5" d="M250.8,215c-0.6-0.3-1-0.7-1.3-1.3c-0.3-0.5-0.5-1.1-0.5-1.8s0.2-1.3,0.5-1.8c0.3-0.5,0.8-1,1.3-1.3
	c0.6-0.3,1.2-0.5,1.9-0.5c0.7,0,1.3,0.2,1.9,0.5c0.6,0.3,1,0.7,1.3,1.3c0.3,0.5,0.5,1.2,0.5,1.8s-0.2,1.3-0.5,1.8
	c-0.3,0.5-0.8,1-1.3,1.3c-0.6,0.3-1.2,0.5-1.9,0.5C252,215.5,251.3,215.3,250.8,215z M254.2,214.4c0.4-0.3,0.8-0.6,1-1
	s0.4-0.9,0.4-1.5c0-0.5-0.1-1-0.4-1.5s-0.6-0.8-1-1c-0.4-0.3-0.9-0.4-1.5-0.4c-0.6,0-1.1,0.1-1.5,0.4c-0.4,0.3-0.8,0.6-1.1,1
	c-0.3,0.4-0.4,0.9-0.4,1.5c0,0.5,0.1,1,0.4,1.5c0.3,0.4,0.6,0.8,1.1,1c0.5,0.3,1,0.4,1.5,0.4C253.2,214.8,253.7,214.7,254.2,214.4z"
	/>
<path class="st5" d="M258.4,215.2c-0.5-0.2-0.8-0.4-1.1-0.7l0.3-0.6c0.3,0.3,0.6,0.5,1,0.6c0.4,0.2,0.9,0.2,1.3,0.2
	c0.6,0,1.1-0.1,1.4-0.3s0.5-0.5,0.5-0.9c0-0.3-0.1-0.5-0.3-0.7c-0.2-0.2-0.4-0.3-0.6-0.4c-0.2-0.1-0.6-0.2-1-0.3
	c-0.5-0.1-0.9-0.3-1.3-0.4c-0.3-0.1-0.6-0.3-0.8-0.6c-0.2-0.3-0.3-0.6-0.3-1c0-0.4,0.1-0.7,0.3-1s0.5-0.5,0.9-0.7s0.9-0.3,1.4-0.3
	c0.4,0,0.8,0.1,1.2,0.2s0.7,0.3,1,0.5l-0.3,0.6c-0.3-0.2-0.6-0.3-0.9-0.4c-0.3-0.1-0.7-0.1-1-0.1c-0.6,0-1.1,0.1-1.4,0.4
	c-0.3,0.2-0.5,0.5-0.5,0.9c0,0.3,0.1,0.5,0.3,0.7s0.4,0.3,0.6,0.4c0.3,0.1,0.6,0.2,1,0.3c0.5,0.1,0.9,0.3,1.2,0.4
	c0.3,0.1,0.6,0.3,0.8,0.6c0.2,0.3,0.3,0.6,0.3,1c0,0.4-0.1,0.7-0.3,1c-0.2,0.3-0.5,0.5-0.9,0.7c-0.4,0.2-0.9,0.3-1.5,0.3
	C259.4,215.5,258.9,215.4,258.4,215.2z"/>
<path class="st5" d="M131.3,228.8v0.6h-4.9v-7h4.8v0.6h-4.1v2.5h3.6v0.6h-3.6v2.6H131.3z"/>
<path class="st5" d="M137.5,229.4l-2.3-3.1l-2.3,3.1h-0.9l2.7-3.6l-2.5-3.4h0.9l2.1,2.9l2.1-2.9h0.8l-2.5,3.4l2.7,3.6H137.5z"/>
<path class="st5" d="M144.6,228.8v0.6h-4.9v-7h4.8v0.6h-4.1v2.5h3.6v0.6h-3.6v2.6H144.6z"/>
<path class="st5" d="M147.5,229c-0.6-0.3-1-0.7-1.3-1.3c-0.3-0.5-0.5-1.2-0.5-1.8s0.2-1.3,0.5-1.8c0.3-0.5,0.8-1,1.3-1.3
	s1.2-0.5,1.9-0.5c0.5,0,1,0.1,1.4,0.3s0.8,0.4,1.1,0.8l-0.5,0.5c-0.5-0.6-1.2-0.8-2.1-0.8c-0.6,0-1.1,0.1-1.5,0.4
	c-0.5,0.3-0.8,0.6-1.1,1c-0.3,0.4-0.4,0.9-0.4,1.5c0,0.5,0.1,1,0.4,1.5c0.3,0.4,0.6,0.8,1.1,1c0.5,0.3,1,0.4,1.5,0.4
	c0.8,0,1.5-0.3,2.1-0.8l0.5,0.5c-0.3,0.3-0.7,0.6-1.1,0.8c-0.4,0.2-0.9,0.3-1.4,0.3C148.7,229.5,148,229.3,147.5,229z"/>
<path class="st5" d="M154.2,228.7c-0.5-0.5-0.8-1.3-0.8-2.3v-4h0.7v4c0,0.8,0.2,1.4,0.6,1.8c0.4,0.4,0.9,0.6,1.6,0.6
	c0.7,0,1.2-0.2,1.6-0.6c0.4-0.4,0.5-1,0.5-1.8v-4h0.7v4c0,1-0.3,1.8-0.8,2.3c-0.5,0.5-1.2,0.8-2.1,0.8S154.7,229.2,154.2,228.7z"/>
<path class="st5" d="M162.8,223h-2.5v-0.6h5.7v0.6h-2.5v6.4h-0.7V223z"/>
<path class="st5" d="M167.2,222.4h0.7v7h-0.7V222.4z"/>
<path class="st5" d="M176,222.4l-3.1,7h-0.7l-3.1-7h0.8l2.7,6.1l2.7-6.1H176z"/>
<path class="st5" d="M178.3,229c-0.6-0.3-1-0.7-1.3-1.3c-0.3-0.5-0.5-1.1-0.5-1.8s0.2-1.3,0.5-1.8c0.3-0.5,0.8-1,1.3-1.3
	c0.6-0.3,1.2-0.5,1.9-0.5c0.7,0,1.3,0.2,1.9,0.5c0.6,0.3,1,0.7,1.3,1.3c0.3,0.5,0.5,1.2,0.5,1.8s-0.2,1.3-0.5,1.8
	c-0.3,0.5-0.8,1-1.3,1.3c-0.6,0.3-1.2,0.5-1.9,0.5C179.5,229.5,178.9,229.3,178.3,229z M181.7,228.4c0.4-0.3,0.8-0.6,1-1
	s0.4-0.9,0.4-1.5c0-0.5-0.1-1-0.4-1.5s-0.6-0.8-1-1c-0.4-0.3-0.9-0.4-1.5-0.4c-0.6,0-1.1,0.1-1.5,0.4c-0.4,0.3-0.8,0.6-1.1,1
	c-0.3,0.4-0.4,0.9-0.4,1.5c0,0.5,0.1,1,0.4,1.5c0.3,0.4,0.6,0.8,1.1,1c0.5,0.3,1,0.4,1.5,0.4C180.8,228.8,181.3,228.7,181.7,228.4z"
	/>
<path class="st5" d="M186,229.2c-0.5-0.2-0.8-0.4-1.1-0.7l0.3-0.6c0.3,0.3,0.6,0.5,1,0.6c0.4,0.2,0.9,0.2,1.3,0.2
	c0.6,0,1.1-0.1,1.4-0.3s0.5-0.5,0.5-0.9c0-0.3-0.1-0.5-0.3-0.7c-0.2-0.2-0.4-0.3-0.6-0.4c-0.2-0.1-0.6-0.2-1-0.3
	c-0.5-0.1-0.9-0.3-1.3-0.4c-0.3-0.1-0.6-0.3-0.8-0.6c-0.2-0.3-0.3-0.6-0.3-1c0-0.4,0.1-0.7,0.3-1s0.5-0.5,0.9-0.7s0.9-0.3,1.4-0.3
	c0.4,0,0.8,0.1,1.2,0.2s0.7,0.3,1,0.5l-0.3,0.6c-0.3-0.2-0.6-0.3-0.9-0.4c-0.3-0.1-0.7-0.1-1-0.1c-0.6,0-1.1,0.1-1.4,0.4
	c-0.3,0.2-0.5,0.5-0.5,0.9c0,0.3,0.1,0.5,0.3,0.7s0.4,0.3,0.6,0.4c0.3,0.1,0.6,0.2,1,0.3c0.5,0.1,0.9,0.3,1.2,0.4
	c0.3,0.1,0.6,0.3,0.8,0.6c0.2,0.3,0.3,0.6,0.3,1c0,0.4-0.1,0.7-0.3,1c-0.2,0.3-0.5,0.5-0.9,0.7c-0.4,0.2-0.9,0.3-1.5,0.3
	C187,229.5,186.5,229.4,186,229.2z"/>
<path class="st5" d="M194.3,222.4h2.9c0.7,0,1.4,0.1,2,0.4c0.6,0.3,1,0.7,1.3,1.2c0.3,0.5,0.5,1.1,0.5,1.8s-0.2,1.3-0.5,1.8
	c-0.3,0.5-0.8,0.9-1.3,1.2c-0.6,0.3-1.2,0.4-2,0.4h-2.9V222.4z M197.1,228.8c0.6,0,1.1-0.1,1.6-0.4s0.8-0.6,1.1-1
	c0.3-0.4,0.4-0.9,0.4-1.5s-0.1-1.1-0.4-1.5c-0.3-0.4-0.6-0.8-1.1-1c-0.5-0.2-1-0.4-1.6-0.4h-2.1v5.7H197.1z"/>
<path class="st5" d="M207.5,228.8v0.6h-4.9v-7h4.8v0.6h-4.1v2.5h3.6v0.6h-3.6v2.6H207.5z"/>
<path class="st5" d="M217.7,222.4l-3.1,7h-0.7l-3.1-7h0.8l2.7,6.1l2.7-6.1H217.7z"/>
<path class="st5" d="M223.8,228.8v0.6h-4.9v-7h4.8v0.6h-4.1v2.5h3.6v0.6h-3.6v2.6H223.8z"/>
<path class="st5" d="M231.4,222.4v7h-0.6l-4.5-5.7v5.7h-0.7v-7h0.6l4.5,5.7v-5.7H231.4z"/>
<path class="st5" d="M233.7,222.4h2.9c0.7,0,1.4,0.1,2,0.4c0.6,0.3,1,0.7,1.3,1.2c0.3,0.5,0.5,1.1,0.5,1.8s-0.2,1.3-0.5,1.8
	c-0.3,0.5-0.8,0.9-1.3,1.2c-0.6,0.3-1.2,0.4-2,0.4h-2.9V222.4z M236.5,228.8c0.6,0,1.1-0.1,1.6-0.4s0.8-0.6,1.1-1
	c0.3-0.4,0.4-0.9,0.4-1.5s-0.1-1.1-0.4-1.5c-0.3-0.4-0.6-0.8-1.1-1c-0.5-0.2-1-0.4-1.6-0.4h-2.1v5.7H236.5z"/>
<path class="st5" d="M246.3,227.5h-3.9l-0.8,1.9h-0.8l3.2-7h0.7l3.2,7h-0.8L246.3,227.5z M246.1,226.9l-1.7-3.8l-1.7,3.8H246.1z"/>
<path class="st5" d="M118.8,242.8v0.6h-4.9v-7h4.8v0.6h-4.1v2.5h3.6v0.6h-3.6v2.6H118.8z"/>
<path class="st5" d="M124.9,243.4l-2.3-3.1l-2.3,3.1h-0.9l2.7-3.6l-2.5-3.4h0.9l2.1,2.9l2.1-2.9h0.8l-2.5,3.4l2.7,3.6H124.9z"/>
<path class="st5" d="M132,242.8v0.6h-4.9v-7h4.8v0.6h-4.1v2.5h3.6v0.6h-3.6v2.6H132z"/>
<path class="st5" d="M134.9,243c-0.6-0.3-1-0.7-1.3-1.3c-0.3-0.5-0.5-1.2-0.5-1.8s0.2-1.3,0.5-1.8c0.3-0.5,0.8-1,1.3-1.3
	s1.2-0.5,1.9-0.5c0.5,0,1,0.1,1.4,0.3s0.8,0.4,1.1,0.8l-0.5,0.5c-0.5-0.6-1.2-0.8-2.1-0.8c-0.6,0-1.1,0.1-1.5,0.4
	c-0.5,0.3-0.8,0.6-1.1,1c-0.3,0.4-0.4,0.9-0.4,1.5c0,0.5,0.1,1,0.4,1.5c0.3,0.4,0.6,0.8,1.1,1c0.5,0.3,1,0.4,1.5,0.4
	c0.8,0,1.5-0.3,2.1-0.8l0.5,0.5c-0.3,0.3-0.7,0.6-1.1,0.8c-0.4,0.2-0.9,0.3-1.4,0.3C136.1,243.5,135.5,243.3,134.9,243z"/>
<path class="st5" d="M141.6,242.7c-0.5-0.5-0.8-1.3-0.8-2.3v-4h0.7v4c0,0.8,0.2,1.4,0.6,1.8c0.4,0.4,0.9,0.6,1.6,0.6
	c0.7,0,1.2-0.2,1.6-0.6c0.4-0.4,0.5-1,0.5-1.8v-4h0.7v4c0,1-0.3,1.8-0.8,2.3c-0.5,0.5-1.2,0.8-2.1,0.8S142.1,243.2,141.6,242.7z"/>
<path class="st5" d="M150.2,237h-2.5v-0.6h5.7v0.6H151v6.4h-0.7V237z"/>
<path class="st5" d="M154.6,236.4h0.7v7h-0.7V236.4z"/>
<path class="st5" d="M163.4,236.4l-3.1,7h-0.7l-3.1-7h0.8l2.7,6.1l2.7-6.1H163.4z"/>
<path class="st5" d="M165.8,243c-0.6-0.3-1-0.7-1.3-1.3c-0.3-0.5-0.5-1.1-0.5-1.8s0.2-1.3,0.5-1.8c0.3-0.5,0.8-1,1.3-1.3
	c0.6-0.3,1.2-0.5,1.9-0.5c0.7,0,1.3,0.2,1.9,0.5c0.6,0.3,1,0.7,1.3,1.3c0.3,0.5,0.5,1.2,0.5,1.8s-0.2,1.3-0.5,1.8
	c-0.3,0.5-0.8,1-1.3,1.3c-0.6,0.3-1.2,0.5-1.9,0.5C167,243.5,166.3,243.3,165.8,243z M169.2,242.4c0.4-0.3,0.8-0.6,1-1
	s0.4-0.9,0.4-1.5c0-0.5-0.1-1-0.4-1.5s-0.6-0.8-1-1c-0.4-0.3-0.9-0.4-1.5-0.4c-0.6,0-1.1,0.1-1.5,0.4c-0.4,0.3-0.8,0.6-1.1,1
	c-0.3,0.4-0.4,0.9-0.4,1.5c0,0.5,0.1,1,0.4,1.5c0.3,0.4,0.6,0.8,1.1,1c0.5,0.3,1,0.4,1.5,0.4C168.2,242.8,168.7,242.7,169.2,242.4z"
	/>
<path class="st5" d="M173.4,243.2c-0.5-0.2-0.8-0.4-1.1-0.7l0.3-0.6c0.3,0.3,0.6,0.5,1,0.6c0.4,0.2,0.9,0.2,1.3,0.2
	c0.6,0,1.1-0.1,1.4-0.3s0.5-0.5,0.5-0.9c0-0.3-0.1-0.5-0.3-0.7c-0.2-0.2-0.4-0.3-0.6-0.4c-0.2-0.1-0.6-0.2-1-0.3
	c-0.5-0.1-0.9-0.3-1.3-0.4c-0.3-0.1-0.6-0.3-0.8-0.6c-0.2-0.3-0.3-0.6-0.3-1c0-0.4,0.1-0.7,0.3-1s0.5-0.5,0.9-0.7s0.9-0.3,1.4-0.3
	c0.4,0,0.8,0.1,1.2,0.2s0.7,0.3,1,0.5l-0.3,0.6c-0.3-0.2-0.6-0.3-0.9-0.4c-0.3-0.1-0.7-0.1-1-0.1c-0.6,0-1.1,0.1-1.4,0.4
	c-0.3,0.2-0.5,0.5-0.5,0.9c0,0.3,0.1,0.5,0.3,0.7s0.4,0.3,0.6,0.4c0.3,0.1,0.6,0.2,1,0.3c0.5,0.1,0.9,0.3,1.2,0.4
	c0.3,0.1,0.6,0.3,0.8,0.6c0.2,0.3,0.3,0.6,0.3,1c0,0.4-0.1,0.7-0.3,1c-0.2,0.3-0.5,0.5-0.9,0.7c-0.4,0.2-0.9,0.3-1.5,0.3
	C174.4,243.5,173.9,243.4,173.4,243.2z"/>
<path class="st5" d="M181.8,236.4h2.9c0.7,0,1.4,0.1,2,0.4c0.6,0.3,1,0.7,1.3,1.2c0.3,0.5,0.5,1.1,0.5,1.8s-0.2,1.3-0.5,1.8
	c-0.3,0.5-0.8,0.9-1.3,1.2c-0.6,0.3-1.2,0.4-2,0.4h-2.9V236.4z M184.6,242.8c0.6,0,1.1-0.1,1.6-0.4s0.8-0.6,1.1-1
	c0.3-0.4,0.4-0.9,0.4-1.5s-0.1-1.1-0.4-1.5c-0.3-0.4-0.6-0.8-1.1-1c-0.5-0.2-1-0.4-1.6-0.4h-2.1v5.7H184.6z"/>
<path class="st5" d="M195,242.8v0.6H190v-7h4.8v0.6h-4.1v2.5h3.6v0.6h-3.6v2.6H195z"/>
<path class="st5" d="M206.6,236.4v7h-0.7v-5.6l-2.8,4.7h-0.4l-2.8-4.7v5.6h-0.7v-7h0.6l3,5.2l3-5.2H206.6z"/>
<path class="st5" d="M213.3,241.5h-3.9l-0.8,1.9h-0.8l3.2-7h0.7l3.2,7h-0.8L213.3,241.5z M213,240.9l-1.7-3.8l-1.7,3.8H213z"/>
<path class="st5" d="M220.8,243.4l-1.6-2.3c-0.2,0-0.4,0-0.6,0h-1.9v2.2H216v-7h2.6c0.9,0,1.6,0.2,2.1,0.6c0.5,0.4,0.8,1,0.8,1.8
	c0,0.5-0.1,1-0.4,1.4c-0.3,0.4-0.7,0.6-1.2,0.8l1.7,2.4H220.8z M220.2,240.1c0.4-0.3,0.5-0.7,0.5-1.3c0-0.6-0.2-1-0.5-1.3
	c-0.4-0.3-0.9-0.5-1.6-0.5h-1.9v3.5h1.9C219.3,240.6,219.9,240.4,220.2,240.1z"/>
<path class="st5" d="M225.4,240.1l-1.4,1.5v1.8h-0.7v-7h0.7v4.2l4.1-4.2h0.8l-3,3.2l3.2,3.8h-0.9L225.4,240.1z"/>
<path class="st5" d="M235.3,242.8v0.6h-4.9v-7h4.8v0.6h-4.1v2.5h3.6v0.6h-3.6v2.6H235.3z"/>
<path class="st5" d="M238.4,237H236v-0.6h5.7v0.6h-2.5v6.4h-0.7V237z"/>
<path class="st5" d="M242.8,236.4h0.7v7h-0.7V236.4z"/>
<path class="st5" d="M251.7,236.4v7h-0.6l-4.5-5.7v5.7h-0.7v-7h0.6l4.5,5.7v-5.7H251.7z"/>
<path class="st5" d="M258.9,239.9h0.7v2.7c-0.3,0.3-0.7,0.5-1.2,0.7c-0.4,0.2-0.9,0.2-1.4,0.2c-0.7,0-1.3-0.2-1.9-0.5
	s-1-0.7-1.3-1.3s-0.5-1.2-0.5-1.8s0.2-1.3,0.5-1.8c0.3-0.5,0.8-1,1.3-1.3s1.2-0.5,1.9-0.5c0.5,0,1,0.1,1.5,0.3
	c0.4,0.2,0.8,0.4,1.1,0.8l-0.5,0.5c-0.6-0.5-1.3-0.8-2.1-0.8c-0.6,0-1.1,0.1-1.5,0.4s-0.8,0.6-1.1,1c-0.3,0.4-0.4,0.9-0.4,1.5
	c0,0.5,0.1,1,0.4,1.5c0.3,0.4,0.6,0.8,1.1,1c0.5,0.3,1,0.4,1.5,0.4c0.7,0,1.3-0.2,1.8-0.5V239.9z"/>
<path class="st5" d="M150.5,256.8v0.6h-4.9v-7h4.8v0.6h-4.1v2.5h3.6v0.6h-3.6v2.6H150.5z"/>
<path class="st5" d="M159.5,250.4v7h-0.7v-5.6l-2.8,4.7h-0.4l-2.8-4.7v5.6h-0.7v-7h0.6l3,5.2l3-5.2H159.5z"/>
<path class="st5" d="M167.3,254.4c0.3,0.3,0.4,0.7,0.4,1.1c0,0.6-0.2,1.1-0.7,1.4c-0.4,0.3-1.1,0.5-2,0.5h-3.2v-7h3
	c0.8,0,1.4,0.2,1.8,0.5c0.4,0.3,0.6,0.8,0.6,1.3c0,0.4-0.1,0.7-0.3,1s-0.5,0.5-0.8,0.6C166.6,253.9,167,254.1,167.3,254.4z
	 M162.5,251v2.5h2.2c0.6,0,1-0.1,1.3-0.3c0.3-0.2,0.5-0.5,0.5-0.9c0-0.4-0.2-0.7-0.5-0.9s-0.7-0.3-1.3-0.3H162.5z M166.4,256.5
	c0.3-0.2,0.5-0.5,0.5-1c0-0.9-0.6-1.3-1.9-1.3h-2.5v2.6h2.5C165.6,256.8,166.1,256.7,166.4,256.5z"/>
<path class="st5" d="M173.7,255.5h-3.9l-0.8,1.9h-0.8l3.2-7h0.7l3.2,7h-0.8L173.7,255.5z M173.4,254.9l-1.7-3.8l-1.7,3.8H173.4z"/>
<path class="st5" d="M176.5,250.4h0.7v7h-0.7V250.4z"/>
<path class="st5" d="M183.9,257.4l-2.3-3.1l-2.3,3.1h-0.9l2.7-3.6l-2.5-3.4h0.9l2.1,2.9l2.1-2.9h0.8l-2.5,3.4l2.7,3.6H183.9z"/>
<path class="st5" d="M190.5,255.5h-3.9l-0.8,1.9h-0.8l3.2-7h0.7l3.2,7h-0.8L190.5,255.5z M190.2,254.9l-1.7-3.8l-1.7,3.8H190.2z"/>
<path class="st5" d="M193.2,250.4h2.9c0.7,0,1.4,0.1,2,0.4c0.6,0.3,1,0.7,1.3,1.2c0.3,0.5,0.5,1.1,0.5,1.8s-0.2,1.3-0.5,1.8
	c-0.3,0.5-0.8,0.9-1.3,1.2c-0.6,0.3-1.2,0.4-2,0.4h-2.9V250.4z M196,256.8c0.6,0,1.1-0.1,1.6-0.4s0.8-0.6,1.1-1
	c0.3-0.4,0.4-0.9,0.4-1.5s-0.1-1.1-0.4-1.5c-0.3-0.4-0.6-0.8-1.1-1c-0.5-0.2-1-0.4-1.6-0.4H194v5.7H196z"/>
<path class="st5" d="M202.7,257c-0.6-0.3-1-0.7-1.3-1.3c-0.3-0.5-0.5-1.1-0.5-1.8s0.2-1.3,0.5-1.8c0.3-0.5,0.8-1,1.3-1.3
	c0.6-0.3,1.2-0.5,1.9-0.5c0.7,0,1.3,0.2,1.9,0.5c0.6,0.3,1,0.7,1.3,1.3c0.3,0.5,0.5,1.2,0.5,1.8s-0.2,1.3-0.5,1.8
	c-0.3,0.5-0.8,1-1.3,1.3c-0.6,0.3-1.2,0.5-1.9,0.5C203.9,257.5,203.2,257.3,202.7,257z M206.1,256.4c0.4-0.3,0.8-0.6,1-1
	s0.4-0.9,0.4-1.5c0-0.5-0.1-1-0.4-1.5s-0.6-0.8-1-1c-0.4-0.3-0.9-0.4-1.5-0.4c-0.6,0-1.1,0.1-1.5,0.4c-0.4,0.3-0.8,0.6-1.1,1
	c-0.3,0.4-0.4,0.9-0.4,1.5c0,0.5,0.1,1,0.4,1.5c0.3,0.4,0.6,0.8,1.1,1c0.5,0.3,1,0.4,1.5,0.4C205.1,256.8,205.6,256.7,206.1,256.4z"
	/>
<path class="st5" d="M214.7,257.4l-1.6-2.3c-0.2,0-0.4,0-0.6,0h-1.9v2.2h-0.7v-7h2.6c0.9,0,1.6,0.2,2.1,0.6c0.5,0.4,0.8,1,0.8,1.8
	c0,0.5-0.1,1-0.4,1.4c-0.3,0.4-0.7,0.6-1.2,0.8l1.7,2.4H214.7z M214.1,254.1c0.4-0.3,0.5-0.7,0.5-1.3c0-0.6-0.2-1-0.5-1.3
	c-0.4-0.3-0.9-0.5-1.6-0.5h-1.9v3.5h1.9C213.2,254.6,213.7,254.4,214.1,254.1z"/>
<path class="st5" d="M222.1,256.8v0.6h-4.9v-7h4.8v0.6h-4.1v2.5h3.6v0.6h-3.6v2.6H222.1z"/>
<path class="st5" d="M224.2,257.2c-0.5-0.2-0.8-0.4-1.1-0.7l0.3-0.6c0.3,0.3,0.6,0.5,1,0.6c0.4,0.2,0.9,0.2,1.3,0.2
	c0.6,0,1.1-0.1,1.4-0.3s0.5-0.5,0.5-0.9c0-0.3-0.1-0.5-0.3-0.7c-0.2-0.2-0.4-0.3-0.6-0.4c-0.2-0.1-0.6-0.2-1-0.3
	c-0.5-0.1-0.9-0.3-1.3-0.4c-0.3-0.1-0.6-0.3-0.8-0.6c-0.2-0.3-0.3-0.6-0.3-1c0-0.4,0.1-0.7,0.3-1s0.5-0.5,0.9-0.7s0.9-0.3,1.4-0.3
	c0.4,0,0.8,0.1,1.2,0.2s0.7,0.3,1,0.5l-0.3,0.6c-0.3-0.2-0.6-0.3-0.9-0.4c-0.3-0.1-0.7-0.1-1-0.1c-0.6,0-1.1,0.1-1.4,0.4
	c-0.3,0.2-0.5,0.5-0.5,0.9c0,0.3,0.1,0.5,0.3,0.7s0.4,0.3,0.6,0.4c0.3,0.1,0.6,0.2,1,0.3c0.5,0.1,0.9,0.3,1.2,0.4
	c0.3,0.1,0.6,0.3,0.8,0.6c0.2,0.3,0.3,0.6,0.3,1c0,0.4-0.1,0.7-0.3,1c-0.2,0.3-0.5,0.5-0.9,0.7c-0.4,0.2-0.9,0.3-1.5,0.3
	C225.2,257.5,224.7,257.4,224.2,257.2z"/>
<path class="st5" d="M137.6,264.4h0.7v7h-0.7V264.4z"/>
<path class="st5" d="M146.5,264.4v7h-0.6l-4.5-5.7v5.7h-0.7v-7h0.6l4.5,5.7v-5.7H146.5z"/>
<path class="st5" d="M149.5,265v2.8h3.6v0.6h-3.6v3h-0.7v-7h4.8v0.6H149.5z"/>
<path class="st5" d="M155.1,264.4h0.7v6.4h3.9v0.6h-4.7V264.4z"/>
<path class="st5" d="M161.7,270.7c-0.5-0.5-0.8-1.3-0.8-2.3v-4h0.7v4c0,0.8,0.2,1.4,0.6,1.8c0.4,0.4,0.9,0.6,1.6,0.6
	c0.7,0,1.2-0.2,1.6-0.6c0.4-0.4,0.5-1,0.5-1.8v-4h0.7v4c0,1-0.3,1.8-0.8,2.3c-0.5,0.5-1.2,0.8-2.1,0.8S162.2,271.2,161.7,270.7z"/>
<path class="st5" d="M173.9,270.8v0.6h-4.9v-7h4.8v0.6h-4.1v2.5h3.6v0.6h-3.6v2.6H173.9z"/>
<path class="st5" d="M181.5,264.4v7h-0.6l-4.5-5.7v5.7h-0.7v-7h0.6l4.5,5.7v-5.7H181.5z"/>
<path class="st5" d="M184.9,271c-0.6-0.3-1-0.7-1.3-1.3c-0.3-0.5-0.5-1.2-0.5-1.8s0.2-1.3,0.5-1.8c0.3-0.5,0.8-1,1.3-1.3
	s1.2-0.5,1.9-0.5c0.5,0,1,0.1,1.4,0.3s0.8,0.4,1.1,0.8l-0.5,0.5c-0.5-0.6-1.2-0.8-2.1-0.8c-0.6,0-1.1,0.1-1.5,0.4
	c-0.5,0.3-0.8,0.6-1.1,1c-0.3,0.4-0.4,0.9-0.4,1.5c0,0.5,0.1,1,0.4,1.5c0.3,0.4,0.6,0.8,1.1,1c0.5,0.3,1,0.4,1.5,0.4
	c0.8,0,1.5-0.3,2.1-0.8l0.5,0.5c-0.3,0.3-0.7,0.6-1.1,0.8c-0.4,0.2-0.9,0.3-1.4,0.3C186.1,271.5,185.5,271.3,184.9,271z"/>
<path class="st5" d="M190.9,264.4h0.7v7h-0.7V264.4z"/>
<path class="st5" d="M198.4,269.5h-3.9l-0.8,1.9h-0.8l3.2-7h0.7l3.2,7h-0.8L198.4,269.5z M198.1,268.9l-1.7-3.8l-1.7,3.8H198.1z"/>
<path class="st5" d="M201.1,264.4h2.9c0.7,0,1.4,0.1,2,0.4c0.6,0.3,1,0.7,1.3,1.2c0.3,0.5,0.5,1.1,0.5,1.8s-0.2,1.3-0.5,1.8
	c-0.3,0.5-0.8,0.9-1.3,1.2c-0.6,0.3-1.2,0.4-2,0.4h-2.9V264.4z M203.9,270.8c0.6,0,1.1-0.1,1.6-0.4s0.8-0.6,1.1-1
	c0.3-0.4,0.4-0.9,0.4-1.5s-0.1-1.1-0.4-1.5c-0.3-0.4-0.6-0.8-1.1-1c-0.5-0.2-1-0.4-1.6-0.4h-2.1v5.7H203.9z"/>
<path class="st5" d="M210.6,271c-0.6-0.3-1-0.7-1.3-1.3c-0.3-0.5-0.5-1.1-0.5-1.8s0.2-1.3,0.5-1.8c0.3-0.5,0.8-1,1.3-1.3
	c0.6-0.3,1.2-0.5,1.9-0.5c0.7,0,1.3,0.2,1.9,0.5c0.6,0.3,1,0.7,1.3,1.3c0.3,0.5,0.5,1.2,0.5,1.8s-0.2,1.3-0.5,1.8
	c-0.3,0.5-0.8,1-1.3,1.3c-0.6,0.3-1.2,0.5-1.9,0.5C211.8,271.5,211.1,271.3,210.6,271z M214,270.4c0.4-0.3,0.8-0.6,1-1
	s0.4-0.9,0.4-1.5c0-0.5-0.1-1-0.4-1.5s-0.6-0.8-1-1c-0.4-0.3-0.9-0.4-1.5-0.4c-0.6,0-1.1,0.1-1.5,0.4c-0.4,0.3-0.8,0.6-1.1,1
	c-0.3,0.4-0.4,0.9-0.4,1.5c0,0.5,0.1,1,0.4,1.5c0.3,0.4,0.6,0.8,1.1,1c0.5,0.3,1,0.4,1.5,0.4C213,270.8,213.5,270.7,214,270.4z"/>
<path class="st5" d="M222.6,271.4l-1.6-2.3c-0.2,0-0.4,0-0.6,0h-1.9v2.2h-0.7v-7h2.6c0.9,0,1.6,0.2,2.1,0.6c0.5,0.4,0.8,1,0.8,1.8
	c0,0.5-0.1,1-0.4,1.4c-0.3,0.4-0.7,0.6-1.2,0.8l1.7,2.4H222.6z M222,268.1c0.4-0.3,0.5-0.7,0.5-1.3c0-0.6-0.2-1-0.5-1.3
	c-0.4-0.3-0.9-0.5-1.6-0.5h-1.9v3.5h1.9C221.1,268.6,221.6,268.4,222,268.1z"/>
<path class="st5" d="M230,270.8v0.6H225v-7h4.8v0.6h-4.1v2.5h3.6v0.6h-3.6v2.6H230z"/>
<path class="st5" d="M232.1,271.2c-0.5-0.2-0.8-0.4-1.1-0.7l0.3-0.6c0.3,0.3,0.6,0.5,1,0.6c0.4,0.2,0.9,0.2,1.3,0.2
	c0.6,0,1.1-0.1,1.4-0.3s0.5-0.5,0.5-0.9c0-0.3-0.1-0.5-0.3-0.7c-0.2-0.2-0.4-0.3-0.6-0.4c-0.2-0.1-0.6-0.2-1-0.3
	c-0.5-0.1-0.9-0.3-1.3-0.4c-0.3-0.1-0.6-0.3-0.8-0.6c-0.2-0.3-0.3-0.6-0.3-1c0-0.4,0.1-0.7,0.3-1s0.5-0.5,0.9-0.7s0.9-0.3,1.4-0.3
	c0.4,0,0.8,0.1,1.2,0.2s0.7,0.3,1,0.5l-0.3,0.6c-0.3-0.2-0.6-0.3-0.9-0.4c-0.3-0.1-0.7-0.1-1-0.1c-0.6,0-1.1,0.1-1.4,0.4
	c-0.3,0.2-0.5,0.5-0.5,0.9c0,0.3,0.1,0.5,0.3,0.7s0.4,0.3,0.6,0.4c0.3,0.1,0.6,0.2,1,0.3c0.5,0.1,0.9,0.3,1.2,0.4
	c0.3,0.1,0.6,0.3,0.8,0.6c0.2,0.3,0.3,0.6,0.3,1c0,0.4-0.1,0.7-0.3,1c-0.2,0.3-0.5,0.5-0.9,0.7c-0.4,0.2-0.9,0.3-1.5,0.3
	C233.1,271.5,232.6,271.4,232.1,271.2z"/>
<path class="st5" d="M155.7,284.8v0.6h-4.9v-7h4.8v0.6h-4.1v2.5h3.6v0.6h-3.6v2.6H155.7z"/>
<path class="st5" d="M157.5,278.4h2.9c0.7,0,1.4,0.1,2,0.4c0.6,0.3,1,0.7,1.3,1.2c0.3,0.5,0.5,1.1,0.5,1.8s-0.2,1.3-0.5,1.8
	c-0.3,0.5-0.8,0.9-1.3,1.2c-0.6,0.3-1.2,0.4-2,0.4h-2.9V278.4z M160.3,284.8c0.6,0,1.1-0.1,1.6-0.4s0.8-0.6,1.1-1
	c0.3-0.4,0.4-0.9,0.4-1.5s-0.1-1.1-0.4-1.5c-0.3-0.4-0.6-0.8-1.1-1c-0.5-0.2-1-0.4-1.6-0.4h-2.1v5.7H160.3z"/>
<path class="st5" d="M166.4,284.7c-0.5-0.5-0.8-1.3-0.8-2.3v-4h0.7v4c0,0.8,0.2,1.4,0.6,1.8c0.4,0.4,0.9,0.6,1.6,0.6
	c0.7,0,1.2-0.2,1.6-0.6c0.4-0.4,0.5-1,0.5-1.8v-4h0.7v4c0,1-0.3,1.8-0.8,2.3c-0.5,0.5-1.2,0.8-2.1,0.8S166.9,285.2,166.4,284.7z"/>
<path class="st5" d="M174.8,285c-0.6-0.3-1-0.7-1.3-1.3c-0.3-0.5-0.5-1.2-0.5-1.8s0.2-1.3,0.5-1.8c0.3-0.5,0.8-1,1.3-1.3
	s1.2-0.5,1.9-0.5c0.5,0,1,0.1,1.4,0.3s0.8,0.4,1.1,0.8l-0.5,0.5c-0.5-0.6-1.2-0.8-2.1-0.8c-0.6,0-1.1,0.1-1.5,0.4
	c-0.5,0.3-0.8,0.6-1.1,1c-0.3,0.4-0.4,0.9-0.4,1.5c0,0.5,0.1,1,0.4,1.5c0.3,0.4,0.6,0.8,1.1,1c0.5,0.3,1,0.4,1.5,0.4
	c0.8,0,1.5-0.3,2.1-0.8l0.5,0.5c-0.3,0.3-0.7,0.6-1.1,0.8c-0.4,0.2-0.9,0.3-1.4,0.3C176,285.5,175.4,285.3,174.8,285z"/>
<path class="st5" d="M185.2,283.5h-3.9l-0.8,1.9h-0.8l3.2-7h0.7l3.2,7h-0.8L185.2,283.5z M185,282.9l-1.7-3.8l-1.7,3.8H185z"/>
<path class="st5" d="M188,278.4h2.9c0.7,0,1.4,0.1,2,0.4c0.6,0.3,1,0.7,1.3,1.2c0.3,0.5,0.5,1.1,0.5,1.8s-0.2,1.3-0.5,1.8
	c-0.3,0.5-0.8,0.9-1.3,1.2c-0.6,0.3-1.2,0.4-2,0.4H188V278.4z M190.8,284.8c0.6,0,1.1-0.1,1.6-0.4s0.8-0.6,1.1-1
	c0.3-0.4,0.4-0.9,0.4-1.5s-0.1-1.1-0.4-1.5c-0.3-0.4-0.6-0.8-1.1-1c-0.5-0.2-1-0.4-1.6-0.4h-2.1v5.7H190.8z"/>
<path class="st5" d="M197.4,285c-0.6-0.3-1-0.7-1.3-1.3c-0.3-0.5-0.5-1.1-0.5-1.8s0.2-1.3,0.5-1.8c0.3-0.5,0.8-1,1.3-1.3
	c0.6-0.3,1.2-0.5,1.9-0.5c0.7,0,1.3,0.2,1.9,0.5c0.6,0.3,1,0.7,1.3,1.3c0.3,0.5,0.5,1.2,0.5,1.8s-0.2,1.3-0.5,1.8
	c-0.3,0.5-0.8,1-1.3,1.3c-0.6,0.3-1.2,0.5-1.9,0.5C198.6,285.5,198,285.3,197.4,285z M200.8,284.4c0.4-0.3,0.8-0.6,1-1
	s0.4-0.9,0.4-1.5c0-0.5-0.1-1-0.4-1.5s-0.6-0.8-1-1c-0.4-0.3-0.9-0.4-1.5-0.4c-0.6,0-1.1,0.1-1.5,0.4c-0.4,0.3-0.8,0.6-1.1,1
	c-0.3,0.4-0.4,0.9-0.4,1.5c0,0.5,0.1,1,0.4,1.5c0.3,0.4,0.6,0.8,1.1,1c0.5,0.3,1,0.4,1.5,0.4C199.9,284.8,200.4,284.7,200.8,284.4z"
	/>
<path class="st5" d="M209.4,285.4l-1.6-2.3c-0.2,0-0.4,0-0.6,0h-1.9v2.2h-0.7v-7h2.6c0.9,0,1.6,0.2,2.1,0.6c0.5,0.4,0.8,1,0.8,1.8
	c0,0.5-0.1,1-0.4,1.4c-0.3,0.4-0.7,0.6-1.2,0.8l1.7,2.4H209.4z M208.8,282.1c0.4-0.3,0.5-0.7,0.5-1.3c0-0.6-0.2-1-0.5-1.3
	c-0.4-0.3-0.9-0.5-1.6-0.5h-1.9v3.5h1.9C207.9,282.6,208.5,282.4,208.8,282.1z"/>
<path class="st5" d="M216.8,284.8v0.6h-4.9v-7h4.8v0.6h-4.1v2.5h3.6v0.6h-3.6v2.6H216.8z"/>
<path class="st5" d="M219,285.2c-0.5-0.2-0.8-0.4-1.1-0.7l0.3-0.6c0.3,0.3,0.6,0.5,1,0.6c0.4,0.2,0.9,0.2,1.3,0.2
	c0.6,0,1.1-0.1,1.4-0.3s0.5-0.5,0.5-0.9c0-0.3-0.1-0.5-0.3-0.7c-0.2-0.2-0.4-0.3-0.6-0.4c-0.2-0.1-0.6-0.2-1-0.3
	c-0.5-0.1-0.9-0.3-1.3-0.4c-0.3-0.1-0.6-0.3-0.8-0.6c-0.2-0.3-0.3-0.6-0.3-1c0-0.4,0.1-0.7,0.3-1s0.5-0.5,0.9-0.7s0.9-0.3,1.4-0.3
	c0.4,0,0.8,0.1,1.2,0.2s0.7,0.3,1,0.5l-0.3,0.6c-0.3-0.2-0.6-0.3-0.9-0.4c-0.3-0.1-0.7-0.1-1-0.1c-0.6,0-1.1,0.1-1.4,0.4
	c-0.3,0.2-0.5,0.5-0.5,0.9c0,0.3,0.1,0.5,0.3,0.7s0.4,0.3,0.6,0.4c0.3,0.1,0.6,0.2,1,0.3c0.5,0.1,0.9,0.3,1.2,0.4
	c0.3,0.1,0.6,0.3,0.8,0.6c0.2,0.3,0.3,0.6,0.3,1c0,0.4-0.1,0.7-0.3,1c-0.2,0.3-0.5,0.5-0.9,0.7c-0.4,0.2-0.9,0.3-1.5,0.3
	C220,285.5,219.5,285.4,219,285.2z"/>
<path class="st5" d="M115.3,293c0.5,0.4,0.8,1,0.8,1.8s-0.3,1.3-0.8,1.8c-0.5,0.4-1.2,0.6-2.1,0.6h-1.9v2.2h-0.7v-7h2.6
	C114.1,292.4,114.8,292.6,115.3,293z M114.7,296.1c0.4-0.3,0.5-0.7,0.5-1.3c0-0.6-0.2-1-0.5-1.3c-0.4-0.3-0.9-0.5-1.6-0.5h-1.9v3.5
	h1.9C113.8,296.5,114.4,296.4,114.7,296.1z"/>
<path class="st5" d="M122.5,299.4l-1.6-2.3c-0.2,0-0.4,0-0.6,0h-1.9v2.2h-0.7v-7h2.6c0.9,0,1.6,0.2,2.1,0.6c0.5,0.4,0.8,1,0.8,1.8
	c0,0.5-0.1,1-0.4,1.4c-0.3,0.4-0.7,0.6-1.2,0.8l1.7,2.4H122.5z M121.9,296.1c0.4-0.3,0.5-0.7,0.5-1.3c0-0.6-0.2-1-0.5-1.3
	c-0.4-0.3-0.9-0.5-1.6-0.5h-1.9v3.5h1.9C121,296.6,121.6,296.4,121.9,296.1z"/>
<path class="st5" d="M126.1,299c-0.6-0.3-1-0.7-1.3-1.3c-0.3-0.5-0.5-1.1-0.5-1.8s0.2-1.3,0.5-1.8c0.3-0.5,0.8-1,1.3-1.3
	c0.6-0.3,1.2-0.5,1.9-0.5c0.7,0,1.3,0.2,1.9,0.5c0.6,0.3,1,0.7,1.3,1.3c0.3,0.5,0.5,1.2,0.5,1.8s-0.2,1.3-0.5,1.8
	c-0.3,0.5-0.8,1-1.3,1.3c-0.6,0.3-1.2,0.5-1.9,0.5C127.3,299.5,126.7,299.3,126.1,299z M129.5,298.4c0.4-0.3,0.8-0.6,1-1
	s0.4-0.9,0.4-1.5c0-0.5-0.1-1-0.4-1.5s-0.6-0.8-1-1c-0.4-0.3-0.9-0.4-1.5-0.4c-0.6,0-1.1,0.1-1.5,0.4c-0.4,0.3-0.8,0.6-1.1,1
	c-0.3,0.4-0.4,0.9-0.4,1.5c0,0.5,0.1,1,0.4,1.5c0.3,0.4,0.6,0.8,1.1,1c0.5,0.3,1,0.4,1.5,0.4C128.6,298.8,129.1,298.7,129.5,298.4z"
	/>
<path class="st5" d="M134.1,293v2.8h3.6v0.6h-3.6v3h-0.7v-7h4.8v0.6H134.1z"/>
<path class="st5" d="M139.7,292.4h0.7v7h-0.7V292.4z"/>
<path class="st5" d="M143.1,299.2c-0.5-0.2-0.8-0.4-1.1-0.7l0.3-0.6c0.3,0.3,0.6,0.5,1,0.6c0.4,0.2,0.9,0.2,1.3,0.2
	c0.6,0,1.1-0.1,1.4-0.3s0.5-0.5,0.5-0.9c0-0.3-0.1-0.5-0.3-0.7c-0.2-0.2-0.4-0.3-0.6-0.4c-0.2-0.1-0.6-0.2-1-0.3
	c-0.5-0.1-0.9-0.3-1.3-0.4c-0.3-0.1-0.6-0.3-0.8-0.6c-0.2-0.3-0.3-0.6-0.3-1c0-0.4,0.1-0.7,0.3-1s0.5-0.5,0.9-0.7s0.9-0.3,1.4-0.3
	c0.4,0,0.8,0.1,1.2,0.2s0.7,0.3,1,0.5l-0.3,0.6c-0.3-0.2-0.6-0.3-0.9-0.4c-0.3-0.1-0.7-0.1-1-0.1c-0.6,0-1.1,0.1-1.4,0.4
	c-0.3,0.2-0.5,0.5-0.5,0.9c0,0.3,0.1,0.5,0.3,0.7s0.4,0.3,0.6,0.4c0.3,0.1,0.6,0.2,1,0.3c0.5,0.1,0.9,0.3,1.2,0.4
	c0.3,0.1,0.6,0.3,0.8,0.6c0.2,0.3,0.3,0.6,0.3,1c0,0.4-0.1,0.7-0.3,1c-0.2,0.3-0.5,0.5-0.9,0.7c-0.4,0.2-0.9,0.3-1.5,0.3
	C144.1,299.5,143.6,299.4,143.1,299.2z"/>
<path class="st5" d="M149.3,299.2c-0.5-0.2-0.8-0.4-1.1-0.7l0.3-0.6c0.3,0.3,0.6,0.5,1,0.6c0.4,0.2,0.9,0.2,1.3,0.2
	c0.6,0,1.1-0.1,1.4-0.3s0.5-0.5,0.5-0.9c0-0.3-0.1-0.5-0.3-0.7c-0.2-0.2-0.4-0.3-0.6-0.4c-0.2-0.1-0.6-0.2-1-0.3
	c-0.5-0.1-0.9-0.3-1.3-0.4c-0.3-0.1-0.6-0.3-0.8-0.6c-0.2-0.3-0.3-0.6-0.3-1c0-0.4,0.1-0.7,0.3-1s0.5-0.5,0.9-0.7s0.9-0.3,1.4-0.3
	c0.4,0,0.8,0.1,1.2,0.2s0.7,0.3,1,0.5l-0.3,0.6c-0.3-0.2-0.6-0.3-0.9-0.4c-0.3-0.1-0.7-0.1-1-0.1c-0.6,0-1.1,0.1-1.4,0.4
	c-0.3,0.2-0.5,0.5-0.5,0.9c0,0.3,0.1,0.5,0.3,0.7s0.4,0.3,0.6,0.4c0.3,0.1,0.6,0.2,1,0.3c0.5,0.1,0.9,0.3,1.2,0.4
	c0.3,0.1,0.6,0.3,0.8,0.6c0.2,0.3,0.3,0.6,0.3,1c0,0.4-0.1,0.7-0.3,1c-0.2,0.3-0.5,0.5-0.9,0.7c-0.4,0.2-0.9,0.3-1.5,0.3
	C150.3,299.5,149.8,299.4,149.3,299.2z"/>
<path class="st5" d="M155,292.4h0.7v7H155V292.4z"/>
<path class="st5" d="M159.2,299c-0.6-0.3-1-0.7-1.3-1.3c-0.3-0.5-0.5-1.1-0.5-1.8s0.2-1.3,0.5-1.8c0.3-0.5,0.8-1,1.3-1.3
	c0.6-0.3,1.2-0.5,1.9-0.5c0.7,0,1.3,0.2,1.9,0.5c0.6,0.3,1,0.7,1.3,1.3c0.3,0.5,0.5,1.2,0.5,1.8s-0.2,1.3-0.5,1.8
	c-0.3,0.5-0.8,1-1.3,1.3c-0.6,0.3-1.2,0.5-1.9,0.5C160.4,299.5,159.8,299.3,159.2,299z M162.6,298.4c0.4-0.3,0.8-0.6,1-1
	s0.4-0.9,0.4-1.5c0-0.5-0.1-1-0.4-1.5s-0.6-0.8-1-1c-0.4-0.3-0.9-0.4-1.5-0.4c-0.6,0-1.1,0.1-1.5,0.4c-0.4,0.3-0.8,0.6-1.1,1
	c-0.3,0.4-0.4,0.9-0.4,1.5c0,0.5,0.1,1,0.4,1.5c0.3,0.4,0.6,0.8,1.1,1c0.5,0.3,1,0.4,1.5,0.4C161.6,298.8,162.1,298.7,162.6,298.4z"
	/>
<path class="st5" d="M172.3,292.4v7h-0.6l-4.5-5.7v5.7h-0.7v-7h0.6l4.5,5.7v-5.7H172.3z"/>
<path class="st5" d="M178.9,297.5H175l-0.8,1.9h-0.8l3.2-7h0.7l3.2,7h-0.8L178.9,297.5z M178.7,296.9l-1.7-3.8l-1.7,3.8H178.7z"/>
<path class="st5" d="M181.7,292.4h0.7v7h-0.7V292.4z"/>
<path class="st5" d="M185.2,299.2c-0.5-0.2-0.8-0.4-1.1-0.7l0.3-0.6c0.3,0.3,0.6,0.5,1,0.6c0.4,0.2,0.9,0.2,1.3,0.2
	c0.6,0,1.1-0.1,1.4-0.3s0.5-0.5,0.5-0.9c0-0.3-0.1-0.5-0.3-0.7c-0.2-0.2-0.4-0.3-0.6-0.4c-0.2-0.1-0.6-0.2-1-0.3
	c-0.5-0.1-0.9-0.3-1.3-0.4c-0.3-0.1-0.6-0.3-0.8-0.6c-0.2-0.3-0.3-0.6-0.3-1c0-0.4,0.1-0.7,0.3-1s0.5-0.5,0.9-0.7s0.9-0.3,1.4-0.3
	c0.4,0,0.8,0.1,1.2,0.2s0.7,0.3,1,0.5l-0.3,0.6c-0.3-0.2-0.6-0.3-0.9-0.4c-0.3-0.1-0.7-0.1-1-0.1c-0.6,0-1.1,0.1-1.4,0.4
	c-0.3,0.2-0.5,0.5-0.5,0.9c0,0.3,0.1,0.5,0.3,0.7s0.4,0.3,0.6,0.4c0.3,0.1,0.6,0.2,1,0.3c0.5,0.1,0.9,0.3,1.2,0.4
	c0.3,0.1,0.6,0.3,0.8,0.6c0.2,0.3,0.3,0.6,0.3,1c0,0.4-0.1,0.7-0.3,1c-0.2,0.3-0.5,0.5-0.9,0.7c-0.4,0.2-0.9,0.3-1.5,0.3
	C186.1,299.5,185.6,299.4,185.2,299.2z"/>
<path class="st5" d="M194.2,293v2.8h3.6v0.6h-3.6v3h-0.7v-7h4.8v0.6H194.2z"/>
<path class="st5" d="M199.8,292.4h0.7v7h-0.7V292.4z"/>
<path class="st5" d="M208.7,292.4v7h-0.6l-4.5-5.7v5.7h-0.7v-7h0.6l4.5,5.7v-5.7H208.7z"/>
<path class="st5" d="M215.4,297.5h-3.9l-0.8,1.9h-0.8l3.2-7h0.7l3.2,7h-0.8L215.4,297.5z M215.1,296.9l-1.7-3.8l-1.7,3.8H215.1z"/>
<path class="st5" d="M224,292.4v7h-0.6l-4.5-5.7v5.7h-0.7v-7h0.6l4.5,5.7v-5.7H224z"/>
<path class="st5" d="M227.4,299c-0.6-0.3-1-0.7-1.3-1.3c-0.3-0.5-0.5-1.2-0.5-1.8s0.2-1.3,0.5-1.8c0.3-0.5,0.8-1,1.3-1.3
	s1.2-0.5,1.9-0.5c0.5,0,1,0.1,1.4,0.3s0.8,0.4,1.1,0.8l-0.5,0.5c-0.5-0.6-1.2-0.8-2.1-0.8c-0.6,0-1.1,0.1-1.5,0.4
	c-0.5,0.3-0.8,0.6-1.1,1c-0.3,0.4-0.4,0.9-0.4,1.5c0,0.5,0.1,1,0.4,1.5c0.3,0.4,0.6,0.8,1.1,1c0.5,0.3,1,0.4,1.5,0.4
	c0.8,0,1.5-0.3,2.1-0.8l0.5,0.5c-0.3,0.3-0.7,0.6-1.1,0.8s-0.9,0.3-1.4,0.3C228.6,299.5,228,299.3,227.4,299z"/>
<path class="st5" d="M238.4,298.8v0.6h-4.9v-7h4.8v0.6h-4.1v2.5h3.6v0.6h-3.6v2.6H238.4z"/>
<path class="st5" d="M240.2,292.4h0.7v7h-0.7V292.4z"/>
<path class="st5" d="M248,299.4l-1.6-2.3c-0.2,0-0.4,0-0.6,0h-1.9v2.2h-0.7v-7h2.6c0.9,0,1.6,0.2,2.1,0.6c0.5,0.4,0.8,1,0.8,1.8
	c0,0.5-0.1,1-0.4,1.4c-0.3,0.4-0.7,0.6-1.2,0.8l1.7,2.4H248z M247.4,296.1c0.4-0.3,0.5-0.7,0.5-1.3c0-0.6-0.2-1-0.5-1.3
	c-0.4-0.3-0.9-0.5-1.6-0.5h-1.9v3.5h1.9C246.5,296.6,247,296.4,247.4,296.1z"/>
<path class="st5" d="M251.6,299c-0.6-0.3-1-0.7-1.3-1.3c-0.3-0.5-0.5-1.1-0.5-1.8s0.2-1.3,0.5-1.8c0.3-0.5,0.8-1,1.3-1.3
	c0.6-0.3,1.2-0.5,1.9-0.5c0.7,0,1.3,0.2,1.9,0.5c0.6,0.3,1,0.7,1.3,1.3c0.3,0.5,0.5,1.2,0.5,1.8s-0.2,1.3-0.5,1.8
	c-0.3,0.5-0.8,1-1.3,1.3c-0.6,0.3-1.2,0.5-1.9,0.5C252.8,299.5,252.1,299.3,251.6,299z M255,298.4c0.4-0.3,0.8-0.6,1-1
	s0.4-0.9,0.4-1.5c0-0.5-0.1-1-0.4-1.5s-0.6-0.8-1-1c-0.4-0.3-0.9-0.4-1.5-0.4c-0.6,0-1.1,0.1-1.5,0.4c-0.4,0.3-0.8,0.6-1.1,1
	c-0.3,0.4-0.4,0.9-0.4,1.5c0,0.5,0.1,1,0.4,1.5c0.3,0.4,0.6,0.8,1.1,1c0.5,0.3,1,0.4,1.5,0.4C254,298.8,254.5,298.7,255,298.4z"/>
<path class="st5" d="M259.2,299.2c-0.5-0.2-0.8-0.4-1.1-0.7l0.3-0.6c0.3,0.3,0.6,0.5,1,0.6c0.4,0.2,0.9,0.2,1.3,0.2
	c0.6,0,1.1-0.1,1.4-0.3s0.5-0.5,0.5-0.9c0-0.3-0.1-0.5-0.3-0.7c-0.2-0.2-0.4-0.3-0.6-0.4c-0.2-0.1-0.6-0.2-1-0.3
	c-0.5-0.1-0.9-0.3-1.3-0.4c-0.3-0.1-0.6-0.3-0.8-0.6c-0.2-0.3-0.3-0.6-0.3-1c0-0.4,0.1-0.7,0.3-1s0.5-0.5,0.9-0.7s0.9-0.3,1.4-0.3
	c0.4,0,0.8,0.1,1.2,0.2s0.7,0.3,1,0.5l-0.3,0.6c-0.3-0.2-0.6-0.3-0.9-0.4c-0.3-0.1-0.7-0.1-1-0.1c-0.6,0-1.1,0.1-1.4,0.4
	c-0.3,0.2-0.5,0.5-0.5,0.9c0,0.3,0.1,0.5,0.3,0.7s0.4,0.3,0.6,0.4c0.3,0.1,0.6,0.2,1,0.3c0.5,0.1,0.9,0.3,1.2,0.4
	c0.3,0.1,0.6,0.3,0.8,0.6c0.2,0.3,0.3,0.6,0.3,1c0,0.4-0.1,0.7-0.3,1c-0.2,0.3-0.5,0.5-0.9,0.7c-0.4,0.2-0.9,0.3-1.5,0.3
	C260.2,299.5,259.7,299.4,259.2,299.2z"/>
<path class="st5" d="M122.9,307c0.5,0.4,0.8,1,0.8,1.8c0,0.7-0.3,1.3-0.8,1.8c-0.5,0.4-1.2,0.6-2.1,0.6h-1.9v2.2h-0.7v-7h2.6
	C121.7,306.4,122.4,306.6,122.9,307z M122.4,310.1c0.4-0.3,0.5-0.7,0.5-1.3c0-0.6-0.2-1-0.5-1.3c-0.4-0.3-0.9-0.5-1.6-0.5h-1.9v3.5
	h1.9C121.5,310.5,122,310.4,122.4,310.1z"/>
<path class="st5" d="M130.1,313.4l-1.6-2.3c-0.2,0-0.4,0-0.6,0h-1.9v2.2h-0.7v-7h2.6c0.9,0,1.6,0.2,2.1,0.6c0.5,0.4,0.8,1,0.8,1.8
	c0,0.5-0.1,1-0.4,1.4c-0.3,0.4-0.7,0.6-1.2,0.8l1.7,2.4H130.1z M129.5,310.1c0.4-0.3,0.5-0.7,0.5-1.3c0-0.6-0.2-1-0.5-1.3
	c-0.4-0.3-0.9-0.5-1.6-0.5h-1.9v3.5h1.9C128.7,310.6,129.2,310.4,129.5,310.1z"/>
<path class="st5" d="M133.8,313c-0.6-0.3-1-0.7-1.3-1.3c-0.3-0.5-0.5-1.1-0.5-1.8c0-0.7,0.2-1.3,0.5-1.8c0.3-0.5,0.8-1,1.3-1.3
	c0.6-0.3,1.2-0.5,1.9-0.5c0.7,0,1.3,0.2,1.9,0.5c0.6,0.3,1,0.7,1.3,1.3c0.3,0.5,0.5,1.2,0.5,1.8c0,0.7-0.2,1.3-0.5,1.8
	c-0.3,0.5-0.8,1-1.3,1.3c-0.6,0.3-1.2,0.5-1.9,0.5C135,313.5,134.3,313.3,133.8,313z M137.1,312.4c0.4-0.3,0.8-0.6,1-1
	c0.3-0.4,0.4-0.9,0.4-1.5s-0.1-1-0.4-1.5s-0.6-0.8-1-1c-0.4-0.3-0.9-0.4-1.5-0.4c-0.6,0-1.1,0.1-1.5,0.4c-0.4,0.3-0.8,0.6-1.1,1
	c-0.3,0.4-0.4,0.9-0.4,1.5s0.1,1,0.4,1.5c0.3,0.4,0.6,0.8,1.1,1c0.5,0.3,1,0.4,1.5,0.4C136.2,312.8,136.7,312.7,137.1,312.4z"/>
<path class="st5" d="M141.7,307v2.8h3.6v0.6h-3.6v3H141v-7h4.8v0.6H141.7z"/>
<path class="st5" d="M147.3,306.4h0.7v7h-0.7V306.4z"/>
<path class="st5" d="M150.8,313.2c-0.5-0.2-0.8-0.4-1.1-0.7l0.3-0.6c0.3,0.3,0.6,0.5,1,0.6c0.4,0.2,0.9,0.2,1.3,0.2
	c0.6,0,1.1-0.1,1.4-0.3c0.3-0.2,0.5-0.5,0.5-0.9c0-0.3-0.1-0.5-0.3-0.7c-0.2-0.2-0.4-0.3-0.6-0.4s-0.6-0.2-1-0.3
	c-0.5-0.1-0.9-0.3-1.3-0.4c-0.3-0.1-0.6-0.3-0.8-0.6c-0.2-0.3-0.3-0.6-0.3-1c0-0.4,0.1-0.7,0.3-1c0.2-0.3,0.5-0.5,0.9-0.7
	c0.4-0.2,0.9-0.3,1.4-0.3c0.4,0,0.8,0.1,1.2,0.2c0.4,0.1,0.7,0.3,1,0.5l-0.3,0.6c-0.3-0.2-0.6-0.3-0.9-0.4c-0.3-0.1-0.7-0.1-1-0.1
	c-0.6,0-1.1,0.1-1.4,0.4c-0.3,0.2-0.5,0.5-0.5,0.9c0,0.3,0.1,0.5,0.3,0.7s0.4,0.3,0.6,0.4c0.3,0.1,0.6,0.2,1,0.3
	c0.5,0.1,0.9,0.3,1.2,0.4s0.6,0.3,0.8,0.6c0.2,0.3,0.3,0.6,0.3,1c0,0.4-0.1,0.7-0.3,1s-0.5,0.5-0.9,0.7c-0.4,0.2-0.9,0.3-1.5,0.3
	C151.7,313.5,151.2,313.4,150.8,313.2z"/>
<path class="st5" d="M156.9,313.2c-0.5-0.2-0.8-0.4-1.1-0.7l0.3-0.6c0.3,0.3,0.6,0.5,1,0.6c0.4,0.2,0.9,0.2,1.3,0.2
	c0.6,0,1.1-0.1,1.4-0.3c0.3-0.2,0.5-0.5,0.5-0.9c0-0.3-0.1-0.5-0.3-0.7c-0.2-0.2-0.4-0.3-0.6-0.4s-0.6-0.2-1-0.3
	c-0.5-0.1-0.9-0.3-1.3-0.4c-0.3-0.1-0.6-0.3-0.8-0.6c-0.2-0.3-0.3-0.6-0.3-1c0-0.4,0.1-0.7,0.3-1c0.2-0.3,0.5-0.5,0.9-0.7
	c0.4-0.2,0.9-0.3,1.4-0.3c0.4,0,0.8,0.1,1.2,0.2c0.4,0.1,0.7,0.3,1,0.5l-0.3,0.6c-0.3-0.2-0.6-0.3-0.9-0.4c-0.3-0.1-0.7-0.1-1-0.1
	c-0.6,0-1.1,0.1-1.4,0.4c-0.3,0.2-0.5,0.5-0.5,0.9c0,0.3,0.1,0.5,0.3,0.7s0.4,0.3,0.6,0.4c0.3,0.1,0.6,0.2,1,0.3
	c0.5,0.1,0.9,0.3,1.2,0.4s0.6,0.3,0.8,0.6c0.2,0.3,0.3,0.6,0.3,1c0,0.4-0.1,0.7-0.3,1s-0.5,0.5-0.9,0.7c-0.4,0.2-0.9,0.3-1.5,0.3
	C157.9,313.5,157.4,313.4,156.9,313.2z"/>
<path class="st5" d="M162.6,306.4h0.7v7h-0.7V306.4z"/>
<path class="st5" d="M166.8,313c-0.6-0.3-1-0.7-1.3-1.3c-0.3-0.5-0.5-1.1-0.5-1.8c0-0.7,0.2-1.3,0.5-1.8c0.3-0.5,0.8-1,1.3-1.3
	c0.6-0.3,1.2-0.5,1.9-0.5c0.7,0,1.3,0.2,1.9,0.5c0.6,0.3,1,0.7,1.3,1.3c0.3,0.5,0.5,1.2,0.5,1.8c0,0.7-0.2,1.3-0.5,1.8
	c-0.3,0.5-0.8,1-1.3,1.3c-0.6,0.3-1.2,0.5-1.9,0.5C168,313.5,167.4,313.3,166.8,313z M170.2,312.4c0.4-0.3,0.8-0.6,1-1
	c0.3-0.4,0.4-0.9,0.4-1.5s-0.1-1-0.4-1.5s-0.6-0.8-1-1c-0.4-0.3-0.9-0.4-1.5-0.4c-0.6,0-1.1,0.1-1.5,0.4c-0.4,0.3-0.8,0.6-1.1,1
	c-0.3,0.4-0.4,0.9-0.4,1.5s0.1,1,0.4,1.5c0.3,0.4,0.6,0.8,1.1,1c0.5,0.3,1,0.4,1.5,0.4C169.3,312.8,169.8,312.7,170.2,312.4z"/>
<path class="st5" d="M179.9,306.4v7h-0.6l-4.5-5.7v5.7H174v-7h0.6l4.5,5.7v-5.7H179.9z"/>
<path class="st5" d="M186.6,311.5h-3.9l-0.8,1.9H181l3.2-7h0.7l3.2,7h-0.8L186.6,311.5z M186.3,310.9l-1.7-3.8l-1.7,3.8H186.3z"/>
<path class="st5" d="M189.3,306.4h0.7v7h-0.7V306.4z"/>
<path class="st5" d="M192.8,313.2c-0.5-0.2-0.8-0.4-1.1-0.7l0.3-0.6c0.3,0.3,0.6,0.5,1,0.6c0.4,0.2,0.9,0.2,1.3,0.2
	c0.6,0,1.1-0.1,1.4-0.3c0.3-0.2,0.5-0.5,0.5-0.9c0-0.3-0.1-0.5-0.3-0.7c-0.2-0.2-0.4-0.3-0.6-0.4s-0.6-0.2-1-0.3
	c-0.5-0.1-0.9-0.3-1.3-0.4c-0.3-0.1-0.6-0.3-0.8-0.6c-0.2-0.3-0.3-0.6-0.3-1c0-0.4,0.1-0.7,0.3-1c0.2-0.3,0.5-0.5,0.9-0.7
	c0.4-0.2,0.9-0.3,1.4-0.3c0.4,0,0.8,0.1,1.2,0.2c0.4,0.1,0.7,0.3,1,0.5l-0.3,0.6c-0.3-0.2-0.6-0.3-0.9-0.4c-0.3-0.1-0.7-0.1-1-0.1
	c-0.6,0-1.1,0.1-1.4,0.4c-0.3,0.2-0.5,0.5-0.5,0.9c0,0.3,0.1,0.5,0.3,0.7s0.4,0.3,0.6,0.4c0.3,0.1,0.6,0.2,1,0.3
	c0.5,0.1,0.9,0.3,1.2,0.4s0.6,0.3,0.8,0.6c0.2,0.3,0.3,0.6,0.3,1c0,0.4-0.1,0.7-0.3,1s-0.5,0.5-0.9,0.7c-0.4,0.2-0.9,0.3-1.5,0.3
	C193.8,313.5,193.3,313.4,192.8,313.2z"/>
<path class="st5" d="M200.8,313.2c-0.3-0.2-0.6-0.4-0.8-0.7l0.4-0.5c0.4,0.6,0.9,0.9,1.5,0.9c0.9,0,1.3-0.5,1.3-1.5V307h-2.6v-0.6
	h3.3v4.9c0,0.7-0.2,1.3-0.5,1.7s-0.9,0.6-1.5,0.6C201.5,313.5,201.1,313.4,200.8,313.2z"/>
<path class="st5" d="M206.8,312.7c-0.5-0.5-0.8-1.3-0.8-2.3v-4h0.7v4c0,0.8,0.2,1.4,0.6,1.8c0.4,0.4,0.9,0.6,1.6,0.6
	c0.7,0,1.2-0.2,1.6-0.6c0.4-0.4,0.5-1,0.5-1.8v-4h0.7v4c0,1-0.3,1.8-0.8,2.3c-0.5,0.5-1.2,0.8-2.1,0.8S207.3,313.2,206.8,312.7z"/>
<path class="st5" d="M218.8,313.4l-1.6-2.3c-0.2,0-0.4,0-0.6,0h-1.9v2.2h-0.7v-7h2.6c0.9,0,1.6,0.2,2.1,0.6c0.5,0.4,0.8,1,0.8,1.8
	c0,0.5-0.1,1-0.4,1.4c-0.3,0.4-0.7,0.6-1.2,0.8l1.7,2.4H218.8z M218.2,310.1c0.4-0.3,0.5-0.7,0.5-1.3c0-0.6-0.2-1-0.5-1.3
	c-0.4-0.3-0.9-0.5-1.6-0.5h-1.9v3.5h1.9C217.4,310.6,217.9,310.4,218.2,310.1z"/>
<path class="st5" d="M222.4,304.6h1l-1.6,1.2H221L222.4,304.6z M221.3,306.4h0.7v7h-0.7V306.4z"/>
<path class="st5" d="M224.3,306.4h2.9c0.7,0,1.4,0.1,2,0.4c0.6,0.3,1,0.7,1.3,1.2c0.3,0.5,0.5,1.1,0.5,1.8s-0.2,1.3-0.5,1.8
	c-0.3,0.5-0.8,0.9-1.3,1.2c-0.6,0.3-1.2,0.4-2,0.4h-2.9V306.4z M227.1,312.8c0.6,0,1.1-0.1,1.6-0.4s0.8-0.6,1.1-1
	c0.3-0.4,0.4-0.9,0.4-1.5s-0.1-1.1-0.4-1.5c-0.3-0.4-0.6-0.8-1.1-1s-1-0.4-1.6-0.4H225v5.7H227.1z"/>
<path class="st5" d="M232.6,306.4h0.7v7h-0.7V306.4z"/>
<path class="st5" d="M236.8,313c-0.6-0.3-1-0.7-1.3-1.3c-0.3-0.5-0.5-1.2-0.5-1.8c0-0.7,0.2-1.3,0.5-1.8c0.3-0.5,0.8-1,1.3-1.3
	s1.2-0.5,1.9-0.5c0.5,0,1,0.1,1.4,0.3c0.4,0.2,0.8,0.4,1.1,0.8l-0.5,0.5c-0.5-0.6-1.2-0.8-2.1-0.8c-0.6,0-1.1,0.1-1.5,0.4
	c-0.5,0.3-0.8,0.6-1.1,1c-0.3,0.4-0.4,0.9-0.4,1.5s0.1,1,0.4,1.5c0.3,0.4,0.6,0.8,1.1,1c0.5,0.3,1,0.4,1.5,0.4
	c0.8,0,1.5-0.3,2.1-0.8l0.5,0.5c-0.3,0.3-0.7,0.6-1.1,0.8s-0.9,0.3-1.4,0.3C237.9,313.5,237.3,313.3,236.8,313z"/>
<path class="st5" d="M244,313c-0.6-0.3-1-0.7-1.3-1.3c-0.3-0.5-0.5-1.1-0.5-1.8c0-0.7,0.2-1.3,0.5-1.8c0.3-0.5,0.8-1,1.3-1.3
	c0.6-0.3,1.2-0.5,1.9-0.5c0.7,0,1.3,0.2,1.9,0.5c0.6,0.3,1,0.7,1.3,1.3c0.3,0.5,0.5,1.2,0.5,1.8c0,0.7-0.2,1.3-0.5,1.8
	c-0.3,0.5-0.8,1-1.3,1.3c-0.6,0.3-1.2,0.5-1.9,0.5C245.1,313.5,244.5,313.3,244,313z M247.3,312.4c0.4-0.3,0.8-0.6,1-1
	c0.3-0.4,0.4-0.9,0.4-1.5s-0.1-1-0.4-1.5s-0.6-0.8-1-1c-0.4-0.3-0.9-0.4-1.5-0.4c-0.6,0-1.1,0.1-1.5,0.4c-0.4,0.3-0.8,0.6-1.1,1
	c-0.3,0.4-0.4,0.9-0.4,1.5s0.1,1,0.4,1.5c0.3,0.4,0.6,0.8,1.1,1c0.5,0.3,1,0.4,1.5,0.4C246.4,312.8,246.9,312.7,247.3,312.4z"/>
<path class="st5" d="M251.6,313.2c-0.5-0.2-0.8-0.4-1.1-0.7l0.3-0.6c0.3,0.3,0.6,0.5,1,0.6c0.4,0.2,0.9,0.2,1.3,0.2
	c0.6,0,1.1-0.1,1.4-0.3c0.3-0.2,0.5-0.5,0.5-0.9c0-0.3-0.1-0.5-0.3-0.7c-0.2-0.2-0.4-0.3-0.6-0.4s-0.6-0.2-1-0.3
	c-0.5-0.1-0.9-0.3-1.3-0.4c-0.3-0.1-0.6-0.3-0.8-0.6c-0.2-0.3-0.3-0.6-0.3-1c0-0.4,0.1-0.7,0.3-1c0.2-0.3,0.5-0.5,0.9-0.7
	c0.4-0.2,0.9-0.3,1.4-0.3c0.4,0,0.8,0.1,1.2,0.2c0.4,0.1,0.7,0.3,1,0.5l-0.3,0.6c-0.3-0.2-0.6-0.3-0.9-0.4c-0.3-0.1-0.7-0.1-1-0.1
	c-0.6,0-1.1,0.1-1.4,0.4c-0.3,0.2-0.5,0.5-0.5,0.9c0,0.3,0.1,0.5,0.3,0.7s0.4,0.3,0.6,0.4c0.3,0.1,0.6,0.2,1,0.3
	c0.5,0.1,0.9,0.3,1.2,0.4s0.6,0.3,0.8,0.6c0.2,0.3,0.3,0.6,0.3,1c0,0.4-0.1,0.7-0.3,1s-0.5,0.5-0.9,0.7c-0.4,0.2-0.9,0.3-1.5,0.3
	C252.6,313.5,252.1,313.4,251.6,313.2z"/>
<path class="st5" d="M165,321c0.5,0.4,0.8,1,0.8,1.8c0,0.7-0.3,1.3-0.8,1.8c-0.5,0.4-1.2,0.6-2.1,0.6H161v2.2h-0.7v-7h2.6
	C163.8,320.4,164.5,320.6,165,321z M164.5,324.1c0.4-0.3,0.5-0.7,0.5-1.3c0-0.6-0.2-1-0.5-1.3c-0.4-0.3-0.9-0.5-1.6-0.5H161v3.5h1.9
	C163.6,324.5,164.1,324.4,164.5,324.1z"/>
<path class="st5" d="M168.6,327c-0.6-0.3-1-0.7-1.3-1.3c-0.3-0.5-0.5-1.1-0.5-1.8c0-0.7,0.2-1.3,0.5-1.8c0.3-0.5,0.8-1,1.3-1.3
	c0.6-0.3,1.2-0.5,1.9-0.5c0.7,0,1.3,0.2,1.9,0.5c0.6,0.3,1,0.7,1.3,1.3c0.3,0.5,0.5,1.2,0.5,1.8c0,0.7-0.2,1.3-0.5,1.8
	c-0.3,0.5-0.8,1-1.3,1.3c-0.6,0.3-1.2,0.5-1.9,0.5C169.8,327.5,169.2,327.3,168.6,327z M172,326.4c0.4-0.3,0.8-0.6,1-1
	s0.4-0.9,0.4-1.5s-0.1-1-0.4-1.5s-0.6-0.8-1-1c-0.4-0.3-0.9-0.4-1.5-0.4c-0.6,0-1.1,0.1-1.5,0.4c-0.4,0.3-0.8,0.6-1.1,1
	c-0.3,0.4-0.4,0.9-0.4,1.5s0.1,1,0.4,1.5c0.3,0.4,0.6,0.8,1.1,1c0.5,0.3,1,0.4,1.5,0.4C171.1,326.8,171.6,326.7,172,326.4z"/>
<path class="st5" d="M175.8,320.4h0.7v6.4h3.9v0.6h-4.7V320.4z"/>
<path class="st5" d="M182.8,318.6h1l-1.6,1.2h-0.7L182.8,318.6z M181.7,320.4h0.7v7h-0.7V320.4z"/>
<path class="st5" d="M186.1,321h-2.5v-0.6h5.7v0.6h-2.5v6.4h-0.7V321z"/>
<path class="st5" d="M190.5,320.4h0.7v7h-0.7V320.4z"/>
<path class="st5" d="M194.7,327c-0.6-0.3-1-0.7-1.3-1.3c-0.3-0.5-0.5-1.2-0.5-1.8c0-0.7,0.2-1.3,0.5-1.8c0.3-0.5,0.8-1,1.3-1.3
	s1.2-0.5,1.9-0.5c0.5,0,1,0.1,1.4,0.3c0.4,0.2,0.8,0.4,1.1,0.8l-0.5,0.5c-0.5-0.6-1.2-0.8-2.1-0.8c-0.6,0-1.1,0.1-1.5,0.4
	c-0.5,0.3-0.8,0.6-1.1,1c-0.3,0.4-0.4,0.9-0.4,1.5s0.1,1,0.4,1.5c0.3,0.4,0.6,0.8,1.1,1c0.5,0.3,1,0.4,1.5,0.4
	c0.8,0,1.5-0.3,2.1-0.8l0.5,0.5c-0.3,0.3-0.7,0.6-1.1,0.8s-0.9,0.3-1.4,0.3C195.8,327.5,195.2,327.3,194.7,327z"/>
<path class="st5" d="M201.9,327c-0.6-0.3-1-0.7-1.3-1.3c-0.3-0.5-0.5-1.1-0.5-1.8c0-0.7,0.2-1.3,0.5-1.8c0.3-0.5,0.8-1,1.3-1.3
	c0.6-0.3,1.2-0.5,1.9-0.5c0.7,0,1.3,0.2,1.9,0.5c0.6,0.3,1,0.7,1.3,1.3c0.3,0.5,0.5,1.2,0.5,1.8c0,0.7-0.2,1.3-0.5,1.8
	c-0.3,0.5-0.8,1-1.3,1.3c-0.6,0.3-1.2,0.5-1.9,0.5C203.1,327.5,202.4,327.3,201.9,327z M205.3,326.4c0.4-0.3,0.8-0.6,1-1
	s0.4-0.9,0.4-1.5s-0.1-1-0.4-1.5s-0.6-0.8-1-1c-0.4-0.3-0.9-0.4-1.5-0.4c-0.6,0-1.1,0.1-1.5,0.4c-0.4,0.3-0.8,0.6-1.1,1
	c-0.3,0.4-0.4,0.9-0.4,1.5s0.1,1,0.4,1.5c0.3,0.4,0.6,0.8,1.1,1c0.5,0.3,1,0.4,1.5,0.4C204.3,326.8,204.8,326.7,205.3,326.4z"/>
<path class="st5" d="M209.5,327.2c-0.5-0.2-0.8-0.4-1.1-0.7l0.3-0.6c0.3,0.3,0.6,0.5,1,0.6c0.4,0.2,0.9,0.2,1.3,0.2
	c0.6,0,1.1-0.1,1.4-0.3c0.3-0.2,0.5-0.5,0.5-0.9c0-0.3-0.1-0.5-0.3-0.7c-0.2-0.2-0.4-0.3-0.6-0.4s-0.6-0.2-1-0.3
	c-0.5-0.1-0.9-0.3-1.3-0.4c-0.3-0.1-0.6-0.3-0.8-0.6c-0.2-0.3-0.3-0.6-0.3-1c0-0.4,0.1-0.7,0.3-1c0.2-0.3,0.5-0.5,0.9-0.7
	c0.4-0.2,0.9-0.3,1.4-0.3c0.4,0,0.8,0.1,1.2,0.2c0.4,0.1,0.7,0.3,1,0.5l-0.3,0.6c-0.3-0.2-0.6-0.3-0.9-0.4c-0.3-0.1-0.7-0.1-1-0.1
	c-0.6,0-1.1,0.1-1.4,0.4c-0.3,0.2-0.5,0.5-0.5,0.9c0,0.3,0.1,0.5,0.3,0.7s0.4,0.3,0.6,0.4c0.3,0.1,0.6,0.2,1,0.3
	c0.5,0.1,0.9,0.3,1.2,0.4s0.6,0.3,0.8,0.6c0.2,0.3,0.3,0.6,0.3,1c0,0.4-0.1,0.7-0.3,1s-0.5,0.5-0.9,0.7c-0.4,0.2-0.9,0.3-1.5,0.3
	C210.5,327.5,210,327.4,209.5,327.2z"/>
<path class="st5" d="M151.7,335v2.8h3.6v0.6h-3.6v3h-0.7v-7h4.8v0.6H151.7z"/>
<path class="st5" d="M157.3,334.4h0.7v7h-0.7V334.4z"/>
<path class="st5" d="M160.3,334.4h0.7v6.4h3.9v0.6h-4.7V334.4z"/>
<path class="st5" d="M170.6,339.5h-3.9l-0.8,1.9h-0.8l3.2-7h0.7l3.2,7h-0.8L170.6,339.5z M170.3,338.9l-1.7-3.8l-1.7,3.8H170.3z"/>
<path class="st5" d="M179.2,334.4v7h-0.6l-4.5-5.7v5.7h-0.7v-7h0.6l4.5,5.7v-5.7H179.2z"/>
<path class="st5" d="M182.8,335h-2.5v-0.6h5.7v0.6h-2.5v6.4h-0.7V335z"/>
<path class="st5" d="M192,341.4l-1.6-2.3c-0.2,0-0.4,0-0.6,0H188v2.2h-0.7v-7h2.6c0.9,0,1.6,0.2,2.1,0.6c0.5,0.4,0.8,1,0.8,1.8
	c0,0.5-0.1,1-0.4,1.4c-0.3,0.4-0.7,0.6-1.2,0.8l1.7,2.4H192z M191.4,338.1c0.4-0.3,0.5-0.7,0.5-1.3c0-0.6-0.2-1-0.5-1.3
	c-0.4-0.3-0.9-0.5-1.6-0.5H188v3.5h1.9C190.5,338.6,191,338.4,191.4,338.1z"/>
<path class="st5" d="M195.6,341c-0.6-0.3-1-0.7-1.3-1.3c-0.3-0.5-0.5-1.1-0.5-1.8c0-0.7,0.2-1.3,0.5-1.8c0.3-0.5,0.8-1,1.3-1.3
	c0.6-0.3,1.2-0.5,1.9-0.5c0.7,0,1.3,0.2,1.9,0.5c0.6,0.3,1,0.7,1.3,1.3c0.3,0.5,0.5,1.2,0.5,1.8c0,0.7-0.2,1.3-0.5,1.8
	c-0.3,0.5-0.8,1-1.3,1.3c-0.6,0.3-1.2,0.5-1.9,0.5C196.8,341.5,196.2,341.3,195.6,341z M199,340.4c0.4-0.3,0.8-0.6,1-1
	s0.4-0.9,0.4-1.5s-0.1-1-0.4-1.5s-0.6-0.8-1-1c-0.4-0.3-0.9-0.4-1.5-0.4c-0.6,0-1.1,0.1-1.5,0.4c-0.4,0.3-0.8,0.6-1.1,1
	c-0.3,0.4-0.4,0.9-0.4,1.5s0.1,1,0.4,1.5c0.3,0.4,0.6,0.8,1.1,1c0.5,0.3,1,0.4,1.5,0.4C198.1,340.8,198.6,340.7,199,340.4z"/>
<path class="st5" d="M207.6,335c0.5,0.4,0.8,1,0.8,1.8c0,0.7-0.3,1.3-0.8,1.8c-0.5,0.4-1.2,0.6-2.1,0.6h-1.9v2.2h-0.7v-7h2.6
	C206.4,334.4,207.1,334.6,207.6,335z M207,338.1c0.4-0.3,0.5-0.7,0.5-1.3c0-0.6-0.2-1-0.5-1.3c-0.4-0.3-0.9-0.5-1.6-0.5h-1.9v3.5
	h1.9C206.1,338.5,206.7,338.4,207,338.1z"/>
<path class="st5" d="M211.2,341c-0.6-0.3-1-0.7-1.3-1.3c-0.3-0.5-0.5-1.1-0.5-1.8c0-0.7,0.2-1.3,0.5-1.8c0.3-0.5,0.8-1,1.3-1.3
	c0.6-0.3,1.2-0.5,1.9-0.5c0.7,0,1.3,0.2,1.9,0.5c0.6,0.3,1,0.7,1.3,1.3c0.3,0.5,0.5,1.2,0.5,1.8c0,0.7-0.2,1.3-0.5,1.8
	c-0.3,0.5-0.8,1-1.3,1.3c-0.6,0.3-1.2,0.5-1.9,0.5C212.4,341.5,211.8,341.3,211.2,341z M214.6,340.4c0.4-0.3,0.8-0.6,1-1
	s0.4-0.9,0.4-1.5s-0.1-1-0.4-1.5s-0.6-0.8-1-1c-0.4-0.3-0.9-0.4-1.5-0.4c-0.6,0-1.1,0.1-1.5,0.4c-0.4,0.3-0.8,0.6-1.1,1
	c-0.3,0.4-0.4,0.9-0.4,1.5s0.1,1,0.4,1.5c0.3,0.4,0.6,0.8,1.1,1c0.5,0.3,1,0.4,1.5,0.4C213.6,340.8,214.1,340.7,214.6,340.4z"/>
<path class="st5" d="M218.8,341.2c-0.5-0.2-0.8-0.4-1.1-0.7l0.3-0.6c0.3,0.3,0.6,0.5,1,0.6c0.4,0.2,0.9,0.2,1.3,0.2
	c0.6,0,1.1-0.1,1.4-0.3c0.3-0.2,0.5-0.5,0.5-0.9c0-0.3-0.1-0.5-0.3-0.7c-0.2-0.2-0.4-0.3-0.6-0.4s-0.6-0.2-1-0.3
	c-0.5-0.1-0.9-0.3-1.3-0.4c-0.3-0.1-0.6-0.3-0.8-0.6c-0.2-0.3-0.3-0.6-0.3-1c0-0.4,0.1-0.7,0.3-1c0.2-0.3,0.5-0.5,0.9-0.7
	c0.4-0.2,0.9-0.3,1.4-0.3c0.4,0,0.8,0.1,1.2,0.2c0.4,0.1,0.7,0.3,1,0.5l-0.3,0.6c-0.3-0.2-0.6-0.3-0.9-0.4c-0.3-0.1-0.7-0.1-1-0.1
	c-0.6,0-1.1,0.1-1.4,0.4c-0.3,0.2-0.5,0.5-0.5,0.9c0,0.3,0.1,0.5,0.3,0.7s0.4,0.3,0.6,0.4c0.3,0.1,0.6,0.2,1,0.3
	c0.5,0.1,0.9,0.3,1.2,0.4s0.6,0.3,0.8,0.6c0.2,0.3,0.3,0.6,0.3,1c0,0.4-0.1,0.7-0.3,1s-0.5,0.5-0.9,0.7c-0.4,0.2-0.9,0.3-1.5,0.3
	C219.8,341.5,219.3,341.4,218.8,341.2z"/>
<path class="st5" d="M241.3,423.5h4v11.9h-4V423.5z"/>
<path class="st5" d="M259,423.5v11.9h-3.3l-4.5-5.4v5.4h-3.9v-11.9h3.3l4.5,5.4v-5.4H259z"/>
<path class="st5" d="M273.6,423.5l-5,11.9h-3.9l-5-11.9h4.3l2.8,6.9l2.9-6.9H273.6z"/>
<path class="st5" d="M284.1,432.3v3h-9.9v-11.9h9.7v3h-5.7v1.4h5v2.9h-5v1.6H284.1z"/>
<path class="st5" d="M287.2,435.3c-0.9-0.2-1.7-0.5-2.3-0.9l1.3-2.9c0.6,0.3,1.2,0.6,1.9,0.8s1.4,0.3,2,0.3c0.6,0,1-0.1,1.2-0.2
	s0.4-0.3,0.4-0.5c0-0.2-0.2-0.4-0.5-0.6c-0.3-0.1-0.8-0.3-1.5-0.4c-0.9-0.2-1.7-0.4-2.3-0.6c-0.6-0.2-1.1-0.6-1.6-1.1
	c-0.5-0.5-0.7-1.2-0.7-2c0-0.7,0.2-1.4,0.6-2c0.4-0.6,1-1.1,1.9-1.4c0.8-0.4,1.8-0.5,3-0.5c0.8,0,1.6,0.1,2.4,0.3s1.5,0.4,2.1,0.8
	l-1.2,2.9c-1.2-0.6-2.3-0.9-3.3-0.9c-1,0-1.5,0.2-1.5,0.7c0,0.2,0.2,0.4,0.5,0.5s0.8,0.2,1.5,0.4c0.9,0.2,1.7,0.4,2.3,0.6
	c0.6,0.2,1.2,0.6,1.6,1.1s0.7,1.2,0.7,2c0,0.7-0.2,1.4-0.6,2c-0.4,0.6-1,1.1-1.9,1.4c-0.8,0.4-1.8,0.5-3,0.5
	C289.1,435.6,288.2,435.5,287.2,435.3z"/>
<path class="st5" d="M299.4,426.6h-3.5v-3.1h11v3.1h-3.5v8.8h-4V426.6z"/>
<path class="st5" d="M307.9,423.5h4v11.9h-4V423.5z"/>
<path class="st5" d="M324.5,435.4l0-5.4l-2.6,4.3h-1.8l-2.6-4.2v5.2h-3.6v-11.9h3.3l3.9,6.3l3.8-6.3h3.3l0,11.9H324.5z"/>
<path class="st5" d="M339.9,432.3v3h-9.9v-11.9h9.7v3H334v1.4h5v2.9h-5v1.6H339.9z"/>
<path class="st5" d="M353.2,423.5v11.9h-3.3l-4.5-5.4v5.4h-3.9v-11.9h3.3l4.5,5.4v-5.4H353.2z"/>
<path class="st5" d="M357.7,426.6h-3.5v-3.1h11v3.1h-3.5v8.8h-4V426.6z"/>
<path class="st5" d="M369,434.8c-1-0.5-1.8-1.3-2.4-2.2c-0.6-0.9-0.9-2-0.9-3.2s0.3-2.3,0.9-3.2s1.4-1.7,2.4-2.2
	c1-0.5,2.2-0.8,3.4-0.8c1.3,0,2.4,0.3,3.4,0.8c1,0.5,1.8,1.3,2.4,2.2s0.9,2,0.9,3.2s-0.3,2.3-0.9,3.2c-0.6,0.9-1.4,1.7-2.4,2.2
	c-1,0.5-2.2,0.8-3.4,0.8C371.2,435.6,370,435.4,369,434.8z M373.8,432c0.4-0.2,0.7-0.6,1-1c0.2-0.4,0.4-1,0.4-1.6s-0.1-1.1-0.4-1.6
	c-0.2-0.4-0.6-0.8-1-1c-0.4-0.2-0.9-0.4-1.3-0.4c-0.5,0-0.9,0.1-1.3,0.4c-0.4,0.2-0.7,0.6-1,1c-0.2,0.4-0.4,1-0.4,1.6
	s0.1,1.1,0.4,1.6c0.2,0.4,0.6,0.8,1,1c0.4,0.2,0.9,0.4,1.3,0.4C373,432.4,373.4,432.3,373.8,432z"/>
<path class="st5" d="M365.8,149.4c-1-0.5-1.8-1.3-2.4-2.2s-0.9-2-0.9-3.2s0.3-2.3,0.9-3.2c0.6-0.9,1.4-1.7,2.4-2.2
	c1-0.5,2.1-0.8,3.4-0.8c1.2,0,2.2,0.2,3.1,0.6c0.9,0.4,1.7,1,2.2,1.8l-2.5,2.3c-0.7-0.9-1.6-1.4-2.6-1.4c-0.8,0-1.5,0.3-2,0.8
	c-0.5,0.5-0.8,1.3-0.8,2.2c0,0.9,0.3,1.6,0.8,2.2c0.5,0.5,1.2,0.8,2,0.8c1,0,1.9-0.5,2.6-1.4l2.5,2.3c-0.6,0.8-1.3,1.4-2.2,1.8
	c-0.9,0.4-1.9,0.6-3.1,0.6C368,150.2,366.8,149.9,365.8,149.4z"/>
<path class="st5" d="M378.5,149.4c-1-0.5-1.8-1.3-2.4-2.2c-0.6-0.9-0.9-2-0.9-3.2c0-1.2,0.3-2.3,0.9-3.2s1.4-1.7,2.4-2.2
	c1-0.5,2.2-0.8,3.4-0.8c1.3,0,2.4,0.3,3.4,0.8c1,0.5,1.8,1.3,2.4,2.2s0.9,2,0.9,3.2c0,1.2-0.3,2.3-0.9,3.2c-0.6,0.9-1.4,1.7-2.4,2.2
	s-2.2,0.8-3.4,0.8C380.6,150.2,379.5,149.9,378.5,149.4z M383.3,146.6c0.4-0.2,0.7-0.6,1-1c0.2-0.4,0.4-1,0.4-1.6
	c0-0.6-0.1-1.1-0.4-1.6c-0.2-0.4-0.6-0.8-1-1c-0.4-0.2-0.9-0.4-1.3-0.4c-0.5,0-0.9,0.1-1.3,0.4c-0.4,0.2-0.7,0.6-1,1
	c-0.2,0.4-0.4,1-0.4,1.6c0,0.6,0.1,1.1,0.4,1.6c0.2,0.4,0.6,0.8,1,1c0.4,0.2,0.9,0.4,1.3,0.4C382.4,147,382.9,146.8,383.3,146.6z"/>
<path class="st5" d="M400.7,149.9l0-5.4l-2.6,4.3h-1.8l-2.6-4.2v5.2h-3.6v-11.9h3.3l3.9,6.3l3.8-6.3h3.3l0,11.9H400.7z"/>
<path class="st5" d="M407.7,148.7c-1-1-1.5-2.4-1.5-4.1v-6.5h4v6.4c0,0.9,0.2,1.5,0.5,1.9c0.3,0.4,0.8,0.6,1.3,0.6s1-0.2,1.3-0.6
	c0.3-0.4,0.5-1,0.5-1.9v-6.4h3.9v6.5c0,1.8-0.5,3.2-1.5,4.1c-1,1-2.4,1.5-4.3,1.5S408.7,149.7,407.7,148.7z"/>
<path class="st5" d="M431.3,138.1v11.9H428l-4.5-5.4v5.4h-3.9v-11.9h3.3l4.5,5.4v-5.4H431.3z"/>
<path class="st5" d="M433.2,138.1h4v11.9h-4V138.1z"/>
<path class="st5" d="M439.2,138.1h5.9c1.3,0,2.5,0.2,3.5,0.7s1.8,1.2,2.4,2.1c0.6,0.9,0.8,1.9,0.8,3.2s-0.3,2.3-0.8,3.2
	c-0.6,0.9-1.3,1.6-2.4,2.1c-1,0.5-2.2,0.7-3.5,0.7h-5.9V138.1z M444.9,146.8c0.9,0,1.5-0.2,2.1-0.7c0.5-0.5,0.8-1.2,0.8-2.1
	s-0.3-1.6-0.8-2.1c-0.5-0.5-1.2-0.7-2.1-0.7h-1.7v5.6H444.9z"/>
<path class="st5" d="M461.3,147.9h-4.5l-0.8,2.1h-4.1l5.2-11.9h3.9l5.2,11.9h-4.1L461.3,147.9z M460.2,145l-1.2-3l-1.2,3H460.2z"/>
<path class="st5" d="M466.9,138.1h5.9c1.3,0,2.5,0.2,3.5,0.7s1.8,1.2,2.4,2.1c0.6,0.9,0.8,1.9,0.8,3.2s-0.3,2.3-0.8,3.2
	c-0.6,0.9-1.3,1.6-2.4,2.1c-1,0.5-2.2,0.7-3.5,0.7h-5.9V138.1z M472.6,146.8c0.9,0,1.5-0.2,2.1-0.7c0.5-0.5,0.8-1.2,0.8-2.1
	s-0.3-1.6-0.8-2.1c-0.5-0.5-1.2-0.7-2.1-0.7h-1.7v5.6H472.6z"/>
<path class="st5" d="M490.8,146.9v3h-9.9v-11.9h9.7v3h-5.7v1.4h5v2.9h-5v1.6H490.8z"/>
<path class="st5" d="M150.7,149.9l0-5.4l-2.6,4.3h-1.8l-2.6-4.2v5.2h-3.6v-11.9h3.3l3.9,6.3l3.8-6.3h3.3l0,11.9H150.7z"/>
<path class="st5" d="M166.2,146.9v3h-9.9v-11.9h9.7v3h-5.7v1.4h5v2.9h-5v1.6H166.2z"/>
<path class="st5" d="M172.8,146.9h-1.1v3h-4v-11.9h5.7c1.1,0,2.1,0.2,2.9,0.5s1.4,0.9,1.9,1.6s0.7,1.5,0.7,2.4
	c0,0.8-0.2,1.6-0.6,2.2s-0.9,1.1-1.7,1.5l2.5,3.7h-4.3L172.8,146.9z M174.4,141.5c-0.3-0.2-0.7-0.4-1.2-0.4h-1.5v2.8h1.5
	c0.5,0,1-0.1,1.2-0.4c0.3-0.2,0.4-0.6,0.4-1C174.8,142.1,174.7,141.8,174.4,141.5z"/>
<path class="st5" d="M183.1,149.4c-1-0.5-1.8-1.3-2.4-2.2c-0.6-0.9-0.9-2-0.9-3.2s0.3-2.3,0.9-3.2c0.6-0.9,1.4-1.7,2.4-2.2
	c1-0.5,2.1-0.8,3.4-0.8c1.2,0,2.2,0.2,3.1,0.6c0.9,0.4,1.7,1,2.2,1.8l-2.5,2.3c-0.7-0.9-1.6-1.4-2.6-1.4c-0.8,0-1.5,0.3-2,0.8
	s-0.8,1.3-0.8,2.2c0,0.9,0.3,1.6,0.8,2.2c0.5,0.5,1.2,0.8,2,0.8c1,0,1.9-0.5,2.6-1.4l2.5,2.3c-0.6,0.8-1.3,1.4-2.2,1.8
	c-0.9,0.4-1.9,0.6-3.1,0.6C185.2,150.2,184.1,149.9,183.1,149.4z"/>
<path class="st5" d="M201.1,147.9h-4.5l-0.8,2.1h-4.1l5.2-11.9h3.9l5.2,11.9h-4.1L201.1,147.9z M200,145l-1.2-3l-1.2,3H200z"/>
<path class="st5" d="M206.7,138.1h5.9c1.3,0,2.5,0.2,3.5,0.7c1,0.5,1.8,1.2,2.4,2.1c0.6,0.9,0.8,1.9,0.8,3.2s-0.3,2.3-0.8,3.2
	c-0.6,0.9-1.3,1.6-2.4,2.1c-1,0.5-2.2,0.7-3.5,0.7h-5.9V138.1z M212.3,146.8c0.9,0,1.5-0.2,2.1-0.7c0.5-0.5,0.8-1.2,0.8-2.1
	s-0.3-1.6-0.8-2.1c-0.5-0.5-1.2-0.7-2.1-0.7h-1.7v5.6H212.3z"/>
<path class="st5" d="M223.5,149.4c-1-0.5-1.8-1.3-2.4-2.2c-0.6-0.9-0.9-2-0.9-3.2c0-1.2,0.3-2.3,0.9-3.2s1.4-1.7,2.4-2.2
	c1-0.5,2.2-0.8,3.4-0.8s2.4,0.3,3.4,0.8c1,0.5,1.8,1.3,2.4,2.2s0.9,2,0.9,3.2c0,1.2-0.3,2.3-0.9,3.2c-0.6,0.9-1.4,1.7-2.4,2.2
	s-2.2,0.8-3.4,0.8S224.5,149.9,223.5,149.4z M228.3,146.6c0.4-0.2,0.7-0.6,1-1c0.2-0.4,0.4-1,0.4-1.6c0-0.6-0.1-1.1-0.4-1.6
	c-0.2-0.4-0.6-0.8-1-1s-0.9-0.4-1.3-0.4s-0.9,0.1-1.3,0.4s-0.7,0.6-1,1c-0.2,0.4-0.4,1-0.4,1.6c0,0.6,0.1,1.1,0.4,1.6
	c0.2,0.4,0.6,0.8,1,1c0.4,0.2,0.9,0.4,1.3,0.4S227.9,146.8,228.3,146.6z"/>
</svg>
