<?xml version="1.0" encoding="utf-8"?>
<!-- Generator: Adobe Illustrator 24.2.0, SVG Export Plug-In . SVG Version: 6.00 Build 0)  -->
<svg version="1.1" id="grafico_2" xmlns="http://www.w3.org/2000/svg" xmlns:xlink="http://www.w3.org/1999/xlink" x="0px" y="0px"
	 viewBox="0 0 400 400" style="enable-background:new 0 0 400 400;" xml:space="preserve">
<style type="text/css">
	.st0{fill:#F1F2F2;}
	.st1{fill:#D1D3D4;}
	.st2{fill:#7495DA;}
	.st3{fill:#DCB7FC;}
	.st4{fill:#606060;}
	.st5{fill:#FDD46A;}
	.st6{stroke:#FFFFFF;stroke-width:0.5;stroke-miterlimit:10;}
</style>
<circle class="st0" cx="200" cy="199.7" r="197.5"/>
<circle class="st1" cx="200" cy="199.7" r="195"/>
<path class="st2" d="M200,199.7L186.6,8c4.2-0.3,9.2-0.5,13.4-0.5V199.7z"/>
<path class="st3" d="M200,199.7L150.3,14c12.3-3.3,23.6-5.2,36.3-6.1L200,199.7z"/>
<path class="st4" d="M200,199.7L71.4,56.9c23.7-21.3,48.1-34.6,78.9-42.8L200,199.7z"/>
<path class="st5" d="M200,199.7V7.5c106.1,0,192.2,86,192.2,192.2s-86,192.2-192.2,192.2S7.8,305.8,7.8,199.7
	c0-57.3,21-104.5,63.6-142.8L200,199.7z"/>
<path class="st6" d="M218.9,80v25.2h-8.5V86.4h-4.3V80H218.9z"/>
<path class="st6" d="M223.4,91.8c-1.2-1.2-1.9-3-1.9-5.1c0-1.5,0.3-2.7,0.9-3.8s1.4-1.9,2.4-2.4c1-0.6,2.2-0.8,3.4-0.8
	s2.4,0.3,3.4,0.8c1,0.6,1.8,1.4,2.4,2.4s0.9,2.3,0.9,3.8c0,2.2-0.6,3.9-1.9,5.1c-1.2,1.2-2.9,1.9-4.8,1.9S224.6,93,223.4,91.8z
	 M243,80h6.1l-17.2,25.2h-6.1L243,80z M229.4,89c0.3-0.5,0.5-1.3,0.5-2.4s-0.1-1.9-0.5-2.4c-0.3-0.5-0.7-0.7-1.1-0.7
	s-0.8,0.2-1.1,0.7s-0.5,1.3-0.5,2.4s0.1,1.9,0.5,2.4c0.3,0.5,0.7,0.7,1.1,0.7S229.1,89.5,229.4,89z M241.9,103.6
	c-1.2-1.2-1.9-3-1.9-5.1c0-1.5,0.3-2.7,0.9-3.8c0.6-1.1,1.4-1.9,2.4-2.4c1-0.6,2.2-0.8,3.4-0.8c1.3,0,2.4,0.3,3.4,0.8
	c1,0.6,1.8,1.4,2.4,2.4c0.6,1.1,0.9,2.3,0.9,3.8c0,2.2-0.6,3.9-1.9,5.1c-1.3,1.2-2.9,1.9-4.8,1.9
	C244.7,105.5,243.1,104.9,241.9,103.6z M247.8,100.9c0.3-0.5,0.5-1.3,0.5-2.4s-0.2-1.9-0.5-2.4s-0.7-0.7-1.1-0.7
	c-0.5,0-0.8,0.2-1.1,0.7s-0.4,1.3-0.4,2.4s0.1,1.9,0.4,2.4c0.3,0.5,0.7,0.7,1.1,0.7S247.5,101.4,247.8,100.9z"/>
<path class="st6" d="M192.3,51c1,1.3,1.6,2.8,1.6,4.6c0,1.5-0.4,2.9-1.2,4.2s-2.1,2.4-3.8,3.2s-3.9,1.2-6.4,1.2
	c-1.8,0-3.5-0.2-5.3-0.6s-3.3-0.9-4.6-1.7l2.9-6.3c1,0.6,2.1,1.1,3.3,1.4c1.2,0.3,2.3,0.5,3.4,0.5c1,0,1.8-0.2,2.4-0.5
	c0.6-0.3,0.9-0.8,0.9-1.4c0-1.2-1-1.7-3-1.7H179v-5.2l3.7-3.8h-9v-6.4h18.8v5.2l-4.7,4.8C189.8,48.9,191.3,49.8,192.3,51z"/>
<path class="st6" d="M196.8,50.2c-1.2-1.2-1.9-3-1.9-5.1c0-1.5,0.3-2.7,0.9-3.8c0.6-1.1,1.4-1.9,2.4-2.4c1-0.6,2.2-0.8,3.4-0.8
	c1.3,0,2.4,0.3,3.4,0.8c1,0.6,1.8,1.4,2.4,2.4c0.6,1.1,0.9,2.3,0.9,3.8c0,2.2-0.6,3.9-1.9,5.1c-1.2,1.2-2.9,1.9-4.8,1.9
	C199.7,52.1,198.1,51.5,196.8,50.2z M216.4,38.4h6.1l-17.2,25.2h-6.1L216.4,38.4z M202.8,47.5c0.3-0.5,0.5-1.3,0.5-2.4
	c0-1.1-0.2-1.9-0.5-2.4s-0.7-0.7-1.1-0.7c-0.5,0-0.8,0.2-1.1,0.7s-0.4,1.3-0.4,2.4c0,1.1,0.1,1.9,0.4,2.4c0.3,0.5,0.7,0.7,1.1,0.7
	S202.5,48,202.8,47.5z M215.3,62.1c-1.2-1.2-1.9-3-1.9-5.1c0-1.5,0.3-2.7,0.9-3.8c0.6-1.1,1.4-1.9,2.4-2.4c1-0.6,2.2-0.8,3.4-0.8
	c1.3,0,2.4,0.3,3.4,0.8c1,0.6,1.8,1.4,2.4,2.4c0.6,1.1,0.9,2.3,0.9,3.8c0,2.2-0.6,3.9-1.9,5.1c-1.2,1.2-2.9,1.9-4.8,1.9
	C218.1,64,216.5,63.4,215.3,62.1z M221.2,59.4c0.3-0.5,0.5-1.3,0.5-2.4c0-1.1-0.2-1.9-0.5-2.4s-0.7-0.7-1.1-0.7
	c-0.5,0-0.8,0.2-1.1,0.7s-0.5,1.3-0.5,2.4c0,1.1,0.1,1.9,0.5,2.4c0.3,0.5,0.7,0.7,1.1,0.7C220.6,60.1,220.9,59.9,221.2,59.4z"/>
<path class="st6" d="M66.4,126.9v5.2l-8.4,20h-9.3l8-18.6h-4.9v3.7h-7v-10.3C44.8,126.9,66.4,126.9,66.4,126.9z"/>
<path class="st6" d="M67.8,151.2c-0.9-0.9-1.3-2-1.3-3.4s0.4-2.5,1.3-3.3c0.9-0.9,2-1.3,3.4-1.3s2.5,0.4,3.4,1.3
	c0.9,0.9,1.4,2,1.4,3.3c0,1.4-0.5,2.5-1.4,3.4s-2,1.3-3.4,1.3S68.7,152.1,67.8,151.2z"/>
<path class="st6" d="M95.8,138.1c1.7,1.5,2.5,3.4,2.5,5.8c0,1.6-0.4,3-1.2,4.4c-0.8,1.3-2.1,2.4-3.8,3.2s-3.9,1.2-6.4,1.2
	c-1.8,0-3.5-0.2-5.3-0.6c-1.8-0.4-3.3-0.9-4.6-1.7l2.9-6.3c1.1,0.6,2.2,1.1,3.3,1.4c1.2,0.3,2.3,0.5,3.4,0.5c1,0,1.8-0.2,2.4-0.5
	s0.9-0.8,0.9-1.5c0-0.6-0.3-1-0.8-1.4c-0.6-0.3-1.5-0.4-3-0.4h-7.3l1.3-15.3h16.7v6.4H87l-0.2,2.5H88
	C91.5,135.8,94.1,136.6,95.8,138.1z"/>
<path class="st6" d="M101,138.8c-1.2-1.2-1.9-3-1.9-5.1c0-1.5,0.3-2.7,0.9-3.8s1.4-1.9,2.4-2.4c1-0.6,2.2-0.8,3.4-0.8
	c1.3,0,2.4,0.3,3.4,0.8c1,0.6,1.8,1.4,2.4,2.4s0.9,2.3,0.9,3.8c0,2.2-0.6,3.9-1.9,5.1c-1.2,1.2-2.9,1.9-4.8,1.9
	C103.9,140.6,102.3,140,101,138.8z M120.7,126.9h6.1l-17.2,25.2h-6.1L120.7,126.9z M107,136c0.3-0.5,0.5-1.3,0.5-2.4
	c0-1.1-0.1-1.9-0.5-2.4c-0.3-0.5-0.7-0.7-1.1-0.7c-0.5,0-0.8,0.2-1.1,0.7c-0.3,0.5-0.5,1.3-0.5,2.4c0,1.1,0.1,1.9,0.5,2.4
	c0.3,0.5,0.7,0.7,1.1,0.7S106.7,136.5,107,136z M119.5,150.6c-1.2-1.2-1.9-3-1.9-5.1c0-1.5,0.3-2.7,0.9-3.8s1.4-1.9,2.4-2.4
	c1-0.6,2.2-0.8,3.4-0.8c1.3,0,2.4,0.3,3.4,0.8c1,0.6,1.8,1.4,2.4,2.4c0.6,1.1,0.9,2.3,0.9,3.8c0,2.2-0.6,3.9-1.9,5.1
	c-1.2,1.2-2.9,1.9-4.8,1.9S120.7,151.9,119.5,150.6z M125.5,147.9c0.3-0.5,0.5-1.3,0.5-2.4c0-1.1-0.2-1.9-0.5-2.4s-0.7-0.7-1.1-0.7
	c-0.5,0-0.8,0.2-1.1,0.7c-0.3,0.5-0.5,1.3-0.5,2.4c0,1.1,0.1,1.9,0.5,2.4c0.3,0.5,0.7,0.7,1.1,0.7
	C124.8,148.6,125.2,148.4,125.5,147.9z"/>
<path class="st6" d="M221.2,291.9c0.6,1,0.9,2.1,0.9,3.3c0,1.6-0.5,3-1.4,4.2s-2.3,2.2-4,2.8s-3.7,1-5.9,1s-4.2-0.3-5.9-1
	s-3-1.6-4-2.8c-0.9-1.2-1.4-2.6-1.4-4.2c0-1.2,0.3-2.4,0.9-3.3c0.6-1,1.4-1.8,2.5-2.5c-1.7-1.3-2.5-3-2.5-5c0-1.5,0.4-2.8,1.3-4
	c0.9-1.1,2.1-2,3.7-2.6c1.6-0.6,3.4-0.9,5.4-0.9s3.8,0.3,5.4,0.9c1.6,0.6,2.8,1.5,3.7,2.6s1.3,2.4,1.3,4c0,2-0.8,3.6-2.5,5
	C219.8,290.1,220.6,291,221.2,291.9z M212.8,296.9c0.5-0.5,0.8-1.1,0.8-1.9s-0.3-1.4-0.8-1.9s-1.2-0.7-2-0.7s-1.5,0.2-2,0.7
	s-0.8,1.1-0.8,1.9s0.3,1.4,0.8,1.9s1.2,0.7,2,0.7S212.3,297.4,212.8,296.9z M209.3,283.3c-0.4,0.4-0.6,0.9-0.6,1.6s0.2,1.2,0.6,1.6
	c0.4,0.4,0.9,0.6,1.5,0.6s1.1-0.2,1.5-0.6s0.6-0.9,0.6-1.6s-0.2-1.2-0.6-1.6c-0.4-0.4-0.9-0.6-1.5-0.6
	C210.2,282.7,209.7,282.9,209.3,283.3z"/>
<path class="st6" d="M245.6,291.9c0.6,1,0.9,2.1,0.9,3.3c0,1.6-0.5,3-1.4,4.2s-2.3,2.2-4,2.8s-3.7,1-5.9,1s-4.2-0.3-5.9-1
	s-3-1.6-4-2.8c-0.9-1.2-1.4-2.6-1.4-4.2c0-1.2,0.3-2.4,0.9-3.3c0.6-1,1.4-1.8,2.5-2.5c-1.7-1.3-2.5-3-2.5-5c0-1.5,0.4-2.8,1.3-4
	c0.9-1.1,2.1-2,3.7-2.6c1.6-0.6,3.4-0.9,5.4-0.9s3.8,0.3,5.4,0.9c1.6,0.6,2.8,1.5,3.7,2.6s1.3,2.4,1.3,4c0,2-0.8,3.6-2.5,5
	C244.2,290.1,245,291,245.6,291.9z M237.2,296.9c0.5-0.5,0.8-1.1,0.8-1.9s-0.3-1.4-0.8-1.9s-1.2-0.7-2-0.7s-1.5,0.2-2,0.7
	s-0.8,1.1-0.8,1.9s0.3,1.4,0.8,1.9s1.2,0.7,2,0.7S236.7,297.4,237.2,296.9z M233.7,283.3c-0.4,0.4-0.6,0.9-0.6,1.6s0.2,1.2,0.6,1.6
	c0.4,0.4,0.9,0.6,1.5,0.6s1.1-0.2,1.5-0.6s0.6-0.9,0.6-1.6s-0.2-1.2-0.6-1.6c-0.4-0.4-0.9-0.6-1.5-0.6
	C234.6,282.7,234.1,282.9,233.7,283.3z"/>
<path class="st6" d="M249.8,301.8c-0.9-0.9-1.4-2-1.4-3.4s0.5-2.5,1.4-3.3c0.9-0.9,2-1.3,3.4-1.3s2.5,0.4,3.4,1.3
	c0.9,0.9,1.3,2,1.3,3.3c0,1.4-0.4,2.5-1.3,3.4s-2,1.3-3.4,1.3S250.7,302.7,249.8,301.8z"/>
<path class="st6" d="M277.8,288.7c1.7,1.5,2.5,3.4,2.5,5.8c0,1.6-0.4,3-1.2,4.4c-0.8,1.3-2.1,2.4-3.8,3.2c-1.7,0.8-3.9,1.2-6.4,1.2
	c-1.8,0-3.5-0.2-5.3-0.6s-3.3-0.9-4.6-1.7l2.9-6.3c1.1,0.6,2.2,1.1,3.3,1.4c1.2,0.3,2.3,0.5,3.4,0.5c1,0,1.8-0.2,2.4-0.5
	s0.9-0.8,0.9-1.5c0-0.6-0.3-1-0.8-1.4c-0.6-0.3-1.5-0.4-3-0.4h-7.3l1.3-15.3h16.7v6.4H269l-0.2,2.5h1.3
	C273.6,286.5,276.2,287.2,277.8,288.7z"/>
<path class="st6" d="M283.1,289.4c-1.2-1.2-1.9-3-1.9-5.1c0-1.5,0.3-2.7,0.9-3.8c0.6-1.1,1.4-1.9,2.4-2.4c1-0.6,2.2-0.8,3.4-0.8
	c1.3,0,2.4,0.3,3.4,0.8c1,0.6,1.8,1.4,2.4,2.4c0.6,1.1,0.9,2.3,0.9,3.8c0,2.2-0.6,3.9-1.9,5.1c-1.2,1.2-2.9,1.9-4.8,1.9
	C285.9,291.2,284.3,290.6,283.1,289.4z M302.7,277.6h6.1l-17.2,25.2h-6.1L302.7,277.6z M289,286.6c0.3-0.5,0.5-1.3,0.5-2.4
	s-0.2-1.9-0.5-2.4s-0.7-0.7-1.1-0.7c-0.5,0-0.8,0.2-1.1,0.7c-0.3,0.5-0.4,1.3-0.4,2.4s0.1,1.9,0.4,2.4s0.7,0.7,1.1,0.7
	C288.4,287.4,288.7,287.1,289,286.6z M301.6,301.2c-1.2-1.2-1.9-3-1.9-5.1c0-1.5,0.3-2.7,0.9-3.8c0.6-1.1,1.4-1.9,2.4-2.4
	c1-0.6,2.2-0.8,3.4-0.8c1.3,0,2.4,0.3,3.4,0.8c1,0.6,1.8,1.4,2.4,2.4c0.6,1.1,0.9,2.3,0.9,3.8c0,2.2-0.6,3.9-1.9,5.1
	c-1.2,1.2-2.9,1.9-4.8,1.9C304.4,303.1,302.8,302.5,301.6,301.2z M307.5,298.5c0.3-0.5,0.5-1.3,0.5-2.4s-0.2-1.9-0.5-2.4
	s-0.7-0.7-1.1-0.7c-0.5,0-0.8,0.2-1.1,0.7c-0.3,0.5-0.5,1.3-0.5,2.4s0.1,1.9,0.5,2.4c0.3,0.5,0.7,0.7,1.1,0.7S307.2,299,307.5,298.5
	z"/>
</svg>
