<?xml version="1.0" encoding="utf-8"?>
<!-- Generator: Adobe Illustrator 24.2.0, SVG Export Plug-In . SVG Version: 6.00 Build 0)  -->
<svg version="1.1" id="grafico_3" xmlns="http://www.w3.org/2000/svg" xmlns:xlink="http://www.w3.org/1999/xlink" x="0px" y="0px"
	 viewBox="0 0 400 400" style="enable-background:new 0 0 400 400;" xml:space="preserve">
<style type="text/css">
	.st0{fill:#F1F2F2;}
	.st1{fill:#D1D3D4;}
	.st2{fill:#22B573;}
	.st3{fill:#DCB7FC;}
	.st4{fill:#606060;}
	.st5{fill:#FDD46A;}
	.st6{fill:#FFFFFF;}
</style>
<circle class="st0" cx="200" cy="200" r="197.5"/>
<circle class="st1" cx="200" cy="199.7" r="195"/>
<path class="st2" d="M200,199.7L186.6,8c4.2-0.3,9.2-0.5,13.4-0.5V199.7z"/>
<path class="st3" d="M200,199.7L150.3,14c12.3-3.3,23.6-5.2,36.3-6.1L200,199.7z"/>
<path class="st4" d="M200,199.7L71.4,56.9c23.7-21.3,48.1-34.6,78.9-42.8L200,199.7z"/>
<path class="st5" d="M200,199.7V7.5c106.1,0,192.2,86,192.2,192.2s-86,192.2-192.2,192.2S7.8,305.8,7.8,199.7
	c0-57.3,21-104.5,63.6-142.8L200,199.7z"/>
<path d="M218.9,80v25.2h-8.5V86.4h-4.3V80H218.9z"/>
<path class="st6" d="M219.2,105.5h-9V86.6h-4.3v-6.9h13.3V105.5z M210.7,105h8V80.3h-12.3v5.9h4.3V105z"/>
<path d="M223.4,91.8c-1.2-1.2-1.9-3-1.9-5.1c0-1.5,0.3-2.7,0.9-3.8s1.4-1.9,2.4-2.4c1-0.6,2.2-0.8,3.4-0.8s2.4,0.3,3.4,0.8
	c1,0.6,1.8,1.4,2.4,2.4s0.9,2.3,0.9,3.8c0,2.2-0.6,3.9-1.9,5.1c-1.2,1.2-2.9,1.9-4.8,1.9S224.6,93,223.4,91.8z M243,80h6.1
	l-17.2,25.2h-6.1L243,80z M229.4,89c0.3-0.5,0.5-1.3,0.5-2.4s-0.1-1.9-0.5-2.4c-0.3-0.5-0.7-0.7-1.1-0.7s-0.8,0.2-1.1,0.7
	s-0.5,1.3-0.5,2.4s0.1,1.9,0.5,2.4c0.3,0.5,0.7,0.7,1.1,0.7S229.1,89.5,229.4,89z M241.9,103.6c-1.2-1.2-1.9-3-1.9-5.1
	c0-1.5,0.3-2.7,0.9-3.8c0.6-1.1,1.4-1.9,2.4-2.4c1-0.6,2.2-0.8,3.4-0.8c1.3,0,2.4,0.3,3.4,0.8c1,0.6,1.8,1.4,2.4,2.4
	c0.6,1.1,0.9,2.3,0.9,3.8c0,2.2-0.6,3.9-1.9,5.1c-1.3,1.2-2.9,1.9-4.8,1.9C244.7,105.5,243.1,104.9,241.9,103.6z M247.8,100.9
	c0.3-0.5,0.5-1.3,0.5-2.4s-0.2-1.9-0.5-2.4s-0.7-0.7-1.1-0.7c-0.5,0-0.8,0.2-1.1,0.7s-0.4,1.3-0.4,2.4s0.1,1.9,0.4,2.4
	c0.3,0.5,0.7,0.7,1.1,0.7S247.5,101.4,247.8,100.9z"/>
<path class="st6" d="M246.7,105.8c-2.1,0-3.8-0.6-5-2c-1.3-1.3-2-3.1-2-5.3c0-1.5,0.3-2.8,0.9-3.9c0.6-1.1,1.5-2,2.5-2.5
	c0.9-0.5,2.1-0.8,3.5-0.8c1.3,0,2.4,0.3,3.5,0.8c1,0.6,1.9,1.5,2.5,2.5c0.6,1.2,0.9,2.4,0.9,3.9c0,2.3-0.6,4.1-2,5.3
	C250.3,105.1,248.6,105.8,246.7,105.8z M246.7,91.8c-1.3,0-2.4,0.3-3.3,0.8c-1,0.5-1.7,1.3-2.3,2.3c-0.6,1.1-0.9,2.3-0.9,3.7
	c0,2,0.6,3.7,1.8,4.9l0,0c1.1,1.2,2.6,1.8,4.6,1.8c1.8,0,3.3-0.6,4.6-1.8c1.2-1.1,1.8-2.7,1.8-4.9c0-1.4-0.3-2.6-0.9-3.7
	c-0.6-1-1.3-1.7-2.3-2.3C248.9,92,247.9,91.8,246.7,91.8z M232,105.5h-6.7l0.3-0.4l17.3-25.3h6.7l-0.3,0.4L232,105.5z M226.3,105
	h5.5l16.9-24.7h-5.5L226.3,105z M246.7,101.9c-0.5,0-1-0.3-1.3-0.8s-0.4-1.3-0.4-2.5s0.1-2,0.4-2.5c0.4-0.6,0.7-0.8,1.3-0.8
	c0.5,0,1,0.3,1.3,0.8c0.3,0.6,0.5,1.5,0.5,2.5s-0.2,1.9-0.5,2.5C247.7,101.6,247.2,101.9,246.7,101.9z M246.7,95.6
	c-0.4,0-0.6,0.1-0.9,0.6c-0.3,0.4-0.4,1.1-0.4,2.3s0.1,1.9,0.4,2.3c0.2,0.4,0.5,0.6,0.9,0.6s0.7-0.2,0.9-0.6
	c0.3-0.5,0.5-1.3,0.5-2.3s-0.2-1.8-0.5-2.3C247.4,95.9,247.1,95.6,246.7,95.6z M228.2,94c-1.9,0-3.7-0.7-5-2l0,0
	c-1.3-1.3-2-3.1-2-5.3c0-1.5,0.3-2.8,0.9-3.9c0.6-1.1,1.5-2,2.5-2.5c0.9-0.5,2.1-0.8,3.5-0.8c1.2,0,2.4,0.3,3.5,0.8
	c1,0.6,1.9,1.5,2.5,2.5s0.9,2.4,0.9,3.9c0,2.3-0.6,4.1-2,5.3C231.9,93.2,230.1,94,228.2,94z M228.2,80c-1.3,0-2.4,0.3-3.3,0.8
	c-1,0.5-1.7,1.3-2.3,2.3c-0.6,1.1-0.9,2.3-0.9,3.7c0,2,0.6,3.7,1.8,4.9l0,0c1.2,1.2,2.8,1.8,4.6,1.8s3.4-0.6,4.6-1.8
	c1.2-1.1,1.8-2.7,1.8-4.9c0-1.5-0.3-2.7-0.9-3.7c-0.6-1-1.4-1.7-2.3-2.3C230.5,80.2,229.3,80,228.2,80z M228.3,90
	c-0.5,0-1-0.3-1.3-0.8c-0.5-0.6-0.5-1.6-0.5-2.5c0-1.1,0.2-1.9,0.5-2.5c0.3-0.5,0.8-0.8,1.3-0.8s1,0.3,1.3,0.8
	c0.5,0.6,0.5,1.6,0.5,2.5c0,1.1-0.2,1.9-0.5,2.5l0,0C229.3,89.7,228.8,90,228.3,90z M228.3,83.8c-0.4,0-0.7,0.2-0.9,0.6
	c-0.3,0.5-0.5,1.3-0.5,2.3c0,1.2,0.1,1.8,0.4,2.2c0.5,0.8,1.3,0.8,1.8,0c0.3-0.5,0.5-1.3,0.5-2.3c0-1.2-0.1-1.8-0.4-2.2
	C229,83.9,228.7,83.8,228.3,83.8z"/>
<path d="M192.3,51c1,1.3,1.6,2.8,1.6,4.6c0,1.5-0.4,2.9-1.2,4.2s-2.1,2.4-3.8,3.2s-3.9,1.2-6.4,1.2c-1.8,0-3.5-0.2-5.3-0.6
	s-3.3-0.9-4.6-1.7l2.9-6.3c1,0.6,2.1,1.1,3.3,1.4c1.2,0.3,2.3,0.5,3.4,0.5c1,0,1.8-0.2,2.4-0.5c0.6-0.3,0.9-0.8,0.9-1.4
	c0-1.2-1-1.7-3-1.7H179v-5.2l3.7-3.8h-9v-6.4h18.8v5.2l-4.7,4.8C189.8,48.9,191.3,49.8,192.3,51z"/>
<path class="st6" d="M182.5,64.5c-1.8,0-3.5-0.2-5.4-0.6c-2-0.4-3.5-1-4.7-1.7l-0.2-0.1l3.1-6.8l0.2,0.1c1.1,0.6,2.2,1.1,3.2,1.4
	c1.4,0.3,2.4,0.5,3.3,0.5c0.9,0,1.7-0.2,2.3-0.5c0.5-0.2,0.8-0.7,0.8-1.2c0-0.7-0.3-1.5-2.8-1.5h-3.8v-5.6l3.4-3.4h-8.7v-6.9h19.3
	v5.6l-4.5,4.6c1.8,0.4,3.2,1.3,4.2,2.5l0,0c1.1,1.4,1.7,3,1.7,4.8c0,1.5-0.4,3-1.2,4.3s-2.2,2.5-3.9,3.3
	C187.3,64,185.1,64.5,182.5,64.5z M172.9,61.8c1.1,0.7,2.5,1.1,4.3,1.6c1.8,0.4,3.5,0.6,5.2,0.6c2.5,0,4.7-0.4,6.3-1.2
	s2.9-1.8,3.7-3.1s1.2-2.6,1.2-4.1c0-1.6-0.5-3.1-1.5-4.4c-1-1.2-2.5-2-4.4-2.4l-0.5-0.1l5-5.1v-4.8H174v5.9h9.3l-4,4.2v4.8h3.3
	c1.4,0,3.3,0.2,3.3,2c0,0.7-0.4,1.3-1,1.6c-0.7,0.3-1.6,0.5-2.5,0.5c-1,0-2.1-0.2-3.5-0.5c-1-0.3-2.1-0.7-3.1-1.3L172.9,61.8z"/>
<path d="M196.8,50.2c-1.2-1.2-1.9-3-1.9-5.1c0-1.5,0.3-2.7,0.9-3.8c0.6-1.1,1.4-1.9,2.4-2.4c1-0.6,2.2-0.8,3.4-0.8
	c1.3,0,2.4,0.3,3.4,0.8c1,0.6,1.8,1.4,2.4,2.4c0.6,1.1,0.9,2.3,0.9,3.8c0,2.2-0.6,3.9-1.9,5.1c-1.2,1.2-2.9,1.9-4.8,1.9
	C199.7,52.1,198.1,51.5,196.8,50.2z M216.4,38.4h6.1l-17.2,25.2h-6.1L216.4,38.4z M202.8,47.5c0.3-0.5,0.5-1.3,0.5-2.4
	c0-1.1-0.2-1.9-0.5-2.4s-0.7-0.7-1.1-0.7c-0.5,0-0.8,0.2-1.1,0.7s-0.4,1.3-0.4,2.4c0,1.1,0.1,1.9,0.4,2.4c0.3,0.5,0.7,0.7,1.1,0.7
	S202.5,48,202.8,47.5z M215.3,62.1c-1.2-1.2-1.9-3-1.9-5.1c0-1.5,0.3-2.7,0.9-3.8c0.6-1.1,1.4-1.9,2.4-2.4c1-0.6,2.2-0.8,3.4-0.8
	c1.3,0,2.4,0.3,3.4,0.8c1,0.6,1.8,1.4,2.4,2.4c0.6,1.1,0.9,2.3,0.9,3.8c0,2.2-0.6,3.9-1.9,5.1c-1.2,1.2-2.9,1.9-4.8,1.9
	C218.1,64,216.5,63.4,215.3,62.1z M221.2,59.4c0.3-0.5,0.5-1.3,0.5-2.4c0-1.1-0.2-1.9-0.5-2.4s-0.7-0.7-1.1-0.7
	c-0.5,0-0.8,0.2-1.1,0.7s-0.5,1.3-0.5,2.4c0,1.1,0.1,1.9,0.5,2.4c0.3,0.5,0.7,0.7,1.1,0.7C220.6,60.1,220.9,59.9,221.2,59.4z"/>
<path class="st6" d="M220.1,64.3c-2.1,0-3.8-0.6-5-2c-1.3-1.3-2-3.1-2-5.3c0-1.5,0.3-2.8,0.9-3.9c0.6-1.1,1.5-2,2.5-2.5
	c0.9-0.5,2.1-0.8,3.5-0.8c1.3,0,2.4,0.3,3.5,0.8c1,0.6,1.9,1.5,2.5,2.5c0.6,1.2,0.9,2.4,0.9,3.9c0,2.3-0.6,4.1-2,5.3
	C223.8,63.5,222,64.3,220.1,64.3z M220.1,50.3c-1.3,0-2.4,0.3-3.3,0.8c-1,0.5-1.7,1.3-2.3,2.3c-0.6,1.1-0.9,2.3-0.9,3.7
	c0,2,0.6,3.7,1.8,4.9l0,0c1.1,1.2,2.6,1.8,4.6,1.8c1.8,0,3.4-0.6,4.6-1.8c1.2-1.1,1.8-2.7,1.8-4.9c0-1.4-0.3-2.6-0.9-3.7
	c-0.6-1-1.4-1.7-2.3-2.3C222.3,50.5,221.3,50.3,220.1,50.3z M205.4,63.9h-6.7l17.5-25.7h6.7l-0.3,0.4L205.4,63.9z M199.7,63.4h5.5
	L222,38.6h-5.5L199.7,63.4z M220.1,60.4c-0.5,0-1-0.3-1.3-0.8c-0.5-0.6-0.5-1.6-0.5-2.5c0-1.1,0.2-1.9,0.5-2.5
	c0.4-0.6,0.7-0.8,1.3-0.8c0.5,0,1,0.3,1.3,0.8c0.3,0.6,0.5,1.5,0.5,2.5s-0.2,1.9-0.5,2.5C221.1,60.1,220.7,60.4,220.1,60.4z
	 M220.1,54.1c-0.4,0-0.6,0.1-0.9,0.6c-0.3,0.5-0.5,1.3-0.5,2.3c0,1.2,0.1,1.8,0.4,2.2c0.2,0.4,0.6,0.6,0.9,0.6
	c0.4,0,0.6-0.1,0.9-0.6c0.3-0.5,0.5-1.3,0.5-2.3s-0.2-1.8-0.5-2.3C220.8,54.4,220.5,54.1,220.1,54.1z M201.6,52.4c-2,0-3.6-0.6-5-2
	l0,0c-1.3-1.3-2-3.1-2-5.3c0-1.5,0.3-2.8,0.9-3.9c0.6-1.1,1.5-2,2.5-2.5c0.9-0.5,2.1-0.8,3.5-0.8c1.3,0,2.4,0.3,3.5,0.8
	c1,0.6,1.9,1.5,2.5,2.5c0.6,1.2,0.9,2.4,0.9,3.9c0,2.3-0.6,4.1-2,5.3C205.3,51.6,203.5,52.4,201.6,52.4z M197,50
	c1.2,1.2,2.7,1.8,4.6,1.8c1.8,0,3.4-0.6,4.6-1.8c1.2-1.1,1.8-2.7,1.8-4.9c0-1.4-0.3-2.6-0.9-3.7c-0.6-1-1.3-1.7-2.3-2.3
	c-1-0.5-2.1-0.8-3.3-0.8c-1.3,0-2.4,0.3-3.3,0.8c-1,0.5-1.7,1.3-2.3,2.3c-0.6,1.1-0.9,2.3-0.9,3.7C195.1,47.1,195.8,48.8,197,50
	L197,50z M201.7,48.5c-0.5,0-1-0.3-1.3-0.8s-0.4-1.3-0.4-2.5s0.1-2,0.4-2.5c0.4-0.6,0.7-0.8,1.3-0.8c0.5,0,1,0.3,1.3,0.8
	c0.3,0.6,0.5,1.5,0.5,2.5s-0.2,1.9-0.5,2.5C202.7,48.2,202.2,48.5,201.7,48.5z M201.7,42.3c-0.4,0-0.6,0.1-0.9,0.6
	c-0.3,0.4-0.4,1.1-0.4,2.3s0.1,1.9,0.4,2.3c0.5,0.8,1.3,0.8,1.8,0c0.3-0.5,0.5-1.3,0.5-2.3s-0.2-1.8-0.5-2.3
	C202.4,42.5,202.1,42.3,201.7,42.3z"/>
<path d="M66.4,126.9v5.2l-8.4,20h-9.3l8-18.6h-4.9v3.7h-7v-10.3C44.8,126.9,66.4,126.9,66.4,126.9z"/>
<path class="st6" d="M58.2,152.4h-9.8l8-18.6H52v3.7h-7.5v-10.8h22.1v5.5L58.2,152.4z M49.1,151.9h8.8l8.3-19.8v-4.9H45v9.8h6.5
	v-3.7H57L49.1,151.9z"/>
<path d="M67.8,151.2c-0.9-0.9-1.3-2-1.3-3.4s0.4-2.5,1.3-3.3c0.9-0.9,2-1.3,3.4-1.3s2.5,0.4,3.4,1.3c0.9,0.9,1.4,2,1.4,3.3
	c0,1.4-0.5,2.5-1.4,3.4s-2,1.3-3.4,1.3S68.7,152.1,67.8,151.2z"/>
<path class="st6" d="M71.2,152.8c-1.5,0-2.6-0.4-3.6-1.4l0,0c-0.9-0.9-1.4-2.1-1.4-3.6s0.5-2.7,1.4-3.5c0.9-0.9,2.1-1.4,3.6-1.4
	s2.6,0.4,3.6,1.4s1.5,2.1,1.5,3.5s-0.5,2.6-1.5,3.6C73.8,152.3,72.7,152.8,71.2,152.8z M68,151c0.8,0.8,1.9,1.2,3.2,1.2
	c1.4,0,2.4-0.4,3.2-1.2c0.9-0.9,1.3-1.9,1.3-3.2c0-1.2-0.4-2.2-1.3-3.1c-0.8-0.8-1.9-1.2-3.2-1.2c-1.4,0-2.4,0.4-3.2,1.2
	c-0.8,0.7-1.2,1.8-1.2,3.1C66.8,149.2,67.1,150.2,68,151L68,151z"/>
<path d="M95.8,138.1c1.7,1.5,2.5,3.4,2.5,5.8c0,1.6-0.4,3-1.2,4.4c-0.8,1.3-2.1,2.4-3.8,3.2s-3.9,1.2-6.4,1.2
	c-1.8,0-3.5-0.2-5.3-0.6c-1.8-0.4-3.3-0.9-4.6-1.7l2.9-6.3c1.1,0.6,2.2,1.1,3.3,1.4c1.2,0.3,2.3,0.5,3.4,0.5c1,0,1.8-0.2,2.4-0.5
	s0.9-0.8,0.9-1.5c0-0.6-0.3-1-0.8-1.4c-0.6-0.3-1.5-0.4-3-0.4h-7.3l1.3-15.3h16.7v6.4H87l-0.2,2.5H88
	C91.5,135.8,94.1,136.6,95.8,138.1z"/>
<path class="st6" d="M86.9,153c-1.8,0-3.5-0.2-5.4-0.6c-2-0.4-3.5-1-4.7-1.7l-0.2-0.1l3.1-6.7l0.2,0.1c1.2,0.7,2.3,1.1,3.2,1.4
	c1.4,0.3,2.4,0.5,3.3,0.5s1.7-0.2,2.3-0.5c0.5-0.3,0.8-0.7,0.8-1.3c0-0.5-0.2-0.8-0.7-1.2c-0.5-0.2-1.3-0.3-2.8-0.3h-7.6l1.3-15.8
	H97v6.9h-9.8l-0.2,2h1c3.5,0,6.2,0.8,8,2.4l0,0c1.7,1.5,2.6,3.5,2.6,6c0,1.6-0.4,3.1-1.2,4.5c-0.8,1.3-2.2,2.5-3.9,3.3
	C91.7,152.5,89.5,153,86.9,153z M77.3,150.3c1.1,0.7,2.5,1.1,4.3,1.6c1.8,0.4,3.5,0.6,5.2,0.6c2.5,0,4.7-0.4,6.3-1.2
	c1.6-0.8,2.9-1.8,3.7-3.1c0.8-1.4,1.2-2.7,1.2-4.3c0-2.3-0.8-4.2-2.4-5.6l0,0c-1.7-1.5-4.3-2.2-7.6-2.2h-1.5l0.2-3h9.8v-5.9H80.3
	L79.1,142h7c1.6,0,2.5,0.1,3.1,0.4c0.5,0.4,0.9,0.8,0.9,1.6s-0.3,1.4-1,1.7s-1.6,0.5-2.5,0.5c-1,0-2.1-0.2-3.5-0.5
	c-0.9-0.3-2-0.7-3.1-1.3L77.3,150.3z"/>
<path d="M101,138.8c-1.2-1.2-1.9-3-1.9-5.1c0-1.5,0.3-2.7,0.9-3.8s1.4-1.9,2.4-2.4c1-0.6,2.2-0.8,3.4-0.8c1.3,0,2.4,0.3,3.4,0.8
	c1,0.6,1.8,1.4,2.4,2.4s0.9,2.3,0.9,3.8c0,2.2-0.6,3.9-1.9,5.1c-1.2,1.2-2.9,1.9-4.8,1.9C103.9,140.6,102.3,140,101,138.8z
	 M120.7,126.9h6.1l-17.2,25.2h-6.1L120.7,126.9z M107,136c0.3-0.5,0.5-1.3,0.5-2.4c0-1.1-0.1-1.9-0.5-2.4c-0.3-0.5-0.7-0.7-1.1-0.7
	c-0.5,0-0.8,0.2-1.1,0.7c-0.3,0.5-0.5,1.3-0.5,2.4c0,1.1,0.1,1.9,0.5,2.4c0.3,0.5,0.7,0.7,1.1,0.7S106.7,136.5,107,136z
	 M119.5,150.6c-1.2-1.2-1.9-3-1.9-5.1c0-1.5,0.3-2.7,0.9-3.8s1.4-1.9,2.4-2.4c1-0.6,2.2-0.8,3.4-0.8c1.3,0,2.4,0.3,3.4,0.8
	c1,0.6,1.8,1.4,2.4,2.4c0.6,1.1,0.9,2.3,0.9,3.8c0,2.2-0.6,3.9-1.9,5.1c-1.2,1.2-2.9,1.9-4.8,1.9S120.7,151.9,119.5,150.6z
	 M125.5,147.9c0.3-0.5,0.5-1.3,0.5-2.4c0-1.1-0.2-1.9-0.5-2.4s-0.7-0.7-1.1-0.7c-0.5,0-0.8,0.2-1.1,0.7c-0.3,0.5-0.5,1.3-0.5,2.4
	c0,1.1,0.1,1.9,0.5,2.4c0.3,0.5,0.7,0.7,1.1,0.7C124.8,148.6,125.2,148.4,125.5,147.9z"/>
<path class="st6" d="M124.3,152.8c-2.1,0-3.8-0.7-5-2c-1.3-1.3-2-3.1-2-5.3c0-1.5,0.3-2.8,0.9-3.9c0.6-1.1,1.5-2,2.5-2.5
	c0.9-0.5,2.1-0.8,3.5-0.8c1.3,0,2.4,0.3,3.5,0.8c1,0.6,1.9,1.5,2.5,2.5c0.6,1.2,0.9,2.4,0.9,3.9c0,2.3-0.6,4.1-2,5.3
	C128,152,126.2,152.8,124.3,152.8z M124.3,138.8c-1.3,0-2.4,0.3-3.3,0.8c-1,0.5-1.7,1.3-2.3,2.3c-0.6,1.1-0.9,2.3-0.9,3.7
	c0,2,0.6,3.7,1.8,4.9l0,0c1.1,1.2,2.7,1.8,4.6,1.8c1.8,0,3.4-0.6,4.6-1.8c1.2-1.1,1.8-2.7,1.8-4.9c0-1.4-0.3-2.6-0.9-3.7
	c-0.6-1-1.4-1.7-2.3-2.3S125.5,138.8,124.3,138.8z M109.7,152.4H103l17.5-25.7h6.7L109.7,152.4z M104,151.9h5.5l16.9-24.7h-5.5
	L104,151.9z M124.4,148.9c-0.5,0-1-0.3-1.3-0.8c-0.5-0.6-0.5-1.6-0.5-2.5c0-1.1,0.2-1.9,0.5-2.5s0.7-0.8,1.3-0.8
	c0.5,0,1,0.3,1.3,0.8c0.4,0.6,0.5,1.5,0.5,2.5s-0.2,1.9-0.5,2.5C125.4,148.6,124.9,148.9,124.4,148.9z M124.4,142.6
	c-0.4,0-0.6,0.1-0.9,0.6s-0.5,1.3-0.5,2.3c0,1.2,0.1,1.8,0.4,2.2c0.5,0.8,1.3,0.8,1.8,0c0.3-0.5,0.5-1.3,0.5-2.3s-0.2-1.8-0.5-2.3
	C125.1,142.9,124.8,142.6,124.4,142.6z M105.8,141c-2-0.1-3.7-0.8-5-2l0,0c-1.3-1.3-2-3.1-2-5.3c0-1.5,0.3-2.8,0.9-3.9
	c0.6-1.1,1.5-2,2.5-2.5c0.9-0.5,2.1-0.8,3.5-0.8c1.3,0,2.4,0.3,3.5,0.8c1,0.6,1.9,1.5,2.5,2.5s0.9,2.4,0.9,3.9c0,2.3-0.6,4.1-2,5.3
	C109.5,140.2,107.7,141,105.8,141z M101.2,138.6c1.2,1.1,2.7,1.7,4.6,1.8c1.8,0,3.4-0.6,4.6-1.8c1.2-1.1,1.8-2.7,1.8-4.9
	c0-1.5-0.3-2.7-0.9-3.7s-1.4-1.7-2.3-2.3c-1-0.5-2.1-0.8-3.3-0.8c-1.3,0-2.4,0.3-3.3,0.8c-1,0.5-1.7,1.3-2.3,2.3
	c-0.6,1.1-0.9,2.3-0.9,3.7C99.4,135.7,100,137.4,101.2,138.6z M105.9,137c-0.5,0-1-0.3-1.3-0.8c-0.5-0.6-0.5-1.6-0.5-2.5
	c0-1.1,0.2-1.9,0.5-2.5s0.7-0.8,1.3-0.8c0.5,0,1,0.3,1.3,0.8c0.5,0.6,0.5,1.6,0.5,2.5c0,1.1-0.2,1.9-0.5,2.5
	C106.9,136.7,106.4,137,105.9,137z M105.9,130.8c-0.4,0-0.6,0.1-0.9,0.6s-0.5,1.3-0.5,2.3c0,1.2,0.1,1.8,0.4,2.2
	c0.5,0.8,1.3,0.8,1.8,0c0.3-0.5,0.5-1.3,0.5-2.3c0-1.2-0.1-1.8-0.4-2.2C106.6,131,106.3,130.8,105.9,130.8z"/>
<path d="M221.2,291.9c0.6,1,0.9,2.1,0.9,3.3c0,1.6-0.5,3-1.4,4.2s-2.3,2.2-4,2.8s-3.7,1-5.9,1s-4.2-0.3-5.9-1s-3-1.6-4-2.8
	c-0.9-1.2-1.4-2.6-1.4-4.2c0-1.2,0.3-2.4,0.9-3.3c0.6-1,1.4-1.8,2.5-2.5c-1.7-1.3-2.5-3-2.5-5c0-1.5,0.4-2.8,1.3-4
	c0.9-1.1,2.1-2,3.7-2.6c1.6-0.6,3.4-0.9,5.4-0.9s3.8,0.3,5.4,0.9c1.6,0.6,2.8,1.5,3.7,2.6s1.3,2.4,1.3,4c0,2-0.8,3.6-2.5,5
	C219.8,290.1,220.6,291,221.2,291.9z M212.8,296.9c0.5-0.5,0.8-1.1,0.8-1.9s-0.3-1.4-0.8-1.9s-1.2-0.7-2-0.7s-1.5,0.2-2,0.7
	s-0.8,1.1-0.8,1.9s0.3,1.4,0.8,1.9s1.2,0.7,2,0.7S212.3,297.4,212.8,296.9z M209.3,283.3c-0.4,0.4-0.6,0.9-0.6,1.6s0.2,1.2,0.6,1.6
	c0.4,0.4,0.9,0.6,1.5,0.6s1.1-0.2,1.5-0.6s0.6-0.9,0.6-1.6s-0.2-1.2-0.6-1.6c-0.4-0.4-0.9-0.6-1.5-0.6
	C210.2,282.7,209.7,282.9,209.3,283.3z"/>
<path class="st6" d="M210.8,303.5c-2.3,0-4.4-0.3-6-1c-1.7-0.7-3.1-1.7-4.1-2.9c-1-1.3-1.5-2.8-1.5-4.4c0-1.3,0.3-2.5,0.9-3.4
	c0.6-0.9,1.3-1.7,2.3-2.4c-1.5-1.3-2.3-3-2.3-5c0-1.6,0.4-2.9,1.4-4.1s2.3-2.1,3.8-2.7c1.6-0.6,3.5-0.9,5.5-0.9s3.9,0.3,5.5,0.9
	c1.5,0.6,2.8,1.5,3.8,2.7c0.9,1.1,1.4,2.5,1.4,4.2c0,2-0.7,3.6-2.3,5c0.9,0.6,1.6,1.4,2.3,2.4l0,0c0.6,1,0.9,2.2,0.9,3.4
	c0,1.6-0.5,3.1-1.4,4.3c-0.9,1.3-2.4,2.3-4.1,2.9C214.9,303.1,212.9,303.5,210.8,303.5z M210.8,277.1c-2,0-3.7,0.3-5.3,0.9
	c-1.5,0.5-2.7,1.4-3.6,2.5c-0.8,1.1-1.2,2.4-1.2,3.8c0,2,0.8,3.6,2.4,4.8l0.3,0.2l-0.3,0.2c-1.1,0.7-1.8,1.4-2.4,2.4
	c-0.6,0.8-0.9,2-0.9,3.2c0,1.5,0.5,2.9,1.3,4c1,1.1,2.2,2,3.9,2.7c1.6,0.7,3.5,1,5.8,1c2,0,4-0.3,5.8-1c1.6-0.6,3-1.5,3.9-2.7
	s1.3-2.6,1.3-4c0-1.1-0.3-2.2-0.9-3.2c-0.7-1-1.5-1.8-2.4-2.4l-0.3-0.2l0.3-0.2c1.6-1.4,2.4-2.9,2.4-4.8c0-1.6-0.4-2.8-1.2-3.8
	c-0.9-1.1-2.1-2-3.6-2.5C214.5,277.4,212.8,277.1,210.8,277.1z M210.8,297.9c-0.9,0-1.7-0.3-2.2-0.8c-0.6-0.6-0.9-1.3-0.9-2.1
	s0.3-1.5,0.9-2.1c0.5-0.5,1.2-0.8,2.2-0.8s1.7,0.3,2.2,0.8c0.6,0.6,0.9,1.3,0.9,2.1s-0.3,1.5-0.9,2.1
	C212.5,297.6,211.7,297.9,210.8,297.9z M210.8,292.6c-0.8,0-1.4,0.2-1.8,0.6c-0.5,0.5-0.7,1-0.7,1.7s0.2,1.2,0.7,1.7
	c0.4,0.4,1,0.6,1.8,0.6s1.4-0.2,1.8-0.6c0.5-0.5,0.7-1,0.7-1.7s-0.2-1.2-0.7-1.7C212.2,292.9,211.6,292.6,210.8,292.6z M210.8,287.4
	c-0.7,0-1.2-0.2-1.7-0.7s-0.7-1-0.7-1.8s0.2-1.3,0.7-1.8l0,0c0.4-0.4,1-0.7,1.7-0.7s1.2,0.2,1.7,0.7s0.7,1,0.7,1.8s-0.2,1.3-0.7,1.8
	C212,287.1,211.5,287.4,210.8,287.4z M209.5,283.5c-0.4,0.4-0.5,0.8-0.5,1.4s0.2,1.1,0.5,1.4c0.4,0.4,0.8,0.5,1.3,0.5s1-0.2,1.3-0.5
	c0.4-0.4,0.5-0.8,0.5-1.4s-0.2-1.1-0.5-1.4c-0.4-0.4-0.8-0.5-1.3-0.5S209.8,283.1,209.5,283.5z"/>
<path d="M245.6,291.9c0.6,1,0.9,2.1,0.9,3.3c0,1.6-0.5,3-1.4,4.2s-2.3,2.2-4,2.8s-3.7,1-5.9,1s-4.2-0.3-5.9-1s-3-1.6-4-2.8
	c-0.9-1.2-1.4-2.6-1.4-4.2c0-1.2,0.3-2.4,0.9-3.3c0.6-1,1.4-1.8,2.5-2.5c-1.7-1.3-2.5-3-2.5-5c0-1.5,0.4-2.8,1.3-4
	c0.9-1.1,2.1-2,3.7-2.6c1.6-0.6,3.4-0.9,5.4-0.9s3.8,0.3,5.4,0.9c1.6,0.6,2.8,1.5,3.7,2.6s1.3,2.4,1.3,4c0,2-0.8,3.6-2.5,5
	C244.2,290.1,245,291,245.6,291.9z M237.2,296.9c0.5-0.5,0.8-1.1,0.8-1.9s-0.3-1.4-0.8-1.9s-1.2-0.7-2-0.7s-1.5,0.2-2,0.7
	s-0.8,1.1-0.8,1.9s0.3,1.4,0.8,1.9s1.2,0.7,2,0.7S236.7,297.4,237.2,296.9z M233.7,283.3c-0.4,0.4-0.6,0.9-0.6,1.6s0.2,1.2,0.6,1.6
	c0.4,0.4,0.9,0.6,1.5,0.6s1.1-0.2,1.5-0.6s0.6-0.9,0.6-1.6s-0.2-1.2-0.6-1.6c-0.4-0.4-0.9-0.6-1.5-0.6
	C234.6,282.7,234.1,282.9,233.7,283.3z"/>
<path class="st6" d="M235.2,303.5c-2.3,0-4.4-0.3-6-1c-1.7-0.7-3.1-1.7-4.1-2.9c-1-1.3-1.5-2.8-1.5-4.4c0-1.3,0.3-2.5,0.9-3.4
	c0.6-0.9,1.3-1.7,2.3-2.4c-1.5-1.3-2.3-3-2.3-5c0-1.6,0.4-2.9,1.3-4.1c1-1.2,2.3-2.1,3.8-2.7c1.6-0.6,3.5-0.9,5.5-0.9
	s3.9,0.3,5.5,0.9c1.5,0.6,2.8,1.5,3.8,2.7c0.9,1.1,1.4,2.5,1.4,4.2c0,2-0.7,3.6-2.3,5c0.9,0.6,1.6,1.4,2.3,2.4l0,0
	c0.6,1,0.9,2.2,0.9,3.4c0,1.6-0.5,3.1-1.5,4.3c-0.9,1.3-2.4,2.3-4.1,2.9C239.3,303.1,237.3,303.5,235.2,303.5z M235.2,277.1
	c-2,0-3.7,0.3-5.3,0.9c-1.5,0.5-2.7,1.4-3.6,2.5c-0.8,1.1-1.2,2.4-1.2,3.8c0,2,0.8,3.6,2.4,4.8l0.3,0.2l-0.3,0.2
	c-1.1,0.7-1.8,1.4-2.4,2.4c-0.6,0.8-0.9,2-0.9,3.2c0,1.5,0.5,2.9,1.3,4c0.9,1.1,2.2,2,3.9,2.7c1.6,0.7,3.5,1,5.8,1c2,0,4-0.3,5.8-1
	c1.6-0.6,3-1.5,3.9-2.7s1.4-2.6,1.4-4c0-1.1-0.3-2.2-0.9-3.2c-0.7-1-1.5-1.8-2.4-2.4l-0.3-0.2l0.3-0.2c1.6-1.4,2.4-2.9,2.4-4.8
	c0-1.6-0.4-2.8-1.2-3.8c-0.9-1.1-2.1-2-3.6-2.5C238.9,277.4,237.2,277.1,235.2,277.1z M235.2,297.9c-0.9,0-1.7-0.3-2.2-0.8
	c-0.6-0.6-0.9-1.3-0.9-2.1s0.3-1.5,0.9-2.1c0.5-0.5,1.2-0.8,2.2-0.8s1.7,0.3,2.2,0.8c0.6,0.6,0.9,1.3,0.9,2.1s-0.3,1.5-0.9,2.1
	C236.9,297.6,236.1,297.9,235.2,297.9z M235.2,292.6c-0.8,0-1.4,0.2-1.8,0.6c-0.5,0.5-0.7,1-0.7,1.7s0.2,1.2,0.7,1.7
	c0.4,0.4,1,0.6,1.8,0.6s1.4-0.2,1.8-0.6c0.5-0.5,0.7-1,0.7-1.7s-0.2-1.2-0.7-1.7C236.6,292.9,236,292.6,235.2,292.6z M235.2,287.4
	c-0.7,0-1.2-0.2-1.7-0.7s-0.7-1-0.7-1.8s0.2-1.3,0.7-1.8c0.4-0.4,1-0.7,1.7-0.7s1.2,0.2,1.7,0.7s0.7,1,0.7,1.8s-0.2,1.3-0.7,1.8
	C236.4,287.1,235.9,287.4,235.2,287.4z M235.2,283c-0.5,0-1,0.2-1.3,0.5l0,0c-0.4,0.4-0.5,0.8-0.5,1.4s0.2,1.1,0.5,1.4
	c0.4,0.4,0.8,0.5,1.3,0.5s1-0.2,1.3-0.5c0.4-0.4,0.5-0.8,0.5-1.4s-0.2-1.1-0.5-1.4C236.2,283.1,235.7,283,235.2,283z"/>
<path d="M249.8,301.8c-0.9-0.9-1.4-2-1.4-3.4s0.5-2.5,1.4-3.3c0.9-0.9,2-1.3,3.4-1.3s2.5,0.4,3.4,1.3c0.9,0.9,1.3,2,1.3,3.3
	c0,1.4-0.4,2.5-1.3,3.4s-2,1.3-3.4,1.3S250.7,302.7,249.8,301.8z"/>
<path class="st6" d="M253.2,303.4c-1.5,0-2.6-0.4-3.6-1.4l0,0c-1-1-1.5-2.2-1.5-3.6s0.5-2.6,1.5-3.5c0.9-0.9,2.1-1.4,3.6-1.4
	s2.7,0.4,3.6,1.4c0.9,0.9,1.4,2.1,1.4,3.5c0,1.5-0.4,2.6-1.4,3.6C255.8,302.9,254.7,303.4,253.2,303.4z M250,301.6
	c0.8,0.8,1.9,1.2,3.2,1.2s2.4-0.4,3.2-1.2c0.8-0.8,1.2-1.9,1.2-3.2c0-1.3-0.4-2.3-1.2-3.1c-0.8-0.8-1.9-1.2-3.2-1.2
	c-1.4,0-2.4,0.4-3.2,1.2c-0.9,0.8-1.3,1.8-1.3,3.1S249.1,300.7,250,301.6L250,301.6z"/>
<path d="M277.8,288.7c1.7,1.5,2.5,3.4,2.5,5.8c0,1.6-0.4,3-1.2,4.4c-0.8,1.3-2.1,2.4-3.8,3.2c-1.7,0.8-3.9,1.2-6.4,1.2
	c-1.8,0-3.5-0.2-5.3-0.6s-3.3-0.9-4.6-1.7l2.9-6.3c1.1,0.6,2.2,1.1,3.3,1.4c1.2,0.3,2.3,0.5,3.4,0.5c1,0,1.8-0.2,2.4-0.5
	s0.9-0.8,0.9-1.5c0-0.6-0.3-1-0.8-1.4c-0.6-0.3-1.5-0.4-3-0.4h-7.3l1.3-15.3h16.7v6.4H269l-0.2,2.5h1.3
	C273.6,286.5,276.2,287.2,277.8,288.7z"/>
<path class="st6" d="M268.9,303.5c-1.8,0-3.5-0.2-5.4-0.6c-2-0.4-3.5-1-4.7-1.7l-0.2-0.1l3.1-6.7l0.2,0.1c1.2,0.7,2.3,1.1,3.2,1.4
	c1.4,0.3,2.4,0.5,3.3,0.5s1.7-0.2,2.3-0.5c0.5-0.3,0.8-0.7,0.8-1.3c0-0.5-0.2-0.8-0.7-1.2c-0.5-0.2-1.3-0.3-2.8-0.3h-7.6l1.3-15.8
	H279v6.9h-9.8l-0.2,2h1c3.7,0.1,6.3,0.9,7.9,2.4c1.7,1.5,2.6,3.5,2.6,6c0,1.6-0.4,3.1-1.2,4.5c-0.8,1.3-2.2,2.5-3.9,3.3
	C273.7,303.1,271.5,303.5,268.9,303.5z M259.3,300.9c1.1,0.7,2.5,1.1,4.3,1.6c1.8,0.4,3.5,0.6,5.2,0.6c2.5,0,4.7-0.4,6.3-1.2
	c1.6-0.8,2.9-1.8,3.7-3.1c0.8-1.4,1.2-2.7,1.2-4.3c0-2.3-0.8-4.2-2.4-5.6l0,0c-1.5-1.4-4-2.1-7.5-2.2h-1.6l0.2-3h9.8v-5.9h-16.2
	l-1.3,14.8h7c1.6,0,2.5,0.1,3.1,0.4c0.5,0.4,0.9,0.8,0.9,1.6c0,0.8-0.3,1.4-1,1.7c-0.7,0.3-1.6,0.5-2.5,0.5c-1,0-2.1-0.2-3.5-0.5
	c-0.9-0.3-2-0.7-3.1-1.3L259.3,300.9z"/>
<path d="M283.1,289.4c-1.2-1.2-1.9-3-1.9-5.1c0-1.5,0.3-2.7,0.9-3.8c0.6-1.1,1.4-1.9,2.4-2.4c1-0.6,2.2-0.8,3.4-0.8
	c1.3,0,2.4,0.3,3.4,0.8c1,0.6,1.8,1.4,2.4,2.4c0.6,1.1,0.9,2.3,0.9,3.8c0,2.2-0.6,3.9-1.9,5.1c-1.2,1.2-2.9,1.9-4.8,1.9
	C285.9,291.2,284.3,290.6,283.1,289.4z M302.7,277.6h6.1l-17.2,25.2h-6.1L302.7,277.6z M289,286.6c0.3-0.5,0.5-1.3,0.5-2.4
	s-0.2-1.9-0.5-2.4s-0.7-0.7-1.1-0.7c-0.5,0-0.8,0.2-1.1,0.7c-0.3,0.5-0.4,1.3-0.4,2.4s0.1,1.9,0.4,2.4s0.7,0.7,1.1,0.7
	C288.4,287.4,288.7,287.1,289,286.6z M301.6,301.2c-1.2-1.2-1.9-3-1.9-5.1c0-1.5,0.3-2.7,0.9-3.8c0.6-1.1,1.4-1.9,2.4-2.4
	c1-0.6,2.2-0.8,3.4-0.8c1.3,0,2.4,0.3,3.4,0.8c1,0.6,1.8,1.4,2.4,2.4c0.6,1.1,0.9,2.3,0.9,3.8c0,2.2-0.6,3.9-1.9,5.1
	c-1.2,1.2-2.9,1.9-4.8,1.9C304.4,303.1,302.8,302.5,301.6,301.2z M307.5,298.5c0.3-0.5,0.5-1.3,0.5-2.4s-0.2-1.9-0.5-2.4
	s-0.7-0.7-1.1-0.7c-0.5,0-0.8,0.2-1.1,0.7c-0.3,0.5-0.5,1.3-0.5,2.4s0.1,1.9,0.5,2.4c0.3,0.5,0.7,0.7,1.1,0.7S307.2,299,307.5,298.5
	z"/>
<path class="st6" d="M306.4,303.4c-2.1,0-3.8-0.6-5-2c-1.3-1.3-2-3.1-2-5.3c0-1.5,0.3-2.8,0.9-3.9s1.5-2,2.5-2.5
	c0.9-0.5,2.1-0.8,3.5-0.8c1.3,0,2.4,0.3,3.5,0.8c1,0.6,1.9,1.5,2.5,2.5c0.6,1.2,0.9,2.4,0.9,3.9c0,2.3-0.6,4.1-2,5.3
	C310.1,302.6,308.3,303.4,306.4,303.4z M306.4,289.4c-1.3,0-2.4,0.3-3.3,0.8c-1,0.5-1.7,1.3-2.3,2.3c-0.6,1.1-0.9,2.3-0.9,3.7
	c0,2,0.6,3.7,1.8,4.9l0,0c1.1,1.2,2.6,1.8,4.6,1.8c1.8,0,3.4-0.6,4.6-1.8c1.2-1.1,1.8-2.7,1.8-4.9c0-1.4-0.3-2.6-0.9-3.7
	c-0.6-1-1.3-1.7-2.3-2.3C308.6,289.6,307.6,289.4,306.4,289.4z M291.7,303H285l0.3-0.4l17.3-25.3h6.7l-0.3,0.4L291.7,303z
	 M286,302.5h5.5l16.9-24.7h-5.5L286,302.5z M306.4,299.5c-0.5,0-1-0.3-1.3-0.8c-0.5-0.6-0.5-1.6-0.5-2.5c0-1.1,0.2-1.9,0.5-2.5
	c0.4-0.6,0.7-0.8,1.3-0.8c0.5,0,1,0.3,1.3,0.8c0.3,0.6,0.5,1.5,0.5,2.5s-0.2,1.9-0.5,2.5C307.4,299.2,306.9,299.5,306.4,299.5z
	 M306.4,293.3c-0.4,0-0.6,0.1-0.9,0.6s-0.5,1.3-0.5,2.3c0,1.2,0.1,1.8,0.4,2.2c0.5,0.8,1.3,0.8,1.8,0c0.3-0.5,0.5-1.3,0.5-2.3
	s-0.2-1.8-0.5-2.3C307.1,293.5,306.8,293.3,306.4,293.3z M287.9,291.5c-2.1-0.1-3.8-0.8-5-2l0,0c-1.3-1.3-2-3.1-2-5.3
	c0-1.5,0.3-2.8,0.9-3.9s1.5-2,2.5-2.5c0.9-0.5,2.1-0.8,3.5-0.8c1.3,0,2.4,0.3,3.5,0.8c1,0.6,1.9,1.5,2.5,2.5
	c0.6,1.2,0.9,2.4,0.9,3.9c0,2.3-0.6,4.1-2,5.3C291.6,290.8,289.8,291.5,287.9,291.5z M283.3,289.2c1.1,1.1,2.6,1.7,4.6,1.8
	c1.8,0,3.4-0.6,4.6-1.8c1.2-1.1,1.8-2.7,1.8-4.9c0-1.4-0.3-2.6-0.9-3.7c-0.6-1-1.3-1.7-2.3-2.3c-1-0.5-2.1-0.8-3.3-0.8
	c-1.3,0-2.4,0.3-3.3,0.8c-1,0.5-1.7,1.3-2.3,2.3c-0.6,1.1-0.9,2.3-0.9,3.7C281.5,286.3,282.1,288,283.3,289.2L283.3,289.2z
	 M288.1,287.6c-0.1,0-0.2,0-0.2,0l0,0c-0.5,0-0.9-0.3-1.3-0.8c-0.3-0.5-0.4-1.3-0.4-2.5c0-1.3,0.1-2,0.4-2.5
	c0.4-0.6,0.7-0.8,1.3-0.8c0.5,0,1,0.3,1.3,0.8c0.3,0.6,0.5,1.5,0.5,2.5c0,1.1-0.2,1.9-0.5,2.5C289,287.2,288.6,287.6,288.1,287.6z
	 M287.9,281.4c-0.4,0-0.6,0.1-0.9,0.6c-0.3,0.4-0.4,1.1-0.4,2.3s0.1,1.9,0.4,2.3c0.2,0.4,0.5,0.6,0.9,0.6c0.3,0.1,0.5,0,0.9-0.6
	c0.3-0.5,0.5-1.3,0.5-2.3s-0.2-1.8-0.5-2.3C288.6,281.6,288.3,281.4,287.9,281.4z"/>
</svg>
