<?xml version="1.0" encoding="utf-8"?>
<!-- Generator: Adobe Illustrator 24.2.0, SVG Export Plug-In . SVG Version: 6.00 Build 0)  -->
<svg version="1.1" id="grafico_1" xmlns="http://www.w3.org/2000/svg" xmlns:xlink="http://www.w3.org/1999/xlink" x="0px" y="0px"
	 viewBox="0 0 400 655" style="enable-background:new 0 0 400 655;" xml:space="preserve">
<style type="text/css">
	.st0{fill:#F1F2F2;}
	.st1{fill:#D1D3D4;}
	.st2{fill:#DCB7FC;}
	.st3{fill:#606060;}
	.st4{fill:#FDD46A;}
	.st5{fill:#FFFFFF;}
</style>
<path class="st0" d="M397.5,199.7C397.5,90.6,309.1,2.2,200,2.2S2.5,90.6,2.5,199.7c0,54.1,21.8,103.1,57,138.8v186
	c0,5.6,4.6,10.2,10.2,10.2h260.5c5.6,0,10.2-4.6,10.2-10.2v-186C375.7,302.8,397.5,253.8,397.5,199.7z"/>
<circle class="st1" cx="200" cy="199.7" r="195"/>
<path class="st2" d="M200,199.7L163.3,11c12.5-2.4,23.9-3.5,36.7-3.5V199.7z"/>
<path class="st3" d="M200,199.7L81.7,48.2c25.1-19.6,50.4-31.1,81.7-37.2L200,199.7z"/>
<path class="st4" d="M200,199.7V7.5c106.1,0,192.2,86,192.2,192.2s-86,192.2-192.2,192.2S7.8,305.8,7.8,199.7
	c0-61.6,25.4-113.5,73.9-151.5L200,199.7z"/>
<path d="M230.9,73.3c1.1,1.3,1.6,2.8,1.6,4.6c0,1.5-0.4,3-1.3,4.3c-0.8,1.3-2.1,2.4-3.9,3.3s-4,1.2-6.6,1.2c-1.8,0-3.6-0.2-5.4-0.6
	c-1.8-0.4-3.4-1-4.7-1.7l2.9-6.4c1.1,0.6,2.2,1.1,3.4,1.4s2.4,0.5,3.5,0.5c1,0,1.8-0.2,2.4-0.5c0.6-0.3,0.9-0.8,0.9-1.5
	c0-1.2-1-1.8-3-1.8h-3.4v-5.3l3.8-3.9h-9.2v-6.5h19.2v5.3l-4.8,4.8C228.3,71.2,229.8,72,230.9,73.3z"/>
<path class="st5" d="M220.7,87c-1.8,0-3.7-0.2-5.5-0.6s-3.4-1-4.8-1.8l-0.2-0.1l3.1-6.8l0.2,0.1c1,0.6,2.2,1.1,3.3,1.4
	c1.2,0.3,2.3,0.5,3.4,0.5c1,0,1.7-0.2,2.3-0.5c0.5-0.3,0.8-0.7,0.8-1.3c0-0.4,0-1.5-2.8-1.5H217v-5.7l3.4-3.5h-8.8v-7h19.7v5.7
	l-4.5,4.6c1.8,0.5,3.3,1.4,4.3,2.6l0,0c1.1,1.3,1.7,2.9,1.7,4.8c0,1.6-0.4,3.1-1.3,4.4c-0.9,1.4-2.2,2.5-4,3.3
	C225.6,86.6,223.4,87,220.7,87z M210.9,84.4c1.3,0.7,2.8,1.2,4.4,1.6c1.8,0.4,3.6,0.6,5.4,0.6c2.6,0,4.7-0.4,6.5-1.2
	c1.7-0.8,3-1.9,3.8-3.2c0.8-1.3,1.2-2.7,1.2-4.2c0-1.7-0.5-3.3-1.5-4.5l0,0c-1-1.2-2.5-2.1-4.4-2.6l-0.4-0.1l5-5.1v-5h-18.7v6h9.5
	l-4.1,4.2v5h3.2c2.2,0,3.3,0.7,3.3,2c0,0.7-0.4,1.3-1,1.7c-0.6,0.4-1.5,0.5-2.5,0.5c-1.1,0-2.3-0.2-3.6-0.5
	c-1.1-0.3-2.2-0.7-3.2-1.3L210.9,84.4z"/>
<path d="M235.5,72.5c-1.3-1.3-1.9-3-1.9-5.3c0-1.5,0.3-2.8,0.9-3.9c0.6-1.1,1.4-1.9,2.4-2.5s2.2-0.8,3.5-0.8s2.5,0.3,3.5,0.8
	c1,0.6,1.9,1.4,2.4,2.5c0.6,1.1,0.9,2.4,0.9,3.9c0,2.2-0.6,4-1.9,5.3c-1.3,1.3-2.9,1.9-4.9,1.9S236.7,73.8,235.5,72.5z M255.5,60.5
	h6.2l-17.6,25.7h-6.2L255.5,60.5z M241.6,69.7c0.3-0.5,0.5-1.3,0.5-2.4s-0.2-1.9-0.5-2.4s-0.7-0.8-1.2-0.8s-0.9,0.3-1.2,0.8
	s-0.5,1.3-0.5,2.4s0.2,1.9,0.5,2.4s0.7,0.8,1.2,0.8S241.2,70.2,241.6,69.7z M254.3,84.7c-1.3-1.3-1.9-3-1.9-5.3
	c0-1.5,0.3-2.8,0.9-3.9c0.6-1.1,1.4-1.9,2.4-2.5c1-0.6,2.2-0.8,3.5-0.8c1.3,0,2.5,0.3,3.5,0.8c1,0.6,1.9,1.4,2.4,2.5
	c0.6,1.1,0.9,2.4,0.9,3.9c0,2.2-0.6,4-1.9,5.3s-2.9,1.9-4.9,1.9S255.6,85.9,254.3,84.7z M260.4,81.9c0.3-0.5,0.5-1.3,0.5-2.4
	s-0.2-1.9-0.5-2.4s-0.7-0.8-1.2-0.8s-0.9,0.3-1.2,0.8c-0.3,0.5-0.5,1.3-0.5,2.4s0.2,1.9,0.5,2.4s0.7,0.8,1.2,0.8
	C259.7,82.6,260.1,82.4,260.4,81.9z"/>
<path class="st5" d="M259.2,86.8c-2.1,0-3.8-0.7-5.1-2s-2-3.1-2-5.4c0-1.5,0.3-2.9,0.9-4c0.6-1.1,1.5-2,2.5-2.6
	c1.1-0.6,2.3-0.9,3.6-0.9c1.3,0,2.6,0.3,3.6,0.9c1.1,0.6,1.9,1.4,2.5,2.6c0.6,1.1,0.9,2.4,0.9,4c0,2.3-0.7,4.1-2,5.4
	C263,86.2,261.3,86.8,259.2,86.8z M259.2,72.5c-1.2,0-2.4,0.3-3.4,0.8s-1.8,1.3-2.3,2.4c-0.6,1-0.9,2.3-0.9,3.7
	c0,2.1,0.6,3.9,1.8,5.1s2.8,1.8,4.7,1.8s3.5-0.6,4.7-1.8c1.2-1.2,1.8-2.9,1.8-5.1c0-1.4-0.3-2.7-0.9-3.7s-1.3-1.8-2.3-2.4
	C261.6,72.8,260.5,72.5,259.2,72.5z M244.3,86.5h-6.8l17.9-26.2h6.8L244.3,86.5z M238.4,86h5.6l17.2-25.2h-5.6L238.4,86z
	 M259.2,82.9c-0.6,0-1-0.3-1.4-0.9c-0.3-0.5-0.5-1.4-0.5-2.6s0.2-2,0.5-2.6c0.4-0.6,0.8-0.9,1.4-0.9s1,0.3,1.4,0.9
	c0.3,0.5,0.5,1.4,0.5,2.6s-0.2,2-0.5,2.6l0,0C260.2,82.6,259.8,82.9,259.2,82.9z M259.2,76.5c-0.4,0-0.7,0.2-0.9,0.6
	c-0.3,0.5-0.4,1.2-0.4,2.3c0,1.1,0.1,1.9,0.4,2.3s0.6,0.6,0.9,0.6c0.4,0,0.7-0.2,0.9-0.6l0,0c0.3-0.5,0.4-1.2,0.4-2.3
	c0-1.1-0.1-1.9-0.4-2.3C259.9,76.7,259.6,76.5,259.2,76.5z M240.4,74.7c-2.1,0-3.8-0.7-5.1-2l0,0c-1.3-1.3-2-3.1-2-5.4
	c0-1.5,0.3-2.9,0.9-4c0.6-1.1,1.5-2,2.5-2.6c1.1-0.6,2.3-0.9,3.6-0.9s2.6,0.3,3.6,0.9c1.1,0.6,1.9,1.4,2.5,2.6
	c0.6,1.1,0.9,2.4,0.9,4c0,2.3-0.7,4.1-2,5.4C244.2,74,242.5,74.7,240.4,74.7z M240.4,60.4c-1.2,0-2.4,0.3-3.4,0.8s-1.8,1.3-2.3,2.4
	c-0.6,1-0.9,2.3-0.9,3.7c0,2.1,0.6,3.9,1.8,5.1l0,0c1.2,1.2,2.8,1.8,4.7,1.8s3.5-0.6,4.7-1.8c1.2-1.2,1.8-2.9,1.8-5.1
	c0-1.4-0.3-2.7-0.9-3.7c-0.6-1-1.3-1.8-2.3-2.4C242.8,60.7,241.6,60.4,240.4,60.4z M240.4,70.7c-0.6,0-1-0.3-1.4-0.9
	c-0.3-0.5-0.5-1.4-0.5-2.6s0.2-2,0.5-2.6c0.4-0.6,0.8-0.9,1.4-0.9s1,0.3,1.4,0.9c0.3,0.5,0.5,1.4,0.5,2.6s-0.2,2-0.5,2.6l0,0
	C241.4,70.4,240.9,70.7,240.4,70.7z M240.4,64.3c-0.4,0-0.7,0.2-0.9,0.6c-0.3,0.5-0.4,1.2-0.4,2.3c0,1.1,0.1,1.9,0.4,2.3
	c0.3,0.4,0.6,0.6,0.9,0.6s0.7-0.2,0.9-0.6c0.3-0.5,0.4-1.2,0.4-2.3c0-1.1-0.1-1.9-0.4-2.3C241.1,64.6,240.8,64.3,240.4,64.3z"/>
<path d="M74,122.4v5.3l-8.6,20.4H56l8.2-19h-5v3.7H52v-10.5L74,122.4L74,122.4z"/>
<path class="st5" d="M65.6,148.4h-10l8.2-19h-4.3v3.7h-7.7v-11h22.5v5.7L65.6,148.4z M56.4,147.9h8.9l8.5-20.2v-5H52.3v10H59V129
	h5.6L56.4,147.9z"/>
<path d="M75.4,147.2c-0.9-0.9-1.4-2-1.4-3.4s0.5-2.5,1.4-3.4s2.1-1.3,3.5-1.3s2.6,0.4,3.5,1.3c0.9,0.9,1.4,2,1.4,3.4
	s-0.5,2.5-1.4,3.4s-2.1,1.3-3.5,1.3S76.3,148.1,75.4,147.2z"/>
<path class="st5" d="M78.9,148.8c-1.5,0-2.7-0.5-3.6-1.4l0,0c-1-0.9-1.5-2.2-1.5-3.6c0-1.5,0.5-2.7,1.5-3.6c1-0.9,2.2-1.4,3.6-1.4
	s2.7,0.5,3.6,1.4c1,0.9,1.5,2.1,1.5,3.6s-0.5,2.7-1.5,3.6C81.5,148.3,80.3,148.8,78.9,148.8z M78.9,139.3c-1.3,0-2.4,0.4-3.3,1.2
	s-1.3,1.9-1.3,3.2s0.4,2.4,1.3,3.3l0,0c0.9,0.8,2,1.3,3.3,1.3s2.4-0.4,3.3-1.3c0.9-0.8,1.3-1.9,1.3-3.3c0-1.3-0.4-2.4-1.3-3.2
	S80.2,139.3,78.9,139.3z"/>
<path d="M104,133.8c1.7,1.5,2.6,3.5,2.6,5.9c0,1.6-0.4,3.1-1.3,4.5c-0.8,1.4-2.1,2.5-3.9,3.3s-4,1.3-6.6,1.3c-1.8,0-3.6-0.2-5.4-0.6
	c-1.8-0.4-3.4-1-4.7-1.7l2.9-6.4c1.1,0.6,2.2,1.1,3.4,1.4c1.2,0.3,2.3,0.5,3.5,0.5c1,0,1.8-0.2,2.4-0.5c0.6-0.4,0.9-0.9,0.9-1.5
	s-0.3-1.1-0.8-1.4c-0.6-0.3-1.6-0.5-3-0.5h-7.5l1.3-15.6h17.1v6.5h-10l-0.2,2.5H96C99.6,131.5,102.3,132.3,104,133.8z"/>
<path class="st5" d="M94.8,149c-1.8,0-3.7-0.2-5.5-0.6c-1.8-0.4-3.4-1-4.8-1.8l-0.2-0.1l3.1-6.8l0.2,0.1c1.1,0.6,2.2,1.1,3.3,1.4
	c1.2,0.3,2.3,0.5,3.4,0.5c1,0,1.7-0.2,2.3-0.5c0.5-0.3,0.8-0.7,0.8-1.3c0-0.5-0.2-0.9-0.7-1.2s-1.5-0.4-2.9-0.4h-7.7l1.3-16.1H105v7
	H95l-0.1,2H96c3.6,0,6.4,0.8,8.1,2.3l0,0c1.7,1.5,2.6,3.6,2.6,6.1c0,1.7-0.4,3.2-1.3,4.6c-0.9,1.4-2.2,2.5-4,3.4
	C99.6,148.6,97.4,149,94.8,149z M84.9,146.3c1.3,0.7,2.8,1.2,4.4,1.6c1.8,0.4,3.6,0.6,5.4,0.6c2.6,0,4.7-0.4,6.5-1.2
	c1.7-0.8,3-1.9,3.8-3.2s1.2-2.8,1.2-4.3c0-2.4-0.8-4.3-2.5-5.7c-1.6-1.5-4.3-2.2-7.8-2.2h-1.6l0.2-3h9.9v-6H88L86.8,138H94
	c1.5,0,2.6,0.2,3.2,0.5c0.6,0.4,1,0.9,1,1.6c0,0.7-0.4,1.3-1.1,1.7s-1.5,0.6-2.6,0.6s-2.3-0.2-3.5-0.5c-1.1-0.3-2.2-0.7-3.2-1.3
	L84.9,146.3z"/>
<path d="M109.3,134.5c-1.3-1.3-1.9-3-1.9-5.3c0-1.5,0.3-2.8,0.9-3.9s1.4-1.9,2.4-2.5s2.2-0.8,3.5-0.8s2.5,0.3,3.5,0.8
	c1,0.6,1.9,1.4,2.4,2.5c0.6,1.1,0.9,2.4,0.9,3.9c0,2.2-0.6,4-1.9,5.3s-2.9,1.9-4.9,1.9S110.6,135.8,109.3,134.5z M129.3,122.4h6.2
	L118,148.2h-6.2L129.3,122.4z M115.4,131.7c0.3-0.5,0.5-1.3,0.5-2.4c0-1.1-0.2-1.9-0.5-2.4s-0.7-0.8-1.2-0.8s-0.9,0.3-1.2,0.8
	c-0.3,0.5-0.5,1.3-0.5,2.4s0.2,1.9,0.5,2.4s0.7,0.8,1.2,0.8C114.7,132.4,115.1,132.2,115.4,131.7z M128.1,146.6
	c-1.3-1.3-1.9-3-1.9-5.3c0-1.5,0.3-2.8,0.9-3.9c0.6-1.1,1.4-1.9,2.4-2.5s2.2-0.8,3.5-0.8s2.5,0.3,3.5,0.8c1,0.6,1.9,1.4,2.4,2.5
	c0.6,1.1,0.9,2.4,0.9,3.9c0,2.2-0.6,4-1.9,5.3c-1.3,1.3-2.9,1.9-4.9,1.9C131.1,148.5,129.4,147.9,128.1,146.6z M134.2,143.8
	c0.3-0.5,0.5-1.3,0.5-2.4c0-1.1-0.2-1.9-0.5-2.4s-0.7-0.8-1.2-0.8s-0.9,0.3-1.2,0.8s-0.5,1.3-0.5,2.4c0,1.1,0.2,1.9,0.5,2.4
	s0.7,0.8,1.2,0.8S133.9,144.3,134.2,143.8z"/>
<path class="st5" d="M133.1,148.8c-2.1,0-3.8-0.7-5.1-2l0,0l0,0c-1.3-1.3-2-3.1-2-5.4c0-1.5,0.3-2.9,0.9-4s1.5-2,2.5-2.6
	c1.1-0.6,2.3-0.9,3.6-0.9s2.6,0.3,3.6,0.9c1.1,0.6,1.9,1.4,2.5,2.6c0.6,1.1,0.9,2.4,0.9,4c0,2.3-0.7,4.1-2,5.4
	C136.8,148.1,135.1,148.8,133.1,148.8z M133.1,134.4c-1.2,0-2.4,0.3-3.4,0.8s-1.8,1.3-2.3,2.4c-0.6,1-0.9,2.3-0.9,3.7
	c0,2.1,0.6,3.9,1.8,5.1l0,0c1.2,1.2,2.8,1.8,4.7,1.8s3.5-0.6,4.7-1.8s1.8-2.9,1.8-5.1c0-1.4-0.3-2.7-0.9-3.7c-0.6-1-1.3-1.8-2.3-2.4
	C135.4,134.7,134.3,134.4,133.1,134.4z M118.1,148.4h-6.8l17.9-26.2h6.8L118.1,148.4z M112.2,147.9h5.6l17.2-25.2h-5.6L112.2,147.9z
	 M133.1,144.8c-0.6,0-1-0.3-1.4-0.9c-0.3-0.5-0.5-1.4-0.5-2.6c0-1.2,0.2-2,0.5-2.6c0.4-0.6,0.8-0.9,1.4-0.9c0.6,0,1,0.3,1.4,0.9
	c0.3,0.5,0.5,1.4,0.5,2.6c0,1.2-0.2,2-0.5,2.6C134.1,144.5,133.6,144.8,133.1,144.8z M133.1,138.4c-0.4,0-0.7,0.2-0.9,0.6
	c-0.3,0.5-0.4,1.2-0.4,2.3s0.1,1.9,0.4,2.3c0.3,0.4,0.6,0.6,0.9,0.6c0.4,0,0.7-0.2,0.9-0.6l0,0c0.3-0.5,0.4-1.2,0.4-2.3
	s-0.1-1.9-0.4-2.3C133.7,138.6,133.4,138.4,133.1,138.4z M114.2,136.7c-2.1,0-3.8-0.7-5.1-2l0,0l0,0c-1.3-1.3-2-3.1-2-5.4
	c0-1.5,0.3-2.9,0.9-4s1.5-2,2.5-2.6c1.1-0.6,2.3-0.9,3.6-0.9c1.3,0,2.6,0.3,3.6,0.9c1.1,0.6,1.9,1.4,2.5,2.6c0.6,1.1,0.9,2.4,0.9,4
	c0,2.3-0.7,4.1-2,5.4C118,136,116.3,136.7,114.2,136.7z M114.2,122.3c-1.2,0-2.4,0.3-3.4,0.8s-1.8,1.3-2.3,2.4
	c-0.6,1-0.9,2.3-0.9,3.7c0,2.1,0.6,3.9,1.8,5.1l0,0c1.2,1.2,2.8,1.8,4.7,1.8s3.5-0.6,4.7-1.8s1.8-2.9,1.8-5.1c0-1.4-0.3-2.7-0.9-3.7
	s-1.3-1.8-2.3-2.4C116.6,122.6,115.5,122.3,114.2,122.3z M114.2,132.7c-0.6,0-1-0.3-1.4-0.9c-0.3-0.5-0.5-1.4-0.5-2.6
	c0-1.2,0.2-2,0.5-2.6c0.4-0.6,0.8-0.9,1.4-0.9s1,0.3,1.4,0.9c0.3,0.5,0.5,1.4,0.5,2.6s-0.2,2-0.5,2.6l0,0
	C115.2,132.4,114.8,132.7,114.2,132.7z M114.2,126.3c-0.4,0-0.7,0.2-0.9,0.6c-0.3,0.5-0.4,1.2-0.4,2.3c0,1.1,0.1,1.9,0.4,2.3
	c0.3,0.4,0.6,0.6,0.9,0.6s0.7-0.2,0.9-0.6l0,0c0.3-0.5,0.4-1.2,0.4-2.3s-0.1-1.9-0.4-2.3C114.9,126.5,114.6,126.3,114.2,126.3z"/>
<path d="M217.1,293.3c0.6,1,0.9,2.1,0.9,3.4c0,1.6-0.5,3.1-1.4,4.3c-1,1.2-2.3,2.2-4.1,2.9c-1.8,0.7-3.8,1-6,1s-4.3-0.3-6-1
	c-1.8-0.7-3.1-1.6-4.1-2.9c-1-1.2-1.5-2.7-1.5-4.3c0-1.3,0.3-2.4,0.9-3.4c0.6-1,1.5-1.8,2.6-2.5c-1.7-1.3-2.5-3-2.5-5.1
	c0-1.5,0.4-2.9,1.3-4c0.9-1.2,2.1-2,3.7-2.7c1.6-0.6,3.4-1,5.5-1s3.9,0.3,5.5,1c1.6,0.6,2.9,1.5,3.7,2.7c0.9,1.2,1.3,2.5,1.3,4
	c0,2-0.8,3.7-2.5,5.1C215.6,291.4,216.5,292.3,217.1,293.3z M208.5,298.3c0.5-0.5,0.8-1.1,0.8-1.9s-0.3-1.5-0.8-1.9
	c-0.5-0.5-1.2-0.7-2-0.7s-1.5,0.2-2,0.7s-0.8,1.1-0.8,1.9s0.3,1.5,0.8,1.9c0.5,0.5,1.2,0.7,2,0.7S208,298.8,208.5,298.3z M205,284.4
	c-0.4,0.4-0.6,0.9-0.6,1.6s0.2,1.2,0.6,1.6c0.4,0.4,0.9,0.6,1.5,0.6s1.1-0.2,1.5-0.6s0.6-0.9,0.6-1.6s-0.2-1.2-0.6-1.6
	c-0.4-0.4-0.9-0.6-1.5-0.6S205.3,284,205,284.4z"/>
<path class="st5" d="M206.5,305.1c-2.3,0-4.3-0.3-6.1-1s-3.2-1.7-4.2-3s-1.5-2.8-1.5-4.5c0-1.3,0.3-2.5,0.9-3.5
	c0.6-0.9,1.4-1.7,2.3-2.4c-1.6-1.4-2.4-3-2.4-5c0-1.6,0.5-3,1.4-4.2s2.2-2.1,3.9-2.8c1.6-0.6,3.5-1,5.6-1s4,0.3,5.6,1
	s2.9,1.6,3.9,2.8c0.9,1.2,1.4,2.6,1.4,4.2c0,2-0.8,3.7-2.4,5c1,0.7,1.8,1.5,2.3,2.4l0,0c0.6,1,0.9,2.2,0.9,3.5
	c0,1.7-0.5,3.2-1.5,4.5s-2.4,2.3-4.2,3C210.8,304.8,208.7,305.1,206.5,305.1z M206.5,278.2c-2,0-3.9,0.3-5.4,0.9
	c-1.6,0.6-2.8,1.5-3.6,2.6c-0.9,1.1-1.3,2.4-1.3,3.9c0,1.9,0.8,3.6,2.4,4.9l0.3,0.2l-0.3,0.2c-1.1,0.7-1.9,1.5-2.5,2.4
	s-0.9,2-0.9,3.3c0,1.6,0.5,3,1.4,4.2s2.3,2.1,4,2.8c1.7,0.7,3.7,1,5.9,1s4.2-0.3,5.9-1s3-1.6,4-2.8c0.9-1.2,1.4-2.6,1.4-4.2
	c0-1.2-0.3-2.3-0.9-3.3l0,0c-0.6-1-1.4-1.8-2.5-2.4l-0.3-0.2l0.3-0.2c1.6-1.3,2.4-2.9,2.4-4.9c0-1.5-0.4-2.8-1.3-3.9
	c-0.9-1.1-2.1-2-3.6-2.6C210.3,278.6,208.5,278.2,206.5,278.2z M206.5,299.3c-0.9,0-1.6-0.3-2.2-0.8c-0.6-0.5-0.9-1.3-0.9-2.1
	s0.3-1.6,0.9-2.1c0.6-0.5,1.3-0.8,2.2-0.8s1.6,0.3,2.2,0.8c0.6,0.5,0.9,1.3,0.9,2.1s-0.3,1.6-0.9,2.1l0,0
	C208.1,299,207.3,299.3,206.5,299.3z M206.5,293.9c-0.8,0-1.4,0.2-1.9,0.7c-0.5,0.4-0.7,1-0.7,1.8s0.2,1.3,0.7,1.8
	c0.5,0.4,1.1,0.7,1.9,0.7c0.8,0,1.4-0.2,1.9-0.7l0,0c0.5-0.4,0.7-1,0.7-1.8s-0.2-1.3-0.7-1.8C207.8,294.1,207.2,293.9,206.5,293.9z
	 M206.5,288.5c-0.7,0-1.2-0.2-1.7-0.7c-0.4-0.4-0.6-1-0.6-1.8s0.2-1.4,0.6-1.8c0.4-0.4,1-0.7,1.7-0.7s1.2,0.2,1.7,0.7
	c0.4,0.4,0.6,1,0.6,1.8c0,0.7-0.2,1.4-0.6,1.8C207.7,288.3,207.1,288.5,206.5,288.5z M206.5,284.1c-0.5,0-1,0.2-1.3,0.5l0,0
	c-0.3,0.3-0.5,0.8-0.5,1.4s0.2,1.1,0.5,1.4s0.8,0.5,1.3,0.5s1-0.2,1.3-0.5s0.5-0.8,0.5-1.4s-0.2-1.1-0.5-1.4
	C207.4,284.3,207,284.1,206.5,284.1z"/>
<path d="M236.3,279.4c1.8,1,3.3,2.4,4.3,4.3s1.5,4.2,1.5,6.9c0,2.9-0.6,5.5-1.8,7.6s-2.9,3.8-5,4.9s-4.6,1.7-7.5,1.7
	c-1.5,0-3-0.2-4.4-0.5s-2.6-0.9-3.6-1.5l3.1-6.1c1.3,0.9,2.8,1.4,4.7,1.4c1.5,0,2.7-0.4,3.7-1.1s1.6-1.8,1.9-3.3
	c-1.3,1-3,1.4-5.1,1.4c-1.6,0-3-0.3-4.4-1c-1.3-0.7-2.4-1.7-3.2-2.9c-0.8-1.2-1.2-2.7-1.2-4.3c0-1.8,0.5-3.4,1.4-4.7
	c0.9-1.4,2.2-2.4,3.8-3.2c1.6-0.7,3.4-1.1,5.3-1.1C232.2,278,234.4,278.5,236.3,279.4z M232.3,288.5c0.5-0.5,0.7-1.1,0.7-1.9
	s-0.2-1.4-0.7-1.9s-1.1-0.7-1.9-0.7c-0.8,0-1.4,0.2-1.9,0.7s-0.7,1.1-0.7,1.9s0.2,1.5,0.7,1.9c0.5,0.5,1.1,0.7,1.9,0.7
	C231.1,289.2,231.8,289,232.3,288.5z"/>
<path class="st5" d="M227.9,305.1c-1.6,0-3.1-0.2-4.5-0.5c-1.4-0.4-2.6-0.9-3.6-1.5l-0.2-0.1l3.4-6.5l0.2,0.2
	c1.2,0.9,2.7,1.3,4.5,1.3c1.4,0,2.6-0.4,3.5-1.1c0.8-0.6,1.3-1.4,1.6-2.5c-1.3,0.8-2.9,1.1-4.7,1.1c-1.6,0-3.1-0.4-4.5-1.1
	s-2.5-1.7-3.3-3s-1.3-2.8-1.3-4.4c0-1.8,0.5-3.5,1.4-4.9s2.2-2.5,3.9-3.2c1.6-0.7,3.4-1.1,5.4-1.1c2.5,0,4.7,0.5,6.6,1.5
	c1.9,1,3.4,2.4,4.4,4.4c1,1.9,1.6,4.3,1.6,7.1c0,3-0.6,5.6-1.8,7.8c-1.2,2.2-2.9,3.9-5.1,5C233.3,304.5,230.7,305.1,227.9,305.1z
	 M220.2,302.8c0.9,0.6,2,1,3.3,1.3c1.4,0.3,2.8,0.5,4.3,0.5c2.8,0,5.3-0.6,7.4-1.7c2.1-1.1,3.7-2.7,4.9-4.8c1.2-2.1,1.8-4.6,1.8-7.5
	c0-2.7-0.5-5-1.5-6.8s-2.4-3.2-4.2-4.2l0,0c-1.8-0.9-3.9-1.4-6.4-1.4c-1.9,0-3.6,0.4-5.2,1.1c-1.5,0.7-2.8,1.7-3.7,3.1
	c-0.9,1.3-1.3,2.9-1.3,4.6c0,1.6,0.4,3,1.2,4.2s1.8,2.2,3.1,2.8c1.3,0.7,2.7,1,4.3,1c2,0,3.7-0.5,5-1.4l0.5-0.4l-0.1,0.6
	c-0.3,1.5-1,2.6-2,3.4s-2.3,1.2-3.8,1.2c-1.8,0-3.3-0.4-4.6-1.2L220.2,302.8z M230.4,289.5c-0.8,0-1.5-0.3-2.1-0.8
	c-0.5-0.5-0.8-1.2-0.8-2.1s0.3-1.6,0.8-2.1s1.2-0.8,2.1-0.8c0.8,0,1.5,0.3,2.1,0.8c0.5,0.5,0.8,1.2,0.8,2.1s-0.3,1.6-0.8,2.1l0,0
	C231.9,289.2,231.2,289.5,230.4,289.5z M230.4,284.2c-0.7,0-1.3,0.2-1.7,0.6s-0.7,1-0.7,1.7s0.2,1.3,0.7,1.7c0.4,0.4,1,0.6,1.7,0.6
	s1.3-0.2,1.7-0.6l0,0c0.4-0.4,0.7-1,0.7-1.7s-0.2-1.3-0.7-1.7C231.7,284.4,231.1,284.2,230.4,284.2z"/>
<path d="M244.7,303.3c-0.9-0.9-1.4-2-1.4-3.4s0.5-2.5,1.4-3.4s2.1-1.3,3.5-1.3s2.6,0.4,3.5,1.3s1.4,2,1.4,3.4s-0.5,2.5-1.4,3.4
	s-2.1,1.3-3.5,1.3S245.7,304.2,244.7,303.3z"/>
<path class="st5" d="M248.2,304.9c-1.5,0-2.7-0.5-3.6-1.4l0,0c-1-0.9-1.5-2.2-1.5-3.6c0-1.5,0.5-2.7,1.5-3.6s2.2-1.4,3.6-1.4
	s2.7,0.5,3.6,1.4c1,0.9,1.5,2.1,1.5,3.6s-0.5,2.7-1.5,3.6C250.9,304.4,249.7,304.9,248.2,304.9z M248.2,295.4
	c-1.3,0-2.4,0.4-3.3,1.2c-0.9,0.8-1.3,1.9-1.3,3.2c0,1.3,0.4,2.4,1.3,3.3l0,0c0.9,0.8,2,1.3,3.3,1.3s2.4-0.4,3.3-1.3
	c0.9-0.8,1.3-1.9,1.3-3.3c0-1.3-0.4-2.4-1.3-3.2C250.6,295.8,249.5,295.4,248.2,295.4z"/>
<path d="M273.3,289.9c1.7,1.5,2.6,3.5,2.6,5.9c0,1.6-0.4,3.1-1.3,4.5c-0.8,1.4-2.1,2.5-3.9,3.3s-4,1.3-6.6,1.3
	c-1.8,0-3.6-0.2-5.4-0.6s-3.4-1-4.7-1.7l2.9-6.4c1.1,0.6,2.2,1.1,3.4,1.4c1.2,0.3,2.3,0.5,3.5,0.5c1,0,1.8-0.2,2.4-0.5
	c0.6-0.4,0.9-0.9,0.9-1.5s-0.3-1.1-0.8-1.4c-0.6-0.3-1.6-0.5-3-0.5h-7.5l1.3-15.6h17.1v6.5h-10l-0.2,2.5h1.3
	C269,287.7,271.6,288.4,273.3,289.9z"/>
<path class="st5" d="M264.1,305.1c-1.8,0-3.7-0.2-5.5-0.6s-3.4-1-4.8-1.8l-0.2-0.1l3.1-6.8l0.2,0.1c1.1,0.6,2.2,1.1,3.3,1.4
	c1.2,0.3,2.3,0.5,3.4,0.5c1,0,1.7-0.2,2.3-0.5c0.5-0.3,0.8-0.7,0.8-1.3c0-0.5-0.2-0.9-0.7-1.2c-0.5-0.3-1.5-0.4-2.9-0.4h-7.7
	l1.3-16.1h17.6v7h-10l-0.1,2h1.1c3.6,0,6.4,0.8,8.1,2.3l0,0c1.7,1.5,2.6,3.6,2.6,6.1c0,1.7-0.4,3.2-1.3,4.6s-2.2,2.5-4,3.4
	C269,304.7,266.8,305.1,264.1,305.1z M254.3,302.5c1.3,0.7,2.8,1.2,4.4,1.6c1.8,0.4,3.6,0.6,5.4,0.6c2.6,0,4.7-0.4,6.5-1.2
	c1.7-0.8,3-1.9,3.8-3.2c0.8-1.3,1.2-2.8,1.2-4.3c0-2.4-0.8-4.3-2.5-5.7l0,0c-1.6-1.5-4.3-2.2-7.8-2.2h-1.6l0.2-3h9.9v-6h-16.6
	l-1.2,15.1h7.2c1.5,0,2.6,0.2,3.2,0.5c0.6,0.4,1,0.9,1,1.6s-0.4,1.3-1.1,1.7c-0.7,0.4-1.5,0.6-2.6,0.6s-2.3-0.2-3.5-0.5
	c-1.1-0.3-2.2-0.7-3.2-1.3L254.3,302.5z"/>
<path d="M278.7,290.6c-1.3-1.3-1.9-3-1.9-5.3c0-1.5,0.3-2.8,0.9-3.9s1.4-1.9,2.4-2.5s2.2-0.8,3.5-0.8s2.5,0.3,3.5,0.8
	c1,0.6,1.9,1.4,2.4,2.5c0.6,1.1,0.9,2.4,0.9,3.9c0,2.2-0.6,4-1.9,5.3s-2.9,1.9-4.9,1.9S279.9,291.9,278.7,290.6z M298.7,278.6h6.2
	l-17.6,25.7h-6.2L298.7,278.6z M284.7,287.8c0.3-0.5,0.5-1.3,0.5-2.4s-0.2-1.9-0.5-2.4s-0.7-0.8-1.2-0.8s-0.9,0.3-1.2,0.8
	c-0.3,0.5-0.5,1.3-0.5,2.4s0.2,1.9,0.5,2.4s0.7,0.8,1.2,0.8S284.4,288.3,284.7,287.8z M297.5,302.7c-1.3-1.3-1.9-3-1.9-5.3
	c0-1.5,0.3-2.8,0.9-3.9s1.4-1.9,2.4-2.5s2.2-0.8,3.5-0.8s2.5,0.3,3.5,0.8c1,0.6,1.9,1.4,2.4,2.5c0.6,1.1,0.9,2.4,0.9,3.9
	c0,2.2-0.6,4-1.9,5.3s-2.9,1.9-4.9,1.9C300.4,304.7,298.8,304,297.5,302.7z M303.6,299.9c0.3-0.5,0.5-1.3,0.5-2.4s-0.2-1.9-0.5-2.4
	s-0.7-0.8-1.2-0.8s-0.9,0.3-1.2,0.8c-0.3,0.5-0.5,1.3-0.5,2.4s0.2,1.9,0.5,2.4s0.7,0.8,1.2,0.8C302.9,300.7,303.3,300.4,303.6,299.9
	z"/>
<path class="st5" d="M302.4,304.9c-2.1,0-3.8-0.7-5.1-2c-1.3-1.3-2-3.1-2-5.4c0-1.5,0.3-2.9,0.9-4s1.5-2,2.5-2.6
	c1.1-0.6,2.3-0.9,3.6-0.9c1.3,0,2.6,0.3,3.6,0.9c1.1,0.6,1.9,1.4,2.5,2.6c0.6,1.1,0.9,2.4,0.9,4c0,2.3-0.7,4.1-2,5.4
	C306.2,304.2,304.5,304.9,302.4,304.9z M302.4,290.6c-1.2,0-2.4,0.3-3.4,0.8s-1.8,1.3-2.3,2.4c-0.6,1-0.9,2.3-0.9,3.7
	c0,2.1,0.6,3.9,1.8,5.1c1.2,1.2,2.8,1.8,4.7,1.8s3.5-0.6,4.7-1.8c1.2-1.2,1.8-2.9,1.8-5.1c0-1.4-0.3-2.7-0.9-3.7s-1.3-1.8-2.3-2.4
	C304.8,290.9,303.7,290.6,302.4,290.6z M287.5,304.5h-6.8l17.9-26.2h6.8L287.5,304.5z M281.6,304h5.6l17.2-25.2h-5.6L281.6,304z
	 M302.4,300.9c-0.6,0-1-0.3-1.4-0.9c-0.3-0.5-0.5-1.4-0.5-2.6s0.2-2,0.5-2.6c0.4-0.6,0.8-0.9,1.4-0.9s1,0.3,1.4,0.9
	c0.3,0.5,0.5,1.4,0.5,2.6s-0.2,2-0.5,2.6l0,0C303.4,300.6,303,300.9,302.4,300.9z M302.4,294.5c-0.4,0-0.7,0.2-0.9,0.6
	c-0.3,0.5-0.4,1.2-0.4,2.3c0,1.1,0.1,1.9,0.4,2.3s0.6,0.6,0.9,0.6c0.4,0,0.7-0.2,0.9-0.6l0,0c0.3-0.5,0.4-1.2,0.4-2.3
	c0-1.1-0.1-1.9-0.4-2.3C303.1,294.8,302.8,294.5,302.4,294.5z M283.6,292.8c-2.1,0-3.8-0.7-5.1-2l0,0l0,0c-1.3-1.3-2-3.1-2-5.4
	c0-1.5,0.3-2.9,0.9-4s1.5-2,2.5-2.6c1.1-0.6,2.3-0.9,3.6-0.9s2.6,0.3,3.6,0.9c1.1,0.6,1.9,1.4,2.5,2.6c0.6,1.1,0.9,2.4,0.9,4
	c0,2.3-0.7,4.1-2,5.4C287.4,292.1,285.6,292.8,283.6,292.8z M283.6,278.5c-1.2,0-2.4,0.3-3.4,0.8s-1.8,1.3-2.3,2.4
	c-0.6,1-0.9,2.3-0.9,3.7c0,2.1,0.6,3.9,1.8,5.1l0,0c1.2,1.2,2.8,1.8,4.7,1.8c1.9,0,3.5-0.6,4.7-1.8c1.2-1.2,1.8-2.9,1.8-5.1
	c0-1.4-0.3-2.7-0.9-3.7s-1.3-1.8-2.3-2.4C286,278.7,284.8,278.5,283.6,278.5z M283.6,288.8c-0.6,0-1-0.3-1.4-0.9
	c-0.3-0.5-0.5-1.4-0.5-2.6s0.2-2,0.5-2.6c0.4-0.6,0.8-0.9,1.4-0.9s1,0.3,1.4,0.9c0.3,0.5,0.5,1.4,0.5,2.6s-0.2,2-0.5,2.6l0,0
	C284.6,288.5,284.1,288.8,283.6,288.8z M283.6,282.4c-0.4,0-0.7,0.2-0.9,0.6c-0.3,0.5-0.4,1.2-0.4,2.3c0,1.1,0.1,1.9,0.4,2.3
	s0.6,0.6,0.9,0.6s0.7-0.2,0.9-0.6l0,0c0.3-0.5,0.4-1.2,0.4-2.3c0-1.1-0.1-1.9-0.4-2.3C284.3,282.6,283.9,282.4,283.6,282.4z"/>
<path d="M127.7,412.5c1.1,0.9,1.6,2.1,1.6,3.7s-0.5,2.8-1.6,3.7c-1.1,0.9-2.5,1.3-4.4,1.3h-3.9v4.6h-1.6v-14.7h5.5
	C125.1,411.2,126.6,411.6,127.7,412.5z M126.6,418.9c0.8-0.6,1.2-1.5,1.2-2.7s-0.4-2.1-1.2-2.7s-1.9-1-3.3-1h-3.9v7.4h3.9
	C124.7,419.8,125.8,419.5,126.6,418.9z"/>
<path d="M135,415.3c0.7-0.4,1.6-0.6,2.6-0.6v1.4h-0.4c-1.2,0-2.1,0.4-2.7,1.1s-1,1.7-1,3v5.6H132v-11h1.4v2.2
	C133.8,416.2,134.3,415.7,135,415.3z"/>
<path d="M141.8,425.2c-0.9-0.5-1.5-1.2-2-2c-0.5-0.9-0.7-1.8-0.7-2.9s0.2-2,0.7-2.9s1.2-1.5,2-2c0.9-0.5,1.8-0.7,2.9-0.7
	c1.1,0,2,0.2,2.9,0.7s1.5,1.1,2,2s0.7,1.8,0.7,2.9s-0.2,2-0.7,2.9s-1.2,1.5-2,2c-0.9,0.5-1.8,0.7-2.9,0.7
	C143.6,426,142.7,425.7,141.8,425.2z M146.8,424.1c0.6-0.4,1.1-0.9,1.5-1.5c0.3-0.7,0.5-1.4,0.5-2.2c0-0.8-0.2-1.6-0.5-2.2
	c-0.4-0.7-0.8-1.2-1.5-1.5c-0.6-0.4-1.3-0.5-2.1-0.5s-1.5,0.2-2.1,0.5c-0.6,0.4-1.1,0.9-1.5,1.5c-0.4,0.7-0.5,1.4-0.5,2.2
	c0,0.8,0.2,1.6,0.5,2.2c0.4,0.7,0.8,1.2,1.5,1.5c0.6,0.4,1.3,0.5,2.1,0.5S146.2,424.5,146.8,424.1z"/>
<path d="M163.4,410.3v15.6H162v-2.2c-0.4,0.7-1,1.3-1.8,1.7c-0.7,0.4-1.6,0.6-2.5,0.6c-1,0-2-0.2-2.8-0.7s-1.5-1.1-2-2
	s-0.7-1.8-0.7-2.9s0.2-2.1,0.7-2.9c0.5-0.9,1.1-1.5,2-2c0.8-0.5,1.8-0.7,2.8-0.7c0.9,0,1.7,0.2,2.4,0.6s1.3,0.9,1.8,1.6v-6.6h1.5
	V410.3z M160,424.1c0.6-0.4,1.1-0.9,1.5-1.5c0.4-0.7,0.5-1.4,0.5-2.2c0-0.8-0.2-1.6-0.5-2.2c-0.4-0.7-0.8-1.2-1.5-1.5
	c-0.6-0.4-1.3-0.5-2.1-0.5s-1.5,0.2-2.1,0.5c-0.6,0.4-1.1,0.9-1.5,1.5c-0.4,0.7-0.5,1.4-0.5,2.2c0,0.8,0.2,1.6,0.5,2.2
	c0.4,0.7,0.8,1.2,1.5,1.5c0.6,0.4,1.3,0.5,2.1,0.5C158.6,424.6,159.3,424.5,160,424.1z"/>
<path d="M177.5,414.8v11h-1.4v-2c-0.4,0.7-0.9,1.2-1.6,1.6c-0.7,0.4-1.5,0.6-2.4,0.6c-1.4,0-2.6-0.4-3.4-1.2c-0.8-0.8-1.3-2-1.3-3.5
	v-6.4h1.5v6.3c0,1.2,0.3,2,0.9,2.6c0.6,0.6,1.4,0.9,2.5,0.9c1.2,0,2.1-0.4,2.8-1.1s1-1.7,1-3v-5.8H177.5z"/>
<path d="M187.5,425.2c-0.3,0.3-0.6,0.4-1,0.6s-0.8,0.2-1.3,0.2c-1,0-1.8-0.3-2.4-0.8c-0.6-0.6-0.8-1.4-0.8-2.4v-6.7h-2v-1.3h2v-2.4
	h1.5v2.4h3.4v1.3h-3.4v6.6c0,0.7,0.2,1.2,0.5,1.5s0.8,0.5,1.4,0.5c0.3,0,0.6,0,0.9-0.1c0.3-0.1,0.5-0.2,0.7-0.4L187.5,425.2z"/>
<path d="M191.5,425.2c-0.9-0.5-1.5-1.2-2-2c-0.5-0.9-0.7-1.8-0.7-2.9s0.2-2,0.7-2.9s1.2-1.5,2-2c0.9-0.5,1.8-0.7,2.9-0.7
	c1.1,0,2,0.2,2.9,0.7s1.5,1.1,2,2s0.7,1.8,0.7,2.9s-0.2,2-0.7,2.9s-1.2,1.5-2,2c-0.9,0.5-1.8,0.7-2.9,0.7
	C193.3,426,192.3,425.7,191.5,425.2z M196.5,424.1c0.6-0.4,1.1-0.9,1.5-1.5c0.3-0.7,0.5-1.4,0.5-2.2c0-0.8-0.2-1.6-0.5-2.2
	c-0.4-0.7-0.8-1.2-1.5-1.5c-0.6-0.4-1.3-0.5-2.1-0.5s-1.5,0.2-2.1,0.5c-0.6,0.4-1.1,0.9-1.5,1.5c-0.4,0.7-0.5,1.4-0.5,2.2
	c0,0.8,0.2,1.6,0.5,2.2c0.4,0.7,0.8,1.2,1.5,1.5c0.6,0.4,1.3,0.5,2.1,0.5S195.9,424.5,196.5,424.1z"/>
<path d="M206,415.3c0.7-0.4,1.6-0.6,2.6-0.6v1.4h-0.4c-1.2,0-2.1,0.4-2.7,1.1s-1,1.7-1,3v5.6H203v-11h1.4v2.2
	C204.8,416.2,205.3,415.7,206,415.3z"/>
<path class="st4" d="M95.7,434.7h-21c-2.5,0-4.5-2-4.5-4.5v-21c0-2.5,2-4.5,4.5-4.5h21c2.5,0,4.5,2,4.5,4.5v21
	C100.2,432.7,98.2,434.7,95.7,434.7z"/>
<path d="M119.3,452.5v5.8h7.6v1.3h-7.6v6.2h-1.6v-14.7h10.1v1.3h-8.5V452.5z"/>
<path d="M133.5,455.3c0.7-0.4,1.6-0.6,2.6-0.6v1.4h-0.4c-1.2,0-2.1,0.4-2.7,1.1s-1,1.7-1,3v5.6h-1.5v-11h1.4v2.2
	C132.3,456.2,132.8,455.7,133.5,455.3z"/>
<path d="M148.3,460.8h-9.2c0.1,1.1,0.5,2.1,1.3,2.8s1.8,1.1,3,1.1c0.7,0,1.3-0.1,1.9-0.4c0.6-0.2,1.1-0.6,1.5-1.1l0.8,1
	c-0.5,0.6-1.1,1-1.8,1.3s-1.5,0.5-2.4,0.5c-1.1,0-2.1-0.2-3-0.7s-1.6-1.2-2-2c-0.5-0.9-0.7-1.8-0.7-2.9s0.2-2,0.7-2.9s1.1-1.5,1.9-2
	c0.8-0.5,1.7-0.7,2.8-0.7c1,0,1.9,0.2,2.8,0.7c0.8,0.5,1.4,1.1,1.9,2c0.5,0.8,0.7,1.8,0.7,2.9L148.3,460.8z M140.3,457
	c-0.7,0.7-1.1,1.6-1.2,2.7h7.8c-0.1-1.1-0.5-2-1.2-2.7s-1.6-1-2.7-1C141.9,456,141,456.3,140.3,457z"/>
<path d="M161,460.8h-9.2c0.1,1.1,0.5,2.1,1.3,2.8s1.8,1.1,3,1.1c0.7,0,1.3-0.1,1.9-0.4c0.6-0.2,1.1-0.6,1.5-1.1l0.8,1
	c-0.5,0.6-1.1,1-1.8,1.3s-1.5,0.5-2.4,0.5c-1.1,0-2.1-0.2-3-0.7s-1.6-1.2-2-2c-0.5-0.9-0.7-1.8-0.7-2.9s0.2-2,0.7-2.9s1.1-1.5,1.9-2
	c0.8-0.5,1.7-0.7,2.8-0.7c1,0,1.9,0.2,2.8,0.7c0.8,0.5,1.4,1.1,1.9,2c0.5,0.8,0.7,1.8,0.7,2.9L161,460.8z M153,457
	c-0.7,0.7-1.1,1.6-1.2,2.7h7.8c-0.1-1.1-0.5-2-1.2-2.7s-1.6-1-2.7-1C154.6,456,153.7,456.3,153,457z"/>
<path d="M174.1,450.3v15.6h-1.4v-2.2c-0.4,0.7-1,1.3-1.8,1.7c-0.7,0.4-1.6,0.6-2.5,0.6c-1,0-2-0.2-2.8-0.7s-1.5-1.1-2-2
	s-0.7-1.8-0.7-2.9s0.2-2.1,0.7-2.9c0.5-0.9,1.1-1.5,2-2c0.8-0.5,1.8-0.7,2.8-0.7c0.9,0,1.7,0.2,2.4,0.6s1.3,0.9,1.8,1.6v-6.6h1.5
	V450.3z M170.7,464.1c0.6-0.4,1.1-0.9,1.5-1.5c0.4-0.7,0.5-1.4,0.5-2.2c0-0.8-0.2-1.6-0.5-2.2c-0.4-0.7-0.8-1.2-1.5-1.5
	c-0.6-0.4-1.3-0.5-2.1-0.5s-1.5,0.2-2.1,0.5c-0.6,0.4-1.1,0.9-1.5,1.5c-0.4,0.7-0.5,1.4-0.5,2.2c0,0.8,0.2,1.6,0.5,2.2
	c0.4,0.7,0.8,1.2,1.5,1.5c0.6,0.4,1.3,0.5,2.1,0.5C169.3,464.6,170,464.5,170.7,464.1z"/>
<path d="M179.9,465.2c-0.9-0.5-1.5-1.2-2-2c-0.5-0.9-0.7-1.8-0.7-2.9s0.2-2,0.7-2.9s1.2-1.5,2-2c0.9-0.5,1.8-0.7,2.9-0.7
	c1.1,0,2,0.2,2.9,0.7s1.5,1.1,2,2s0.7,1.8,0.7,2.9s-0.2,2-0.7,2.9s-1.2,1.5-2,2c-0.9,0.5-1.8,0.7-2.9,0.7
	C181.7,466,180.8,465.7,179.9,465.2z M184.9,464.1c0.6-0.4,1.1-0.9,1.5-1.5c0.3-0.7,0.5-1.4,0.5-2.2c0-0.8-0.2-1.6-0.5-2.2
	c-0.4-0.7-0.8-1.2-1.5-1.5c-0.6-0.4-1.3-0.5-2.1-0.5s-1.5,0.2-2.1,0.5c-0.6,0.4-1.1,0.9-1.5,1.5c-0.4,0.7-0.5,1.4-0.5,2.2
	c0,0.8,0.2,1.6,0.5,2.2c0.4,0.7,0.8,1.2,1.5,1.5c0.6,0.4,1.3,0.5,2.1,0.5S184.3,464.5,184.9,464.1z"/>
<path d="M208.5,455.9c0.8,0.8,1.2,2,1.2,3.5v6.4h-1.5v-6.3c0-1.1-0.3-2-0.8-2.6s-1.3-0.9-2.3-0.9c-1.1,0-2.1,0.4-2.7,1.1
	s-1,1.7-1,2.9v5.8h-1.5v-6.3c0-1.1-0.3-2-0.8-2.6c-0.6-0.6-1.3-0.9-2.4-0.9c-1.1,0-2,0.4-2.7,1.1s-1,1.7-1,2.9v5.8h-1.5v-11h1.4v2
	c0.4-0.7,0.9-1.2,1.6-1.6s1.5-0.5,2.4-0.5s1.7,0.2,2.4,0.6s1.2,1,1.5,1.7c0.4-0.7,1-1.3,1.8-1.7c0.8-0.4,1.6-0.6,2.6-0.6
	C206.6,454.7,207.7,455.1,208.5,455.9z"/>
<path d="M223.4,460.8h-9.2c0.1,1.1,0.5,2.1,1.3,2.8s1.8,1.1,3,1.1c0.7,0,1.3-0.1,1.9-0.4c0.6-0.2,1.1-0.6,1.5-1.1l0.8,1
	c-0.5,0.6-1.1,1-1.8,1.3s-1.5,0.5-2.4,0.5c-1.1,0-2.1-0.2-3-0.7s-1.6-1.2-2-2c-0.5-0.9-0.7-1.8-0.7-2.9s0.2-2,0.7-2.9s1.1-1.5,1.9-2
	c0.8-0.5,1.7-0.7,2.8-0.7c1,0,1.9,0.2,2.8,0.7c0.8,0.5,1.4,1.1,1.9,2c0.5,0.8,0.7,1.8,0.7,2.9L223.4,460.8z M215.4,457
	c-0.7,0.7-1.1,1.6-1.2,2.7h7.8c-0.1-1.1-0.5-2-1.2-2.7s-1.6-1-2.7-1C217,456,216.1,456.3,215.4,457z"/>
<path d="M237.2,464.5v1.3h-10.4v-14.7h10.1v1.3h-8.5v5.2h7.6v1.3h-7.6v5.5h8.8V464.5z"/>
<path class="st3" d="M95.7,474.7h-21c-2.5,0-4.5-2-4.5-4.5v-21c0-2.5,2-4.5,4.5-4.5h21c2.5,0,4.5,2,4.5,4.5v21
	C100.2,472.7,98.2,474.7,95.7,474.7z"/>
<path d="M119.3,492.5v5.8h7.6v1.3h-7.6v6.2h-1.6v-14.7h10.1v1.3h-8.5V492.5z"/>
<path d="M130.5,492.1c-0.2-0.2-0.3-0.5-0.3-0.8s0.1-0.5,0.3-0.7s0.5-0.3,0.8-0.3s0.6,0.1,0.8,0.3s0.3,0.4,0.3,0.7
	c0,0.3-0.1,0.6-0.3,0.8s-0.5,0.3-0.8,0.3S130.7,492.3,130.5,492.1z M130.5,494.8h1.5v11h-1.5V494.8z"/>
<path d="M136.2,490.3h1.5v15.6h-1.5V490.3z"/>
<path d="M149,495.8c0.8,0.7,1.2,1.8,1.2,3.2v6.8h-1.4v-1.7c-0.3,0.6-0.8,1-1.5,1.3s-1.4,0.5-2.3,0.5c-1.2,0-2.2-0.3-2.9-0.9
	s-1.1-1.4-1.1-2.3s0.3-1.7,1-2.3c0.7-0.6,1.8-0.9,3.2-0.9h3.5v-0.7c0-1-0.3-1.7-0.8-2.2s-1.3-0.7-2.3-0.7c-0.7,0-1.4,0.1-2,0.3
	c-0.6,0.2-1.2,0.5-1.7,1l-0.7-1.1c0.6-0.5,1.2-0.8,2-1.1s1.6-0.4,2.5-0.4C147.1,494.7,148.2,495.1,149,495.8z M147.3,504.2
	c0.6-0.4,1-0.9,1.3-1.7v-1.8h-3.5c-1.9,0-2.8,0.7-2.8,2c0,0.6,0.2,1.2,0.7,1.5c0.5,0.4,1.2,0.6,2.1,0.6
	C146,504.8,146.7,504.6,147.3,504.2z"/>
<path d="M163.2,495.9c0.8,0.8,1.2,2,1.2,3.5v6.4h-1.5v-6.3c0-1.1-0.3-2-0.9-2.6s-1.4-0.9-2.5-0.9c-1.2,0-2.1,0.4-2.8,1.1
	s-1,1.7-1,2.9v5.8h-1.5v-11h1.4v2c0.4-0.7,1-1.2,1.7-1.6s1.6-0.6,2.5-0.6C161.2,494.7,162.3,495.1,163.2,495.9z"/>
<path d="M174.3,505.2c-0.3,0.3-0.6,0.4-1,0.6s-0.8,0.2-1.3,0.2c-1,0-1.8-0.3-2.4-0.8c-0.6-0.6-0.8-1.4-0.8-2.4v-6.7h-2v-1.3h2v-2.4
	h1.5v2.4h3.4v1.3h-3.4v6.6c0,0.7,0.2,1.2,0.5,1.5s0.8,0.5,1.4,0.5c0.3,0,0.6,0,0.9-0.1c0.3-0.1,0.5-0.2,0.7-0.4L174.3,505.2z"/>
<path d="M180,495.3c0.7-0.4,1.6-0.6,2.6-0.6v1.4h-0.4c-1.2,0-2.1,0.4-2.7,1.1s-1,1.7-1,3v5.6H177v-11h1.4v2.2
	C178.7,496.2,179.3,495.7,180,495.3z"/>
<path d="M186.7,505.2c-0.9-0.5-1.5-1.2-2-2c-0.5-0.9-0.7-1.8-0.7-2.9s0.2-2,0.7-2.9s1.2-1.5,2-2c0.9-0.5,1.8-0.7,2.9-0.7
	c1.1,0,2,0.2,2.9,0.7s1.5,1.1,2,2s0.7,1.8,0.7,2.9s-0.2,2-0.7,2.9s-1.2,1.5-2,2c-0.9,0.5-1.8,0.7-2.9,0.7
	C188.6,506,187.6,505.7,186.7,505.2z M191.7,504.1c0.6-0.4,1.1-0.9,1.5-1.5c0.3-0.7,0.5-1.4,0.5-2.2c0-0.8-0.2-1.6-0.5-2.2
	c-0.4-0.7-0.8-1.2-1.5-1.5c-0.6-0.4-1.3-0.5-2.1-0.5s-1.5,0.2-2.1,0.5c-0.6,0.4-1.1,0.9-1.5,1.5c-0.4,0.7-0.5,1.4-0.5,2.2
	c0,0.8,0.2,1.6,0.5,2.2c0.4,0.7,0.8,1.2,1.5,1.5c0.6,0.4,1.3,0.5,2.1,0.5S191.1,504.5,191.7,504.1z"/>
<path d="M206.8,495.4c0.8,0.5,1.5,1.1,2,2s0.7,1.8,0.7,2.9s-0.2,2.1-0.7,2.9c-0.5,0.9-1.1,1.5-2,2c-0.8,0.5-1.8,0.7-2.8,0.7
	c-0.9,0-1.7-0.2-2.4-0.6s-1.3-0.9-1.8-1.6v6.2h-1.5v-15.1h1.4v2.2c0.4-0.7,1-1.3,1.8-1.7c0.7-0.4,1.6-0.6,2.5-0.6
	C205,494.7,205.9,495,206.8,495.4z M206,504.1c0.6-0.4,1.1-0.9,1.5-1.5c0.4-0.7,0.5-1.4,0.5-2.2c0-0.8-0.2-1.6-0.5-2.2
	c-0.4-0.7-0.9-1.2-1.5-1.5c-0.6-0.4-1.3-0.5-2.1-0.5s-1.5,0.2-2.1,0.5c-0.6,0.4-1.1,0.9-1.5,1.5c-0.4,0.7-0.5,1.4-0.5,2.2
	c0,0.8,0.2,1.6,0.5,2.2c0.4,0.7,0.8,1.2,1.5,1.5c0.6,0.4,1.3,0.5,2.1,0.5C204.6,504.6,205.3,504.5,206,504.1z"/>
<path d="M212.5,492.1c-0.2-0.2-0.3-0.5-0.3-0.8s0.1-0.5,0.3-0.7s0.5-0.3,0.8-0.3s0.6,0.1,0.8,0.3s0.3,0.4,0.3,0.7
	c0,0.3-0.1,0.6-0.3,0.8s-0.5,0.3-0.8,0.3S212.7,492.3,212.5,492.1z M212.5,494.8h1.5v11h-1.5V494.8z"/>
<path d="M225.3,495.8c0.8,0.7,1.2,1.8,1.2,3.2v6.8h-1.4v-1.7c-0.3,0.6-0.8,1-1.5,1.3s-1.4,0.5-2.3,0.5c-1.2,0-2.2-0.3-2.9-0.9
	s-1.1-1.4-1.1-2.3s0.3-1.7,1-2.3c0.7-0.6,1.8-0.9,3.2-0.9h3.5v-0.7c0-1-0.3-1.7-0.8-2.2s-1.3-0.7-2.3-0.7c-0.7,0-1.4,0.1-2,0.3
	c-0.6,0.2-1.2,0.5-1.7,1l-0.7-1.1c0.6-0.5,1.2-0.8,2-1.1s1.6-0.4,2.5-0.4C223.5,494.7,224.6,495.1,225.3,495.8z M223.7,504.2
	c0.6-0.4,1-0.9,1.3-1.7v-1.8h-3.5c-1.9,0-2.8,0.7-2.8,2c0,0.6,0.2,1.2,0.7,1.5c0.5,0.4,1.2,0.6,2.1,0.6
	C222.3,504.8,223.1,504.6,223.7,504.2z"/>
<path class="st2" d="M95.7,514.7h-21c-2.5,0-4.5-2-4.5-4.5v-21c0-2.5,2-4.5,4.5-4.5h21c2.5,0,4.5,2,4.5,4.5v21
	C100.2,512.7,98.2,514.7,95.7,514.7z"/>
</svg>
