<?xml version="1.0" encoding="utf-8"?>
<!-- Generator: Adobe Illustrator 24.2.0, SVG Export Plug-In . SVG Version: 6.00 Build 0)  -->
<svg version="1.1" id="Layer_1" xmlns="http://www.w3.org/2000/svg" xmlns:xlink="http://www.w3.org/1999/xlink" x="0px" y="0px"
	 viewBox="0 0 256.5 61" style="enable-background:new 0 0 256.5 61;" xml:space="preserve">
<style type="text/css">
	.st0{fill:#FFFFFF;}
</style>
<path class="st0" d="M38.8,40.8c-1.4-0.7-2.5-1.7-3.3-3s-1.2-2.7-1.2-4.4c0-1.6,0.4-3.1,1.2-4.4s1.9-2.3,3.3-3
	c1.4-0.7,3-1.1,4.8-1.1s3.4,0.4,4.8,1.2c1.3,0.8,2.3,1.9,2.9,3.3l-4.4,2.3c-0.7-1.5-1.8-2.2-3.3-2.2c-1,0-1.9,0.3-2.5,1
	c-0.7,0.7-1,1.6-1,2.8s0.3,2.2,1,2.9s1.5,1,2.5,1c1.4,0,2.5-0.7,3.3-2.2l4.4,2.3c-0.6,1.4-1.5,2.5-2.9,3.3c-1.3,0.8-2.9,1.2-4.8,1.2
	C41.8,41.9,40.2,41.5,38.8,40.8z"/>
<path class="st0" d="M56.6,40.8c-1.4-0.7-2.5-1.7-3.3-3s-1.2-2.7-1.2-4.4c0-1.6,0.4-3.1,1.2-4.3c0.8-1.3,1.9-2.3,3.3-3
	c1.4-0.7,3-1.1,4.7-1.1s3.4,0.4,4.8,1.1s2.5,1.7,3.3,3s1.2,2.7,1.2,4.4c0,1.6-0.4,3.1-1.2,4.4c-0.8,1.3-1.9,2.3-3.3,3
	s-3,1.1-4.8,1.1C59.6,41.9,58,41.5,56.6,40.8z M63.8,36.3c0.6-0.7,1-1.7,1-2.9s-0.3-2.1-1-2.8c-0.6-0.7-1.5-1-2.5-1s-1.8,0.3-2.5,1
	c-0.6,0.7-1,1.6-1,2.8s0.3,2.2,1,2.9c0.6,0.7,1.5,1,2.5,1S63.1,37,63.8,36.3z"/>
<path class="st0" d="M73,19.2h5.7v22.4H73V19.2z"/>
<path class="st0" d="M82.3,19.2H88v22.4h-5.7V19.2z"/>
<path class="st0" d="M104.8,26.8c1.4,1.2,2.1,3.1,2.1,5.7v9.1h-5.3v-2.1c-0.8,1.6-2.4,2.4-4.8,2.4c-1.3,0-2.4-0.2-3.3-0.7
	s-1.6-1-2.1-1.8s-0.7-1.6-0.7-2.6c0-1.5,0.6-2.7,1.8-3.6c1.2-0.9,3-1.3,5.5-1.3h3.3c-0.1-1.7-1.3-2.6-3.5-2.6
	c-0.8,0-1.6,0.1-2.4,0.4s-1.5,0.6-2,1l-1.9-3.9c0.9-0.6,2-1.1,3.3-1.4s2.6-0.5,3.9-0.5C101.3,25,103.3,25.6,104.8,26.8z M100.1,37.8
	c0.5-0.3,0.9-0.8,1.1-1.4V35h-2.5c-1.7,0-2.5,0.6-2.5,1.7c0,0.5,0.2,0.9,0.6,1.2s0.9,0.5,1.6,0.5S99.6,38.1,100.1,37.8z"/>
<path class="st0" d="M124.7,26c1.2,0.7,2.2,1.7,2.9,2.9c0.7,1.3,1.1,2.8,1.1,4.4c0,1.7-0.4,3.2-1.1,4.5c-0.7,1.3-1.7,2.3-2.9,3
	c-1.2,0.7-2.6,1-4.1,1c-2.1,0-3.8-0.6-4.8-1.9v1.6h-5.5V19.2h5.7v7.4c1.1-1.1,2.6-1.7,4.5-1.7C122.1,25,123.5,25.3,124.7,26z
	 M121.9,36.3c0.6-0.7,1-1.7,1-2.9s-0.3-2.1-1-2.8c-0.6-0.7-1.5-1-2.5-1s-1.8,0.3-2.5,1s-1,1.6-1,2.8s0.3,2.2,1,2.9
	c0.6,0.7,1.5,1,2.5,1S121.2,37,121.9,36.3z"/>
<path class="st0" d="M134.6,40.8c-1.4-0.7-2.5-1.7-3.3-3s-1.2-2.7-1.2-4.4c0-1.6,0.4-3.1,1.2-4.3c0.8-1.3,1.9-2.3,3.3-3
	c1.4-0.7,3-1.1,4.7-1.1s3.4,0.4,4.8,1.1c1.4,0.7,2.5,1.7,3.3,3s1.2,2.7,1.2,4.4c0,1.6-0.4,3.1-1.2,4.4c-0.8,1.3-1.9,2.3-3.3,3
	c-1.4,0.7-3,1.1-4.8,1.1C137.6,41.9,136,41.5,134.6,40.8z M141.8,36.3c0.6-0.7,1-1.7,1-2.9s-0.3-2.1-1-2.8c-0.6-0.7-1.5-1-2.5-1
	s-1.8,0.3-2.5,1c-0.6,0.7-1,1.6-1,2.8s0.3,2.2,1,2.9c0.6,0.7,1.5,1,2.5,1S141.2,37,141.8,36.3z"/>
<path class="st0" d="M154.5,40.8c-1.4-0.7-2.5-1.7-3.3-3s-1.2-2.7-1.2-4.4c0-1.6,0.4-3.1,1.2-4.4s1.9-2.3,3.3-3
	c1.4-0.7,3-1.1,4.9-1.1c1.8,0,3.4,0.4,4.8,1.2s2.3,1.9,2.9,3.3l-4.4,2.3c-0.7-1.5-1.8-2.2-3.3-2.2c-1,0-1.9,0.3-2.5,1s-1,1.6-1,2.8
	s0.3,2.2,1,2.9s1.5,1,2.5,1c1.4,0,2.5-0.7,3.3-2.2l4.4,2.3c-0.6,1.4-1.5,2.5-2.9,3.3c-1.3,0.8-2.9,1.2-4.8,1.2
	C157.6,41.9,156,41.5,154.5,40.8z"/>
<path class="st0" d="M176.8,25.5c0.9-0.4,2-0.6,3.2-0.6v5.2c-0.5-0.1-1-0.1-1.3-0.1c-1.2,0-2.2,0.3-2.9,1s-1,1.7-1,3v7.5h-5.7V25.3
	h5.5v2C175.1,26.5,175.9,25.9,176.8,25.5z"/>
<path class="st0" d="M195.2,26.8c1.4,1.2,2.1,3.1,2.1,5.7v9.1H192v-2.1c-0.8,1.6-2.4,2.4-4.8,2.4c-1.3,0-2.4-0.2-3.3-0.7
	s-1.6-1-2.1-1.8s-0.7-1.6-0.7-2.6c0-1.5,0.6-2.7,1.8-3.6c1.2-0.9,3-1.3,5.5-1.3h3.3c-0.1-1.7-1.3-2.6-3.5-2.6
	c-0.8,0-1.6,0.1-2.4,0.4c-0.8,0.3-1.5,0.6-2,1l-1.9-3.9c0.9-0.6,2-1.1,3.3-1.4s2.6-0.5,3.9-0.5C191.7,25,193.8,25.6,195.2,26.8z
	 M190.6,37.8c0.5-0.3,0.9-0.8,1.1-1.4V35h-2.5c-1.7,0-2.5,0.6-2.5,1.7c0,0.5,0.2,0.9,0.6,1.2c0.4,0.3,0.9,0.5,1.6,0.5
	S190.1,38.1,190.6,37.8z"/>
<path class="st0" d="M212.1,40.9c-0.5,0.3-1.1,0.5-1.8,0.7s-1.4,0.2-2.2,0.2c-2.1,0-3.8-0.5-4.9-1.6c-1.1-1-1.7-2.6-1.7-4.7V30h-2.4
	v-4.3h2.4v-4.2h5.7v4.2h3.7V30h-3.7v5.4c0,0.6,0.2,1,0.5,1.4s0.7,0.5,1.3,0.5c0.7,0,1.2-0.2,1.7-0.5L212.1,40.9z"/>
<path class="st0" d="M214.5,22.6c-0.6-0.6-1-1.3-1-2.2s0.3-1.6,1-2.2c0.6-0.6,1.5-0.9,2.5-0.9s1.9,0.3,2.5,0.8c0.6,0.6,1,1.3,1,2.1
	c0,0.9-0.3,1.7-1,2.2c-0.6,0.6-1.5,0.9-2.5,0.9C216,23.4,215.1,23.2,214.5,22.6z M214.2,25.3h5.7v16.3h-5.7V25.3z"/>
<path class="st0" d="M237.7,37.3v4.3h-15.1v-3.4l7.6-8.7h-7.4v-4.2h14.5v3.3l-7.6,8.7C229.7,37.3,237.7,37.3,237.7,37.3z"/>
<path class="st0" d="M256.5,34.9h-11.9c0.2,0.8,0.7,1.5,1.4,1.9c0.7,0.5,1.6,0.7,2.6,0.7c0.8,0,1.5-0.1,2-0.3
	c0.6-0.2,1.1-0.6,1.7-1.1l3,3.1c-1.6,1.8-3.9,2.7-7,2.7c-1.9,0-3.6-0.4-5-1.1s-2.6-1.7-3.4-3c-0.8-1.3-1.2-2.7-1.2-4.4
	c0-1.6,0.4-3,1.2-4.3s1.8-2.3,3.2-3s2.9-1.1,4.6-1.1c1.6,0,3.1,0.3,4.4,1s2.4,1.6,3.1,2.9c0.8,1.3,1.2,2.8,1.2,4.5
	C256.5,33.5,256.5,34,256.5,34.9z M245.6,29.8c-0.6,0.5-1,1.2-1.1,2h6.7c-0.2-0.9-0.5-1.5-1.1-2s-1.3-0.8-2.2-0.8
	S246.2,29.3,245.6,29.8z"/>
<path class="st0" d="M0.6,25.6C3.1,25.4,5,25,7,25c2.2,0,3.7-0.9,4.7-2.8c0.8-1.6,1.9-3,3-4.5c0.7-1,1.7-1.8,3-0.7
	c1.2,0.9,1.2,1.8,0.4,3.1c-0.8,1.3-1.5,2.7-2.2,4c2.8,1.4,4.2,0,5.3-2.4c0.6,0.3,1.3,0.5,1.5,0.9c0.9,1.8,2.5,2.3,4.4,2.5
	s2.8,1.3,1.9,3.2c-2-0.2-4.2-1-5.9-0.3c-1.1,0.4-1.5,2.8-2.4,4.6c2.7,0.6,6-0.3,6.9,3.8c-1.9-0.2-3.6-0.2-5.3-0.5
	c-2.5-0.4-4.2,0.2-5.1,2.8c-0.7,2-1.9,3.8-2.9,5.7c-2.4-0.6-2.5-1.9-1.9-3.7c0.5-1.5,1-3,1.5-4.6c-3.6-0.7-4-0.5-4.8,2.7
	C9,39.7,9,40.9,8.6,41.9c-0.3,0.9-0.8,1.7-1.3,2.6c-1-0.9-2.5-1.6-2.9-2.6c-0.4-1.1,0.2-2.6,0.4-4c0.1-0.5,0.1-1,0.2-1.6
	c-1.1,0-2.1,0.2-2.9-0.1C1.4,36,0.7,35.3,0,34.8c0.6-0.5,1-1.2,1.7-1.6c0.5-0.3,1.1-0.4,1.7-0.4c3,0,4.4-1.6,4.6-4.5
	C5.7,27.5,2.7,29.2,0.6,25.6z M12.5,32c3.5,0.6,4,0.2,5-4.1C14.4,27.1,13.7,27.8,12.5,32z"/>
</svg>
