<?xml version="1.0" encoding="utf-8"?>
<!-- Generator: Adobe Illustrator 24.2.0, SVG Export Plug-In . SVG Version: 6.00 Build 0)  -->
<svg version="1.1" id="Layer_1" xmlns="http://www.w3.org/2000/svg" xmlns:xlink="http://www.w3.org/1999/xlink" x="0px" y="0px"
	 viewBox="0 0 260.5 61" style="enable-background:new 0 0 260.5 61;" xml:space="preserve">
<style type="text/css">
	.st0{fill:#FFFFFF;}
</style>
<path class="st0" d="M38.8,40.8c-1.4-0.7-2.5-1.7-3.3-3s-1.2-2.7-1.2-4.4c0-1.6,0.4-3.1,1.2-4.4s1.9-2.3,3.3-3
	c1.4-0.7,3-1.1,4.8-1.1s3.4,0.4,4.8,1.2c1.3,0.8,2.3,1.9,2.9,3.3l-4.4,2.3c-0.7-1.5-1.8-2.2-3.3-2.2c-1,0-1.9,0.3-2.5,1
	c-0.7,0.7-1,1.6-1,2.8s0.3,2.2,1,2.9s1.5,1,2.5,1c1.4,0,2.5-0.7,3.3-2.2l4.4,2.3c-0.6,1.4-1.5,2.5-2.9,3.3c-1.3,0.8-2.9,1.2-4.8,1.2
	C41.8,41.9,40.2,41.5,38.8,40.8z"/>
<path class="st0" d="M56.6,40.8c-1.4-0.7-2.5-1.7-3.3-3s-1.2-2.7-1.2-4.4c0-1.6,0.4-3.1,1.2-4.3c0.8-1.3,1.9-2.3,3.3-3
	c1.4-0.7,3-1.1,4.7-1.1s3.4,0.4,4.8,1.1s2.5,1.7,3.3,3s1.2,2.7,1.2,4.4c0,1.6-0.4,3.1-1.2,4.4c-0.8,1.3-1.9,2.3-3.3,3
	s-3,1.1-4.8,1.1C59.6,41.9,58,41.5,56.6,40.8z M63.8,36.3c0.6-0.7,1-1.7,1-2.9s-0.3-2.1-1-2.8c-0.6-0.7-1.5-1-2.5-1s-1.8,0.3-2.5,1
	c-0.6,0.7-1,1.6-1,2.8s0.3,2.2,1,2.9c0.6,0.7,1.5,1,2.5,1S63.1,37,63.8,36.3z"/>
<path class="st0" d="M73,19.2h5.7v22.4H73V19.2z"/>
<path class="st0" d="M95.5,26.8c1.4,1.2,2.1,3.1,2.1,5.7v9.1h-5.3v-2.1c-0.8,1.6-2.4,2.4-4.8,2.4c-1.3,0-2.4-0.2-3.3-0.7
	s-1.6-1-2.1-1.8s-0.7-1.6-0.7-2.6c0-1.5,0.6-2.7,1.8-3.6c1.2-0.9,3-1.3,5.5-1.3H92c-0.1-1.7-1.3-2.6-3.5-2.6c-0.8,0-1.6,0.1-2.4,0.4
	s-1.5,0.6-2,1l-1.9-3.9c0.9-0.6,2-1.1,3.3-1.4s2.6-0.5,3.9-0.5C92,25,94,25.6,95.5,26.8z M90.8,37.8c0.5-0.3,0.9-0.8,1.1-1.4V35
	h-2.5c-1.7,0-2.5,0.6-2.5,1.7c0,0.5,0.2,0.9,0.6,1.2s0.9,0.5,1.6,0.5C89.7,38.2,90.3,38.1,90.8,37.8z"/>
<path class="st0" d="M115.4,26c1.2,0.7,2.2,1.7,2.9,2.9s1.1,2.8,1.1,4.4c0,1.7-0.4,3.2-1.1,4.5s-1.7,2.3-2.9,3c-1.2,0.7-2.6,1-4.1,1
	c-2.1,0-3.8-0.6-4.8-1.9v1.6H101V19.2h5.7v7.4c1.1-1.1,2.6-1.7,4.5-1.7C112.8,25,114.2,25.3,115.4,26z M112.6,36.3
	c0.6-0.7,1-1.7,1-2.9s-0.3-2.1-1-2.8s-1.5-1-2.5-1s-1.8,0.3-2.5,1s-1,1.6-1,2.8s0.3,2.2,1,2.9c0.6,0.7,1.5,1,2.5,1
	S112,37,112.6,36.3z"/>
<path class="st0" d="M125.3,40.8c-1.4-0.7-2.5-1.7-3.3-3s-1.2-2.7-1.2-4.4c0-1.6,0.4-3.1,1.2-4.3c0.8-1.3,1.9-2.3,3.3-3
	s3-1.1,4.7-1.1c1.8,0,3.4,0.4,4.8,1.1c1.4,0.7,2.5,1.7,3.3,3s1.2,2.7,1.2,4.4c0,1.6-0.4,3.1-1.2,4.4c-0.8,1.3-1.9,2.3-3.3,3
	c-1.4,0.7-3,1.1-4.8,1.1C128.3,41.9,126.7,41.5,125.3,40.8z M132.5,36.3c0.6-0.7,1-1.7,1-2.9s-0.3-2.1-1-2.8s-1.5-1-2.5-1
	s-1.8,0.3-2.5,1c-0.6,0.7-1,1.6-1,2.8s0.3,2.2,1,2.9c0.6,0.7,1.5,1,2.5,1C131.1,37.3,131.9,37,132.5,36.3z"/>
<path class="st0" d="M145.3,40.8c-1.4-0.7-2.5-1.7-3.3-3s-1.2-2.7-1.2-4.4c0-1.6,0.4-3.1,1.2-4.4s1.9-2.3,3.3-3
	c1.4-0.7,3-1.1,4.8-1.1s3.4,0.4,4.8,1.2c1.3,0.8,2.3,1.9,2.9,3.3l-4.4,2.3c-0.7-1.5-1.8-2.2-3.3-2.2c-1,0-1.9,0.3-2.5,1
	c-0.7,0.7-1,1.6-1,2.8s0.3,2.2,1,2.9s1.5,1,2.5,1c1.4,0,2.5-0.7,3.3-2.2l4.4,2.3c-0.6,1.4-1.5,2.5-2.9,3.3c-1.3,0.8-2.9,1.2-4.8,1.2
	C148.3,41.9,146.7,41.5,145.3,40.8z"/>
<path class="st0" d="M167.5,25.5c0.9-0.4,2-0.6,3.2-0.6v5.2c-0.5-0.1-1-0.1-1.3-0.1c-1.2,0-2.2,0.3-2.9,1s-1,1.7-1,3v7.5h-5.7V25.3
	h5.5v2C165.8,26.5,166.6,25.9,167.5,25.5z"/>
<path class="st0" d="M186,26.8c1.4,1.2,2.1,3.1,2.1,5.7v9.1h-5.3v-2.1c-0.8,1.6-2.4,2.4-4.8,2.4c-1.3,0-2.4-0.2-3.3-0.7
	s-1.6-1-2.1-1.8s-0.7-1.6-0.7-2.6c0-1.5,0.6-2.7,1.8-3.6c1.2-0.9,3-1.3,5.5-1.3h3.3c-0.1-1.7-1.3-2.6-3.5-2.6
	c-0.8,0-1.6,0.1-2.4,0.4c-0.8,0.3-1.5,0.6-2,1l-1.9-3.9c0.9-0.6,2-1.1,3.3-1.4s2.6-0.5,3.9-0.5C182.5,25,184.5,25.6,186,26.8z
	 M181.3,37.8c0.5-0.3,0.9-0.8,1.1-1.4V35h-2.5c-1.7,0-2.5,0.6-2.5,1.7c0,0.5,0.2,0.9,0.6,1.2c0.4,0.3,0.9,0.5,1.6,0.5
	C180.2,38.2,180.8,38.1,181.3,37.8z"/>
<path class="st0" d="M202.8,40.9c-0.5,0.3-1.1,0.5-1.8,0.7s-1.4,0.2-2.2,0.2c-2.1,0-3.8-0.5-4.9-1.6s-1.7-2.6-1.7-4.7V30h-2.4v-4.3
	h2.4v-4.2h5.7v4.2h3.7V30H198v5.4c0,0.6,0.2,1,0.5,1.4c0.3,0.3,0.7,0.5,1.3,0.5c0.7,0,1.2-0.2,1.7-0.5L202.8,40.9z"/>
<path class="st0" d="M205.2,22.6c-0.6-0.6-1-1.3-1-2.2s0.3-1.6,1-2.2c0.6-0.6,1.5-0.9,2.5-0.9s1.9,0.3,2.5,0.8c0.6,0.6,1,1.3,1,2.1
	c0,0.9-0.3,1.7-1,2.2c-0.6,0.6-1.5,0.9-2.5,0.9S205.9,23.2,205.2,22.6z M204.9,25.3h5.7v16.3h-5.7V25.3z"/>
<path class="st0" d="M228.4,37.3v4.3h-15.1v-3.4l7.6-8.7h-7.3v-4.2h14.5v3.3l-7.6,8.7C220.5,37.3,228.4,37.3,228.4,37.3z"/>
<path class="st0" d="M243.9,26.8c1.4,1.2,2.1,3.1,2.1,5.7v9.1h-5.3v-2.1c-0.8,1.6-2.4,2.4-4.8,2.4c-1.3,0-2.4-0.2-3.3-0.7
	s-1.6-1-2.1-1.8s-0.7-1.6-0.7-2.6c0-1.5,0.6-2.7,1.8-3.6c1.2-0.9,3-1.3,5.5-1.3h3.3c-0.1-1.7-1.3-2.6-3.5-2.6
	c-0.8,0-1.6,0.1-2.4,0.4c-0.8,0.3-1.5,0.6-2,1l-1.9-3.9c0.9-0.6,2-1.1,3.3-1.4s2.6-0.5,3.9-0.5C240.4,25,242.5,25.6,243.9,26.8z
	 M239.3,37.8c0.5-0.3,0.9-0.8,1.1-1.4V35h-2.5c-1.7,0-2.5,0.6-2.5,1.7c0,0.5,0.2,0.9,0.6,1.2c0.4,0.3,0.9,0.5,1.6,0.5
	S238.7,38.1,239.3,37.8z"/>
<path class="st0" d="M257.3,25.5c0.9-0.4,2-0.6,3.2-0.6v5.2c-0.5-0.1-1-0.1-1.3-0.1c-1.2,0-2.2,0.3-2.9,1c-0.7,0.7-1,1.7-1,3v7.5
	h-5.7V25.3h5.5v2C255.6,26.5,256.3,25.9,257.3,25.5z"/>
<path class="st0" d="M0.6,25.6C3.1,25.4,5,25,7,25c2.2,0,3.7-0.9,4.7-2.8c0.8-1.6,1.9-3,3-4.5c0.7-1,1.7-1.8,3-0.7
	c1.2,0.9,1.2,1.8,0.4,3.1c-0.8,1.3-1.5,2.7-2.2,4c2.8,1.4,4.2,0,5.3-2.4c0.6,0.3,1.3,0.5,1.5,0.9c0.9,1.8,2.5,2.3,4.4,2.5
	s2.8,1.3,1.9,3.2c-2-0.2-4.2-1-5.9-0.3c-1.1,0.4-1.5,2.8-2.4,4.6c2.7,0.6,6-0.3,6.9,3.8c-1.9-0.2-3.6-0.2-5.3-0.5
	c-2.5-0.4-4.2,0.2-5.1,2.8c-0.7,2-1.9,3.8-2.9,5.7c-2.4-0.6-2.5-1.9-1.9-3.7c0.5-1.5,1-3,1.5-4.6c-3.6-0.7-4-0.5-4.8,2.7
	C9,39.7,9,40.9,8.6,41.9c-0.3,0.9-0.8,1.7-1.3,2.6c-1-0.9-2.5-1.6-2.9-2.6c-0.4-1.1,0.2-2.6,0.4-4c0.1-0.5,0.1-1,0.2-1.6
	c-1.1,0-2.1,0.2-2.9-0.1C1.4,36,0.7,35.3,0,34.8c0.6-0.5,1-1.2,1.7-1.6c0.5-0.3,1.1-0.4,1.7-0.4c3,0,4.4-1.6,4.6-4.5
	C5.7,27.5,2.7,29.2,0.6,25.6z M12.5,32c3.5,0.6,4,0.2,5-4.1C14.4,27.1,13.7,27.8,12.5,32z"/>
</svg>
