<?xml version="1.0" encoding="utf-8"?>
<!-- Generator: Adobe Illustrator 24.2.0, SVG Export Plug-In . SVG Version: 6.00 Build 0)  -->
<svg version="1.1" id="Layer_1" xmlns="http://www.w3.org/2000/svg" xmlns:xlink="http://www.w3.org/1999/xlink" x="0px" y="0px"
	 viewBox="0 0 512 512" style="enable-background:new 0 0 512 512;" xml:space="preserve">
<style type="text/css">
	.st0{fill:#FFFFFF;}
</style>
<path class="st0" d="M320,96H192l-47.4-71.1C137.5,14.2,145.1,0,157.9,0h196.2c12.8,0,20.4,14.2,13.3,24.9L320,96z M192,128h128
	c3.8,2.5,8.1,5.3,12.1,8.4C389.7,172.7,512,250.9,512,416c0,53-43,96-96,96H96c-53,0-96-43-96-96c0-165.1,122.3-243.3,179-279.6
	C183.9,133.3,188.2,130.5,192,128L192,128z M276.1,224c0-11.1-9-20.1-21-20.1c-10.2,0-19.2,9-19.2,20.1v6
	c-5.6,1.2-11.8,2.9-15.9,5.1c-14.9,6.8-27.9,19.4-31.1,37.7c-1.8,10.2-0.8,20.1,3.4,29c4.2,8.8,10.7,15,17.3,19.5
	c11.6,7.9,26.9,12.5,38.6,16l2.2,0.6c14,4.3,23.4,7.4,29.3,11.7c2.5,1.8,3.4,3.2,3.7,4.1c0.4,0.8,1,2.6,0.3,6.6
	c-0.6,3.5-2.5,6.5-8,8.8c-6.1,2.6-16,3.9-28.8,1.9c-6-1-16.7-4.6-26.2-7.8c-2.2-0.8-4.4-1.5-6.4-2.2c-10.5-3.5-21.8,2.2-25.3,12.7
	s2.2,21.8,12.7,24.4c1.2,1.3,2.7,1.8,4.4,2.4c7,2.7,20.3,6.9,29.8,9.1v6.4c0,11.1,9,20.1,19.2,20.1c12,0,21-9,21-20.1v-5.5
	c5.3-1,10.5-3.4,15.3-4.6c15.8-6.7,28.4-19.7,31.7-38.7c1.8-10.4,1-20.4-3-29.5c-3.9-9-10.2-15.6-16.9-20.4
	c-12.1-8.9-28.3-13.7-40.4-17.4l-1.7-0.2c-13.3-4.3-22.9-7.3-29-11.5c-2.6-1.8-3.4-3-3.6-3.5c-0.2-0.4-0.8-1.6-0.2-5
	c0.4-2,1.9-5.3,8.2-8.1c5.6-2.9,16.4-4.5,28.6-3.5c4.4,1.6,17.9,4.2,21.8,5.2c10.6,2.9,21.6-3.5,24.4-14.2
	c2.9-10.6-3.5-21.6-14.2-24.4c-4.4-1.2-14.4-3.2-21-4.4V224z"/>
</svg>
