<?xml version="1.0" encoding="utf-8"?>
<!-- Generator: Adobe Illustrator 24.2.0, SVG Export Plug-In . SVG Version: 6.00 Build 0)  -->
<svg version="1.1" id="Layer_1" xmlns="http://www.w3.org/2000/svg" xmlns:xlink="http://www.w3.org/1999/xlink" x="0px" y="0px"
	 viewBox="0 0 90 90" style="enable-background:new 0 0 90 90;" xml:space="preserve">
<style type="text/css">
	.st0{fill:none;}
	.st1{fill:#FFFFFF;}
</style>
<path class="st0" d="M0,0c30,0,60,0,90,0c0,30,0,60,0,90c-30,0-60,0-90,0C0,60,0,30,0,0z"/>
<path class="st1" d="M16.2,67.9c0-0.3,0-0.4,0-0.7c0-5.6,0-11.3,0-16.8c0-0.3,0-0.4,0-0.7c0.1-0.8,0.6-1.2,1.3-1.2c3,0,5.9,0,8.8,0
	c0.8,0,1.3,0.5,1.4,1.3c0,0.2,0,0.3,0,0.5c0,5.6,0,11.3,0,16.8c0,0.2,0,0.4,0,0.7c1.2,0,2.4,0,3.8,0c0-0.3,0-0.4,0-0.7
	c0-9.2,0-18.3,0-27.5c0-1.4,0.4-1.8,1.8-1.8c2.7,0,5.4,0,8.1,0c1.1,0,1.7,0.5,1.7,1.7c0,9.3,0,18.4,0,27.7c0,0.2,0,0.4,0,0.7
	c1.2,0,2.4,0,3.8,0c0-0.2,0-0.4,0-0.6c0-7.3,0-14.8,0-22.1c0-1.3,0.4-1.7,1.7-1.7c2.7,0,5.4,0,8.1,0c1.2,0,1.7,0.4,1.7,1.7
	c0,7.3,0,14.8,0,22.1c0,0.2,0,0.3,0,0.6c1.2,0,2.4,0,3.8,0c0-0.2,0-0.4,0-0.6c0-10.6,0-21.3,0-31.9c0-1.3,0.4-1.8,1.8-1.8
	c2.6,0,5.3,0,7.9,0c1.3,0,1.8,0.4,1.8,1.8c0,10.6,0,21.2,0,31.8c0,0.3,0,0.4,0,0.8c0.3,0,0.4,0,0.6,0c1.1,0,2.3,0,3.5,0
	c0.9,0,1.5,0.6,1.5,1.4s-0.6,1.3-1.5,1.3c-0.2,0-0.3,0-0.4,0c-21.6,0-43.2,0-64.8,0c-0.3,0-0.4,0-0.7,0c-0.6-0.1-1.1-0.5-1.2-1.2
	c-0.1-0.6,0.3-1.3,1-1.5c0.3-0.1,0.5-0.1,0.8-0.1C13.7,67.9,14.9,67.9,16.2,67.9z M65,36.4c0,10.6,0,21,0,31.5c2,0,4,0,5.9,0
	c0-10.6,0-21,0-31.5C69,36.4,67,36.4,65,36.4z M40.4,67.9c0-9.1,0-18.2,0-27.2c-2,0-4,0-6,0c0,9.1,0,18.2,0,27.2
	C36.4,67.9,38.3,67.9,40.4,67.9z M49.7,46.3c0,7.2,0,14.5,0,21.6c2,0,4,0,6,0c0-7.2,0-14.4,0-21.6C53.7,46.3,51.7,46.3,49.7,46.3z
	 M19,67.9c2,0,4,0,6,0c0-5.6,0-11.1,0-16.6c-2,0-4,0-6,0C19,56.9,19,62.4,19,67.9z"/>
<path class="st1" d="M48.6,32c2-2.4,5.1-2.6,7.4-0.8c0.1-0.1,0.2-0.1,0.3-0.2c2.2-1.5,4.3-3,6.5-4.5c0.3-0.2,0.3-0.3,0.3-0.6
	c-0.8-2.9,0.9-5.8,3.8-6.5c2.8-0.7,5.8,1.1,6.3,3.9c0.6,3-1.2,5.8-4.2,6.3c-1.4,0.3-2.7-0.1-3.8-0.9c-0.3-0.2-0.4-0.3-0.7,0
	c-2.1,1.5-4.3,3-6.5,4.5c-0.3,0.2-0.3,0.3-0.3,0.7c0.5,2.2-0.1,4-1.7,5.4c-1.7,1.4-3.7,1.6-5.7,0.5c-1.8-1-3-2.9-2.8-5
	c0-0.1,0-0.2,0-0.3c-1.5-0.6-3.1-1.2-4.5-1.9c-0.9-0.4-1.6-0.5-2.4,0.3c-1.7,1.5-4.1,1.5-5.9,0.3c-0.1-0.1-0.3-0.2-0.4-0.3
	C34.2,33,34,33.1,34,33.2c-2.2,1.6-4.4,3.2-6.5,4.8c-0.3,0.2-0.3,0.3-0.3,0.7c0.9,2.9-0.9,5.8-3.8,6.5c-2.8,0.7-5.8-1.1-6.4-3.9
	c-0.6-2.9,1.3-5.8,4.2-6.3c1.3-0.3,2.6,0,3.8,0.8c0.3,0.2,0.4,0.2,0.8,0c2.2-1.7,4.4-3.2,6.5-4.9c0.3-0.2,0.3-0.3,0.3-0.7
	c-0.6-2.1-0.1-3.9,1.6-5.4c1.7-1.4,3.6-1.7,5.6-0.9c2,0.9,3.1,2.5,3.1,4.6c0,0.3,0,0.4-0.1,0.8C44.6,30.3,46.6,31.1,48.6,32z
	 M68.1,26.9c1.4,0,2.4-1.1,2.4-2.4c0-1.4-1.1-2.4-2.5-2.4c-1.3,0-2.4,1.1-2.4,2.4S66.7,26.9,68.1,26.9z M50.2,35.2
	c0,1.3,1.1,2.4,2.4,2.4s2.4-1.1,2.4-2.4c0-1.4-1.1-2.5-2.4-2.4C51.3,32.7,50.2,33.8,50.2,35.2z M22.1,42.6c1.3,0,2.4-1.1,2.4-2.4
	c0-1.4-1.1-2.4-2.4-2.4c-1.4,0-2.5,1.1-2.4,2.4C19.5,41.5,20.7,42.6,22.1,42.6z M37.3,26.3c-1.3,0-2.4,1-2.4,2.4s1.1,2.5,2.4,2.5
	c1.3,0,2.4-1.1,2.4-2.4C39.8,27.5,38.7,26.3,37.3,26.3z"/>
</svg>
