<svg width="55" height="55" viewBox="0 0 55 55" xmlns="http://www.w3.org/2000/svg"><path fill="#413e3e" d="M27.5,9.2c-10.1,0-18.3,8.2-18.3,18.3c0,10.1,8.2,18.3,18.3,18.3c10.1,0,18.3-8.2,18.3-18.3C45.8,17.4,37.6,9.2,27.5,9.2z M12.8,27.5c0-1.6,0.3-3.2,0.8-4.7l2.9,2.9l3.7,3.7V33l3.7,3.7l1.8,1.8V42C18.4,41.1,12.8,35,12.8,27.5z M39.1,36.4c-1.2-1-3-1.6-4.3-1.6V33c0-1-0.4-1.9-1.1-2.6c-0.7-0.7-1.6-1.1-2.6-1.1h-7.3v-5.5c1,0,1.9-0.4,2.6-1.1c0.7-0.7,1.1-1.6,1.1-2.6v-1.8h1.8c1,0,1.9-0.4,2.6-1.1s1.1-1.6,1.1-2.6v-0.8c5.4,2.2,9.2,7.4,9.2,13.6C42.2,30.7,41.1,33.9,39.1,36.4z"/></svg>