<?xml version="1.0" encoding="utf-8"?>
<!-- Generator: Adobe Illustrator 24.2.0, SVG Export Plug-In . SVG Version: 6.00 Build 0)  -->
<svg version="1.1" id="Layer_1" xmlns="http://www.w3.org/2000/svg" xmlns:xlink="http://www.w3.org/1999/xlink" x="0px" y="0px"
	 viewBox="0 0 512 512" style="enable-background:new 0 0 512 512;" xml:space="preserve">
<style type="text/css">
	.st0{fill:#FFFFFF;}
</style>
<path class="st0" d="M184,0c30.9,0,56,25.1,56,56v400c0,30.9-25.1,56-56,56c-28.9,0-52.7-21.9-55.7-50.1c-5.2,1.4-10.7,2.1-16.3,2.1
	c-35.3,0-64-28.7-64-64c0-7.4,1.3-14.6,3.6-21.2C21.4,367.4,0,338.2,0,304c0-31.9,18.7-59.5,45.8-72.3C37.2,220.8,32,206.1,32,192
	c0-30.7,21.6-56.3,50.4-62.6C80.8,123.9,80,118,80,112c0-29.9,20.6-55.1,48.3-62.1C131.3,21.9,155.1,0,184,0z M383.7,49.9
	c27.7,7,48.3,32.1,48.3,62.1c0,6-0.8,11.9-2.4,17.4c28.8,6.3,50.4,31.9,50.4,62.6c0,14.1-5.1,28.8-13.8,39.7
	c27.1,12.8,45.8,40.4,45.8,72.3c0,34.2-21.4,63.4-51.6,74.8c2.3,6.6,3.6,13.8,3.6,21.2c0,35.3-28.7,64-64,64
	c-5.6,0-11.1-0.7-16.3-2.1c-3,28.2-26.8,50.1-55.7,50.1c-30.9,0-56-25.1-56-56V56c0-30.9,25.1-56,56-56
	C356.9,0,380.7,21.9,383.7,49.9z"/>
</svg>
