<?xml version="1.0" encoding="utf-8"?>
<!-- Generator: Adobe Illustrator 24.2.0, SVG Export Plug-In . SVG Version: 6.00 Build 0)  -->
<svg version="1.1" id="Layer_1" xmlns="http://www.w3.org/2000/svg" xmlns:xlink="http://www.w3.org/1999/xlink" x="0px" y="0px"
	 viewBox="0 0 90 90" style="enable-background:new 0 0 90 90;" xml:space="preserve">
<style type="text/css">
	.st0{fill:none;}
</style>
<path class="st0" d="M90,90.5c-30,0-60,0-90,0c0-30,0-60,0-90c30,0,60,0,90,0C90,30.5,90,60.5,90,90.5z"/>
<path d="M38.9,43.1c-1.1-1.1-2.2-2.2-3.3-3.3c-0.4-0.4-0.5-0.8-0.5-1.3c0-7,0-14,0-21c0-1,0.5-1.5,1.5-1.5c5.6,0,11.2,0,16.8,0
	c1,0,1.4,0.5,1.4,1.4c0,7,0,14,0,21c0,0.5-0.2,0.9-0.5,1.3c-1.1,1.1-2.2,2.2-3.3,3.4c1.1,0.2,1.2,0.9,1.2,1.8c0,1.2,0,2.4,0,3.6
	c0,0.2,0.1,0.4,0.3,0.5c3.6,2.5,5.8,6,6.2,10.4c0.8,7.4-4.1,13.9-11,15.3c-6.9,1.5-13.9-2.7-16-9.6C29.9,59,32.2,52.6,37.4,49
	c0.2-0.2,0.3-0.3,0.3-0.6c0-1.2,0-2.4,0-3.7C37.7,43.7,37.9,43.5,38.9,43.1z M45,72.6c0.9-0.2,1.9-0.2,2.8-0.5
	c6.5-1.7,10.1-8.6,8-15c-2-6-8.2-9.4-14.2-7.5c-5.5,1.7-9,7.6-7.9,13.2C34.8,68.6,39.5,72.6,45,72.6z M46.9,43.1
	c0-8.2,0-16.4,0-24.6c-1.3,0-2.6,0-3.8,0c0,8.2,0,16.4,0,24.6C44.4,43.1,45.6,43.1,46.9,43.1z M49.4,18.5c0,7.6,0,15.2,0,22.8
	l0.1,0.1c0.1-0.1,0.2-0.3,0.3-0.4c0.8-0.8,1.7-1.7,2.5-2.5c0.2-0.2,0.3-0.5,0.3-0.7c0-6.3,0-12.6,0-18.8c0-0.2,0-0.3,0-0.5
	C51.4,18.5,50.4,18.5,49.4,18.5z M37.6,18.5c0,0.1,0,0.1,0,0.2c0,6.4,0,12.9,0,19.3c0,0.2,0.1,0.4,0.2,0.5c0.9,0.9,1.7,1.8,2.6,2.7
	c0.1,0.1,0.2,0.1,0.3,0.2c0-7.6,0-15.2,0-22.8C39.6,18.5,38.6,18.5,37.6,18.5z M40.2,47.6c3.2-1.2,6.5-1.2,9.7,0c0-0.7,0-1.3,0-2
	c-3.2,0-6.5,0-9.7,0C40.2,46.3,40.2,46.9,40.2,47.6z"/>
<path d="M36.8,60.8c0-4.8,3.8-8.7,8.5-8.7s8.5,3.9,8.5,8.7s-3.8,8.7-8.5,8.7S36.8,65.6,36.8,60.8z M51.4,60.9c0-3.4-2.7-6.3-6.1-6.3
	c-3.4,0-6.2,2.8-6.2,6.3s2.8,6.3,6.1,6.3C48.7,67.1,51.4,64.3,51.4,60.9z"/>
</svg>
