<?xml version="1.0" encoding="utf-8"?>
<!-- Generator: Adobe Illustrator 24.2.0, SVG Export Plug-In . SVG Version: 6.00 Build 0)  -->
<svg version="1.1" id="Layer_1" xmlns="http://www.w3.org/2000/svg" xmlns:xlink="http://www.w3.org/1999/xlink" x="0px" y="0px"
	 viewBox="0 0 180 59" style="enable-background:new 0 0 180 59;" xml:space="preserve">
<style type="text/css">
	.st0{fill:#FFFFFF;}
</style>
<path class="st0" d="M8.9,20.3l3,0v-5.1c0,0-3.4,0-3.5,0c-1.9,0-3.4,0.4-4.7,1.1c-1.3,0.8-2.2,1.8-2.8,3.1C0.3,20.6,0,22.1,0,23.8v0
	v4.6v15h5.5v-15h3.8v-4.6H5.5c0-1.1,0.3-1.9,0.9-2.5C7,20.6,7.8,20.3,8.9,20.3z"/>
<path class="st0" d="M19.9,23.9c-0.4,0-0.8-0.1-1.2-0.1c-1.9,0-3.4,0.4-4.7,1.1c-1.3,0.8-2.2,1.8-2.8,3.1c-0.6,1.3-0.9,2.8-0.9,4.4
	v10.9h5.5V32.6c0-1.1,0.3-2,0.9-2.7c0.6-0.7,1.5-1,2.5-1c0.2,0,0.5,0,0.7,0V23.9z"/>
<path class="st0" d="M35.5,24.9c-1.4-0.9-3.1-1.3-5.1-1.3c-1.9,0-3.6,0.4-5.1,1.3c-1.5,0.9-2.6,2.1-3.4,3.6c-0.8,1.5-1.2,3.2-1.2,5
	c0,2,0.4,3.8,1.3,5.3c0.9,1.5,2.1,2.7,3.7,3.5c1.6,0.8,3.3,1.3,5.3,1.3c2,0,3.8-0.5,5.3-1.4c1.5-0.9,2.7-2.2,3.5-3.9l-4.1-2.1
	c-0.4,0.9-1.1,1.5-1.9,2c-0.8,0.5-1.7,0.7-2.8,0.7c-1.1,0-2-0.2-2.8-0.7c-0.8-0.5-1.4-1.1-1.8-2c-0.2-0.5-0.4-1-0.5-1.5h14v-1.6
	c0-1.7-0.4-3.3-1.1-4.7C38,26.9,36.9,25.8,35.5,24.9z M26.5,30.8c0.1-0.3,0.3-0.5,0.4-0.8c0.4-0.5,0.8-0.9,1.4-1.2
	c0.6-0.3,1.3-0.5,2.1-0.5c0.8,0,1.4,0.1,2,0.4c0.6,0.3,1.1,0.7,1.4,1.2c0.2,0.2,0.3,0.5,0.4,0.8H26.5z"/>
<path class="st0" d="M56.4,24.9c-1.4-0.9-3.1-1.3-5.1-1.3c-1.9,0-3.6,0.4-5.1,1.3c-1.5,0.9-2.6,2.1-3.4,3.6c-0.8,1.5-1.2,3.2-1.2,5
	c0,2,0.4,3.8,1.3,5.3c0.9,1.5,2.1,2.7,3.7,3.5c1.6,0.8,3.3,1.3,5.3,1.3c2,0,3.8-0.5,5.3-1.4c1.5-0.9,2.7-2.2,3.5-3.9l-4.1-2.1
	c-0.4,0.9-1.1,1.5-1.9,2c-0.8,0.5-1.7,0.7-2.8,0.7c-1.1,0-2-0.2-2.8-0.7c-0.8-0.5-1.4-1.1-1.8-2c-0.2-0.5-0.4-1-0.5-1.5h14v-1.6
	c0-1.7-0.4-3.3-1.1-4.7C58.9,26.9,57.8,25.8,56.4,24.9z M47.3,30.8c0.1-0.3,0.3-0.5,0.4-0.8c0.4-0.5,0.8-0.9,1.4-1.2
	c0.6-0.3,1.3-0.5,2.1-0.5c0.8,0,1.4,0.1,2,0.4c0.6,0.3,1.1,0.7,1.4,1.2c0.2,0.2,0.3,0.5,0.4,0.8H47.3z"/>
<path class="st0" d="M77.6,25.5c-0.4-0.3-0.8-0.6-1.3-0.8c-1.2-0.6-2.5-0.9-3.8-0.9c-1.9,0-3.7,0.4-5.2,1.3c-1.5,0.8-2.7,2-3.5,3.6
	c-0.8,1.5-1.3,3.3-1.3,5.2c0,1.8,0.5,3.5,1.4,5c0.9,1.5,2.1,2.7,3.7,3.7c1.6,0.9,3.3,1.4,5.2,1.4c2,0,3.7-0.4,5.3-1.3
	c1.6-0.9,2.8-2.1,3.7-3.6c0.9-1.5,1.3-3.2,1.3-5.2V15.5h-5.5L77.6,25.5z M77,36.2c-0.4,0.7-1,1.3-1.7,1.8c-0.7,0.4-1.6,0.7-2.5,0.7
	c-0.9,0-1.7-0.2-2.5-0.7c-0.7-0.4-1.3-1-1.7-1.8c-0.4-0.7-0.6-1.6-0.6-2.4c0-0.9,0.2-1.7,0.6-2.5c0.4-0.8,1-1.4,1.7-1.8
	c0.7-0.4,1.6-0.7,2.5-0.7c0.9,0,1.8,0.2,2.5,0.7c0.7,0.4,1.3,1,1.7,1.8c0.4,0.8,0.6,1.6,0.6,2.5C77.6,34.7,77.4,35.5,77,36.2z"/>
<path class="st0" d="M100.4,25.1c-1.6-0.9-3.3-1.4-5.3-1.4c-1.9,0-3.7,0.5-5.2,1.4c-1.6,0.9-2.8,2.1-3.7,3.6c-0.9,1.5-1.4,3.2-1.4,5
	c0,1.8,0.5,3.5,1.4,5.1c0.9,1.5,2.1,2.7,3.7,3.7c1.6,0.9,3.3,1.4,5.2,1.4c1.9,0,3.7-0.5,5.3-1.4c1.6-0.9,2.8-2.1,3.7-3.7
	c0.9-1.5,1.4-3.2,1.4-5.1c0-1.8-0.5-3.5-1.4-5C103.1,27.2,101.9,26,100.4,25.1z M99.3,36.2c-0.4,0.7-1,1.3-1.7,1.8
	c-0.7,0.4-1.6,0.7-2.5,0.7c-0.9,0-1.7-0.2-2.5-0.7c-0.7-0.4-1.3-1-1.7-1.8c-0.4-0.7-0.6-1.6-0.6-2.5c0-0.9,0.2-1.7,0.6-2.5
	c0.4-0.7,1-1.3,1.7-1.8c0.7-0.4,1.6-0.7,2.5-0.7c0.9,0,1.8,0.2,2.5,0.7c0.7,0.4,1.3,1,1.7,1.8c0.4,0.7,0.6,1.6,0.6,2.5
	C100,34.7,99.7,35.5,99.3,36.2z"/>
<path class="st0" d="M136.3,24.9c-1.4-0.9-3.1-1.3-5.2-1.3c-1.5,0-2.9,0.3-4,0.9c-1.2,0.6-2.1,1.4-2.8,2.5c-0.2,0.3-0.3,0.5-0.4,0.8
	c-0.1-0.3-0.3-0.5-0.4-0.8c-0.7-1.1-1.6-1.9-2.8-2.5c-1.2-0.6-2.6-0.9-4.2-0.9c-2.1,0-3.8,0.4-5.1,1.3c-1.4,0.9-2.4,2.1-3.1,3.6
	c-0.7,1.5-1,3.1-1,4.9v10h5.5v-9.1c0-1,0.1-1.9,0.4-2.7c0.3-0.8,0.7-1.5,1.3-1.9c0.6-0.5,1.4-0.7,2.5-0.7c1,0,1.8,0.2,2.4,0.7
	c0.6,0.5,1.1,1.1,1.4,1.9c0.3,0.8,0.4,1.7,0.4,2.7v9.1h5.5v-9.1c0-1,0.1-1.9,0.4-2.7c0.3-0.8,0.8-1.4,1.4-1.9
	c0.6-0.5,1.4-0.7,2.4-0.7s1.8,0.2,2.4,0.7c0.6,0.5,1.1,1.1,1.4,1.9c0.3,0.8,0.4,1.7,0.4,2.7v9h5.5v-10c0-1.8-0.4-3.4-1.1-4.9
	C138.7,27,137.7,25.8,136.3,24.9z"/>
<path class="st0" d="M157,24.9c-1.4-0.9-3.1-1.3-5.1-1.3c-1.9,0-3.6,0.4-5.1,1.3c-1.5,0.9-2.6,2.1-3.4,3.6c-0.8,1.5-1.2,3.2-1.2,5
	c0,2,0.4,3.8,1.3,5.3c0.9,1.5,2.1,2.7,3.7,3.5c1.6,0.8,3.3,1.3,5.3,1.3c2,0,3.8-0.5,5.3-1.4c1.5-0.9,2.7-2.2,3.5-3.9l-4.1-2.1
	c-0.4,0.9-1.1,1.5-1.9,2c-0.8,0.5-1.7,0.7-2.8,0.7c-1.1,0-2-0.2-2.8-0.7c-0.8-0.5-1.4-1.1-1.8-2c-0.2-0.5-0.4-1-0.5-1.5h14v-1.6
	c0-1.7-0.4-3.3-1.1-4.7C159.5,26.9,158.4,25.8,157,24.9z M147.9,30.8c0.1-0.3,0.3-0.5,0.4-0.8c0.4-0.5,0.8-0.9,1.4-1.2
	c0.6-0.3,1.3-0.5,2.1-0.5c0.8,0,1.4,0.1,2,0.4c0.6,0.3,1.1,0.7,1.4,1.2c0.2,0.2,0.3,0.5,0.4,0.8H147.9z"/>
<path class="st0" d="M180,23.1v-4.8h-12.3c-1.6,0-2.8,0.4-3.6,1.2c-0.6,0.6-0.9,1.4-1,2.3c0,0.1-0.1,17.2-0.1,17.2
	c0,1.4,0.4,2.5,1.1,3.3c0.7,0.8,1.9,1.2,3.6,1.2H180v-4.8h-11.6V33h7.2v-4h-7.2v-5.9H180z"/>
</svg>
