<?xml version="1.0" encoding="utf-8"?>
<!-- Generator: Adobe Illustrator 24.2.0, SVG Export Plug-In . SVG Version: 6.00 Build 0)  -->
<svg version="1.1" id="Layer_1" xmlns="http://www.w3.org/2000/svg" xmlns:xlink="http://www.w3.org/1999/xlink" x="0px" y="0px"
	 viewBox="0 0 1080 1080" style="enable-background:new 0 0 1080 1080;" xml:space="preserve">
<style type="text/css">
	.st0{fill:#B3B3B3;}
	.st1{fill:#0A0A0A;}
	.st2{fill:#DD2842;}
	.st3{fill:#F1F2F2;}
</style>
<circle class="st0" cx="539" cy="539.5" r="511.5"/>
<path class="st1" d="M539,539.5L83.6,327.2C168.1,146.1,339.2,37.1,539,37.1V539.5z"/>
<path class="st2" d="M539,539.5V37.1c277.5,0,502.4,224.9,502.4,502.4S816.5,1041.9,539,1041.9S36.6,817,36.6,539.5
	c0-77.7,14.2-141.9,47.1-212.3L539,539.5z"/>
<path class="st3" d="M294.3,196.7v70.7h-23.8v-52.7h-12.1v-17.9L294.3,196.7L294.3,196.7z"/>
<path class="st3" d="M363.5,237.1c1.6,2.7,2.5,5.9,2.5,9.3c0,4.5-1.4,8.5-4,11.9c-2.6,3.4-6.4,6-11.2,7.9
	c-4.8,1.9-10.3,2.8-16.5,2.8s-11.7-0.9-16.5-2.8c-4.8-1.9-8.6-4.5-11.2-7.9c-2.6-3.4-4-7.4-4-11.9c0-3.5,0.8-6.6,2.5-9.3
	c1.6-2.7,4-5,7-6.9c-4.7-3.7-7-8.3-7-13.9c0-4.2,1.2-7.9,3.7-11.1c2.5-3.1,5.9-5.6,10.3-7.4c4.4-1.8,9.4-2.6,15.2-2.6
	c5.7,0,10.8,0.8,15.2,2.6c4.4,1.8,7.8,4.2,10.3,7.4c2.5,3.1,3.7,6.9,3.7,11.1c0,5.6-2.3,10.2-7,13.9
	C359.5,232.1,361.8,234.4,363.5,237.1z M339.9,250.9c1.4-1.4,2.2-3.1,2.2-5.4c0-2.2-0.8-4-2.2-5.4s-3.3-2-5.6-2s-4.2,0.7-5.6,2
	s-2.2,3.1-2.2,5.4c0,2.2,0.8,4,2.2,5.4c1.4,1.4,3.3,2,5.6,2S338.4,252.3,339.9,250.9z M330.2,212.8c-1,1.1-1.5,2.5-1.5,4.4
	s0.5,3.4,1.5,4.4c1,1.1,2.4,1.6,4.1,1.6s3.1-0.5,4.1-1.6c1-1.1,1.5-2.5,1.5-4.4s-0.5-3.4-1.5-4.4c-1-1.1-2.4-1.6-4.1-1.6
	C332.6,211.2,331.2,211.8,330.2,212.8z"/>
<path class="st3" d="M374.3,229.8c-3.5-3.5-5.3-8.3-5.3-14.4c0-4.1,0.8-7.6,2.5-10.6s3.8-5.2,6.7-6.8c2.9-1.5,6-2.3,9.6-2.3
	c3.6,0,6.8,0.8,9.6,2.3c2.9,1.5,5.1,3.8,6.7,6.8s2.5,6.5,2.5,10.6c0,6.1-1.8,11-5.3,14.4c-3.5,3.5-8,5.3-13.5,5.3
	C382.3,235.1,377.8,233.3,374.3,229.8z M429.3,196.7h17.1l-48.2,70.7h-17.1L429.3,196.7z M391,222.1c0.8-1.4,1.3-3.7,1.3-6.7
	c0-3.1-0.4-5.4-1.3-6.7c-0.8-1.4-1.9-2-3.1-2c-1.3,0-2.4,0.7-3.1,2c-0.8,1.4-1.3,3.7-1.3,6.7c0,3.1,0.4,5.4,1.3,6.7
	c0.8,1.4,1.9,2,3.1,2C389.1,224.2,390.2,223.5,391,222.1z M426.1,263.1c-3.5-3.5-5.3-8.3-5.3-14.4c0-4.1,0.8-7.6,2.5-10.6
	c1.6-3,3.8-5.2,6.7-6.8c2.9-1.5,6-2.3,9.6-2.3s6.8,0.8,9.6,2.3c2.9,1.5,5.1,3.8,6.7,6.8c1.6,3,2.5,6.5,2.5,10.6
	c0,6.1-1.8,11-5.3,14.4s-8,5.3-13.5,5.3C434.1,268.4,429.6,266.6,426.1,263.1z M442.8,255.4c0.8-1.4,1.3-3.7,1.3-6.7
	c0-3.1-0.4-5.4-1.3-6.7c-0.8-1.4-1.9-2-3.1-2c-1.3,0-2.4,0.7-3.1,2c-0.8,1.4-1.3,3.7-1.3,6.7s0.4,5.4,1.3,6.7c0.8,1.4,1.9,2,3.1,2
	C440.9,257.5,442,256.8,442.8,255.4z"/>
<path class="st3" d="M632.5,782.5c1.6,2.7,2.5,5.9,2.5,9.3c0,4.5-1.4,8.5-4,11.9c-2.6,3.4-6.4,6-11.2,7.9
	c-4.8,1.9-10.3,2.8-16.5,2.8c-6.2,0-11.7-0.9-16.5-2.8c-4.8-1.9-8.6-4.5-11.2-7.9c-2.6-3.4-4-7.4-4-11.9c0-3.5,0.8-6.6,2.5-9.3
	c1.6-2.7,4-5,7-6.9c-4.7-3.7-7-8.3-7-13.9c0-4.2,1.2-7.9,3.6-11.1c2.5-3.1,5.9-5.6,10.3-7.4c4.4-1.8,9.4-2.6,15.2-2.6
	c5.7,0,10.8,0.8,15.2,2.6s7.8,4.2,10.3,7.4c2.5,3.1,3.6,6.9,3.6,11.1c0,5.6-2.3,10.2-7,13.9C628.5,777.5,630.8,779.8,632.5,782.5z
	 M608.9,796.4c1.4-1.4,2.2-3.1,2.2-5.3s-0.8-4-2.2-5.3s-3.3-2-5.6-2c-2.3,0-4.2,0.7-5.6,2c-1.4,1.4-2.2,3.1-2.2,5.3s0.7,4,2.2,5.3
	c1.4,1.4,3.3,2,5.6,2C605.6,798.4,607.4,797.7,608.9,796.4z M599.2,758.3c-1,1.1-1.5,2.5-1.5,4.4c0,1.9,0.5,3.4,1.5,4.4
	c1,1.1,2.4,1.6,4.1,1.6c1.7,0,3.1-0.5,4.1-1.6c1-1.1,1.5-2.5,1.5-4.4c0-1.9-0.5-3.4-1.5-4.4c-1-1.1-2.4-1.6-4.1-1.6
	C601.6,756.7,600.2,757.2,599.2,758.3z"/>
<path class="st3" d="M696.8,794.3v18.4h-56.5v-14.6l25.5-23.6c2.2-2.1,3.7-3.9,4.4-5.3c0.8-1.4,1.1-2.9,1.1-4.3
	c0-1.8-0.6-3.1-1.8-4.1c-1.2-0.9-2.9-1.4-5.1-1.4c-2.1,0-4.2,0.6-6,1.7c-1.9,1.1-3.3,2.7-4.3,4.8l-17.9-9c2.7-5,6.6-9,11.8-12
	c5.2-2.9,11.5-4.4,18.7-4.4c5.6,0,10.5,0.9,14.8,2.7c4.3,1.8,7.6,4.4,10.1,7.7c2.5,3.4,3.6,7.2,3.6,11.6c0,3.9-0.8,7.5-2.5,10.9
	s-4.8,7.2-9.6,11.5l-10.3,9.2H696.8z"/>
<path class="st3" d="M706.6,775.3c-3.5-3.5-5.3-8.3-5.3-14.4c0-4.1,0.8-7.6,2.5-10.6c1.6-3,3.8-5.2,6.7-6.8c2.9-1.5,6-2.3,9.6-2.3
	c3.6,0,6.8,0.8,9.6,2.3c2.9,1.5,5.1,3.8,6.7,6.8c1.6,3,2.5,6.4,2.5,10.6c0,6.1-1.8,10.9-5.3,14.4c-3.5,3.5-8,5.3-13.5,5.3
	C714.6,780.6,710.1,778.8,706.6,775.3z M761.5,742.2h17.1l-48.2,70.6h-17.1L761.5,742.2z M723.2,767.6c0.8-1.4,1.3-3.6,1.3-6.7
	c0-3.1-0.4-5.3-1.3-6.7c-0.8-1.4-1.9-2-3.1-2c-1.3,0-2.4,0.7-3.1,2c-0.8,1.4-1.3,3.6-1.3,6.7s0.4,5.3,1.3,6.7c0.8,1.4,1.9,2,3.1,2
	C721.4,769.6,722.4,769,723.2,767.6z M758.3,808.6c-3.5-3.5-5.3-8.3-5.3-14.4c0-4.1,0.8-7.6,2.5-10.6s3.8-5.2,6.7-6.8
	c2.9-1.5,6-2.3,9.6-2.3s6.8,0.8,9.6,2.3c2.9,1.5,5.1,3.8,6.7,6.8s2.5,6.4,2.5,10.6c0,6.1-1.8,10.9-5.3,14.4c-3.5,3.5-8,5.3-13.5,5.3
	C766.2,813.8,761.7,812,758.3,808.6z M775,800.8c0.8-1.4,1.3-3.6,1.3-6.7s-0.4-5.3-1.3-6.7c-0.8-1.4-1.9-2-3.1-2
	c-1.3,0-2.4,0.7-3.1,2c-0.8,1.4-1.3,3.6-1.3,6.7c0,3.1,0.4,5.3,1.3,6.7c0.8,1.4,1.9,2,3.1,2C773,802.9,774.1,802.2,775,800.8z"/>
</svg>
