<?xml version="1.0" encoding="utf-8"?>
<!-- Generator: Adobe Illustrator 24.2.0, SVG Export Plug-In . SVG Version: 6.00 Build 0)  -->
<svg version="1.1" id="logotipo" xmlns="http://www.w3.org/2000/svg" xmlns:xlink="http://www.w3.org/1999/xlink" x="0px" y="0px"
	 viewBox="0 0 388 100" style="enable-background:new 0 0 388 100;" xml:space="preserve">
<style type="text/css">
	.st0{fill:#FFFFFF;}
</style>
<g id="Consultoria_2_">
	<path class="st0" d="M176.5,74.1c-8.5,6.3-18.9,10.8-28.9,14.1c-6.1,2.1-20.9,7-22.1-3.6c-0.6-5.2,2.7-10.6,5.6-14.6
		c3.6-5,8-9.4,12.7-13.2c4.8-3.9,10-7.3,15.6-9.9c4.9-2.3,11.8-5.2,17.2-3.7c10.8,2.9-0.3,19.5-6.8,21.2c-0.1,0-0.1,0-0.2-0.1
		c0,0,0,0-0.1,0c0,0,0,0,0,0c0,0-0.1-0.1-0.1-0.1c0-0.1-0.1-0.1-0.1-0.2c-0.1-0.4,0.1-0.9,0.4-1.1c0.2-0.2,0.3-0.3,0.5-0.4
		c0.4-0.3,0.9-0.6,1.4-0.6c0.2,0,0.3,0.2,0.4,0.3c1.9-1.3,3.4-3.2,4.7-5.1c1.9-2.9,5.1-7.9,2.1-11c-4.1-4.3-13.6-0.4-18,1.6
		c-9.3,4.1-17.7,10.4-24.6,17.9c-3.6,3.9-6.9,8.2-8.7,13.2c-1.1,2.9-1.7,6.6,0.7,9.1c1.7,1.7,4.2,2.1,6.5,2
		c7.6-0.3,15.4-3.7,22.3-6.6c6.6-2.8,13.3-6,19.1-10.3C176.8,72.3,177.1,73.7,176.5,74.1z"/>
	<path class="st0" d="M182.6,69.8c0.6,0,0.5,1.1,0,1.1c-1.1,0.1-2.2,0.4-3.2,0.9c-0.8,0.5-2,1.4-2,2.4c0,0.4,0.2,0.9,0.6,1.1
		c0.5,0.3,1.1,0.1,1.5-0.1c0.8-0.4,1.6-1,2.2-1.7c0.5-0.6,1.6-2,0.5-2.4c-0.9-0.3-2.2,0.5-2.8,1c-0.3,0.3-0.7,0.9-0.2,1.2
		c0.3,0.3,0.9,0.2,1.3,0.2c1-0.1,2.1-0.3,3.1-0.5c2.1-0.3,4.2-0.7,6.3-1.3c0.6-0.2,0.5,1.1,0,1.2c-1.8,0.5-3.6,0.9-5.5,1.2
		c-0.8,0.1-1.7,0.3-2.5,0.4c-0.8,0.1-1.6,0.4-2.4,0.2c-1.3-0.2-1.6-1.6-1.2-2.7c0.5-1.1,1.9-1.9,3-2.3c1.2-0.3,2.5,0.4,2.4,1.7
		c-0.1,1.3-1.2,2.6-2,3.4c-0.9,0.8-2.2,1.9-3.5,1.7c-1.1-0.2-1.6-1.5-1.6-2.5C176.7,71.5,180.1,69.8,182.6,69.8z"/>
	<path class="st0" d="M190.1,71.2c0.4-0.5,0.8,0.5,0.5,0.8c-0.4,0.5-0.8,1.1-0.9,1.8c-0.1,0.5-0.2,0.8,0.3,0.3
		c0.2-0.2,0.3-0.4,0.5-0.6c0.8-0.9,1.6-1.7,2.6-2.4c0.7-0.5,1.8-1.3,2.7-1.3c1,0,1.2,1.4,1.3,2.2c0.1,0.8-0.4,3,0.6,3.4
		c0.5,0.2,1.3-0.2,1.8-0.4c2-0.8,3.9-2,5.5-3.4c0.6-0.5,0.8,0.6,0.4,1c-1.6,1.4-3.5,2.6-5.5,3.4c-1.1,0.5-2.5,1.1-3.2-0.2
		c-0.5-0.9-0.4-1.9-0.4-2.9c0-0.5,0.1-1.9-0.7-1.9c-0.5,0-1.1,0.4-1.5,0.7c-1,0.6-1.8,1.4-2.6,2.2c-0.5,0.5-1.2,1.8-2,1.8
		c-0.8-0.1-0.7-1.4-0.6-1.9C188.9,72.9,189.4,72,190.1,71.2z"/>
	<path class="st0" d="M206.9,69.5c0.6-0.2,0.5,1.1,0,1.2c-0.4,0.1-1.4,0.5-1.5,1c-0.1,0.5,0.7,0.9,1.1,1c0.7,0.2,1.3,0.2,2,0.4
		c0.6,0.2,1.2,0.4,1.7,0.7c1.1,0.6,0.7,1.8,0.1,2.6c-0.7,0.9-1.7,1.5-2.8,1.8c-0.5,0.1-0.5-0.6-0.4-0.9c0.8-1.7,2.8-2.7,4.4-3.5
		c1.9-0.9,3.9-1.4,5.9-2c0.6-0.2,0.5,1.1,0,1.2c-1.8,0.5-3.6,1-5.3,1.7c-0.9,0.4-1.7,0.8-2.5,1.3c-0.7,0.4-1.4,0.9-1.8,1.7
		c-0.1-0.3-0.2-0.6-0.4-0.9c0.7-0.1,1.3-0.4,1.7-0.9c0.2-0.2,0.5-0.5,0.6-0.8c0.1-0.3,0-0.3-0.3-0.4c-0.6-0.3-1.4-0.6-2.1-0.7
		c-0.6-0.1-1.3-0.2-1.9-0.4c-0.9-0.4-1.5-1.4-1.1-2.4C204.9,70.3,205.9,69.8,206.9,69.5z"/>
	<path class="st0" d="M235,72.8c-1.8,1.2-4.1,2.1-6.3,2.2c-0.6,0.1-1.5,0.1-2-0.3c-0.2-0.1-0.3-0.3-0.4-0.6c-0.1-0.2-0.1-0.4,0-0.7
		c0,0,0-0.1,0.1-0.2c-1.3,0.6-2.4,1.4-3.6,2.2c-1.1,0.7-2.4,1.6-3.7,1.3c-1.9-0.3-2-2.3-1.5-4c-0.1,0-0.2-0.1-0.2-0.2
		c-0.1-0.1-0.1-0.3,0-0.5c0-0.1,0-0.2,0.1-0.2c0-0.1,0.1-0.1,0.1-0.2c0.3-0.3,0.7-0.5,1-0.8c0,0,0.1,0,0.1,0c0.5-0.5,0.8,0.6,0.4,1
		c-0.7,0.7-1.1,2-0.7,3c0.5,1.2,2,0.8,2.8,0.4c2-1,3.6-2.6,5.7-3.4c0.2-0.1,0.4,0,0.5,0.2c0.2,0.4,0.1,0.7,0,1.2
		c-0.1,0.3-0.2,0.3,0.1,0.4c0.5,0.3,1.4,0.1,2,0c1.9-0.3,3.8-1,5.5-2.1C235.3,71.3,235.4,72.5,235,72.8z"/>
	<path class="st0" d="M244.9,52.5C244.9,52.5,244.9,52.4,244.9,52.5c-0.2-0.4,0.2-1.4,0.5-0.9c0,0,0,0,0,0.1
		c0.2,0.3,0.1,0.6-0.1,0.8c-0.1,0.1-0.3,0.2-0.5,0.1c-0.2-0.1-0.3-0.3-0.3-0.5c0-0.5,0.2-0.7,0.5-1c0.7-0.7,1.4-1.5,2.1-2.2
		c0.5-0.4,0.7,0.4,0.5,0.7c-1.1,2.3-2.3,4.5-3.6,6.8c-2.9,5.3-5.8,10.5-8.6,15.9c-0.4,0.9-0.9,1.7-1.3,2.6c-0.2,0.5-0.7,1.3-0.3,1.6
		c0.3,0.2,1.3-0.4,1.7-0.5c0.8-0.3,1.5-0.6,2.2-1c1.6-0.8,3.2-1.7,4.5-2.9c0.6-0.5,0.8,0.6,0.4,1c-1.6,1.5-3.5,2.5-5.5,3.4
		c-0.8,0.4-2.9,1.6-3.8,1.1c-1.5-0.8,0.1-3.5,0.6-4.4c1.3-2.7,2.8-5.3,4.2-7.9c2.9-5.4,6-10.7,8.7-16.1c0.2,0.2,0.4,0.5,0.5,0.7
		c-0.4,0.4-0.8,0.8-1.2,1.1c-0.1,0.1-1.1,0.9-1.1,0.9c-0.1-0.2-0.2-0.3-0.3-0.5c0,0-0.1,0-0.1,0.1C245,51.9,244.9,52.2,244.9,52.5
		L244.9,52.5z"/>
	<path class="st0" d="M251.6,60.7c-1.2,1.8-2.6,3.8-4.2,5.4c1.4,0,2.8,0,4.1,0c0.5,0,0.4,1,0,1c-1.1,0-2.2,0-3.3,0
		c-1.2,0.3-2.1,1.4-2.8,2.4c-0.3,0.4-0.6,0.9-0.9,1.3c-0.9,1.7-1.8,3.5-2.7,5.2c-3.6,7.2-7.3,14.4-10.6,21.8
		c0.1,0.2,0.1,0.4-0.1,0.6c-0.3,0.4-0.6,0.9-0.8,1.4c-0.3,0.7-0.9,0.1-0.7-0.5c1.8-4.2,3.9-8.4,5.9-12.5c3.1-6.4,6.2-12.9,9.5-19.3
		c-0.1-0.1-0.1-0.3-0.1-0.4c-2.2,0-4.5,0-6.7-0.1c-0.5,0-0.4-1,0-1c2.5,0.1,5,0.1,7.4,0.1c2-3.9,4.2-7.8,6.5-11.5
		c0.5-0.7,1.3-2.5,2.2-2.8c1.1-0.4,1.2,0.7,1,1.6C255,55.9,253.1,58.5,251.6,60.7z M246.7,67c-0.1,0-0.2,0-0.2,0
		c-0.1,0.2-0.2,0.3-0.2,0.5C246.4,67.3,246.6,67.1,246.7,67z M249.8,60.8c-0.6,1.1-1.1,2.2-1.7,3.3c1.4-1.6,2.5-3.3,3.6-5
		c0.3-0.5,3.6-6.4,3.2-6.4c-0.5,0-1.7,2.3-1.9,2.7C251.8,57.1,250.8,59,249.8,60.8z"/>
	<path class="st0" d="M254.3,69.8c0.6,0,0.5,1.1,0,1.1c-1.1,0.1-2.2,0.4-3.2,0.9c-0.8,0.5-2,1.4-2,2.4c0,0.4,0.2,0.9,0.6,1.1
		c0.5,0.3,1.1,0.1,1.5-0.1c0.8-0.4,1.6-1,2.2-1.7c0.5-0.6,1.6-2,0.5-2.4c-0.9-0.3-2.2,0.5-2.8,1c-0.3,0.3-0.7,0.9-0.2,1.2
		c0.3,0.3,0.9,0.2,1.3,0.2c1-0.1,2.1-0.3,3.1-0.5c2.1-0.3,4.2-0.7,6.3-1.3c0.6-0.2,0.5,1.1,0,1.2c-1.8,0.5-3.6,0.9-5.5,1.2
		c-0.8,0.1-1.7,0.3-2.5,0.4c-0.8,0.1-1.6,0.4-2.4,0.2c-1.3-0.2-1.6-1.6-1.2-2.7c0.5-1.1,1.9-1.9,3-2.3c1.2-0.3,2.5,0.4,2.4,1.7
		c-0.1,1.3-1.2,2.6-2,3.4c-0.9,0.8-2.2,1.9-3.5,1.7c-1.1-0.2-1.6-1.5-1.6-2.5C248.4,71.5,251.8,69.8,254.3,69.8z"/>
	<path class="st0" d="M273.3,73.6c-2.1,2.2-5.1,4-8.2,4.6c-0.8,0.1-1.9,0.2-2.7-0.3c-0.5-0.4-0.6-1-0.5-1.6c0.1-0.4,0.3-0.8,0.5-1.2
		c0.1-0.2,0.3-0.4,0.4-0.6c-0.8-0.1-1.6-0.5-2-1.2c-0.5,0.1-1,0.3-1.5,0.4c-0.5,0.1-0.4-0.8-0.1-0.9c0.5-0.2,0.9-0.4,1.4-0.6
		c0.1-0.6,0.4-1.1,0.8-1.5c0.4-0.4,1-0.9,1.6-0.8c0.6,0.1,0.8,0.7,0.8,1.2c-0.1,0.6-0.4,1-0.9,1.4c-0.3,0.2-0.7,0.3-1.1,0.5
		c0.5,0.4,1.3,0.4,1.8,0.4c0.4,0,0.5,0.4,0.4,0.7c-0.2,0.8-0.7,1.3-1.1,1.9c-0.3,0.4-0.2,0.7,0.2,0.9c0.8,0.3,1.8,0.1,2.6-0.1
		c2.7-0.7,5.1-2.2,7-4.2c0.2-0.2,0.5-0.1,0.6,0.1C273.6,73,273.5,73.4,273.3,73.6z M261.9,71.9c0.3-0.1,0.7-0.3,1-0.5
		c0.6-0.5-0.3-0.1-0.5,0.1C262.2,71.5,262,71.7,261.9,71.9z"/>
	<path class="st0" d="M283.9,72.7c-1.8,1.3-3.7,2.3-5.8,3.1c-1.4,0.5-3,1-4.4,0.9c-0.4,0-0.8-0.2-1-0.6c-0.4-0.7-0.1-1.6,0.2-2.3
		c0.1-0.4,0.3-0.8,0.5-1.1c-0.1,0.1-0.1,0.1-0.2,0.2c-0.6,0.5-0.8-0.6-0.4-0.9c1-0.8,1.9-1.6,2.7-2.6c0.5-0.6,0.9,0.3,0.6,0.8
		c-1,1.3-2.1,2.8-2.6,4.4c0,0.1-0.1,0.3-0.1,0.5c0,0,0,0.2,0,0.2c0,0.1,0,0.1,0,0.1c0-0.1,0.1,0.1,0,0c0.2,0.1,0.1,0.1,0.3,0.1
		c0.3,0.1,0.6,0,0.9,0c1.5-0.1,2.9-0.6,4.3-1.2c1.6-0.7,3.2-1.5,4.5-2.5C284.1,71.2,284.4,72.3,283.9,72.7z M281.9,60.5
		c-0.1-0.1-0.2-0.2-0.2-0.3c0-0.2,0-0.3,0.1-0.5c0.1-0.1,0.2-0.2,0.3-0.3c0.5-0.3,1-0.4,1.5-0.5c0.3,0,0.4,0.3,0.4,0.5
		c0,0.3-0.2,0.6-0.5,0.7c-0.2,0-0.4,0.1-0.6,0.1c-0.2,0.1-0.5,0.2-0.7,0.3C282.1,60.6,282,60.6,281.9,60.5z"/>
	<path class="st0" d="M287.7,70.5c0.6,0,0.5,1.1,0,1.2c-1.9,0.2-3.7,0.6-4.8,2.2c-0.4,0.6-1,1.9-0.5,2.5c0.6,0.7,1.7-0.2,2.1-0.7
		c1.4-1.6,2.5-3.8,3.4-5.8c0.2,0.2,0.4,0.4,0.7,0.6c-0.8,1.2-2,3.8-0.4,4.9c0.9,0.6,2.2,0.3,3.1,0c2.1-0.7,4-2.1,5.7-3.5
		c0.6-0.5,0.8,0.6,0.4,1c-1.8,1.4-3.7,2.8-5.8,3.6c-1.7,0.6-4,0.9-4.8-1.2c-0.7-1.8,0.2-4,1.2-5.6c0.4-0.6,0.9,0.2,0.7,0.6
		c-0.6,1.3-1.3,2.5-2,3.8c-0.7,1.3-1.8,3.4-3.5,3.6c-2.5,0.4-1.8-3.2-1.1-4.4C283.2,71.4,285.4,70.6,287.7,70.5z"/>
</g>
<g id="Privacy_up_2_">
	<path class="st0" d="M88.7,21.8c0,3.9-1.5,6.8-4.5,8.7c-2.7,1.7-6.6,2.5-11.8,2.5h-7.5v14.5l2.8,1.8h-8.9l2.8-1.8V12.4l-2.8-1.8
		h13.6c5.2,0,9.1,0.8,11.8,2.5C87.2,15,88.7,17.9,88.7,21.8z M85.5,21.8c0-7.8-5.9-10-13-10h-7.5v20.1h7.5
		C79.6,31.9,85.5,29.6,85.5,21.8z"/>
	<path class="st0" d="M127.3,49.2h-6.1l-13.9-17.3c-0.4,0.1-0.9,0.1-1.3,0.1h-7.5v15.5l2.8,1.8h-8.9l2.8-1.8V12.4l-2.8-1.8H106
		c5.2,0,9.1,0.8,11.8,2.4c3,1.8,4.5,4.5,4.5,8.2c0,3.8-1.5,6.5-4.5,8.3c-1.7,1-3.9,1.7-6.6,2.1l12.4,15.5L127.3,49.2z M110.3,30.5
		c5.5-0.8,8.7-3.3,8.7-9.3c0-7.4-5.1-9.5-13-9.5h-7.5v19h7.5c0.4,0,0.8,0,1.2,0l2.1-1.5L110.3,30.5z"/>
	<path class="st0" d="M136.6,47.5l2.8,1.8h-8.9l2.8-1.8V12.4l-2.8-1.8h8.9l-2.8,1.8V47.5z"/>
	<path class="st0" d="M179.9,12.4l-15.6,35.5l0.6,1.3h-3.5l-16.1-36.5l-3.3-2.1h8.9l-2.3,1.4l15.1,34.4l15-34.2l-2.6-1.7h6.8
		L179.9,12.4z"/>
	<path class="st0" d="M218.6,49.2h-8.8l2.3-1.4l-5-11.4h-20.2L182,47.5l2.6,1.7h-6.8l2.9-1.8l15.6-35.5l-0.6-1.3h3.5l16.1,36.5
		L218.6,49.2z M206.6,35.2L197,13.4l-9.6,21.9H206.6z"/>
	<path class="st0" d="M252.1,43.5l-2.2,4.7l-2.3-0.3c-3,1.3-6,1.9-9.3,1.9c-11.3,0-20.5-8.9-20.5-19.9s9.2-19.9,20.5-19.9
		c3,0,5.6,0.8,7.6,1.7l1.8-0.4l1.3,4.3c0,0-4.5-4.4-10.8-4.4c-10.7,0-17.2,8.4-17.2,18.7s6.5,18.7,17.2,18.7
		C246.6,48.6,252.1,43.5,252.1,43.5z"/>
	<path class="st0" d="M270.7,30.3v17.2l2.8,1.8h-8.9l2.8-1.8V30.4l-12-18l-2.8-1.8h8.9l-2.4,1.5l11.1,16.7l11-16.5l-2.7-1.7h6.8
		l-2.6,1.7L270.7,30.3z"/>
	<path class="st0" d="M341.6,10.6l-2.8,1.8V38c0,5.6-3.6,11.4-14.4,11.4c-10.7,0-14.4-5.7-14.4-11.4V12.4l-2.8-1.8h8.9l-2.8,1.8V38
		c0,5.1,3.7,9.6,11.1,9.6c9.5,0,13.2-4.5,13.2-9.6V12.4l-2.8-1.8H341.6z"/>
	<path class="st0" d="M376,21.8c0,3.9-1.5,6.8-4.5,8.7c-2.7,1.7-6.6,2.5-11.8,2.5h-7.5v14.5l2.8,1.8h-8.9l2.8-1.8V12.4l-2.8-1.8
		h13.6c5.2,0,9.1,0.8,11.8,2.5C374.5,15,376,17.9,376,21.8z M372.7,21.8c0-7.8-5.9-10-13-10h-7.5v20.1h7.5
		C366.8,31.9,372.7,29.6,372.7,21.8z"/>
</g>
<path class="st0" d="M32.5,37v5.8c0,20.2-30.5,20.2-30.5,0V22c0-1.3-1.9-1.3-1.9-0.1v20.8c0,22.8,34.4,22.8,34.4,0v-5.8
	C34.4,35.7,32.5,35.7,32.5,37z M20.1,48.9l-1.8-4.6C18.7,44,19,43.5,19,43c0-1-0.8-1.8-1.8-1.8c-1,0-1.8,0.8-1.8,1.8
	c0,0.6,0.3,1,0.7,1.3l-1.8,4.6H20.1z M45.4,27.8h-11V15.2C34.4,5,28.7,0,21.7,0C15,0,8.2,5.1,8.2,15.2v13.5c0,0.5,0.4,1,1,1h36.2
	C46.7,29.8,46.7,27.8,45.4,27.8z M32.5,27.8H10V15.2C10,7,15.9,2.1,21.7,2c5.4-0.1,10.8,3.8,10.8,13.1V27.8z"/>
</svg>
