<?xml version="1.0" encoding="utf-8"?>
<!-- Generator: Adobe Illustrator 24.2.0, SVG Export Plug-In . SVG Version: 6.00 Build 0)  -->
<svg version="1.1" id="Layer_1" xmlns="http://www.w3.org/2000/svg" xmlns:xlink="http://www.w3.org/1999/xlink" x="0px" y="0px"
	 viewBox="0 0 1920 268" style="enable-background:new 0 0 1920 268;" xml:space="preserve">
<style type="text/css">
	.st0{fill:#1D3B4F;}
	.st1{fill:#A33053;}
	.st2{fill:#00AAC5;}
	.st3{fill:#F4F4F4;}
</style>
<g>
	<path class="st0" d="M841.7,254.6v4.1h-15.6v-19.4h15.2v4.1h-10v3.5h8.8v3.9h-8.8v3.8L841.7,254.6L841.7,254.6z"/>
	<path class="st0" d="M863.4,258.7v-10.6l-5.2,8.5h-2.4l-5.2-8.2v10.3h-5v-19.4h4.5l6.9,11.3l6.8-11.3h4.5l0.1,19.4H863.4z"/>
	<path class="st0" d="M887,257.8c-1.6-0.9-2.9-2.1-3.9-3.6c-0.9-1.5-1.4-3.2-1.4-5.2c0-1.9,0.5-3.6,1.4-5.2s2.2-2.7,3.9-3.6
		c1.6-0.9,3.5-1.3,5.5-1.3c1.9,0,3.5,0.3,4.8,0.8c1.4,0.6,2.5,1.5,3.5,2.7l-3.4,3.1c-1.3-1.6-2.9-2.3-4.7-2.3c-1.6,0-3,0.5-4.1,1.6
		s-1.6,2.4-1.6,4.1c0,1.1,0.2,2.1,0.7,3s1.2,1.5,2,2c0.9,0.5,1.8,0.7,2.9,0.7c1.9,0,3.4-0.8,4.7-2.3l3.4,3.1c-1,1.2-2.1,2.1-3.5,2.7
		s-3,0.9-4.8,0.9C890.4,259.1,888.6,258.6,887,257.8z"/>
	<path class="st0" d="M907.6,257.8c-1.7-0.9-3-2.1-3.9-3.6s-1.4-3.2-1.4-5.2c0-1.9,0.5-3.6,1.4-5.2s2.2-2.7,3.9-3.6
		c1.7-0.9,3.5-1.3,5.6-1.3s3.9,0.4,5.6,1.3c1.7,0.9,3,2.1,3.9,3.6s1.4,3.3,1.4,5.2s-0.5,3.6-1.4,5.2c-0.9,1.5-2.2,2.7-3.9,3.6
		s-3.5,1.3-5.6,1.3S909.2,258.6,907.6,257.8z M916,254c0.8-0.5,1.5-1.2,2-2c0.5-0.9,0.7-1.8,0.7-2.9c0-1.1-0.2-2.1-0.7-3
		s-1.1-1.5-2-2c-0.8-0.5-1.8-0.7-2.8-0.7s-2,0.2-2.8,0.7s-1.5,1.2-2,2c-0.5,0.9-0.7,1.8-0.7,3c0,1.1,0.2,2.1,0.7,2.9
		c0.5,0.9,1.1,1.5,2,2c0.8,0.5,1.8,0.7,2.8,0.7S915.1,254.5,916,254z"/>
	<path class="st0" d="M946.4,239.3v19.4H942l-8.9-10.7v10.7h-5.2v-19.4h4.4l8.9,10.7v-10.7L946.4,239.3L946.4,239.3z"/>
	<path class="st0" d="M953.4,258.5c-1.5-0.4-2.7-0.9-3.6-1.5l1.9-3.9c0.9,0.6,1.9,1,3.1,1.4c1.2,0.3,2.4,0.5,3.6,0.5
		c1.1,0,1.9-0.2,2.4-0.5s0.8-0.7,0.8-1.2c0-0.6-0.3-1-0.9-1.3c-0.6-0.3-1.6-0.6-3-0.8c-1.5-0.3-2.7-0.6-3.7-1
		c-1-0.3-1.8-0.9-2.5-1.7s-1.1-1.9-1.1-3.2c0-1.2,0.3-2.3,1-3.2s1.7-1.7,3-2.2s2.9-0.8,4.6-0.8c1.3,0,2.6,0.1,3.8,0.4
		c1.2,0.3,2.3,0.7,3.2,1.3l-1.7,3.9c-1.6-1-3.5-1.5-5.5-1.5c-1.1,0-1.9,0.2-2.4,0.5s-0.8,0.8-0.8,1.3c0,0.6,0.3,1,0.9,1.3
		s1.6,0.5,3,0.8c1.5,0.3,2.7,0.6,3.7,1s1.8,0.9,2.5,1.7s1.1,1.8,1.1,3.2c0,1.2-0.3,2.3-1,3.3c-0.7,0.9-1.7,1.7-3,2.2
		s-2.9,0.8-4.7,0.8C956.5,259.1,954.9,258.9,953.4,258.5z"/>
	<path class="st0" d="M973.5,243.4h-6.1v-4.1h17.5v4.1h-6.1v15.2h-5.3L973.5,243.4L973.5,243.4z"/>
	<path class="st0" d="M996.2,253.5H993v5.2h-5.3v-19.4h8.8c2.7,0,4.8,0.6,6.4,1.9c1.6,1.3,2.4,3,2.4,5.2c0,1.4-0.3,2.6-1,3.7
		c-0.7,1-1.7,1.9-2.9,2.4l4.3,6.1h-5.7L996.2,253.5z M998.9,244.2c-0.6-0.5-1.6-0.8-2.8-0.8H993v6h3.1c1.2,0,2.2-0.3,2.8-0.8
		s0.9-1.3,0.9-2.2S999.5,244.7,998.9,244.2z"/>
	<path class="st0" d="M1011.6,256.7c-1.6-1.6-2.4-3.7-2.4-6.4v-11h5.3v10.9c0,1.5,0.3,2.6,1,3.4c0.7,0.8,1.6,1.1,2.9,1.1
		c1.3,0,2.2-0.4,2.9-1.1c0.7-0.8,1-1.9,1-3.4v-10.9h5.3v11c0,2.7-0.8,4.9-2.4,6.4c-1.6,1.6-3.9,2.3-6.7,2.3
		S1013.2,258.3,1011.6,256.7z"/>
	<path class="st0" d="M1036.4,257.8c-1.6-0.9-2.9-2.1-3.9-3.6c-0.9-1.5-1.4-3.2-1.4-5.2c0-1.9,0.5-3.6,1.4-5.2s2.2-2.7,3.9-3.6
		c1.6-0.9,3.5-1.3,5.5-1.3c1.9,0,3.5,0.3,4.8,0.8c1.4,0.6,2.5,1.5,3.5,2.7l-3.4,3.1c-1.3-1.6-2.9-2.3-4.7-2.3c-1.6,0-3,0.5-4.1,1.6
		s-1.6,2.4-1.6,4.1c0,1.1,0.2,2.1,0.7,3s1.2,1.5,2,2c0.9,0.5,1.8,0.7,2.9,0.7c1.9,0,3.4-0.8,4.7-2.3l3.4,3.1c-1,1.2-2.1,2.1-3.5,2.7
		s-3,0.9-4.8,0.9C1039.9,259.1,1038,258.6,1036.4,257.8z M1038.4,266.3c-0.6-0.1-1-0.3-1.4-0.5l0.8-2.3c0.7,0.3,1.5,0.5,2.2,0.5
		c1.2,0,1.8-0.4,1.8-1.1s-0.6-1-1.7-1h-1.1l0.9-3.6h2.8l-0.5,2c1,0.1,1.7,0.4,2.2,0.9s0.7,1.1,0.7,1.9c0,1-0.5,1.8-1.3,2.4
		c-0.9,0.6-2.1,0.9-3.6,0.9C1039.5,266.5,1038.9,266.4,1038.4,266.3z"/>
	<path class="st0" d="M1066.1,254.8h-9.1l-1.6,3.8h-5.2l8.7-19.4h5.3l8.7,19.4h-5.3L1066.1,254.8z M1062.5,236.7
		c-0.5-0.2-1-0.6-1.5-1c-0.4-0.3-0.7-0.5-0.9-0.6c-0.2-0.1-0.5-0.2-0.7-0.2c-0.5,0-0.9,0.2-1.1,0.5c-0.3,0.3-0.5,0.8-0.5,1.4h-2.7
		c0-1.5,0.4-2.7,1.1-3.6c0.7-0.9,1.6-1.3,2.8-1.3c0.6,0,1.1,0.1,1.6,0.4c0.5,0.2,1,0.6,1.6,1c0.4,0.3,0.7,0.5,0.9,0.6
		s0.5,0.2,0.7,0.2c0.4,0,0.8-0.2,1.1-0.5s0.5-0.8,0.5-1.3h2.7c0,1.5-0.4,2.6-1.1,3.5s-1.6,1.3-2.8,1.3
		C1063.5,237.1,1063,236.9,1062.5,236.7z M1064.5,251l-2.9-7l-2.9,7H1064.5z"/>
	<path class="st0" d="M1078.8,257.8c-1.7-0.9-3-2.1-3.9-3.6s-1.4-3.2-1.4-5.2c0-1.9,0.5-3.6,1.4-5.2s2.2-2.7,3.9-3.6
		c1.7-0.9,3.5-1.3,5.6-1.3s3.9,0.4,5.6,1.3c1.7,0.9,3,2.1,3.9,3.6s1.4,3.3,1.4,5.2s-0.5,3.6-1.4,5.2c-0.9,1.5-2.2,2.7-3.9,3.6
		c-1.7,0.9-3.5,1.3-5.6,1.3S1080.5,258.6,1078.8,257.8z M1087.2,254c0.8-0.5,1.5-1.2,2-2c0.5-0.9,0.7-1.8,0.7-2.9
		c0-1.1-0.2-2.1-0.7-3s-1.1-1.5-2-2c-0.8-0.5-1.8-0.7-2.8-0.7s-2,0.2-2.8,0.7s-1.5,1.2-2,2c-0.5,0.9-0.7,1.8-0.7,3
		c0,1.1,0.2,2.1,0.7,2.9c0.5,0.9,1.1,1.5,2,2c0.8,0.5,1.8,0.7,2.8,0.7S1086.4,254.5,1087.2,254z"/>
</g>
<g>
	<polygon class="st1" points="1630.5,85.6 1630.5,29.4 1602.3,32.2 1602.3,88.5 	"/>
	<polygon class="st1" points="899.6,159.8 899.6,103.6 871.4,106.4 871.4,162.7 	"/>
	<polygon class="st1" points="955.8,154.1 955.8,97.9 927.7,100.7 927.7,157 	"/>
	<polygon class="st1" points="1799.1,68.5 1799.1,12.3 1771,15.1 1771,71.3 	"/>
	<polygon class="st1" points="1855.3,62.8 1855.3,6.6 1827.2,9.4 1827.2,65.6 	"/>
	<polygon class="st1" points="730.9,176.9 730.9,120.7 702.8,123.6 702.8,179.8 	"/>
	<polygon class="st1" points="1742.9,74.2 1742.9,18 1714.8,20.8 1714.8,77.1 	"/>
	<polygon class="st1" points="1012,148.4 1012,92.2 983.9,95 983.9,151.2 	"/>
	<polygon class="st1" points="843.3,165.5 843.3,109.3 815.2,112.1 815.2,168.4 	"/>
	<polygon class="st1" points="1686.7,79.9 1686.7,23.7 1658.6,26.5 1658.6,82.8 	"/>
	<polygon class="st1" points="674.7,182.6 674.7,126.4 646.6,129.3 646.6,185.5 	"/>
	<polygon class="st1" points="1349.3,114.1 1349.3,57.9 1321.2,60.8 1321.2,117 	"/>
	<polygon class="st1" points="1461.8,102.7 1461.8,46.5 1433.7,49.4 1433.7,105.6 	"/>
	<polygon class="st1" points="1180.7,131.3 1180.7,75 1152.6,77.9 1152.6,134.1 	"/>
	<polygon class="st1" points="1236.9,125.6 1236.9,69.3 1208.8,72.2 1208.8,128.4 	"/>
	<polygon class="st1" points="1293.1,119.9 1293.1,63.6 1265,66.5 1265,122.7 	"/>
	<polygon class="st1" points="1405.6,108.4 1405.6,52.2 1377.5,55.1 1377.5,111.3 	"/>
	<polygon class="st1" points="1574.2,91.3 1574.2,35.1 1546.1,38 1546.1,94.2 	"/>
	<polygon class="st1" points="1911.6,57.1 1911.6,0.9 1883.5,3.7 1883.5,59.9 	"/>
	<polygon class="st1" points="1068.2,142.7 1068.2,86.5 1040.1,89.3 1040.1,145.5 	"/>
	<polygon class="st1" points="1518,97 1518,40.8 1489.9,43.7 1489.9,99.9 	"/>
	<polygon class="st1" points="1124.5,137 1124.5,80.8 1096.3,83.6 1096.3,139.8 	"/>
	<polygon class="st1" points="787.1,171.2 787.1,115 759,117.8 759,174.1 	"/>
	<polygon class="st1" points="337.3,216.9 337.3,160.7 309.2,163.5 309.2,219.7 	"/>
	<polygon class="st1" points="224.9,228.3 224.9,172.1 196.8,174.9 196.8,231.1 	"/>
	<polygon class="st1" points="449.8,205.5 449.8,149.2 421.7,152.1 421.7,208.3 	"/>
	<polygon class="st1" points="393.6,211.2 393.6,154.9 365.4,157.8 365.4,214 	"/>
	<polygon class="st1" points="56.2,245.4 56.2,189.2 28.1,192 28.1,248.3 	"/>
	<polygon class="st1" points="168.7,234 168.7,177.8 140.6,180.6 140.6,236.8 	"/>
	<polygon class="st1" points="112.4,239.7 112.4,183.5 84.3,186.3 84.3,242.6 	"/>
	<polygon class="st1" points="281.1,222.6 281.1,166.4 253,169.2 253,225.4 	"/>
	<polygon class="st1" points="506,199.8 506,143.5 477.9,146.4 477.9,202.6 	"/>
	<polygon class="st1" points="618.4,188.3 618.4,132.1 590.3,135 590.3,191.2 	"/>
	<polygon class="st1" points="562.2,194 562.2,137.8 534.1,140.7 534.1,196.9 	"/>
	<polygon class="st0" points="28.1,192 0,194.9 0,251.1 28.1,248.3 	"/>
	<polygon class="st0" points="84.3,242.6 84.3,186.3 56.2,189.2 56.2,245.4 	"/>
	<polygon class="st0" points="140.6,236.8 140.6,180.6 112.4,183.5 112.4,239.7 	"/>
	<polygon class="st0" points="196.8,231.1 196.8,174.9 168.7,177.8 168.7,234 	"/>
	<polygon class="st0" points="253,225.4 253,169.2 224.9,172.1 224.9,228.3 	"/>
	<polygon class="st0" points="309.2,219.7 309.2,163.5 281.1,166.4 281.1,222.6 	"/>
	<polygon class="st0" points="365.4,214 365.4,157.8 337.3,160.7 337.3,216.9 	"/>
	<polygon class="st0" points="421.7,208.3 421.7,152.1 393.6,154.9 393.6,211.2 	"/>
	<polygon class="st0" points="477.9,202.6 477.9,146.4 449.8,149.2 449.8,205.5 	"/>
	<polygon class="st0" points="534.1,196.9 534.1,140.7 506,143.5 506,199.8 	"/>
	<polygon class="st0" points="590.3,191.2 590.3,135 562.2,137.8 562.2,194 	"/>
	<polygon class="st0" points="646.6,185.5 646.6,129.3 618.4,132.1 618.4,188.3 	"/>
	<polygon class="st0" points="702.8,179.8 702.8,123.6 674.7,126.4 674.7,182.6 	"/>
	<polygon class="st0" points="759,174.1 759,117.8 730.9,120.7 730.9,176.9 	"/>
	<polygon class="st0" points="815.2,168.4 815.2,112.1 787.1,115 787.1,171.2 	"/>
	<polygon class="st0" points="871.4,162.7 871.4,106.4 843.3,109.3 843.3,165.5 	"/>
	<polygon class="st0" points="927.7,157 927.7,100.7 899.6,103.6 899.6,159.8 	"/>
	<polygon class="st0" points="983.9,151.2 983.9,95 955.8,97.9 955.8,154.1 	"/>
	<polygon class="st0" points="1040.1,145.5 1040.1,89.3 1012,92.2 1012,148.4 	"/>
	<polygon class="st0" points="1096.3,139.8 1096.3,83.6 1068.2,86.5 1068.2,142.7 	"/>
	<polygon class="st0" points="1152.6,134.1 1152.6,77.9 1124.5,80.8 1124.5,137 	"/>
	<polygon class="st0" points="1208.8,128.4 1208.8,72.2 1180.7,75 1180.7,131.3 	"/>
	<polygon class="st0" points="1265,122.7 1265,66.5 1236.9,69.3 1236.9,125.6 	"/>
	<polygon class="st0" points="1321.2,117 1321.2,60.8 1293.1,63.6 1293.1,119.9 	"/>
	<polygon class="st0" points="1377.5,111.3 1377.5,55.1 1349.3,57.9 1349.3,114.1 	"/>
	<polygon class="st0" points="1433.7,105.6 1433.7,49.4 1405.6,52.2 1405.6,108.4 	"/>
	<polygon class="st0" points="1489.9,99.9 1489.9,43.7 1461.8,46.5 1461.8,102.7 	"/>
	<polygon class="st0" points="1546.1,94.2 1546.1,38 1518,40.8 1518,97 	"/>
	<polygon class="st0" points="1602.3,88.5 1602.3,32.2 1574.2,35.1 1574.2,91.3 	"/>
	<polygon class="st0" points="1658.6,82.8 1658.6,26.5 1630.5,29.4 1630.5,85.6 	"/>
	<polygon class="st0" points="1714.8,77.1 1714.8,20.8 1686.7,23.7 1686.7,79.9 	"/>
	<polygon class="st0" points="1771,71.3 1771,15.1 1742.9,18 1742.9,74.2 	"/>
	<polygon class="st0" points="1827.2,65.6 1827.2,9.4 1799.1,12.3 1799.1,68.5 	"/>
	<polygon class="st0" points="1883.5,59.9 1883.5,3.7 1855.3,6.6 1855.3,62.8 	"/>
	<polygon class="st0" points="1920,56.2 1920,0 1911.6,0.9 1911.6,57.1 	"/>
</g>
<g>
	<polygon class="st1" points="626.9,93.9 626.9,164.2 655,165.8 655,95.6 	"/>
	<polygon class="st1" points="795.5,104 795.5,174.3 823.7,176 823.7,105.7 	"/>
	<polygon class="st1" points="908,110.8 908,181 936.1,182.7 936.1,112.4 	"/>
	<polygon class="st1" points="739.3,100.6 739.3,170.9 767.4,172.6 767.4,102.3 	"/>
	<polygon class="st1" points="683.1,97.3 683.1,167.5 711.2,169.2 711.2,98.9 	"/>
	<polygon class="st1" points="851.8,107.4 851.8,177.7 879.9,179.3 879.9,109.1 	"/>
	<polygon class="st1" points="1132.9,124.3 1132.9,194.5 1161,196.2 1161,126 	"/>
	<polygon class="st1" points="964.2,114.1 964.2,184.4 992.3,186.1 992.3,115.8 	"/>
	<polygon class="st1" points="1189.1,127.6 1189.1,197.9 1217.2,199.6 1217.2,129.3 	"/>
	<polygon class="st1" points="1020.4,117.5 1020.4,187.8 1048.6,189.5 1048.6,119.2 	"/>
	<polygon class="st1" points="570.7,90.5 570.7,160.8 598.8,162.5 598.8,92.2 	"/>
	<polygon class="st1" points="233.3,70.2 233.3,140.5 261.4,142.2 261.4,71.9 	"/>
	<polygon class="st1" points="177.1,66.9 177.1,137.1 205.2,138.8 205.2,68.5 	"/>
	<polygon class="st1" points="1245.3,131 1245.3,201.3 1273.4,203 1273.4,132.7 	"/>
	<polygon class="st1" points="64.7,60.1 64.7,130.4 92.8,132.1 92.8,61.8 	"/>
	<polygon class="st1" points="8.4,56.7 8.4,127 36.5,128.7 36.5,58.4 	"/>
	<polygon class="st1" points="120.9,63.5 120.9,133.8 149,135.4 149,65.2 	"/>
	<polygon class="st1" points="458.2,83.7 458.2,154 486.3,155.7 486.3,85.4 	"/>
	<polygon class="st1" points="514.4,87.1 514.4,157.4 542.5,159.1 542.5,88.8 	"/>
	<polygon class="st1" points="402,80.4 402,150.6 430.1,152.3 430.1,82.1 	"/>
	<polygon class="st1" points="345.8,77 345.8,147.3 373.9,149 373.9,78.7 	"/>
	<polygon class="st1" points="289.5,73.6 289.5,143.9 317.7,145.6 317.7,75.3 	"/>
	<polygon class="st1" points="1076.7,120.9 1076.7,191.2 1104.8,192.9 1104.8,122.6 	"/>
	<polygon class="st1" points="1582.7,151.3 1582.7,221.6 1610.8,223.2 1610.8,153 	"/>
	<polygon class="st1" points="1357.8,137.8 1357.8,208.1 1385.9,209.7 1385.9,139.5 	"/>
	<polygon class="st1" points="1695.1,158 1695.1,228.3 1723.2,230 1723.2,159.7 	"/>
	<polygon class="st1" points="1638.9,154.7 1638.9,224.9 1667,226.6 1667,156.3 	"/>
	<polygon class="st1" points="1414,141.1 1414,211.4 1442.1,213.1 1442.1,142.8 	"/>
	<polygon class="st1" points="1526.4,147.9 1526.4,218.2 1554.6,219.9 1554.6,149.6 	"/>
	<polygon class="st1" points="1807.6,164.8 1807.6,235.1 1835.7,236.8 1835.7,166.5 	"/>
	<polygon class="st1" points="1863.8,168.2 1863.8,238.4 1891.9,240.1 1891.9,169.9 	"/>
	<polygon class="st1" points="1751.3,161.4 1751.3,231.7 1779.4,233.4 1779.4,163.1 	"/>
	<polygon class="st1" points="1301.6,134.4 1301.6,204.7 1329.7,206.4 1329.7,136.1 	"/>
	<polygon class="st1" points="1470.2,144.5 1470.2,214.8 1498.3,216.5 1498.3,146.2 	"/>
	<polygon class="st0" points="1891.9,240.1 1920,241.8 1920,171.5 1891.9,169.9 	"/>
	<polygon class="st0" points="1835.7,166.5 1835.7,236.8 1863.8,238.4 1863.8,168.2 	"/>
	<polygon class="st0" points="1779.4,163.1 1779.4,233.4 1807.6,235.1 1807.6,164.8 	"/>
	<polygon class="st0" points="1723.2,159.7 1723.2,230 1751.3,231.7 1751.3,161.4 	"/>
	<polygon class="st0" points="1667,156.3 1667,226.6 1695.1,228.3 1695.1,158 	"/>
	<polygon class="st0" points="1610.8,153 1610.8,223.2 1638.9,224.9 1638.9,154.7 	"/>
	<polygon class="st0" points="1554.6,149.6 1554.6,219.9 1582.7,221.6 1582.7,151.3 	"/>
	<polygon class="st0" points="1498.3,146.2 1498.3,216.5 1526.4,218.2 1526.4,147.9 	"/>
	<polygon class="st0" points="1442.1,142.8 1442.1,213.1 1470.2,214.8 1470.2,144.5 	"/>
	<polygon class="st0" points="1385.9,139.5 1385.9,209.7 1414,211.4 1414,141.1 	"/>
	<polygon class="st0" points="1329.7,136.1 1329.7,206.4 1357.8,208.1 1357.8,137.8 	"/>
	<polygon class="st0" points="1273.4,132.7 1273.4,203 1301.6,204.7 1301.6,134.4 	"/>
	<polygon class="st0" points="1217.2,129.3 1217.2,199.6 1245.3,201.3 1245.3,131 	"/>
	<polygon class="st0" points="1161,126 1161,196.2 1189.1,197.9 1189.1,127.6 	"/>
	<polygon class="st0" points="1104.8,122.6 1104.8,192.9 1132.9,194.5 1132.9,124.3 	"/>
	<polygon class="st0" points="1048.6,119.2 1048.6,189.5 1076.7,191.2 1076.7,120.9 	"/>
	<polygon class="st0" points="992.3,115.8 992.3,186.1 1020.4,187.8 1020.4,117.5 	"/>
	<polygon class="st0" points="936.1,112.4 936.1,182.7 964.2,184.4 964.2,114.1 	"/>
	<polygon class="st0" points="879.9,109.1 879.9,179.3 908,181 908,110.8 	"/>
	<polygon class="st0" points="823.7,105.7 823.7,176 851.8,177.7 851.8,107.4 	"/>
	<polygon class="st0" points="767.4,102.3 767.4,172.6 795.5,174.3 795.5,104 	"/>
	<polygon class="st0" points="711.2,98.9 711.2,169.2 739.3,170.9 739.3,100.6 	"/>
	<polygon class="st0" points="655,95.6 655,165.8 683.1,167.5 683.1,97.3 	"/>
	<polygon class="st0" points="598.8,92.2 598.8,162.5 626.9,164.2 626.9,93.9 	"/>
	<polygon class="st0" points="542.5,88.8 542.5,159.1 570.7,160.8 570.7,90.5 	"/>
	<polygon class="st0" points="486.3,85.4 486.3,155.7 514.4,157.4 514.4,87.1 	"/>
	<polygon class="st0" points="430.1,82.1 430.1,152.3 458.2,154 458.2,83.7 	"/>
	<polygon class="st0" points="373.9,78.7 373.9,149 402,150.6 402,80.4 	"/>
	<polygon class="st0" points="317.7,75.3 317.7,145.6 345.8,147.3 345.8,77 	"/>
	<polygon class="st0" points="261.4,71.9 261.4,142.2 289.5,143.9 289.5,73.6 	"/>
	<polygon class="st0" points="205.2,68.5 205.2,138.8 233.3,140.5 233.3,70.2 	"/>
	<polygon class="st0" points="149,65.2 149,135.4 177.1,137.1 177.1,66.9 	"/>
	<polygon class="st0" points="92.8,61.8 92.8,132.1 120.9,133.8 120.9,63.5 	"/>
	<polygon class="st0" points="36.5,58.4 36.5,128.7 64.7,130.4 64.7,60.1 	"/>
	<polygon class="st0" points="0,56.2 0,126.5 8.4,127 8.4,56.7 	"/>
</g>
<path class="st2" d="M892,176.2l54.2-91.5c6.2-10.5,21.5-10.5,27.7,0l54.2,91.5c6.3,10.7-1.4,24.3-13.8,24.3H905.8
	C893.4,200.5,885.6,186.9,892,176.2z"/>
<path class="st3" d="M952.4,181.8c-2.1-2-3.1-4.4-3.1-7.3c0-2.8,1-5.2,3-7.1c2-1.9,4.6-2.9,7.8-2.9s5.7,1,7.8,2.9c2,1.9,3,4.3,3,7.1
	s-1,5.3-3.1,7.3s-4.6,3-7.7,3S954.4,183.8,952.4,181.8z M949.6,105.2h20.9l-3.5,51.4h-13.9L949.6,105.2z"/>
</svg>
