<?xml version="1.0" encoding="utf-8"?>
<!-- Generator: Adobe Illustrator 24.2.0, SVG Export Plug-In . SVG Version: 6.00 Build 0)  -->
<svg version="1.1" id="Layer_1" xmlns="http://www.w3.org/2000/svg" xmlns:xlink="http://www.w3.org/1999/xlink" x="0px" y="0px"
	 viewBox="0 0 200 105" style="enable-background:new 0 0 200 105;" xml:space="preserve">
<style type="text/css">
	.st0{fill:#1D3B4F;}
</style>
<g id="logotipo">
	<g>
		<path class="st0" d="M74.2,88.5c-5.4,4-11.9,6.8-18.2,8.9c-3.9,1.3-13.2,4.4-13.9-2.2c-0.4-3.3,1.7-6.7,3.5-9.2
			c2.2-3.1,5-5.9,8-8.3c3-2.5,6.3-4.6,9.8-6.3c3.1-1.5,7.4-3.3,10.9-2.3c6.8,1.8-0.2,12.3-4.3,13.4c-0.1,0-0.1,0-0.1,0c0,0,0,0,0,0
			c0,0,0,0,0,0c0,0,0,0,0-0.1c0,0-0.1-0.1-0.1-0.1c-0.1-0.3,0.1-0.5,0.3-0.7c0.1-0.1,0.2-0.2,0.3-0.3c0.3-0.2,0.6-0.4,0.9-0.4
			c0.1,0,0.2,0.1,0.2,0.2c1.2-0.8,2.1-2,2.9-3.2c1.2-1.8,3.2-5,1.3-6.9c-2.6-2.7-8.6-0.2-11.4,1c-5.9,2.6-11.2,6.6-15.5,11.3
			c-2.2,2.4-4.3,5.2-5.5,8.3c-0.7,1.8-1.1,4.2,0.4,5.7c1.1,1.1,2.6,1.3,4.1,1.3c4.8-0.2,9.7-2.3,14-4.2c4.1-1.8,8.4-3.8,12.1-6.5
			C74.4,87.4,74.6,88.3,74.2,88.5z"/>
		<path class="st0" d="M78.1,85.8c0.4,0,0.3,0.7,0,0.7c-0.7,0-1.4,0.2-2,0.6c-0.5,0.3-1.3,0.9-1.3,1.5c0,0.3,0.1,0.6,0.4,0.7
			c0.3,0.2,0.7,0.1,1-0.1c0.5-0.3,1-0.6,1.4-1.1c0.3-0.4,1-1.2,0.3-1.5c-0.5-0.2-1.4,0.3-1.8,0.7c-0.2,0.2-0.4,0.5-0.1,0.8
			c0.2,0.2,0.6,0.2,0.8,0.1c0.7-0.1,1.3-0.2,2-0.3c1.3-0.2,2.7-0.5,4-0.8c0.4-0.1,0.3,0.7,0,0.8c-1.1,0.3-2.3,0.6-3.5,0.7
			c-0.5,0.1-1.1,0.2-1.6,0.3C77,89,76.5,89.1,76,89c-0.8-0.1-1-1-0.7-1.7c0.3-0.7,1.2-1.2,1.9-1.4c0.7-0.2,1.6,0.2,1.5,1.1
			c-0.1,0.8-0.7,1.6-1.3,2.2c-0.5,0.5-1.4,1.2-2.2,1c-0.7-0.1-1-0.9-1-1.6C74.3,86.9,76.5,85.8,78.1,85.8z"/>
		<path class="st0" d="M82.8,86.7c0.3-0.3,0.5,0.3,0.3,0.5c-0.3,0.3-0.5,0.7-0.6,1.1c-0.1,0.3-0.1,0.5,0.2,0.2
			c0.1-0.1,0.2-0.2,0.3-0.4c0.5-0.6,1-1.1,1.7-1.5c0.4-0.3,1.1-0.8,1.7-0.8c0.6,0,0.8,0.9,0.8,1.4c0,0.5-0.2,1.9,0.4,2.1
			c0.3,0.1,0.8-0.1,1.1-0.2c1.3-0.5,2.4-1.2,3.5-2.1c0.4-0.3,0.5,0.4,0.3,0.6c-1,0.9-2.2,1.6-3.5,2.2c-0.7,0.3-1.5,0.7-2-0.1
			c-0.3-0.5-0.3-1.2-0.3-1.8c0-0.3,0.1-1.2-0.4-1.2c-0.3,0-0.7,0.3-0.9,0.4c-0.6,0.4-1.2,0.9-1.6,1.4c-0.3,0.3-0.8,1.1-1.3,1.1
			c-0.5,0-0.4-0.9-0.4-1.2C82,87.7,82.3,87.2,82.8,86.7z"/>
		<path class="st0" d="M93.3,85.6c0.4-0.1,0.3,0.7,0,0.8c-0.3,0.1-0.9,0.3-1,0.6c-0.1,0.3,0.4,0.6,0.7,0.6c0.4,0.1,0.8,0.1,1.3,0.2
			c0.4,0.1,0.8,0.2,1.1,0.4c0.7,0.4,0.4,1.1,0.1,1.6c-0.4,0.6-1,1-1.8,1.1c-0.3,0.1-0.3-0.4-0.2-0.5c0.5-1.1,1.7-1.7,2.8-2.2
			c1.2-0.5,2.5-0.9,3.7-1.2c0.4-0.1,0.3,0.7,0,0.8c-1.1,0.3-2.3,0.6-3.3,1.1c-0.5,0.2-1.1,0.5-1.6,0.8c-0.4,0.3-0.9,0.6-1.1,1.1
			c-0.1-0.2-0.1-0.4-0.2-0.5c0.4-0.1,0.8-0.3,1.1-0.6c0.1-0.1,0.3-0.3,0.4-0.5c0.1-0.2,0-0.2-0.2-0.3c-0.4-0.2-0.9-0.4-1.3-0.4
			c-0.4-0.1-0.8-0.1-1.2-0.3c-0.6-0.3-0.9-0.9-0.7-1.5C92.1,86.1,92.7,85.8,93.3,85.6z"/>
		<path class="st0" d="M111.1,87.7c-1.2,0.8-2.6,1.3-4,1.4c-0.4,0-0.9,0.1-1.3-0.2c-0.1-0.1-0.2-0.2-0.3-0.3c0-0.1,0-0.3,0-0.4
			c0,0,0-0.1,0-0.1c-0.8,0.4-1.5,0.9-2.3,1.4c-0.7,0.5-1.5,1-2.4,0.8c-1.2-0.2-1.3-1.5-0.9-2.5c-0.1,0-0.1-0.1-0.1-0.1
			c0-0.1,0-0.2,0-0.3c0,0,0-0.1,0.1-0.1c0,0,0-0.1,0.1-0.1c0.2-0.2,0.4-0.3,0.6-0.5c0,0,0,0,0.1,0c0.3-0.3,0.5,0.4,0.2,0.6
			c-0.4,0.4-0.7,1.3-0.5,1.9c0.3,0.8,1.2,0.5,1.8,0.3c1.2-0.6,2.2-1.7,3.6-2.1c0.1,0,0.3,0,0.3,0.1c0.1,0.3,0.1,0.5,0,0.7
			c-0.1,0.2-0.1,0.2,0.1,0.3c0.3,0.2,0.9,0.1,1.2,0c1.2-0.2,2.4-0.7,3.5-1.3C111.3,86.7,111.4,87.5,111.1,87.7z"/>
		<path class="st0" d="M117.3,74.9C117.3,74.9,117.3,74.9,117.3,74.9c-0.2-0.3,0.1-0.9,0.3-0.5c0,0,0,0,0,0c0.1,0.2,0.1,0.4-0.1,0.5
			c-0.1,0.1-0.2,0.1-0.3,0.1c-0.1,0-0.2-0.2-0.2-0.3c0-0.3,0.1-0.4,0.3-0.6c0.4-0.5,0.9-0.9,1.4-1.4c0.3-0.3,0.5,0.2,0.3,0.5
			c-0.7,1.5-1.5,2.9-2.2,4.3c-1.8,3.3-3.7,6.7-5.4,10c-0.3,0.5-0.6,1.1-0.8,1.6c-0.1,0.3-0.5,0.8-0.2,1c0.2,0.1,0.9-0.2,1-0.3
			c0.5-0.2,1-0.4,1.4-0.6c1-0.5,2-1.1,2.8-1.8c0.4-0.3,0.5,0.4,0.3,0.6c-1,0.9-2.2,1.6-3.5,2.2c-0.5,0.2-1.8,1-2.4,0.7
			c-0.9-0.5,0.1-2.2,0.4-2.8c0.8-1.7,1.7-3.4,2.6-5c1.8-3.4,3.8-6.7,5.5-10.2c0.1,0.1,0.2,0.3,0.3,0.5c-0.3,0.2-0.5,0.5-0.7,0.7
			c-0.1,0.1-0.7,0.6-0.7,0.6c-0.1-0.1-0.1-0.2-0.2-0.3c0,0-0.1,0-0.1,0C117.4,74.5,117.4,74.7,117.3,74.9L117.3,74.9z"/>
		<path class="st0" d="M121.6,80c-0.8,1.1-1.6,2.4-2.6,3.4c0.9,0,1.7,0,2.6,0c0.3,0,0.3,0.6,0,0.6c-0.7,0-1.4,0-2.1,0
			c-0.8,0.2-1.3,0.9-1.8,1.5c-0.2,0.3-0.4,0.6-0.5,0.8c-0.6,1.1-1.1,2.2-1.7,3.3c-2.3,4.5-4.6,9.1-6.7,13.7c0,0.1,0,0.3,0,0.4
			c-0.2,0.3-0.4,0.6-0.5,0.9c-0.2,0.4-0.6,0.1-0.4-0.3c1.1-2.7,2.5-5.3,3.7-7.9c2-4,3.9-8.2,6-12.2c0-0.1-0.1-0.2,0-0.3
			c-1.4,0-2.8,0-4.2,0c-0.3,0-0.2-0.6,0-0.6c1.6,0,3.1,0,4.7,0c1.3-2.5,2.6-4.9,4.1-7.3c0.3-0.5,0.8-1.6,1.4-1.8
			c0.7-0.3,0.8,0.4,0.6,1C123.7,77,122.5,78.7,121.6,80z M118.5,84c0,0-0.1,0-0.1,0c-0.1,0.1-0.1,0.2-0.2,0.3
			C118.3,84.2,118.4,84.1,118.5,84z M120.4,80.1c-0.4,0.7-0.7,1.4-1.1,2.1c0.9-1,1.6-2.1,2.3-3.1c0.2-0.3,2.2-4,2-4
			c-0.3,0-1.1,1.5-1.2,1.7C121.7,77.8,121,79,120.4,80.1z"/>
		<path class="st0" d="M123.3,85.8c0.4,0,0.3,0.7,0,0.7c-0.7,0-1.4,0.2-2,0.6c-0.5,0.3-1.3,0.9-1.3,1.5c0,0.3,0.1,0.6,0.4,0.7
			c0.3,0.2,0.7,0.1,1-0.1c0.5-0.3,1-0.6,1.4-1.1c0.3-0.4,1-1.2,0.3-1.5c-0.5-0.2-1.4,0.3-1.8,0.7c-0.2,0.2-0.4,0.5-0.1,0.8
			c0.2,0.2,0.6,0.2,0.8,0.1c0.7-0.1,1.3-0.2,2-0.3c1.3-0.2,2.7-0.5,4-0.8c0.4-0.1,0.3,0.7,0,0.8c-1.1,0.3-2.3,0.6-3.5,0.7
			c-0.5,0.1-1.1,0.2-1.6,0.3c-0.5,0.1-1,0.2-1.5,0.2c-0.8-0.1-1-1-0.7-1.7c0.3-0.7,1.2-1.2,1.9-1.4c0.7-0.2,1.6,0.2,1.5,1.1
			c-0.1,0.8-0.7,1.6-1.3,2.2c-0.5,0.5-1.4,1.2-2.2,1c-0.7-0.1-1-0.9-1-1.6C119.5,86.9,121.7,85.8,123.3,85.8z"/>
		<path class="st0" d="M135.2,88.2c-1.3,1.4-3.2,2.5-5.2,2.9c-0.5,0.1-1.2,0.2-1.7-0.2c-0.3-0.2-0.4-0.6-0.3-1
			c0.1-0.3,0.2-0.5,0.3-0.7c0.1-0.1,0.2-0.2,0.3-0.3c-0.5-0.1-1-0.3-1.2-0.7c-0.3,0.1-0.6,0.2-0.9,0.2c-0.3,0.1-0.2-0.5,0-0.6
			c0.3-0.1,0.6-0.2,0.9-0.4c0-0.4,0.2-0.7,0.5-1c0.3-0.3,0.7-0.6,1-0.5c0.4,0,0.5,0.4,0.5,0.8c-0.1,0.4-0.3,0.7-0.6,0.9
			c-0.2,0.1-0.4,0.2-0.7,0.3c0.3,0.2,0.8,0.3,1.1,0.2c0.2,0,0.3,0.3,0.3,0.5c-0.1,0.5-0.5,0.8-0.7,1.2c-0.2,0.3-0.1,0.4,0.1,0.6
			c0.5,0.2,1.1,0.1,1.6-0.1c1.7-0.4,3.2-1.4,4.4-2.6c0.1-0.1,0.3-0.1,0.4,0.1C135.5,87.8,135.4,88.1,135.2,88.2z M128,87.1
			c0.2-0.1,0.4-0.2,0.6-0.3c0.4-0.3-0.2,0-0.3,0C128.2,86.9,128.1,87,128,87.1z"/>
		<path class="st0" d="M142,87.6c-1.1,0.8-2.4,1.5-3.7,1.9c-0.9,0.3-1.9,0.6-2.8,0.5c-0.3,0-0.5-0.2-0.6-0.4c-0.2-0.4-0.1-1,0.1-1.4
			c0.1-0.2,0.2-0.5,0.3-0.7c0,0-0.1,0.1-0.1,0.1c-0.4,0.3-0.5-0.4-0.2-0.6c0.6-0.5,1.2-1,1.7-1.6c0.3-0.4,0.6,0.2,0.4,0.5
			c-0.6,0.8-1.3,1.8-1.6,2.8c0,0.1-0.1,0.2-0.1,0.3c0,0,0,0.1,0,0.1c0,0,0,0,0,0.1c0,0,0.1,0.1,0,0c0.1,0.1,0,0.1,0.2,0.1
			c0.2,0,0.4,0,0.6,0c0.9-0.1,1.9-0.4,2.7-0.7c1-0.4,2-0.9,2.9-1.6C142.1,86.7,142.2,87.4,142,87.6z M140.7,80
			c-0.1,0-0.1-0.1-0.1-0.2c0-0.1,0-0.2,0-0.3c0-0.1,0.1-0.2,0.2-0.2c0.3-0.2,0.6-0.3,0.9-0.3c0.2,0,0.3,0.2,0.3,0.3
			c0,0.2-0.1,0.4-0.3,0.4c-0.1,0-0.2,0-0.3,0.1c-0.2,0.1-0.3,0.1-0.4,0.2C140.8,80,140.7,80,140.7,80z"/>
		<path class="st0" d="M144.3,86.3c0.4,0,0.3,0.7,0,0.7c-1.2,0.1-2.3,0.4-3,1.4c-0.3,0.4-0.6,1.2-0.3,1.6c0.4,0.5,1-0.1,1.3-0.4
			c0.9-1,1.6-2.4,2.1-3.6c0.1,0.1,0.3,0.3,0.4,0.4c-0.5,0.7-1.3,2.4-0.3,3.1c0.6,0.4,1.4,0.2,2,0c1.3-0.5,2.5-1.3,3.6-2.2
			c0.4-0.3,0.5,0.4,0.3,0.6c-1.1,0.9-2.3,1.8-3.7,2.3c-1.1,0.4-2.5,0.5-3-0.7c-0.5-1.2,0.1-2.6,0.8-3.5c0.3-0.4,0.6,0.1,0.4,0.4
			c-0.4,0.8-0.8,1.6-1.3,2.4c-0.5,0.8-1.2,2.1-2.2,2.3c-1.6,0.3-1.1-2-0.7-2.8C141.5,86.8,142.9,86.3,144.3,86.3z"/>
	</g>
	<g>
		<path class="st0" d="M18.8,55.5c0,2.5-0.9,4.3-2.8,5.5c-1.7,1.1-4.1,1.6-7.4,1.6H3.8v9.1l1.8,1.1H0l1.8-1.1V49.6L0,48.5h8.6
			c3.3,0,5.7,0.5,7.4,1.6C17.9,51.3,18.8,53.1,18.8,55.5z M16.8,55.5c0-4.9-3.7-6.3-8.2-6.3H3.8v12.7h4.7
			C13.1,61.9,16.8,60.4,16.8,55.5z"/>
		<path class="st0" d="M43.2,72.8h-3.8l-8.8-10.9c-0.3,0-0.6,0-0.8,0H25v9.8l1.8,1.1h-5.6l1.8-1.1V49.6l-1.8-1.1h8.6
			c3.3,0,5.7,0.5,7.4,1.5c1.9,1.1,2.8,2.9,2.8,5.2c0,2.4-0.9,4.1-2.8,5.2c-1.1,0.7-2.4,1.1-4.1,1.3l7.8,9.7L43.2,72.8z M32.4,61
			c3.5-0.5,5.5-2.1,5.5-5.8c0-4.7-3.2-6-8.2-6H25v12h4.7c0.3,0,0.5,0,0.8,0l1.3-1L32.4,61z"/>
		<path class="st0" d="M49.1,71.7l1.8,1.1h-5.6l1.8-1.1V49.6l-1.8-1.1h5.6l-1.8,1.1V71.7z"/>
		<path class="st0" d="M76.4,49.6L66.5,72l0.4,0.8h-2.2l-10.1-23l-2.1-1.3h5.6l-1.5,0.9l9.5,21.7l9.5-21.5l-1.7-1.1h4.3L76.4,49.6z"
			/>
		<path class="st0" d="M100.8,72.8h-5.6l1.5-0.9l-3.2-7.2H80.8l-3.1,7l1.7,1.1h-4.3l1.8-1.1l9.8-22.4l-0.3-0.8h2.2l10.1,23
			L100.8,72.8z M93.2,64l-6.1-13.8L81.1,64H93.2z"/>
		<path class="st0" d="M121.9,69.2l-1.4,3L119,72c-1.9,0.8-3.8,1.2-5.9,1.2c-7.1,0-13-5.6-13-12.5s5.8-12.5,13-12.5
			c1.9,0,3.6,0.5,4.8,1l1.1-0.3l0.8,2.7c0,0-2.9-2.8-6.8-2.8c-6.7,0-10.8,5.3-10.8,11.8s4.1,11.8,10.8,11.8
			C118.4,72.5,121.9,69.2,121.9,69.2z"/>
		<path class="st0" d="M133.6,60.9v10.8l1.8,1.1h-5.6l1.8-1.1V61L124,49.6l-1.8-1.1h5.6l-1.5,0.9l7,10.5l6.9-10.4l-1.7-1.1h4.3
			l-1.7,1L133.6,60.9z"/>
		<path class="st0" d="M178.3,48.5l-1.8,1.1v16.2c0,3.6-2.3,7.2-9.1,7.2c-6.7,0-9.1-3.6-9.1-7.2V49.6l-1.8-1.1h5.6l-1.8,1.1v16.2
			c0,3.2,2.3,6.1,7,6.1c6,0,8.4-2.9,8.4-6.1V49.6l-1.8-1.1H178.3z"/>
		<path class="st0" d="M200,55.5c0,2.5-0.9,4.3-2.8,5.5c-1.7,1.1-4.1,1.6-7.4,1.6H185v9.1l1.8,1.1h-5.6l1.8-1.1V49.6l-1.8-1.1h8.6
			c3.3,0,5.7,0.5,7.4,1.6C199.1,51.3,200,53.1,200,55.5z M197.9,55.5c0-4.9-3.7-6.3-8.2-6.3H185v12.7h4.7
			C194.3,61.9,197.9,60.4,197.9,55.5z"/>
	</g>
	<g>
		<path class="st0" d="M105.7,23.5v3.6c0,12.7-19.3,12.7-19.3,0V14c0-0.8-1.2-0.8-1.2,0v13.1c0,14.4,21.7,14.4,21.7,0v-3.7
			C106.9,22.6,105.7,22.6,105.7,23.5z M97.9,31l-1.1-2.9c0.3-0.2,0.4-0.5,0.4-0.8c0-0.6-0.5-1.1-1.1-1.1c-0.6,0-1.1,0.5-1.1,1.1
			c0,0.4,0.2,0.6,0.4,0.8L94.3,31H97.9z M113.8,17.7h-6.9v-8c0-6.4-3.6-9.6-8-9.6c-4.3,0-8.5,3.2-8.5,9.6v8.5c0,0.3,0.3,0.6,0.6,0.6
			h22.8C114.7,18.9,114.7,17.7,113.8,17.7z M105.7,17.7H91.6v-8c0-5.2,3.7-8.2,7.4-8.3c3.4-0.1,6.8,2.4,6.8,8.3V17.7z"/>
	</g>
</g>
</svg>
