<?xml version="1.0" encoding="utf-8"?>
<!-- Generator: Adobe Illustrator 24.2.0, SVG Export Plug-In . SVG Version: 6.00 Build 0)  -->
<svg version="1.1" id="logotipo" xmlns="http://www.w3.org/2000/svg" xmlns:xlink="http://www.w3.org/1999/xlink" x="0px" y="0px"
	 viewBox="0 0 250 175" style="enable-background:new 0 0 250 175;" xml:space="preserve">
<style type="text/css">
	.st0{fill:#462F1E;}
	.st1{fill:#2C3A8E;}
	.st2{fill:url(#SVGID_1_);}
	.st3{fill:#F1F1F1;}
</style>
<g id="corretora_de_seguros_1_">
	<path class="st0" d="M19.2,172.6c-1.2,0-2.1-0.2-2.8-0.7c-0.6-0.5-1.1-1.2-1.3-2.2s-0.3-2.1-0.3-3.5v-8c0-0.8,0.1-1.6,0.2-2.4
		c0.1-0.7,0.3-1.4,0.6-1.9c0.3-0.5,0.7-1,1.3-1.3s1.4-0.5,2.4-0.5c1,0,1.8,0.2,2.4,0.5c0.6,0.3,1,0.8,1.2,1.3c0.3,0.6,0.4,1.2,0.5,2
		c0.1,0.7,0.1,1.6,0.1,2.4v1.7h-2.1v-1.9c0-1.5-0.1-2.6-0.4-3.4c-0.2-0.8-0.8-1.2-1.7-1.2c-0.9,0-1.6,0.4-1.9,1.2s-0.5,1.9-0.5,3.4
		v8c0,1.2,0.1,2.2,0.2,3c0.1,0.7,0.3,1.3,0.7,1.6c0.3,0.3,0.8,0.5,1.4,0.5c0.9,0,1.5-0.4,1.8-1.2c0.3-0.8,0.4-2.1,0.4-3.9v-1.6h2.1
		v1.6c0,1.4-0.1,2.6-0.3,3.5c-0.2,1-0.6,1.7-1.2,2.2C21.3,172.4,20.4,172.6,19.2,172.6z"/>
	<path class="st0" d="M31.4,172.6c-1.2,0-2.1-0.2-2.7-0.7c-0.6-0.4-1.1-1.1-1.3-2c-0.2-0.9-0.3-2.1-0.3-3.4V158c0-1.1,0.1-2.2,0.3-3
		c0.2-0.9,0.6-1.6,1.2-2.1c0.6-0.5,1.6-0.7,2.9-0.7c1,0,1.8,0.1,2.3,0.4c0.6,0.3,1,0.7,1.3,1.2c0.3,0.5,0.4,1.1,0.5,1.8
		c0.1,0.7,0.1,1.5,0.1,2.4v8.5c0,1.4-0.1,2.5-0.3,3.4c-0.2,0.9-0.6,1.6-1.3,2C33.5,172.4,32.6,172.6,31.4,172.6z M31.4,171.3
		c0.6,0,1.1-0.1,1.4-0.4c0.3-0.3,0.5-0.8,0.7-1.5c0.1-0.7,0.2-1.6,0.2-2.9v-8.6c0-1.5-0.1-2.6-0.4-3.3c-0.3-0.7-0.8-1-1.7-1
		c-0.9,0-1.6,0.3-1.9,1c-0.3,0.7-0.5,1.8-0.5,3.3v8.6c0,1.2,0.1,2.2,0.2,2.9c0.1,0.7,0.3,1.2,0.7,1.5
		C30.3,171.1,30.8,171.3,31.4,171.3z"/>
	<path class="st0" d="M40,172.4v-20h4.2c1.3,0,2.3,0.2,2.9,0.5c0.6,0.3,1,0.9,1.2,1.6c0.2,0.7,0.3,1.7,0.3,2.8
		c0,1.3-0.2,2.3-0.5,3.1c-0.3,0.8-0.9,1.3-1.8,1.5c0.5,0.1,0.9,0.2,1.2,0.5c0.3,0.3,0.5,0.7,0.7,1.4s0.3,1.5,0.3,2.6
		c0.1,1.1,0.1,2.5,0.1,4.2c0,0.2,0,0.3,0,0.5c0,0.1,0,0.3,0,0.4c0,0.1,0,0.2,0,0.3c0,0.1,0.1,0.2,0.1,0.3s0.1,0.2,0.2,0.4h-2.1
		c-0.1-0.1-0.1-0.2-0.1-0.3s-0.1-0.3-0.1-0.6c0-0.2,0-0.6,0-1s0-1,0-1.7s0-1.6,0-2.7c0-0.9,0-1.6-0.1-2.1s-0.2-0.8-0.5-1
		c-0.3-0.2-0.8-0.3-1.6-0.3l-2.2-0.1v9.8H40z M42.1,161.4h2.2c0.6,0,1.1-0.1,1.4-0.3c0.3-0.2,0.5-0.5,0.7-1.1
		c0.1-0.6,0.2-1.5,0.2-2.6v-0.1c0-1-0.1-1.7-0.2-2.2c-0.1-0.5-0.3-0.8-0.6-1c-0.3-0.2-0.7-0.2-1.3-0.2h-2.3V161.4z"/>
	<path class="st0" d="M52.6,172.4v-20h4.2c1.3,0,2.3,0.2,2.9,0.5c0.6,0.3,1,0.9,1.2,1.6c0.2,0.7,0.3,1.7,0.3,2.8
		c0,1.3-0.2,2.3-0.5,3.1c-0.3,0.8-0.9,1.3-1.8,1.5c0.5,0.1,0.9,0.2,1.2,0.5c0.3,0.3,0.5,0.7,0.7,1.4s0.3,1.5,0.3,2.6
		c0.1,1.1,0.1,2.5,0.1,4.2c0,0.2,0,0.3,0,0.5c0,0.1,0,0.3,0,0.4c0,0.1,0,0.2,0,0.3c0,0.1,0.1,0.2,0.1,0.3s0.1,0.2,0.2,0.4h-2.1
		c-0.1-0.1-0.1-0.2-0.1-0.3s-0.1-0.3-0.1-0.6c0-0.2,0-0.6,0-1s0-1,0-1.7s0-1.6,0-2.7c0-0.9,0-1.6-0.1-2.1s-0.2-0.8-0.5-1
		c-0.3-0.2-0.8-0.3-1.6-0.3l-2.2-0.1v9.8H52.6z M54.7,161.4h2.2c0.6,0,1.1-0.1,1.4-0.3c0.3-0.2,0.5-0.5,0.7-1.1
		c0.1-0.6,0.2-1.5,0.2-2.6v-0.1c0-1-0.1-1.7-0.2-2.2c-0.1-0.5-0.3-0.8-0.6-1c-0.3-0.2-0.7-0.2-1.3-0.2h-2.3V161.4z"/>
	<path class="st0" d="M65.3,172.4v-20h6.5v1.3h-4.4v7.8h4.2v1.4h-4.2v8.1h4.4v1.3H65.3z"/>
	<path class="st0" d="M75.9,172.4v-18.7h-2.6v-1.3h7v1.3H78v18.7H75.9z"/>
	<path class="st0" d="M86.9,172.6c-1.2,0-2.1-0.2-2.7-0.7c-0.6-0.4-1.1-1.1-1.3-2c-0.2-0.9-0.3-2.1-0.3-3.4V158c0-1.1,0.1-2.2,0.3-3
		c0.2-0.9,0.6-1.6,1.2-2.1c0.6-0.5,1.6-0.7,2.9-0.7c1,0,1.8,0.1,2.3,0.4c0.6,0.3,1,0.7,1.3,1.2c0.3,0.5,0.4,1.1,0.5,1.8
		c0.1,0.7,0.1,1.5,0.1,2.4v8.5c0,1.4-0.1,2.5-0.3,3.4c-0.2,0.9-0.6,1.6-1.3,2C89,172.4,88.1,172.6,86.9,172.6z M86.9,171.3
		c0.6,0,1.1-0.1,1.4-0.4c0.3-0.3,0.5-0.8,0.7-1.5c0.1-0.7,0.2-1.6,0.2-2.9v-8.6c0-1.5-0.1-2.6-0.4-3.3c-0.3-0.7-0.8-1-1.7-1
		c-0.9,0-1.6,0.3-1.9,1c-0.3,0.7-0.5,1.8-0.5,3.3v8.6c0,1.2,0.1,2.2,0.2,2.9c0.1,0.7,0.3,1.2,0.7,1.5
		C85.8,171.1,86.3,171.3,86.9,171.3z"/>
	<path class="st0" d="M95.5,172.4v-20h4.2c1.3,0,2.3,0.2,2.9,0.5c0.6,0.3,1,0.9,1.2,1.6c0.2,0.7,0.3,1.7,0.3,2.8
		c0,1.3-0.2,2.3-0.5,3.1c-0.3,0.8-0.9,1.3-1.8,1.5c0.5,0.1,0.9,0.2,1.2,0.5c0.3,0.3,0.5,0.7,0.7,1.4s0.3,1.5,0.3,2.6
		c0.1,1.1,0.1,2.5,0.1,4.2c0,0.2,0,0.3,0,0.5c0,0.1,0,0.3,0,0.4c0,0.1,0,0.2,0,0.3c0,0.1,0.1,0.2,0.1,0.3s0.1,0.2,0.2,0.4h-2.1
		c-0.1-0.1-0.1-0.2-0.1-0.3s-0.1-0.3-0.1-0.6c0-0.2,0-0.6,0-1s0-1,0-1.7s0-1.6,0-2.7c0-0.9,0-1.6-0.1-2.1s-0.2-0.8-0.5-1
		c-0.3-0.2-0.8-0.3-1.6-0.3l-2.2-0.1v9.8H95.5z M97.6,161.4h2.2c0.6,0,1.1-0.1,1.4-0.3c0.3-0.2,0.5-0.5,0.7-1.1
		c0.1-0.6,0.2-1.5,0.2-2.6v-0.1c0-1-0.1-1.7-0.2-2.2c-0.1-0.5-0.3-0.8-0.6-1c-0.3-0.2-0.7-0.2-1.3-0.2h-2.3V161.4z"/>
	<path class="st0" d="M106.3,172.4l4-20h2.1l4.4,20h-2l-0.8-4.1h-5l-0.7,4.1H106.3z M109.3,167h4.4l-2.3-11.4h0L109.3,167z"/>
	<path class="st0" d="M126.1,172.4v-20h3.8c1.3,0,2.4,0.2,3,0.7c0.7,0.5,1.1,1.1,1.4,2c0.2,0.9,0.4,1.9,0.4,3v8.6
		c0,1.4-0.2,2.5-0.5,3.3c-0.3,0.8-0.8,1.4-1.5,1.8s-1.7,0.6-2.9,0.6H126.1z M128.2,171h1.7c0.6,0,1.1-0.1,1.5-0.3
		c0.4-0.2,0.7-0.7,0.9-1.3c0.2-0.6,0.3-1.6,0.3-2.8V158c0-1.5-0.2-2.5-0.6-3.2c-0.4-0.6-1.1-0.9-1.9-0.9h-1.9V171z"/>
	<path class="st0" d="M139,172.4v-20h6.5v1.3h-4.4v7.8h4.2v1.4h-4.2v8.1h4.4v1.3H139z"/>
	<path class="st0" d="M159,172.6c-1,0-1.8-0.2-2.3-0.5c-0.6-0.3-1-0.8-1.3-1.3s-0.5-1.2-0.5-2c-0.1-0.7-0.1-1.5-0.1-2.4v-2.1h2.1v2
		c0,1.7,0.2,2.9,0.5,3.7s0.9,1.1,1.9,1.1c0.7,0,1.2-0.1,1.5-0.4c0.3-0.3,0.5-0.7,0.6-1.3c0.1-0.6,0.1-1.3,0.1-2.3
		c0-1-0.2-1.9-0.5-2.5c-0.3-0.6-0.9-1.2-1.7-1.8l-1.5-1.1c-0.5-0.3-0.9-0.7-1.4-1.2c-0.5-0.4-0.9-1-1.2-1.5c-0.3-0.6-0.5-1.3-0.5-2
		c0-1,0.1-1.8,0.3-2.6s0.6-1.3,1.3-1.8c0.6-0.4,1.6-0.6,2.8-0.6c1,0,1.8,0.2,2.4,0.5c0.6,0.3,1,0.8,1.2,1.3c0.2,0.6,0.4,1.2,0.5,2
		c0.1,0.7,0.1,1.5,0.1,2.4v1.1h-1.9v-1.2c0-1.2-0.1-2.2-0.2-2.8c-0.1-0.7-0.4-1.1-0.7-1.4c-0.3-0.3-0.8-0.4-1.3-0.4
		c-0.5,0-1,0.1-1.3,0.3c-0.3,0.2-0.6,0.5-0.7,1c-0.2,0.5-0.2,1.1-0.2,2c0,0.6,0.1,1.1,0.3,1.5c0.2,0.4,0.5,0.7,0.8,1.1
		s0.8,0.7,1.4,1.1l1.4,1.1c0.9,0.7,1.7,1.6,2.2,2.5c0.5,0.9,0.8,2,0.8,3.3c0,1-0.1,1.9-0.3,2.7s-0.6,1.4-1.3,1.8
		C161.2,172.4,160.2,172.6,159,172.6z"/>
	<path class="st0" d="M166.7,172.4v-20h6.5v1.3h-4.4v7.8h4.2v1.4h-4.2v8.1h4.4v1.3H166.7z"/>
	<path class="st0" d="M180.3,172.6c-1.4,0-2.4-0.5-3-1.5c-0.6-1-1-2.6-1-4.8v-8.1c0-0.9,0.1-1.7,0.2-2.4c0.1-0.7,0.3-1.4,0.6-1.9
		c0.3-0.6,0.8-1,1.4-1.3c0.6-0.3,1.4-0.5,2.4-0.5c1,0,1.7,0.2,2.3,0.5c0.6,0.3,1,0.7,1.2,1.3s0.4,1.2,0.5,1.9s0.1,1.5,0.1,2.4v1.7
		h-2.1v-3.1c0-1-0.1-1.8-0.4-2.4s-0.8-0.8-1.7-0.8c-0.9,0-1.5,0.3-1.8,1c-0.3,0.7-0.5,1.8-0.5,3.5v8.1c0,1.8,0.1,3.1,0.4,3.9
		s0.9,1.2,1.8,1.2c0.9,0,1.5-0.4,1.8-1.2s0.4-2,0.4-3.8v-2.5h-2.1v-1.4h4.2v10.1h-1.4l-0.2-1.2c-0.3,0.4-0.7,0.8-1.2,1
		C181.7,172.5,181.1,172.6,180.3,172.6z"/>
	<path class="st0" d="M193.4,172.6c-1.2,0-2.1-0.2-2.7-0.6c-0.6-0.4-1.1-1-1.3-1.8c-0.2-0.8-0.4-1.8-0.4-3v-14.8h2.1v14.8
		c0,0.9,0,1.6,0.1,2.2c0.1,0.6,0.3,1.1,0.6,1.4c0.3,0.3,0.9,0.5,1.6,0.5c0.7,0,1.3-0.2,1.6-0.5c0.3-0.3,0.5-0.8,0.6-1.4
		c0.1-0.6,0.1-1.3,0.1-2.2v-14.8h2.1v14.8c0,1.2-0.1,2.2-0.4,3c-0.2,0.8-0.7,1.4-1.3,1.8C195.5,172.4,194.6,172.6,193.4,172.6z"/>
	<path class="st0" d="M202.2,172.4v-20h4.2c1.3,0,2.3,0.2,2.9,0.5c0.6,0.3,1,0.9,1.2,1.6c0.2,0.7,0.3,1.7,0.3,2.8
		c0,1.3-0.2,2.3-0.5,3.1c-0.3,0.8-0.9,1.3-1.8,1.5c0.5,0.1,0.9,0.2,1.2,0.5c0.3,0.3,0.5,0.7,0.7,1.4c0.2,0.6,0.3,1.5,0.3,2.6
		c0.1,1.1,0.1,2.5,0.1,4.2c0,0.2,0,0.3,0,0.5c0,0.1,0,0.3,0,0.4c0,0.1,0,0.2,0,0.3c0,0.1,0.1,0.2,0.1,0.3c0,0.1,0.1,0.2,0.2,0.4H209
		c-0.1-0.1-0.1-0.2-0.1-0.3c0-0.1-0.1-0.3-0.1-0.6c0-0.2,0-0.6,0-1c0-0.4,0-1,0-1.7s0-1.6,0-2.7c0-0.9,0-1.6-0.1-2.1
		c-0.1-0.5-0.2-0.8-0.5-1c-0.3-0.2-0.8-0.3-1.6-0.3l-2.2-0.1v9.8H202.2z M204.3,161.4h2.2c0.6,0,1.1-0.1,1.4-0.3
		c0.3-0.2,0.5-0.5,0.7-1.1c0.1-0.6,0.2-1.5,0.2-2.6v-0.1c0-1-0.1-1.7-0.2-2.2c-0.1-0.5-0.3-0.8-0.6-1c-0.3-0.2-0.7-0.2-1.3-0.2h-2.3
		V161.4z"/>
	<path class="st0" d="M218.8,172.6c-1.2,0-2.1-0.2-2.7-0.7c-0.6-0.4-1.1-1.1-1.3-2c-0.2-0.9-0.3-2.1-0.3-3.4V158
		c0-1.1,0.1-2.2,0.3-3c0.2-0.9,0.6-1.6,1.2-2.1c0.6-0.5,1.6-0.7,2.9-0.7c1,0,1.8,0.1,2.3,0.4c0.6,0.3,1,0.7,1.3,1.2
		c0.3,0.5,0.4,1.1,0.5,1.8s0.1,1.5,0.1,2.4v8.5c0,1.4-0.1,2.5-0.3,3.4c-0.2,0.9-0.6,1.6-1.3,2C220.9,172.4,220,172.6,218.8,172.6z
		 M218.8,171.3c0.6,0,1.1-0.1,1.4-0.4c0.3-0.3,0.5-0.8,0.7-1.5s0.2-1.6,0.2-2.9v-8.6c0-1.5-0.1-2.6-0.4-3.3s-0.8-1-1.7-1
		c-0.9,0-1.6,0.3-1.9,1c-0.3,0.7-0.5,1.8-0.5,3.3v8.6c0,1.2,0.1,2.2,0.2,2.9s0.3,1.2,0.7,1.5C217.7,171.1,218.2,171.3,218.8,171.3z"
		/>
	<path class="st0" d="M230.8,172.6c-1,0-1.8-0.2-2.3-0.5c-0.6-0.3-1-0.8-1.3-1.3s-0.5-1.2-0.5-2c-0.1-0.7-0.1-1.5-0.1-2.4v-2.1h2.1
		v2c0,1.7,0.2,2.9,0.5,3.7s0.9,1.1,1.9,1.1c0.7,0,1.2-0.1,1.5-0.4c0.3-0.3,0.5-0.7,0.6-1.3c0.1-0.6,0.1-1.3,0.1-2.3
		c0-1-0.2-1.9-0.5-2.5c-0.3-0.6-0.9-1.2-1.7-1.8l-1.5-1.1c-0.5-0.3-0.9-0.7-1.4-1.2c-0.5-0.4-0.9-1-1.2-1.5c-0.3-0.6-0.5-1.3-0.5-2
		c0-1,0.1-1.8,0.3-2.6s0.6-1.3,1.3-1.8c0.6-0.4,1.6-0.6,2.8-0.6c1,0,1.8,0.2,2.4,0.5c0.6,0.3,1,0.8,1.2,1.3c0.2,0.6,0.4,1.2,0.5,2
		c0.1,0.7,0.1,1.5,0.1,2.4v1.1h-1.9v-1.2c0-1.2-0.1-2.2-0.2-2.8c-0.1-0.7-0.4-1.1-0.7-1.4c-0.3-0.3-0.8-0.4-1.3-0.4
		c-0.5,0-1,0.1-1.3,0.3c-0.3,0.2-0.6,0.5-0.7,1c-0.2,0.5-0.2,1.1-0.2,2c0,0.6,0.1,1.1,0.3,1.5c0.2,0.4,0.5,0.7,0.8,1.1
		s0.8,0.7,1.4,1.1l1.4,1.1c0.9,0.7,1.7,1.6,2.2,2.5c0.5,0.9,0.8,2,0.8,3.3c0,1-0.1,1.9-0.3,2.7s-0.6,1.4-1.3,1.8
		C233,172.4,232.1,172.6,230.8,172.6z"/>
</g>
<g id="vórtice_1_">
	<path class="st1" d="M25.1,142.4l-10.3-60h9.6l4.3,27.1l2.7,19.1h0.3l2.3-19.1l3.6-27.1H47l-9.5,60H25.1z"/>
	<path class="st1" d="M67.3,143.1c-3.4,0-6.3-0.7-8.4-2c-2.2-1.3-3.8-3.3-4.8-5.9c-1-2.6-1.5-5.8-1.5-9.6V98.2
		c0-3.5,0.5-6.4,1.5-8.9c1-2.5,2.6-4.3,4.8-5.7c2.2-1.3,5.1-2,8.6-2c2.7,0,4.9,0.4,6.7,1.1c1.8,0.7,3.3,1.8,4.4,3.3
		c1.1,1.4,2,3.1,2.5,5.2c0.5,2,0.8,4.3,0.8,6.9v27.4c0,3.8-0.5,7-1.5,9.6c-1,2.6-2.6,4.5-4.7,5.9C73.6,142.4,70.8,143.1,67.3,143.1z
		 M61.7,77.6l3.5-14.1h10l-7.7,14.1H61.7z M67.3,135.2c1.3,0,2.2-0.3,2.8-1c0.6-0.7,1-1.7,1.3-3.1c0.2-1.4,0.3-3.2,0.3-5.3v-28
		c0-2.6-0.3-4.6-0.8-6.1c-0.5-1.4-1.7-2.1-3.5-2.1c-1.8,0-3.1,0.7-3.7,2.1c-0.7,1.4-1,3.4-1,6.1v28c0,2.2,0.1,4,0.3,5.4
		c0.2,1.4,0.7,2.4,1.3,3.1C65.1,134.8,66,135.2,67.3,135.2z"/>
	<path class="st1" d="M91.1,142.4v-60h16.7c3.5,0,6.1,0.6,7.8,1.8c1.7,1.2,2.8,3,3.4,5.4c0.5,2.4,0.8,5.2,0.8,8.7
		c0,3.5-0.4,6.3-1.2,8.3c-0.8,2-2.4,3.4-4.8,4c1.2,0.2,2.1,0.6,2.9,1.3c0.8,0.7,1.4,1.6,1.9,2.9c0.5,1.3,0.8,2.9,1,4.9
		c0.2,2,0.3,4.5,0.3,7.4c0,0.2,0,0.9,0,1.9c0,1,0,2.3,0,3.7c0,1.4,0,2.8,0.1,4.2c0,1.4,0.1,2.6,0.1,3.6c0.1,1,0.1,1.6,0.2,1.8h-10.1
		c-0.1-0.1-0.1-0.7-0.2-1.8c0-1.1-0.1-2.4-0.1-4c0-1.6-0.1-3.4-0.1-5.3c0-1.9,0-3.7,0-5.6c0-1.8,0-3.4,0-4.9c0-1.8-0.1-3.2-0.4-4.1
		c-0.3-0.9-0.8-1.6-1.6-1.9c-0.8-0.4-1.9-0.6-3.3-0.6l-3.2-0.2v28.3H91.1z M101.2,107h4c1.2,0,2.2-0.2,2.8-0.7
		c0.6-0.5,1.1-1.4,1.3-2.8c0.2-1.3,0.4-3.3,0.4-5.8v-0.4c0-2.1-0.1-3.7-0.3-4.9c-0.2-1.1-0.7-1.9-1.4-2.4c-0.7-0.4-1.8-0.6-3.3-0.6
		h-3.4V107z"/>
	<path class="st1" d="M131.9,142.4V90.3h-7.8v-7.9h25.3v7.9H142v52.1H131.9z"/>
	<path class="st1" d="M155.3,142.4v-60h10.1v60H155.3z"/>
	<path class="st1" d="M189.2,143.1c-3.2,0-5.9-0.7-8-2c-2.1-1.3-3.7-3.3-4.8-5.9c-1.1-2.6-1.6-5.7-1.6-9.4V99.7
		c0-2.8,0.3-5.2,0.8-7.4c0.5-2.2,1.3-4.1,2.5-5.7s2.6-2.8,4.5-3.6c1.9-0.8,4.2-1.3,7-1.3c2.5,0,4.7,0.4,6.4,1.1
		c1.8,0.7,3.2,1.8,4.3,3.2c1.1,1.4,1.9,3.1,2.5,5c0.5,2,0.8,4.2,0.8,6.6v8.3h-9.8v-7.7c0-3-0.3-5.1-0.8-6.5
		c-0.6-1.4-1.7-2.1-3.3-2.1c-1.8,0-3.1,0.8-3.7,2.3c-0.6,1.5-0.9,3.6-0.9,6.3v28c0,2.1,0.1,3.8,0.4,5.1s0.7,2.3,1.3,2.9
		c0.6,0.6,1.5,0.9,2.6,0.9c1.7,0,2.9-0.7,3.5-2.2c0.6-1.5,0.9-3.8,0.9-6.9v-8.6h9.9v8.5c0,3.8-0.5,7-1.5,9.5c-1,2.5-2.5,4.4-4.7,5.7
		S192.6,143.1,189.2,143.1z"/>
	<path class="st1" d="M212.1,142.4v-60h22.2v7.9h-12.1v17.5h11.5v7.7h-11.5v19.1h12.6v7.9H212.1z"/>
</g>
<g id="symbol">
	<radialGradient id="SVGID_1_" cx="124.8794" cy="32.3586" r="30" fx="111.1106" fy="14.9747" gradientUnits="userSpaceOnUse">
		<stop  offset="0" style="stop-color:#85C18D"/>
		<stop  offset="0.6" style="stop-color:#5AB26D"/>
		<stop  offset="1" style="stop-color:#00A54E"/>
	</radialGradient>
	<circle class="st2" cx="124.9" cy="32.4" r="30"/>
	<g>
		<path class="st0" d="M136.1,21.8c-13.3,0-11.8,12.9-15.8,12.9c-3.9,0-7.4-5.7-4.7-11.8c2.7-6.1,20.5-13.8,34.8,8.3
			C144.5,24.4,139.8,21.9,136.1,21.8z"/>
		<path class="st0" d="M111.3,30.1c6.7,11.6,17.1,3.8,19.1,7.2s-1.2,9.2-7.8,10c-6.6,0.8-22.2-10.9-10.2-34.4
			C109.4,21.6,109.5,26.9,111.3,30.1z"/>
		<path class="st0" d="M131,47.8c6.7-11.6-5.3-16.7-3.3-20.1s8.6-3.6,12.5,1.8c4,5.4,1.7,24.7-24.7,26
			C124.6,53.7,129.1,50.9,131,47.8z"/>
	</g>
	<g>
		<path class="st3" d="M135.1,20.8c-13.3,0-11.8,12.9-15.8,12.9c-3.9,0-7.4-5.7-4.7-11.8c2.7-6.1,20.5-13.8,34.8,8.3
			C143.5,23.4,138.8,20.9,135.1,20.8z"/>
		<path class="st3" d="M110.3,29.1c6.7,11.6,17.1,3.8,19.1,7.2c2,3.4-1.2,9.2-7.8,10C115,47,99.4,35.4,111.4,11.9
			C108.4,20.6,108.5,25.9,110.3,29.1z"/>
		<path class="st3" d="M130,46.8c6.7-11.6-5.3-16.7-3.3-20.1s8.6-3.6,12.5,1.8c4,5.4,1.7,24.7-24.7,26
			C123.6,52.7,128.1,49.9,130,46.8z"/>
	</g>
</g>
</svg>
