<?xml version="1.0" encoding="utf-8"?>
<!-- Generator: Adobe Illustrator 24.2.0, SVG Export Plug-In . SVG Version: 6.00 Build 0)  -->
<svg version="1.1" id="logotipo" xmlns="http://www.w3.org/2000/svg" xmlns:xlink="http://www.w3.org/1999/xlink" x="0px" y="0px"
	 viewBox="0 0 250 112" style="enable-background:new 0 0 250 112;" xml:space="preserve">
<path d="M24.1,44.4l7.3,20.8c1.2,3.4,2.2,6.4,3,9.5h0.2c0.8-3.1,1.9-6.1,3.1-9.5l7.2-20.8h7l-14.5,37h-6.4l-14.1-37H24.1z"/>
<path d="M90.9,62.6c0,13.7-9.5,19.6-18.4,19.6c-10,0-17.7-7.3-17.7-19c0-12.4,8.1-19.6,18.3-19.6C83.7,43.5,90.9,51.3,90.9,62.6z
	 M61.6,63c0,8.1,4.7,14.2,11.2,14.2c6.4,0,11.2-6,11.2-14.4c0-6.3-3.1-14.2-11.1-14.2C65,48.6,61.6,55.9,61.6,63z"/>
<path d="M99.4,55.9c0-4.4-0.1-8.1-0.3-11.5h5.9l0.2,7.3h0.3c1.7-5,5.7-8.1,10.2-8.1c0.8,0,1.3,0.1,1.9,0.2v6.3
	c-0.7-0.2-1.4-0.2-2.3-0.2c-4.7,0-8.1,3.6-9,8.6c-0.2,0.9-0.3,2-0.3,3.1v19.7h-6.6V55.9z"/>
<path d="M134.3,33.8v10.6h9.6v5.1h-9.6v19.9c0,4.6,1.3,7.2,5,7.2c1.8,0,3.1-0.2,3.9-0.5l0.3,5c-1.3,0.5-3.4,0.9-6,0.9
	c-3.1,0-5.7-1-7.3-2.8c-1.9-2-2.6-5.3-2.6-9.6V49.5H122v-5.1h5.7v-8.9L134.3,33.8z"/>
<path d="M159,34c0.1,2.3-1.6,4.1-4.3,4.1c-2.4,0-4-1.8-4-4.1c0-2.4,1.8-4.2,4.2-4.2C157.4,29.8,159,31.6,159,34z M151.5,81.4v-37
	h6.7v37H151.5z"/>
<path d="M195.8,80c-1.8,0.9-5.7,2.1-10.6,2.1c-11.2,0-18.4-7.6-18.4-18.9c0-11.4,7.8-19.6,19.9-19.6c4,0,7.5,1,9.3,1.9l-1.5,5.2
	c-1.6-0.9-4.1-1.8-7.8-1.8c-8.5,0-13.1,6.3-13.1,14c0,8.6,5.5,13.8,12.8,13.8c3.8,0,6.3-1,8.3-1.8L195.8,80z"/>
<path d="M206.9,64.1c0.2,9.1,6,12.8,12.7,12.8c4.8,0,7.7-0.8,10.2-1.9l1.1,4.8c-2.4,1.1-6.4,2.3-12.3,2.3
	c-11.4,0-18.2-7.5-18.2-18.6c0-11.2,6.6-19.9,17.3-19.9c12.1,0,15.3,10.6,15.3,17.4c0,1.4-0.2,2.4-0.2,3.1H206.9z M226.6,59.3
	c0.1-4.3-1.8-10.9-9.3-10.9c-6.8,0-9.8,6.3-10.3,10.9H226.6z"/>
</svg>
