<?xml version="1.0" encoding="utf-8"?>
<!-- Generator: Adobe Illustrator 24.2.0, SVG Export Plug-In . SVG Version: 6.00 Build 0)  -->
<svg version="1.1" id="Logo_Firjan_1_" xmlns="http://www.w3.org/2000/svg" xmlns:xlink="http://www.w3.org/1999/xlink" x="0px"
	 y="0px" viewBox="0 0 1920 520" style="enable-background:new 0 0 1920 520;" xml:space="preserve">
<style type="text/css">
	.st0{fill:#0036CC;}
	.st1{fill:#393230;}
</style>
<path class="st0" d="M1494.1,80.4c-226.6,0-264.9,110.7-503.6,110.7v55.4c251.8,0,291.8-110.8,503.6-110.8V80.4z M1494.1,191.2
	c-226.6,0-264.9,110.8-503.6,110.8v55.3c251.8,0,291.8-110.7,503.6-110.7V191.2z M1494.1,357.4c-211.8,0-251.8,110.8-503.6,110.8
	v-55.4c238.7,0,277-110.8,503.6-110.8V357.4z"/>
<path class="st0" d="M1561.6,132.6c-5.2-2.2-10-5.5-14.3-9.8l11.4-14.1c3,3.2,6.2,5.7,9.6,7.3c3.4,1.7,6.7,2.5,9.7,2.5
	c2.1,0,3.9-0.3,5.4-0.9c1.4-0.6,2.4-1.4,3-2.4s0.9-2.1,0.9-3.4c0-2.2-0.8-4-2.5-5.3s-4.9-2.7-9.7-4.3c-2-0.7-3.8-1.3-5.3-1.9
	c-1.6-0.6-3.2-1.4-5.1-2.3c-1.8-0.9-3.4-1.9-4.7-2.8c-1.3-1-2.7-2.1-4-3.4s-2.3-2.8-3.2-4.3c-0.8-1.5-1.5-3.2-2-5.2
	s-0.8-4.1-0.8-6.3c0-4.5,1.2-8.6,3.6-12.3s5.6-6.6,9.8-8.8c4.1-2.1,8.6-3.2,13.6-3.3c10.3-0.1,19.8,3.4,28.6,10.7l-11,14.3
	c-6.6-5.3-12.2-7.9-16.9-7.9c-2.3,0-4.1,0.6-5.5,1.7c-1.3,1.1-2,2.7-2.1,4.7c0,1.8,0.8,3.3,2.5,4.5s4.8,2.7,9.5,4.5
	c6.9,2.7,11.6,4.7,14,6c5.1,2.8,8.4,6.4,10,10.6c0.9,2.5,1.4,5.4,1.4,8.7c0,3.7-0.6,7.1-1.9,10.2c-1.2,3.1-2.9,5.6-4.9,7.5
	c-2,2-4.3,3.6-7,5s-5.3,2.3-8,2.9s-5.4,0.8-8.2,0.8C1572.1,135.9,1566.8,134.8,1561.6,132.6"/>
<polygon class="st0" points="1617.8,52.6 1671.5,52.6 1671.5,69.8 1636.8,69.8 1636.8,85.6 1664.2,85.6 1664.2,102.6 1636.8,102.6 
	1636.8,117.5 1673.9,117.5 1673.9,134.7 1617.8,134.7 "/>
<polygon class="st0" points="1755.7,52.6 1755.7,134.7 1735.7,134.7 1704.6,85.5 1704.3,85.5 1704.3,134.7 1685.1,134.7 
	1685.1,52.6 1704.4,52.6 1736.1,103.1 1736.4,103.1 1736.4,52.6 "/>
<path class="st0" d="M1811.9,103.7l-9-27.7h-0.2l-9,27.7H1811.9z M1817.2,120.1h-28.9l-4.7,14.7h-20.2l30.1-82.2h18.5l30.2,82.2
	H1822L1817.2,120.1z"/>
<rect x="1850.5" y="52.6" class="st0" width="19.5" height="82.2"/>
<path class="st0" d="M1561.6,243.8c-5.2-2.2-10-5.5-14.3-9.8l11.4-14.1c3,3.2,6.2,5.7,9.6,7.3c3.4,1.7,6.7,2.5,9.7,2.5
	c2.1,0,3.9-0.3,5.4-0.9c1.4-0.6,2.4-1.4,3-2.4s0.9-2.1,0.9-3.4c0-2.2-0.8-4-2.5-5.3s-4.9-2.7-9.7-4.3c-2-0.7-3.8-1.3-5.3-1.9
	c-1.6-0.6-3.2-1.4-5.1-2.3c-1.8-0.9-3.4-1.9-4.7-2.8c-1.3-1-2.7-2.1-4-3.4c-1.3-1.3-2.3-2.8-3.2-4.3c-0.8-1.5-1.5-3.2-2-5.2
	s-0.8-4.1-0.8-6.3c0-4.5,1.2-8.6,3.6-12.3s5.6-6.6,9.8-8.8c4.1-2.1,8.6-3.2,13.6-3.3c10.3-0.1,19.8,3.4,28.6,10.7l-11,14.3
	c-6.6-5.3-12.2-7.9-16.9-7.9c-2.3,0-4.1,0.6-5.5,1.7c-1.3,1.1-2,2.7-2.1,4.7c0,1.8,0.8,3.3,2.5,4.5s4.8,2.7,9.5,4.5
	c6.9,2.7,11.6,4.7,14,6c5.1,2.8,8.4,6.4,10,10.6c0.9,2.5,1.4,5.4,1.4,8.7c0,3.7-0.6,7.1-1.9,10.2c-1.2,3.1-2.9,5.6-4.9,7.5
	c-2,2-4.3,3.6-7,5s-5.3,2.3-8,2.9s-5.4,0.8-8.2,0.8C1572.1,247.1,1566.8,246,1561.6,243.8"/>
<polygon class="st0" points="1617.8,163.8 1671.5,163.8 1671.5,181.1 1636.8,181.1 1636.8,196.8 1664.2,196.8 1664.2,213.8 
	1636.8,213.8 1636.8,228.7 1673.9,228.7 1673.9,246 1617.8,246 "/>
<path class="st0" d="M1694.2,243.8c-5.2-2.2-10-5.5-14.3-9.8l11.4-14.1c3,3.2,6.2,5.7,9.6,7.3c3.4,1.7,6.7,2.5,9.7,2.5
	c2.1,0,3.9-0.3,5.4-0.9c1.4-0.6,2.4-1.4,3-2.4s0.9-2.1,0.9-3.4c0-2.2-0.8-4-2.5-5.3s-4.9-2.7-9.7-4.3c-2-0.7-3.8-1.3-5.3-1.9
	c-1.6-0.6-3.2-1.4-5.1-2.3c-1.8-0.9-3.4-1.9-4.7-2.8c-1.3-1-2.7-2.1-4-3.4c-1.3-1.3-2.3-2.8-3.2-4.3c-0.8-1.5-1.5-3.2-2-5.2
	s-0.8-4.1-0.8-6.3c0-4.5,1.2-8.6,3.6-12.3s5.7-6.6,9.8-8.8c4.1-2.1,8.6-3.2,13.6-3.3c10.3-0.1,19.8,3.4,28.6,10.7l-11,14.3
	c-6.5-5.3-12.2-7.9-16.9-7.9c-2.3,0-4.1,0.6-5.4,1.7c-1.3,1.1-2,2.7-2.1,4.7c0,1.8,0.8,3.3,2.5,4.5s4.8,2.7,9.5,4.5
	c6.9,2.7,11.6,4.7,14,6c5,2.8,8.4,6.4,10,10.6c1,2.5,1.4,5.4,1.4,8.7c0,3.7-0.6,7.1-1.9,10.2c-1.2,3.1-2.9,5.6-4.9,7.5
	c-2,2-4.3,3.6-7,5s-5.3,2.3-8,2.9c-2.7,0.6-5.4,0.8-8.2,0.8C1704.8,247.1,1699.4,246,1694.2,243.8"/>
<rect x="1751" y="163.8" class="st0" width="19.5" height="82.2"/>
<rect x="1553" y="275" class="st0" width="19.5" height="82.2"/>
<polygon class="st0" points="1587.3,275 1641,275 1641,292.3 1606.3,292.3 1606.3,308 1633.7,308 1633.7,325 1606.3,325 
	1606.3,339.9 1643.4,339.9 1643.4,357.2 1587.3,357.2 "/>
<polygon class="st0" points="1654.6,275 1674,275 1674,339.9 1708.5,339.9 1708.5,357.2 1654.6,357.2 "/>
<path class="st0" d="M1578.7,467.7c-4.2-1.1-8-2.9-11.6-5.2c-3.5-2.3-6.6-5.1-9.2-8.4s-4.7-7.2-6.2-11.8c-1.5-4.5-2.2-9.5-2.2-14.8
	c0-4.7,0.6-9.2,1.8-13.4c1.2-4.3,3-8.1,5.3-11.7c2.4-3.5,5.2-6.6,8.6-9.2c3.3-2.6,7.3-4.6,11.8-6s9.5-2.1,14.8-2.1
	c3.9,0,7.7,0.5,11.5,1.6s7.6,2.8,11.4,5.3c3.8,2.4,7.2,5.4,10.1,9l-14.2,12.1c-2.3-2.7-5-4.9-8.3-6.8c-3.3-1.8-6.8-2.7-10.6-2.7
	c-2,0-3.9,0.2-5.8,0.7s-3.6,1.2-5.3,2.1c-1.6,0.9-3.1,2.1-4.5,3.5s-2.5,3-3.5,4.7c-1,1.8-1.7,3.7-2.2,5.9c-0.5,2.2-0.8,4.5-0.8,7
	c0,4.3,0.9,8.3,2.7,11.8c1.8,3.5,4.4,6.4,7.8,8.4c3.4,2.1,7.2,3.1,11.6,3.1c3.6,0,7.1-0.9,10.5-2.6s6.2-4,8.4-6.8l14.2,12.1
	c-3.8,4.7-8.5,8.5-14.2,11.4s-12,4.3-18.9,4.3C1587.2,469.4,1582.9,468.8,1578.7,467.7"/>
<rect x="1634.9" y="386.2" class="st0" width="19.5" height="82.2"/>
<path class="st0" d="M1688.4,425h8.9c4.1,0,7.4-1,9.8-2.9s3.6-4.6,3.6-7.9c0-3.2-1.1-5.8-3.4-7.8s-5.5-3-9.6-3h-9.3V425z
	 M1712,468.4l-16.8-26.5h-6.8v26.5h-19v-82.2h32c4.9,0,9.3,0.7,13.1,2.1c3.8,1.4,6.9,3.4,9.2,6c2.3,2.6,4.1,5.5,5.3,9
	c1.2,3.4,1.8,7.2,1.8,11.3c0,6.1-1.3,11.2-4,15.4c-2.6,4.1-6.4,7.2-11.3,9.3v0.3l19.3,28.9L1712,468.4L1712,468.4z"/>
<path class="st0" d="M1747.4,466.7c-4.1-1.9-7.5-4.5-10.2-8.1l11.1-13.6c0.8,1.1,1.8,2.1,2.9,3s2.3,1.6,3.6,2.2
	c1.4,0.6,2.7,0.9,4,0.9c5.5,0,8.3-4,8.3-12v-52.9h19.4v52.4c0,3.8-0.3,7.2-0.8,10.3c-0.6,3.1-1.5,5.9-2.8,8.5s-2.9,4.8-5,6.5
	c-2,1.8-4.5,3.1-7.5,4.1s-6.4,1.5-10.2,1.5C1755.8,469.5,1751.5,468.6,1747.4,466.7"/>
<path class="st1" d="M917.1,295c0,13.7,2.8,18.5,11.5,18.5h3.5l2.1-0.3v44.1c-4.2,1.7-11.9,2.4-22.7,2.4
	c-31.1,0-46.5-16.8-46.5-50.4v-38.2c0-23.2-9.3-36-25.5-36s-30.7,11.8-30.7,40.3v82.2h-52.3V193.9h52.3v19.8h0.3
	c6.4-7.4,13.9-13.1,22.4-17s17.5-5.9,27.1-5.9c8.9,0,16.8,1.2,23.7,3.5s13,6.1,18.4,11.4c5.4,5.2,9.5,12.4,12.3,21.4
	s4.2,19.8,4.2,32.3L917.1,295z M652.4,305.3c7-7.5,10.5-17.2,10.5-29.2c0-7.8-1.6-14.8-4.7-21c-3.2-6.2-7.5-11.1-13.1-14.6
	c-5.5-3.5-11.7-5.2-18.4-5.2c-10.6,0-19.4,3.8-26.4,11.3s-10.5,17.4-10.5,29.5c0,12,3.4,21.8,10.3,29.2c6.9,7.5,15.7,11.2,26.4,11.2
	C636.8,316.5,645.4,312.8,652.4,305.3 M324.9,357.6V193.8h52.3V218c8-17.8,27-28,51.2-28c3.5,0,8.1,0.4,13.6,1v49.1
	c-5.2-1.1-11.2-1.8-17.5-1.8c-29.8,0-47.3,16.8-47.3,45.9v73.3h-52.3V357.6z M466.3,163.5c-6-5.4-8.9-12.4-8.9-20.9
	c0-8.4,3-15.3,8.9-20.7c5.9-5.4,13.3-8.1,22.1-8.1c8.8,0,16.2,2.7,22.1,8.1c6,5.4,8.9,12.3,8.9,20.7c0,8.5-3,15.4-8.9,20.9
	c-5.9,5.4-13.3,8.1-22.1,8.1S472.2,168.9,466.3,163.5 M240.6,164.8c-6-5.4-8.9-12.4-8.9-20.9c0-5.6,1.4-10.6,4.2-15
	c2.8-4.4,6.5-7.8,11.2-10.2c4.7-2.4,9.9-3.6,15.6-3.6c8.8,0,16.2,2.7,22.1,8.1c6,5.4,8.9,12.3,8.9,20.7c0,8.5-3,15.4-8.9,20.9
	c-5.9,5.4-13.3,8.1-22.1,8.1C253.9,172.9,246.5,170.2,240.6,164.8 M50,119.9h160.7v50H105.1v53.4h87.2V273h-87.2v84.6H50V119.9z
	 M462.7,193.9h52.2v169.9c0,42.1-20.6,63.1-61.6,63.1c-8.7,0-16.1-0.4-22.7-1.5V380c5.3,0.4,8.7,0.6,11.2,0.6c14.4,0,21-6.3,21-23.1
	V193.9H462.7z M236.5,193.9h51.9V296c0,12.9,3.1,18.4,11.8,18.4c3.2,0,5.2-0.3,6.3-0.7V358c-4.5,1.7-12.6,2.8-24.1,2.8
	c-30.7,0-46-16.4-46-49.5V193.9H236.5z M617.4,360.7c-11.1,0-21.5-2.1-31-6.2c-9.6-4.1-17.7-9.9-24.5-17.1
	c-6.8-7.3-12-16.2-15.8-26.8c-3.8-10.6-5.7-22.1-5.7-34.6c0-12.3,1.9-23.8,5.7-34.4c3.8-10.6,9-19.6,15.7-27
	c6.6-7.4,14.6-13.2,23.8-17.4s19-6.3,29.5-6.3c18.4,0,33.4,6.8,45.1,20.4h0.6v-17.4h52.4V295c0,14,3.6,19.7,13.1,19.7
	c2.5,0,5.7-0.4,8.8-0.7v43.8c-5.7,1.8-13.4,2.8-23.6,2.8c-11.7,0-21.6-2.1-29-6.3c-8.1-5.4-13.4-11.7-15.9-19.1l0,0h-0.7
	C665.8,335.2,654.2,360.7,617.4,360.7"/>
</svg>
