<?xml version="1.0" encoding="utf-8"?>
<!-- Generator: Adobe Illustrator 24.2.0, SVG Export Plug-In . SVG Version: 6.00 Build 0)  -->
<svg version="1.1" id="logotipoMBP" xmlns="http://www.w3.org/2000/svg" xmlns:xlink="http://www.w3.org/1999/xlink" x="0px"
	 y="0px" viewBox="0 0 510 190" style="enable-background:new 0 0 510 190;" xml:space="preserve">
<style type="text/css">
	.st0{fill-rule:evenodd;clip-rule:evenodd;fill:#FFFFFF;}
</style>
<path class="st0" d="M205.2,160.1l-3.4,5.8l-3.4-5.8h-0.7v7.9h0.8v-6.3l3.1,5.3h0.4l3.1-5.3v6.3h0.8v-7.9H205.2L205.2,160.1z
	 M215.7,168h0.9l-3.6-7.9h-0.8l-3.6,7.9h0.9l0.9-2.1h4.4L215.7,168L215.7,168z M210.6,165.2l1.9-4.2l1.9,4.2H210.6L210.6,165.2z
	 M225.4,168l-1.9-2.7c1.1-0.4,1.8-1.2,1.8-2.5c0-1.7-1.2-2.7-3.2-2.7h-2.9v7.9h0.8v-2.5h2.1c0.2,0,0.4,0,0.6,0l1.8,2.5H225.4
	L225.4,168z M222.1,164.8H220v-3.9h2.1c1.6,0,2.4,0.7,2.4,2C224.5,164.1,223.6,164.8,222.1,164.8L222.1,164.8z M234.2,168h1
	l-3.6-4.3l3.4-3.6h-1l-4.6,4.8v-4.8h-0.8v7.9h0.8v-2.1l1.6-1.6L234.2,168L234.2,168z M238.7,167.3v-2.9h4.1v-0.7h-4.1v-2.8h4.6v-0.7
	h-5.4v7.9h5.6v-0.7H238.7L238.7,167.3z M248.2,168h0.8v-7.1h2.8v-0.7h-6.4v0.7h2.8V168L248.2,168z M254.4,168h0.8v-7.9h-0.8V168
	L254.4,168z M264.9,160.1v6.4l-5.1-6.4h-0.7v7.9h0.8v-6.4l5.1,6.4h0.7v-7.9H264.9L264.9,160.1z M275.1,166.7
	c-0.6,0.4-1.3,0.6-2.1,0.6c-1.9,0-3.4-1.4-3.4-3.3c0-1.9,1.4-3.3,3.4-3.3c0.9,0,1.7,0.3,2.4,0.9l0.5-0.5c-0.7-0.8-1.7-1.1-2.9-1.1
	c-2.4,0-4.2,1.7-4.2,4c0,2.3,1.8,4,4.1,4c1.1,0,2.1-0.3,2.9-1v-3h-0.8V166.7L275.1,166.7z M282.5,168h3.2c2.5,0,4.2-1.6,4.2-3.9
	c0-2.3-1.7-3.9-4.2-3.9h-3.2V168L282.5,168z M283.3,167.3v-6.4h2.3c2.1,0,3.4,1.3,3.4,3.2c0,1.9-1.3,3.2-3.4,3.2H283.3L283.3,167.3z
	 M293.9,167.3v-2.9h4.1v-0.7h-4.1v-2.8h4.6v-0.7h-5.4v7.9h5.6v-0.7H293.9L293.9,167.3z M308.3,168.1c1.2,0,2.2-0.4,2.9-1.2l-0.5-0.5
	c-0.6,0.7-1.4,0.9-2.3,0.9c-1.9,0-3.3-1.4-3.3-3.3c0-1.9,1.4-3.3,3.3-3.3c0.9,0,1.7,0.3,2.3,0.9l0.5-0.5c-0.7-0.8-1.7-1.1-2.9-1.1
	c-2.4,0-4.1,1.7-4.1,4C304.2,166.4,305.9,168.1,308.3,168.1L308.3,168.1z M317.5,168.1c2.4,0,4.1-1.7,4.1-4c0-2.3-1.8-4-4.1-4
	c-2.4,0-4.1,1.7-4.1,4C313.4,166.4,315.1,168.1,317.5,168.1L317.5,168.1z M317.5,167.3c-1.9,0-3.3-1.4-3.3-3.3
	c0-1.9,1.4-3.3,3.3-3.3c1.9,0,3.3,1.4,3.3,3.3C320.8,166,319.4,167.3,317.5,167.3L317.5,167.3z M330.5,160.1v6.4l-5.1-6.4h-0.7v7.9
	h0.8v-6.4l5.1,6.4h0.7v-7.9H330.5L330.5,160.1z M336.8,168h0.8v-7.1h2.8v-0.7H334v0.7h2.8V168L336.8,168z M343.8,167.3v-2.9h4.1
	v-0.7h-4.1v-2.8h4.6v-0.7H343v7.9h5.6v-0.7H343.8L343.8,167.3z M354.2,159.5h0.8l1.8-1.4h-1.1L354.2,159.5L354.2,159.5z M355,168.1
	c2,0,3.2-1.2,3.2-3.4v-4.5h-0.8v4.5c0,1.9-0.9,2.7-2.4,2.7c-1.5,0-2.4-0.9-2.4-2.7v-4.5h-0.8v4.5C351.7,166.9,353,168.1,355,168.1
	L355,168.1z M362,168h3.2c2.5,0,4.2-1.6,4.2-3.9c0-2.3-1.7-3.9-4.2-3.9H362V168L362,168z M362.8,167.3v-6.4h2.3
	c2.1,0,3.4,1.3,3.4,3.2c0,1.9-1.3,3.2-3.4,3.2H362.8L362.8,167.3z M376,168.1c2.4,0,4.1-1.7,4.1-4c0-2.3-1.8-4-4.1-4
	c-2.4,0-4.1,1.7-4.1,4C371.9,166.4,373.6,168.1,376,168.1L376,168.1z M376,167.3c-1.9,0-3.3-1.4-3.3-3.3c0-1.9,1.4-3.3,3.3-3.3
	c1.9,0,3.3,1.4,3.3,3.3C379.3,166,377.9,167.3,376,167.3z"/>
<path class="st0" d="M410.1,129.3l0-0.1c-3.6,4.5-8,7.3-12.4,8.3c-4,1-8,0.9-11.6-0.1c-2.7-0.8-5.1-2.2-7-4.4
	c-2.1-2.5-3.5-5.9-3.6-10c-2.6,2.4-5.7,4.8-9,6.1c-4.6,1.8-9.3,2.1-13.3-0.7c-0.5-0.4-1-0.7-1.4-1.2c-1.4-1.6-1.9-3.5-1.7-5.4
	c0.2-1.9,1-3.9,2.1-5.6c0.6-0.9,1.3-1.7,2-2.4c1.4-1.3,2.8-2.1,3.6-2.6l0,0c0.7-0.4,0.7-0.4,0.2-0.8c-0.5-0.5-1.5-1.4-2.3-3.4
	c-0.3-0.7-0.6-1.6-0.9-2.5c-1.2,1.2-2.6,2.4-4,3.5c-3.1,2.3-6.8,3.9-10.6,4.6c-1,0.2-2,0.3-3,0.4c-0.1,2.7-0.4,5.1-0.7,6.9
	c-0.8,5.2-3,10.2-6.4,13.6c-3.2,3.1-7.9,5-14.3,4.7c-6.3-0.2-10.5-2.7-13.3-6.3c-3.3-4.4-4.8-10.5-4.9-16.5c-0.1-2.4,0-5,0.1-7.7
	c0.1-2.6,0.4-5.4,0.6-8.1c0-0.1,0.7-0.2,1.6-0.2c0.9,0,1.6,0.1,1.6,0.2c-0.2,2.7-0.4,5.4-0.6,8.1c-0.1,2.6-0.2,5.2-0.1,7.7
	c0.2,6,1.6,12.1,4.9,16.5c2.7,3.5,6.3,5.9,11.2,6.1h0c3.7,0.1,7.1-1.6,10-4.5c3.5-3.4,5.6-8.3,6.4-13.6c0.3-1.8,0.5-4.1,0.7-6.7
	c-2.7,0-5.4-0.3-7.9-0.9c-3.5-0.9-6.5-2.7-8.4-5.2c-1-1.4-1.8-3-2.2-4.9c-0.3-1.5-0.1-3,0.4-4.3c0.5-1.3,1.4-2.5,2.6-3.4
	c1.1-0.9,2.5-1.6,4.1-1.9c2.8-0.5,5.5-0.4,7.8,0.5c3.3,1.4,5.2,4.7,6.1,8.8c0.8,3.3,0.9,7.1,0.8,10.5l0.1,0
	c3.6-0.7,7.2-2.2,10.2-4.5c1.7-1.3,3.2-2.6,4.4-4c0.8-0.8,1.5-1.7,2.1-2.5c-0.1-0.6-0.2-1.2-0.3-1.8c-0.2-1.2-0.3-2.4-0.3-3.5
	c0-1.1,0-2.1,0.2-3.1c0.1-0.9,0.3-1.8,0.6-2.4c0.2-0.6,0.6-1.1,0.9-1.3c0.2-0.1,0.4-0.2,0.6-0.2l0.2,0c1.6-0.2,2.7-0.1,3.3,0.2
	c0.2,0.1,0.3,0.2,0.5,0.5c0.2,0.3,0.4,0.8,0.5,1.5c0.1,1,0,2.5-0.3,4.1c-0.3,1.4-0.8,2.8-1.5,4.2c-0.3,0.6-0.7,1.2-1.1,1.8
	c0.1,0.7,0.3,1.5,0.5,2.2c0.3,1.2,0.7,2.3,1.1,3.3c0.8,1.9,1.8,2.9,2.3,3.3c0.5,0.5,0.5,0.5-0.2,0.9c-0.7,0.4-2.1,1.2-3.5,2.5
	c-0.7,0.7-1.4,1.5-2,2.4c-1.2,1.7-2,3.7-2.1,5.6c-0.2,1.9,0.3,3.8,1.7,5.4c0.4,0.4,0.8,0.8,1.3,1.1c2.3,1.6,4.8,1.6,7,0.7
	c4.8-1.9,9.3-6.1,12.1-9.4c0,0,0.1,0,0.2-0.1l0-0.2c0.1-0.7,0.2-1.4,0.4-2.1c1.2-4.4,4.3-7.9,8.2-10.3c4.2-2.5,9.9-3.7,15.7-3l0.1,0
	c0.9,0.1,1.8,0.3,2.7,0.5c8.8,2.4,9.8,14.4,10.5,22.5l0.2,2.2l0,0l0.1,1c0.9-0.9,1.8-1.9,2.7-2.8c1.1-1.1,2.2-2.2,3.4-3.3
	c1.5-1.5,3.2-3,4.7-4.6c-0.9-1.4-1.5-3-1.9-4.6c-1-3.9-0.8-8.2-0.1-12.5c0.7-4.1,2.8-6.9,5-8c1.5-0.7,3.4-0.9,5.5-0.4
	c0.9,0.2,1.7,0.6,2.3,1.4c1.4,1.9,2,5.6,0.6,11.4c-1.1,4.5-4.5,8.8-8.3,12.7c1.2,2,3,3.8,5.3,5.2c10.7,6.6,20.9-8.5,26.8-17.2
	l0.1-0.2c1-1.4,1.8-2.7,2.4-3.9c0-1.1,0-2.1,0-3.2c0-2.6,0.2-5.1,0.5-6.9c0.2-1.6,0.5-2.6,0.8-3.1c0.1-0.2,0.2-0.3,0.4-0.4
	c1.1-0.5,2.1-0.6,2.9-0.3c0.3,0,0.4,0.1,0.4,0.2l0.2,0.1c0.1,0.1,0.2,0.2,0.3,0.4c0.3,0.6,0.4,1.7,0.5,3c0,1.2-0.1,2.5-0.4,3.9
	c-0.3,1.5-0.8,2.9-1.5,4.6c-0.2,0.5-0.5,1.1-0.8,1.6c0,1.3,0.1,2.6,0.3,3.8c0.2,2.3,0.7,4.2,1.2,5.8c0.5,1.6,1.1,3,1.8,4.3
	c0.7,1.4,2.4,3.9,4.4,6.6c2.7,3.7,5.8,7.7,7,9.1c0.1,0.1-0.6,0.2-1.5,0.2c-0.9,0-1.7-0.1-1.7-0.1c-4.5-2.5-6.9-2.9-10.3-3.4
	c-0.7-0.1-1.5-0.3-2.5-0.4c-0.4-0.1-0.1-0.2,0.7-0.2c0.8,0,1.8,0,2.2,0.1c0.8,0.2,1.6,0.3,2.4,0.4c2,0.3,3.7,0.6,5.6,1.3
	c-1.4-1.8-3.3-4.4-5.1-6.8c-1.9-2.7-3.6-5.2-4.4-6.6c-0.6-1.3-1.3-2.6-1.8-4.3c-0.5-1.4-0.8-3.1-1.1-5c-6.7,9.8-18,26-32.9,16.8
	c-1.6-1-2.9-2.1-4-3.4c-1,0.9-1.9,1.9-2.9,2.8c-1.2,1.2-2.4,2.3-3.4,3.3c-1.9,1.9-3.7,3.9-5.4,5.9l0.6,4.7c0.4,2.9,0.8,5.6,1.1,8.2
	c0.3,2.5,0.6,4.8,0.8,7c0.2,2.1,0.4,4.1,0.6,6.1c0.2,1.9,0.3,3.8,0.5,5.5c0.1,1.8,0.2,3.4,0.3,5c0.4,8.5-1.1,14.8-3.3,17.8
	c-0.9,1.2-1.9,1.9-3,2.1c-2.6,0.4-4.7,0.1-6.1-1.2c-2.3-2.2-4.6-7.3-6-16.2c-1.6-10.1-0.3-18.3,2.8-25.6c2.1-4.8,5-9.2,8.5-13.3
	L410.1,129.3L410.1,129.3L410.1,129.3z M125.9,100.5c0.1,0.1-0.5,0.2-1.4,0.2c-0.9,0-1.7-0.1-1.8-0.1c0,0-1.8-1.3-3.2-0.2
	c-2.3,2-3.2,4.1-2.9,6.1c0.3,2.1,1.9,4.1,4.4,5.8c2.6,1.8,6.1,3.3,10.5,4.4c15,3.8,39.9,2.3,63.8-12.2c0.1-0.1,1-0.1,1.8-0.1
	c0.8,0,1.4,0.1,1.3,0.2c0,0.2,1,4.7,1.1,10.4c2.8-4.9,7.1-12.2,13.6-19.2c4.9-5.3,11.8-10.6,19.4-13.6c6.9-2.8,14.4-3.9,21.8-1.9
	c1.6,0.4,2.7,1.2,3.3,2.1c0.7,1.1,0.8,2.6,0.1,4.3c-0.6,1.6-1.8,3.5-3.6,5.3c-4,4.2-10.6,8.7-18.8,11.7c15.2-2.5,41.4-4.9,50,5.9
	c2.9,3.7,2.6,8.9-0.2,14.3c-2,4-5.4,8-9.7,11.6c-4.3,3.6-9.7,6.7-15.6,8.8c-15.8,5.6-35.6,4.8-53.9-10.8c-0.1-0.1,0.5-0.2,1.4-0.2
	c0.9,0,1.7,0.1,1.8,0.1c16.9,14.5,34.2,15.5,47.6,10.8c5.9-2.1,11.2-5.2,15.5-8.8c4.3-3.6,7.7-7.6,9.7-11.6
	c2.8-5.4,3.1-10.6,0.2-14.2c-8.3-10.3-32.6-7.8-45.6-5.5c-2.8,0.5-5.1,1-6.7,1.3l-0.2,0c-0.6,0.2-1.3,0.3-1.9,0.5l-0.4,0.1
	c-2.2,0.4-5.6,0.7-3.5,0c0,0,0.2-0.1,0.6-0.2c0.5-0.1,1.2-0.3,2.2-0.5c10.5-2.8,19.3-8.2,24.2-13.4c1.7-1.9,3-3.7,3.6-5.3
	c0.6-1.6,0.6-3.1-0.1-4.2c-0.6-0.9-1.6-1.6-3.1-2c-4.8-1.3-10.3-0.3-15.6,1.9c-7.5,3.1-14.4,8.3-19.3,13.6
	c-7.8,8.5-12.5,17.2-15.1,21.9c-1,1.8-1.7,3-2,3.4c-0.2,1.3-0.4,2.6-0.7,3.9c-0.5,2-0.8,3-1,3.5l-0.3,0.5c0,0.5-0.4,0.9-0.8,1.1
	c-0.8,0.9-1.4,0.9-1.9,0.1c-0.4-0.2-0.7-0.6-0.5-1.3l-0.1-0.4c0-0.2,0-0.7,0-1.2c0.2-1.9,0.9-5.1,2-6.2c0.7-6,0-11.9-0.5-14.7
	c-24.5,13.8-50.7,14.8-67.1,10.6c-4.4-1.1-8.1-2.7-10.7-4.5c-2.6-1.8-4.2-3.8-4.5-5.9c-0.3-2,0.6-4.1,2.9-6.2
	C120.7,96.6,125.9,100.5,125.9,100.5L125.9,100.5z M334,113.1c0.2-3.5,0-7.4-0.7-10.9c-0.9-4-2.7-7.4-6-8.7
	c-0.9-0.4-1.5-0.5-1.8-0.4c-1.3,0.3-2.6,0.9-3.7,1.8c-1.1,0.9-2,2.1-2.5,3.4c-0.5,1.3-0.7,2.8-0.4,4.3c0.4,1.8,1.1,3.5,2.2,4.8
	c1.9,2.5,4.8,4.2,8.2,5.1C330.7,112.9,332.3,113.1,334,113.1L334,113.1z M356.7,95.7c0.3-1.2,0.4-2.4,0.4-3.3
	c-0.1,0.3-0.1,0.7-0.2,1.1C356.8,94.1,356.7,94.8,356.7,95.7L356.7,95.7z M411.3,138.2l-0.2-1.2c-2.3,3.1-4.2,6.4-5.7,9.9
	c-3.1,7.2-4.4,15.5-2.8,25.6c0.3,2,3.9,17.6,7.1,17c4-0.7,5-16.6,4.9-19.6c-0.1-1.5-0.2-3.2-0.3-5c-0.1-1.8-0.3-3.6-0.5-5.5
	c-0.2-1.9-0.4-3.9-0.6-6.1c-0.2-2.1-0.5-4.4-0.8-7C412.1,143.8,411.7,141.1,411.3,138.2L411.3,138.2z M426.4,117.4
	c2.9-3.3,5.3-6.8,6.2-10.4c1.4-5.9,0.8-9.6-0.6-11.4c-0.6-0.7-1.3-1.2-2-1.3c-0.6-0.1,0.7,0.2,0.5,0.4c-2.2,1-4.2,3.8-5,7.9
	c-0.7,4.3-0.9,8.6,0.1,12.5C425.8,115.8,426,116.6,426.4,117.4L426.4,117.4z M409.6,124.2c-0.7-7.8-2.4-17.3-10-19.4
	c-0.7-0.2-1.4-0.3-2.1-0.4l-0.1,0c-2.9-0.3-6.6,0.7-10.1,2.8c-3.9,2.3-6.9,5.9-8.1,10.2c-0.2,0.7-0.3,1.4-0.4,2.1
	c-0.7,5.8,0.7,10.4,3.5,13.6c1.8,2.1,4.2,3.5,6.8,4.3c1.8,0.5,3.7,0.5,5.6,0c5.3-1.3,10.7-5.2,14.7-11.9c0.1-0.2,0.2-0.3,0.3-0.5
	C409.8,124.8,409.7,124.5,409.6,124.2z"/>
<path class="st0" d="M472.4,51.4c-0.3,0-0.7,0-1.1,0c-0.9,0-1.6-0.1-1.6-0.2c0,0-1.8-10.4-10-10.2c-1.1,0-2.6,0.9-4.1,2.2
	c-1.9,1.7-3.5,4-4.6,6.6c-1.1,2.6-1.8,5.5-1.7,8.1c0.1,2.3,0.7,4.4,2.1,6c2.4,2.7,4.5,3,6.3,2.2c3.1-1.3,6-4.1,8.3-6.4
	c1.5-1.6,3.1-3.4,4.6-5.6C471.1,53.4,471.8,52.4,472.4,51.4L472.4,51.4z M169.2,169.9c-0.1,0.2-0.7,0.2-0.6,0.9
	c0,0.2,0.1,0.3,0.3,0.5c0.2,0.1,0.4,0.1,0.6,0.1c0.3,0.8,2,3.7,2.5,4.7l0.6,1.1c0.2,0.4,0.4,0.8,0.6,1.2c0.2,0.4,0.4,0.8,0.6,1.2
	c0.2,0.4,0.4,0.9,0.6,1.2c-0.1,0.1-0.2,0.2-0.3,0.2c-0.6-0.7-0.6-0.9-1.3-1.7c-2.7-2.9-7.6-5.1-7.8-5.3l-1.1-4.2
	c-0.2-0.7-0.5-1.4-0.6-2.1c0-0.1-0.1-0.1-0.1-0.2c-0.1-0.5-1.1-2.9-1.4-3.5c-0.2-0.4-0.3-0.8-0.6-1.1c0.1-0.1,1.7-0.9,2.4-1.4
	l-0.3-0.5l-2.7,1.5c-0.2,0.1-0.3,0.2-0.5,0.2c-0.2-0.6-1.1-1.9-1.2-2.3c0.1-0.1,0-0.1,0.2-0.1l3-1.6c-12.1-23.5-18-44.6-20.3-65.4
	c-2.6-22.9-1-45.5,1-70.9c-0.1-2.5-0.6-4.4-1.3-5.7c-0.8-1.4-1.8-2.1-2.9-2.3c-0.1,0-0.4,0.3-1.3,0.7c-2.8,1.2-5.9,3.6-8.8,6.6
	c-15,15.5-24.7,26-35.7,37.9c-3.9,4.3-8,8.7-12.6,13.6C66.3,88.4,61.7,85,61,75.9c-0.5-7.3,2.3-19.4,3.8-25.7
	c1.4-5.7,2.7-12.9,2.2-17.9c-0.4-4.1-2-6.6-5.6-4.8C43.7,36.3,36.6,79,36.6,79.1c0,0.1-0.7,0.2-1.6,0.2c-0.9,0-1.6-0.1-1.6-0.2
	l-0.9-28.5C30.2,25.7,0.7,23.8,0.6,23.8c-0.7-0.1-0.9-0.2-0.3-0.2c0.5-0.1,1.5-0.1,2.2,0c0.1,0,30.9,2,33.1,27.1l0.5,15.8
	c3.5-13.4,10.6-33.3,22-38.9c8.2-4.1,11.4-1,12,4.9c0.5,5-0.8,12.1-2.2,17.9c-1.5,6.3-4.3,18.3-3.8,25.7c0.4,5.6,3.5,7.4,13-2.8
	c4.5-4.9,8.6-9.3,12.6-13.6c11-11.9,20.8-22.5,35.7-37.9c2.9-3,6.1-5.5,8.9-6.6c2.2-0.9,4.7-1.2,7.3-0.7c1.4,0.3,2.5,1,3.3,2.5
	c0.7,1.3,1.2,3.2,1.3,5.7c-2,25.4-3.6,48-1,70.9c2.3,20.6,6.4,41.6,18,64.9c1-0.5,2.9-1.6,3.1-1.6c0.2,0.2,0.6,1.2,0.8,1.5
	c0.1,0.2,0.4,0.7,0.4,0.9l-3.1,1.7l0.3,0.5c0.8-0.4,2.2-1.2,2.5-1.3c0.3,0.9,2.6,4,3.1,4.6c0.9,1.1,2.7,3.2,3.8,4.2
	c0.4,0.4,0.3,0.3,0.2,1.4c-0.3,2.6-0.3,5.2,0.1,7.7c0.2,1.1,0.5,1.9,0.8,2.7c-0.1,0.1-0.2,0.1-0.3,0.2c-0.3-0.2-4.2-7.7-5-9.2
	c-0.3-0.5-0.1-0.2,0-0.7c0.1-0.3-0.1-0.6-0.3-0.7C169.6,169.9,169.3,169.9,169.2,169.9L169.2,169.9z M355.8,0.2
	c0.2,0.1,0.1,0.8-0.4,1.7c-0.4,0.9-1.1,2.2-2,3.4l0,0c-0.9,1.3-1.7,2.4-2.4,3.1c-1,1-1.9,1.5-2.6,1c-0.2-0.1,0-0.8,0.4-1.7
	c0.4-0.9,1.1-2.2,2-3.4l0,0c0.9-1.3,1.7-2.4,2.4-3.1C354.1,0.1,355.1-0.3,355.8,0.2L355.8,0.2z M354.7,0.3c0-0.1,0-0.1-0.1-0.1
	c-0.1-0.1-0.1,0-0.1,0.2C354.6,0.4,354.6,0.4,354.7,0.3L354.7,0.3z M349.4,9.4c0,0.1,0,0.1,0.1,0.1c0.1,0.1,0.1,0,0.1-0.3
	C349.5,9.3,349.4,9.3,349.4,9.4L349.4,9.4z M274.1,7.6c0.2,0.1,0,0.8-0.4,1.7c-0.4,0.9-1.1,2.2-2,3.4l0,0c-0.9,1.3-1.7,2.4-2.4,3.1
	c-1,1-1.9,1.5-2.6,1c-0.2-0.1,0-0.8,0.4-1.7c0.4-0.9,1.1-2.2,2-3.4l0,0c0.9-1.3,1.7-2.4,2.5-3.1C272.5,7.6,273.5,7.2,274.1,7.6
	L274.1,7.6z M273.1,7.8c0-0.1,0-0.1-0.1-0.1c-0.1-0.1-0.1,0-0.1,0.3C273,7.8,273,7.8,273.1,7.8L273.1,7.8z M267.8,16.8
	c0,0.1,0,0.1,0.1,0.1c0.1,0.1,0.1,0,0.1-0.2C267.9,16.7,267.8,16.8,267.8,16.8L267.8,16.8z M199,34.4c0,0.1-0.7,0.2-1.6,0.2
	c-0.9,0-1.6-0.1-1.6-0.2c0,0-2.5-13.7-18.2-8.4c-6.1,2.1-10.3,7.4-12.6,13.9c-1.3,3.6-2,7.6-2,11.5c-0.1,4,0.5,7.9,1.7,11.4
	c2,5.9,5.9,10.8,11.6,12.9c15.8,5.6,25.3-41.4,25.3-41.5c0-0.1,0.8-0.2,1.6-0.2c0.9,0,1.6,0.1,1.6,0.2c-0.1,0.3-6.3,40.2,12.3,29.3
	c0.3-0.2,11.8-8.8,13.9-36.3c-0.3-2.6-0.3-4.9-0.4-6c0-0.4,0-0.6,0-0.7c-0.2-1.5,3.2-0.9,3.7-0.8c0.1,0,0.2,0.1,0.2,0.1
	c0,2.6-0.1,5-0.3,7.4c0.4,3.5,1.1,7.7,2.7,10.7c1.3,2.4,3.1,4,5.7,2.9c0.3-0.2,0.5-0.2,0.5-0.3c0.2-0.1,1-0.1,1.9-0.1
	c0.9,0,1.5,0.1,1.3,0.2c-0.4,0.2-0.8,0.4-1.2,0.6c-3.5,1.9-13.2,8.1-9.2,18.2c1.5,4,3.7,6.7,6.1,8.3c1.2,0.8,2.5,1.2,3.6,1.4
	c0.1,0,0.7-0.2,1.7-0.6c2.8-1.1,5.6-3.6,8.1-7.5c2.4-3.7,3.7-7.1,4.5-10.1c-0.2-5.9,0.5-10.8,0.5-10.9c0-0.1,0.7-0.2,1.6-0.2
	c0.9,0,1.6,0.1,1.6,0.2c0,0,1.3,4.9-0.8,11.9c-0.1,9.4,1.2,20.9,8.3,20.2l0.1,0c14.1-1.5,19.7-13.6,19.8-13.8
	c-0.3-1.2-0.5-2.4-0.6-3.7c-0.2-4.9,2-9.9,5.4-14c3.4-4.1,8-7.2,12.8-8.6c1.6-0.5,3.4-0.7,5.4-0.8C325.2,31,329,40.2,330,44
	c0.5-1,1.2-1,1.8-0.5c0.6,0.1,1.1,0.5,1.1,1.4l0,0.1l0,0c0,0,0,2-0.6,5c-0.3,3.4-0.4,8.1,0.3,12.2c0.5,3.1,1.5,5.2,2.7,6.4
	c0.9,0.9,1.4,1.3,1.5,1.3c0.8,0,2-0.5,3.4-1.4c3-1.8,5.8-5,7-7.9c1.1-2.5,1.7-5.5,2-9.4c0.1-1.2,0.2-2.5,0.2-3.9
	c-0.3-6-0.1-10.9-0.1-10.9c0-0.1,0.7-0.2,1.6-0.2c0.9,0,1.6,0.1,1.6,0.2c0.1,4.2,0.2,7.8,0.1,10.9c0.2,4.2,0.7,8.9,1.7,12.7
	c0.7,2.6,1.6,4.5,2.8,5.7c1.3,1.4,2.1,1.9,2.6,1.9c1.3-0.1,3-0.8,4.7-1.9c3.3-2.1,6.3-5.4,8.2-8.4c1.1-1.9,2-3.9,2.6-6.2
	c-0.4-3.5-0.5-7.2-0.4-9.9c0-1.5,0.1-2.7,0.3-3.4c0.1-0.4,0.2-0.8,0.3-1.2c-0.1-0.7,0.1-1.1,0.4-1.3c0.8-1.8,1.8-1.3,3,2.1
	c0.2,0.5,0.3,1.6,0.5,3.5c0.3,3.2,0.1,6.1-0.5,8.8c-0.1,0.5-0.2,0.9-0.3,1.3c0.5,4.1,1.4,8.1,2.9,10c1,1.3,2.5,2.5,4.1,3.2
	c1,0.4,2,0.6,2.9,0.3c2.1-0.7,4.3-2.4,6.3-5.4c1.6-2.3,3.1-5.5,4.5-9.7c0.1-4.2,0.7-8.4,1.8-11.3c3.8-10.9,4.1,0.1,4.1,0.2v0
	c-0.8,4.3-1.7,8-2.7,11.1c-0.1,3.2,0.2,6.4,0.8,9.1c0.5,1.9,1.1,3.5,2,4.5c0.5,0.6,0,1.2,0.4,1.1c1.8-0.4,4-2.2,6.8-5.9
	c1.8-2.4,3.5-5.2,4.8-7.9c0.8-1.6,1.5-3.3,2.2-4.7c0.1-0.5,0.1-0.9,0.2-1.3c0.7-3.5,1.3-5.5,1.8-6.3c0.1-0.2,0.2-0.4,0.4-0.4
	c0,0,0.1,0,0.1-0.1c1.5-0.3,2.6-0.4,3-0.1c0.4,0,0.5,0,0.1,0.1c0.1,0.1,0.1,0.2,0.1,0.3c0,0.4-0.1,1.3-0.5,2.5c-0.3,1.1-1,3-2,5.2
	c-0.4,3.4-0.3,8.8,1.2,13.5c0.8,2.7,2.1,5.1,4,6.7c1.6,1.3,3.2,2,4.7,1.8c3.5-0.6,8-2.9,13.7-7.6c0,0,0.1,0,0.1,0
	c-0.1-0.7-0.2-1.4-0.2-2.1c-0.1-2.6,0.6-5.5,1.7-8.1c1.1-2.6,2.8-5,4.6-6.7c1.7-1.5,3.8-2.4,6.3-2.5c10.9-0.3,13.6,8,14.1,10
	c0.6-0.9,1.1-1.9,1.7-3c0-0.1,0.8-0.2,1.7-0.2c0.9,0,1.6,0.1,1.5,0.2c-0.1,0.5-9.2,52.7,24.6,34.2c0.2-0.1,1-0.1,1.9-0.1
	c0.9,0,1.5,0.1,1.3,0.2c-32.3,17.8-33-13.5-31.8-27.7c-1.5,2.1-3,3.9-4.5,5.5c-2.3,2.4-5.2,5.2-8.3,6.5c-4.4,1.9-9,1.9-12.7-2.3
	c-0.5-0.6-0.9-1.2-1.2-1.9c-4.6,3.5-8.5,5.2-11.7,5.8c-5,0.9-8.4,0-10.7-1.9c-1.9-1.6-3.2-4-4-6.7c-0.7-2.1-1-4.4-1.2-6.6
	c-1.1,2-2.3,3.9-3.6,5.7c-2.8,3.7-5.1,5.5-7,6c-3.2,0.8-5.3,0.3-6.6-1.2c-0.9-1-1.6-2.6-2-4.6c-0.2-0.7-0.3-1.4-0.4-2.1
	c-0.5,1-1.1,1.9-1.6,2.7c-2.1,3-4.3,4.7-6.5,5.4c-3.4,1.1-6.5,0.8-9.1-0.3c-1.7-0.7-3.1-1.9-4.2-3.3c-0.8-1-1.4-2.6-1.9-4.5
	l-0.4,0.7c-1.8,3-4.9,6.3-8.2,8.4c-1.9,1.2-4.1,2-6.4,2.2c-3.1,0.2-5.7-0.4-7.3-2.1c-1.1-1.2-2.1-3.1-2.8-5.7l-0.2-0.8
	c-0.2,0.5-0.3,0.9-0.5,1.4c-1.3,2.9-4,6.1-7.1,8c-1.5,0.9-3.3,1.5-5.2,1.6c-2.7,0.1-4.8-0.3-6.1-1.6c-1.2-1.2-2.2-3.3-2.7-6.5
	c-0.2-1-0.3-2.1-0.4-3.1c-1.7,3-4.1,6.2-7.6,8.9c-2.4,1.9-4.9,3.1-7.2,3.8c-4.4,1.2-8.6,1.1-12.3-0.3c-2.8-1-5.4-2.9-7.4-5.5
	c-1-1.3-1.8-2.7-2.5-4.2c-2.8,3.8-8.6,9.6-18.5,10.7l-0.2,0c-8.4,0.9-11.8-6.5-13-14.5c-0.5,1-1.1,2.1-1.8,3.2
	c-2.5,3.9-5.3,6.4-8.2,7.5c-1.9,0.7-4.3,1-7,0.7c-1.7-0.2-3.2-0.7-4.6-1.5c-2.5-1.6-4.6-4.4-6.2-8.3c-3.3-8.5,3.1-14.3,7.3-17.1
	c-2.8-0.2-4.8-1.9-6.2-4.5c-0.2-0.5-0.5-1-0.7-1.5c-3.6,20.3-12.5,26.9-12.8,27l0,0c-15.5,9.1-19.1-3.4-19.5-14.8
	c-4.8,13.9-13.8,32-27.6,27.1c-5.8-2.1-9.7-7-11.7-12.9c-1.2-3.6-1.8-7.5-1.7-11.5c0.1-4,0.7-7.9,2-11.6c2.3-6.5,6.6-11.9,12.8-14
	C196.2,18.5,199,34.3,199,34.4L199,34.4z M294.1,58.4L294.1,58.4c0.8,2.9,2.1,5.4,3.7,7.5c2,2.5,4.5,4.4,7.2,5.4
	c2,0.7,4.1,0.8,6.1,0.3c2.3-0.6,4.7-1.9,7.1-3.7c7.3-5.6,9.9-13.1,10.9-17.9c0.1-1.1,0.2-2.1,0.3-3c0.1-0.5,0.1-0.9,0.2-1.2
	c-0.2,0-0.5,0-0.8,0c-0.9,0-1.6-0.1-1.6-0.2c0,0-2.3-14.2-12.3-13.9c-0.9,0-2,0.2-3.3,0.6c-4.7,1.3-9.3,4.5-12.6,8.5
	c-3.4,4.1-5.5,9-5.4,13.9C293.6,55.9,293.8,57.2,294.1,58.4z"/>
</svg>
