<?xml version="1.0" encoding="utf-8"?>
<!-- Generator: Adobe Illustrator 24.2.0, SVG Export Plug-In . SVG Version: 6.00 Build 0)  -->
<svg version="1.1" id="logotipoFreedomeE" xmlns="http://www.w3.org/2000/svg" xmlns:xlink="http://www.w3.org/1999/xlink" x="0px"
	 y="0px" viewBox="0 0 640 183.5" style="enable-background:new 0 0 640 183.5;" xml:space="preserve">
<path d="M38.86,183.45c-2.03-0.65-2.55-2.18-2.43-4.11c0.78-12.57,1.6-25.13,2.33-37.71c0.39-6.79,0.62-13.6,0.91-20.39
	c0.03-0.74,0.03-1.49-0.04-2.22c-0.38-3.84-2.22-5.32-5.88-4.01c-5.99,2.14-11.84,4.7-17.75,7.07c-1.05,0.42-2.12,0.84-3.21,1.14
	c-1.53,0.42-2.65-0.22-3.28-1.62c-0.58-1.29-0.5-2.59,0.71-3.45c2.74-1.96,5.52-3.86,8.35-5.68c0.55-0.35,1.41-0.19,2.12-0.32
	c2.41-0.45,4.98-0.54,7.19-1.47c2.82-1.2,5.43-2.97,7.99-4.7c3.49-2.36,5.04-6,5.35-10c0.83-10.6,1.41-21.23,2.1-31.84
	c0.21-3.29,0.46-6.58,0.72-9.87c0.16-1.98,1.39-2.56,3.22-2.44c1.89,0.12,2.64,1.22,2.56,2.94c-0.32,6.86-0.71,13.72-1.06,20.58
	c-0.31,6.12-0.74,12.24-0.89,18.36c-0.14,5.89,1.92,7.32,7.48,5.27c11.71-4.33,23.25-9.15,35.09-13.09
	c16.36-5.44,32.92-10.28,49.41-15.31c1.17-0.36,2.5-0.33,3.74-0.22c1.18,0.1,2.34,0.52,3.58,0.82c0.78-1.3,1.47-2.61,2.32-3.81
	c2.46-3.46,5.08-3.42,7.53,0.02c1.6,2.25,3.21,4.49,4.89,6.68c0.65,0.85,1.47,1.57,2.28,2.28c3.92,3.46,8.36,4.16,12.86,1.56
	c3.24-1.87,6.11-4.37,9.1-6.65c0.35-0.26,0.41-0.94,0.54-1.44c2.22-8.27,5.97-15.71,12.18-21.73c2.19-2.13,4.61-3.95,7.79-4.36
	c3.67-0.48,6.19,1.63,6.28,5.31c0.11,4.59-1.39,8.79-3.73,12.6c-2.03,3.31-4.46,6.39-6.87,9.46c-1.51,1.93-3.25,2.16-4.7,0.96
	c-1.46-1.2-1.6-3.54-0.27-5.29c1.75-2.31,3.72-4.47,5.21-6.93c1.54-2.53,2.62-5.33,3.9-8.02c-0.3-0.21-0.61-0.43-0.91-0.64
	c-1.83,1.9-3.86,3.65-5.44,5.74c-3.72,4.93-6.42,10.39-7.57,16.53c-0.13,0.72-0.22,1.46-0.26,2.2c-0.28,4.88,0.78,5.75,5.96,4.7
	c3.97-0.81,7.88-2.24,11.62-3.84c14.29-6.14,27.41-14.34,40.09-23.26c1.17-0.83,1.95-2.2,2.96-3.28c2.74-2.92,5.59-5.7,9.83-6.26
	c3.41-0.45,5.91,1.69,6.05,5.14c0.17,4.3-1.07,8.31-3.24,11.9c-2.15,3.55-4.67,6.9-7.22,10.19c-1.7,2.19-3.48,2.39-4.98,0.98
	c-1.39-1.3-1.17-3.64,0.14-5.51c2.54-3.62,4.95-7.33,7.3-11.07c0.66-1.05,0.9-2.35,1-3.89c-0.67,0.44-1.43,0.79-1.99,1.35
	c-6.81,6.78-11.21,14.72-11.63,24.52c-0.11,2.56,0.86,3.7,3.38,3.25c3.99-0.72,8.14-1.46,11.77-3.14
	c8.47-3.92,16.69-8.38,24.97-12.69c2.29-1.19,3.86-1.13,4.95,0.54c1.22,1.86,0.84,4.36-1.09,5.51
	c-10.77,6.38-21.64,12.6-33.78,16.03c-2.8,0.79-5.84,1.17-8.74,1.02c-4.64-0.24-7.96-4.54-7.89-10.1c0.04-3.13,0.8-6.24,1.25-9.36
	c0.08-0.57,0.27-1.13,0.43-1.8c-5.91,3.44-11.59,6.9-17.42,10.1c-8.02,4.39-16.18,8.54-25.17,10.59c-2.45,0.56-5.13,0.89-7.58,0.51
	c-4.4-0.69-6.49-3.94-7.3-8.47c-0.71,0.48-1.28,0.87-1.85,1.26c-3.79,2.66-7.79,4.74-12.56,4.98c-4.3,0.21-7.88-1.41-11.06-4.11
	c-1.39-1.18-2.62-2.53-3.95-3.77c-2.01-1.88-3.09-1.84-4.43,0.54c-2.22,3.92-4.19,7.97-6.36,11.92c-0.87,1.57-1.79,3.24-3.09,4.4
	c-0.84,0.75-2.48,1-3.64,0.79c-0.5-0.09-1.04-1.9-0.99-2.9c0.2-3.83,0.64-7.64,0.99-11.46c0.11-1.2,0.2-2.4,0.33-3.93
	c-4.17,1.2-8.17,2.18-12.06,3.49C110.31,86.2,93.36,92.01,76.4,97.8c-5.65,1.93-11.27,3.95-16.93,5.85
	c-8.26,2.76-12.74,8.47-13.31,17.12c-0.64,9.74-1.07,19.5-1.66,29.25c-0.61,9.95-1.34,19.88-1.95,29.83
	c-0.1,1.63-0.61,2.85-2.06,3.61C39.94,183.45,39.4,183.45,38.86,183.45z"/>
<path d="M640,99.66c-15.17,0.01-30.35,0.03-45.52,0.03c-0.13,0-0.25-0.07-0.51-0.15c0-26.03,0-52.09,0-78.42
	c15.34,0,30.68,0,46.03,0c0,6.07,0,12.14,0,18.22c-8.13,0-16.26,0-24.62,0c0,3.42,0.06,6.5-0.03,9.58
	c-0.04,1.36,0.46,1.72,1.75,1.71c5.66-0.06,11.32-0.02,16.99-0.02c1.39,0,2.79,0,4.23,0c0,6,0,11.76,0,17.82
	c-7.69,0-15.25,0-22.83,0c0,4.32,0,8.34,0,12.61c8.25,0,16.38,0,24.51,0C640,87.24,640,93.45,640,99.66z"/>
<path d="M0,67.68c0.7-1.19,1.48-2.33,2.08-3.56c3.4-6.97,9.27-11.56,15.63-15.36c13.96-8.35,28.82-14.63,44.79-18.12
	c10.59-2.32,21.3-3.16,32.09-2.56c5.76,0.32,11.27,2.23,16.26,4.97c2.58,1.42,4.51,4.16,6.49,6.51c1.07,1.27,0.73,2.8-0.68,3.9
	c-1.49,1.15-3.05,1.06-4.09-0.41c-5.47-7.76-13.73-8.87-22.19-9.29c-10.86-0.55-21.39,1.61-31.81,4.4
	c-14.1,3.77-27.56,9.05-39.75,17.22c-4.46,2.99-8.58,6.31-10.59,11.56c-0.14,0.37-0.38,0.71-0.6,1.05C5.27,71.81,4.01,71.99,0.82,69
	C0.59,68.78,0.28,68.65,0,68.49C0,68.22,0,67.95,0,67.68z"/>
<path d="M429.31,64.16c1.38-1.16,2.68-2.32,4.07-3.38c3.4-2.6,6.35-2.47,9.35,0.57c1.6,1.62,2.95,3.5,4.41,5.26
	c0.55,0.66,1.09,1.33,1.79,2.18c1.51-1.39,2.88-2.65,4.25-3.91c4.37-4.03,8.17-4.19,12.71-0.32c3.53,3.02,6.81,6.34,10.39,9.3
	c7.51,6.19,16.05,7.92,25.37,5.1c8.8-2.66,17.3-6,24.41-12.07c0.68-0.58,1.23-1.57,1.41-2.45c1.63-8.23,5.1-15.31,12.4-19.99
	c5.49-3.52,11.65-4.35,18.01-4.07c5.19,0.23,10.13,1.38,14.35,4.63c5.93,4.56,8.53,10.91,9.47,18.08c0.63,4.76,0.35,9.5-0.43,14.35
	c-10.93,0-21.7,0-32.73,0c0.1,2.81,1.59,4.7,3.77,5.54c2.58,0.99,5.41,1.64,8.16,1.79c5.98,0.33,11.74-1.01,17.53-3.49
	c0.45,3.6,0.88,7.03,1.3,10.45c0.04,0.33,0.02,0.68,0.06,1.01c0.52,4.55,0.55,4.64-3.9,5.88c-10.27,2.87-20.63,3.75-31.02,0.71
	c-10.41-3.04-15.59-10.94-16.97-21.14c-0.17-1.27-0.31-2.54-0.49-3.99c-1.84,1.11-3.6,2.2-5.37,3.24
	c-7.56,4.44-15.67,7.5-24.34,8.72c-9.71,1.36-18.2-1.77-25.56-8.08c-3.07-2.63-5.94-5.49-8.92-8.22c-2.57-2.35-3.93-2.21-6.23,0.39
	c-1.07,1.2-2.24,2.36-3.54,3.3c-3.69,2.7-7.52,2.15-10.23-1.56c-1.61-2.21-2.91-4.64-4.35-6.98c-4.91,2.87-8.16,7.25-11.42,11.62
	c-1.57,2.11-3.13,4.22-4.72,6.32c-1.06,1.41-2.31,2.27-4.15,1.3c-1.63-0.87-1.99-2.06-1.24-4.31c0.52-1.58,1.05-3.15,1.72-5.17
	c-1.75,0.65-3.16,1.17-4.55,1.7c-5.58,2.13-11.15,4.24-17.14,5.07c-7.3,1.01-14.47,0.34-21.67-0.93c-2.46-0.43-5.08-0.53-7.56-0.23
	c-5.6,0.69-6.59-0.03-6.62-5.67c0-0.27,0-0.53,0-1.13c-1.44,0.41-2.76,0.73-4.04,1.17c-8.92,3.07-18,4.26-27.4,2.76
	c-4.53-0.72-8.05,1.38-11.03,4.68c-1.43,1.59-2.94,3.22-4.71,4.38c-3.49,2.29-7.15,0.77-7.42-2.91c-0.06-0.89,0.29-1.84,0.56-2.73
	c1.41-4.62-0.18-8.44-3.14-11.9c-1.88-2.2-3.93-4.28-5.57-6.65c-4.29-6.22-5.03-13.3-3.93-20.51c1.66-10.89,6.02-20.66,13.76-28.63
	c8.03-8.27,17.53-13.55,29.49-13.16c6.07,0.2,10.81,4.53,11.73,10.54c1.03,6.71-0.52,13.12-2.32,19.47
	c-3.04,10.69-8.5,20.3-13.67,30.04c-1.16,2.19-2.39,4.38-3.3,6.68c-1.09,2.75-0.05,4.5,2.91,4.86c2.66,0.32,5.38,0.52,8.05,0.33
	c6.15-0.42,11.97-2.23,17.66-4.57c2.51-1.03,3.55-2.67,4.03-5.21c0.89-4.65,3.26-8.26,8.11-9.62c2.48-0.7,4.95-0.46,7.27,0.69
	c2.8,1.38,3.89,3.99,3.08,7.77c-0.68,3.14-1.58,6.23-2.46,9.33c-0.99,3.49-0.18,4.62,3.46,5.01c8.75,0.94,17.32,0.52,25.61-2.8
	c4.81-1.93,9.09-4.67,12.94-8.11c0.7-0.63,1.4-1.27,2.15-1.84c1.99-1.48,2.92-1.43,4.82,0.17
	C428.22,63.23,428.73,63.66,429.31,64.16z M323.28,64.44c0.19-0.14,0.33-0.2,0.4-0.3c7.61-11.87,14.16-24.24,17.97-37.91
	c1.29-4.63,2.2-9.29,1.62-14.12c-0.41-3.44-2.6-5.59-6.04-5.97c-4.55-0.51-8.86,0.49-12.87,2.53c-11.56,5.89-26.39,22.48-23.53,42.8
	c0.84,5.94,3.51,10.83,8.73,14.08c2.38,1.48,4.02,1.29,5.99-0.6c0.73-0.7,1.36-1.5,2.1-2.17c1.3-1.17,2.66-1.16,3.96,0.05
	C322.16,63.32,322.67,63.85,323.28,64.44z M561.27,63.65c0.55-4.78-1.54-7.77-5.52-8.04c-3.99-0.27-7.28,3.33-7.2,8.04
	C552.74,63.65,556.94,63.65,561.27,63.65z M369.86,61c1.84,0.82,3.51,1.57,5.5,2.45c-0.36-2.02,0.58-4.22-1.71-4.99
	C371.86,57.87,370.66,59.08,369.86,61z"/>
</svg>
