<?xml version="1.0" encoding="utf-8"?>
<svg version="1.1" id="iconFreedomeE" xmlns="http://www.w3.org/2000/svg" xmlns:xlink="http://www.w3.org/1999/xlink" x="0px"
	 y="0px" viewBox="0 0 81 81" style="enable-background:new 0 0 81 81;" xml:space="preserve">
<circle class="st0" cx="40.5" cy="40.5" r="42.5"/>
<path id="E" class="st1" d="M63.5,48.6c0,2.5,0,5.1,0,7.6c-6.2,0-12.4,0-18.6,0c-0.1,0-0.1-0.1-0.2-0.1c0-10.6,0-21.3,0-31.9
	c6.3,0,12.5,0,18.8,0c0,2.5,0,5,0,7.4c-3.3,0-6.6,0-10,0c0,1.4,0,2.7,0,3.9c0,0.6,0.2,0.7,0.7,0.7c2.3,0,4.6,0,6.9,0
	c0.6,0,1.1,0,1.7,0c0,2.4,0,4.8,0,7.3c-3.1,0-6.2,0-9.3,0c0,1.8,0,3.4,0,5.1C56.9,48.6,60.2,48.6,63.5,48.6z"/>
<path id="e" class="st1" d="M28.5,56.8c-1.1-0.2-2.3-0.3-3.4-0.6c-4.5-1.2-7.1-4.4-7.6-9.1c-0.2-2.7-0.2-5.3,0.7-7.8
	c1.5-4.3,5-7.1,9.6-7.3c1.7-0.1,3.5,0,5.1,0.4c3.9,1,5.8,4,6.6,7.7c0.5,2.3,0.4,4.6,0,6.9c-4.5,0-8.9,0-13.4,0
	c0.1,1.3,0.9,2,1.8,2.4c1.3,0.6,2.7,0.6,4.1,0.6c2.1-0.1,4.1-0.6,6.1-1.4c0.2,1.5,0.4,2.9,0.5,4.3c0,0.2,0,0.3,0,0.5
	c0.2,2.1,0.5,1.7-1.4,2.2c-1.8,0.5-3.6,0.7-5.4,1c-0.2,0-0.4,0.1-0.6,0.1C30.4,56.8,29.5,56.8,28.5,56.8z M26.2,41.5
	c1.7,0,3.5,0,5.2,0c0.2-2-0.7-3.3-2.4-3.3C27.4,38.2,26.2,39.7,26.2,41.5z"/>
</svg>
