<?xml version="1.0" encoding="utf-8"?>
<!-- Generator: Adobe Illustrator 24.2.0, SVG Export Plug-In . SVG Version: 6.00 Build 0)  -->
<svg version="1.1" id="Layer_1" xmlns="http://www.w3.org/2000/svg" xmlns:xlink="http://www.w3.org/1999/xlink" x="0px" y="0px"
	 viewBox="0 0 85 85" style="enable-background:new 0 0 85 85;" xml:space="preserve">
<style type="text/css">
	.st0{fill:none;stroke:#FFFFFF;stroke-miterlimit:10;}
	.st1{fill:#FFFFFF;}
</style>
<circle class="st0" cx="42" cy="42.8" r="28.3"/>
<path class="st1" d="M56.4,30.9c-1.3,0.8-2.7,1.3-4,1.5c-2.3-2.7-6.3-2.7-8.8-0.4c-1.5,1.5-2.3,3.8-1.7,5.9c-5.2-0.2-9.8-2.5-13-6.5
	c-1.7,2.9-1,6.5,1.9,8.4c-1,0-1.9-0.4-2.9-0.8c0,3.1,2.1,5.6,5.2,6.1c-0.6,0.2-1.2,0.2-1.7,0.2c-0.4,0-0.8,0-1.2,0
	c1,2.7,3.3,4.4,5.9,4.4c-2.3,1.7-5,2.7-7.9,2.7c-0.6,0-1-0.2-1.5-0.2c2.9,1.9,6.1,2.9,9.6,2.9c11.7,0,18-9.6,18-17.8
	c0-0.2,0-0.6,0-0.8c1.2-1,2.3-2.1,3.1-3.5c-1.2,0.6-2.3,1-3.8,1.2C54.9,33.5,55.8,32.4,56.4,30.9z"/>
</svg>
