<?xml version="1.0" encoding="utf-8"?>
<!-- Generator: Adobe Illustrator 24.2.0, SVG Export Plug-In . SVG Version: 6.00 Build 0)  -->
<svg version="1.1" id="Layer_1" xmlns="http://www.w3.org/2000/svg" xmlns:xlink="http://www.w3.org/1999/xlink" x="0px" y="0px"
	 viewBox="0 0 85 85" style="enable-background:new 0 0 85 85;" xml:space="preserve">
<style type="text/css">
	.st0{fill:none;stroke:#FFFFFF;stroke-miterlimit:10;}
	.st1{fill:#FFFFFF;}
</style>
<circle class="st0" cx="42.5" cy="42.5" r="28.3"/>
<g>
	<circle class="st1" cx="42.5" cy="42.5" r="6.3"/>
	<path class="st1" d="M51.8,27.2H33.2c-3.3,0-6,2.7-6,6v18.7c0,3.3,2.7,6,6,6h18.7c3.3,0,6-2.7,6-6V33.2
		C57.8,29.8,55.2,27.2,51.8,27.2z M42.5,52c-5.3,0-9.5-4.2-9.5-9.5c0-5.3,4.2-9.5,9.5-9.5s9.5,4.2,9.5,9.5C52,47.8,47.8,52,42.5,52z
		 M52.7,35c-1.3,0-2.3-1-2.3-2.3s1-2.3,2.3-2.3s2.3,1,2.3,2.3S54,35,52.7,35z"/>
</g>
</svg>
