<?xml version="1.0" encoding="utf-8"?>
<!-- Generator: Adobe Illustrator 24.2.0, SVG Export Plug-In . SVG Version: 6.00 Build 0)  -->
<svg version="1.1" id="Layer_1" xmlns="http://www.w3.org/2000/svg" xmlns:xlink="http://www.w3.org/1999/xlink" x="0px" y="0px"
	 viewBox="0 0 85 85" style="enable-background:new 0 0 85 85;" xml:space="preserve">
<style type="text/css">
	.st0{fill:none;stroke:#FFFFFF;stroke-miterlimit:10;}
	.st1{fill:#FFFFFF;}
</style>
<circle class="st0" cx="42.5" cy="42.5" r="28.3"/>
<rect x="27.2" y="37.2" class="st1" width="6.6" height="19.9"/>
<path class="st1" d="M30.5,34.5L30.5,34.5c-2,0-3.2-1.7-3.2-3.3c0-1.9,1.2-3.3,3.4-3.3s3.2,1.4,3.2,3.3
	C33.9,32.8,32.7,34.5,30.5,34.5z"/>
<path class="st1" d="M57.8,57.2h-6.6V46.4c0-2.8-0.8-4.4-3.3-4.4c-1.9,0-3,1.1-3.3,2.5c-0.3,0.3-0.3,0.8-0.3,1.7v11.1h-6.6
	c0,0,0-18,0-19.9h6.6V40c0.8-1.4,2.2-3.3,5.8-3.3c4.4,0,7.7,2.8,7.7,8.8V57.2z"/>
</svg>
