<?xml version="1.0" encoding="utf-8"?>
<!-- Generator: Adobe Illustrator 24.2.0, SVG Export Plug-In . SVG Version: 6.00 Build 0)  -->
<svg version="1.1" id="Layer_1" xmlns="http://www.w3.org/2000/svg" xmlns:xlink="http://www.w3.org/1999/xlink" x="0px" y="0px"
	 viewBox="0 0 85 85" style="enable-background:new 0 0 85 85;" xml:space="preserve">
<style type="text/css">
	.st0{fill:none;stroke:#FFFFFF;stroke-miterlimit:10;}
	.st1{fill:#FFFFFF;}
</style>
<circle class="st0" cx="42.5" cy="42.5" r="28.3"/>
<path class="st1" d="M57.8,47.9c0,1.7,0,3.4,0,5.1c-4.1,0-8.2,0-12.4,0c0,0-0.1,0-0.1-0.1c0-7.1,0-14.2,0-21.3c4.2,0,8.4,0,12.5,0
	c0,1.7,0,3.3,0,5c-2.2,0-4.4,0-6.7,0c0,0.9,0,1.8,0,2.6c0,0.4,0.1,0.5,0.5,0.5c1.5,0,3.1,0,4.6,0c0.4,0,0.8,0,1.1,0
	c0,1.6,0,3.2,0,4.8c-2.1,0-4.1,0-6.2,0c0,1.2,0,2.3,0,3.4C53.4,47.9,55.6,47.9,57.8,47.9z"/>
<path class="st1" d="M34.5,53.4c-0.7-0.1-1.5-0.2-2.2-0.4c-3-0.8-4.8-2.9-5-6c-0.2-1.8-0.1-3.5,0.5-5.2c1-2.9,3.4-4.7,6.4-4.8
	c1.1,0,2.3,0,3.4,0.3c2.6,0.7,3.8,2.6,4.4,5.1c0.3,1.5,0.3,3,0,4.6c-3,0-5.9,0-8.9,0c0.1,0.8,0.6,1.3,1.2,1.6
	c0.9,0.4,1.8,0.4,2.7,0.4c1.4-0.1,2.7-0.4,4.1-1c0.1,1,0.2,1.9,0.4,2.8c0,0.1,0,0.2,0,0.3c0.2,1.4,0.4,1.1-1,1.5
	c-1.2,0.3-2.4,0.5-3.6,0.7c-0.1,0-0.3,0.1-0.4,0.1C35.8,53.4,35.1,53.4,34.5,53.4z M33,43.2c1.2,0,2.3,0,3.5,0
	c0.1-1.3-0.5-2.2-1.6-2.2C33.8,41,32.9,41.9,33,43.2z"/>
</svg>
