<?xml version="1.0" encoding="utf-8"?>
<!-- Generator: Adobe Illustrator 24.2.0, SVG Export Plug-In . SVG Version: 6.00 Build 0)  -->
<svg version="1.1" id="Layer_1" xmlns="http://www.w3.org/2000/svg" xmlns:xlink="http://www.w3.org/1999/xlink" x="0px" y="0px"
	 viewBox="0 0 85 85" style="enable-background:new 0 0 85 85;" xml:space="preserve">
<style type="text/css">
	.st0{fill:none;stroke:#FFFFFF;stroke-miterlimit:10;}
	.st1{fill:#FFFFFF;}
</style>
<circle class="st0" cx="42.5" cy="42.5" r="28.3"/>
<path class="st1" d="M56,48.8l-5.7-1.7c-0.8-0.2-1.6,0-2.1,0.6l-1.3,1.3c-0.6,0.6-1.4,0.8-2.3,0.5c-2.7-1-8.4-6.1-9.7-8.7
	c-0.4-0.7-0.4-1.7,0.2-2.3l1.1-1.6c0.5-0.6,0.6-1.4,0.3-2.2l-2.4-5.4c-0.5-1-1.7-1.6-2.8-1c-0.2,0.1-0.4,0.2-0.5,0.3
	c-1.6,1.3-3.4,3.3-3.6,5.6c-0.4,3.9,1.2,9,7.8,15c7.4,7,13.5,7.9,17.4,6.9c2.2-0.5,3.9-2.7,5.2-4.4c0.6-1,0.3-2.3-0.7-3
	C56.4,49,56.2,48.9,56,48.8z"/>
</svg>
