<?xml version="1.0" encoding="utf-8"?>
<!-- Generator: Adobe Illustrator 24.2.0, SVG Export Plug-In . SVG Version: 6.00 Build 0)  -->
<svg version="1.1" id="Layer_1" xmlns="http://www.w3.org/2000/svg" xmlns:xlink="http://www.w3.org/1999/xlink" x="0px" y="0px"
	 viewBox="0 0 85 85" style="enable-background:new 0 0 85 85;" xml:space="preserve">
<style type="text/css">
	.st0{fill:none;stroke:#FFFFFF;stroke-miterlimit:10;}
	.st1{fill:#FFFFFF;}
</style>
<circle class="st0" cx="42.5" cy="42.5" r="28.3"/>
<path class="st1" d="M49.3,28.7c-2.3-1.1-4.9-1.6-7.5-1.5c-8.4,0.4-14.9,7.6-14.5,16c0.1,2.1,0.6,4.2,1.7,6.1l-1.7,7.8
	c-0.1,0.3,0.2,0.6,0.5,0.7c0.1,0,0.2,0,0.3,0l7.7-1.8c7.5,3.8,16.7,0.6,20.5-6.9S56.8,32.4,49.3,28.7z M50.7,47.3
	c-0.6,0.9-1.6,2-2.7,2.3c-2,0.5-5.2,0.1-9-3.6c-3.4-3.1-4.2-5.7-4-7.8c0.1-1.2,1.1-2.2,1.9-2.9c0.1-0.1,0.2-0.1,0.3-0.2
	c0.6-0.3,1.2,0,1.5,0.5l1.2,2.8c0.2,0.4,0.1,0.8-0.2,1.1L39,40.4c-0.3,0.3-0.3,0.8-0.1,1.2c0.7,1.3,3.7,4,5.1,4.5
	c0.4,0.2,0.9,0.1,1.2-0.3l0.7-0.7c0.3-0.3,0.6-0.4,1.1-0.3l3,0.9c0.1,0.1,0.2,0.1,0.4,0.1C50.8,46.1,51,46.8,50.7,47.3z"/>
</svg>
