<?xml version="1.0" encoding="utf-8"?>
<!-- Generator: Adobe Illustrator 24.2.0, SVG Export Plug-In . SVG Version: 6.00 Build 0)  -->
<svg version="1.1" id="Layer_1" xmlns="http://www.w3.org/2000/svg" xmlns:xlink="http://www.w3.org/1999/xlink" x="0px" y="0px"
	 viewBox="0 0 400 61" style="enable-background:new 0 0 400 61;" xml:space="preserve">
<style type="text/css">
	.st0{fill:#FFFFFF;}
</style>
<g>
	<path class="st0" d="M50.5,37.9H38.6c0.2,0.8,0.7,1.5,1.4,1.9c0.7,0.5,1.6,0.7,2.6,0.7c0.8,0,1.5-0.1,2-0.3
		c0.6-0.2,1.2-0.6,1.7-1.1l3,3.1c-1.6,1.8-3.9,2.7-7,2.7c-1.9,0-3.6-0.4-5-1.1c-1.4-0.7-2.6-1.7-3.4-3c-0.8-1.3-1.2-2.7-1.2-4.4
		c0-1.6,0.4-3.1,1.2-4.3c0.8-1.3,1.8-2.3,3.2-3c1.4-0.7,2.9-1.1,4.6-1.1c1.6,0,3.1,0.3,4.4,1c1.3,0.7,2.4,1.6,3.2,2.9
		c0.8,1.3,1.2,2.8,1.2,4.5C50.6,36.5,50.5,37,50.5,37.9z M39.6,32.8c-0.6,0.5-1,1.2-1.1,2.1h6.7c-0.2-0.9-0.5-1.5-1.1-2.1
		c-0.6-0.5-1.3-0.8-2.2-0.8C41,32.1,40.2,32.3,39.6,32.8z"/>
	<path class="st0" d="M70.3,28.3v16.3h-5.5v-1.7c-0.6,0.7-1.3,1.2-2.2,1.5c-0.8,0.3-1.7,0.5-2.7,0.5c-2.1,0-3.8-0.6-5.1-1.9
		c-1.3-1.2-1.9-3.1-1.9-5.6v-9.1h5.7v8.2c0,1.2,0.2,2.1,0.7,2.7c0.5,0.6,1.1,0.8,2,0.8c0.9,0,1.6-0.3,2.2-0.9
		c0.6-0.6,0.9-1.6,0.9-2.9v-7.9H70.3z"/>
	<path class="st0" d="M75.7,44.4c-1.3-0.3-2.4-0.7-3.2-1.2l1.7-3.9c0.7,0.5,1.6,0.8,2.7,1.1c1,0.3,2,0.4,3,0.4c0.9,0,1.6-0.1,2-0.3
		c0.4-0.2,0.6-0.5,0.6-0.8c0-0.4-0.2-0.6-0.7-0.8c-0.5-0.2-1.2-0.3-2.2-0.4c-1.3-0.2-2.4-0.4-3.3-0.6c-0.9-0.3-1.7-0.7-2.4-1.4
		c-0.7-0.7-1-1.7-1-3c0-1,0.3-2,0.9-2.8c0.6-0.8,1.5-1.5,2.7-1.9c1.2-0.5,2.6-0.7,4.3-0.7c1.2,0,2.4,0.1,3.5,0.4
		c1.2,0.2,2.1,0.6,2.9,1l-1.7,3.9c-1.4-0.8-3-1.2-4.7-1.2c-0.9,0-1.6,0.1-2,0.3c-0.4,0.2-0.6,0.5-0.6,0.8c0,0.4,0.2,0.6,0.7,0.8
		c0.5,0.2,1.2,0.3,2.3,0.5c1.3,0.2,2.5,0.4,3.3,0.7s1.7,0.7,2.3,1.4c0.7,0.7,1,1.7,1,2.9c0,1-0.3,1.9-0.9,2.8
		c-0.6,0.8-1.5,1.5-2.8,1.9c-1.2,0.5-2.7,0.7-4.4,0.7C78.4,44.9,77,44.7,75.7,44.4z"/>
	<path class="st0" d="M93.6,43.8c-1.4-0.7-2.5-1.7-3.3-3c-0.8-1.3-1.2-2.7-1.2-4.4c0-1.6,0.4-3.1,1.2-4.3c0.8-1.3,1.9-2.3,3.3-3
		c1.4-0.7,3-1.1,4.7-1.1c1.8,0,3.4,0.4,4.8,1.1c1.4,0.7,2.5,1.7,3.3,3c0.8,1.3,1.2,2.7,1.2,4.4c0,1.6-0.4,3.1-1.2,4.4
		c-0.8,1.3-1.9,2.3-3.3,3c-1.4,0.7-3,1.1-4.8,1.1C96.6,44.9,95,44.5,93.6,43.8z M100.8,39.3c0.6-0.7,1-1.7,1-2.9
		c0-1.2-0.3-2.2-1-2.8c-0.6-0.7-1.5-1-2.5-1c-1,0-1.8,0.3-2.5,1c-0.6,0.7-1,1.6-1,2.8c0,1.2,0.3,2.2,1,2.9c0.6,0.7,1.5,1,2.5,1
		C99.3,40.3,100.2,40,100.8,39.3z"/>
	<path class="st0" d="M127.2,28.3v16.3h-5.5v-1.7c-0.6,0.7-1.3,1.2-2.2,1.5c-0.8,0.3-1.7,0.5-2.7,0.5c-2.1,0-3.8-0.6-5.1-1.9
		c-1.3-1.2-1.9-3.1-1.9-5.6v-9.1h5.7v8.2c0,1.2,0.2,2.1,0.7,2.7c0.5,0.6,1.1,0.8,2,0.8c0.9,0,1.6-0.3,2.2-0.9s0.9-1.6,0.9-2.9v-7.9
		H127.2z"/>
	<path class="st0" d="M350,28.3v16.3h-5.5v-1.7c-0.6,0.7-1.3,1.2-2.2,1.5c-0.8,0.3-1.7,0.5-2.7,0.5c-2.1,0-3.8-0.6-5.1-1.9
		c-1.3-1.2-1.9-3.1-1.9-5.6v-9.1h5.7v8.2c0,1.2,0.2,2.1,0.7,2.7c0.5,0.6,1.1,0.8,2,0.8c0.9,0,1.6-0.3,2.2-0.9
		c0.6-0.6,0.9-1.6,0.9-2.9v-7.9H350z"/>
	<path class="st0" d="M355.4,44.4c-1.3-0.3-2.4-0.7-3.2-1.2l1.7-3.9c0.7,0.5,1.6,0.8,2.7,1.1s2,0.4,3,0.4c0.9,0,1.6-0.1,2-0.3
		c0.4-0.2,0.6-0.5,0.6-0.8c0-0.4-0.2-0.6-0.7-0.8c-0.5-0.2-1.2-0.3-2.2-0.4c-1.3-0.2-2.4-0.4-3.3-0.6c-0.9-0.3-1.7-0.7-2.4-1.4
		c-0.7-0.7-1-1.7-1-3c0-1,0.3-2,0.9-2.8c0.6-0.8,1.5-1.5,2.7-1.9c1.2-0.5,2.6-0.7,4.3-0.7c1.2,0,2.4,0.1,3.5,0.4
		c1.2,0.2,2.1,0.6,2.9,1l-1.7,3.9c-1.4-0.8-3-1.2-4.7-1.2c-0.9,0-1.6,0.1-2,0.3c-0.4,0.2-0.6,0.5-0.6,0.8c0,0.4,0.2,0.6,0.7,0.8
		c0.5,0.2,1.2,0.3,2.3,0.5c1.3,0.2,2.5,0.4,3.3,0.7c0.9,0.3,1.7,0.7,2.3,1.4c0.7,0.7,1,1.7,1,2.9c0,1-0.3,1.9-0.9,2.8
		c-0.6,0.8-1.5,1.5-2.8,1.9c-1.2,0.5-2.7,0.7-4.4,0.7C358.1,44.9,356.7,44.7,355.4,44.4z"/>
	<path class="st0" d="M386.5,37.9h-11.9c0.2,0.8,0.7,1.5,1.4,1.9c0.7,0.5,1.6,0.7,2.6,0.7c0.8,0,1.5-0.1,2-0.3
		c0.6-0.2,1.2-0.6,1.7-1.1l3,3.1c-1.6,1.8-3.9,2.7-7,2.7c-1.9,0-3.6-0.4-5-1.1c-1.4-0.7-2.6-1.7-3.4-3c-0.8-1.3-1.2-2.7-1.2-4.4
		c0-1.6,0.4-3.1,1.2-4.3c0.8-1.3,1.8-2.3,3.2-3c1.4-0.7,2.9-1.1,4.6-1.1c1.6,0,3.1,0.3,4.4,1c1.3,0.7,2.4,1.6,3.2,2.9
		c0.8,1.3,1.2,2.8,1.2,4.5C386.6,36.5,386.5,37,386.5,37.9z M375.6,32.8c-0.6,0.5-1,1.2-1.1,2.1h6.7c-0.2-0.9-0.5-1.5-1.1-2.1
		c-0.6-0.5-1.3-0.8-2.2-0.8C377,32.1,376.2,32.3,375.6,32.8z"/>
	<path class="st0" d="M396.8,28.6c0.9-0.4,2-0.6,3.2-0.6v5.2c-0.5-0.1-1-0.1-1.3-0.1c-1.2,0-2.2,0.3-2.9,1c-0.7,0.7-1,1.7-1,3v7.5
		h-5.7V28.3h5.5v2C395.1,29.5,395.9,28.9,396.8,28.6z"/>
	<path class="st0" d="M0.6,28.6C3.1,28.4,5,28.1,7,28c2.2,0,3.7-0.9,4.7-2.8c0.8-1.6,1.9-3,3-4.5c0.7-1,1.7-1.8,3-0.7
		c1.2,0.9,1.2,1.8,0.4,3.1c-0.8,1.3-1.5,2.7-2.2,4c2.8,1.4,4.2,0,5.3-2.4c0.6,0.3,1.3,0.5,1.5,0.9c0.9,1.8,2.5,2.3,4.4,2.5
		c1.9,0.2,2.8,1.3,1.9,3.2c-2-0.2-4.2-1-5.9-0.3c-1.2,0.4-1.5,2.8-2.4,4.6c2.7,0.6,6-0.3,6.9,3.8c-1.9-0.2-3.6-0.2-5.3-0.5
		c-2.5-0.4-4.2,0.2-5.1,2.8c-0.7,2-1.9,3.8-2.9,5.7c-2.4-0.6-2.5-1.9-1.9-3.7c0.5-1.5,1-3,1.5-4.6c-3.6-0.7-4-0.5-4.8,2.7
		C9,42.8,9,43.9,8.6,45c-0.3,0.9-0.8,1.7-1.3,2.6c-1-0.9-2.5-1.6-2.9-2.7c-0.4-1.1,0.2-2.6,0.4-4c0.1-0.5,0.1-1,0.2-1.6
		c-1.1,0-2.1,0.2-2.9-0.1C1.4,39,0.7,38.3,0,37.8c0.6-0.5,1-1.2,1.7-1.6c0.5-0.3,1.2-0.4,1.7-0.4c3,0,4.4-1.6,4.6-4.5
		C5.7,30.6,2.7,32.2,0.6,28.6z M12.5,35c3.5,0.6,4,0.2,5-4.1C14.4,30.2,13.7,30.8,12.5,35z"/>
	<path class="st0" d="M280.7,24.3c-1.5-1-3.4-1.5-5.7-1.5c-1.7,0-3.1,0.3-4.4,1c-1.3,0.7-2.3,1.6-3.1,2.8c-0.2,0.3-0.3,0.6-0.5,0.9
		c-0.1-0.3-0.3-0.6-0.5-0.9c-0.7-1.2-1.7-2.1-3-2.8c-1.3-0.7-2.9-1-4.7-1c-2.3,0-4.1,0.5-5.7,1.5c-1.5,1-2.6,2.3-3.4,3.9
		c-0.8,1.6-1.1,3.4-1.1,5.4v11h6v-10c0-1.1,0.2-2.1,0.5-2.9c0.3-0.9,0.8-1.6,1.5-2.1c0.7-0.5,1.6-0.8,2.7-0.8c1.1,0,2,0.3,2.7,0.8
		c0.7,0.5,1.2,1.2,1.5,2.1c0.3,0.9,0.5,1.9,0.5,3v10h6v-10c0-1.1,0.2-2.1,0.5-2.9c0.3-0.9,0.8-1.6,1.5-2.1c0.7-0.5,1.6-0.8,2.7-0.8
		c1.1,0,2,0.3,2.7,0.8c0.7,0.5,1.2,1.2,1.5,2.1c0.3,0.9,0.5,1.9,0.5,3v10h6v-11c0-2-0.4-3.8-1.2-5.4
		C283.4,26.5,282.2,25.2,280.7,24.3z"/>
	<path class="st0" d="M216.1,24.9c-0.4-0.3-0.9-0.7-1.5-0.9c-1.3-0.7-2.7-1-4.2-1c-2.1,0-4.1,0.5-5.7,1.4c-1.7,0.9-3,2.2-3.9,3.9
		c-0.9,1.7-1.4,3.6-1.4,5.8c0,2,0.5,3.8,1.5,5.5c1,1.7,2.4,3,4.1,4c1.7,1,3.6,1.5,5.8,1.5c2.2,0,4.1-0.5,5.8-1.4
		c1.7-1,3.1-2.3,4.1-3.9c1-1.7,1.5-3.6,1.5-5.7V13.9h-6L216.1,24.9z M215.4,36.7c-0.5,0.8-1.1,1.5-1.9,2c-0.8,0.5-1.7,0.7-2.8,0.7
		c-1,0-1.9-0.2-2.7-0.7c-0.8-0.5-1.4-1.2-1.9-2c-0.5-0.8-0.7-1.7-0.7-2.7c0-1,0.2-1.9,0.7-2.7c0.5-0.8,1.1-1.5,1.9-2
		c0.8-0.5,1.7-0.7,2.7-0.7c1,0,2,0.2,2.8,0.7c0.8,0.5,1.4,1.1,1.9,2c0.5,0.8,0.7,1.7,0.7,2.7C216.1,35,215.9,35.9,215.4,36.7z"/>
	<path class="st0" d="M241.2,24.4c-1.7-1-3.6-1.5-5.8-1.5c-2.1,0-4,0.5-5.8,1.5c-1.7,1-3.1,2.3-4.1,4c-1,1.7-1.5,3.5-1.5,5.5
		c0,2,0.5,3.9,1.5,5.6c1,1.7,2.4,3,4.1,4c1.7,1,3.6,1.5,5.8,1.5c2.1,0,4.1-0.5,5.8-1.5c1.7-1,3.1-2.3,4.1-4c1-1.7,1.5-3.5,1.5-5.6
		c0-2-0.5-3.8-1.5-5.5C244.2,26.7,242.9,25.4,241.2,24.4z M240,36.7c-0.5,0.8-1.1,1.5-1.9,2c-0.8,0.5-1.7,0.7-2.8,0.7
		c-1,0-1.9-0.2-2.7-0.7c-0.8-0.5-1.4-1.2-1.9-2c-0.5-0.8-0.7-1.7-0.7-2.7c0-1,0.2-1.9,0.7-2.7c0.5-0.8,1.1-1.5,1.9-2
		c0.8-0.5,1.7-0.7,2.7-0.7c1,0,2,0.2,2.8,0.7c0.8,0.5,1.4,1.2,1.9,2c0.5,0.8,0.7,1.7,0.7,2.7C240.7,35,240.5,35.9,240,36.7z"/>
	<path class="st0" d="M169.8,24.2c-1.5-1-3.4-1.4-5.6-1.4c-2.1,0-4,0.5-5.6,1.5c-1.6,1-2.9,2.3-3.8,4c-0.9,1.7-1.4,3.5-1.4,5.5
		c0,2.2,0.5,4.1,1.5,5.8c1,1.7,2.3,3,4,3.9c1.7,0.9,3.6,1.4,5.8,1.4c2.2,0,4.1-0.5,5.8-1.5c1.7-1,2.9-2.5,3.8-4.3l-4.6-2.3
		c-0.5,0.9-1.2,1.7-2.1,2.2c-0.9,0.5-1.9,0.8-3,0.8c-1.2,0-2.2-0.3-3-0.8c-0.9-0.5-1.5-1.2-2-2.2c-0.3-0.5-0.4-1.1-0.5-1.7h15.4
		v-1.8c0-1.9-0.4-3.6-1.2-5.2C172.5,26.4,171.3,25.2,169.8,24.2z M159.8,30.6c0.1-0.3,0.3-0.6,0.5-0.8c0.4-0.6,0.9-1,1.6-1.4
		c0.7-0.3,1.4-0.5,2.3-0.5c0.8,0,1.6,0.2,2.2,0.5c0.6,0.3,1.2,0.8,1.6,1.3c0.2,0.3,0.4,0.6,0.5,0.9H159.8z"/>
	<path class="st0" d="M152.6,23.1c-0.4-0.1-0.9-0.1-1.3-0.1c-2.1,0-3.8,0.4-5.2,1.2c-1.4,0.8-2.4,2-3.1,3.4c-0.7,1.4-1,3-1,4.8v12h6
		V32.7c0-1.2,0.3-2.2,1-2.9c0.7-0.7,1.6-1.1,2.8-1.1c0.3,0,0.5,0,0.8,0V23.1z"/>
	<path class="st0" d="M140.5,19.1l3.3,0v-5.7c0,0-3.8,0-3.8,0c-2.1,0-3.8,0.4-5.2,1.2c-1.4,0.8-2.4,2-3.1,3.4c-0.7,1.4-1,3-1,4.8v0
		v5v16.5h6V28h4.2v-5h-4.2c0-1.2,0.4-2.1,1-2.8C138.4,19.5,139.3,19.1,140.5,19.1z"/>
	<path class="st0" d="M192.8,24.2c-1.5-1-3.4-1.4-5.6-1.4c-2.1,0-4,0.5-5.6,1.5c-1.6,1-2.9,2.3-3.8,4c-0.9,1.7-1.4,3.5-1.4,5.5
		c0,2.2,0.5,4.1,1.5,5.8c1,1.7,2.3,3,4,3.9c1.7,0.9,3.6,1.4,5.8,1.4c2.2,0,4.1-0.5,5.8-1.5c1.7-1,2.9-2.5,3.8-4.3l-4.6-2.3
		c-0.5,0.9-1.2,1.7-2.1,2.2c-0.9,0.5-1.9,0.8-3,0.8c-1.2,0-2.2-0.3-3-0.8c-0.9-0.5-1.5-1.2-2-2.2c-0.3-0.5-0.4-1.1-0.5-1.7h15.4
		v-1.8c0-1.9-0.4-3.6-1.2-5.2C195.5,26.4,194.3,25.2,192.8,24.2z M182.8,30.6c0.1-0.3,0.3-0.6,0.5-0.8c0.4-0.6,0.9-1,1.6-1.4
		c0.7-0.3,1.4-0.5,2.3-0.5c0.8,0,1.6,0.2,2.2,0.5c0.6,0.3,1.2,0.8,1.6,1.3c0.2,0.3,0.4,0.6,0.5,0.9H182.8z"/>
	<path class="st0" d="M328.8,22.2V17h-13.6c-1.8,0-3.1,0.5-3.9,1.4c-0.6,0.7-1,1.5-1.1,2.6c0,0.1-0.1,18.9-0.1,18.9
		c0,1.5,0.4,2.7,1.2,3.6c0.8,0.9,2.1,1.4,3.9,1.4h13.6v-5.3H316v-6.4h7.9v-4.4H316v-6.5H328.8z"/>
	<path class="st0" d="M303.5,24.2c-1.5-1-3.4-1.4-5.6-1.4c-2.1,0-4,0.5-5.6,1.5c-1.6,1-2.9,2.3-3.8,4c-0.9,1.7-1.4,3.5-1.4,5.5
		c0,2.2,0.5,4.1,1.5,5.8c1,1.7,2.3,3,4,3.9c1.7,0.9,3.6,1.4,5.8,1.4c2.2,0,4.1-0.5,5.8-1.5c1.7-1,2.9-2.5,3.8-4.3l-4.6-2.3
		c-0.5,0.9-1.2,1.7-2.1,2.2c-0.9,0.5-1.9,0.8-3,0.8c-1.2,0-2.2-0.3-3-0.8c-0.9-0.5-1.5-1.2-2-2.2c-0.3-0.5-0.4-1.1-0.5-1.7h15.4
		v-1.8c0-1.9-0.4-3.6-1.2-5.2C306.2,26.4,305,25.2,303.5,24.2z M293.5,30.6c0.1-0.3,0.3-0.6,0.5-0.8c0.4-0.6,0.9-1,1.6-1.4
		c0.7-0.3,1.4-0.5,2.3-0.5c0.8,0,1.6,0.2,2.2,0.5c0.6,0.3,1.2,0.8,1.6,1.3c0.2,0.3,0.4,0.6,0.5,0.9H293.5z"/>
</g>
</svg>
