<?xml version="1.0" encoding="utf-8"?>
<!-- Generator: Adobe Illustrator 24.2.0, SVG Export Plug-In . SVG Version: 6.00 Build 0)  -->
<svg version="1.1" id="Layer_1" xmlns="http://www.w3.org/2000/svg" xmlns:xlink="http://www.w3.org/1999/xlink" x="0px" y="0px"
	 viewBox="0 0 90 90" style="enable-background:new 0 0 90 90;" xml:space="preserve">
<style type="text/css">
	.st0{fill:none;}
</style>
<path class="st0" d="M0,90C0,60,0,30,0,0c30,0,60,0,90,0c0,30,0,60,0,90C60,90,30,90,0,90z"/>
<path d="M67.9,54.8c0.1,1.9-0.5,3.5-1.8,4.8s-2.9,1.8-4.7,1.8c0.2,3.8-2.8,6.7-6.6,6.6c0.1,2.5-0.9,4.6-3.2,5.8
	c-2.3,1.2-4.5,0.9-6.6-0.5c-4.3,3.2-10.2,0.1-9.8-5.3c-1.8,0.1-3.5-0.5-4.8-1.8s-1.8-2.9-1.8-4.7c-3.8,0.2-6.7-2.8-6.6-6.5
	c-0.6-0.1-1.1-0.1-1.7-0.2c-2.3-0.5-3.9-1.8-4.6-4.1c-0.7-2.2-0.2-4.3,1.4-6c0.2-0.3,0.3-0.4,0.2-0.8C12,32.2,18.8,18.6,31.4,16
	c4.6-0.9,9-0.3,13.1,1.8c0.4,0.2,0.6,0.2,1,0c11.2-5.7,25,0.3,28.3,12.4c1.2,4.6,0.9,9.2-1.1,13.6c-0.1,0.3-0.2,0.5,0.1,0.8
	c1.8,1.9,2.2,4.1,1.3,6.6c-0.9,2.3-3.1,3.7-5.6,3.7C68.2,54.8,68.1,54.8,67.9,54.8z M43,20.2c-5.9-3-13.9-2.5-19.5,3
	c-5.7,5.6-6.2,13.5-3.7,18.9c1.9-2.3,4.2-3.5,7.2-2.6s4.3,3.2,4.3,6.3c1.8-0.1,3.4,0.4,4.8,1.7c1.3,1.3,1.9,2.9,1.8,4.8
	c1.9-0.1,3.5,0.4,4.8,1.7s1.9,2.9,1.8,4.8c3.3-0.2,6.1,2,6.6,5.4c1-0.8,1.4-0.8,2.5,0.1c1.7,1.3,4.3,0.7,5-1.4
	c0.5-1.3,0.2-2.4-0.7-3.4c-0.5-0.5-0.5-1.2-0.2-1.7s1-0.8,1.6-0.6c0.3,0.1,0.5,0.3,0.7,0.4c1,0.8,2.2,1,3.4,0.5
	c1.2-0.5,1.8-1.4,2-2.6c0.1-1-0.2-1.9-0.9-2.6c-0.5-0.5-0.5-1.2-0.2-1.7c0.4-0.5,1.1-0.8,1.7-0.5c0.3,0.1,0.5,0.3,0.7,0.5
	c1.5,1.2,3.7,0.9,4.8-0.6c0.9-1.3,0.7-3-0.5-4.2c-6-6-12-12-18-18c-0.1-0.1-0.2-0.2-0.4-0.3c-0.1,0.2-0.2,0.3-0.3,0.5
	c-2.7,2.7-5.4,5.4-8.1,8.1c-1.7,1.7-3.7,2.2-6,1.6c-4.4-1.2-5.9-6.7-2.6-10c2.5-2.5,5-5,7.5-7.5C42.7,20.5,42.9,20.4,43,20.2z
	 M70.2,42.1c0.1-0.2,0.1-0.3,0.2-0.3c1.2-3.1,1.6-6.3,0.9-9.5c-2.1-10.8-13.6-16.8-23.6-12.4c-0.2,0.1-0.5,0.3-0.7,0.5
	c-2.2,2.2-4.5,4.5-6.7,6.7c-1,1-2.1,2-3.1,3.1c-1.7,1.8-0.9,4.7,1.5,5.3c1.2,0.3,2.3,0,3.2-1c3-3,6.1-6.1,9.1-9.1
	c0.9-0.9,1.6-0.9,2.6,0c5.4,5.4,10.8,10.8,16.2,16.2C69.9,41.7,70,41.9,70.2,42.1z M21.4,51.9c1.1,0,1.9-0.3,2.5-0.9
	c1.2-1.2,2.4-2.4,3.6-3.6c1.2-1.3,1.2-3.2,0-4.4c-1.2-1.3-3.2-1.3-4.5-0.1s-2.5,2.4-3.7,3.7c-0.9,1-1.1,2.2-0.6,3.4
	C19.2,51.3,20.2,51.9,21.4,51.9z M40.9,71.6c1.1,0,1.9-0.2,2.5-0.8c1.3-1.2,2.5-2.5,3.8-3.8c1.2-1.2,1.1-3.1-0.1-4.4
	c-1.1-1.2-3.1-1.4-4.3-0.3c-1.4,1.3-2.8,2.6-4,4c-0.9,1-1,2.2-0.4,3.4C38.9,71,39.9,71.5,40.9,71.6z M34.9,51.4c0-1-0.7-2-1.9-2.5
	c-1.3-0.5-2.5-0.3-3.5,0.7c-1.2,1.2-2.4,2.3-3.5,3.5c-1.3,1.3-1.2,3.3,0,4.5s3.3,1.2,4.5,0s2.4-2.4,3.6-3.6
	C34.6,53.4,34.9,52.6,34.9,51.4z M41.4,57.9c0-1-0.6-2-1.9-2.5c-1.3-0.6-2.5-0.3-3.6,0.7c-1.2,1.1-2.3,2.3-3.5,3.5
	c-1.3,1.3-1.3,3.3-0.1,4.5c1.2,1.3,3.3,1.3,4.6,0c1.2-1.2,2.3-2.3,3.5-3.5C41.1,60,41.4,59.2,41.4,57.9z M47.2,71.1
	c1.3,0.9,3.1,0.6,4.1-0.7c1.1-1.4,0.9-3.3-0.5-4.5C50.5,68.2,48.6,69.5,47.2,71.1z"/>
</svg>
