<?xml version="1.0" encoding="utf-8"?>
<!-- Generator: Adobe Illustrator 24.2.0, SVG Export Plug-In . SVG Version: 6.00 Build 0)  -->
<svg version="1.1" id="Layer_1" xmlns="http://www.w3.org/2000/svg" xmlns:xlink="http://www.w3.org/1999/xlink" x="0px" y="0px"
	 viewBox="0 0 400 61" style="enable-background:new 0 0 400 61;" xml:space="preserve">
<style type="text/css">
	.st0{fill:#FFFFFF;}
</style>
<path class="st0" d="M36.8,42.8c-1.3-0.3-2.4-0.7-3.2-1.2l1.7-3.9c0.7,0.5,1.6,0.8,2.7,1.1c1,0.3,2,0.4,3,0.4c0.9,0,1.6-0.1,2-0.3
	c0.4-0.2,0.6-0.5,0.6-0.8s-0.2-0.6-0.7-0.8c-0.5-0.2-1.2-0.3-2.2-0.4c-1.3-0.2-2.4-0.4-3.3-0.6c-0.9-0.3-1.7-0.7-2.4-1.4
	c-0.7-0.7-1-1.7-1-3c0-1,0.3-2,0.9-2.8c0.6-0.8,1.5-1.5,2.7-1.9c1.2-0.5,2.6-0.7,4.3-0.7c1.2,0,2.4,0.1,3.5,0.4
	c1.2,0.2,2.1,0.6,2.9,1l-1.7,3.9c-1.4-0.8-3-1.2-4.7-1.2c-0.9,0-1.6,0.1-2,0.3c-0.4,0.2-0.6,0.5-0.6,0.8c0,0.4,0.2,0.6,0.7,0.8
	c0.5,0.2,1.2,0.3,2.3,0.5c1.3,0.2,2.5,0.4,3.3,0.7c0.9,0.3,1.7,0.7,2.3,1.4c0.7,0.7,1,1.7,1,2.9c0,1-0.3,1.9-0.9,2.8
	c-0.6,0.8-1.5,1.5-2.8,1.9c-1.2,0.5-2.7,0.7-4.4,0.7C39.4,43.3,38.1,43.1,36.8,42.8z"/>
<path class="st0" d="M54.7,42.2c-1.4-0.7-2.5-1.7-3.3-3c-0.8-1.3-1.2-2.7-1.2-4.4c0-1.6,0.4-3.1,1.2-4.3c0.8-1.3,1.9-2.3,3.3-3
	c1.4-0.7,3-1.1,4.7-1.1c1.8,0,3.4,0.4,4.8,1.1c1.4,0.7,2.5,1.7,3.3,3c0.8,1.3,1.2,2.7,1.2,4.4c0,1.6-0.4,3.1-1.2,4.4
	c-0.8,1.3-1.9,2.3-3.3,3c-1.4,0.7-3,1.1-4.8,1.1C57.7,43.3,56.1,42.9,54.7,42.2z M61.9,37.7c0.6-0.7,1-1.7,1-2.9
	c0-1.2-0.3-2.2-1-2.8c-0.6-0.7-1.5-1-2.5-1c-1,0-1.8,0.3-2.5,1c-0.6,0.7-1,1.6-1,2.8c0,1.2,0.3,2.2,1,2.9c0.6,0.7,1.5,1,2.5,1
	C60.4,38.7,61.2,38.4,61.9,37.7z"/>
<path class="st0" d="M87.9,26.7l-7.1,17c-0.8,2-1.8,3.4-3,4.2c-1.2,0.8-2.6,1.2-4.3,1.2c-0.9,0-1.7-0.1-2.6-0.4
	c-0.9-0.3-1.6-0.6-2.1-1.1l2-4c0.3,0.3,0.7,0.5,1.2,0.7c0.5,0.2,0.9,0.3,1.4,0.3c0.5,0,1-0.1,1.3-0.3c0.4-0.2,0.6-0.6,0.9-1.1
	l-7-16.6h5.9l4,10l4-10H87.9z"/>
<path class="st0" d="M106.4,26.7V43H101v-1.7c-0.6,0.7-1.3,1.2-2.2,1.5c-0.8,0.3-1.7,0.5-2.7,0.5c-2.1,0-3.8-0.6-5.1-1.9
	c-1.3-1.2-1.9-3.1-1.9-5.6v-9.1h5.7v8.2c0,1.2,0.2,2.1,0.7,2.7c0.5,0.6,1.1,0.8,2,0.8c0.9,0,1.6-0.3,2.2-0.9s0.9-1.6,0.9-2.9v-7.9
	H106.4z"/>
<path class="st0" d="M125.5,28.2c1.2,1.2,1.9,3,1.9,5.5V43h-5.7v-8.4c0-2.2-0.9-3.3-2.7-3.3c-1,0-1.8,0.3-2.4,1
	c-0.6,0.6-0.9,1.6-0.9,2.9V43h-5.7V26.7h5.5v1.8c0.6-0.7,1.4-1.2,2.3-1.5c0.9-0.4,1.8-0.5,2.9-0.5C122.6,26.4,124.2,27,125.5,28.2z"
	/>
<path class="st0" d="M350,26.7V43h-5.5v-1.7c-0.6,0.7-1.3,1.2-2.2,1.5c-0.8,0.3-1.7,0.5-2.7,0.5c-2.1,0-3.8-0.6-5.1-1.9
	c-1.3-1.2-1.9-3.1-1.9-5.6v-9.1h5.7v8.2c0,1.2,0.2,2.1,0.7,2.7c0.5,0.6,1.1,0.8,2,0.8c0.9,0,1.6-0.3,2.2-0.9
	c0.6-0.6,0.9-1.6,0.9-2.9v-7.9H350z"/>
<path class="st0" d="M355.4,42.8c-1.3-0.3-2.4-0.7-3.2-1.2l1.7-3.9c0.7,0.5,1.6,0.8,2.7,1.1s2,0.4,3,0.4c0.9,0,1.6-0.1,2-0.3
	c0.4-0.2,0.6-0.5,0.6-0.8s-0.2-0.6-0.7-0.8c-0.5-0.2-1.2-0.3-2.2-0.4c-1.3-0.2-2.4-0.4-3.3-0.6c-0.9-0.3-1.7-0.7-2.4-1.4
	c-0.7-0.7-1-1.7-1-3c0-1,0.3-2,0.9-2.8c0.6-0.8,1.5-1.5,2.7-1.9c1.2-0.5,2.6-0.7,4.3-0.7c1.2,0,2.4,0.1,3.5,0.4
	c1.2,0.2,2.1,0.6,2.9,1l-1.7,3.9c-1.4-0.8-3-1.2-4.7-1.2c-0.9,0-1.6,0.1-2,0.3c-0.4,0.2-0.6,0.5-0.6,0.8c0,0.4,0.2,0.6,0.7,0.8
	c0.5,0.2,1.2,0.3,2.3,0.5c1.3,0.2,2.5,0.4,3.3,0.7c0.9,0.3,1.7,0.7,2.3,1.4c0.7,0.7,1,1.7,1,2.9c0,1-0.3,1.9-0.9,2.8
	c-0.6,0.8-1.5,1.5-2.8,1.9s-2.7,0.7-4.4,0.7C358.1,43.3,356.7,43.1,355.4,42.8z"/>
<path class="st0" d="M386.5,36.3h-11.9c0.2,0.8,0.7,1.5,1.4,1.9c0.7,0.5,1.6,0.7,2.6,0.7c0.8,0,1.5-0.1,2-0.3
	c0.6-0.2,1.2-0.6,1.7-1.1l3,3.1c-1.6,1.8-3.9,2.7-7,2.7c-1.9,0-3.6-0.4-5-1.1c-1.4-0.7-2.6-1.7-3.4-3c-0.8-1.3-1.2-2.7-1.2-4.4
	c0-1.6,0.4-3.1,1.2-4.3c0.8-1.3,1.8-2.3,3.2-3c1.4-0.7,2.9-1.1,4.6-1.1c1.6,0,3.1,0.3,4.4,1c1.3,0.7,2.4,1.6,3.2,2.9
	c0.8,1.3,1.2,2.8,1.2,4.5C386.6,34.9,386.5,35.4,386.5,36.3z M375.6,31.2c-0.6,0.5-1,1.2-1.1,2.1h6.7c-0.2-0.9-0.5-1.5-1.1-2.1
	c-0.6-0.5-1.3-0.8-2.2-0.8C377,30.5,376.2,30.7,375.6,31.2z"/>
<path class="st0" d="M396.8,27c0.9-0.4,2-0.6,3.2-0.6v5.2c-0.5-0.1-1-0.1-1.3-0.1c-1.2,0-2.2,0.3-2.9,1c-0.7,0.7-1,1.7-1,3V43h-5.7
	V26.7h5.5v2C395.1,27.9,395.9,27.3,396.8,27z"/>
<path class="st0" d="M0.6,27C3.1,26.8,5,26.5,7,26.4c2.2,0,3.7-0.9,4.7-2.8c0.8-1.6,1.9-3,3-4.5c0.7-1,1.7-1.8,3-0.7
	c1.2,0.9,1.2,1.8,0.4,3.1c-0.8,1.3-1.5,2.7-2.2,4c2.8,1.4,4.2,0,5.3-2.4c0.6,0.3,1.3,0.5,1.5,0.9c0.9,1.8,2.5,2.3,4.4,2.5
	c1.9,0.2,2.8,1.3,1.9,3.2c-2-0.2-4.2-1-5.9-0.3c-1.2,0.4-1.5,2.8-2.4,4.6c2.7,0.6,6-0.3,6.9,3.8c-1.9-0.2-3.6-0.2-5.3-0.5
	c-2.5-0.4-4.2,0.2-5.1,2.8c-0.7,2-1.9,3.8-2.9,5.7c-2.4-0.6-2.5-1.9-1.9-3.7c0.5-1.5,1-3,1.5-4.6c-3.6-0.7-4-0.5-4.8,2.7
	C9,41.2,9,42.3,8.6,43.4c-0.3,0.9-0.8,1.7-1.3,2.6c-1-0.9-2.5-1.6-2.9-2.7c-0.4-1.1,0.2-2.6,0.4-4c0.1-0.5,0.1-1,0.2-1.6
	c-1.1,0-2.1,0.2-2.9-0.1c-0.8-0.2-1.4-0.9-2.2-1.5c0.6-0.5,1-1.2,1.7-1.6c0.5-0.3,1.2-0.4,1.7-0.4c3,0,4.4-1.6,4.6-4.5
	C5.7,29,2.7,30.6,0.6,27z M12.5,33.4c3.5,0.6,4,0.2,5-4.1C14.4,28.6,13.7,29.2,12.5,33.4z"/>
<path class="st0" d="M280.7,22.7c-1.5-1-3.4-1.5-5.7-1.5c-1.7,0-3.1,0.3-4.4,1c-1.3,0.7-2.3,1.6-3.1,2.8c-0.2,0.3-0.3,0.6-0.5,0.9
	c-0.1-0.3-0.3-0.6-0.5-0.9c-0.7-1.2-1.7-2.1-3-2.8c-1.3-0.7-2.9-1-4.7-1c-2.3,0-4.1,0.5-5.7,1.5c-1.5,1-2.6,2.3-3.4,3.9
	c-0.8,1.6-1.1,3.4-1.1,5.4v11h6v-10c0-1.1,0.2-2.1,0.5-2.9c0.3-0.9,0.8-1.6,1.5-2.1c0.7-0.5,1.6-0.8,2.7-0.8c1.1,0,2,0.3,2.7,0.8
	c0.7,0.5,1.2,1.2,1.5,2.1c0.3,0.9,0.5,1.9,0.5,3v10h6v-10c0-1.1,0.2-2.1,0.5-2.9c0.3-0.9,0.8-1.6,1.5-2.1c0.7-0.5,1.6-0.8,2.7-0.8
	c1.1,0,2,0.3,2.7,0.8c0.7,0.5,1.2,1.2,1.5,2.1c0.3,0.9,0.5,1.9,0.5,3v10h6v-11c0-2-0.4-3.8-1.2-5.4
	C283.4,24.9,282.2,23.6,280.7,22.7z"/>
<path class="st0" d="M216.1,23.3c-0.4-0.3-0.9-0.7-1.5-0.9c-1.3-0.7-2.7-1-4.2-1c-2.1,0-4.1,0.5-5.7,1.4c-1.7,0.9-3,2.2-3.9,3.9
	c-0.9,1.7-1.4,3.6-1.4,5.8c0,2,0.5,3.8,1.5,5.5c1,1.7,2.4,3,4.1,4c1.7,1,3.6,1.5,5.8,1.5c2.2,0,4.1-0.5,5.8-1.4
	c1.7-1,3.1-2.3,4.1-3.9c1-1.7,1.5-3.6,1.5-5.7V12.3h-6L216.1,23.3z M215.4,35.1c-0.5,0.8-1.1,1.5-1.9,2c-0.8,0.5-1.7,0.7-2.8,0.7
	c-1,0-1.9-0.2-2.7-0.7c-0.8-0.5-1.4-1.2-1.9-2c-0.5-0.8-0.7-1.7-0.7-2.7c0-1,0.2-1.9,0.7-2.7c0.5-0.8,1.1-1.5,1.9-2
	c0.8-0.5,1.7-0.7,2.7-0.7c1,0,2,0.2,2.8,0.7c0.8,0.5,1.4,1.1,1.9,2c0.5,0.8,0.7,1.7,0.7,2.7C216.1,33.4,215.9,34.3,215.4,35.1z"/>
<path class="st0" d="M241.2,22.8c-1.7-1-3.6-1.5-5.8-1.5c-2.1,0-4,0.5-5.8,1.5c-1.7,1-3.1,2.3-4.1,4c-1,1.7-1.5,3.5-1.5,5.5
	c0,2,0.5,3.9,1.5,5.6c1,1.7,2.4,3,4.1,4c1.7,1,3.6,1.5,5.8,1.5c2.1,0,4.1-0.5,5.8-1.5c1.7-1,3.1-2.3,4.1-4c1-1.7,1.5-3.5,1.5-5.6
	c0-2-0.5-3.8-1.5-5.5C244.2,25.1,242.9,23.8,241.2,22.8z M240,35.1c-0.5,0.8-1.1,1.5-1.9,2c-0.8,0.5-1.7,0.7-2.8,0.7
	c-1,0-1.9-0.2-2.7-0.7c-0.8-0.5-1.4-1.2-1.9-2c-0.5-0.8-0.7-1.7-0.7-2.7c0-1,0.2-1.9,0.7-2.7c0.5-0.8,1.1-1.5,1.9-2
	c0.8-0.5,1.7-0.7,2.7-0.7c1,0,2,0.2,2.8,0.7c0.8,0.5,1.4,1.2,1.9,2c0.5,0.8,0.7,1.7,0.7,2.7C240.7,33.4,240.5,34.3,240,35.1z"/>
<path class="st0" d="M169.8,22.6c-1.5-1-3.4-1.4-5.6-1.4c-2.1,0-4,0.5-5.6,1.5c-1.6,1-2.9,2.3-3.8,4c-0.9,1.7-1.4,3.5-1.4,5.5
	c0,2.2,0.5,4.1,1.5,5.8c1,1.7,2.3,3,4,3.9c1.7,0.9,3.6,1.4,5.8,1.4c2.2,0,4.1-0.5,5.8-1.5c1.7-1,2.9-2.5,3.8-4.3l-4.6-2.3
	c-0.5,0.9-1.2,1.7-2.1,2.2c-0.9,0.5-1.9,0.8-3,0.8c-1.2,0-2.2-0.3-3-0.8c-0.9-0.5-1.5-1.2-2-2.2c-0.3-0.5-0.4-1.1-0.5-1.7h15.4v-1.8
	c0-1.9-0.4-3.6-1.2-5.2C172.5,24.9,171.3,23.6,169.8,22.6z M159.8,29.1c0.1-0.3,0.3-0.6,0.5-0.8c0.4-0.6,0.9-1,1.6-1.4
	c0.7-0.3,1.4-0.5,2.3-0.5c0.8,0,1.6,0.2,2.2,0.5c0.6,0.3,1.2,0.8,1.6,1.3c0.2,0.3,0.4,0.6,0.5,0.9H159.8z"/>
<path class="st0" d="M152.6,21.5c-0.4-0.1-0.9-0.1-1.3-0.1c-2.1,0-3.8,0.4-5.2,1.2c-1.4,0.8-2.4,2-3.1,3.4c-0.7,1.4-1,3-1,4.8v12h6
	V31.1c0-1.2,0.3-2.2,1-2.9c0.7-0.7,1.6-1.1,2.8-1.1c0.3,0,0.5,0,0.8,0V21.5z"/>
<path class="st0" d="M140.5,17.5l3.3,0v-5.7c0,0-3.8,0-3.8,0c-2.1,0-3.8,0.4-5.2,1.2c-1.4,0.8-2.4,2-3.1,3.4c-0.7,1.4-1,3-1,4.8v0v5
	v16.5h6V26.4h4.2v-5h-4.2c0-1.2,0.4-2.1,1-2.8C138.4,17.9,139.3,17.5,140.5,17.5z"/>
<path class="st0" d="M192.8,22.6c-1.5-1-3.4-1.4-5.6-1.4c-2.1,0-4,0.5-5.6,1.5c-1.6,1-2.9,2.3-3.8,4c-0.9,1.7-1.4,3.5-1.4,5.5
	c0,2.2,0.5,4.1,1.5,5.8c1,1.7,2.3,3,4,3.9c1.7,0.9,3.6,1.4,5.8,1.4c2.2,0,4.1-0.5,5.8-1.5c1.7-1,2.9-2.5,3.8-4.3l-4.6-2.3
	c-0.5,0.9-1.2,1.7-2.1,2.2c-0.9,0.5-1.9,0.8-3,0.8c-1.2,0-2.2-0.3-3-0.8c-0.9-0.5-1.5-1.2-2-2.2c-0.3-0.5-0.4-1.1-0.5-1.7h15.4v-1.8
	c0-1.9-0.4-3.6-1.2-5.2C195.5,24.9,194.3,23.6,192.8,22.6z M182.8,29.1c0.1-0.3,0.3-0.6,0.5-0.8c0.4-0.6,0.9-1,1.6-1.4
	c0.7-0.3,1.4-0.5,2.3-0.5c0.8,0,1.6,0.2,2.2,0.5c0.6,0.3,1.2,0.8,1.6,1.3c0.2,0.3,0.4,0.6,0.5,0.9H182.8z"/>
<path class="st0" d="M328.8,20.6v-5.3h-13.6c-1.8,0-3.1,0.5-3.9,1.4c-0.6,0.7-1,1.5-1.1,2.6c0,0.1-0.1,18.9-0.1,18.9
	c0,1.5,0.4,2.7,1.2,3.6c0.8,0.9,2.1,1.4,3.9,1.4h13.6v-5.3H316v-6.4h7.9v-4.4H316v-6.5H328.8z"/>
<path class="st0" d="M303.5,22.6c-1.5-1-3.4-1.4-5.6-1.4c-2.1,0-4,0.5-5.6,1.5c-1.6,1-2.9,2.3-3.8,4c-0.9,1.7-1.4,3.5-1.4,5.5
	c0,2.2,0.5,4.1,1.5,5.8c1,1.7,2.3,3,4,3.9c1.7,0.9,3.6,1.4,5.8,1.4c2.2,0,4.1-0.5,5.8-1.5c1.7-1,2.9-2.5,3.8-4.3l-4.6-2.3
	c-0.5,0.9-1.2,1.7-2.1,2.2c-0.9,0.5-1.9,0.8-3,0.8c-1.2,0-2.2-0.3-3-0.8c-0.9-0.5-1.5-1.2-2-2.2c-0.3-0.5-0.4-1.1-0.5-1.7h15.4v-1.8
	c0-1.9-0.4-3.6-1.2-5.2C306.2,24.9,305,23.6,303.5,22.6z M293.5,29.1c0.1-0.3,0.3-0.6,0.5-0.8c0.4-0.6,0.9-1,1.6-1.4
	c0.7-0.3,1.4-0.5,2.3-0.5c0.8,0,1.6,0.2,2.2,0.5c0.6,0.3,1.2,0.8,1.6,1.3c0.2,0.3,0.4,0.6,0.5,0.9H293.5z"/>
</svg>
