<?xml version="1.0" encoding="utf-8"?>
<!-- Generator: Adobe Illustrator 24.2.0, SVG Export Plug-In . SVG Version: 6.00 Build 0)  -->
<svg version="1.1" id="logotipo" xmlns="http://www.w3.org/2000/svg" xmlns:xlink="http://www.w3.org/1999/xlink" x="0px" y="0px"
	 viewBox="0 0 250 112" style="enable-background:new 0 0 250 112;" xml:space="preserve">
<style type="text/css">
	.st0{fill:#00AAC5;}
	.st1{fill:#A33053;}
	.st2{fill:#1D3B4F;}
</style>
<path d="M9.1,107.6H2.4l-1.5,3.3H0l5.3-11.6h0.8l5.3,11.6h-0.9L9.1,107.6z M8.8,106.9l-3-6.7l-3,6.7H8.8z"/>
<path d="M17.7,99.3h4.6c1.2,0,2.3,0.2,3.2,0.7s1.7,1.2,2.2,2.1c0.5,0.9,0.8,1.9,0.8,3c0,1.1-0.3,2.1-0.8,3c-0.5,0.9-1.2,1.6-2.2,2.1
	s-2,0.7-3.2,0.7h-4.6V99.3z M22.3,110.1c1.1,0,2-0.2,2.8-0.6c0.8-0.4,1.4-1,1.9-1.8s0.7-1.6,0.7-2.6c0-1-0.2-1.9-0.7-2.6
	c-0.4-0.8-1.1-1.4-1.9-1.8c-0.8-0.4-1.8-0.6-2.8-0.6h-3.7v10.1H22.3z"/>
<path d="M44.5,99.3l-5.2,11.6h-0.8l-5.2-11.6h0.9l4.7,10.5l4.7-10.5H44.5z"/>
<path d="M52.2,110.2c-0.9-0.5-1.6-1.2-2.2-2.1c-0.5-0.9-0.8-1.9-0.8-3c0-1.1,0.3-2.1,0.8-3c0.5-0.9,1.2-1.6,2.2-2.1
	c0.9-0.5,1.9-0.8,3.1-0.8c1.1,0,2.2,0.3,3.1,0.8c0.9,0.5,1.6,1.2,2.2,2.1c0.5,0.9,0.8,1.9,0.8,3c0,1.1-0.3,2.1-0.8,3
	c-0.5,0.9-1.2,1.6-2.2,2.1c-0.9,0.5-1.9,0.8-3.1,0.8C54.2,111,53.1,110.7,52.2,110.2z M57.9,109.5c0.8-0.4,1.4-1.1,1.9-1.8
	c0.5-0.8,0.7-1.6,0.7-2.6c0-1-0.2-1.8-0.7-2.6c-0.5-0.8-1.1-1.4-1.9-1.8c-0.8-0.4-1.7-0.7-2.6-0.7s-1.9,0.2-2.6,0.7
	c-0.8,0.4-1.4,1.1-1.9,1.8c-0.5,0.8-0.7,1.6-0.7,2.6c0,1,0.2,1.8,0.7,2.6c0.5,0.8,1.1,1.4,1.9,1.8c0.8,0.4,1.7,0.7,2.6,0.7
	S57.1,110,57.9,109.5z"/>
<path d="M76.7,105.1h0.8v4.3c-0.5,0.5-1.1,0.9-1.8,1.1c-0.7,0.3-1.5,0.4-2.3,0.4c-1.1,0-2.2-0.3-3.1-0.8c-0.9-0.5-1.6-1.2-2.2-2.1
	c-0.5-0.9-0.8-1.9-0.8-3c0-1.1,0.3-2.1,0.8-3c0.5-0.9,1.2-1.6,2.2-2.1c0.9-0.5,2-0.8,3.1-0.8c0.8,0,1.6,0.1,2.3,0.4
	c0.7,0.3,1.3,0.7,1.8,1.2l-0.5,0.6c-0.5-0.5-1-0.8-1.6-1.1c-0.6-0.2-1.3-0.3-2-0.3c-1,0-1.9,0.2-2.7,0.7s-1.4,1.1-1.9,1.8
	c-0.5,0.8-0.7,1.6-0.7,2.6c0,0.9,0.2,1.8,0.7,2.6c0.5,0.8,1.1,1.4,1.9,1.8c0.8,0.4,1.7,0.7,2.7,0.7c1.3,0,2.4-0.4,3.3-1.1V105.1z"/>
<path d="M92.5,107.6h-6.7l-1.5,3.3h-0.9l5.3-11.6h0.8l5.3,11.6H94L92.5,107.6z M92.2,106.9l-3-6.7l-3,6.7H92.2z"/>
<path d="M101.1,99.3h4.6c1.2,0,2.3,0.2,3.2,0.7s1.7,1.2,2.2,2.1c0.5,0.9,0.8,1.9,0.8,3c0,1.1-0.3,2.1-0.8,3
	c-0.5,0.9-1.2,1.6-2.2,2.1s-2,0.7-3.2,0.7h-4.6V99.3z M105.6,110.1c1.1,0,2-0.2,2.8-0.6c0.8-0.4,1.4-1,1.9-1.8s0.7-1.6,0.7-2.6
	c0-1-0.2-1.9-0.7-2.6c-0.4-0.8-1.1-1.4-1.9-1.8c-0.8-0.4-1.8-0.6-2.8-0.6H102v10.1H105.6z"/>
<path d="M120.8,110.2c-0.9-0.5-1.6-1.2-2.2-2.1c-0.5-0.9-0.8-1.9-0.8-3c0-1.1,0.3-2.1,0.8-3c0.5-0.9,1.2-1.6,2.2-2.1
	c0.9-0.5,1.9-0.8,3.1-0.8c1.1,0,2.2,0.3,3.1,0.8c0.9,0.5,1.6,1.2,2.2,2.1c0.5,0.9,0.8,1.9,0.8,3c0,1.1-0.3,2.1-0.8,3
	c-0.5,0.9-1.2,1.6-2.2,2.1c-0.9,0.5-1.9,0.8-3.1,0.8C122.7,111,121.7,110.7,120.8,110.2z M126.5,109.5c0.8-0.4,1.4-1.1,1.9-1.8
	c0.5-0.8,0.7-1.6,0.7-2.6c0-1-0.2-1.8-0.7-2.6c-0.5-0.8-1.1-1.4-1.9-1.8c-0.8-0.4-1.7-0.7-2.6-0.7s-1.9,0.2-2.6,0.7
	s-1.4,1.1-1.9,1.8c-0.5,0.8-0.7,1.6-0.7,2.6c0,1,0.2,1.8,0.7,2.6c0.5,0.8,1.1,1.4,1.9,1.8s1.7,0.7,2.6,0.7S125.7,110,126.5,109.5z"
	/>
<path d="M137.6,110.5c-0.8-0.3-1.4-0.7-1.8-1.1l0.4-0.6c0.4,0.4,1,0.8,1.6,1.1c0.7,0.3,1.4,0.4,2.2,0.4c1.1,0,1.9-0.2,2.5-0.6
	c0.6-0.4,0.8-1,0.8-1.6c0-0.5-0.1-0.9-0.4-1.2c-0.3-0.3-0.7-0.5-1.1-0.7c-0.4-0.2-1-0.3-1.8-0.5c-0.8-0.2-1.5-0.4-2-0.6
	c-0.5-0.2-0.9-0.5-1.3-0.9c-0.4-0.4-0.5-1-0.5-1.7c0-0.6,0.1-1.1,0.4-1.5c0.3-0.5,0.8-0.8,1.4-1.1c0.6-0.3,1.4-0.4,2.3-0.4
	c0.6,0,1.3,0.1,1.9,0.3c0.6,0.2,1.2,0.4,1.6,0.8l-0.3,0.7c-0.5-0.3-1-0.6-1.5-0.7c-0.6-0.2-1.1-0.2-1.6-0.2c-1.1,0-1.9,0.2-2.4,0.6
	c-0.6,0.4-0.8,1-0.8,1.7c0,0.5,0.1,0.9,0.4,1.2c0.3,0.3,0.7,0.5,1.1,0.7c0.4,0.2,1,0.3,1.8,0.5c0.8,0.2,1.5,0.4,2,0.6
	c0.5,0.2,0.9,0.5,1.3,0.9c0.4,0.4,0.5,0.9,0.5,1.6c0,0.6-0.2,1.1-0.5,1.5s-0.8,0.8-1.4,1.1c-0.6,0.3-1.4,0.4-2.3,0.4
	C139.1,111,138.3,110.8,137.6,110.5z"/>
<path d="M12.9,88.5l0-9.9L8,87H7.6l-4.9-8.3v9.9H1.9V76.9h0.7l5.2,9l5.2-9h0.7l0,11.6H12.9z"/>
<path d="M23.7,87.8c-0.9-0.5-1.6-1.2-2.2-2.1c-0.5-0.9-0.8-1.9-0.8-3c0-1.1,0.3-2.1,0.8-3c0.5-0.9,1.2-1.6,2.2-2.1
	c0.9-0.5,1.9-0.8,3.1-0.8c1.1,0,2.2,0.3,3.1,0.8c0.9,0.5,1.6,1.2,2.2,2.1c0.5,0.9,0.8,1.9,0.8,3c0,1.1-0.3,2.1-0.8,3
	c-0.5,0.9-1.2,1.6-2.2,2.1s-1.9,0.8-3.1,0.8C25.7,88.6,24.7,88.3,23.7,87.8z M29.4,87.1c0.8-0.4,1.4-1.1,1.9-1.8
	c0.5-0.8,0.7-1.6,0.7-2.6c0-1-0.2-1.8-0.7-2.6c-0.5-0.8-1.1-1.4-1.9-1.8c-0.8-0.4-1.7-0.7-2.6-0.7s-1.9,0.2-2.6,0.7
	s-1.4,1.1-1.9,1.8c-0.5,0.8-0.7,1.6-0.7,2.6c0,1,0.2,1.8,0.7,2.6c0.5,0.8,1.1,1.4,1.9,1.8s1.7,0.7,2.6,0.7S28.7,87.6,29.4,87.1z"/>
<path d="M39.9,76.9h0.8v11.6h-0.8V76.9z"/>
<path d="M50.8,87.8c-0.9-0.5-1.6-1.2-2.2-2.1c-0.5-0.9-0.8-1.9-0.8-3c0-1.1,0.3-2.1,0.8-3c0.5-0.9,1.2-1.6,2.2-2.1
	c0.9-0.5,1.9-0.8,3.1-0.8c1.1,0,2.2,0.3,3.1,0.8c0.9,0.5,1.6,1.2,2.2,2.1c0.5,0.9,0.8,1.9,0.8,3c0,1.1-0.3,2.1-0.8,3
	c-0.5,0.9-1.2,1.6-2.2,2.1s-1.9,0.8-3.1,0.8C52.7,88.6,51.7,88.3,50.8,87.8z M56.5,87.1c0.8-0.4,1.4-1.1,1.9-1.8
	c0.5-0.8,0.7-1.6,0.7-2.6c0-1-0.2-1.8-0.7-2.6c-0.5-0.8-1.1-1.4-1.9-1.8c-0.8-0.4-1.7-0.7-2.6-0.7s-1.9,0.2-2.6,0.7
	s-1.4,1.1-1.9,1.8c-0.5,0.8-0.7,1.6-0.7,2.6c0,1,0.2,1.8,0.7,2.6c0.5,0.8,1.1,1.4,1.9,1.8s1.7,0.7,2.6,0.7S55.7,87.6,56.5,87.1z"/>
<path d="M66.9,76.9h0.8v10.8h6.7v0.8h-7.5V76.9z"/>
<path d="M80.8,76.9h0.8v11.6h-0.8V76.9z"/>
<path d="M106.3,88.7l-1.7-1.8c-0.5,0.6-1,1-1.7,1.3c-0.7,0.3-1.4,0.4-2.2,0.4c-0.7,0-1.4-0.1-2-0.4c-0.6-0.2-1-0.6-1.3-1
	c-0.3-0.4-0.5-0.9-0.5-1.5c0-0.7,0.2-1.3,0.7-1.8c0.5-0.6,1.2-1.2,2.3-1.8l0,0c-0.6-0.6-1-1.1-1.2-1.5c-0.2-0.4-0.3-0.8-0.3-1.3
	c0-0.7,0.2-1.3,0.7-1.7c0.5-0.4,1.2-0.6,2-0.6c0.8,0,1.4,0.2,1.9,0.6c0.5,0.4,0.7,0.9,0.7,1.6c0,0.6-0.2,1.1-0.6,1.5
	c-0.4,0.5-1.1,1-2.1,1.5l3.4,3.6c0.4-0.7,0.7-1.4,0.8-2.4l0.7,0.2c-0.2,1.1-0.6,2-1,2.7l1.7,1.8L106.3,88.7z M104.2,86.4l-3.7-3.9
	c-1,0.6-1.7,1.1-2.1,1.6c-0.4,0.5-0.6,1-0.6,1.5c0,0.7,0.3,1.2,0.8,1.6c0.6,0.4,1.3,0.6,2.2,0.6C102.2,87.9,103.3,87.4,104.2,86.4z
	 M99.6,80.3c0.2,0.3,0.6,0.8,1.1,1.4c0.9-0.5,1.5-1,1.9-1.3c0.3-0.4,0.5-0.8,0.5-1.2c0-0.5-0.2-0.9-0.5-1.2
	c-0.3-0.3-0.8-0.4-1.3-0.4c-0.6,0-1.1,0.2-1.4,0.5c-0.3,0.3-0.5,0.7-0.5,1.3C99.3,79.6,99.4,79.9,99.6,80.3z"/>
<path d="M122.2,88.1c-0.8-0.3-1.4-0.7-1.8-1.1l0.4-0.6c0.4,0.4,1,0.8,1.6,1.1c0.7,0.3,1.4,0.4,2.2,0.4c1.1,0,1.9-0.2,2.5-0.6
	c0.6-0.4,0.8-1,0.8-1.6c0-0.5-0.1-0.9-0.4-1.2c-0.3-0.3-0.7-0.5-1.1-0.7c-0.4-0.2-1-0.3-1.8-0.5c-0.8-0.2-1.5-0.4-2-0.6
	c-0.5-0.2-0.9-0.5-1.3-0.9c-0.4-0.4-0.5-1-0.5-1.7c0-0.6,0.1-1.1,0.4-1.5c0.3-0.5,0.8-0.8,1.4-1.1c0.6-0.3,1.4-0.4,2.3-0.4
	c0.6,0,1.3,0.1,1.9,0.3c0.6,0.2,1.2,0.4,1.6,0.8l-0.3,0.7c-0.5-0.3-1-0.6-1.5-0.7c-0.6-0.2-1.1-0.2-1.6-0.2c-1.1,0-1.9,0.2-2.4,0.6
	c-0.6,0.4-0.8,1-0.8,1.7c0,0.5,0.1,0.9,0.4,1.2c0.3,0.3,0.7,0.5,1.1,0.7s1,0.3,1.8,0.5c0.8,0.2,1.5,0.4,2,0.6
	c0.5,0.2,0.9,0.5,1.3,0.9c0.4,0.4,0.5,0.9,0.5,1.6c0,0.6-0.2,1.1-0.5,1.5c-0.3,0.5-0.8,0.8-1.4,1.1c-0.6,0.3-1.4,0.4-2.3,0.4
	C123.7,88.6,122.9,88.4,122.2,88.1z"/>
<path d="M142.9,85.2h-6.7l-1.5,3.3h-0.9l5.3-11.6h0.8l5.3,11.6h-0.9L142.9,85.2z M142.6,84.5l-3-6.7l-3,6.7H142.6z"/>
<path d="M151.6,76.9h0.8v10.8h6.7v0.8h-7.5V76.9z"/>
<path d="M173.8,76.9l-5.2,11.6h-0.8l-5.2-11.6h0.9l4.7,10.5l4.7-10.5H173.8z"/>
<path d="M186.6,85.2h-6.7l-1.5,3.3h-0.9l5.3-11.6h0.8l5.3,11.6h-0.9L186.6,85.2z M186.3,84.5l-3-6.7l-3,6.7H186.3z"/>
<path d="M196.9,77.7h-4.2v-0.8h9.2v0.8h-4.2v10.8h-0.8V77.7z"/>
<path d="M209.8,87.8c-0.9-0.5-1.6-1.2-2.2-2.1c-0.5-0.9-0.8-1.9-0.8-3c0-1.1,0.3-2.1,0.8-3c0.5-0.9,1.2-1.6,2.2-2.1
	c0.9-0.5,1.9-0.8,3.1-0.8c1.1,0,2.2,0.3,3.1,0.8c0.9,0.5,1.6,1.2,2.2,2.1c0.5,0.9,0.8,1.9,0.8,3c0,1.1-0.3,2.1-0.8,3
	c-0.5,0.9-1.2,1.6-2.2,2.1s-1.9,0.8-3.1,0.8C211.7,88.6,210.7,88.3,209.8,87.8z M215.5,87.1c0.8-0.4,1.4-1.1,1.9-1.8
	c0.5-0.8,0.7-1.6,0.7-2.6c0-1-0.2-1.8-0.7-2.6c-0.5-0.8-1.1-1.4-1.9-1.8c-0.8-0.4-1.7-0.7-2.6-0.7c-1,0-1.9,0.2-2.6,0.7
	s-1.4,1.1-1.9,1.8c-0.5,0.8-0.7,1.6-0.7,2.6c0,1,0.2,1.8,0.7,2.6c0.5,0.8,1.1,1.4,1.9,1.8s1.7,0.7,2.6,0.7
	C213.8,87.8,214.7,87.6,215.5,87.1z"/>
<path d="M234,88.5l-2.8-3.9c-0.4,0.1-0.8,0.1-1.1,0.1h-3.3v3.8h-0.8V76.9h4.2c1.5,0,2.6,0.3,3.4,1c0.8,0.7,1.2,1.6,1.2,2.9
	c0,0.9-0.2,1.7-0.7,2.3c-0.5,0.6-1.1,1.1-2,1.3l2.9,4.1H234z M230.1,84c1.2,0,2.2-0.3,2.8-0.8c0.7-0.5,1-1.3,1-2.3
	c0-1-0.3-1.8-1-2.3c-0.7-0.5-1.6-0.8-2.8-0.8h-3.3V84H230.1z"/>
<path d="M250,87.7v0.8h-8V76.9h7.7v0.8h-6.9v4.6h6.2V83h-6.2v4.8H250z"/>
<path d="M20.7,58l0-14.4l-7.1,11.9h-1.8L4.6,43.8V58H0.8V36.3h3.3l8.6,14.4l8.5-14.4h3.3l0,21.7H20.7z"/>
<path d="M49.2,56.9c-1.8-1-3.2-2.3-4.2-4c-1-1.7-1.5-3.6-1.5-5.7c0-2.1,0.5-4,1.5-5.7c1-1.7,2.4-3,4.2-4s3.8-1.4,6-1.4
	c2.2,0,4.2,0.5,6,1.4c1.8,1,3.2,2.3,4.2,4c1,1.7,1.5,3.6,1.5,5.7c0,2.1-0.5,4-1.5,5.7c-1,1.7-2.4,3-4.2,4c-1.8,1-3.8,1.4-6,1.4
	C52.9,58.3,50.9,57.8,49.2,56.9z M59.1,53.8c1.2-0.7,2.1-1.6,2.7-2.7c0.7-1.2,1-2.5,1-3.9c0-1.4-0.3-2.8-1-3.9
	c-0.7-1.2-1.6-2.1-2.7-2.7c-1.2-0.7-2.5-1-3.9-1s-2.8,0.3-3.9,1c-1.2,0.7-2.1,1.6-2.7,2.7c-0.7,1.2-1,2.5-1,3.9c0,1.4,0.3,2.8,1,3.9
	c0.7,1.2,1.6,2.1,2.7,2.7c1.2,0.7,2.5,1,3.9,1S57.9,54.4,59.1,53.8z"/>
<path d="M87.6,57.6c-1.6-0.5-2.8-1.1-3.7-1.9l1.4-3.1c0.9,0.7,2,1.3,3.3,1.7c1.3,0.4,2.6,0.7,3.9,0.7c1.6,0,2.8-0.3,3.6-0.8
	c0.8-0.5,1.2-1.2,1.2-2c0-0.6-0.2-1.1-0.7-1.5c-0.4-0.4-1-0.7-1.7-0.9s-1.6-0.5-2.8-0.8c-1.7-0.4-3-0.8-4-1.2c-1-0.4-1.9-1-2.6-1.8
	c-0.7-0.8-1.1-2-1.1-3.4c0-1.2,0.3-2.3,1-3.3c0.7-1,1.6-1.8,2.9-2.3s2.9-0.9,4.8-0.9c1.3,0,2.6,0.2,3.9,0.5c1.3,0.3,2.4,0.8,3.3,1.4
	L99.1,41c-1-0.6-1.9-1-3-1.3c-1-0.3-2-0.4-3-0.4c-1.6,0-2.8,0.3-3.6,0.8c-0.8,0.5-1.2,1.3-1.2,2.1c0,0.6,0.2,1.1,0.7,1.5
	c0.4,0.4,1,0.7,1.7,0.9c0.7,0.2,1.6,0.5,2.8,0.8c1.6,0.4,2.9,0.8,4,1.2c1,0.4,1.9,1,2.7,1.8c0.7,0.8,1.1,1.9,1.1,3.4
	c0,1.2-0.3,2.3-1,3.3c-0.7,1-1.6,1.7-3,2.3s-2.9,0.9-4.8,0.9C90.8,58.3,89.2,58.1,87.6,57.6z"/>
<path d="M133.9,53h-10.9l-2.1,5h-4.2l9.8-21.7h4l9.8,21.7h-4.2L133.9,53z M132.6,49.8l-4.1-9.5l-4.1,9.5H132.6z"/>
<circle class="st0" cx="75.9" cy="10.3" r="10.3"/>
<circle class="st1" cx="43.2" cy="10.3" r="10.3"/>
<circle class="st2" cx="10.4" cy="10.3" r="10.3"/>
</svg>
