<?xml version="1.0" encoding="utf-8"?>
<!-- Generator: Adobe Illustrator 24.2.0, SVG Export Plug-In . SVG Version: 6.00 Build 0)  -->
<svg version="1.1" id="horizontal_3_" xmlns="http://www.w3.org/2000/svg" xmlns:xlink="http://www.w3.org/1999/xlink" x="0px"
	 y="0px" viewBox="0 0 1190.55 340.16" style="enable-background:new 0 0 1190.55 340.16;" xml:space="preserve">
<style type="text/css">
	.st0{fill:#ebc700;}
</style>
<g id="logotipo_6_">
	<g id="horas_10_">
		<polygon class="st0" points="555.11,67.27 537.44,49.61 519.78,67.27 519.78,152.11 455.94,152.11 455.94,67.27 438.28,49.61 
			420.62,67.27 420.62,161.99 428.47,169.85 420.62,177.7 420.62,272.43 438.28,290.09 455.94,272.43 455.94,187.44 519.78,187.44 
			519.78,272.43 537.44,290.09 555.11,272.43 555.11,177.7 547.31,169.91 547.33,169.9 547.27,169.83 555.11,161.99 		"/>
		<path class="st0" d="M676.33,52.79h-83.61l-25.59,25.59v183.08l7.93,7.93h0l17.66,17.66h83.61l25.59-25.59V78.39L676.33,52.79z
			 M602.45,251.73V88.12h64.15v163.62H602.45z"/>
		<path class="st0" d="M848.74,78.22l-7.89-7.83l0.21-0.2l-17.96-17.54h-83.53l-17.68,17.54l0.06,0.06l-7.99,7.99v83.76l7.86,7.86
			l-7.86,7.85v95.03l17.66,17.66l17.66-17.66v-60.17l74.35,74.49h25.12v-24.96l-74.51-74.51h48.86l17.96-17.54l-0.2-0.2l7.89-7.83
			V78.22z M749.27,152.26v-64.3h64.15v64.3H749.27z"/>
		<path class="st0" d="M878.57,290.55l-17.66-17.66v-94.73l7.86-7.86l-7.86-7.86V79l17.66-17.66v0l7.93-7.93h83.46l17.66,17.66
			l-0.08,0.08L995.4,79v83.45l-7.84,7.84l0.06,0.06l-0.02,0.01l7.79,7.79v94.73l-17.66,17.66l-17.66-17.66v-85h-63.84v85
			L878.57,290.55z M896.23,152.57h63.84V88.73h-63.84V152.57z"/>
		<path class="st0" d="M1116.58,287.06h-83.57l-17.66-17.66l17.66-17.66h73.88v-64.15h-73.86l-17.68-17.54l0.06-0.06l-7.99-7.99
			V78.24l7.99-7.99l-0.06-0.06l17.68-17.54h83.53l17.96,17.54l-17.92,17.78h-73.86v64.3h73.86l17.92,17.78l-0.01,0.01l7.69,7.63
			v83.8l-7.83,7.77l0.14,0.14L1116.58,287.06z"/>
	</g>
	<g id="_x32_4_10_">
		<polygon class="st0" points="184.4,75.95 158.54,49.61 74.2,49.61 56.37,67.77 74.2,85.94 148.74,85.94 148.74,151.91 
			74.2,151.91 48.34,178.26 48.34,264.2 66.17,282.37 66.17,282.37 74.2,290.55 158.54,290.55 176.37,272.38 158.54,254.21 
			84,254.21 84,188.25 158.54,188.25 176.37,170.08 176.37,170.08 184.4,161.9 		"/>
		<polygon class="st0" points="340.31,67.27 322.48,49.61 304.64,67.27 304.64,152.41 239.9,152.41 239.9,67.27 222.07,49.61 
			204.24,67.27 204.24,162.13 230.1,187.74 304.64,187.74 304.64,272.89 322.48,290.55 340.31,272.89 340.31,178.03 332.28,170.08 
			340.31,162.13"/>
	</g>
</g>
</svg>
