<?xml version="1.0" encoding="utf-8"?>
<!-- Generator: Adobe Illustrator 24.2.0, SVG Export Plug-In . SVG Version: 6.00 Build 0)  -->
<svg version="1.1" id="vertical" xmlns="http://www.w3.org/2000/svg" xmlns:xlink="http://www.w3.org/1999/xlink" x="0px" y="0px"
	 viewBox="0 0 340.16 595.28" style="enable-background:new 0 0 340.16 595.28;" xml:space="preserve">
<g id="logotipo-24horas-black">
	<g id="horas">
		<path d="M24.09,518.16v-37.7l4.21-4.11l4.21,4.11v37.7l-4.21,4.11L24.09,518.16z M32.51,527.75v37.7l-4.21,4.11l-4.21-4.11v-37.7
			l4.21-4.11L32.51,527.75z M71.11,522.96l-4.21,4.08H33.24l-4.21-4.08l4.21-4.14H66.9L71.11,522.96z M75.98,518.16l-4.21,4.11
			l-4.21-4.11v-37.7l4.21-4.11l4.21,4.11V518.16z M67.57,527.75l4.21-4.11l4.21,4.11v37.7l-4.21,4.11l-4.21-4.11V527.75z"/>
		<path d="M84,560.76v-75.54l4.21-4.11l4.21,4.11v75.54l-4.21,4.11L84,560.76z M131.08,480.4l-4.21,4.11H93.15l-4.21-4.11l4.21-4.11
			h33.72L131.08,480.4z M93.15,569.7h33.72l4.21-4.11l-4.21-4.11H93.15l-4.21,4.11L93.15,569.7z M136.02,560.76v-75.54l-4.21-4.11
			l-4.21,4.11v75.54l4.21,4.11L136.02,560.76z"/>
		<path d="M144.03,485.16l4.21-4.11l4.21,4.11v33.01l-4.21,4.11l-4.21-4.11V485.16z M152.45,527.75v37.83l-4.21,4.11l-4.21-4.11
			v-37.83l4.21-4.11L152.45,527.75z M153.18,476.22h33.72l4.27,4.08l-4.27,4.14h-33.72l-4.21-4.14L153.18,476.22z M186.91,518.88
			l4.27,4.14l-4.27,4.08h-33.72l-4.21-4.08l4.21-4.14H186.91z M153.45,528.08v5.81l36.6,35.81h6.01v-5.81l-36.66-35.81H153.45z
			 M196.06,485.16l-4.24-4.11l-4.17,4.11v33.01l4.17,4.11l4.24-4.11V485.16z"/>
		<path d="M204.14,485.48l4.21-4.11l4.21,4.11v32.88l-4.21,4.11l-4.21-4.11V485.48z M212.55,565.65l-4.21,4.11l-4.21-4.11v-37.7
			l4.21-4.11l4.21,4.11V565.65z M209.08,480.66l4.21-4.11h33.66l4.21,4.11l-4.21,4.11h-33.66L209.08,480.66z M213.29,519.01h33.66
			l4.21,4.14l-4.21,4.08h-33.66l-4.21-4.08L213.29,519.01z M256.03,518.36l-4.21,4.11l-4.21-4.11v-32.88l4.21-4.11l4.21,4.11V518.36
			z M247.61,527.95l4.21-4.11l4.21,4.11v37.7l-4.21,4.11l-4.21-4.11V527.95z"/>
		<path d="M268.25,481.05l4.21,4.11v33.01l-4.21,4.11l-4.21-4.11v-33.01L268.25,481.05z M306.91,484.44h-33.72l-4.21-4.14l4.21-4.08
			h33.72l4.27,4.08L306.91,484.44z M306.91,518.88l4.27,4.14l-4.27,4.08h-33.72l-4.21-4.08l4.21-4.14H306.91z M311.19,565.59
			l-4.27,4.11h-33.72l-4.21-4.11l4.21-4.11h33.72L311.19,565.59z M307.65,527.75l4.17-4.11l4.24,4.11v33.01l-4.24,4.11l-4.17-4.11
			V527.75z"/>
	</g>
	<g id="_x32_4_3_">
		<polygon points="160.16,241.78 134.3,215.43 49.95,215.43 32.12,233.6 49.95,251.77 124.5,251.77 124.5,317.74 49.95,317.74 
			24.09,344.09 24.09,430.03 41.92,448.2 41.93,448.2 49.95,456.38 134.3,456.38 152.13,438.21 134.3,420.04 59.76,420.04 
			59.76,354.07 134.3,354.07 152.13,335.91 152.13,335.91 160.16,327.73 		"/>
		<polygon points="316.06,233.1 298.23,215.43 280.4,233.1 280.4,318.24 215.66,318.24 215.66,233.1 197.83,215.43 180,233.1 
			180,327.95 205.86,353.57 280.4,353.57 280.4,438.71 298.23,456.38 316.06,438.71 316.06,343.86 308.03,335.91 316.06,327.95 		
			"/>
	</g>
	<g id="symbol">
		<path d="M170.08,65.53c-35.86,0-65.03,29.17-65.03,65.03c0,35.86,29.17,65.03,65.03,65.03s65.03-29.17,65.03-65.03
			C235.11,94.7,205.94,65.53,170.08,65.53z M170.08,184.75c-29.88,0-54.19-24.31-54.19-54.19c0-29.88,24.31-54.19,54.19-54.19
			c29.88,0,54.19,24.31,54.19,54.19C224.27,160.44,199.96,184.75,170.08,184.75z"/>
		<g>
			<path d="M170.08,126.32c-2.34,0-4.24,1.9-4.24,4.24s1.9,4.24,4.24,4.24s4.24-1.9,4.24-4.24S172.42,126.32,170.08,126.32z
				 M170.08,133.39c-1.56,0-2.82-1.27-2.82-2.82s1.27-2.82,2.82-2.82s2.82,1.27,2.82,2.82S171.64,133.39,170.08,133.39z"/>
			<path d="M166.1,129.12l-6.87-0.15v3.18l6.87-0.15c-0.16-0.45-0.26-0.94-0.26-1.44C165.84,130.05,165.94,129.57,166.1,129.12z"/>
			<circle cx="211.72" cy="130.56" r="1.59"/>
			<path d="M210.19,130.14l-36.07-0.85c0.13,0.4,0.2,0.83,0.2,1.27c0,0.44-0.07,0.87-0.2,1.27l36.07-0.85
				c-0.04-0.13-0.06-0.27-0.06-0.42S210.16,130.27,210.19,130.14z"/>
		</g>
		<g>
			<path d="M170.08,25.51c-10.48,0-19.01,8.53-19.01,19.01c0,10.48,8.53,19.01,19.01,19.01c10.48,0,19.01-8.53,19.01-19.01
				C189.09,34.04,180.56,25.51,170.08,25.51z M170.08,61.95c-9.61,0-17.42-7.82-17.42-17.42c0-9.61,7.82-17.42,17.42-17.42
				c9.61,0,17.42,7.82,17.42,17.42C187.5,54.13,179.69,61.95,170.08,61.95z"/>
			<path d="M175.89,65.79V49.55h-12.01v16.28c2.04-0.19,4.11-0.3,6.2-0.3C172.04,65.53,173.97,65.62,175.89,65.79z"/>
			<rect x="159.29" y="39.34" width="2.12" height="8.47"/>
			<rect x="162.47" y="39.34" width="2.12" height="8.47"/>
			<rect x="165.65" y="39.34" width="2.12" height="8.47"/>
			<rect x="168.83" y="39.34" width="2.12" height="8.47"/>
			<rect x="172" y="39.34" width="2.12" height="8.47"/>
			<rect x="175.18" y="39.34" width="2.12" height="8.47"/>
			<rect x="178.36" y="39.34" width="2.12" height="8.47"/>
		</g>
		<g>
			<rect x="225.63" y="55.76" transform="matrix(0.7071 -0.7071 0.7071 0.7071 20.17 179.8)" width="2.99" height="19.59"/>
			<rect x="218.18" y="63.17" transform="matrix(0.7071 -0.7071 0.7071 0.7071 15.1866 177.7379)" width="7.92" height="14.72"/>
			<path d="M221.43,78.03l-6.78-6.78l-6.63,6.53c2.61,1.88,5.07,3.95,7.37,6.19L221.43,78.03z"/>
		</g>
		<g>
			<polygon points="125.06,130.56 122.06,131.06 119.06,130.56 122.06,130.06"/>
			<polygon points="221.1,130.56 218.1,131.06 215.1,130.56 218.1,130.06"/>
			<polygon points="170.08,85.54 169.58,82.54 170.08,79.54 170.58,82.54"/>
			<polygon points="170.08,181.58 169.58,178.58 170.08,175.58 170.58,178.58"/>
			<polygon points="126.59,142.21 123.82,143.47 120.79,143.77 123.56,142.51"/>
			<polygon points="219.36,117.35 216.59,118.61 213.57,118.91 216.34,117.65"/>
			<polygon points="158.43,87.07 157.17,84.3 156.87,81.28 158.13,84.05"/>
			<polygon points="183.28,179.85 182.02,177.08 181.73,174.05 182.99,176.82"/>
			<polygon points="126.59,118.91 123.56,118.61 120.79,117.35 123.82,117.65"/>
			<polygon points="219.36,143.77 216.34,143.47 213.57,142.21 216.59,142.51"/>
			<polygon points="181.73,87.07 182.02,84.05 183.28,81.28 182.99,84.3"/>
			<polygon points="156.87,179.85 157.17,176.82 158.43,174.05 158.13,177.08"/>
			<polygon points="131.09,153.07 128.74,155 125.89,156.07 128.24,154.14"/>
			<polygon points="214.27,105.05 211.92,106.98 209.07,108.05 211.42,106.12"/>
			<polygon points="147.57,91.57 145.63,89.22 144.57,86.37 146.5,88.72"/>
			<polygon points="195.59,174.75 193.66,172.4 192.59,169.55 194.52,171.9"/>
			<polygon points="131.09,108.05 128.24,106.98 125.89,105.05 128.74,106.12"/>
			<polygon points="214.27,156.07 211.42,155 209.07,153.07 211.92,154.14"/>
			<polygon points="192.59,91.57 193.66,88.72 195.59,86.37 194.52,89.22"/>
			<polygon points="144.57,174.75 145.63,171.9 147.57,169.55 146.5,172.4"/>
			<polygon points="138.24,162.39 136.48,164.87 134,166.64 135.77,164.16"/>
			<polygon points="206.16,94.48 204.39,96.96 201.91,98.73 203.68,96.25"/>
			<polygon points="138.24,98.73 135.77,96.96 134,94.48 136.48,96.25"/>
			<polygon points="206.16,166.64 203.68,164.87 201.91,162.4 204.39,164.16"/>
		</g>
	</g>
</g>
</svg>
