<?xml version="1.0" encoding="utf-8"?>
<!-- Generator: Adobe Illustrator 24.2.0, SVG Export Plug-In . SVG Version: 6.00 Build 0)  -->
<svg version="1.1" id="Layer_1" xmlns="http://www.w3.org/2000/svg" xmlns:xlink="http://www.w3.org/1999/xlink" x="0px" y="0px"
	 viewBox="0 0 1920 1920" style="enable-background:new 0 0 1920 1920;" xml:space="preserve">
<style type="text/css">
	.st0{fill:#ebc700;}
</style>
<g id="symbol_4_">
	<path class="st0" d="M960,457.06c-400.58,0-726.47,325.89-726.47,726.47C233.53,1584.11,559.42,1910,960,1910
		s726.47-325.89,726.47-726.47C1686.47,782.95,1360.58,457.06,960,457.06z M960,1788.92c-333.81,0-605.39-271.58-605.39-605.39
		c0-333.82,271.58-605.39,605.39-605.39c333.81,0,605.39,271.58,605.39,605.39C1565.39,1517.34,1293.81,1788.92,960,1788.92z"/>
	<g>
		<path class="st0" d="M960,1136.2c-26.1,0-47.33,21.23-47.33,47.33s21.23,47.33,47.33,47.33s47.33-21.23,47.33-47.33
			S986.1,1136.2,960,1136.2z M960,1215.08c-17.4,0-31.56-14.16-31.56-31.56c0-17.4,14.16-31.56,31.56-31.56
			c17.4,0,31.56,14.16,31.56,31.56C991.56,1200.93,977.4,1215.08,960,1215.08z"/>
		<path class="st0" d="M915.55,1167.41l-76.77-1.63v35.5l76.77-1.63c-1.83-5.04-2.89-10.45-2.89-16.12
			S913.72,1172.45,915.55,1167.41z"/>
		<circle class="st0" cx="1425.19" cy="1183.53" r="17.75"/>
		<path class="st0" d="M1408.14,1178.83l-403-9.52c1.42,4.49,2.19,9.26,2.19,14.21s-0.77,9.72-2.19,14.21l403-9.52
			c-0.41-1.5-0.71-3.06-0.71-4.69S1407.73,1180.34,1408.14,1178.83z"/>
	</g>
	<g>
		<path class="st0" d="M960,10c-117.09,0-212.35,95.26-212.35,212.35c0,117.09,95.26,212.35,212.35,212.35
			s212.35-95.26,212.35-212.35C1172.35,105.26,1077.09,10,960,10z M960,417.01c-107.33,0-194.66-87.32-194.66-194.66
			C765.34,115.02,852.67,27.7,960,27.7c107.33,0,194.66,87.32,194.66,194.66C1154.66,329.69,1067.33,417.01,960,417.01z"/>
		<path class="st0" d="M1024.89,459.99v-181.5H890.78v181.89c22.79-2.16,45.87-3.32,69.22-3.32
			C981.87,457.06,1003.51,458.09,1024.89,459.99z"/>
		<rect x="839.51" y="164.43" class="st0" width="23.67" height="94.67"/>
		<rect x="875.01" y="164.43" class="st0" width="23.67" height="94.67"/>
		<rect x="910.51" y="164.43" class="st0" width="23.67" height="94.67"/>
		<rect x="946.01" y="164.43" class="st0" width="23.67" height="94.67"/>
		<rect x="981.51" y="164.43" class="st0" width="23.67" height="94.67"/>
		<rect x="1017.01" y="164.43" class="st0" width="23.67" height="94.67"/>
		<rect x="1052.51" y="164.43" class="st0" width="23.67" height="94.67"/>
	</g>
	<g>
		
			<rect x="1580.63" y="347.9" transform="matrix(0.7071 -0.7071 0.7071 0.7071 144.4678 1263.3877)" class="st0" width="33.36" height="218.81"/>
		
			<rect x="1497.4" y="430.74" transform="matrix(0.7071 -0.7071 0.7071 0.7071 88.7903 1240.3397)" class="st0" width="88.45" height="164.49"/>
		<path class="st0" d="M1533.67,596.66l-75.71-75.71l-74.04,72.98c29.14,21.01,56.65,44.13,82.34,69.12L1533.67,596.66z"/>
	</g>
	<g>
		<polygon class="st0" points="457.06,1183.53 423.53,1189.12 390,1183.53 423.53,1177.94 		"/>
		<polygon class="st0" points="1530,1183.53 1496.47,1189.12 1462.94,1183.53 1496.47,1177.94 		"/>
		<polygon class="st0" points="960,680.59 954.41,647.06 960,613.53 965.59,647.06 		"/>
		<polygon class="st0" points="960,1753.53 954.41,1720 960,1686.47 965.59,1720 		"/>
		<polygon class="st0" points="474.2,1313.7 443.26,1327.78 409.42,1331.06 440.36,1316.98 		"/>
		<polygon class="st0" points="1510.58,1036 1479.64,1050.08 1445.8,1053.36 1476.74,1039.28 		"/>
		<polygon class="st0" points="829.83,697.73 815.75,666.78 812.47,632.95 826.55,663.89 		"/>
		<polygon class="st0" points="1107.53,1734.11 1093.45,1703.17 1090.17,1669.33 1104.25,1700.27 		"/>
		<polygon class="st0" points="474.2,1053.36 440.36,1050.08 409.42,1036 443.26,1039.28 		"/>
		<polygon class="st0" points="1510.58,1331.06 1476.74,1327.78 1445.8,1313.7 1479.64,1316.98 		"/>
		<polygon class="st0" points="1090.17,697.73 1093.45,663.89 1107.53,632.95 1104.25,666.79 		"/>
		<polygon class="st0" points="812.47,1734.11 815.75,1700.27 829.83,1669.33 826.55,1703.17 		"/>
		<polygon class="st0" points="524.44,1435 498.2,1456.6 466.37,1468.53 492.61,1446.93 		"/>
		<polygon class="st0" points="1453.63,898.53 1427.39,920.13 1395.56,932.06 1421.8,910.45 		"/>
		<polygon class="st0" points="708.53,747.97 686.93,721.73 675,689.89 696.6,716.14 		"/>
		<polygon class="st0" points="1245,1677.16 1223.4,1650.92 1211.47,1619.09 1233.07,1645.33 		"/>
		<polygon class="st0" points="524.44,932.06 492.61,920.13 466.37,898.53 498.2,910.45 		"/>
		<polygon class="st0" points="1453.63,1468.53 1421.8,1456.6 1395.56,1435 1427.39,1446.93 		"/>
		<polygon class="st0" points="1211.47,747.97 1223.4,716.14 1245,689.9 1233.07,721.73 		"/>
		<polygon class="st0" points="675,1677.16 686.92,1645.33 708.53,1619.09 696.6,1650.92 		"/>
		<polygon class="st0" points="604.37,1539.16 584.61,1566.82 556.95,1586.58 576.71,1558.92 		"/>
		<polygon class="st0" points="1363.05,780.48 1343.29,808.14 1315.63,827.9 1335.39,800.24 		"/>
		<polygon class="st0" points="604.37,827.9 576.71,808.14 556.95,780.48 584.61,800.24 		"/>
		<polygon class="st0" points="1363.05,1586.58 1335.39,1566.82 1315.63,1539.16 1343.29,1558.92 		"/>
	</g>
</g>
</svg>
