<?xml version="1.0" encoding="utf-8"?>
<!-- Generator: Adobe Illustrator 24.2.0, SVG Export Plug-In . SVG Version: 6.00 Build 0)  -->
<svg version="1.1" id="logotipo" xmlns="http://www.w3.org/2000/svg" xmlns:xlink="http://www.w3.org/1999/xlink" x="0px" y="0px"
	 viewBox="0 0 100 60" style="enable-background:new 0 0 100 60;" xml:space="preserve">
<style type="text/css">
	.st0{fill-rule:evenodd;clip-rule:evenodd;fill:#C9AA74;}
	.st1{fill-rule:evenodd;clip-rule:evenodd;fill:#00518B;}
	.st2{fill-rule:evenodd;clip-rule:evenodd;fill:#072946;}
	.st3{fill:#19355F;}
</style>
<path class="st0" d="M3.3,48.6c1.5,8.5,8.8,10.3,19,11.2c17.1,0.9,30.6-5,42.7-11.1c-14.2,5.2-28.4,8.4-42.4,6
	C20.9,54.4,9.9,52.8,3.3,48.6L3.3,48.6z"/>
<path class="st1" d="M11.9,25.2l-0.1-2.9C2.7,28.6-3,37.5,1.7,44.2c8.7,12.1,38.1,10.5,60.6,1.2C41.5,49.6,19.6,54,9,40.3
	C6.1,36.1,7.9,30,11.9,25.2L11.9,25.2z"/>
<path class="st2" d="M89.9,15.2l6.7,0.1c1.3,0.1,2.6,1.4,3.3,2.6c0.8-11.3-5.1-19.6-33.7-17.6C50.2,2.4,36,6.8,24.6,14.8
	C38.3,8.1,52,4.1,65.7,4.3C81,3.3,86.8,7.8,89.9,15.2L89.9,15.2z"/>
<path id="Fios_e_cabos_para_cftv_7_" class="st3" d="M21.9,36.4v-3.4h2.3v0.4h-1.8v1H24v0.4h-1.6v1.5H21.9L21.9,36.4z M25,36.4v-3.4
	h0.5v3.4H25L25,36.4z M26.3,34.8c0-0.6,0.2-1,0.5-1.3c0.3-0.3,0.7-0.5,1.2-0.5c0.3,0,0.6,0.1,0.9,0.2c0.3,0.1,0.4,0.4,0.6,0.6
	c0.1,0.3,0.2,0.6,0.2,0.9c0,0.3-0.1,0.6-0.2,0.9c-0.1,0.3-0.3,0.5-0.6,0.6c-0.3,0.1-0.5,0.2-0.8,0.2c-0.3,0-0.6-0.1-0.9-0.2
	c-0.3-0.2-0.4-0.4-0.6-0.6C26.4,35.4,26.3,35.1,26.3,34.8L26.3,34.8z M26.8,34.8c0,0.4,0.1,0.7,0.3,1c0.2,0.2,0.5,0.3,0.8,0.3
	c0.3,0,0.6-0.1,0.8-0.4c0.2-0.2,0.3-0.6,0.3-1c0-0.3,0-0.5-0.1-0.7c-0.1-0.2-0.2-0.4-0.4-0.5c-0.2-0.1-0.4-0.2-0.6-0.2
	c-0.3,0-0.6,0.1-0.8,0.3C26.9,34,26.8,34.3,26.8,34.8L26.8,34.8z M30.2,35.4l0.4,0c0,0.2,0.1,0.3,0.1,0.4c0.1,0.1,0.2,0.2,0.3,0.3
	c0.2,0.1,0.3,0.1,0.5,0.1c0.2,0,0.3,0,0.5-0.1c0.1-0.1,0.2-0.1,0.3-0.2c0.1-0.1,0.1-0.2,0.1-0.3c0-0.1,0-0.2-0.1-0.3
	c-0.1-0.1-0.2-0.1-0.3-0.2c-0.1,0-0.3-0.1-0.6-0.2c-0.3-0.1-0.5-0.1-0.7-0.2c-0.2-0.1-0.3-0.2-0.4-0.3c-0.1-0.1-0.1-0.3-0.1-0.4
	c0-0.2,0-0.3,0.1-0.5c0.1-0.1,0.2-0.3,0.4-0.3c0.2-0.1,0.4-0.1,0.6-0.1c0.3,0,0.5,0,0.7,0.1c0.2,0.1,0.3,0.2,0.4,0.4
	c0.1,0.2,0.2,0.3,0.2,0.5l-0.4,0c0-0.2-0.1-0.4-0.2-0.5c-0.1-0.1-0.3-0.2-0.6-0.2c-0.3,0-0.5,0-0.6,0.1c-0.1,0.1-0.2,0.2-0.2,0.4
	c0,0.1,0,0.2,0.1,0.3c0.1,0.1,0.3,0.2,0.7,0.2c0.4,0.1,0.6,0.2,0.8,0.2c0.2,0.1,0.3,0.2,0.4,0.3c0.1,0.1,0.1,0.3,0.1,0.5
	c0,0.2-0.1,0.3-0.2,0.5c-0.1,0.2-0.3,0.3-0.4,0.4c-0.2,0.1-0.4,0.1-0.7,0.1c-0.3,0-0.6,0-0.8-0.1c-0.2-0.1-0.4-0.2-0.5-0.4
	C30.3,35.8,30.2,35.6,30.2,35.4L30.2,35.4z M34.9,36.4v-3.4h2.5v0.4h-2v1h1.9v0.4h-1.9v1.1h2.1v0.4H34.9L34.9,36.4z M41.9,35.3
	l0.5,0.1c-0.1,0.4-0.3,0.6-0.5,0.8c-0.2,0.2-0.5,0.3-0.9,0.3c-0.4,0-0.7-0.1-0.9-0.2c-0.2-0.1-0.4-0.4-0.5-0.6
	c-0.1-0.3-0.2-0.6-0.2-0.9c0-0.3,0.1-0.7,0.2-0.9c0.1-0.3,0.3-0.5,0.6-0.6c0.3-0.1,0.5-0.2,0.8-0.2c0.3,0,0.6,0.1,0.9,0.3
	c0.2,0.2,0.4,0.4,0.5,0.7l-0.4,0.1c-0.1-0.2-0.2-0.4-0.3-0.5c-0.2-0.1-0.3-0.2-0.6-0.2c-0.3,0-0.5,0.1-0.7,0.2
	c-0.2,0.1-0.3,0.3-0.4,0.5c-0.1,0.2-0.1,0.4-0.1,0.6c0,0.3,0,0.5,0.1,0.7c0.1,0.2,0.2,0.4,0.4,0.5c0.2,0.1,0.4,0.2,0.6,0.2
	c0.3,0,0.5-0.1,0.6-0.2C41.8,35.8,41.9,35.6,41.9,35.3L41.9,35.3z M42.8,36.4l1.3-3.4h0.5l1.4,3.4h-0.5l-0.4-1h-1.4l-0.4,1H42.8
	L42.8,36.4z M43.7,35.1h1.2l-0.4-0.9c-0.1-0.3-0.2-0.5-0.2-0.7c0,0.2-0.1,0.4-0.2,0.6L43.7,35.1L43.7,35.1z M46.5,36.4v-3.4h1.3
	c0.3,0,0.5,0,0.6,0.1c0.2,0.1,0.3,0.2,0.4,0.3c0.1,0.1,0.1,0.3,0.1,0.4c0,0.1,0,0.3-0.1,0.4c-0.1,0.1-0.2,0.2-0.4,0.3
	c0.2,0.1,0.4,0.2,0.5,0.3c0.1,0.1,0.2,0.3,0.2,0.5c0,0.2,0,0.3-0.1,0.4c-0.1,0.1-0.2,0.2-0.3,0.3c-0.1,0.1-0.2,0.1-0.4,0.2
	c-0.2,0-0.3,0.1-0.6,0.1H46.5L46.5,36.4z M46.9,34.5h0.7c0.2,0,0.3,0,0.4,0c0.1,0,0.2-0.1,0.3-0.2c0.1-0.1,0.1-0.2,0.1-0.3
	c0-0.1,0-0.2-0.1-0.3c-0.1-0.1-0.1-0.1-0.2-0.2c-0.1,0-0.3,0-0.5,0h-0.7V34.5L46.9,34.5z M46.9,36.1h0.9c0.1,0,0.2,0,0.3,0
	c0.1,0,0.2,0,0.3-0.1s0.1-0.1,0.2-0.2c0-0.1,0.1-0.2,0.1-0.3c0-0.1,0-0.2-0.1-0.3c-0.1-0.1-0.2-0.2-0.3-0.2c-0.1,0-0.3-0.1-0.5-0.1
	h-0.8V36.1L46.9,36.1z M49.7,34.8c0-0.6,0.2-1,0.5-1.3c0.3-0.3,0.7-0.5,1.2-0.5c0.3,0,0.6,0.1,0.9,0.2c0.3,0.1,0.4,0.4,0.6,0.6
	c0.1,0.3,0.2,0.6,0.2,0.9c0,0.3-0.1,0.6-0.2,0.9c-0.1,0.3-0.3,0.5-0.6,0.6c-0.3,0.1-0.5,0.2-0.8,0.2c-0.3,0-0.6-0.1-0.9-0.2
	c-0.3-0.2-0.4-0.4-0.6-0.6C49.7,35.4,49.7,35.1,49.7,34.8L49.7,34.8z M50.1,34.8c0,0.4,0.1,0.7,0.3,1c0.2,0.2,0.5,0.3,0.8,0.3
	c0.3,0,0.6-0.1,0.8-0.4c0.2-0.2,0.3-0.6,0.3-1c0-0.3,0-0.5-0.1-0.7c-0.1-0.2-0.2-0.4-0.4-0.5c-0.2-0.1-0.4-0.2-0.6-0.2
	c-0.3,0-0.6,0.1-0.8,0.3C50.3,34,50.1,34.3,50.1,34.8L50.1,34.8z M53.5,35.4l0.4,0c0,0.2,0.1,0.3,0.1,0.4c0.1,0.1,0.2,0.2,0.3,0.3
	c0.2,0.1,0.3,0.1,0.5,0.1c0.2,0,0.3,0,0.5-0.1c0.1-0.1,0.2-0.1,0.3-0.2c0.1-0.1,0.1-0.2,0.1-0.3c0-0.1,0-0.2-0.1-0.3
	c-0.1-0.1-0.2-0.1-0.3-0.2c-0.1,0-0.3-0.1-0.6-0.2c-0.3-0.1-0.5-0.1-0.7-0.2c-0.2-0.1-0.3-0.2-0.4-0.3c-0.1-0.1-0.1-0.3-0.1-0.4
	c0-0.2,0-0.3,0.1-0.5c0.1-0.1,0.2-0.3,0.4-0.3c0.2-0.1,0.4-0.1,0.6-0.1c0.3,0,0.5,0,0.7,0.1c0.2,0.1,0.3,0.2,0.4,0.4
	c0.1,0.2,0.2,0.3,0.2,0.5l-0.4,0c0-0.2-0.1-0.4-0.2-0.5c-0.1-0.1-0.3-0.2-0.6-0.2c-0.3,0-0.5,0-0.6,0.1c-0.1,0.1-0.2,0.2-0.2,0.4
	c0,0.1,0,0.2,0.1,0.3c0.1,0.1,0.3,0.2,0.7,0.2c0.4,0.1,0.6,0.2,0.8,0.2c0.2,0.1,0.3,0.2,0.4,0.3c0.1,0.1,0.1,0.3,0.1,0.5
	c0,0.2-0.1,0.3-0.2,0.5c-0.1,0.2-0.3,0.3-0.4,0.4c-0.2,0.1-0.4,0.1-0.7,0.1c-0.3,0-0.6,0-0.8-0.1c-0.2-0.1-0.4-0.2-0.5-0.4
	C53.6,35.8,53.6,35.6,53.5,35.4L53.5,35.4z M58.4,36.4v-3.4h1.3c0.2,0,0.4,0,0.5,0c0.2,0,0.3,0.1,0.4,0.2c0.1,0.1,0.2,0.2,0.3,0.3
	c0.1,0.1,0.1,0.3,0.1,0.5c0,0.3-0.1,0.5-0.3,0.7c-0.2,0.2-0.5,0.3-1,0.3h-0.9v1.4H58.4L58.4,36.4z M58.8,34.7h0.9
	c0.3,0,0.5-0.1,0.6-0.2c0.1-0.1,0.2-0.3,0.2-0.5c0-0.1,0-0.3-0.1-0.4c-0.1-0.1-0.2-0.2-0.3-0.2c-0.1,0-0.2,0-0.4,0h-0.9V34.7
	L58.8,34.7z M61,36.4l1.3-3.4h0.5l1.4,3.4h-0.5l-0.4-1h-1.4l-0.4,1H61L61,36.4z M62,35.1h1.2l-0.4-0.9c-0.1-0.3-0.2-0.5-0.2-0.7
	c0,0.2-0.1,0.4-0.2,0.6L62,35.1L62,35.1z M64.7,36.4v-3.4h1.5c0.3,0,0.5,0,0.7,0.1c0.2,0.1,0.3,0.2,0.4,0.3c0.1,0.2,0.1,0.3,0.1,0.5
	c0,0.2-0.1,0.4-0.2,0.6c-0.2,0.2-0.4,0.3-0.7,0.3c0.1,0.1,0.2,0.1,0.3,0.2c0.1,0.1,0.3,0.3,0.4,0.4l0.6,0.9h-0.6l-0.5-0.7
	c-0.1-0.2-0.2-0.4-0.3-0.5c-0.1-0.1-0.2-0.2-0.2-0.2C66.1,35,66,35,65.9,35c-0.1,0-0.1,0-0.3,0h-0.5v1.5H64.7L64.7,36.4z M65.2,34.6
	h1c0.2,0,0.4,0,0.5-0.1c0.1,0,0.2-0.1,0.3-0.2c0.1-0.1,0.1-0.2,0.1-0.3c0-0.2-0.1-0.3-0.2-0.4c-0.1-0.1-0.3-0.2-0.6-0.2h-1.1V34.6
	L65.2,34.6z M67.9,36.4l1.3-3.4h0.5l1.4,3.4h-0.5l-0.4-1h-1.4l-0.4,1H67.9L67.9,36.4z M68.9,35.1h1.2l-0.4-0.9
	c-0.1-0.3-0.2-0.5-0.2-0.7c0,0.2-0.1,0.4-0.2,0.6L68.9,35.1L68.9,35.1z M75.2,35.3l0.5,0.1c-0.1,0.4-0.3,0.6-0.5,0.8
	c-0.2,0.2-0.5,0.3-0.9,0.3c-0.4,0-0.7-0.1-0.9-0.2c-0.2-0.1-0.4-0.4-0.5-0.6c-0.1-0.3-0.2-0.6-0.2-0.9c0-0.3,0.1-0.7,0.2-0.9
	c0.1-0.3,0.3-0.5,0.6-0.6c0.3-0.1,0.5-0.2,0.8-0.2c0.3,0,0.6,0.1,0.9,0.3c0.2,0.2,0.4,0.4,0.5,0.7l-0.4,0.1
	c-0.1-0.2-0.2-0.4-0.3-0.5c-0.2-0.1-0.3-0.2-0.6-0.2c-0.3,0-0.5,0.1-0.7,0.2c-0.2,0.1-0.3,0.3-0.4,0.5c-0.1,0.2-0.1,0.4-0.1,0.6
	c0,0.3,0,0.5,0.1,0.7c0.1,0.2,0.2,0.4,0.4,0.5c0.2,0.1,0.4,0.2,0.6,0.2c0.3,0,0.5-0.1,0.6-0.2C75,35.8,75.1,35.6,75.2,35.3
	L75.2,35.3z M76.4,36.4v-3.4h2.3v0.4h-1.8v1h1.6v0.4h-1.6v1.5H76.4L76.4,36.4z M80.3,36.4v-3h-1.1v-0.4h2.7v0.4h-1.1v3H80.3
	L80.3,36.4z M83.5,36.4l-1.3-3.4h0.5l0.9,2.4c0.1,0.2,0.1,0.4,0.2,0.5c0.1-0.2,0.1-0.4,0.2-0.5l0.9-2.4h0.5l-1.3,3.4H83.5L83.5,36.4
	z"/>
<g id="FRAPA_7_">
	<polygon class="st3" points="13.9,30.3 17.3,30.3 17.3,24.3 25.9,24.3 25.9,22 17.3,22 17.3,20.2 28.7,20.2 28.7,17.6 13.9,17.6 	
		"/>
	<path class="st3" d="M77.3,17.6h-12v12.7h3.4v-4.1h8.7c3,0,3.6-1.8,3.6-3.2v-2.2C81,19.3,80.3,17.6,77.3,17.6z M77.6,21.3v1.3
		c0,0.7-0.4,1.1-1.2,1.1h-7.8v-3.5h7.8C77.2,20.2,77.6,20.5,77.6,21.3z"/>
	<path class="st3" d="M45.7,22.5v-1.6c0-1.5-0.6-3.2-3.6-3.2h-12v12.7h3.4v-4.6h5.6l3.7,4.6h3.6v-0.5l-3.4-4.2
		C44.8,25.4,45.7,24.3,45.7,22.5z M33.5,20.2h7.8c0.8,0,1.2,0.3,1.2,1.1v1.1c0,0.8-0.4,1.1-1.2,1.1h-7.8V20.2z"/>
	<path class="st3" d="M60,17.6h-9.2c-2.7,0-3.3,1.6-3.3,2.9v9.8h3.4v-4.1h9v4.1h3.4v-9.8C63.3,19.2,62.7,17.6,60,17.6z M59.9,21.1
		v2.8h-9v-2.8c0-0.6,0.3-0.9,1-0.9h6.9C59.6,20.2,59.9,20.5,59.9,21.1z"/>
	<path class="st3" d="M95.1,17.6h-9.2c-2.7,0-3.3,1.6-3.3,2.9v9.8H86v-4.1h9v4.1h3.4v-9.8C98.4,19.2,97.8,17.6,95.1,17.6z M95,21.1
		v2.8h-9v-2.8c0-0.6,0.3-0.9,1-0.9h6.9C94.7,20.2,95,20.5,95,21.1z"/>
</g>
</svg>
