<?xml version="1.0" encoding="utf-8"?>
<!-- Generator: Adobe Illustrator 24.2.0, SVG Export Plug-In . SVG Version: 6.00 Build 0)  -->
<svg version="1.1" id="Layer_1" xmlns="http://www.w3.org/2000/svg" xmlns:xlink="http://www.w3.org/1999/xlink" x="0px" y="0px"
	 viewBox="0 0 425 132" style="enable-background:new 0 0 425 132;" xml:space="preserve">
<style type="text/css">
	.st0{fill:#FFFFFF;}
	.st1{fill:#231F20;}
	.st2{fill:#0066B2;}
	.st3{fill:#F9A533;}
	.st4{fill:#FF5F00;}
	.st5{fill:#EB001B;}
	.st6{fill:#F79E1B;}
	.st7{fill-rule:evenodd;clip-rule:evenodd;fill:#FFFFFF;}
	.st8{fill-rule:evenodd;clip-rule:evenodd;fill:#009DDD;}
	.st9{fill-rule:evenodd;clip-rule:evenodd;fill:#ED1C2E;}
	.st10{fill:#FFCB05;}
	.st11{fill:#00A4E0;}
	.st12{fill:#EF4123;}
	.st13{fill:#007858;}
	.st14{fill:#C7D540;}
	.st15{fill:#016FD0;}
	.st16{fill:#822124;}
	.st17{fill:#0079BE;}
	.st18{fill:#211E1F;}
	.st19{font-family:'Montserrat-Bold';}
	.st20{font-size:12px;}
</style>
<g>
	<path class="st0" d="M414.5,131.5h-404c-5.5,0-10-4.5-10-10v-74c0-5.5,4.5-10,10-10h404c5.5,0,10,4.5,10,10v74
		C424.5,127,420,131.5,414.5,131.5z"/>
	<path class="st1" d="M414.5,37h-52v1h52c5.2,0,9.5,4.2,9.5,9.4v74.2c0,5.2-4.2,9.4-9.5,9.4H10.5c-5.2,0-9.5-4.2-9.5-9.4V47.4
		c0-5.2,4.2-9.4,9.5-9.4h52v-1h-52C4.7,37,0,41.7,0,47.4v74.2c0,5.7,4.7,10.4,10.5,10.4h404.1c5.8,0,10.5-4.7,10.5-10.4V47.4
		C425,41.7,420.3,37,414.5,37z"/>
	<g id="freedomee_1_">
		<path d="M342.6,40.5c-6.2,0-12.3,0-18.5,0c-0.1,0-0.1,0-0.2-0.1c0-10.6,0-21.2,0-31.9c6.2,0,12.5,0,18.7,0c0,2.5,0,4.9,0,7.4
			c-3.3,0-6.6,0-10,0c0,1.4,0,2.6,0,3.9c0,0.6,0.2,0.7,0.7,0.7c2.3,0,4.6,0,6.9,0c0.6,0,1.1,0,1.7,0c0,2.4,0,4.8,0,7.2
			c-3.1,0-6.2,0-9.3,0c0,1.8,0,3.4,0,5.1c3.4,0,6.7,0,10,0C342.6,35.4,342.6,38,342.6,40.5z"/>
		<path d="M307.6,41.1c-1.1-0.2-2.3-0.3-3.4-0.6c-4.5-1.2-7.1-4.4-7.6-9.1c-0.2-2.7-0.2-5.3,0.7-7.8c1.5-4.3,5-7.1,9.6-7.3
			c1.7-0.1,3.5,0,5.1,0.4c3.9,1,5.8,4,6.6,7.7c0.5,2.3,0.4,4.6,0,6.9c-4.5,0-8.9,0-13.4,0c0.1,1.3,0.9,2,1.8,2.4
			c1.3,0.6,2.7,0.6,4.1,0.6c2.1-0.1,4.1-0.6,6.1-1.4c0.2,1.5,0.4,2.9,0.5,4.3c0,0.2,0,0.3,0,0.5c0.2,2.1,0.5,1.7-1.4,2.2
			c-1.8,0.5-3.6,0.7-5.4,1c-0.2,0-0.4,0.1-0.6,0.1C309.5,41.1,308.5,41.1,307.6,41.1z M305.3,25.8c1.7,0,3.5,0,5.2,0
			c0.2-2-0.7-3.3-2.4-3.3C306.5,22.5,305.2,24,305.3,25.8z"/>
		<path d="M256.9,26.1c0.6-0.5,1.1-0.9,1.7-1.4c1.4-1.1,2.6-1,3.8,0.2c0.7,0.7,1.2,1.4,1.8,2.1c0.2,0.3,0.4,0.5,0.7,0.9
			c0.6-0.6,1.2-1.1,1.7-1.6c1.8-1.6,3.3-1.7,5.2-0.1c1.4,1.2,2.8,2.6,4.2,3.8c3.1,2.5,6.5,3.2,10.3,2.1c3.6-1.1,7-2.4,9.9-4.9
			c0.3-0.2,0.5-0.6,0.6-1c0.1,0.1-0.1,3.8-0.2,4c-0.7,0.5-1.5,0.9-2.2,1.3c-3.1,1.8-6.4,3-9.9,3.5c-3.9,0.6-7.4-0.7-10.4-3.3
			c-1.2-1.1-2.4-2.2-3.6-3.3c-1-1-1.6-0.9-2.5,0.2c-0.4,0.5-0.9,1-1.4,1.3c-1.5,1.1-3.1,0.9-4.2-0.6c-0.7-0.9-1.2-1.9-1.8-2.8
			c-2,1.2-3.3,2.9-4.6,4.7c-0.6,0.9-1.3,1.7-1.9,2.6c-0.4,0.6-0.9,0.9-1.7,0.5c-0.7-0.4-0.8-0.8-0.5-1.8c0.2-0.6,0.4-1.3,0.7-2.1
			c-0.7,0.3-1.3,0.5-1.9,0.7c-2.3,0.9-4.5,1.7-7,2.1c-3,0.4-5.9,0.1-8.8-0.4c-1-0.2-2.1-0.2-3.1-0.1c-2.3,0.3-2.7,0-2.7-2.3
			c0-0.1,0-0.2,0-0.5c-0.6,0.2-1.1,0.3-1.6,0.5c-3.6,1.2-7.3,1.7-11.1,1.1c-1.8-0.3-3.3,0.6-4.5,1.9c-0.6,0.6-1.2,1.3-1.9,1.8
			c-1.4,0.9-2.9,0.3-3-1.2c0-0.4,0.1-0.7,0.2-1.1c0.6-1.9-0.1-3.4-1.3-4.8c-0.8-0.9-1.6-1.7-2.3-2.7c-1.7-2.5-2-5.4-1.6-8.3
			c0.7-4.4,2.4-8.4,5.6-11.6c3.3-3.4,7.1-5.5,12-5.3c2.5,0.1,4.4,1.8,4.8,4.3c0.4,2.7-0.2,5.3-0.9,7.9c-1.2,4.3-3.5,8.3-5.6,12.2
			c-0.5,0.9-1,1.8-1.3,2.7c-0.4,1.1,0,1.8,1.2,2c1.1,0.1,2.2,0.2,3.3,0.1c2.5-0.2,4.9-0.9,7.2-1.9c1-0.4,1.4-1.1,1.6-2.1
			c0.4-1.9,1.3-3.4,3.3-3.9c1-0.3,2-0.2,3,0.3c1.1,0.6,1.6,1.6,1.3,3.2c-0.3,1.3-0.6,2.5-1,3.8c-0.4,1.4-0.1,1.9,1.4,2
			c3.6,0.4,7,0.2,10.4-1.1c2-0.8,3.7-1.9,5.3-3.3c0.3-0.3,0.6-0.5,0.9-0.7c0.8-0.6,1.2-0.6,2,0.1C256.5,25.7,256.7,25.9,256.9,26.1z
			 M213.8,26.2c0.1-0.1,0.1-0.1,0.2-0.1c3.1-4.8,5.8-9.9,7.3-15.4c0.5-1.9,0.9-3.8,0.7-5.7c-0.2-1.4-1.1-2.3-2.5-2.4
			c-1.9-0.2-3.6,0.2-5.2,1c-4.7,2.4-10.7,9.1-9.6,17.4c0.3,2.4,1.4,4.4,3.5,5.7c1,0.6,1.6,0.5,2.4-0.2c0.3-0.3,0.6-0.6,0.9-0.9
			c0.5-0.5,1.1-0.5,1.6,0C213.4,25.7,213.6,25.9,213.8,26.2z M232.8,24.8c0.7,0.3,1.4,0.6,2.2,1c-0.1-0.8,0.2-1.7-0.7-2
			C233.6,23.5,233.1,24,232.8,24.8z"/>
		<path d="M98.2,74.6c-0.8-0.3-1-0.9-1-1.7c0.3-5.1,0.7-10.2,0.9-15.3c0.2-2.8,0.3-5.5,0.4-8.3c0-0.3,0-0.6,0-0.9
			c-0.2-1.6-0.9-2.2-2.4-1.6c-2.4,0.9-4.8,1.9-7.2,2.9c-0.4,0.2-0.9,0.3-1.3,0.5c-0.6,0.2-1.1-0.1-1.3-0.7c-0.2-0.5-0.2-1.1,0.3-1.4
			c1.1-0.8,2.2-1.6,3.4-2.3c0.2-0.1,0.6-0.1,0.9-0.1c1-0.2,2-0.2,2.9-0.6c1.1-0.5,2.2-1.2,3.2-1.9c1.4-1,2-2.4,2.2-4.1
			c0.3-4.3,0.6-8.6,0.9-12.9c0.1-1.3,0.2-2.7,0.3-4c0.1-0.8,0.6-1,1.3-1c0.8,0.1,1.1,0.5,1,1.2c-0.1,2.8-0.3,5.6-0.4,8.4
			c-0.1,2.5-0.3,5-0.4,7.5c-0.1,2.4,0.8,3,3,2.1c4.8-1.8,9.5-3.7,14.3-5.3c6.6-2.2,13.4-4.2,20.1-6.2c0.5-0.1,1-0.1,1.5-0.1
			c0.5,0,1,0.2,1.5,0.3c0.3-0.5,0.6-1.1,0.9-1.5c1-1.4,2.1-1.4,3.1,0c0.7,0.9,1.3,1.8,2,2.7c0.3,0.3,0.6,0.6,0.9,0.9
			c1.6,1.4,3.4,1.7,5.2,0.6c1.3-0.8,2.5-1.8,3.7-2.7c0.1-0.1,0.2-0.4,0.2-0.6c0.9-3.4,2.4-6.4,4.9-8.8c0.9-0.9,1.9-1.6,3.2-1.8
			c1.5-0.2,2.5,0.7,2.6,2.2c0,1.9-0.6,3.6-1.5,5.1c-0.8,1.3-1.8,2.6-2.8,3.8c-0.6,0.8-1.3,0.9-1.9,0.4c-0.6-0.5-0.6-1.4-0.1-2.1
			c0.7-0.9,1.5-1.8,2.1-2.8c0.6-1,1.1-2.2,1.6-3.3c-0.1-0.1-0.2-0.2-0.4-0.3c-0.7,0.8-1.6,1.5-2.2,2.3c-1.5,2-2.6,4.2-3.1,6.7
			c-0.1,0.3-0.1,0.6-0.1,0.9c-0.1,2,0.3,2.3,2.4,1.9c1.6-0.3,3.2-0.9,4.7-1.6c5.8-2.5,11.1-5.8,16.3-9.5c0.5-0.3,0.8-0.9,1.2-1.3
			c1.1-1.2,2.3-2.3,4-2.5c1.4-0.2,2.4,0.7,2.5,2.1c0.1,1.7-0.4,3.4-1.3,4.8c-0.9,1.4-1.9,2.8-2.9,4.1c-0.7,0.9-1.4,1-2,0.4
			c-0.6-0.5-0.5-1.5,0.1-2.2c1-1.5,2-3,3-4.5c0.3-0.4,0.4-1,0.4-1.6c-0.3,0.2-0.6,0.3-0.8,0.5c-2.8,2.8-4.6,6-4.7,10
			c0,1,0.4,1.5,1.4,1.3c1.6-0.3,3.3-0.6,4.8-1.3c3.4-1.6,6.8-3.4,10.2-5.2c0.9-0.5,1.6-0.5,2,0.2c0.5,0.8,0.3,1.8-0.4,2.2
			c-4.4,2.6-8.8,5.1-13.7,6.5c-1.1,0.3-2.4,0.5-3.6,0.4c-1.9-0.1-3.2-1.8-3.2-4.1c0-1.3,0.3-2.5,0.5-3.8c0-0.2,0.1-0.5,0.2-0.7
			c-2.4,1.4-4.7,2.8-7.1,4.1c-3.3,1.8-6.6,3.5-10.2,4.3c-1,0.2-2.1,0.4-3.1,0.2c-1.8-0.3-2.6-1.6-3-3.4c-0.3,0.2-0.5,0.4-0.8,0.5
			c-1.5,1.1-3.2,1.9-5.1,2c-1.7,0.1-3.2-0.6-4.5-1.7c-0.6-0.5-1.1-1-1.6-1.5c-0.8-0.8-1.3-0.7-1.8,0.2c-0.9,1.6-1.7,3.2-2.6,4.8
			c-0.4,0.6-0.7,1.3-1.3,1.8c-0.3,0.3-1,0.4-1.5,0.3c-0.2,0-0.4-0.8-0.4-1.2c0.1-1.6,0.3-3.1,0.4-4.7c0-0.5,0.1-1,0.1-1.6
			c-1.7,0.5-3.3,0.9-4.9,1.4c-6.9,2.3-13.8,4.7-20.7,7c-2.3,0.8-4.6,1.6-6.9,2.4c-3.4,1.1-5.2,3.4-5.4,7c-0.3,4-0.4,7.9-0.7,11.9
			c-0.2,4-0.5,8.1-0.8,12.1c0,0.7-0.2,1.2-0.8,1.5C98.7,74.6,98.4,74.6,98.2,74.6z"/>
		<path d="M82.4,27.5c0.3-0.5,0.6-0.9,0.8-1.4c1.4-2.8,3.8-4.7,6.4-6.2c5.7-3.4,11.7-5.9,18.2-7.4c4.3-0.9,8.7-1.3,13-1
			c2.3,0.1,4.6,0.9,6.6,2c1,0.6,1.8,1.7,2.6,2.6c0.4,0.5,0.3,1.1-0.3,1.6c-0.6,0.5-1.2,0.4-1.7-0.2c-2.2-3.2-5.6-3.6-9-3.8
			c-4.4-0.2-8.7,0.7-12.9,1.8c-5.7,1.5-11.2,3.7-16.2,7c-1.8,1.2-3.5,2.6-4.3,4.7c-0.1,0.2-0.2,0.3-0.2,0.4c-1,1.6-1.5,1.6-2.8,0.4
			c-0.1-0.1-0.2-0.1-0.3-0.2C82.4,27.7,82.4,27.6,82.4,27.5z"/>
	</g>
	<g>
		<g id="visa">
			<polygon class="st0" points="12.5,73.6 62.5,73.6 62.5,123.6 12.5,123.6 12.5,73.6 			"/>
			<g>
				<g>
					<polygon class="st2" points="34.9,104.7 31.7,104.7 33.7,92.5 36.9,92.5 					"/>
					<path class="st2" d="M29.1,92.5l-3,8.4l-0.4-1.8l0,0l-1.1-5.5c0,0-0.1-1.1-1.5-1.1h-5L18,92.7c0,0,1.5,0.3,3.3,1.4l2.8,10.6
						h3.3l5.1-12.2H29.1z"/>
					<path class="st2" d="M54,104.7H57l-2.5-12.2h-2.6c-1.2,0-1.5,0.9-1.5,0.9l-4.7,11.3H49l0.7-1.8h4L54,104.7z M50.5,100.4
						l1.7-4.6l0.9,4.6H50.5z"/>
					<path class="st2" d="M45.9,95.4l0.5-2.6c0,0-1.4-0.5-2.9-0.5c-1.6,0-5.3,0.7-5.3,4c0,3.2,4.4,3.2,4.4,4.8s-3.9,1.4-5.2,0.3
						l-0.5,2.7c0,0,1.4,0.7,3.6,0.7c2.2,0,5.4-1.1,5.4-4.2c0-3.2-4.4-3.5-4.4-4.8C41.5,94.5,44.5,94.7,45.9,95.4z"/>
				</g>
				<path class="st3" d="M25.7,99.1l-1.1-5.5c0,0-0.1-1.1-1.5-1.1h-5L18,92.7c0,0,2.4,0.5,4.7,2.4C25,96.8,25.7,99.1,25.7,99.1z"/>
			</g>
		</g>
		<g>
			<polygon class="st0" points="62.5,73.6 112.5,73.6 112.5,123.6 62.5,123.6 62.5,73.6 			"/>
			<g>
				<path id="XMLID_622_" d="M73.7,115v-2.2c0-0.8-0.5-1.4-1.3-1.4c-0.4,0-0.9,0.1-1.2,0.6c-0.2-0.4-0.6-0.6-1.1-0.6
					c-0.4,0-0.7,0.1-1,0.5v-0.4h-0.7v3.4H69v-1.9c0-0.6,0.3-0.9,0.8-0.9c0.5,0,0.7,0.3,0.7,0.9v1.9h0.8v-1.9c0-0.6,0.3-0.9,0.8-0.9
					c0.5,0,0.8,0.3,0.8,0.9v1.9H73.7z M84.9,111.6h-1.2v-1h-0.8v1h-0.7v0.7h0.7v1.6c0,0.8,0.3,1.3,1.2,1.3c0.3,0,0.7-0.1,0.9-0.3
					l-0.2-0.6c-0.2,0.1-0.5,0.2-0.7,0.2c-0.4,0-0.5-0.2-0.5-0.6v-1.6h1.2V111.6z M91.2,111.5c-0.4,0-0.7,0.2-0.9,0.5v-0.4h-0.7v3.4
					h0.7v-1.9c0-0.6,0.2-0.9,0.7-0.9c0.2,0,0.3,0,0.5,0.1l0.2-0.7C91.6,111.5,91.4,111.5,91.2,111.5L91.2,111.5z M81.6,111.8
					c-0.4-0.2-0.9-0.4-1.4-0.4c-0.9,0-1.4,0.4-1.4,1.1c0,0.6,0.4,0.9,1.2,1l0.4,0.1c0.4,0.1,0.6,0.2,0.6,0.4c0,0.3-0.3,0.4-0.8,0.4
					c-0.5,0-0.9-0.2-1.1-0.4l-0.4,0.6c0.4,0.3,0.9,0.4,1.5,0.4c1,0,1.6-0.5,1.6-1.1c0-0.6-0.5-0.9-1.2-1l-0.4-0.1
					c-0.3,0-0.6-0.1-0.6-0.3c0-0.3,0.2-0.4,0.7-0.4c0.4,0,0.9,0.2,1.1,0.3L81.6,111.8z M101.6,111.5c-0.4,0-0.7,0.2-0.9,0.5v-0.4
					H100v3.4h0.7v-1.9c0-0.6,0.2-0.9,0.7-0.9c0.2,0,0.3,0,0.5,0.1l0.2-0.7C102,111.5,101.8,111.5,101.6,111.5L101.6,111.5z
					 M92,113.3c0,1,0.7,1.8,1.8,1.8c0.5,0,0.9-0.1,1.2-0.4l-0.4-0.6c-0.3,0.2-0.6,0.3-0.9,0.3c-0.6,0-1-0.4-1-1.1
					c0-0.7,0.4-1.1,1-1.1c0.3,0,0.6,0.1,0.9,0.3l0.4-0.6c-0.4-0.3-0.7-0.4-1.2-0.4C92.7,111.5,92,112.2,92,113.3L92,113.3z
					 M99,113.3v-1.7h-0.7v0.4c-0.2-0.3-0.6-0.5-1.1-0.5c-1,0-1.7,0.8-1.7,1.8c0,1,0.8,1.8,1.7,1.8c0.5,0,0.8-0.2,1.1-0.5v0.4H99
					V113.3z M96.2,113.3c0-0.6,0.4-1.1,1-1.1c0.6,0,1,0.5,1,1.1s-0.4,1.1-1,1.1C96.6,114.4,96.2,113.9,96.2,113.3L96.2,113.3z
					 M87.2,111.5c-1,0-1.7,0.7-1.7,1.8c0,1.1,0.7,1.8,1.8,1.8c0.5,0,1-0.1,1.4-0.5l-0.4-0.6c-0.3,0.2-0.7,0.4-1,0.4
					c-0.5,0-0.9-0.2-1-0.8h2.5c0-0.1,0-0.2,0-0.3C88.8,112.2,88.2,111.5,87.2,111.5L87.2,111.5z M87.2,112.1c0.5,0,0.8,0.3,0.9,0.8
					h-1.8C86.3,112.5,86.6,112.1,87.2,112.1L87.2,112.1z M105.9,113.3v-3.1h-0.7v1.8c-0.2-0.3-0.6-0.5-1.1-0.5c-1,0-1.7,0.8-1.7,1.8
					c0,1,0.8,1.8,1.7,1.8c0.5,0,0.8-0.2,1.1-0.5v0.4h0.7V113.3z M106.8,114.7C106.8,114.7,106.8,114.7,106.8,114.7
					c0.1,0,0.1,0,0.2,0.1c0,0,0,0,0,0.1c0,0,0,0.1,0,0.1c0,0,0,0.1,0,0.1c0,0,0,0,0,0.1c0,0,0,0-0.1,0c0,0-0.1,0-0.1,0
					c0,0-0.1,0-0.1,0c0,0-0.1,0-0.1,0c0,0,0,0,0-0.1c0,0,0-0.1,0-0.1c0,0,0-0.1,0-0.1c0,0,0,0,0-0.1
					C106.6,114.7,106.7,114.7,106.8,114.7C106.7,114.7,106.8,114.7,106.8,114.7z M106.8,115.1C106.8,115.1,106.8,115.1,106.8,115.1
					c0.1,0,0.1,0,0.1,0c0,0,0,0,0-0.1c0,0,0,0,0-0.1c0,0,0,0,0-0.1c0,0,0,0,0-0.1c0,0,0,0-0.1,0c0,0,0,0-0.1,0c0,0,0,0-0.1,0
					c0,0,0,0-0.1,0c0,0,0,0,0,0.1c0,0,0,0,0,0.1c0,0,0,0,0,0.1c0,0,0,0,0,0.1C106.7,115,106.7,115,106.8,115.1
					C106.7,115.1,106.8,115.1,106.8,115.1z M106.8,114.8C106.8,114.8,106.8,114.8,106.8,114.8C106.9,114.8,106.9,114.8,106.8,114.8
					c0.1,0.1,0.1,0.1,0.1,0.1c0,0,0,0,0,0l0.1,0.1h-0.1l-0.1-0.1h0v0.1h0L106.8,114.8L106.8,114.8z M106.7,114.8L106.7,114.8
					L106.7,114.8C106.8,114.9,106.8,114.9,106.7,114.8C106.8,114.9,106.8,114.9,106.7,114.8C106.8,114.8,106.8,114.8,106.7,114.8
					C106.8,114.8,106.8,114.8,106.7,114.8L106.7,114.8z M103.1,113.3c0-0.6,0.4-1.1,1-1.1c0.6,0,1,0.5,1,1.1s-0.4,1.1-1,1.1
					C103.5,114.4,103.1,113.9,103.1,113.3L103.1,113.3z M77.9,113.3v-1.7h-0.7v0.4c-0.2-0.3-0.6-0.5-1.1-0.5c-1,0-1.7,0.8-1.7,1.8
					c0,1,0.8,1.8,1.7,1.8c0.5,0,0.8-0.2,1.1-0.5v0.4h0.7V113.3z M75.1,113.3c0-0.6,0.4-1.1,1-1.1c0.6,0,1,0.5,1,1.1s-0.4,1.1-1,1.1
					C75.5,114.4,75.1,113.9,75.1,113.3z"/>
				<rect x="81.3" y="84.9" class="st4" width="11.7" height="21.1"/>
				<path id="XMLID_35_" class="st5" d="M82,95.5c0-4.3,2-8.1,5.1-10.6C84.9,83.1,82,82,78.9,82c-7.4,0-13.4,6-13.4,13.4
					c0,7.4,6,13.4,13.4,13.4c3.1,0,6-1.1,8.3-2.9C84,103.5,82,99.7,82,95.5z"/>
				<path class="st6" d="M108.9,95.5c0,7.4-6,13.4-13.4,13.4c-3.1,0-6-1.1-8.3-2.9c3.1-2.5,5.1-6.3,5.1-10.6s-2-8.1-5.1-10.6
					c2.3-1.8,5.2-2.9,8.3-2.9C102.9,82,108.9,88,108.9,95.5z M107.8,105.1v-0.9h0.4v-0.2h-0.9v0.2h0.4v0.9H107.8z M109.5,105.1V104
					h-0.3l-0.3,0.7l-0.3-0.7h-0.3v1.1h0.2v-0.8l0.3,0.7h0.2l0.3-0.7v0.8H109.5z"/>
			</g>
		</g>
		<g>
			<polygon class="st7" points="112.5,73.6 162.5,73.6 162.5,123.6 112.5,123.6 112.5,73.6 			"/>
			<g id="maestro">
				<path class="st8" d="M137.5,109c2.8-2.6,4.6-6.3,4.6-10.4c0-4.1-1.8-7.9-4.6-10.4c-2.5-2.3-5.8-3.6-9.4-3.6
					c-7.7,0-14,6.3-14,14.1c0,7.8,6.3,14.1,14,14.1C131.7,112.6,135,111.3,137.5,109L137.5,109z"/>
				<path class="st9" d="M146.9,84.5c-3.6,0-6.9,1.4-9.4,3.6c-0.5,0.5-1,1-1.4,1.5h2.8c0.4,0.5,0.7,1,1.1,1.5h-5
					c-0.3,0.5-0.6,1-0.8,1.5h6.6c0.2,0.5,0.4,1,0.6,1.5h-7.7c-0.2,0.5-0.3,1-0.4,1.5h8.6c0.2,1,0.3,2,0.3,3c0,1.6-0.3,3.1-0.7,4.5
					h-7.7c0.2,0.5,0.4,1,0.6,1.5h6.6c-0.2,0.5-0.5,1-0.8,1.5h-5c0.3,0.5,0.7,1,1.1,1.5h2.8c-0.4,0.5-0.9,1-1.4,1.5
					c2.5,2.3,5.8,3.6,9.4,3.6c7.7,0,14-6.3,14-14.1C160.8,90.8,154.6,84.5,146.9,84.5L146.9,84.5z"/>
				<path class="st9" d="M159,106.4c0-0.3,0.2-0.5,0.5-0.5c0.2,0,0.5,0.2,0.5,0.5c0,0.3-0.2,0.5-0.5,0.5
					C159.2,106.9,159,106.7,159,106.4L159,106.4z M159.4,106.8c0.2,0,0.3-0.2,0.3-0.3c0-0.2-0.2-0.3-0.3-0.3c-0.2,0-0.3,0.2-0.3,0.3
					C159.1,106.6,159.2,106.8,159.4,106.8L159.4,106.8z M159.4,106.6L159.4,106.6l-0.1-0.4h0.2c0,0,0.1,0,0.1,0c0,0,0.1,0.1,0.1,0.1
					c0,0,0,0.1-0.1,0.1l0.1,0.2h-0.1l-0.1-0.2h-0.1V106.6v-0.2h0.1c0,0,0,0,0.1,0c0,0,0,0,0,0c0,0,0,0,0,0c0,0,0,0-0.1,0h0v0.1
					V106.6L159.4,106.6z"/>
				<path class="st7" d="M156,101.6c0-0.3,0.2-0.5,0.5-0.5c0.2,0,0.5,0.2,0.5,0.5c0,0.3-0.2,0.5-0.5,0.5
					C156.2,102.1,156,101.9,156,101.6L156,101.6z M156.5,102c0.2,0,0.3-0.2,0.3-0.3c0-0.2-0.2-0.3-0.3-0.3c-0.2,0-0.3,0.2-0.3,0.3
					C156.1,101.8,156.3,102,156.5,102L156.5,102z M156.4,101.8L156.4,101.8l-0.1-0.4h0.2c0,0,0.1,0,0.1,0c0,0,0.1,0.1,0.1,0.1
					c0,0,0,0.1-0.1,0.1l0.1,0.2h-0.1l-0.1-0.2h-0.1V101.8v-0.2h0.1c0,0,0,0,0.1,0c0,0,0,0,0,0c0,0,0,0,0,0c0,0,0,0-0.1,0h0v0.1
					V101.8L156.4,101.8z"/>
				<polygon class="st7" points="126.4,102.1 124.6,102.1 125.7,96.6 123.3,102.1 121.7,102.1 121.4,96.6 120.4,102.1 118.8,102.1 
					120.2,94.9 122.9,94.9 123,99.4 124.9,94.9 127.7,94.9 126.4,102.1 				"/>
				<path class="st7" d="M145.8,102c-0.5,0.1-0.8,0.2-1.2,0.2c-0.9,0-1.4-0.4-1.4-1.3c0-0.2,0-0.3,0.1-0.5l0.1-0.6l0.1-0.5l0.8-4.4
					h1.7l-0.3,1.3h0.9l-0.2,1.4h-0.9l-0.5,2.4c0,0.1,0,0.2,0,0.2c0,0.3,0.2,0.4,0.6,0.4c0.2,0,0.4,0,0.5-0.1L145.8,102L145.8,102z"
					/>
				<path class="st7" d="M150.9,96.3c-0.1-0.1-0.2-0.1-0.2-0.1c-0.1,0-0.1,0-0.1,0c-0.1,0-0.1,0-0.2,0c-0.6,0-1,0.3-1.5,0.9l0.2-0.9
					h-1.6l-1.1,5.8h1.7c0.6-3.5,0.9-4.2,1.7-4.2c0.1,0,0.1,0,0.2,0l0.2,0L150.9,96.3L150.9,96.3z"/>
				<path class="st7" d="M138.9,98.1c0,0.7,0.4,1.2,1.3,1.6c0.7,0.3,0.8,0.4,0.8,0.6c0,0.4-0.3,0.5-1,0.5c-0.5,0-1-0.1-1.6-0.2
					l-0.2,1.3l0.1,0l0.3,0.1c0.1,0,0.3,0,0.5,0.1c0.4,0,0.7,0,1,0c1.9,0,2.7-0.6,2.7-1.9c0-0.8-0.4-1.3-1.2-1.6
					c-0.7-0.3-0.8-0.4-0.8-0.6c0-0.3,0.3-0.5,0.9-0.5c0.3,0,0.8,0,1.3,0.1l0.3-1.3c-0.5-0.1-1.1-0.1-1.5-0.1
					C139.6,96.1,138.9,97,138.9,98.1L138.9,98.1z"/>
				<path class="st7" d="M132,102.1h-1.4l0-0.6c-0.4,0.5-1,0.7-1.8,0.7c-0.9,0-1.6-0.6-1.6-1.6c0-1.4,1.1-2.2,3.1-2.2
					c0.2,0,0.4,0,0.7,0c0.1-0.2,0.1-0.3,0.1-0.4c0-0.4-0.3-0.5-1.1-0.5c-0.5,0-1.1,0.1-1.4,0.2l-0.2,0.1l-0.2,0l0.2-1.3
					c0.9-0.2,1.4-0.3,2.1-0.3c1.5,0,2.3,0.6,2.3,1.7c0,0.3,0,0.5-0.1,1.1l-0.4,2.1l-0.1,0.4l0,0.3l0,0.2L132,102.1L132,102.1z
					 M130.8,99.5c-0.2,0-0.3,0-0.4,0c-1,0-1.5,0.3-1.5,0.9c0,0.4,0.2,0.6,0.6,0.6C130.2,100.9,130.7,100.3,130.8,99.5L130.8,99.5z"
					/>
				<path class="st7" d="M137.7,102c-0.6,0.2-1.2,0.2-1.8,0.2c-1.9,0-3-0.9-3-2.6c0-2,1.3-3.5,3-3.5c1.4,0,2.3,0.8,2.3,2.1
					c0,0.4-0.1,0.8-0.2,1.4h-3.5c0,0.1,0,0.1,0,0.2c0,0.7,0.5,1,1.5,1c0.6,0,1.2-0.1,1.8-0.4L137.7,102L137.7,102z M136.8,98.5
					c0-0.1,0-0.2,0-0.3c0-0.5-0.3-0.7-0.8-0.7c-0.6,0-0.9,0.4-1.1,1L136.8,98.5L136.8,98.5z"/>
				<path class="st7" d="M156.3,99.4c-0.3,1.9-1.6,2.8-3.4,2.8c-2,0-2.8-1.2-2.8-2.7c0-2.1,1.3-3.4,3.4-3.4c1.8,0,2.8,1.1,2.8,2.6
					C156.3,99.1,156.3,99.1,156.3,99.4L156.3,99.4z M154.5,98.7c0-0.6-0.2-1.2-1-1.2c-0.9,0-1.4,1.1-1.4,2c0,0.8,0.4,1.3,1,1.3
					c0.4,0,1.2-0.5,1.3-1.4C154.5,99.2,154.5,99,154.5,98.7L154.5,98.7z"/>
			</g>
		</g>
		<g>
			<polygon class="st0" points="162.5,73.6 212.5,73.6 212.5,123.6 162.5,123.6 162.5,73.6 			"/>
			<g>
				<circle cx="187.5" cy="98.6" r="15.6"/>
				<path class="st0" d="M175.2,102.5c-0.1-0.2-0.3-0.5-0.4-0.7c-0.6-1.3-0.6-2.7-0.1-4c0.5-1.4,1.5-2.5,2.8-3.1
					c1.6-0.7,3.4-0.6,5,0.4c1,0.6,1.7,1.4,2.2,2.7c0.1,0.2,0.1,0.3,0.2,0.5L175.2,102.5z M178.4,96.9c-1.2,0.5-1.8,1.6-1.6,2.9
					l4.9-2.1C180.8,96.6,179.7,96.3,178.4,96.9L178.4,96.9z M182.3,101.4C182.3,101.4,182.3,101.4,182.3,101.4l-0.1-0.1
					c-0.3,0.5-0.7,0.9-1.3,1.1c-1.1,0.5-2.1,0.4-2.8-0.3l-0.1,0.1c0,0,0,0,0,0l-1.2,1.9c0.3,0.2,0.6,0.4,1,0.5
					c1.4,0.6,2.8,0.5,4.2-0.1c1-0.4,1.8-1.1,2.3-1.9L182.3,101.4z M188.3,92v10.3l1.6,0.7l-0.9,2.1l-1.8-0.7
					c-0.4-0.2-0.7-0.4-0.9-0.7c-0.2-0.3-0.3-0.7-0.3-1.3V92H188.3z"/>
				<path class="st10" d="M195.4,94.3c-0.6,0-1.2,0.1-1.7,0.3l0.8,2.3c0.3-0.1,0.6-0.2,0.9-0.2c1.4,0,2.6,1,2.9,2.3l2.4-0.5
					C200.2,96.2,198,94.3,195.4,94.3L195.4,94.3z"/>
				<path class="st11" d="M192.4,99.7c0-0.9,0.4-1.7,1-2.2l-1.6-1.8c-1.1,1-1.8,2.4-1.8,4c0,1.6,0.7,3.1,1.8,4l1.6-1.8
					C192.8,101.4,192.4,100.6,192.4,99.7L192.4,99.7z"/>
				<path class="st12" d="M195.4,102.6c-0.3,0-0.6-0.1-0.9-0.2l-0.8,2.3c0.5,0.2,1.1,0.3,1.7,0.3c2.6,0,4.8-1.8,5.3-4.3l-2.4-0.5
					C198,101.6,196.8,102.6,195.4,102.6L195.4,102.6z"/>
			</g>
		</g>
		<g>
			<polygon class="st0" points="212.5,73.6 262.5,73.6 262.5,123.6 212.5,123.6 212.5,73.6 			"/>
			<g>
				<path class="st13" d="M244.2,85.8c-2.5,0-5,0.8-7.1,2.2c-0.1,0.1-1.1,0.8-1.2,0.8c-1.7,1.2-2.8,1.5-4.3,1.1
					c-0.1,0-0.5-0.2-0.7-0.2c-4.9-1.9-10.4,0.6-12.3,5.6s0.6,10.4,5.6,12.3c2,0.8,4.3,0.8,6.4,0.1c2.3-0.7,3.5-0.5,4.9,0.5
					c0.3,0.2,1,0.6,1.1,0.7c5.7,4.2,13.7,2.9,17.8-2.7c4.2-5.7,2.9-13.7-2.7-17.8C249.5,86.7,246.9,85.8,244.2,85.8z"/>
				<g>
					<path class="st0" d="M239.6,100.5c-0.7,0.7-1.9,0.9-2.8,0.3l-0.8,1.3c1.5,1,3.5,0.7,4.8-0.5L239.6,100.5z M238,95.1
						c-2.1,0-3.9,1.7-3.9,3.8c0,0.8,0.2,1.5,0.6,2.2l7-3C241.3,96.3,239.8,95.1,238,95.1L238,95.1z M235.7,99.2
						c-0.1-1.2,0.8-2.4,2-2.5c0.8-0.1,1.5,0.2,2,0.8L235.7,99.2z M243.9,93.3v7.4l1.3,0.5l-0.6,1.5l-1.3-0.5
						c-0.3-0.1-0.5-0.3-0.6-0.5c-0.2-0.3-0.3-0.6-0.2-0.9v-7.5H243.9z M232.7,93.3v7.4l1.3,0.5l-0.6,1.5l-1.3-0.5
						c-0.2-0.1-0.5-0.3-0.6-0.5c-0.2-0.3-0.3-0.6-0.2-0.9v-7.5H232.7z"/>
				</g>
				<path class="st14" d="M250.3,96.9c1.1,0.5,1.6,1.9,1.1,3c0,0,0,0,0,0l1.4,0.7c0.9-1.9,0.1-4.2-1.8-5.1c-1.4-0.7-3.1-0.4-4.3,0.6
					l1.1,1.2C248.5,96.6,249.5,96.5,250.3,96.9L250.3,96.9z"/>
				<path class="st0" d="M248.3,101c-1.1-0.5-1.6-1.9-1.1-3l-1.4-0.7c-0.9,1.9-0.1,4.2,1.8,5.1c1.4,0.7,3.1,0.4,4.2-0.6l-1.1-1.2
					C250.1,101.2,249.2,101.4,248.3,101z M229.8,101.1v-2.2c0-2.1-1.7-3.8-3.8-3.8s-3.8,1.7-3.8,3.8c0,2.1,1.7,3.8,3.8,3.8
					c0.6,0,1.2-0.1,1.7-0.4l-0.6-1.4c-1.1,0.6-2.5,0.2-3.1-0.9c-0.2-0.3-0.3-0.7-0.3-1.1c0-0.4,0.1-0.7,0.3-1.1
					c0.3-0.6,0.9-1,1.5-1.1c0.2,0,0.3-0.1,0.5-0.1c1.3,0,2.3,1,2.3,2.3v2.1c0,0.3,0.1,0.6,0.2,0.9c0.2,0.2,0.4,0.4,0.6,0.5l0.7,0.3
					l0.6-1.5L229.8,101.1z"/>
			</g>
		</g>
		<g>
			<polygon class="st15" points="262.5,73.6 312.5,73.6 312.5,123.6 262.5,123.6 262.5,73.6 			"/>
			<g>
				<g>
					<path class="st0" d="M305.9,101.6l1-2.2h-3.2c-0.3,0-0.5,0-0.7,0.1l0-0.1h-3.2c-0.5,0-1,0.1-1.3,0.3v-0.3h-5v0.3
						c-0.3-0.2-0.8-0.3-1.2-0.3h-3.1v0.3c-0.4-0.2-0.8-0.3-1.3-0.3h-1l0,0h-3.2l-0.7,0.9l-0.7-0.9h-1.1h-2.2h-2.8v5.8h2.8h2.1h1.1
						l0.6-0.8l0.6,0.8h1.1v0h2.6v-1.4h0.4c0.6,0,1-0.1,1.4-0.4v1.7h2.5v-0.8l0.7,0.8h1.1h2.2h1.9h1h2.1c0.3,0,0.6-0.1,0.9-0.2v0.2h3
						c1.3,0,2.1-0.9,2.1-2.1C306.6,102.5,306.3,101.9,305.9,101.6z M284.6,102.3l0.2-0.2v0.4L284.6,102.3z M281.2,102.1l0.2,0.3
						l-0.2,0.3V102.1z"/>
					<g>
						<path id="path3062" class="st15" d="M277,104.5v-4.3h3.5v1h-2.4v0.7h2.4v0.9h-2.4v0.8h2.4v0.9L277,104.5z"/>
						<path id="path3064" class="st15" d="M294.2,104.5v-4.3h3.5v1h-2.4v0.7h2.4v0.9h-2.4v0.8h2.4v0.9L294.2,104.5z"/>
						<path id="path3066" class="st15" d="M280.6,104.5l1.7-2.1l-1.7-2.2h1.4l1,1.3l1-1.3h1.3l-1.7,2.2l1.7,2.2H284l-1-1.3l-1,1.3
							L280.6,104.5z"/>
						<path id="path3068" class="st15" d="M285.5,100.2v4.3h1.1v-1.4h1.1c1,0,1.7-0.5,1.7-1.5c0-0.8-0.6-1.4-1.5-1.4H285.5
							L285.5,100.2z M286.6,101.1h1.2c0.3,0,0.5,0.2,0.5,0.5c0,0.3-0.2,0.5-0.5,0.5h-1.2V101.1L286.6,101.1z"/>
						<path id="path3072" class="st15" d="M289.8,100.2v4.3h1.1v-1.5h0.5l1.3,1.5h1.3l-1.4-1.6c0.6,0,1.2-0.5,1.2-1.3
							c0-0.9-0.7-1.4-1.5-1.4L289.8,100.2L289.8,100.2z M290.9,101.1h1.2c0.3,0,0.5,0.2,0.5,0.5c0,0.3-0.3,0.5-0.5,0.5h-1.2V101.1z"
							/>
						<path id="path3074" class="st15" d="M298.2,104.5v-0.9h2.2c0.3,0,0.5-0.2,0.5-0.4c0-0.2-0.1-0.4-0.5-0.4h-1
							c-0.8,0-1.3-0.5-1.3-1.3c0-0.7,0.4-1.4,1.7-1.4h2.1l-0.5,1h-1.8c-0.3,0-0.5,0.2-0.5,0.4c0,0.2,0.1,0.4,0.4,0.4h1
							c0.9,0,1.4,0.5,1.4,1.2c0,0.8-0.5,1.4-1.4,1.4H298.2z"/>
						<path id="path3076" class="st15" d="M302.2,104.5v-0.9h2.2c0.3,0,0.5-0.2,0.5-0.4c0-0.2-0.1-0.4-0.5-0.4h-1
							c-0.8,0-1.3-0.5-1.3-1.3c0-0.7,0.4-1.4,1.7-1.4h2.1l-0.5,1h-1.8c-0.3,0-0.5,0.2-0.5,0.4c0,0.2,0.1,0.4,0.4,0.4h1
							c0.9,0,1.4,0.5,1.4,1.2c0,0.8-0.5,1.4-1.4,1.4H302.2z"/>
					</g>
				</g>
				<g>
					<path class="st0" d="M300.8,91.9v0.9l-0.6-0.9h-2.5v1.8l-0.8-1.8h-2.2l-1.9,0c-0.8,0-1.4,0.2-1.9,0.6v-0.6h-2.6v0.3
						c-0.3-0.2-0.8-0.3-1.2-0.3h-2.3l-7.2,0l-0.5,1.3l-0.5-1.3l-3,0v1.8l-0.8-1.8h-2.4l-2.5,5.8h2.8l0.3-0.9h1l0.3,0.9h2.8l0,0h4.4
						h0.7h3.4v0h2.5v-0.8l0.7,0.8h3.3l0,0h0.4v-0.6c0.3,0.3,0.8,0.5,1.3,0.6l0,0h2.8l0.3-0.9h1l0.3,0.9h2.8l0,0h0.8v-1l0.7,1h2.5
						v-5.8H300.8z M292.8,95.3c-0.3,0-0.4-0.1-0.4-0.4c0-0.2,0-0.4,0.3-0.4h0.8l-0.4,0.9H292.8z"/>
					<g>
						<path id="path3046" class="st15" d="M271,92.6l-1.9,4.3h1.2l0.3-0.9h2l0.3,0.9h1.2l-1.8-4.3L271,92.6L271,92.6z M271.7,93.6
							l0.6,1.5h-1.2L271.7,93.6z"/>
						<path id="path3048" class="st15" d="M274.4,96.9v-4.3l1.7,0l1,2.8l1-2.8h1.7v4.3h-1.1v-3.2l-1.1,3.2h-0.9l-1.1-3.2v3.2H274.4z
							"/>
						<path id="path3050" class="st15" d="M280.5,96.9v-4.3h3.5v1h-2.4v0.7h2.4v0.9h-2.4V96h2.4v0.9L280.5,96.9z"/>
						<path id="path3052" class="st15" d="M284.6,92.6v4.3h1.1v-1.5h0.5l1.3,1.5h1.3l-1.4-1.6c0.6,0,1.2-0.5,1.2-1.3
							c0-0.9-0.7-1.4-1.5-1.4L284.6,92.6L284.6,92.6z M285.7,93.6h1.2c0.3,0,0.5,0.2,0.5,0.5c0,0.3-0.3,0.5-0.5,0.5h-1.2L285.7,93.6
							L285.7,93.6z"/>
						<path id="path3054" class="st15" d="M290.1,96.9H289v-4.3h1.1V96.9z"/>
						<path id="path3056" class="st15" d="M292.7,96.9h-0.2c-1.1,0-1.8-0.9-1.8-2.1c0-1.3,0.7-2.2,2.1-2.2h1.2v1h-1.2
							c-0.6,0-1,0.5-1,1.2c0,0.8,0.5,1.2,1.2,1.2h0.3L292.7,96.9z"/>
						<path id="path3058" class="st15" d="M295,92.6l-1.9,4.3h1.2l0.3-0.9h2l0.3,0.9h1.2l-1.8-4.3L295,92.6L295,92.6z M295.7,93.6
							l0.6,1.5h-1.2L295.7,93.6L295.7,93.6z"/>
						<path id="path3060" class="st15" d="M298.4,96.9v-4.3h1.4l1.7,2.7v-2.7h1.1v4.3h-1.3l-1.8-2.8v2.8H298.4z"/>
					</g>
				</g>
			</g>
		</g>
		<g>
			<polygon class="st0" points="312.5,73.6 362.5,73.6 362.5,123.6 312.5,123.6 312.5,73.6 			"/>
			<g>
				<path class="st16" d="M328.7,90.1h-4c-1.8,0.1-3.2,0.8-3.7,2.3c-0.2,0.8-0.3,1.6-0.5,2.4c-0.9,4.1-1.6,8.2-2.5,12.2h31.4
					c2.4,0,4.1-0.5,4.5-2.4c0.2-0.9,0.4-1.9,0.6-2.9c0.8-3.8,1.6-7.7,2.4-11.6H328.7z"/>
				<path class="st0" d="M328.4,96.1c0.2-0.1,0.4-0.6,0.1-0.9c-0.1-0.1-0.2-0.1-0.4-0.1c-0.2,0-0.3,0.1-0.3,0.2
					c-0.1,0.1-0.2,0.6,0,0.7C327.9,96.3,328.3,96.2,328.4,96.1z M326,95.3c-0.1,0.8-0.3,1.6-0.4,2.3c-0.9,0-1.8,0-2.6,0
					c0.2-0.8,0.3-1.5,0.4-2.3h-0.9c-0.3,1.9-0.6,3.9-1,5.7h1c0.2-1,0.3-1.9,0.5-2.9c0.8,0,1.8-0.1,2.6,0c-0.2,1-0.4,1.9-0.5,2.8h1
					c0.3-1.9,0.6-3.9,1-5.7H326z M339.6,96.9c-0.7-0.3-1.3,0.2-1.6,0.7c0.1-0.2,0.1-0.5,0.1-0.7h-0.7c-0.2,1.4-0.5,2.7-0.7,4.1h0.8
					c0.1-0.8,0.2-1.9,0.4-2.6c0.2-0.6,0.8-1.1,1.6-0.8C339.6,97.3,339.6,97.1,339.6,96.9z M340.1,100c-0.1-0.2-0.1-0.5-0.1-0.8
					c0-0.6,0.3-1.3,0.6-1.6c0.4-0.4,1.3-0.4,2-0.1c0-0.2,0.1-0.4,0.1-0.7c-1.1-0.2-2.2-0.1-2.8,0.5c-0.6,0.6-0.9,1.9-0.7,2.8
					c0.3,1,1.7,1.1,2.8,0.7c0-0.2,0.1-0.4,0.1-0.6C341.5,100.6,340.4,100.7,340.1,100z M349.6,96.9c-0.7-0.4-1.4,0.3-1.6,0.6
					c0.1-0.2,0.1-0.5,0.1-0.6h-0.7c-0.2,1.4-0.4,2.8-0.7,4.1h0.9c0-0.5,0.1-0.9,0.2-1.5c0.2-1.1,0.4-2.4,1.8-2
					C349.5,97.3,349.6,97.1,349.6,96.9L349.6,96.9z M327.5,96.9C327.5,96.9,327.5,96.9,327.5,96.9c-0.2,1.5-0.5,2.8-0.7,4.1h0.8
					c0.2-1.4,0.4-2.8,0.7-4.1L327.5,96.9L327.5,96.9z M335,96.8c-0.6,0-1.1,0.2-1.5,0.6c-0.5,0.5-0.8,1.5-0.7,2.5
					c0.2,1.4,1.8,1.3,3.2,1c0-0.2,0.1-0.4,0.1-0.7c-0.6,0.2-1.5,0.5-2.1,0.1c-0.4-0.3-0.4-1-0.3-1.6c0.9,0,1.9,0,2.8,0
					c0.1-0.4,0.2-0.9,0.1-1.3C336.4,96.9,335.7,96.8,335,96.8z M335.8,98.3h-2c0.1-0.5,0.5-1,1.1-1C335.5,97.3,336,97.6,335.8,98.3
					L335.8,98.3z M331.8,96.9c-0.7-0.3-1.6,0.1-2,0.4c0,0,0,0,0,0c0,0,0,0,0,0c0,0,0,0,0,0c0-0.1,0.1-0.2,0.1-0.4h-0.7
					c-0.3,2-0.7,4-1,5.9h0.8c0.1-0.8,0.2-1.6,0.4-2.3c0.2,0.7,1.5,0.6,2,0.3C332.4,100.3,333.2,97.5,331.8,96.9L331.8,96.9z
					 M331.1,100.2c-0.5,0.5-1.6,0.5-1.7-0.3c0-0.4,0.1-0.7,0.2-1.1c0.1-0.4,0.1-0.7,0.2-1c0.4-0.5,1.8-0.6,1.9,0.3
					C331.8,98.9,331.5,99.8,331.1,100.2z M352.8,95.1c-0.1,0.6-0.2,1.2-0.3,1.8c-2.1-0.7-3.3,0.9-3.3,2.8c0,0.4,0.1,0.7,0.3,1
					c0.4,0.4,1.5,0.6,2.1,0.2c0.1-0.1,0.2-0.2,0.3-0.3c0.1-0.1,0.1-0.2,0.2-0.2c0,0.2-0.1,0.4-0.1,0.6h0.8c0.1-2.1,0.6-3.9,0.9-5.9
					L352.8,95.1L352.8,95.1L352.8,95.1z M350.9,100.5c-0.6,0-0.9-0.3-0.9-0.9c0-1,0.4-2.2,1.3-2.3c0.4,0,0.7,0.1,1,0.2
					C352.1,98.7,352.2,100.5,350.9,100.5z M343.6,96.9c0,0.2-0.1,0.4-0.2,0.7c0.5-0.1,2.1-0.5,2.2,0.2c0,0.2,0,0.5-0.1,0.6
					c-1.4-0.1-2.6,0.1-2.9,1.1c-0.2,0.7,0,1.3,0.5,1.5c0.8,0.4,1.8-0.1,2.2-0.6c0,0.2-0.1,0.4-0.1,0.6h0.7c0-0.7,0.1-1.3,0.2-1.9
					c0.1-0.5,0.3-1.1,0.2-1.5C346.4,96.5,344.6,96.9,343.6,96.9L343.6,96.9z M345,100.2c-0.4,0.4-1.7,0.5-1.5-0.5c0.1-0.8,1-1,2-0.9
					C345.4,99.3,345.3,99.9,345,100.2L345,100.2z"/>
			</g>
		</g>
		<g>
			<polygon class="st0" points="362.5,73.6 412.5,73.6 412.5,123.6 362.5,123.6 362.5,73.6 			"/>
			<g>
				<path class="st17" d="M389.2,100c4.3,0,8.2-3.5,8.2-7.8c0-4.7-3.9-7.9-8.2-7.9h-3.7c-4.3,0-7.9,3.2-7.9,7.9
					c0,4.3,3.6,7.8,7.9,7.8H389.2z"/>
				<path class="st0" d="M385.5,85c-4,0-7.2,3.2-7.2,7.2c0,4,3.2,7.2,7.2,7.2c4,0,7.2-3.2,7.2-7.2C392.7,88.2,389.5,85,385.5,85z
					 M381,92.2L381,92.2c0-1.9,1.2-3.6,2.9-4.2v8.5C382.2,95.8,381,94.1,381,92.2z M387.2,96.4L387.2,96.4V88
					c1.7,0.7,2.9,2.3,2.9,4.2C390.1,94.1,388.9,95.8,387.2,96.4z"/>
				<path class="st17" d="M389.2,100c4.3,0,8.2-3.5,8.2-7.8c0-4.7-3.9-7.9-8.2-7.9h-3.7c-4.3,0-7.9,3.2-7.9,7.9
					c0,4.3,3.6,7.8,7.9,7.8H389.2z"/>
				<path class="st0" d="M385.5,85c-4,0-7.2,3.2-7.2,7.2c0,4,3.2,7.2,7.2,7.2c4,0,7.2-3.2,7.2-7.2C392.7,88.2,389.5,85,385.5,85z
					 M381,92.2L381,92.2c0-1.9,1.2-3.6,2.9-4.2v8.5C382.2,95.8,381,94.1,381,92.2z M387.2,96.4L387.2,96.4V88
					c1.7,0.7,2.9,2.3,2.9,4.2C390.1,94.1,388.9,95.8,387.2,96.4z"/>
				<path class="st18" d="M368.8,102.9c0-0.7-0.4-0.7-0.8-0.7V102c0.3,0,0.6,0,1,0c0.3,0,0.8,0,1.4,0c2.1,0,3.3,1.4,3.3,2.9
					c0,0.8-0.5,2.9-3.4,2.9c-0.4,0-0.8,0-1.2,0c-0.4,0-0.7,0-1.1,0v-0.2c0.5,0,0.7-0.1,0.8-0.6L368.8,102.9L368.8,102.9z
					 M369.6,106.8L369.6,106.8c0,0.6,0.5,0.7,0.9,0.7c1.8,0,2.4-1.3,2.4-2.6c0-1.5-1-2.6-2.6-2.6c-0.3,0-0.5,0-0.6,0V106.8
					L369.6,106.8z"/>
				<path class="st18" d="M374,107.5h0.2c0.2,0,0.4,0,0.4-0.3V105c0-0.4-0.1-0.4-0.4-0.6v-0.1c0.4-0.1,0.8-0.3,0.9-0.3
					c0.1,0,0.1,0,0.1,0c0,0,0.1,0,0.1,0.1v3.2c0,0.3,0.2,0.3,0.4,0.3h0.1v0.2c-0.3,0-0.6,0-0.9,0c-0.3,0-0.6,0-0.9,0V107.5
					L374,107.5z M374.9,102.7L374.9,102.7c-0.2,0-0.4-0.2-0.4-0.4c0-0.2,0.2-0.4,0.4-0.4c0.2,0,0.4,0.2,0.4,0.4
					C375.3,102.5,375.1,102.7,374.9,102.7z"/>
				<path class="st18" d="M376.6,105.1c0-0.3-0.1-0.4-0.5-0.5v-0.2c0.4-0.1,0.7-0.2,1.1-0.4c0,0,0,0,0,0.1v0.5
					c0.5-0.3,0.9-0.6,1.4-0.6c0.7,0,0.9,0.5,0.9,1.2v2.1c0,0.3,0.2,0.3,0.4,0.3h0.1v0.2c-0.3,0-0.6,0-0.9,0c-0.3,0-0.6,0-0.9,0v-0.2
					h0.1c0.2,0,0.4,0,0.4-0.3v-2.1c0-0.5-0.3-0.7-0.8-0.7c-0.3,0-0.7,0.2-1,0.4v2.4c0,0.3,0.2,0.3,0.4,0.3h0.1v0.2
					c-0.3,0-0.6,0-0.9,0c-0.3,0-0.6,0-0.9,0v-0.2h0.1c0.2,0,0.4,0,0.4-0.3V105.1L376.6,105.1z"/>
				<path class="st18" d="M380.8,105.5c0,0.1,0,0.2,0,0.5c0,0.8,0.6,1.4,1.2,1.4c0.5,0,0.8-0.2,1.1-0.6l0.1,0.1
					c-0.4,0.5-0.8,0.9-1.5,0.9c-1.3,0-1.6-1.3-1.6-1.8c0-1.6,1.1-2.1,1.7-2.1c0.7,0,1.4,0.4,1.4,1.3c0,0.1,0,0.1,0,0.1l-0.1,0H380.8
					L380.8,105.5z M382.3,105.2L382.3,105.2c0.2,0,0.2-0.1,0.2-0.2c0-0.4-0.3-0.8-0.7-0.8c-0.5,0-0.8,0.4-0.9,1H382.3L382.3,105.2z"
					/>
				<path class="st18" d="M383.4,107.5h0.2c0.2,0,0.4,0,0.4-0.3v-2.3c0-0.3-0.3-0.3-0.4-0.4v-0.1c0.6-0.3,0.9-0.5,1-0.5
					c0,0,0.1,0,0.1,0.1v0.7h0c0.2-0.3,0.6-0.8,1.1-0.8c0.2,0,0.5,0.1,0.5,0.4c0,0.2-0.2,0.4-0.4,0.4c-0.3,0-0.3-0.2-0.5-0.2
					c-0.1,0-0.6,0.2-0.6,0.7v1.9c0,0.3,0.2,0.3,0.4,0.3h0.5v0.2c-0.5,0-0.8,0-1.2,0c-0.3,0-0.7,0-1,0V107.5L383.4,107.5z"/>
				<path class="st18" d="M386.6,106.6c0.1,0.5,0.4,1,1,1c0.5,0,0.7-0.3,0.7-0.6c0-1-1.8-0.7-1.8-2c0-0.5,0.4-1.1,1.3-1.1
					c0.3,0,0.6,0.1,0.9,0.2l0.1,0.8h-0.2c-0.1-0.5-0.4-0.8-0.9-0.8c-0.3,0-0.6,0.2-0.6,0.5c0,1,1.9,0.7,1.9,2c0,0.5-0.4,1.1-1.4,1.1
					c-0.3,0-0.7-0.1-1-0.3l-0.1-0.9L386.6,106.6L386.6,106.6z"/>
				<path class="st18" d="M396.3,103.5h-0.2c-0.2-1-0.8-1.3-1.8-1.3c-0.9,0-2.3,0.6-2.3,2.6c0,1.7,1.2,2.9,2.5,2.9
					c0.8,0,1.5-0.6,1.7-1.4l0.2,0l-0.2,1.2c-0.3,0.2-1.3,0.4-1.8,0.4c-1.9,0-3.1-1.2-3.1-3.1c0-1.7,1.5-2.9,3.1-2.9
					c0.7,0,1.3,0.2,1.9,0.4L396.3,103.5L396.3,103.5z"/>
				<path class="st18" d="M396.6,107.5h0.2c0.2,0,0.4,0,0.4-0.3v-4.6c0-0.5-0.1-0.6-0.4-0.6v-0.1c0.3-0.1,0.7-0.3,0.8-0.4
					c0.1,0,0.2-0.1,0.2-0.1c0.1,0,0.1,0,0.1,0.1v5.7c0,0.3,0.2,0.3,0.4,0.3h0.1v0.2c-0.3,0-0.6,0-0.9,0c-0.3,0-0.6,0-0.9,0
					L396.6,107.5L396.6,107.5z"/>
				<path class="st18" d="M401.9,107.3c0,0.1,0.1,0.2,0.2,0.2c0.1,0,0.2,0,0.3,0v0.2c-0.4,0-1,0.2-1.2,0.3l0,0v-0.7
					c-0.5,0.4-0.9,0.7-1.5,0.7c-0.4,0-0.9-0.3-0.9-1v-2.1c0-0.2,0-0.4-0.5-0.5v-0.2c0.3,0,1-0.1,1.1-0.1c0.1,0,0.1,0.1,0.1,0.2v2.1
					c0,0.2,0,1,0.7,1c0.3,0,0.6-0.2,1-0.5v-2.2c0-0.2-0.4-0.3-0.7-0.3v-0.1c0.7,0,1.2-0.1,1.3-0.1c0.1,0,0.1,0.1,0.1,0.1
					L401.9,107.3L401.9,107.3z"/>
				<path class="st18" d="M403.6,104.6c0.3-0.3,0.8-0.6,1.2-0.6c1,0,1.5,0.8,1.5,1.7c0,1.1-0.8,2.2-2,2.2c-0.6,0-0.9-0.2-1.1-0.3
					l-0.2,0.2l-0.2-0.1c0.1-0.5,0.1-1,0.1-1.5v-3.5c0-0.5-0.1-0.6-0.4-0.6v-0.1c0.3-0.1,0.7-0.3,0.8-0.4c0.1,0,0.2-0.1,0.2-0.1
					c0,0,0.1,0,0.1,0.1V104.6L403.6,104.6L403.6,104.6z M403.6,106.8L403.6,106.8c0,0.3,0.3,0.8,0.8,0.8c0.9,0,1.3-0.9,1.3-1.6
					c0-0.9-0.7-1.6-1.3-1.6c-0.3,0-0.6,0.2-0.8,0.4V106.8L403.6,106.8z"/>
				<path class="st18" d="M368.1,112.5L368.1,112.5c0.2,0,0.4,0,0.4-0.3v-2.3c0-0.2-0.2-0.3-0.3-0.3h-0.1v-0.1c0.2,0,0.4,0,0.7,0
					c0.2,0,0.5,0,0.7,0v0.1h-0.1c-0.2,0-0.3,0-0.3,0.3v2.3c0,0.2,0.2,0.3,0.3,0.3h0.1v0.1c-0.2,0-0.5,0-0.7,0c-0.2,0-0.5,0-0.7,0
					V112.5L368.1,112.5z"/>
				<path class="st18" d="M369.4,112.7c-0.2,0-0.5,0-0.7,0c-0.2,0-0.5,0-0.7,0h0v0v-0.1v0h0h0.1c0.2,0,0.3,0,0.3-0.2v-2.3
					c0-0.2-0.1-0.2-0.3-0.2H368v0v-0.2h0c0.2,0,0.4,0,0.7,0c0.2,0,0.5,0,0.7,0h0v0v0.2h0h-0.1c-0.2,0-0.3,0-0.3,0.2v2.3
					c0,0.2,0.1,0.2,0.3,0.2h0.1v0L369.4,112.7L369.4,112.7L369.4,112.7z M369.4,112.6L369.4,112.6L369.4,112.6L369.4,112.6
					c-0.2-0.1-0.4-0.1-0.4-0.4v-2.3c0-0.2,0.2-0.3,0.4-0.3h0v-0.1c-0.2,0-0.5,0-0.7,0c-0.2,0-0.5,0-0.6,0v0.1h0c0.2,0,0.4,0,0.4,0.3
					v2.3c0,0.2-0.2,0.3-0.4,0.3h0v0.1c0.2,0,0.4,0,0.6,0C368.9,112.6,369.2,112.6,369.4,112.6L369.4,112.6z"/>
				<path class="st18" d="M372.5,111.8L372.5,111.8l0-1.7c0-0.4-0.3-0.4-0.4-0.4H372v-0.1c0.2,0,0.4,0,0.6,0c0.2,0,0.4,0,0.6,0v0.1
					h-0.1c-0.2,0-0.4,0-0.4,0.6v2c0,0.2,0,0.3,0,0.5h-0.2l-2.3-2.6v1.8c0,0.4,0.1,0.5,0.4,0.5h0.1v0.1c-0.2,0-0.4,0-0.6,0
					c-0.2,0-0.4,0-0.6,0v-0.1h0.1c0.3,0,0.4-0.2,0.4-0.6v-1.9c0-0.3-0.2-0.4-0.4-0.4h-0.1v-0.1c0.2,0,0.3,0,0.5,0c0.1,0,0.3,0,0.4,0
					L372.5,111.8L372.5,111.8z"/>
				<path class="st18" d="M372.8,112.7l-0.2,0l-2.3-2.5v1.8c0,0.4,0.1,0.5,0.4,0.5h0.1v0v0.2h0c-0.2,0-0.4,0-0.6,0
					c-0.2,0-0.4,0-0.6,0h0v0v-0.2h0h0.1c0.3,0,0.4-0.2,0.4-0.5v-1.9c0-0.2-0.2-0.4-0.4-0.4h-0.1v0v-0.2h0c0.2,0,0.3,0,0.5,0
					c0.1,0,0.3,0,0.4,0l2,2.2v-1.6c0-0.4-0.2-0.4-0.4-0.4H372v0v-0.2h0c0.2,0,0.4,0,0.6,0c0.2,0,0.4,0,0.6,0h0v0v0.2h0h-0.1
					c-0.2,0-0.4,0-0.4,0.5v2C372.8,112.4,372.8,112.6,372.8,112.7L372.8,112.7L372.8,112.7L372.8,112.7z M372.6,112.7L372.6,112.7
					h0.1c0-0.1,0-0.3,0-0.4v-2c0-0.5,0.2-0.6,0.4-0.6h0v-0.1c-0.2,0-0.4,0-0.5,0c-0.2,0-0.4,0-0.6,0l0,0.1h0.1
					c0.1,0,0.4,0.1,0.4,0.4l0,1.7l0,0l0,0l-2-2.3c-0.1,0-0.3,0-0.4,0c-0.2,0-0.3,0-0.5,0l0,0.1h0c0.2,0,0.4,0.2,0.4,0.4v1.9
					c0,0.4-0.1,0.6-0.4,0.6l0,0v0.1c0.2,0,0.4,0,0.6,0c0.2,0,0.4,0,0.6,0v-0.1h-0.1c-0.4,0-0.4-0.2-0.4-0.5v-1.9L372.6,112.7
					L372.6,112.7z M372.5,111.8L372.5,111.8L372.5,111.8L372.5,111.8z M372.5,111.8L372.5,111.8L372.5,111.8L372.5,111.8
					L372.5,111.8z"/>
				<path class="st18" d="M373.9,109.8c-0.3,0-0.3,0.1-0.4,0.4h-0.1c0-0.1,0-0.3,0.1-0.4c0-0.1,0-0.3,0-0.4h0.1
					c0,0.1,0.1,0.1,0.3,0.1h2.3c0.1,0,0.2,0,0.2-0.1l0.1,0c0,0.1,0,0.2,0,0.4c0,0.1,0,0.2,0,0.4l-0.1,0.1c0-0.2,0-0.4-0.3-0.4h-0.7
					v2.4c0,0.3,0.2,0.4,0.4,0.4h0.1v0.1c-0.2,0-0.5,0-0.7,0c-0.3,0-0.6,0-0.8,0v-0.1h0.1c0.2,0,0.4,0,0.4-0.4v-2.4H373.9
					L373.9,109.8z"/>
				<path class="st18" d="M375.6,112.7c-0.2,0-0.5,0-0.7,0c-0.3,0-0.6,0-0.8,0h0v0v-0.2h0h0.1c0.2,0,0.3,0,0.4-0.4v-2.4h-0.7v0v0
					h0.8v2.4c0,0.4-0.1,0.4-0.4,0.4h-0.1v0.1c0.2,0,0.5,0,0.7,0C375.1,112.6,375.4,112.6,375.6,112.7l0-0.1h-0.1
					c-0.2,0-0.4-0.1-0.4-0.4v-2.4h0.8c0.3,0,0.3,0.3,0.3,0.4l0.1,0c0-0.1,0-0.2,0-0.4c0-0.1,0-0.2,0-0.3l-0.1,0
					c0,0.1-0.1,0.1-0.3,0.1h-2.3h0c-0.1,0-0.2,0-0.3-0.1h-0.1c0,0.1,0,0.2,0,0.4c0,0.1,0,0.2-0.1,0.4h0.1c0.1-0.3,0.1-0.4,0.4-0.4v0
					v0c-0.3,0-0.3,0.1-0.4,0.4l0,0h0h-0.2l0,0c0-0.1,0-0.3,0.1-0.4c0-0.1,0-0.2,0-0.4v0h0h0.1l0,0c0,0.1,0.1,0.1,0.2,0.1h0h2.3
					c0.1,0,0.2,0,0.2-0.1l0,0l0,0l0.1,0l0,0c0,0.1,0,0.2,0,0.4c0,0.1,0,0.2,0,0.4v0l0,0l-0.2,0.1l0,0c0-0.2,0-0.4-0.3-0.4h-0.7v2.4
					c0,0.3,0.1,0.4,0.4,0.4h0.1v0L375.6,112.7L375.6,112.7L375.6,112.7z"/>
				<path class="st18" d="M376.6,112.5L376.6,112.5c0.2,0,0.4,0,0.4-0.3v-2.3c0-0.2-0.2-0.3-0.3-0.3h-0.1v-0.1c0.3,0,0.7,0,1.1,0
					c0.4,0,0.8,0,1.1,0c0,0.2,0,0.5,0,0.7l-0.1,0c0-0.3-0.1-0.5-0.5-0.5h-0.6v1.2h0.5c0.3,0,0.3-0.2,0.4-0.4h0.1c0,0.2,0,0.4,0,0.5
					c0,0.2,0,0.3,0,0.5l-0.1,0c0-0.3,0-0.4-0.3-0.4h-0.5v1c0,0.3,0.3,0.3,0.5,0.3c0.5,0,0.8,0,0.9-0.5l0.1,0
					c-0.1,0.2-0.1,0.5-0.2,0.7c-0.3,0-0.8,0-1.2,0c-0.4,0-0.9,0-1.2,0V112.5L376.6,112.5z"/>
				<path class="st18" d="M379,112.7c-0.3,0-0.8,0-1.2,0c-0.4,0-0.9,0-1.2,0h0v0v-0.1v0h0h0.1c0.2,0,0.3,0,0.3-0.2v-2.3
					c0-0.2-0.1-0.2-0.3-0.2h-0.1v0v-0.2h0c0.3,0,0.7,0,1.1,0c0.4,0,0.8,0,1.1,0h0l0,0c0,0.1,0,0.1,0,0.2c0,0.2,0,0.3,0,0.5l0,0l0,0
					l-0.2,0l0,0c0-0.3-0.1-0.5-0.5-0.5h-0.6l0,1.1h0.5c0.3,0,0.3-0.1,0.3-0.4l0,0h0h0.2l0,0c0,0.2,0,0.3,0,0.5c0,0.2,0,0.3,0,0.5
					l0,0l0,0l-0.2,0l0,0c0-0.3,0-0.4-0.3-0.4l-0.5,0v1c0,0.3,0.2,0.3,0.5,0.3c0.5,0,0.8,0,0.9-0.5l0,0l0,0l0.1,0l0,0
					C379.1,112.2,379,112.4,379,112.7L379,112.7L379,112.7L379,112.7z M379,112.6L379,112.6c0-0.2,0.1-0.5,0.1-0.7l-0.1,0
					c-0.1,0.5-0.4,0.5-0.9,0.5c-0.3,0-0.6,0-0.6-0.3v-1.1h0.6c0.3,0,0.3,0.2,0.4,0.4l0.1,0c0-0.2,0-0.3,0-0.5c0-0.2,0-0.3,0-0.5
					h-0.1c0,0.2-0.1,0.4-0.4,0.4h-0.6v-1.2h0.6c0.5,0,0.5,0.2,0.6,0.5l0.1,0c0-0.1,0-0.3,0-0.4c0-0.1,0-0.1,0-0.2
					c-0.3,0-0.8,0-1.1,0c-0.4,0-0.8,0-1.1,0v0.1h0c0.2,0,0.4,0,0.4,0.3v2.3c0,0.2-0.2,0.3-0.4,0.3h0v0.1c0.3,0,0.8,0,1.2,0
					C378.2,112.6,378.7,112.6,379,112.6L379,112.6z"/>
				<path class="st18" d="M379.7,110c0-0.3-0.2-0.3-0.3-0.3h-0.1v-0.1c0.1,0,0.4,0,0.7,0c0.3,0,0.5,0,0.7,0c0.6,0,1.1,0.2,1.1,0.8
					c0,0.4-0.3,0.6-0.6,0.8l0.8,1.1c0.1,0.2,0.2,0.2,0.4,0.3v0.1c-0.1,0-0.3,0-0.4,0c-0.1,0-0.3,0-0.4,0c-0.3-0.5-0.6-0.9-0.9-1.5
					h-0.3v1c0,0.3,0.2,0.4,0.4,0.4h0.1v0.1c-0.3,0-0.5,0-0.8,0c-0.2,0-0.4,0-0.6,0v-0.1h0.1c0.2,0,0.3-0.1,0.3-0.2V110L379.7,110z
					 M380.3,111L380.3,111h0.2c0.4,0,0.7-0.2,0.7-0.7c0-0.4-0.3-0.7-0.7-0.7c-0.1,0-0.2,0-0.3,0V111L380.3,111z"/>
				<path class="st18" d="M382.4,112.7c-0.1,0-0.3,0-0.4,0c-0.1,0-0.3,0-0.4,0c-0.3-0.5-0.6-0.9-0.9-1.4h-0.3v0.9
					c0,0.3,0.1,0.3,0.3,0.3h0.1v0v0.2h0c-0.3,0-0.5,0-0.8,0c-0.2,0-0.4,0-0.6,0h0v0v-0.2h0h0.1c0.2,0,0.3-0.1,0.3-0.2V110
					c0-0.3-0.2-0.3-0.3-0.3h-0.1v0v-0.2h0c0.1,0,0.4,0,0.7,0c0.3,0,0.5,0,0.7,0c0.6,0,1.1,0.2,1.1,0.8c0,0.4-0.3,0.7-0.6,0.8
					l0.8,1.1c0.1,0.2,0.2,0.2,0.4,0.3l0,0v0L382.4,112.7L382.4,112.7L382.4,112.7z M380.3,111.2L380.3,111.2h0.3l0,0
					c0.3,0.5,0.6,1,0.9,1.4c0.1,0,0.3,0,0.4,0c0.1,0,0.3,0,0.4,0v-0.1c-0.2,0-0.3-0.1-0.4-0.3l-0.8-1.2l0,0c0.4-0.1,0.6-0.4,0.6-0.8
					c0-0.6-0.5-0.8-1-0.8c-0.2,0-0.5,0-0.7,0c-0.3,0-0.5,0-0.7,0v0.1h0.1c0.1,0,0.3,0,0.3,0.4v2.3c0,0.2-0.2,0.3-0.3,0.3h-0.1v0.1
					c0.2,0,0.4,0,0.6,0c0.3,0,0.5,0,0.8,0v-0.1h-0.1c-0.2,0-0.4,0-0.4-0.4L380.3,111.2L380.3,111.2L380.3,111.2z M380.3,111.1
					L380.3,111.1L380.3,111.1l0-1.4l0,0c0.1,0,0.1,0,0.3,0c0.4,0,0.7,0.3,0.7,0.7c0,0.5-0.3,0.7-0.7,0.7H380.3L380.3,111.1z
					 M380.5,111L380.5,111c0.4,0,0.7-0.2,0.7-0.7c0-0.4-0.2-0.6-0.6-0.6c-0.1,0-0.2,0-0.2,0v1.3H380.5L380.5,111z"/>
				<path class="st18" d="M385.4,111.8L385.4,111.8l0-1.7c0-0.4-0.3-0.4-0.4-0.4H385v-0.1c0.2,0,0.4,0,0.6,0c0.2,0,0.4,0,0.6,0v0.1
					h-0.1c-0.2,0-0.4,0-0.4,0.6v2c0,0.2,0,0.3,0,0.5h-0.2l-2.3-2.6v1.8c0,0.4,0.1,0.5,0.4,0.5h0.1v0.1c-0.2,0-0.4,0-0.6,0
					c-0.2,0-0.4,0-0.6,0v-0.1h0.1c0.3,0,0.4-0.2,0.4-0.6v-1.9c0-0.3-0.2-0.4-0.4-0.4h-0.1v-0.1c0.2,0,0.3,0,0.5,0c0.1,0,0.3,0,0.4,0
					L385.4,111.8L385.4,111.8z"/>
				<path class="st18" d="M385.7,112.7l-0.2,0l-2.3-2.5v1.8c0,0.4,0.1,0.5,0.4,0.5h0.1v0v0.2h0c-0.2,0-0.4,0-0.6,0
					c-0.2,0-0.4,0-0.6,0h0v0v-0.2h0h0.1c0.3,0,0.4-0.2,0.4-0.5v-1.9c0-0.2-0.2-0.4-0.4-0.4h-0.1v0v-0.2h0c0.2,0,0.3,0,0.5,0
					c0.1,0,0.3,0,0.4,0l2,2.2v-1.6c0-0.4-0.2-0.4-0.4-0.4h-0.1v0v-0.2h0c0.2,0,0.4,0,0.6,0c0.2,0,0.4,0,0.6,0h0v0v0.2h0h-0.1
					c-0.2,0-0.4,0-0.4,0.5v2C385.7,112.4,385.7,112.6,385.7,112.7L385.7,112.7L385.7,112.7L385.7,112.7z M385.5,112.7L385.5,112.7
					h0.1c0-0.1,0-0.3,0-0.4v-2c0-0.5,0.2-0.6,0.4-0.6h0v-0.1c-0.2,0-0.4,0-0.5,0c-0.2,0-0.4,0-0.6,0v0.1h0.1c0.1,0,0.4,0.1,0.4,0.4
					l0,1.7l0,0l0,0l-2-2.3c-0.1,0-0.3,0-0.4,0c-0.2,0-0.3,0-0.5,0v0.1h0c0.2,0,0.4,0.2,0.4,0.4v1.9c0,0.4-0.1,0.6-0.4,0.6l0,0v0.1
					c0.2,0,0.4,0,0.6,0c0.2,0,0.4,0,0.6,0v-0.1h-0.1c-0.4,0-0.4-0.2-0.4-0.5v-1.9L385.5,112.7L385.5,112.7z M385.4,111.8
					L385.4,111.8L385.4,111.8L385.4,111.8z M385.4,111.8L385.4,111.8L385.4,111.8L385.4,111.8L385.4,111.8z"/>
				<path class="st18" d="M386.9,112c0,0.2-0.1,0.3-0.1,0.3c0,0.1,0.2,0.2,0.3,0.2h0v0.1c-0.2,0-0.4,0-0.5,0c-0.2,0-0.3,0-0.5,0
					v-0.1h0c0.2,0,0.3-0.1,0.4-0.3l0.7-2.1c0.1-0.2,0.1-0.4,0.2-0.6c0.1,0,0.3-0.1,0.4-0.2c0,0,0,0,0,0c0,0,0,0,0,0c0,0,0,0.1,0,0.1
					l0.8,2.3c0.1,0.2,0.1,0.3,0.2,0.5c0.1,0.1,0.1,0.2,0.3,0.2h0v0.1c-0.2,0-0.4,0-0.6,0c-0.2,0-0.4,0-0.7,0v-0.1h0
					c0.1,0,0.3,0,0.3-0.1c0-0.1,0-0.2-0.1-0.3l-0.2-0.5h-1L386.9,112L386.9,112z M387.5,110L387.5,110L387.5,110l-0.4,1.3h0.8
					L387.5,110z"/>
				<path class="st18" d="M389.2,112.7c-0.2,0-0.4,0-0.6,0c-0.2,0-0.4,0-0.7,0l0,0v0v-0.2h0h0c0.1,0,0.3,0,0.3-0.1
					c0-0.1,0-0.2-0.1-0.3l-0.2-0.5h-1l-0.1,0.5c0,0.2-0.1,0.3-0.1,0.3c0,0.1,0.2,0.1,0.3,0.1h0.1v0v0.2l0,0c-0.2,0-0.4,0-0.5,0
					c-0.2,0-0.3,0-0.5,0l0,0v0v-0.2h0h0c0.2,0,0.3-0.1,0.4-0.3l0.7-2.1c0.1-0.2,0.1-0.4,0.2-0.6c0.1,0,0.3-0.1,0.4-0.2c0,0,0,0,0,0
					c0,0,0,0,0,0c0,0,0,0.1,0,0.1l0.8,2.3c0.1,0.2,0.1,0.3,0.2,0.5c0.1,0.1,0.1,0.2,0.3,0.2h0v0L389.2,112.7L389.2,112.7
					L389.2,112.7z M388,112.6L388,112.6c0.2,0,0.4,0,0.7,0c0.2,0,0.4,0,0.6,0v-0.1h0c-0.2,0-0.3-0.1-0.3-0.2
					c-0.1-0.1-0.1-0.3-0.2-0.5l-0.8-2.3c0,0,0-0.1,0-0.1c0,0,0,0,0,0h0c0,0,0,0,0,0c-0.1,0.1-0.3,0.1-0.4,0.2c0,0.2-0.1,0.4-0.2,0.6
					l-0.7,2.1c-0.1,0.2-0.2,0.3-0.4,0.3h0v0.1c0.2,0,0.3,0,0.5,0c0.2,0,0.3,0,0.5,0v-0.1h0c-0.1,0-0.3,0-0.4-0.2
					c0-0.1,0.1-0.2,0.1-0.4l0,0l0,0l0.1-0.5h1l0.2,0.5c0.1,0.1,0.1,0.3,0.1,0.3C388.3,112.5,388.1,112.5,388,112.6L388,112.6
					L388,112.6L388,112.6z M387.1,111.3L387.1,111.3l0.4-1.3h0h0v0l0,0l0,0v0h0l0.4,1.3H387.1z M387.1,111.3L387.1,111.3h0.8
					l-0.4-1.2L387.1,111.3z M387.5,110L387.5,110L387.5,110L387.5,110z"/>
				<path class="st18" d="M389.4,109.8c-0.3,0-0.3,0.1-0.4,0.4h-0.1c0-0.1,0-0.3,0.1-0.4c0-0.1,0-0.3,0-0.4h0.1
					c0,0.1,0.1,0.1,0.3,0.1h2.3c0.1,0,0.2,0,0.2-0.1l0.1,0c0,0.1,0,0.2,0,0.4c0,0.1,0,0.2,0,0.4l-0.1,0.1c0-0.2,0-0.4-0.3-0.4h-0.7
					v2.4c0,0.3,0.2,0.4,0.4,0.4h0.1v0.1c-0.2,0-0.5,0-0.7,0c-0.3,0-0.6,0-0.8,0v-0.1h0.1c0.2,0,0.4,0,0.4-0.4v-2.4H389.4
					L389.4,109.8z"/>
				<path class="st18" d="M391.2,112.7c-0.2,0-0.5,0-0.7,0c-0.3,0-0.6,0-0.8,0h0v0v-0.2h0h0.1c0.2,0,0.3,0,0.4-0.4l0-2.4h-0.7v0v0
					h0.8v2.4c0,0.4-0.1,0.4-0.4,0.4h-0.1v0.1c0.2,0,0.5,0,0.7,0C390.7,112.6,391,112.6,391.2,112.7l0-0.1h-0.1
					c-0.2,0-0.4-0.1-0.4-0.4v-2.4h0.8c0.3,0,0.3,0.3,0.3,0.4l0.1,0c0-0.1,0-0.2,0-0.4c0-0.1,0-0.2,0-0.3l-0.1,0
					c0,0.1-0.1,0.1-0.3,0.1h-2.3h0c-0.1,0-0.2,0-0.3-0.1H389c0,0.1,0,0.2,0,0.4c0,0.1,0,0.2-0.1,0.4h0.1c0.1-0.3,0.1-0.4,0.4-0.4v0
					v0c-0.3,0-0.3,0.1-0.4,0.4l0,0h0h-0.2l0,0c0-0.1,0-0.3,0.1-0.4c0-0.1,0-0.2,0-0.4v0h0h0.1l0,0c0,0.1,0.1,0.1,0.2,0.1l0,0h2.3
					c0.1,0,0.2,0,0.2-0.1l0,0l0,0l0.1,0l0,0c0,0.1,0,0.2,0,0.4c0,0.1,0,0.2,0,0.4v0l0,0l-0.2,0.1l0,0c0-0.2,0-0.4-0.3-0.4h-0.7v2.4
					c0,0.3,0.1,0.4,0.4,0.4h0.1v0L391.2,112.7L391.2,112.7L391.2,112.7z"/>
				<path class="st18" d="M392.2,112.5L392.2,112.5c0.2,0,0.4,0,0.4-0.3v-2.3c0-0.2-0.2-0.3-0.3-0.3h-0.1v-0.1c0.2,0,0.4,0,0.7,0
					c0.2,0,0.5,0,0.7,0v0.1h-0.1c-0.2,0-0.3,0-0.3,0.3v2.3c0,0.2,0.2,0.3,0.3,0.3h0.1v0.1c-0.2,0-0.5,0-0.7,0c-0.2,0-0.5,0-0.7,0
					V112.5L392.2,112.5z"/>
				<path class="st18" d="M393.5,112.7c-0.2,0-0.5,0-0.7,0c-0.2,0-0.5,0-0.7,0h0v0v-0.1v0h0h0.1c0.2,0,0.3,0,0.3-0.2v-2.3
					c0-0.2-0.1-0.2-0.3-0.2h-0.1v0v-0.2h0c0.2,0,0.4,0,0.7,0c0.2,0,0.5,0,0.7,0h0v0v0.2h0h-0.1c-0.2,0-0.3,0-0.3,0.2v2.3
					c0,0.2,0.1,0.2,0.3,0.2h0.1v0L393.5,112.7L393.5,112.7L393.5,112.7z M393.5,112.6L393.5,112.6L393.5,112.6L393.5,112.6
					c-0.2-0.1-0.4-0.1-0.4-0.4v-2.3c0-0.2,0.2-0.3,0.4-0.3h0v-0.1c-0.2,0-0.5,0-0.7,0c-0.2,0-0.5,0-0.6,0v0.1h0c0.2,0,0.3,0,0.4,0.3
					v2.3c0,0.2-0.2,0.3-0.4,0.3h0v0.1c0.2,0,0.4,0,0.6,0C393,112.6,393.3,112.6,393.5,112.6L393.5,112.6z"/>
				<path class="st18" d="M395.3,109.5c1,0,1.7,0.6,1.7,1.5c0,1-0.7,1.7-1.7,1.7c-0.9,0-1.7-0.6-1.7-1.6
					C393.7,110.2,394.4,109.5,395.3,109.5L395.3,109.5z M395.4,112.5L395.4,112.5c0.9,0,1-0.8,1-1.4c0-0.7-0.4-1.4-1.1-1.4
					c-0.8,0-1,0.7-1,1.3C394.3,111.8,394.7,112.5,395.4,112.5L395.4,112.5z"/>
				<path class="st18" d="M393.6,111.1c0-0.9,0.7-1.7,1.7-1.7v0v0C394.4,109.5,393.7,110.2,393.6,111.1c0,1,0.8,1.6,1.7,1.6
					c0.9,0,1.7-0.7,1.7-1.7c0-0.9-0.8-1.5-1.7-1.5v0v0c1,0,1.7,0.6,1.7,1.6c0,1-0.7,1.7-1.7,1.7
					C394.4,112.7,393.6,112.1,393.6,111.1L393.6,111.1L393.6,111.1z M394.3,111L394.3,111c0-0.6,0.2-1.3,1-1.3
					c0.8,0,1.1,0.8,1.1,1.5c0,0.7-0.2,1.4-1,1.4v0v0c0.9,0,1-0.7,1-1.4c0-0.6-0.3-1.4-1.1-1.4C394.5,109.7,394.3,110.4,394.3,111
					c0,0.8,0.4,1.5,1.1,1.5v0v0C394.6,112.5,394.3,111.8,394.3,111L394.3,111z"/>
				<path class="st18" d="M400,111.8L400,111.8l0-1.7c0-0.4-0.3-0.4-0.4-0.4h-0.1v-0.1c0.2,0,0.4,0,0.6,0c0.2,0,0.4,0,0.6,0v0.1
					h-0.1c-0.2,0-0.4,0-0.4,0.6v2c0,0.2,0,0.3,0,0.5h-0.2l-2.3-2.6v1.8c0,0.4,0.1,0.5,0.4,0.5h0.1v0.1c-0.2,0-0.4,0-0.6,0
					c-0.2,0-0.4,0-0.6,0v-0.1h0.1c0.3,0,0.4-0.2,0.4-0.6v-1.9c0-0.3-0.2-0.4-0.4-0.4h-0.1v-0.1c0.2,0,0.3,0,0.5,0c0.1,0,0.3,0,0.4,0
					L400,111.8L400,111.8z"/>
				<path class="st18" d="M400.3,112.7l-0.2,0l-2.3-2.5v1.8c0,0.4,0.1,0.5,0.4,0.5h0.1v0v0.2h0c-0.2,0-0.4,0-0.6,0
					c-0.2,0-0.4,0-0.6,0h0v0v-0.2h0h0.1c0.3,0,0.4-0.2,0.4-0.5v-1.9c0-0.2-0.2-0.4-0.4-0.4h-0.1v0v-0.2h0c0.2,0,0.3,0,0.5,0
					c0.1,0,0.3,0,0.4,0l2,2.2v-1.6c0-0.4-0.2-0.4-0.4-0.4h-0.1v0v-0.2h0c0.2,0,0.4,0,0.6,0c0.2,0,0.4,0,0.6,0h0v0v0.2h0h-0.1
					c-0.2,0-0.4,0-0.4,0.5v2C400.3,112.4,400.3,112.6,400.3,112.7L400.3,112.7L400.3,112.7L400.3,112.7z M400.1,112.7L400.1,112.7
					h0.1c0-0.1,0-0.3,0-0.4v-2c0-0.5,0.2-0.6,0.4-0.6h0v-0.1c-0.2,0-0.4,0-0.5,0c-0.2,0-0.4,0-0.6,0v0.1h0.1c0.1,0,0.4,0.1,0.4,0.4
					l0,1.7l0,0l0,0l-2-2.3c-0.1,0-0.3,0-0.4,0c-0.2,0-0.3,0-0.5,0v0.1h0c0.2,0,0.4,0.2,0.4,0.4v1.9c0,0.4-0.1,0.6-0.4,0.6l0,0v0.1
					c0.2,0,0.4,0,0.6,0c0.2,0,0.4,0,0.6,0v-0.1h-0.1c-0.4,0-0.4-0.2-0.4-0.5v-1.9L400.1,112.7L400.1,112.7z M400,111.8L400,111.8
					L400,111.8L400,111.8z M400,111.8L400,111.8L400,111.8L400,111.8L400,111.8z"/>
				<path class="st18" d="M401.5,112c0,0.2-0.1,0.3-0.1,0.3c0,0.1,0.2,0.2,0.3,0.2h0v0.1c-0.2,0-0.4,0-0.5,0c-0.2,0-0.3,0-0.5,0
					v-0.1h0c0.2,0,0.3-0.1,0.4-0.3l0.7-2.1c0.1-0.2,0.1-0.4,0.2-0.6c0.1,0,0.3-0.1,0.4-0.2c0,0,0,0,0,0c0,0,0,0,0,0c0,0,0,0.1,0,0.1
					l0.8,2.3c0.1,0.2,0.1,0.3,0.2,0.5c0.1,0.1,0.1,0.2,0.3,0.2h0v0.1c-0.2,0-0.4,0-0.6,0c-0.2,0-0.4,0-0.7,0v-0.1h0
					c0.1,0,0.3,0,0.3-0.1c0-0.1,0-0.2-0.1-0.3l-0.2-0.5h-1L401.5,112L401.5,112z M402.1,110L402.1,110L402.1,110l-0.4,1.3h0.8
					L402.1,110z"/>
				<path class="st18" d="M403.9,112.7c-0.2,0-0.4,0-0.6,0c-0.2,0-0.4,0-0.7,0l0,0v0v-0.2h0h0c0.1,0,0.3,0,0.3-0.1
					c0-0.1,0-0.2-0.1-0.3l-0.2-0.5h-1l-0.1,0.5c0,0.2-0.1,0.3-0.1,0.3c0,0.1,0.2,0.1,0.3,0.1h0.1v0v0.2l0,0c-0.2,0-0.4,0-0.5,0
					c-0.2,0-0.3,0-0.5,0l0,0v0v-0.2h0h0c0.2,0,0.3-0.1,0.4-0.3l0.7-2.1c0.1-0.2,0.1-0.4,0.2-0.6c0.1,0,0.3-0.1,0.4-0.2c0,0,0,0,0,0
					c0,0,0,0,0,0c0,0,0,0.1,0,0.1l0.8,2.3c0.1,0.2,0.1,0.3,0.2,0.5c0.1,0.1,0.1,0.2,0.3,0.2h0v0L403.9,112.7L403.9,112.7
					L403.9,112.7z M402.6,112.6L402.6,112.6c0.2,0,0.4,0,0.7,0c0.2,0,0.4,0,0.6,0l0-0.1h0c-0.2,0-0.3-0.1-0.3-0.2
					c-0.1-0.1-0.1-0.3-0.2-0.5l-0.8-2.3c0,0,0-0.1,0-0.1c0,0,0,0,0,0h0c0,0,0,0,0,0c-0.1,0.1-0.3,0.1-0.4,0.2c0,0.2-0.1,0.4-0.2,0.6
					l-0.7,2.1c-0.1,0.2-0.2,0.3-0.4,0.3h0v0.1c0.2,0,0.3,0,0.5,0c0.2,0,0.4,0,0.5,0v-0.1h0c-0.1,0-0.4,0-0.4-0.2
					c0-0.1,0.1-0.2,0.1-0.4l0,0l0,0l0.1-0.5h1l0.2,0.5c0,0.1,0.1,0.3,0.1,0.3C402.9,112.5,402.7,112.5,402.6,112.6L402.6,112.6
					L402.6,112.6L402.6,112.6z M401.7,111.3L401.7,111.3l0.4-1.3h0h0v0l0,0l0,0v0h0l0.4,1.3H401.7z M401.7,111.3L401.7,111.3h0.8
					l-0.4-1.2L401.7,111.3L401.7,111.3z M402.1,110L402.1,110L402.1,110L402.1,110z"/>
				<path class="st18" d="M405,112.2c0,0.2,0.1,0.2,0.3,0.3c0.2,0,0.4,0,0.6,0c0.2,0,0.3-0.1,0.4-0.2c0.1-0.1,0.1-0.2,0.1-0.3h0.1
					c0,0.3-0.1,0.5-0.2,0.8c-0.4,0-0.8,0-1.2,0c-0.4,0-0.8,0-1.2,0v-0.1h0.1c0.2,0,0.3,0,0.3-0.3v-2.3c0-0.2-0.2-0.3-0.3-0.3H404
					v-0.1c0.2,0,0.5,0,0.7,0c0.2,0,0.5,0,0.7,0v0.1h-0.1c-0.2,0-0.3,0-0.3,0.2V112.2L405,112.2z"/>
				<path class="st18" d="M406.4,112.7c-0.4,0-0.8,0-1.2,0c-0.4,0-0.8,0-1.2,0h0v0v-0.2h0h0.1c0.2,0,0.3,0,0.3-0.3v-2.3
					c0-0.2-0.2-0.2-0.3-0.2H404v0v-0.2h0c0.2,0,0.5,0,0.7,0c0.2,0,0.5,0,0.7,0h0v0v0.2h0h-0.1c-0.2,0-0.3,0-0.3,0.2v2.3
					c0,0.2,0.1,0.2,0.3,0.2c0.1,0,0.2,0,0.2,0c0.1,0,0.2,0,0.3,0c0.2,0,0.3-0.1,0.4-0.2c0.1-0.1,0.1-0.2,0.1-0.3l0,0h0h0.2l0,0
					C406.5,112.2,406.4,112.4,406.4,112.7L406.4,112.7L406.4,112.7L406.4,112.7L406.4,112.7z M406.4,112.6L406.4,112.6
					c0.1-0.2,0.1-0.5,0.2-0.7h-0.1c0,0.1-0.1,0.2-0.1,0.3c-0.1,0.1-0.2,0.2-0.4,0.2c-0.1,0-0.2,0-0.3,0c-0.1,0-0.2,0-0.3,0
					c-0.1,0-0.3-0.1-0.3-0.3v-2.3c0-0.2,0.2-0.3,0.3-0.3h0.1v-0.1c-0.2,0-0.4,0-0.7,0c-0.2,0-0.5,0-0.7,0v0.1h0c0.2,0,0.4,0,0.4,0.3
					v2.3c0,0.3-0.2,0.3-0.4,0.3h0v0.1c0.4,0,0.8,0,1.2,0S406,112.6,406.4,112.6L406.4,112.6z"/>
				<path class="st18" d="M406.5,109.4c0.3,0,0.5,0.2,0.5,0.5c0,0.3-0.2,0.5-0.5,0.5s-0.5-0.2-0.5-0.5
					C406,109.6,406.2,109.4,406.5,109.4z M406.5,110.3L406.5,110.3c0.2,0,0.4-0.2,0.4-0.4c0-0.2-0.2-0.4-0.4-0.4
					c-0.2,0-0.4,0.2-0.4,0.4C406.1,110.1,406.3,110.3,406.5,110.3z M406.2,110.1L406.2,110.1L406.2,110.1
					C406.3,110.1,406.3,110.1,406.2,110.1l0.1-0.4c0,0,0-0.1-0.1-0.1v0h0.2c0.1,0,0.2,0,0.2,0.1c0,0.1,0,0.1-0.1,0.1l0.1,0.1
					c0,0,0.1,0.1,0.1,0.1v0h-0.1c0,0-0.1-0.1-0.2-0.2h-0.1v0.2c0,0,0,0,0.1,0v0H406.2L406.2,110.1z M406.4,109.9L406.4,109.9
					L406.4,109.9c0.1,0,0.1,0,0.1-0.1c0-0.1,0-0.1-0.1-0.1h-0.1V109.9z"/>
				<path class="st18" d="M368.8,102.9c0-0.7-0.4-0.7-0.8-0.7V102c0.3,0,0.6,0,1,0c0.3,0,0.8,0,1.4,0c2.1,0,3.3,1.4,3.3,2.9
					c0,0.8-0.5,2.9-3.4,2.9c-0.4,0-0.8,0-1.2,0c-0.4,0-0.7,0-1.1,0v-0.2c0.5,0,0.7-0.1,0.8-0.6L368.8,102.9L368.8,102.9z
					 M369.6,106.8L369.6,106.8c0,0.6,0.5,0.7,0.9,0.7c1.8,0,2.4-1.3,2.4-2.6c0-1.5-1-2.6-2.6-2.6c-0.3,0-0.5,0-0.6,0V106.8
					L369.6,106.8z"/>
				<path class="st18" d="M374,107.5h0.2c0.2,0,0.4,0,0.4-0.3V105c0-0.4-0.1-0.4-0.4-0.6v-0.1c0.4-0.1,0.8-0.3,0.9-0.3
					c0.1,0,0.1,0,0.1,0c0,0,0.1,0,0.1,0.1v3.2c0,0.3,0.2,0.3,0.4,0.3h0.1v0.2c-0.3,0-0.6,0-0.9,0c-0.3,0-0.6,0-0.9,0V107.5
					L374,107.5z M374.9,102.7L374.9,102.7c-0.2,0-0.4-0.2-0.4-0.4c0-0.2,0.2-0.4,0.4-0.4c0.2,0,0.4,0.2,0.4,0.4
					C375.3,102.5,375.1,102.7,374.9,102.7z"/>
				<path class="st18" d="M376.6,105.1c0-0.3-0.1-0.4-0.5-0.5v-0.2c0.4-0.1,0.7-0.2,1.1-0.4c0,0,0,0,0,0.1v0.5
					c0.5-0.3,0.9-0.6,1.4-0.6c0.7,0,0.9,0.5,0.9,1.2v2.1c0,0.3,0.2,0.3,0.4,0.3h0.1v0.2c-0.3,0-0.6,0-0.9,0c-0.3,0-0.6,0-0.9,0v-0.2
					h0.1c0.2,0,0.4,0,0.4-0.3v-2.1c0-0.5-0.3-0.7-0.8-0.7c-0.3,0-0.7,0.2-1,0.4v2.4c0,0.3,0.2,0.3,0.4,0.3h0.1v0.2
					c-0.3,0-0.6,0-0.9,0c-0.3,0-0.6,0-0.9,0v-0.2h0.1c0.2,0,0.4,0,0.4-0.3V105.1L376.6,105.1z"/>
				<path class="st18" d="M380.8,105.5c0,0.1,0,0.2,0,0.5c0,0.8,0.6,1.4,1.2,1.4c0.5,0,0.8-0.2,1.1-0.6l0.1,0.1
					c-0.4,0.5-0.8,0.9-1.5,0.9c-1.3,0-1.6-1.3-1.6-1.8c0-1.6,1.1-2.1,1.7-2.1c0.7,0,1.4,0.4,1.4,1.3c0,0.1,0,0.1,0,0.1l-0.1,0H380.8
					L380.8,105.5z M382.3,105.2L382.3,105.2c0.2,0,0.2-0.1,0.2-0.2c0-0.4-0.3-0.8-0.7-0.8c-0.5,0-0.8,0.4-0.9,1H382.3L382.3,105.2z"
					/>
				<path class="st18" d="M383.4,107.5h0.2c0.2,0,0.4,0,0.4-0.3v-2.3c0-0.3-0.3-0.3-0.4-0.4v-0.1c0.6-0.3,0.9-0.5,1-0.5
					c0,0,0.1,0,0.1,0.1v0.7h0c0.2-0.3,0.6-0.8,1.1-0.8c0.2,0,0.5,0.1,0.5,0.4c0,0.2-0.2,0.4-0.4,0.4c-0.3,0-0.3-0.2-0.5-0.2
					c-0.1,0-0.6,0.2-0.6,0.7v1.9c0,0.3,0.2,0.3,0.4,0.3h0.5v0.2c-0.5,0-0.8,0-1.2,0c-0.3,0-0.7,0-1,0V107.5L383.4,107.5z"/>
				<path class="st18" d="M386.6,106.6c0.1,0.5,0.4,1,1,1c0.5,0,0.7-0.3,0.7-0.6c0-1-1.8-0.7-1.8-2c0-0.5,0.4-1.1,1.3-1.1
					c0.3,0,0.6,0.1,0.9,0.2l0.1,0.8h-0.2c-0.1-0.5-0.4-0.8-0.9-0.8c-0.3,0-0.6,0.2-0.6,0.5c0,1,1.9,0.7,1.9,2c0,0.5-0.4,1.1-1.4,1.1
					c-0.3,0-0.7-0.1-1-0.3l-0.1-0.9L386.6,106.6L386.6,106.6z"/>
				<path class="st18" d="M396.3,103.5h-0.2c-0.2-1-0.8-1.3-1.8-1.3c-0.9,0-2.3,0.6-2.3,2.6c0,1.7,1.2,2.9,2.5,2.9
					c0.8,0,1.5-0.6,1.7-1.4l0.2,0l-0.2,1.2c-0.3,0.2-1.3,0.4-1.8,0.4c-1.9,0-3.1-1.2-3.1-3.1c0-1.7,1.5-2.9,3.1-2.9
					c0.7,0,1.3,0.2,1.9,0.4L396.3,103.5L396.3,103.5z"/>
				<path class="st18" d="M396.6,107.5h0.2c0.2,0,0.4,0,0.4-0.3v-4.6c0-0.5-0.1-0.6-0.4-0.6v-0.1c0.3-0.1,0.7-0.3,0.8-0.4
					c0.1,0,0.2-0.1,0.2-0.1c0.1,0,0.1,0,0.1,0.1v5.7c0,0.3,0.2,0.3,0.4,0.3h0.1v0.2c-0.3,0-0.6,0-0.9,0c-0.3,0-0.6,0-0.9,0
					L396.6,107.5L396.6,107.5z"/>
				<path class="st18" d="M401.9,107.3c0,0.1,0.1,0.2,0.2,0.2c0.1,0,0.2,0,0.3,0v0.2c-0.4,0-1,0.2-1.2,0.3l0,0v-0.7
					c-0.5,0.4-0.9,0.7-1.5,0.7c-0.4,0-0.9-0.3-0.9-1v-2.1c0-0.2,0-0.4-0.5-0.5v-0.2c0.3,0,1-0.1,1.1-0.1c0.1,0,0.1,0.1,0.1,0.2v2.1
					c0,0.2,0,1,0.7,1c0.3,0,0.6-0.2,1-0.5v-2.2c0-0.2-0.4-0.3-0.7-0.3v-0.1c0.7,0,1.2-0.1,1.3-0.1c0.1,0,0.1,0.1,0.1,0.1
					L401.9,107.3L401.9,107.3z"/>
				<path class="st18" d="M403.6,104.6c0.3-0.3,0.8-0.6,1.2-0.6c1,0,1.5,0.8,1.5,1.7c0,1.1-0.8,2.2-2,2.2c-0.6,0-0.9-0.2-1.1-0.3
					l-0.2,0.2l-0.2-0.1c0.1-0.5,0.1-1,0.1-1.5v-3.5c0-0.5-0.1-0.6-0.4-0.6v-0.1c0.3-0.1,0.7-0.3,0.8-0.4c0.1,0,0.2-0.1,0.2-0.1
					c0,0,0.1,0,0.1,0.1V104.6L403.6,104.6L403.6,104.6z M403.6,106.8L403.6,106.8c0,0.3,0.3,0.8,0.8,0.8c0.9,0,1.3-0.9,1.3-1.6
					c0-0.9-0.7-1.6-1.3-1.6c-0.3,0-0.6,0.2-0.8,0.4V106.8L403.6,106.8z"/>
				<path class="st18" d="M368.1,112.5L368.1,112.5c0.2,0,0.4,0,0.4-0.3v-2.3c0-0.2-0.2-0.3-0.3-0.3h-0.1v-0.1c0.2,0,0.4,0,0.7,0
					c0.2,0,0.5,0,0.7,0v0.1h-0.1c-0.2,0-0.3,0-0.3,0.3v2.3c0,0.2,0.2,0.3,0.3,0.3h0.1v0.1c-0.2,0-0.5,0-0.7,0c-0.2,0-0.5,0-0.7,0
					V112.5L368.1,112.5z"/>
				<path class="st18" d="M369.4,112.7c-0.2,0-0.5,0-0.7,0c-0.2,0-0.5,0-0.7,0h0v0v-0.1v0h0h0.1c0.2,0,0.3,0,0.3-0.2v-2.3
					c0-0.2-0.1-0.2-0.3-0.2H368v0v-0.2h0c0.2,0,0.4,0,0.7,0c0.2,0,0.5,0,0.7,0h0v0v0.2h0h-0.1c-0.2,0-0.3,0-0.3,0.2v2.3
					c0,0.2,0.1,0.2,0.3,0.2h0.1v0L369.4,112.7L369.4,112.7L369.4,112.7z M369.4,112.6L369.4,112.6L369.4,112.6L369.4,112.6
					c-0.2-0.1-0.4-0.1-0.4-0.4v-2.3c0-0.2,0.2-0.3,0.4-0.3h0v-0.1c-0.2,0-0.5,0-0.7,0c-0.2,0-0.5,0-0.6,0v0.1h0c0.2,0,0.4,0,0.4,0.3
					v2.3c0,0.2-0.2,0.3-0.4,0.3h0v0.1c0.2,0,0.4,0,0.6,0C368.9,112.6,369.2,112.6,369.4,112.6L369.4,112.6z"/>
				<path class="st18" d="M372.5,111.8L372.5,111.8l0-1.7c0-0.4-0.3-0.4-0.4-0.4H372v-0.1c0.2,0,0.4,0,0.6,0c0.2,0,0.4,0,0.6,0v0.1
					h-0.1c-0.2,0-0.4,0-0.4,0.6v2c0,0.2,0,0.3,0,0.5h-0.2l-2.3-2.6v1.8c0,0.4,0.1,0.5,0.4,0.5h0.1v0.1c-0.2,0-0.4,0-0.6,0
					c-0.2,0-0.4,0-0.6,0v-0.1h0.1c0.3,0,0.4-0.2,0.4-0.6v-1.9c0-0.3-0.2-0.4-0.4-0.4h-0.1v-0.1c0.2,0,0.3,0,0.5,0c0.1,0,0.3,0,0.4,0
					L372.5,111.8L372.5,111.8z"/>
				<path class="st18" d="M372.8,112.7l-0.2,0l-2.3-2.5v1.8c0,0.4,0.1,0.5,0.4,0.5h0.1v0v0.2h0c-0.2,0-0.4,0-0.6,0
					c-0.2,0-0.4,0-0.6,0h0v0v-0.2h0h0.1c0.3,0,0.4-0.2,0.4-0.5v-1.9c0-0.2-0.2-0.4-0.4-0.4h-0.1v0v-0.2h0c0.2,0,0.3,0,0.5,0
					c0.1,0,0.3,0,0.4,0l2,2.2v-1.6c0-0.4-0.2-0.4-0.4-0.4H372v0v-0.2h0c0.2,0,0.4,0,0.6,0c0.2,0,0.4,0,0.6,0h0v0v0.2h0h-0.1
					c-0.2,0-0.4,0-0.4,0.5v2C372.8,112.4,372.8,112.6,372.8,112.7L372.8,112.7L372.8,112.7L372.8,112.7z M372.6,112.7L372.6,112.7
					h0.1c0-0.1,0-0.3,0-0.4v-2c0-0.5,0.2-0.6,0.4-0.6h0v-0.1c-0.2,0-0.4,0-0.5,0c-0.2,0-0.4,0-0.6,0l0,0.1h0.1
					c0.1,0,0.4,0.1,0.4,0.4l0,1.7l0,0l0,0l-2-2.3c-0.1,0-0.3,0-0.4,0c-0.2,0-0.3,0-0.5,0l0,0.1h0c0.2,0,0.4,0.2,0.4,0.4v1.9
					c0,0.4-0.1,0.6-0.4,0.6l0,0v0.1c0.2,0,0.4,0,0.6,0c0.2,0,0.4,0,0.6,0v-0.1h-0.1c-0.4,0-0.4-0.2-0.4-0.5v-1.9L372.6,112.7
					L372.6,112.7z M372.5,111.8L372.5,111.8L372.5,111.8L372.5,111.8z M372.5,111.8L372.5,111.8L372.5,111.8L372.5,111.8
					L372.5,111.8z"/>
				<path class="st18" d="M373.9,109.8c-0.3,0-0.3,0.1-0.4,0.4h-0.1c0-0.1,0-0.3,0.1-0.4c0-0.1,0-0.3,0-0.4h0.1
					c0,0.1,0.1,0.1,0.3,0.1h2.3c0.1,0,0.2,0,0.2-0.1l0.1,0c0,0.1,0,0.2,0,0.4c0,0.1,0,0.2,0,0.4l-0.1,0.1c0-0.2,0-0.4-0.3-0.4h-0.7
					v2.4c0,0.3,0.2,0.4,0.4,0.4h0.1v0.1c-0.2,0-0.5,0-0.7,0c-0.3,0-0.6,0-0.8,0v-0.1h0.1c0.2,0,0.4,0,0.4-0.4v-2.4H373.9
					L373.9,109.8z"/>
				<path class="st18" d="M375.6,112.7c-0.2,0-0.5,0-0.7,0c-0.3,0-0.6,0-0.8,0h0v0v-0.2h0h0.1c0.2,0,0.3,0,0.4-0.4v-2.4h-0.7v0v0
					h0.8v2.4c0,0.4-0.1,0.4-0.4,0.4h-0.1v0.1c0.2,0,0.5,0,0.7,0C375.1,112.6,375.4,112.6,375.6,112.7l0-0.1h-0.1
					c-0.2,0-0.4-0.1-0.4-0.4v-2.4h0.8c0.3,0,0.3,0.3,0.3,0.4l0.1,0c0-0.1,0-0.2,0-0.4c0-0.1,0-0.2,0-0.3l-0.1,0
					c0,0.1-0.1,0.1-0.3,0.1h-2.3h0c-0.1,0-0.2,0-0.3-0.1h-0.1c0,0.1,0,0.2,0,0.4c0,0.1,0,0.2-0.1,0.4h0.1c0.1-0.3,0.1-0.4,0.4-0.4v0
					v0c-0.3,0-0.3,0.1-0.4,0.4l0,0h0h-0.2l0,0c0-0.1,0-0.3,0.1-0.4c0-0.1,0-0.2,0-0.4v0h0h0.1l0,0c0,0.1,0.1,0.1,0.2,0.1h0h2.3
					c0.1,0,0.2,0,0.2-0.1l0,0l0,0l0.1,0l0,0c0,0.1,0,0.2,0,0.4c0,0.1,0,0.2,0,0.4v0l0,0l-0.2,0.1l0,0c0-0.2,0-0.4-0.3-0.4h-0.7v2.4
					c0,0.3,0.1,0.4,0.4,0.4h0.1v0L375.6,112.7L375.6,112.7L375.6,112.7z"/>
				<path class="st18" d="M376.6,112.5L376.6,112.5c0.2,0,0.4,0,0.4-0.3v-2.3c0-0.2-0.2-0.3-0.3-0.3h-0.1v-0.1c0.3,0,0.7,0,1.1,0
					c0.4,0,0.8,0,1.1,0c0,0.2,0,0.5,0,0.7l-0.1,0c0-0.3-0.1-0.5-0.5-0.5h-0.6v1.2h0.5c0.3,0,0.3-0.2,0.4-0.4h0.1c0,0.2,0,0.4,0,0.5
					c0,0.2,0,0.3,0,0.5l-0.1,0c0-0.3,0-0.4-0.3-0.4h-0.5v1c0,0.3,0.3,0.3,0.5,0.3c0.5,0,0.8,0,0.9-0.5l0.1,0
					c-0.1,0.2-0.1,0.5-0.2,0.7c-0.3,0-0.8,0-1.2,0c-0.4,0-0.9,0-1.2,0V112.5L376.6,112.5z"/>
				<path class="st18" d="M379,112.7c-0.3,0-0.8,0-1.2,0c-0.4,0-0.9,0-1.2,0h0v0v-0.1v0h0h0.1c0.2,0,0.3,0,0.3-0.2v-2.3
					c0-0.2-0.1-0.2-0.3-0.2h-0.1v0v-0.2h0c0.3,0,0.7,0,1.1,0c0.4,0,0.8,0,1.1,0h0l0,0c0,0.1,0,0.1,0,0.2c0,0.2,0,0.3,0,0.5l0,0l0,0
					l-0.2,0l0,0c0-0.3-0.1-0.5-0.5-0.5h-0.6l0,1.1h0.5c0.3,0,0.3-0.1,0.3-0.4l0,0h0h0.2l0,0c0,0.2,0,0.3,0,0.5c0,0.2,0,0.3,0,0.5
					l0,0l0,0l-0.2,0l0,0c0-0.3,0-0.4-0.3-0.4l-0.5,0v1c0,0.3,0.2,0.3,0.5,0.3c0.5,0,0.8,0,0.9-0.5l0,0l0,0l0.1,0l0,0
					C379.1,112.2,379,112.4,379,112.7L379,112.7L379,112.7L379,112.7z M379,112.6L379,112.6c0-0.2,0.1-0.5,0.1-0.7l-0.1,0
					c-0.1,0.5-0.4,0.5-0.9,0.5c-0.3,0-0.6,0-0.6-0.3v-1.1h0.6c0.3,0,0.3,0.2,0.4,0.4l0.1,0c0-0.2,0-0.3,0-0.5c0-0.2,0-0.3,0-0.5
					h-0.1c0,0.2-0.1,0.4-0.4,0.4h-0.6v-1.2h0.6c0.5,0,0.5,0.2,0.6,0.5l0.1,0c0-0.1,0-0.3,0-0.4c0-0.1,0-0.1,0-0.2
					c-0.3,0-0.8,0-1.1,0c-0.4,0-0.8,0-1.1,0v0.1h0c0.2,0,0.4,0,0.4,0.3v2.3c0,0.2-0.2,0.3-0.4,0.3h0v0.1c0.3,0,0.8,0,1.2,0
					C378.2,112.6,378.7,112.6,379,112.6L379,112.6z"/>
				<path class="st18" d="M379.7,110c0-0.3-0.2-0.3-0.3-0.3h-0.1v-0.1c0.1,0,0.4,0,0.7,0c0.3,0,0.5,0,0.7,0c0.6,0,1.1,0.2,1.1,0.8
					c0,0.4-0.3,0.6-0.6,0.8l0.8,1.1c0.1,0.2,0.2,0.2,0.4,0.3v0.1c-0.1,0-0.3,0-0.4,0c-0.1,0-0.3,0-0.4,0c-0.3-0.5-0.6-0.9-0.9-1.5
					h-0.3v1c0,0.3,0.2,0.4,0.4,0.4h0.1v0.1c-0.3,0-0.5,0-0.8,0c-0.2,0-0.4,0-0.6,0v-0.1h0.1c0.2,0,0.3-0.1,0.3-0.2V110L379.7,110z
					 M380.3,111L380.3,111h0.2c0.4,0,0.7-0.2,0.7-0.7c0-0.4-0.3-0.7-0.7-0.7c-0.1,0-0.2,0-0.3,0V111L380.3,111z"/>
				<path class="st18" d="M382.4,112.7c-0.1,0-0.3,0-0.4,0c-0.1,0-0.3,0-0.4,0c-0.3-0.5-0.6-0.9-0.9-1.4h-0.3v0.9
					c0,0.3,0.1,0.3,0.3,0.3h0.1v0v0.2h0c-0.3,0-0.5,0-0.8,0c-0.2,0-0.4,0-0.6,0h0v0v-0.2h0h0.1c0.2,0,0.3-0.1,0.3-0.2V110
					c0-0.3-0.2-0.3-0.3-0.3h-0.1v0v-0.2h0c0.1,0,0.4,0,0.7,0c0.3,0,0.5,0,0.7,0c0.6,0,1.1,0.2,1.1,0.8c0,0.4-0.3,0.7-0.6,0.8
					l0.8,1.1c0.1,0.2,0.2,0.2,0.4,0.3l0,0v0L382.4,112.7L382.4,112.7L382.4,112.7z M380.3,111.2L380.3,111.2h0.3l0,0
					c0.3,0.5,0.6,1,0.9,1.4c0.1,0,0.3,0,0.4,0c0.1,0,0.3,0,0.4,0v-0.1c-0.2,0-0.3-0.1-0.4-0.3l-0.8-1.2l0,0c0.4-0.1,0.6-0.4,0.6-0.8
					c0-0.6-0.5-0.8-1-0.8c-0.2,0-0.5,0-0.7,0c-0.3,0-0.5,0-0.7,0v0.1h0.1c0.1,0,0.3,0,0.3,0.4v2.3c0,0.2-0.2,0.3-0.3,0.3h-0.1v0.1
					c0.2,0,0.4,0,0.6,0c0.3,0,0.5,0,0.8,0v-0.1h-0.1c-0.2,0-0.4,0-0.4-0.4L380.3,111.2L380.3,111.2L380.3,111.2z M380.3,111.1
					L380.3,111.1L380.3,111.1l0-1.4l0,0c0.1,0,0.1,0,0.3,0c0.4,0,0.7,0.3,0.7,0.7c0,0.5-0.3,0.7-0.7,0.7H380.3L380.3,111.1z
					 M380.5,111L380.5,111c0.4,0,0.7-0.2,0.7-0.7c0-0.4-0.2-0.6-0.6-0.6c-0.1,0-0.2,0-0.2,0v1.3H380.5L380.5,111z"/>
				<path class="st18" d="M385.4,111.8L385.4,111.8l0-1.7c0-0.4-0.3-0.4-0.4-0.4H385v-0.1c0.2,0,0.4,0,0.6,0c0.2,0,0.4,0,0.6,0v0.1
					h-0.1c-0.2,0-0.4,0-0.4,0.6v2c0,0.2,0,0.3,0,0.5h-0.2l-2.3-2.6v1.8c0,0.4,0.1,0.5,0.4,0.5h0.1v0.1c-0.2,0-0.4,0-0.6,0
					c-0.2,0-0.4,0-0.6,0v-0.1h0.1c0.3,0,0.4-0.2,0.4-0.6v-1.9c0-0.3-0.2-0.4-0.4-0.4h-0.1v-0.1c0.2,0,0.3,0,0.5,0c0.1,0,0.3,0,0.4,0
					L385.4,111.8L385.4,111.8z"/>
				<path class="st18" d="M385.7,112.7l-0.2,0l-2.3-2.5v1.8c0,0.4,0.1,0.5,0.4,0.5h0.1v0v0.2h0c-0.2,0-0.4,0-0.6,0
					c-0.2,0-0.4,0-0.6,0h0v0v-0.2h0h0.1c0.3,0,0.4-0.2,0.4-0.5v-1.9c0-0.2-0.2-0.4-0.4-0.4h-0.1v0v-0.2h0c0.2,0,0.3,0,0.5,0
					c0.1,0,0.3,0,0.4,0l2,2.2v-1.6c0-0.4-0.2-0.4-0.4-0.4h-0.1v0v-0.2h0c0.2,0,0.4,0,0.6,0c0.2,0,0.4,0,0.6,0h0v0v0.2h0h-0.1
					c-0.2,0-0.4,0-0.4,0.5v2C385.7,112.4,385.7,112.6,385.7,112.7L385.7,112.7L385.7,112.7L385.7,112.7z M385.5,112.7L385.5,112.7
					h0.1c0-0.1,0-0.3,0-0.4v-2c0-0.5,0.2-0.6,0.4-0.6h0v-0.1c-0.2,0-0.4,0-0.5,0c-0.2,0-0.4,0-0.6,0v0.1h0.1c0.1,0,0.4,0.1,0.4,0.4
					l0,1.7l0,0l0,0l-2-2.3c-0.1,0-0.3,0-0.4,0c-0.2,0-0.3,0-0.5,0v0.1h0c0.2,0,0.4,0.2,0.4,0.4v1.9c0,0.4-0.1,0.6-0.4,0.6l0,0v0.1
					c0.2,0,0.4,0,0.6,0c0.2,0,0.4,0,0.6,0v-0.1h-0.1c-0.4,0-0.4-0.2-0.4-0.5v-1.9L385.5,112.7L385.5,112.7z M385.4,111.8
					L385.4,111.8L385.4,111.8L385.4,111.8z M385.4,111.8L385.4,111.8L385.4,111.8L385.4,111.8L385.4,111.8z"/>
				<path class="st18" d="M386.9,112c0,0.2-0.1,0.3-0.1,0.3c0,0.1,0.2,0.2,0.3,0.2h0v0.1c-0.2,0-0.4,0-0.5,0c-0.2,0-0.3,0-0.5,0
					v-0.1h0c0.2,0,0.3-0.1,0.4-0.3l0.7-2.1c0.1-0.2,0.1-0.4,0.2-0.6c0.1,0,0.3-0.1,0.4-0.2c0,0,0,0,0,0c0,0,0,0,0,0c0,0,0,0.1,0,0.1
					l0.8,2.3c0.1,0.2,0.1,0.3,0.2,0.5c0.1,0.1,0.1,0.2,0.3,0.2h0v0.1c-0.2,0-0.4,0-0.6,0c-0.2,0-0.4,0-0.7,0v-0.1h0
					c0.1,0,0.3,0,0.3-0.1c0-0.1,0-0.2-0.1-0.3l-0.2-0.5h-1L386.9,112L386.9,112z M387.5,110L387.5,110L387.5,110l-0.4,1.3h0.8
					L387.5,110z"/>
				<path class="st18" d="M389.2,112.7c-0.2,0-0.4,0-0.6,0c-0.2,0-0.4,0-0.7,0l0,0v0v-0.2h0h0c0.1,0,0.3,0,0.3-0.1
					c0-0.1,0-0.2-0.1-0.3l-0.2-0.5h-1l-0.1,0.5c0,0.2-0.1,0.3-0.1,0.3c0,0.1,0.2,0.1,0.3,0.1h0.1v0v0.2l0,0c-0.2,0-0.4,0-0.5,0
					c-0.2,0-0.3,0-0.5,0l0,0v0v-0.2h0h0c0.2,0,0.3-0.1,0.4-0.3l0.7-2.1c0.1-0.2,0.1-0.4,0.2-0.6c0.1,0,0.3-0.1,0.4-0.2c0,0,0,0,0,0
					c0,0,0,0,0,0c0,0,0,0.1,0,0.1l0.8,2.3c0.1,0.2,0.1,0.3,0.2,0.5c0.1,0.1,0.1,0.2,0.3,0.2h0v0L389.2,112.7L389.2,112.7
					L389.2,112.7z M388,112.6L388,112.6c0.2,0,0.4,0,0.7,0c0.2,0,0.4,0,0.6,0v-0.1h0c-0.2,0-0.3-0.1-0.3-0.2
					c-0.1-0.1-0.1-0.3-0.2-0.5l-0.8-2.3c0,0,0-0.1,0-0.1c0,0,0,0,0,0h0c0,0,0,0,0,0c-0.1,0.1-0.3,0.1-0.4,0.2c0,0.2-0.1,0.4-0.2,0.6
					l-0.7,2.1c-0.1,0.2-0.2,0.3-0.4,0.3h0v0.1c0.2,0,0.3,0,0.5,0c0.2,0,0.3,0,0.5,0v-0.1h0c-0.1,0-0.3,0-0.4-0.2
					c0-0.1,0.1-0.2,0.1-0.4l0,0l0,0l0.1-0.5h1l0.2,0.5c0.1,0.1,0.1,0.3,0.1,0.3C388.3,112.5,388.1,112.5,388,112.6L388,112.6
					L388,112.6L388,112.6z M387.1,111.3L387.1,111.3l0.4-1.3h0h0v0l0,0l0,0v0h0l0.4,1.3H387.1z M387.1,111.3L387.1,111.3h0.8
					l-0.4-1.2L387.1,111.3z M387.5,110L387.5,110L387.5,110L387.5,110z"/>
				<path class="st18" d="M389.4,109.8c-0.3,0-0.3,0.1-0.4,0.4h-0.1c0-0.1,0-0.3,0.1-0.4c0-0.1,0-0.3,0-0.4h0.1
					c0,0.1,0.1,0.1,0.3,0.1h2.3c0.1,0,0.2,0,0.2-0.1l0.1,0c0,0.1,0,0.2,0,0.4c0,0.1,0,0.2,0,0.4l-0.1,0.1c0-0.2,0-0.4-0.3-0.4h-0.7
					v2.4c0,0.3,0.2,0.4,0.4,0.4h0.1v0.1c-0.2,0-0.5,0-0.7,0c-0.3,0-0.6,0-0.8,0v-0.1h0.1c0.2,0,0.4,0,0.4-0.4v-2.4H389.4
					L389.4,109.8z"/>
				<path class="st18" d="M391.2,112.7c-0.2,0-0.5,0-0.7,0c-0.3,0-0.6,0-0.8,0h0v0v-0.2h0h0.1c0.2,0,0.3,0,0.4-0.4l0-2.4h-0.7v0v0
					h0.8v2.4c0,0.4-0.1,0.4-0.4,0.4h-0.1v0.1c0.2,0,0.5,0,0.7,0C390.7,112.6,391,112.6,391.2,112.7l0-0.1h-0.1
					c-0.2,0-0.4-0.1-0.4-0.4v-2.4h0.8c0.3,0,0.3,0.3,0.3,0.4l0.1,0c0-0.1,0-0.2,0-0.4c0-0.1,0-0.2,0-0.3l-0.1,0
					c0,0.1-0.1,0.1-0.3,0.1h-2.3h0c-0.1,0-0.2,0-0.3-0.1H389c0,0.1,0,0.2,0,0.4c0,0.1,0,0.2-0.1,0.4h0.1c0.1-0.3,0.1-0.4,0.4-0.4v0
					v0c-0.3,0-0.3,0.1-0.4,0.4l0,0h0h-0.2l0,0c0-0.1,0-0.3,0.1-0.4c0-0.1,0-0.2,0-0.4v0h0h0.1l0,0c0,0.1,0.1,0.1,0.2,0.1l0,0h2.3
					c0.1,0,0.2,0,0.2-0.1l0,0l0,0l0.1,0l0,0c0,0.1,0,0.2,0,0.4c0,0.1,0,0.2,0,0.4v0l0,0l-0.2,0.1l0,0c0-0.2,0-0.4-0.3-0.4h-0.7v2.4
					c0,0.3,0.1,0.4,0.4,0.4h0.1v0L391.2,112.7L391.2,112.7L391.2,112.7z"/>
				<path class="st18" d="M392.2,112.5L392.2,112.5c0.2,0,0.4,0,0.4-0.3v-2.3c0-0.2-0.2-0.3-0.3-0.3h-0.1v-0.1c0.2,0,0.4,0,0.7,0
					c0.2,0,0.5,0,0.7,0v0.1h-0.1c-0.2,0-0.3,0-0.3,0.3v2.3c0,0.2,0.2,0.3,0.3,0.3h0.1v0.1c-0.2,0-0.5,0-0.7,0c-0.2,0-0.5,0-0.7,0
					V112.5L392.2,112.5z"/>
				<path class="st18" d="M393.5,112.7c-0.2,0-0.5,0-0.7,0c-0.2,0-0.5,0-0.7,0h0v0v-0.1v0h0h0.1c0.2,0,0.3,0,0.3-0.2v-2.3
					c0-0.2-0.1-0.2-0.3-0.2h-0.1v0v-0.2h0c0.2,0,0.4,0,0.7,0c0.2,0,0.5,0,0.7,0h0v0v0.2h0h-0.1c-0.2,0-0.3,0-0.3,0.2v2.3
					c0,0.2,0.1,0.2,0.3,0.2h0.1v0L393.5,112.7L393.5,112.7L393.5,112.7z M393.5,112.6L393.5,112.6L393.5,112.6L393.5,112.6
					c-0.2-0.1-0.4-0.1-0.4-0.4v-2.3c0-0.2,0.2-0.3,0.4-0.3h0v-0.1c-0.2,0-0.5,0-0.7,0c-0.2,0-0.5,0-0.6,0v0.1h0c0.2,0,0.3,0,0.4,0.3
					v2.3c0,0.2-0.2,0.3-0.4,0.3h0v0.1c0.2,0,0.4,0,0.6,0C393,112.6,393.3,112.6,393.5,112.6L393.5,112.6z"/>
				<path class="st18" d="M395.3,109.5c1,0,1.7,0.6,1.7,1.5c0,1-0.7,1.7-1.7,1.7c-0.9,0-1.7-0.6-1.7-1.6
					C393.7,110.2,394.4,109.5,395.3,109.5L395.3,109.5z M395.4,112.5L395.4,112.5c0.9,0,1-0.8,1-1.4c0-0.7-0.4-1.4-1.1-1.4
					c-0.8,0-1,0.7-1,1.3C394.3,111.8,394.7,112.5,395.4,112.5L395.4,112.5z"/>
				<path class="st18" d="M393.6,111.1c0-0.9,0.7-1.7,1.7-1.7v0v0C394.4,109.5,393.7,110.2,393.6,111.1c0,1,0.8,1.6,1.7,1.6
					c0.9,0,1.7-0.7,1.7-1.7c0-0.9-0.8-1.5-1.7-1.5v0v0c1,0,1.7,0.6,1.7,1.6c0,1-0.7,1.7-1.7,1.7
					C394.4,112.7,393.6,112.1,393.6,111.1L393.6,111.1L393.6,111.1z M394.3,111L394.3,111c0-0.6,0.2-1.3,1-1.3
					c0.8,0,1.1,0.8,1.1,1.5c0,0.7-0.2,1.4-1,1.4v0v0c0.9,0,1-0.7,1-1.4c0-0.6-0.3-1.4-1.1-1.4C394.5,109.7,394.3,110.4,394.3,111
					c0,0.8,0.4,1.5,1.1,1.5v0v0C394.6,112.5,394.3,111.8,394.3,111L394.3,111z"/>
				<path class="st18" d="M400,111.8L400,111.8l0-1.7c0-0.4-0.3-0.4-0.4-0.4h-0.1v-0.1c0.2,0,0.4,0,0.6,0c0.2,0,0.4,0,0.6,0v0.1
					h-0.1c-0.2,0-0.4,0-0.4,0.6v2c0,0.2,0,0.3,0,0.5h-0.2l-2.3-2.6v1.8c0,0.4,0.1,0.5,0.4,0.5h0.1v0.1c-0.2,0-0.4,0-0.6,0
					c-0.2,0-0.4,0-0.6,0v-0.1h0.1c0.3,0,0.4-0.2,0.4-0.6v-1.9c0-0.3-0.2-0.4-0.4-0.4h-0.1v-0.1c0.2,0,0.3,0,0.5,0c0.1,0,0.3,0,0.4,0
					L400,111.8L400,111.8z"/>
				<path class="st18" d="M400.3,112.7l-0.2,0l-2.3-2.5v1.8c0,0.4,0.1,0.5,0.4,0.5h0.1v0v0.2h0c-0.2,0-0.4,0-0.6,0
					c-0.2,0-0.4,0-0.6,0h0v0v-0.2h0h0.1c0.3,0,0.4-0.2,0.4-0.5v-1.9c0-0.2-0.2-0.4-0.4-0.4h-0.1v0v-0.2h0c0.2,0,0.3,0,0.5,0
					c0.1,0,0.3,0,0.4,0l2,2.2v-1.6c0-0.4-0.2-0.4-0.4-0.4h-0.1v0v-0.2h0c0.2,0,0.4,0,0.6,0c0.2,0,0.4,0,0.6,0h0v0v0.2h0h-0.1
					c-0.2,0-0.4,0-0.4,0.5v2C400.3,112.4,400.3,112.6,400.3,112.7L400.3,112.7L400.3,112.7L400.3,112.7z M400.1,112.7L400.1,112.7
					h0.1c0-0.1,0-0.3,0-0.4v-2c0-0.5,0.2-0.6,0.4-0.6h0v-0.1c-0.2,0-0.4,0-0.5,0c-0.2,0-0.4,0-0.6,0v0.1h0.1c0.1,0,0.4,0.1,0.4,0.4
					l0,1.7l0,0l0,0l-2-2.3c-0.1,0-0.3,0-0.4,0c-0.2,0-0.3,0-0.5,0v0.1h0c0.2,0,0.4,0.2,0.4,0.4v1.9c0,0.4-0.1,0.6-0.4,0.6l0,0v0.1
					c0.2,0,0.4,0,0.6,0c0.2,0,0.4,0,0.6,0v-0.1h-0.1c-0.4,0-0.4-0.2-0.4-0.5v-1.9L400.1,112.7L400.1,112.7z M400,111.8L400,111.8
					L400,111.8L400,111.8z M400,111.8L400,111.8L400,111.8L400,111.8L400,111.8z"/>
				<path class="st18" d="M401.5,112c0,0.2-0.1,0.3-0.1,0.3c0,0.1,0.2,0.2,0.3,0.2h0v0.1c-0.2,0-0.4,0-0.5,0c-0.2,0-0.3,0-0.5,0
					v-0.1h0c0.2,0,0.3-0.1,0.4-0.3l0.7-2.1c0.1-0.2,0.1-0.4,0.2-0.6c0.1,0,0.3-0.1,0.4-0.2c0,0,0,0,0,0c0,0,0,0,0,0c0,0,0,0.1,0,0.1
					l0.8,2.3c0.1,0.2,0.1,0.3,0.2,0.5c0.1,0.1,0.1,0.2,0.3,0.2h0v0.1c-0.2,0-0.4,0-0.6,0c-0.2,0-0.4,0-0.7,0v-0.1h0
					c0.1,0,0.3,0,0.3-0.1c0-0.1,0-0.2-0.1-0.3l-0.2-0.5h-1L401.5,112L401.5,112z M402.1,110L402.1,110L402.1,110l-0.4,1.3h0.8
					L402.1,110z"/>
				<path class="st18" d="M403.9,112.7c-0.2,0-0.4,0-0.6,0c-0.2,0-0.4,0-0.7,0l0,0v0v-0.2h0h0c0.1,0,0.3,0,0.3-0.1
					c0-0.1,0-0.2-0.1-0.3l-0.2-0.5h-1l-0.1,0.5c0,0.2-0.1,0.3-0.1,0.3c0,0.1,0.2,0.1,0.3,0.1h0.1v0v0.2l0,0c-0.2,0-0.4,0-0.5,0
					c-0.2,0-0.3,0-0.5,0l0,0v0v-0.2h0h0c0.2,0,0.3-0.1,0.4-0.3l0.7-2.1c0.1-0.2,0.1-0.4,0.2-0.6c0.1,0,0.3-0.1,0.4-0.2c0,0,0,0,0,0
					c0,0,0,0,0,0c0,0,0,0.1,0,0.1l0.8,2.3c0.1,0.2,0.1,0.3,0.2,0.5c0.1,0.1,0.1,0.2,0.3,0.2h0v0L403.9,112.7L403.9,112.7
					L403.9,112.7z M402.6,112.6L402.6,112.6c0.2,0,0.4,0,0.7,0c0.2,0,0.4,0,0.6,0l0-0.1h0c-0.2,0-0.3-0.1-0.3-0.2
					c-0.1-0.1-0.1-0.3-0.2-0.5l-0.8-2.3c0,0,0-0.1,0-0.1c0,0,0,0,0,0h0c0,0,0,0,0,0c-0.1,0.1-0.3,0.1-0.4,0.2c0,0.2-0.1,0.4-0.2,0.6
					l-0.7,2.1c-0.1,0.2-0.2,0.3-0.4,0.3h0v0.1c0.2,0,0.3,0,0.5,0c0.2,0,0.4,0,0.5,0v-0.1h0c-0.1,0-0.4,0-0.4-0.2
					c0-0.1,0.1-0.2,0.1-0.4l0,0l0,0l0.1-0.5h1l0.2,0.5c0,0.1,0.1,0.3,0.1,0.3C402.9,112.5,402.7,112.5,402.6,112.6L402.6,112.6
					L402.6,112.6L402.6,112.6z M401.7,111.3L401.7,111.3l0.4-1.3h0h0v0l0,0l0,0v0h0l0.4,1.3H401.7z M401.7,111.3L401.7,111.3h0.8
					l-0.4-1.2L401.7,111.3L401.7,111.3z M402.1,110L402.1,110L402.1,110L402.1,110z"/>
				<path class="st18" d="M405,112.2c0,0.2,0.1,0.2,0.3,0.3c0.2,0,0.4,0,0.6,0c0.2,0,0.3-0.1,0.4-0.2c0.1-0.1,0.1-0.2,0.1-0.3h0.1
					c0,0.3-0.1,0.5-0.2,0.8c-0.4,0-0.8,0-1.2,0c-0.4,0-0.8,0-1.2,0v-0.1h0.1c0.2,0,0.3,0,0.3-0.3v-2.3c0-0.2-0.2-0.3-0.3-0.3H404
					v-0.1c0.2,0,0.5,0,0.7,0c0.2,0,0.5,0,0.7,0v0.1h-0.1c-0.2,0-0.3,0-0.3,0.2V112.2L405,112.2z"/>
				<path class="st18" d="M406.4,112.7c-0.4,0-0.8,0-1.2,0c-0.4,0-0.8,0-1.2,0h0v0v-0.2h0h0.1c0.2,0,0.3,0,0.3-0.3v-2.3
					c0-0.2-0.2-0.2-0.3-0.2H404v0v-0.2h0c0.2,0,0.5,0,0.7,0c0.2,0,0.5,0,0.7,0h0v0v0.2h0h-0.1c-0.2,0-0.3,0-0.3,0.2v2.3
					c0,0.2,0.1,0.2,0.3,0.2c0.1,0,0.2,0,0.2,0c0.1,0,0.2,0,0.3,0c0.2,0,0.3-0.1,0.4-0.2c0.1-0.1,0.1-0.2,0.1-0.3l0,0h0h0.2l0,0
					C406.5,112.2,406.4,112.4,406.4,112.7L406.4,112.7L406.4,112.7L406.4,112.7L406.4,112.7z M406.4,112.6L406.4,112.6
					c0.1-0.2,0.1-0.5,0.2-0.7h-0.1c0,0.1-0.1,0.2-0.1,0.3c-0.1,0.1-0.2,0.2-0.4,0.2c-0.1,0-0.2,0-0.3,0c-0.1,0-0.2,0-0.3,0
					c-0.1,0-0.3-0.1-0.3-0.3v-2.3c0-0.2,0.2-0.3,0.3-0.3h0.1v-0.1c-0.2,0-0.4,0-0.7,0c-0.2,0-0.5,0-0.7,0v0.1h0c0.2,0,0.4,0,0.4,0.3
					v2.3c0,0.3-0.2,0.3-0.4,0.3h0v0.1c0.4,0,0.8,0,1.2,0S406,112.6,406.4,112.6L406.4,112.6z"/>
				<path class="st18" d="M406.5,109.4c0.3,0,0.5,0.2,0.5,0.5c0,0.3-0.2,0.5-0.5,0.5s-0.5-0.2-0.5-0.5
					C406,109.6,406.2,109.4,406.5,109.4z M406.5,110.3L406.5,110.3c0.2,0,0.4-0.2,0.4-0.4c0-0.2-0.2-0.4-0.4-0.4
					c-0.2,0-0.4,0.2-0.4,0.4C406.1,110.1,406.3,110.3,406.5,110.3z M406.2,110.1L406.2,110.1L406.2,110.1
					C406.3,110.1,406.3,110.1,406.2,110.1l0.1-0.4c0,0,0-0.1-0.1-0.1v0h0.2c0.1,0,0.2,0,0.2,0.1c0,0.1,0,0.1-0.1,0.1l0.1,0.1
					c0,0,0.1,0.1,0.1,0.1v0h-0.1c0,0-0.1-0.1-0.2-0.2h-0.1v0.2c0,0,0,0,0.1,0v0H406.2L406.2,110.1z M406.4,109.9L406.4,109.9
					L406.4,109.9c0.1,0,0.1,0,0.1-0.1c0-0.1,0-0.1-0.1-0.1h-0.1V109.9z"/>
			</g>
		</g>
	</g>
	<text transform="matrix(1 0 0 1 110.6393 60.8603)" class="st19 st20">Mtodos de pagamento seguros</text>
</g>
</svg>
