<?xml version="1.0" encoding="utf-8"?>
<!-- Generator: Adobe Illustrator 24.2.0, SVG Export Plug-In . SVG Version: 6.00 Build 0)  -->
<svg version="1.1" id="Layer_1" xmlns="http://www.w3.org/2000/svg" xmlns:xlink="http://www.w3.org/1999/xlink" x="0px" y="0px"
	 viewBox="0 0 250 80" style="enable-background:new 0 0 250 80;" xml:space="preserve">
<style type="text/css">
	.st0{fill:#0080FF;}
</style>
<g>
	<g id="moneyCloud" transform="translate(0 12.718)">
		<g id="Grupo_1" transform="translate(46.991 1.332)">
			<path id="Caminho_1" class="st0" d="M61.3,50.4c0-1.4,0.5-2,2.1-2c1.7,0,2.1,0.6,2.1,2v6.3c0,0.9,0.7,1.6,1.6,1.6l0,0
				c0.9,0,1.6-0.7,1.6-1.6v-6.3c0-1.4,0.4-2,2.2-2c1.7,0,2.1,0.6,2.1,2v6.3c0,0.9,0.7,1.6,1.6,1.6h0.1c0.9,0,1.6-0.7,1.6-1.6v-6.3
				c0-3.5-1.7-5.2-5.5-5.2c-1.4-0.1-2.7,0.4-3.6,1.4c-0.1,0.1-0.2,0.1-0.3,0c0,0,0,0,0,0c-0.9-1-2.3-1.6-3.7-1.4
				c-3.6,0-5.5,1.8-5.5,5.2v6.3c0,0.9,0.7,1.6,1.6,1.6h0.1c0.9,0,1.6-0.7,1.6-1.6L61.3,50.4L61.3,50.4z"/>
			<path id="Caminho_2" class="st0" d="M85.7,58.7c4,0,6.1-2,6.1-5.7v-2.1c0-3.8-1.9-5.7-6.1-5.7c-4,0-6.2,2-6.2,5.7V53
				C79.5,56.8,81.5,58.7,85.7,58.7 M88.5,53c0,1.8-0.6,2.6-2.8,2.6c-2.2,0-2.8-0.8-2.8-2.6v-2.1c0-1.8,0.6-2.5,2.8-2.5
				s2.8,0.8,2.8,2.5V53z"/>
			<path id="Caminho_3" class="st0" d="M98.3,50.4c0-1.4,0.5-2,2.5-2c2,0,2.4,0.6,2.4,2v6.3c0,0.9,0.7,1.6,1.6,1.6h0.1
				c0.9,0,1.6-0.7,1.6-1.6v-6.3c0-3.5-1.8-5.2-5.8-5.2c-3.9,0-5.9,1.8-5.9,5.2v6.3c0,0.9,0.7,1.6,1.6,1.6h0.1c0.9,0,1.6-0.7,1.6-1.6
				L98.3,50.4L98.3,50.4z"/>
			<path id="Caminho_4" class="st0" d="M113.1,50.1c0-1.3,0.9-2,2.5-2c1.7,0,2.6,0.6,2.6,2v0.2c0,0.1-0.1,0.2-0.2,0.2h0h-4.7
				c-0.1,0-0.2-0.1-0.2-0.2l0,0L113.1,50.1z M121.4,50.8c0-3.7-1.9-5.6-5.6-5.6c-4,0-6,1.9-6,5.8v2.1c0,3.9,2.1,5.6,6.7,5.6
				c1.1,0,2.1-0.1,3.1-0.3c1.1-0.3,1.4-0.5,1.4-1.7v-0.3c0-1.2-0.3-1.5-1.4-1.2c-1,0.2-2.1,0.3-3.1,0.4c-2.4,0-3.4-0.6-3.4-2v-0.2
				c0-0.1,0.1-0.2,0.2-0.2h0h6.3c1.2,0,1.5-0.3,1.7-1.4C121.3,51.5,121.4,51.1,121.4,50.8L121.4,50.8z"/>
			<path id="Caminho_5" class="st0" d="M127.1,47c-0.3-1.1-0.6-1.4-1.8-1.4h-0.6c-1.2,0-1.4,0.3-1.1,1.4l1.9,8.2
				c0.6,2.5,1.2,3.6,3.4,3.6c0.3,0,0.6,0,0.8,0c0.1,0,0.2,0.1,0.2,0.2c0,0,0,0.1,0,0.1c-0.4,1.2-1.4,2.2-2.7,2.4
				c-1.1,0.2-1.2,0.5-1,1.6l0,0.1c0.2,1.2,0.5,1.4,1.7,1.2c2.8-0.4,4.7-2,5.6-5.8l2.6-11.4c0.2-1.1,0-1.4-1.1-1.4h-0.6
				c-1.2,0-1.5,0.3-1.8,1.4l-1.7,7.8c-0.2,0.9-0.5,1.1-1,1.1c-0.8,0-1-0.1-1.2-1.1L127.1,47z"/>
			<path id="Caminho_6" class="st0" d="M140.2,53.2c0,3.7,2.1,5.5,6.3,5.5c0.6,0,1.2,0,1.7-0.2c1.1-0.2,1.4-0.5,1.4-1.7v-0.3
				c0-1.2-0.3-1.4-1.4-1.2c-0.5,0.1-1,0.1-1.6,0.1c-2.2,0-3.1-0.6-3.1-2.4v-2.3c0-1.9,0.8-2.4,2.8-2.4c0.5,0,1.1,0,1.6,0.2
				c1.1,0.2,1.4,0,1.4-1.2v-0.3c0-1.2-0.3-1.5-1.4-1.7c-0.5-0.1-1.1-0.2-1.7-0.2c-4,0-6.2,2.1-6.2,5.5L140.2,53.2L140.2,53.2z"/>
			<path id="Caminho_7" class="st0" d="M152.3,54.5c0,2.8,1.5,4.1,3.8,4.1c0.3,0,0.6,0,0.8,0c0.7-0.1,0.9-0.4,0.9-1.4v-0.5
				c0-1-0.2-1.2-0.9-1.2h-0.1c-0.8,0-1.1-0.4-1.1-1.7V42c0-0.9-0.7-1.6-1.6-1.6h-0.1c-0.9,0-1.6,0.7-1.6,1.6L152.3,54.5L152.3,54.5z
				"/>
			<path id="Caminho_8" class="st0" d="M166.3,58.7c4,0,6.1-2,6.1-5.7v-2.1c0-3.8-1.9-5.7-6.1-5.7c-4,0-6.2,2-6.2,5.7V53
				C160.1,56.8,162.1,58.7,166.3,58.7 M169.1,53c0,1.8-0.6,2.6-2.8,2.6c-2.2,0-2.8-0.8-2.8-2.6v-2.1c0-1.8,0.6-2.5,2.8-2.5
				c2.2,0,2.8,0.8,2.8,2.5V53z"/>
			<path id="Caminho_9" class="st0" d="M179.1,47.2c0-0.9-0.7-1.6-1.6-1.6h-0.1c-0.9,0-1.6,0.7-1.6,1.6v6.3c0,3.4,2,5.2,5.9,5.2
				c4,0,5.8-1.7,5.8-5.2v-6.3c0-0.9-0.7-1.6-1.6-1.6h-0.1c-0.9,0-1.6,0.7-1.6,1.6v6.3c0,1.4-0.5,2-2.4,2c-2,0-2.5-0.6-2.5-2V47.2z"
				/>
			<path id="Caminho_10" class="st0" d="M194.1,50.9c0-1.8,0.6-2.6,2.8-2.6c2.2,0,2.8,0.8,2.8,2.6V53c0,1.8-0.6,2.6-2.8,2.6
				c-2.2,0-2.8-0.7-2.8-2.6V50.9z M203,42c0-0.9-0.7-1.6-1.6-1.6h-0.1c-0.9,0-1.6,0.7-1.6,1.6v4.2c0,0.1-0.1,0.2-0.2,0.2
				c0,0-0.1,0-0.1-0.1c-0.9-0.8-2-1.2-3.2-1.1c-3.5,0-5.4,2.1-5.4,5.8v2.1c0,3.8,2.1,5.6,6.2,5.6c3.7,0,6.1-1.8,6.1-5.6L203,42z"/>
		</g>
		<g id="Grupo_2">
			<path id="Caminho_11" class="st0" d="M82.8,60.2c-0.2,2-1.3,3.8-3.1,4.8l0,0c-0.1,0-0.1,0.1-0.2,0.1l0,0c-3.2,1.7-7,1.5-10-0.4
				c-0.5-0.3-0.9-0.7-1.3-1.1c0,0,0,0,0,0l-2.3-0.1l0,0c-0.8-0.1-1.7-0.4-2.4-0.7c-0.8-0.4-1.4-0.9-2-1.5c-0.6-0.6-1-1.3-1.3-2.1
				c-0.6-1.6-0.6-3.4,0.1-5c0.4-0.8,0.9-1.6,1.5-2.2c0.6-0.6,1.3-1,2-1.4c0.8-0.3,1.6-0.5,2.4-0.6c0,0,0.1,0,0.1,0
				c0.8,1.5,2,2.7,3.4,3.7c0.4,0.2,0.9,0.4,1.4,0.5C75.1,55.4,82.9,54,82.8,60.2"/>
			<path id="Caminho_12" class="st0" d="M78,42c0.6,0.2,1.2,0.5,1.8,0.9c1.3,0.8,2.3,2,3,3.4c0,0,0,0,0.1,0l0.2,0
				c0.1,0,0.3-0.1,0.4-0.1c0.2,0,0.4-0.1,0.7-0.1c0.2,0,0.5,0,0.7,0c1.1,0,2.1,0.2,3.1,0.6c1,0.4,1.9,0.9,2.7,1.6
				c0.7,0.6,1.3,1.3,1.8,2.2c0.4,0.7,0.7,1.5,0.9,2.4c0,0,0,0.1,0.1,0c0,0,0,0,0,0h0c0.2,0,0.3-0.1,0.5-0.1c0.2,0,0.3,0,0.5,0
				c0.7,0,1.4,0.1,2,0.4c0.7,0.3,1.2,0.7,1.7,1.2c1.5,1.5,2,3.8,1.2,5.8c-0.3,0.6-0.7,1.2-1.2,1.7c-1,1-2.4,1.6-3.8,1.6
				c-1.9,0-4.3,0-6.7,0h-0.1c-1.6,0-2.7,0-4.5,0c0,0-0.1,0-0.1-0.1c0,0,0,0,0,0c0.7-1,1-2.3,1-3.5c0-7.6-10.7-5.5-13.7-7.1
				c-0.3-0.1-0.5-0.3-0.7-0.4l0,0c-1.7-1-2.7-2.7-2.8-4.7c0-1.2,0.5-2.4,1.2-3.3c0.2-0.2,0.3-0.3,0.5-0.5c0.3-0.3,0.7-0.6,1.1-0.9
				C72.4,41.4,75.4,41.1,78,42"/>
			<path id="Caminho_13" class="st0" d="M74.9,42.5L74.9,42.5c-0.4,0-0.8-0.3-0.8-0.7v-0.6c0-0.4,0.3-0.7,0.7-0.7h0
				c0.4,0,0.7,0.3,0.7,0.7v0.6C75.6,42.1,75.3,42.5,74.9,42.5z"/>
			<path id="Caminho_14" class="st0" d="M74.9,67.3L74.9,67.3c-0.4,0-0.8-0.3-0.8-0.7V66c0-0.4,0.3-0.7,0.7-0.7h0
				c0.4,0,0.7,0.3,0.7,0.7v0.6C75.6,67,75.3,67.3,74.9,67.3C74.9,67.3,74.9,67.3,74.9,67.3z"/>
		</g>
	</g>
	<g id="freedomee">
		<path class="st0" d="M250,38.9c-5.9,0-11.9,0-17.8,0c0,0-0.1,0-0.2-0.1c0-10.2,0-20.3,0-30.6c6,0,12,0,18,0c0,2.4,0,4.7,0,7.1
			c-3.2,0-6.4,0-9.6,0c0,1.3,0,2.5,0,3.7c0,0.5,0.2,0.7,0.7,0.7c2.2,0,4.4,0,6.6,0c0.5,0,1.1,0,1.7,0c0,2.3,0,4.6,0,7
			c-3,0-6,0-8.9,0c0,1.7,0,3.3,0,4.9c3.2,0,6.4,0,9.6,0C250,34.1,250,36.5,250,38.9z"/>
		<path class="st0" d="M216.4,39.5c-1.1-0.2-2.2-0.3-3.2-0.6c-4.3-1.1-6.8-4.2-7.3-8.7c-0.2-2.6-0.2-5,0.7-7.5
			c1.4-4.1,4.9-6.8,9.2-7c1.6-0.1,3.4,0,4.9,0.4c3.7,1,5.5,3.8,6.3,7.4c0.5,2.2,0.4,4.4,0,6.7c-4.3,0-8.5,0-12.8,0
			c0.1,1.2,0.8,1.9,1.8,2.3c1.3,0.6,2.6,0.6,4,0.5c2-0.1,3.9-0.6,5.8-1.4c0.2,1.4,0.3,2.8,0.5,4.1c0,0.2,0,0.3,0,0.5
			c0.2,2,0.5,1.6-1.4,2.2c-1.7,0.5-3.5,0.7-5.2,1c-0.2,0-0.4,0.1-0.6,0.1C218.2,39.5,217.3,39.5,216.4,39.5z M214.2,24.8
			c1.7,0,3.3,0,5,0c0.2-1.9-0.7-3.1-2.3-3.1C215.3,21.6,214.1,23,214.2,24.8z"/>
		<path class="st0" d="M167.7,25c0.5-0.5,1-0.9,1.6-1.3c1.3-1,2.5-1,3.7,0.2c0.6,0.6,1.2,1.4,1.7,2.1c0.2,0.3,0.4,0.5,0.7,0.9
			c0.6-0.5,1.1-1,1.7-1.5c1.7-1.6,3.2-1.6,5-0.1c1.4,1.2,2.7,2.5,4.1,3.6c2.9,2.4,6.3,3.1,9.9,2c3.4-1,6.8-2.3,9.5-4.7
			c0.3-0.2,0.5-0.6,0.5-1c0.1,0.1-0.1,3.7-0.2,3.8c-0.7,0.4-1.4,0.9-2.1,1.3c-3,1.7-6.1,2.9-9.5,3.4c-3.8,0.5-7.1-0.7-10-3.2
			c-1.2-1-2.3-2.1-3.5-3.2c-1-0.9-1.5-0.9-2.4,0.2c-0.4,0.5-0.9,0.9-1.4,1.3c-1.4,1.1-2.9,0.8-4-0.6c-0.6-0.9-1.1-1.8-1.7-2.7
			c-1.9,1.1-3.2,2.8-4.5,4.5c-0.6,0.8-1.2,1.6-1.8,2.5c-0.4,0.5-0.9,0.9-1.6,0.5c-0.6-0.3-0.8-0.8-0.5-1.7c0.2-0.6,0.4-1.2,0.7-2
			c-0.7,0.3-1.2,0.5-1.8,0.7c-2.2,0.8-4.4,1.7-6.7,2c-2.9,0.4-5.7,0.1-8.5-0.4c-1-0.2-2-0.2-3-0.1c-2.2,0.3-2.6,0-2.6-2.2
			c0-0.1,0-0.2,0-0.4c-0.6,0.2-1.1,0.3-1.6,0.5c-3.5,1.2-7,1.7-10.7,1.1c-1.8-0.3-3.1,0.5-4.3,1.8c-0.6,0.6-1.1,1.3-1.8,1.7
			c-1.4,0.9-2.8,0.3-2.9-1.1c0-0.3,0.1-0.7,0.2-1.1c0.6-1.8-0.1-3.3-1.2-4.7c-0.7-0.9-1.5-1.7-2.2-2.6c-1.7-2.4-2-5.2-1.5-8
			c0.6-4.3,2.4-8.1,5.4-11.2c3.1-3.2,6.8-5.3,11.5-5.1c2.4,0.1,4.2,1.8,4.6,4.1c0.4,2.6-0.2,5.1-0.9,7.6c-1.2,4.2-3.3,7.9-5.3,11.7
			c-0.5,0.9-0.9,1.7-1.3,2.6c-0.4,1.1,0,1.8,1.1,1.9c1,0.1,2.1,0.2,3.1,0.1c2.4-0.2,4.7-0.9,6.9-1.8c1-0.4,1.4-1,1.6-2
			c0.3-1.8,1.3-3.2,3.2-3.8c1-0.3,1.9-0.2,2.8,0.3c1.1,0.5,1.5,1.6,1.2,3c-0.3,1.2-0.6,2.4-1,3.6c-0.4,1.4-0.1,1.8,1.4,2
			c3.4,0.4,6.8,0.2,10-1.1c1.9-0.8,3.5-1.8,5.1-3.2c0.3-0.2,0.5-0.5,0.8-0.7c0.8-0.6,1.1-0.6,1.9,0.1
			C167.3,24.7,167.5,24.8,167.7,25z M126.3,25.2c0.1-0.1,0.1-0.1,0.2-0.1c3-4.6,5.5-9.5,7-14.8c0.5-1.8,0.9-3.6,0.6-5.5
			c-0.2-1.3-1-2.2-2.4-2.3c-1.8-0.2-3.5,0.2-5,1c-4.5,2.3-10.3,8.8-9.2,16.7c0.3,2.3,1.4,4.2,3.4,5.5c0.9,0.6,1.6,0.5,2.3-0.2
			c0.3-0.3,0.5-0.6,0.8-0.8c0.5-0.5,1-0.5,1.5,0C125.8,24.7,126,24.9,126.3,25.2z M144.5,23.8c0.7,0.3,1.4,0.6,2.1,1
			c-0.1-0.8,0.2-1.6-0.7-1.9C145.3,22.6,144.8,23.1,144.5,23.8z"/>
		<path class="st0" d="M15.2,71.6c-0.8-0.3-1-0.9-0.9-1.6c0.3-4.9,0.6-9.8,0.9-14.7c0.2-2.7,0.2-5.3,0.4-8c0-0.3,0-0.6,0-0.9
			c-0.2-1.5-0.9-2.1-2.3-1.6c-2.3,0.8-4.6,1.8-6.9,2.8C5.8,47.8,5.4,48,5,48.1c-0.6,0.2-1-0.1-1.3-0.6c-0.2-0.5-0.2-1,0.3-1.3
			c1.1-0.8,2.2-1.5,3.3-2.2c0.2-0.1,0.6-0.1,0.8-0.1c0.9-0.2,1.9-0.2,2.8-0.6c1.1-0.5,2.1-1.2,3.1-1.8c1.4-0.9,2-2.3,2.1-3.9
			c0.3-4.1,0.6-8.3,0.8-12.4c0.1-1.3,0.2-2.6,0.3-3.9c0.1-0.8,0.5-1,1.3-1c0.7,0,1,0.5,1,1.1c-0.1,2.7-0.3,5.4-0.4,8
			c-0.1,2.4-0.3,4.8-0.3,7.2c-0.1,2.3,0.8,2.9,2.9,2.1c4.6-1.7,9.1-3.6,13.7-5.1c6.4-2.1,12.9-4,19.3-6c0.5-0.1,1-0.1,1.5-0.1
			c0.5,0,0.9,0.2,1.4,0.3c0.3-0.5,0.6-1,0.9-1.5c1-1.4,2-1.3,2.9,0c0.6,0.9,1.3,1.8,1.9,2.6c0.3,0.3,0.6,0.6,0.9,0.9
			c1.5,1.4,3.3,1.6,5,0.6c1.3-0.7,2.4-1.7,3.6-2.6c0.1-0.1,0.2-0.4,0.2-0.6c0.9-3.2,2.3-6.1,4.8-8.5c0.9-0.8,1.8-1.5,3-1.7
			c1.4-0.2,2.4,0.6,2.5,2.1c0,1.8-0.5,3.4-1.5,4.9c-0.8,1.3-1.7,2.5-2.7,3.7c-0.6,0.8-1.3,0.8-1.8,0.4c-0.6-0.5-0.6-1.4-0.1-2.1
			c0.7-0.9,1.5-1.7,2-2.7c0.6-1,1-2.1,1.5-3.1c-0.1-0.1-0.2-0.2-0.4-0.2c-0.7,0.7-1.5,1.4-2.1,2.2c-1.5,1.9-2.5,4.1-3,6.5
			c-0.1,0.3-0.1,0.6-0.1,0.9c-0.1,1.9,0.3,2.2,2.3,1.8c1.6-0.3,3.1-0.9,4.5-1.5c5.6-2.4,10.7-5.6,15.7-9.1c0.5-0.3,0.8-0.9,1.2-1.3
			c1.1-1.1,2.2-2.2,3.8-2.4c1.3-0.2,2.3,0.7,2.4,2c0.1,1.7-0.4,3.2-1.3,4.6c-0.8,1.4-1.8,2.7-2.8,4c-0.7,0.9-1.4,0.9-1.9,0.4
			c-0.5-0.5-0.5-1.4,0.1-2.2c1-1.4,1.9-2.9,2.9-4.3c0.3-0.4,0.4-0.9,0.4-1.5c-0.3,0.2-0.6,0.3-0.8,0.5c-2.7,2.6-4.4,5.8-4.5,9.6
			c0,1,0.3,1.4,1.3,1.3c1.6-0.3,3.2-0.6,4.6-1.2c3.3-1.5,6.5-3.3,9.8-5c0.9-0.5,1.5-0.4,1.9,0.2c0.5,0.7,0.3,1.7-0.4,2.2
			c-4.2,2.5-8.5,4.9-13.2,6.3c-1.1,0.3-2.3,0.5-3.4,0.4c-1.8-0.1-3.1-1.8-3.1-3.9c0-1.2,0.3-2.4,0.5-3.7c0-0.2,0.1-0.4,0.2-0.7
			c-2.3,1.3-4.5,2.7-6.8,3.9c-3.1,1.7-6.3,3.3-9.8,4.1c-1,0.2-2,0.3-3,0.2c-1.7-0.3-2.5-1.5-2.9-3.3c-0.3,0.2-0.5,0.3-0.7,0.5
			c-1.5,1-3,1.9-4.9,1.9c-1.7,0.1-3.1-0.6-4.3-1.6c-0.5-0.5-1-1-1.5-1.5c-0.8-0.7-1.2-0.7-1.7,0.2c-0.9,1.5-1.6,3.1-2.5,4.7
			c-0.3,0.6-0.7,1.3-1.2,1.7c-0.3,0.3-1,0.4-1.4,0.3c-0.2,0-0.4-0.7-0.4-1.1c0.1-1.5,0.3-3,0.4-4.5c0-0.5,0.1-0.9,0.1-1.5
			c-1.6,0.5-3.2,0.9-4.7,1.4c-6.6,2.2-13.3,4.5-19.9,6.8c-2.2,0.8-4.4,1.5-6.6,2.3c-3.2,1.1-5,3.3-5.2,6.7
			c-0.2,3.8-0.4,7.6-0.7,11.4c-0.2,3.9-0.5,7.8-0.8,11.7c0,0.6-0.2,1.1-0.8,1.4C15.6,71.6,15.4,71.6,15.2,71.6z"/>
		<path class="st0" d="M0,26.4C0.3,26,0.6,25.5,0.8,25c1.3-2.7,3.6-4.5,6.1-6c5.5-3.3,11.3-5.7,17.5-7.1c4.1-0.9,8.3-1.2,12.5-1
			c2.2,0.1,4.4,0.9,6.4,1.9c1,0.6,1.8,1.6,2.5,2.5c0.4,0.5,0.3,1.1-0.3,1.5c-0.6,0.5-1.2,0.4-1.6-0.2c-2.1-3-5.4-3.5-8.7-3.6
			c-4.2-0.2-8.4,0.6-12.4,1.7c-5.5,1.5-10.8,3.5-15.5,6.7c-1.7,1.2-3.4,2.5-4.1,4.5c-0.1,0.1-0.2,0.3-0.2,0.4
			c-0.9,1.5-1.4,1.6-2.7,0.4c-0.1-0.1-0.2-0.1-0.3-0.2C0,26.6,0,26.5,0,26.4z"/>
	</g>
</g>
</svg>
