<?xml version="1.0" encoding="utf-8"?>
<!-- Generator: Adobe Illustrator 24.2.0, SVG Export Plug-In . SVG Version: 6.00 Build 0)  -->
<svg version="1.1" id="Layer_1" xmlns="http://www.w3.org/2000/svg" xmlns:xlink="http://www.w3.org/1999/xlink" x="0px" y="0px"
	 viewBox="0 0 250 80" style="enable-background:new 0 0 250 80;" xml:space="preserve">
<style type="text/css">
	.st0{fill:#0080FF;}
</style>
<path id="Caminho_1_1_" class="st0" d="M108.2,61.7c0-1.4,0.5-2,2.1-2c1.7,0,2.1,0.6,2.1,2v6.3c0,0.9,0.7,1.6,1.6,1.6l0,0
	c0.9,0,1.6-0.7,1.6-1.6v-6.3c0-1.4,0.4-2,2.2-2c1.7,0,2.1,0.6,2.1,2v6.3c0,0.9,0.7,1.6,1.6,1.6h0.1c0.9,0,1.6-0.7,1.6-1.6v-6.3
	c0-3.5-1.7-5.2-5.5-5.2c-1.4-0.1-2.7,0.4-3.6,1.4c-0.1,0.1-0.2,0.1-0.3,0c0,0,0,0,0,0c-0.9-1-2.3-1.6-3.7-1.4
	c-3.6,0-5.5,1.8-5.5,5.2v6.3c0,0.9,0.7,1.6,1.6,1.6h0.1c0.9,0,1.6-0.7,1.6-1.6L108.2,61.7L108.2,61.7z"/>
<path id="Caminho_2_1_" class="st0" d="M132.7,70c4,0,6.1-2,6.1-5.7v-2.1c0-3.8-1.9-5.7-6.1-5.7c-4,0-6.2,2-6.2,5.7v2.1
	C126.5,68.1,128.5,70,132.7,70 M135.4,64.3c0,1.8-0.6,2.6-2.8,2.6c-2.2,0-2.8-0.8-2.8-2.6v-2.1c0-1.8,0.6-2.5,2.8-2.5
	c2.2,0,2.8,0.8,2.8,2.5V64.3z"/>
<path id="Caminho_3_1_" class="st0" d="M145.3,61.7c0-1.4,0.5-2,2.5-2s2.4,0.6,2.4,2v6.3c0,0.9,0.7,1.6,1.6,1.6h0.1
	c0.9,0,1.6-0.7,1.6-1.6v-6.3c0-3.5-1.8-5.2-5.8-5.2c-3.9,0-5.9,1.8-5.9,5.2v6.3c0,0.9,0.7,1.6,1.6,1.6h0.1c0.9,0,1.6-0.7,1.6-1.6
	L145.3,61.7L145.3,61.7z"/>
<path id="Caminho_4_1_" class="st0" d="M160.1,61.4c0-1.3,0.9-2,2.5-2c1.7,0,2.6,0.6,2.6,2v0.2c0,0.1-0.1,0.2-0.2,0.2h0h-4.7
	c-0.1,0-0.2-0.1-0.2-0.2l0,0L160.1,61.4z M168.3,62.1c0-3.7-1.9-5.6-5.6-5.6c-4,0-6,1.9-6,5.8v2.1c0,3.9,2.1,5.6,6.7,5.6
	c1.1,0,2.1-0.1,3.1-0.3c1.1-0.3,1.4-0.5,1.4-1.7v-0.3c0-1.2-0.3-1.5-1.4-1.2c-1,0.2-2.1,0.3-3.1,0.4c-2.4,0-3.4-0.6-3.4-2v-0.2
	c0-0.1,0.1-0.2,0.2-0.2h0h6.3c1.2,0,1.5-0.3,1.7-1.4C168.3,62.8,168.3,62.4,168.3,62.1L168.3,62.1z"/>
<path id="Caminho_5_1_" class="st0" d="M174,58.3c-0.3-1.1-0.6-1.4-1.8-1.4h-0.6c-1.2,0-1.4,0.3-1.1,1.4l1.9,8.2
	c0.6,2.5,1.2,3.6,3.4,3.6c0.3,0,0.6,0,0.8,0c0.1,0,0.2,0.1,0.2,0.2c0,0,0,0.1,0,0.1c-0.4,1.2-1.4,2.2-2.7,2.4
	c-1.1,0.2-1.2,0.5-1,1.6l0,0.1c0.2,1.2,0.5,1.4,1.7,1.2c2.8-0.4,4.7-2,5.6-5.8l2.6-11.4c0.2-1.1,0-1.4-1.1-1.4h-0.6
	c-1.2,0-1.5,0.3-1.8,1.4l-1.7,7.8c-0.2,0.9-0.5,1.1-1,1.1c-0.8,0-1-0.1-1.2-1.1L174,58.3z"/>
<path id="Caminho_6_1_" class="st0" d="M187.2,64.5c0,3.7,2.1,5.5,6.3,5.5c0.6,0,1.2,0,1.7-0.2c1.1-0.2,1.4-0.5,1.4-1.7v-0.3
	c0-1.2-0.3-1.4-1.4-1.2c-0.5,0.1-1,0.1-1.6,0.1c-2.2,0-3.1-0.6-3.1-2.4v-2.3c0-1.9,0.8-2.4,2.8-2.4c0.5,0,1.1,0,1.6,0.2
	c1.1,0.2,1.4,0,1.4-1.2v-0.3c0-1.2-0.3-1.5-1.4-1.7c-0.5-0.1-1.1-0.2-1.7-0.2c-4,0-6.2,2.1-6.2,5.5L187.2,64.5L187.2,64.5z"/>
<path id="Caminho_7_1_" class="st0" d="M199.3,65.8c0,2.8,1.5,4.1,3.8,4.1c0.3,0,0.6,0,0.8,0c0.7-0.1,0.9-0.4,0.9-1.4V68
	c0-1-0.2-1.2-0.9-1.2h-0.1c-0.8,0-1.1-0.4-1.1-1.7V53.3c0-0.9-0.7-1.6-1.6-1.6h-0.1c-0.9,0-1.6,0.7-1.6,1.6L199.3,65.8L199.3,65.8z"
	/>
<path id="Caminho_8_1_" class="st0" d="M213.3,70c4,0,6.1-2,6.1-5.7v-2.1c0-3.8-1.9-5.7-6.1-5.7c-4,0-6.2,2-6.2,5.7v2.1
	C207.1,68.1,209.1,70,213.3,70 M216,64.3c0,1.8-0.6,2.6-2.8,2.6s-2.8-0.8-2.8-2.6v-2.1c0-1.8,0.6-2.5,2.8-2.5c2.2,0,2.8,0.8,2.8,2.5
	V64.3z"/>
<path id="Caminho_9_1_" class="st0" d="M226.1,58.5c0-0.9-0.7-1.6-1.6-1.6h-0.1c-0.9,0-1.6,0.7-1.6,1.6v6.3c0,3.4,2,5.2,5.9,5.2
	c4,0,5.8-1.7,5.8-5.2v-6.3c0-0.9-0.7-1.6-1.6-1.6h-0.1c-0.9,0-1.6,0.7-1.6,1.6v6.3c0,1.4-0.5,2-2.4,2c-2,0-2.5-0.6-2.5-2V58.5z"/>
<path id="Caminho_10_1_" class="st0" d="M241.1,62.2c0-1.8,0.6-2.6,2.8-2.6c2.2,0,2.8,0.8,2.8,2.6v2.1c0,1.8-0.6,2.6-2.8,2.6
	c-2.2,0-2.8-0.7-2.8-2.6V62.2z M250,53.3c0-0.9-0.7-1.6-1.6-1.6h-0.1c-0.9,0-1.6,0.7-1.6,1.6v4.2c0,0.1-0.1,0.2-0.2,0.2
	c0,0-0.1,0-0.1-0.1c-0.9-0.8-2-1.2-3.2-1.1c-3.5,0-5.4,2.1-5.4,5.8v2.1c0,3.8,2.1,5.6,6.2,5.6c3.7,0,6.1-1.8,6.1-5.6L250,53.3z"/>
<path id="Caminho_11_1_" class="st0" d="M82.8,70.2c-0.2,2-1.3,3.8-3.1,4.8l0,0c-0.1,0-0.1,0.1-0.2,0.1l0,0c-3.2,1.7-7,1.5-10-0.4
	c-0.5-0.3-0.9-0.7-1.3-1.1c0,0,0,0,0,0l-2.3-0.1l0,0c-0.8-0.1-1.7-0.4-2.4-0.7c-0.8-0.4-1.4-0.9-2-1.5c-0.6-0.6-1-1.3-1.3-2.1
	c-0.6-1.6-0.6-3.4,0.1-5c0.4-0.8,0.9-1.6,1.5-2.2c0.6-0.6,1.3-1,2-1.4c0.8-0.3,1.6-0.5,2.4-0.6c0,0,0.1,0,0.1,0
	c0.8,1.5,2,2.7,3.4,3.7c0.4,0.2,0.9,0.4,1.4,0.5C75.1,65.4,82.9,64,82.8,70.2"/>
<path id="Caminho_12_1_" class="st0" d="M78,51.9c0.6,0.2,1.2,0.5,1.8,0.9c1.3,0.8,2.3,2,3,3.4c0,0,0,0,0.1,0l0.2,0
	c0.1,0,0.3-0.1,0.4-0.1c0.2,0,0.4-0.1,0.7-0.1c0.2,0,0.5,0,0.7,0c1.1,0,2.1,0.2,3.1,0.6c1,0.4,1.9,0.9,2.7,1.6
	c0.7,0.6,1.3,1.3,1.8,2.2c0.4,0.7,0.7,1.5,0.9,2.4c0,0,0,0.1,0.1,0c0,0,0,0,0,0h0c0.2,0,0.3-0.1,0.5-0.1c0.2,0,0.3,0,0.5,0
	c0.7,0,1.4,0.1,2,0.4c0.7,0.3,1.2,0.7,1.7,1.2c1.5,1.5,2,3.8,1.2,5.8c-0.3,0.6-0.7,1.2-1.2,1.7c-1,1-2.4,1.6-3.8,1.6
	c-1.9,0-4.3,0-6.7,0h-0.1c-1.6,0-2.7,0-4.5,0c0,0-0.1,0-0.1-0.1c0,0,0,0,0,0c0.7-1,1-2.3,1-3.5c0-7.6-10.7-5.5-13.7-7.1
	c-0.3-0.1-0.5-0.3-0.7-0.4l0,0c-1.7-1-2.7-2.7-2.8-4.7c0-1.2,0.5-2.4,1.2-3.3c0.2-0.2,0.3-0.3,0.5-0.5c0.3-0.3,0.7-0.6,1.1-0.9
	C72.4,51.4,75.3,51,78,51.9"/>
<path id="Caminho_13_1_" class="st0" d="M74.8,52.4L74.8,52.4c-0.4,0-0.8-0.3-0.8-0.7v-0.6c0-0.4,0.3-0.7,0.7-0.7h0
	c0.4,0,0.7,0.3,0.7,0.7v0.6C75.6,52.1,75.2,52.4,74.8,52.4z"/>
<path id="Caminho_14_1_" class="st0" d="M74.8,77.3L74.8,77.3c-0.4,0-0.8-0.3-0.8-0.7v-0.6c0-0.4,0.3-0.7,0.7-0.7h0
	c0.4,0,0.7,0.3,0.7,0.7v0.6C75.6,76.9,75.2,77.3,74.8,77.3C74.8,77.3,74.8,77.3,74.8,77.3z"/>
<path class="st0" d="M189.3,16.4c-1.9-1.2-4.3-1.9-7.2-1.9c-2.1,0-4,0.4-5.6,1.3c-1.6,0.8-2.9,2-3.9,3.5c-0.2,0.4-0.4,0.7-0.6,1.1
	c-0.2-0.4-0.4-0.8-0.6-1.1c-0.9-1.5-2.2-2.6-3.8-3.5c-1.7-0.8-3.6-1.3-5.9-1.3c-2.8,0-5.2,0.6-7.1,1.9c-1.9,1.2-3.3,2.9-4.3,4.9
	c-1,2-1.4,4.3-1.4,6.8v13.8h7.6V29.3c0-1.4,0.2-2.6,0.6-3.7c0.4-1.1,1-2,1.9-2.7c0.9-0.7,2-1,3.4-1c1.4,0,2.5,0.3,3.4,1
	c0.9,0.7,1.5,1.5,1.9,2.7c0.4,1.1,0.6,2.4,0.6,3.8v12.6h7.6V29.2c0-1.4,0.2-2.6,0.6-3.7c0.4-1.1,1-2,1.9-2.7c0.9-0.7,2-1,3.4-1
	s2.5,0.3,3.4,1c0.9,0.7,1.5,1.6,1.9,2.7c0.4,1.1,0.6,2.4,0.6,3.8v12.6h7.6V28.1c0-2.5-0.5-4.8-1.5-6.8
	C192.6,19.3,191.2,17.6,189.3,16.4z"/>
<path class="st0" d="M107.8,17.2c-0.6-0.4-1.2-0.8-1.8-1.2c-1.6-0.9-3.4-1.3-5.3-1.3c-2.7,0-5.1,0.6-7.2,1.8
	c-2.1,1.2-3.7,2.8-4.9,4.9c-1.2,2.1-1.8,4.5-1.8,7.3c0,2.5,0.6,4.9,1.9,7c1.3,2.1,3,3.8,5.1,5.1c2.2,1.3,4.6,1.9,7.3,1.9
	c2.7,0,5.2-0.6,7.4-1.8c2.2-1.2,3.9-2.9,5.1-5c1.2-2.1,1.9-4.5,1.9-7.2V3.3h-7.6L107.8,17.2z M106.9,32.1c-0.6,1-1.4,1.9-2.4,2.5
	c-1,0.6-2.2,0.9-3.5,0.9c-1.3,0-2.4-0.3-3.4-0.9c-1-0.6-1.8-1.5-2.4-2.5c-0.6-1-0.9-2.2-0.9-3.4c0-1.2,0.3-2.4,0.9-3.4
	c0.6-1.1,1.4-1.9,2.4-2.5c1-0.6,2.2-0.9,3.4-0.9c1.3,0,2.5,0.3,3.5,0.9c1,0.6,1.8,1.4,2.4,2.5c0.6,1.1,0.9,2.2,0.9,3.4
	C107.8,29.9,107.5,31,106.9,32.1z"/>
<path class="st0" d="M139.4,16.6c-2.2-1.3-4.6-1.9-7.3-1.9c-2.7,0-5.1,0.6-7.3,1.9c-2.2,1.3-3.9,2.9-5.2,5c-1.3,2.1-1.9,4.4-1.9,7
	c0,2.6,0.6,4.9,1.9,7c1.3,2.1,3,3.8,5.1,5.1c2.2,1.3,4.6,1.9,7.3,1.9c2.7,0,5.1-0.6,7.3-1.9c2.2-1.3,3.9-3,5.2-5.1
	c1.3-2.1,1.9-4.5,1.9-7c0-2.5-0.6-4.9-1.9-7C143.3,19.5,141.5,17.8,139.4,16.6z M138,32.1c-0.6,1-1.4,1.9-2.4,2.5
	c-1,0.6-2.2,0.9-3.5,0.9c-1.3,0-2.4-0.3-3.4-0.9c-1-0.6-1.8-1.5-2.4-2.5c-0.6-1-0.9-2.2-0.9-3.4c0-1.2,0.3-2.4,0.9-3.4
	c0.6-1,1.4-1.9,2.4-2.5c1-0.6,2.2-0.9,3.4-0.9c1.3,0,2.5,0.3,3.5,0.9c1,0.6,1.8,1.5,2.4,2.5c0.6,1,0.9,2.2,0.9,3.4
	C138.8,29.9,138.5,31,138,32.1z"/>
<path class="st0" d="M49.4,16.3c-1.9-1.2-4.3-1.8-7.1-1.8c-2.7,0-5,0.6-7.1,1.9c-2,1.2-3.6,2.9-4.8,5c-1.1,2.1-1.7,4.4-1.7,6.9
	c0,2.8,0.6,5.2,1.8,7.3c1.2,2.1,2.9,3.7,5.1,4.9c2.2,1.2,4.6,1.8,7.3,1.8c2.8,0,5.2-0.6,7.3-1.9c2.1-1.3,3.7-3.1,4.8-5.5L49.4,32
	c-0.6,1.2-1.5,2.1-2.6,2.8c-1.1,0.7-2.4,1-3.8,1c-1.5,0-2.8-0.3-3.8-1c-1.1-0.7-1.9-1.6-2.5-2.7c-0.3-0.7-0.5-1.4-0.7-2.1h19.4v-2.2
	c0-2.4-0.5-4.6-1.6-6.6C52.8,19.1,51.3,17.5,49.4,16.3z M36.8,24.4c0.2-0.4,0.4-0.7,0.6-1.1c0.5-0.7,1.2-1.3,2-1.7
	c0.8-0.4,1.8-0.6,2.9-0.6c1.1,0,2,0.2,2.8,0.6c0.8,0.4,1.5,1,2,1.7c0.2,0.3,0.4,0.7,0.6,1.1H36.8z"/>
<path class="st0" d="M27.6,14.9c-0.5-0.1-1.1-0.1-1.7-0.1c-2.6,0-4.8,0.5-6.5,1.6c-1.7,1.1-3,2.5-3.9,4.3c-0.9,1.8-1.3,3.8-1.3,6.1
	v15.2h7.6V27c0-1.6,0.4-2.8,1.3-3.7c0.9-0.9,2-1.4,3.5-1.4c0.3,0,0.6,0,1,0.1V14.9z"/>
<path class="st0" d="M12.4,9.9l4.1,0V2.8c0,0-4.7,0-4.8,0c-2.6,0-4.8,0.5-6.5,1.6c-1.7,1.1-3,2.5-3.9,4.3C0.4,10.4,0,12.4,0,14.7
	v0.1v6.4v20.8h7.6V21.1h5.3v-6.4H7.6c0-1.5,0.5-2.6,1.3-3.5C9.7,10.4,10.9,9.9,12.4,9.9z"/>
<path class="st0" d="M78.3,16.3c-1.9-1.2-4.3-1.8-7.1-1.8c-2.7,0-5,0.6-7.1,1.9c-2,1.2-3.6,2.9-4.8,5c-1.1,2.1-1.7,4.4-1.7,6.9
	c0,2.8,0.6,5.2,1.8,7.3c1.2,2.1,2.9,3.7,5.1,4.9c2.2,1.2,4.6,1.8,7.3,1.8c2.8,0,5.2-0.6,7.3-1.9c2.1-1.3,3.7-3.1,4.8-5.5L78.3,32
	c-0.6,1.2-1.5,2.1-2.6,2.8c-1.1,0.7-2.4,1-3.8,1c-1.5,0-2.8-0.3-3.8-1c-1.1-0.7-1.9-1.6-2.5-2.7c-0.3-0.7-0.5-1.4-0.7-2.1h19.4v-2.2
	c0-2.4-0.5-4.6-1.6-6.6C81.8,19.1,80.3,17.5,78.3,16.3z M65.7,24.4c0.2-0.4,0.4-0.7,0.6-1.1c0.5-0.7,1.2-1.3,2-1.7
	c0.8-0.4,1.8-0.6,2.9-0.6c1.1,0,2,0.2,2.8,0.6c0.8,0.4,1.5,1,2,1.7c0.2,0.3,0.4,0.7,0.6,1.1H65.7z"/>
<path class="st0" d="M250,13.8V7.2h-17.2c-2.3,0-3.9,0.6-4.9,1.7c-0.8,0.9-1.2,1.9-1.4,3.2c0,0.1-0.1,23.9-0.1,23.9
	c0,1.9,0.5,3.5,1.5,4.6c1,1.1,2.7,1.7,4.9,1.7H250v-6.7h-16.2v-8.1h9.9V22h-9.9v-8.1H250z"/>
<path class="st0" d="M218,16.3c-1.9-1.2-4.3-1.8-7.1-1.8c-2.7,0-5,0.6-7.1,1.9c-2,1.2-3.6,2.9-4.8,5c-1.1,2.1-1.7,4.4-1.7,6.9
	c0,2.8,0.6,5.2,1.8,7.3c1.2,2.1,2.9,3.7,5.1,4.9c2.2,1.2,4.6,1.8,7.3,1.8c2.8,0,5.2-0.6,7.3-1.9c2.1-1.3,3.7-3.1,4.8-5.5L218,32
	c-0.6,1.2-1.5,2.1-2.6,2.8c-1.1,0.7-2.4,1-3.8,1c-1.5,0-2.8-0.3-3.8-1c-1.1-0.7-1.9-1.6-2.5-2.7c-0.3-0.7-0.5-1.4-0.7-2.1h19.4v-2.2
	c0-2.4-0.5-4.6-1.6-6.6C221.5,19.1,220,17.5,218,16.3z M205.4,24.4c0.2-0.4,0.4-0.7,0.6-1.1c0.5-0.7,1.2-1.3,2-1.7
	c0.8-0.4,1.8-0.6,2.9-0.6c1.1,0,2,0.2,2.8,0.6c0.8,0.4,1.5,1,2,1.7c0.2,0.3,0.4,0.7,0.6,1.1H205.4z"/>
</svg>
