<?xml version="1.0" encoding="utf-8"?>
<!-- Generator: Adobe Illustrator 24.2.0, SVG Export Plug-In . SVG Version: 6.00 Build 0)  -->
<svg version="1.1" id="Layer_1" xmlns="http://www.w3.org/2000/svg" xmlns:xlink="http://www.w3.org/1999/xlink" x="0px" y="0px"
	 viewBox="0 0 153 58" style="enable-background:new 0 0 153 58;" xml:space="preserve">
<style type="text/css">
	.st0{fill:#C4C4C4;}
	.st1{fill:#009CDE;}
	.st2{fill:#003087;}
	.st3{fill:#FFFFFF;}
	.st4{fill:#F58220;}
	.st5{clip-path:url(#SVGID_2_);fill:#F48120;}
	.st6{clip-path:url(#SVGID_2_);fill:#F48221;}
	.st7{clip-path:url(#SVGID_2_);fill:#F48323;}
	.st8{clip-path:url(#SVGID_2_);fill:#F48324;}
	.st9{clip-path:url(#SVGID_2_);fill:#F48425;}
	.st10{clip-path:url(#SVGID_2_);fill:#F48527;}
	.st11{clip-path:url(#SVGID_2_);fill:#F48628;}
	.st12{clip-path:url(#SVGID_2_);fill:#F58629;}
	.st13{clip-path:url(#SVGID_2_);fill:#F5872B;}
	.st14{clip-path:url(#SVGID_2_);fill:#F5882C;}
	.st15{clip-path:url(#SVGID_2_);fill:#F5892E;}
	.st16{clip-path:url(#SVGID_2_);fill:#F5892F;}
	.st17{clip-path:url(#SVGID_2_);fill:#F58A30;}
	.st18{clip-path:url(#SVGID_2_);fill:#F58B32;}
	.st19{clip-path:url(#SVGID_2_);fill:#F58C33;}
	.st20{clip-path:url(#SVGID_2_);fill:#F58C34;}
	.st21{clip-path:url(#SVGID_2_);fill:#F58D35;}
	.st22{clip-path:url(#SVGID_2_);fill:#F58E37;}
	.st23{clip-path:url(#SVGID_2_);fill:#F58F38;}
	.st24{clip-path:url(#SVGID_2_);fill:#F58F39;}
	.st25{clip-path:url(#SVGID_2_);fill:#F6903B;}
	.st26{clip-path:url(#SVGID_2_);fill:#F6913C;}
	.st27{clip-path:url(#SVGID_2_);fill:#F6923D;}
	.st28{clip-path:url(#SVGID_2_);fill:#F6923F;}
	.st29{clip-path:url(#SVGID_2_);fill:#F69340;}
	.st30{clip-path:url(#SVGID_2_);fill:#F69441;}
	.st31{clip-path:url(#SVGID_2_);fill:#F69543;}
	.st32{clip-path:url(#SVGID_2_);fill:#F69544;}
	.st33{clip-path:url(#SVGID_2_);fill:#F69645;}
	.st34{clip-path:url(#SVGID_2_);fill:#F69746;}
	.st35{clip-path:url(#SVGID_2_);fill:#F69848;}
	.st36{clip-path:url(#SVGID_2_);fill:#F69849;}
	.st37{clip-path:url(#SVGID_2_);fill:#F6994A;}
	.st38{clip-path:url(#SVGID_2_);fill:#F69A4C;}
	.st39{clip-path:url(#SVGID_2_);fill:#F79A4D;}
	.st40{clip-path:url(#SVGID_2_);fill:#F79B4E;}
	.st41{clip-path:url(#SVGID_2_);fill:#F79C4F;}
	.st42{clip-path:url(#SVGID_2_);fill:#F79D51;}
	.st43{clip-path:url(#SVGID_2_);fill:#F79D52;}
	.st44{clip-path:url(#SVGID_2_);fill:#F79E53;}
	.st45{clip-path:url(#SVGID_2_);fill:#F79F54;}
	.st46{clip-path:url(#SVGID_2_);fill:#F79F56;}
	.st47{clip-path:url(#SVGID_2_);fill:#F7A057;}
	.st48{clip-path:url(#SVGID_2_);fill:#F7A158;}
	.st49{clip-path:url(#SVGID_2_);fill:#F7A259;}
	.st50{clip-path:url(#SVGID_2_);fill:#F7A25B;}
	.st51{clip-path:url(#SVGID_2_);fill:#F7A35C;}
	.st52{clip-path:url(#SVGID_2_);fill:#F8A45D;}
	.st53{clip-path:url(#SVGID_2_);fill:#F8A45E;}
	.st54{clip-path:url(#SVGID_2_);fill:#F8A560;}
	.st55{clip-path:url(#SVGID_2_);fill:#F8A661;}
	.st56{clip-path:url(#SVGID_2_);fill:#F8A662;}
	.st57{clip-path:url(#SVGID_2_);fill:#F8A763;}
	.st58{clip-path:url(#SVGID_2_);fill:#F8A864;}
	.st59{clip-path:url(#SVGID_2_);fill:#F8A966;}
	.st60{clip-path:url(#SVGID_2_);fill:#F8A967;}
	.st61{clip-path:url(#SVGID_2_);fill:#F8AA68;}
	.st62{clip-path:url(#SVGID_2_);fill:#F8AB69;}
	.st63{clip-path:url(#SVGID_2_);fill:#F8AB6B;}
	.st64{clip-path:url(#SVGID_2_);fill:#F8AC6C;}
	.st65{clip-path:url(#SVGID_2_);fill:#F8AD6D;}
	.st66{clip-path:url(#SVGID_2_);fill:#F8AD6E;}
	.st67{clip-path:url(#SVGID_2_);fill:#F9AE6F;}
	.st68{clip-path:url(#SVGID_2_);fill:#F9AF70;}
	.st69{clip-path:url(#SVGID_2_);fill:#F9AF72;}
	.st70{clip-path:url(#SVGID_2_);fill:#F9B073;}
	.st71{clip-path:url(#SVGID_2_);fill:#F9B174;}
	.st72{clip-path:url(#SVGID_2_);fill:#F9B175;}
	.st73{clip-path:url(#SVGID_2_);fill:#F9B276;}
	.st74{clip-path:url(#SVGID_2_);fill:#F9B377;}
	.st75{clip-path:url(#SVGID_2_);fill:#F9B379;}
	.st76{clip-path:url(#SVGID_2_);fill:#F9B47A;}
	.st77{clip-path:url(#SVGID_2_);fill:#F9B57B;}
	.st78{clip-path:url(#SVGID_2_);fill:#F9B57C;}
	.st79{clip-path:url(#SVGID_2_);fill:#F9B67D;}
	.st80{clip-path:url(#SVGID_2_);fill:#F9B77E;}
	.st81{clip-path:url(#SVGID_2_);fill:#F9B780;}
	.st82{clip-path:url(#SVGID_2_);fill:#FAB881;}
	.st83{clip-path:url(#SVGID_2_);fill:#FAB982;}
	.st84{clip-path:url(#SVGID_2_);fill:#FAB983;}
	.st85{clip-path:url(#SVGID_2_);fill:#FABA84;}
	.st86{clip-path:url(#SVGID_2_);fill:#FABA85;}
	.st87{clip-path:url(#SVGID_2_);fill:#FABB86;}
	.st88{clip-path:url(#SVGID_2_);fill:#FABC87;}
	.st89{clip-path:url(#SVGID_2_);fill:#FABC89;}
	.st90{clip-path:url(#SVGID_2_);fill:#FABD8A;}
	.st91{clip-path:url(#SVGID_2_);fill:#FABE8B;}
	.st92{clip-path:url(#SVGID_2_);fill:#FABE8C;}
	.st93{clip-path:url(#SVGID_2_);fill:#FABF8D;}
	.st94{clip-path:url(#SVGID_2_);fill:#FABF8E;}
	.st95{clip-path:url(#SVGID_2_);fill:#FAC08F;}
	.st96{clip-path:url(#SVGID_2_);fill:#FAC190;}
	.st97{clip-path:url(#SVGID_2_);fill:#FAC191;}
	.st98{clip-path:url(#SVGID_2_);fill:#FBC292;}
	.st99{clip-path:url(#SVGID_2_);fill:#FBC393;}
	.st100{clip-path:url(#SVGID_2_);fill:#FBC395;}
	.st101{clip-path:url(#SVGID_2_);fill:#FBC496;}
	.st102{clip-path:url(#SVGID_2_);fill:#FBC497;}
	.st103{clip-path:url(#SVGID_2_);fill:#FBC598;}
	.st104{clip-path:url(#SVGID_2_);fill:#FBC699;}
	.st105{clip-path:url(#SVGID_2_);fill:#FBC69A;}
	.st106{clip-path:url(#SVGID_2_);fill:#FBC79B;}
	.st107{clip-path:url(#SVGID_2_);fill:#FBC79C;}
	.st108{clip-path:url(#SVGID_2_);fill:#FBC89D;}
	.st109{clip-path:url(#SVGID_2_);fill:#FBC99E;}
	.st110{clip-path:url(#SVGID_2_);fill:#FBC99F;}
	.st111{clip-path:url(#SVGID_2_);fill:#FBCAA0;}
	.st112{clip-path:url(#SVGID_2_);fill:#FBCAA1;}
	.st113{clip-path:url(#SVGID_2_);fill:#FBCBA2;}
	.st114{clip-path:url(#SVGID_2_);fill:#FCCBA3;}
	.st115{clip-path:url(#SVGID_2_);fill:#FCCCA4;}
	.st116{clip-path:url(#SVGID_2_);fill:#FCCDA5;}
	.st117{clip-path:url(#SVGID_2_);fill:#FCCDA6;}
	.st118{clip-path:url(#SVGID_2_);fill:#FCCEA7;}
	.st119{clip-path:url(#SVGID_2_);fill:#FCCEA8;}
	.st120{clip-path:url(#SVGID_2_);fill:#FCCFA9;}
	.st121{clip-path:url(#SVGID_2_);fill:#FCCFAA;}
	.st122{clip-path:url(#SVGID_2_);fill:#FCD0AB;}
	.st123{clip-path:url(#SVGID_2_);fill:#FCD0AC;}
	.st124{clip-path:url(#SVGID_2_);fill:#FCD1AD;}
	.st125{clip-path:url(#SVGID_2_);fill:#FCD2AE;}
	.st126{clip-path:url(#SVGID_2_);fill:#FCD2AF;}
	.st127{clip-path:url(#SVGID_2_);fill:#FCD3B0;}
	.st128{clip-path:url(#SVGID_2_);fill:#FCD3B1;}
	.st129{clip-path:url(#SVGID_2_);fill:#FCD4B2;}
	.st130{clip-path:url(#SVGID_2_);fill:#FCD4B3;}
	.st131{clip-path:url(#SVGID_2_);fill:#FCD5B4;}
	.st132{clip-path:url(#SVGID_2_);fill:#FDD5B4;}
	.st133{clip-path:url(#SVGID_2_);fill:#FDD6B5;}
	.st134{clip-path:url(#SVGID_2_);fill:#FDD6B6;}
	.st135{clip-path:url(#SVGID_2_);fill:#FDD7B7;}
	.st136{clip-path:url(#SVGID_2_);fill:#FDD7B8;}
	.st137{clip-path:url(#SVGID_2_);fill:#FDD8B9;}
	.st138{clip-path:url(#SVGID_2_);fill:#FDD8BA;}
	.st139{clip-path:url(#SVGID_2_);fill:#FDD9BB;}
	.st140{clip-path:url(#SVGID_2_);fill:#FDD9BC;}
	.st141{clip-path:url(#SVGID_2_);fill:#FDDABD;}
	.st142{clip-path:url(#SVGID_2_);fill:#FDDBBE;}
	.st143{clip-path:url(#SVGID_2_);fill:#FDDBBF;}
	.st144{clip-path:url(#SVGID_2_);fill:#FDDCC0;}
	.st145{clip-path:url(#SVGID_2_);fill:#FDDCC1;}
	.st146{clip-path:url(#SVGID_2_);fill:#FDDDC2;}
	.st147{clip-path:url(#SVGID_2_);fill:#FDDDC3;}
	.st148{clip-path:url(#SVGID_2_);fill:#FDDEC3;}
	.st149{clip-path:url(#SVGID_2_);fill:#FDDEC4;}
	.st150{clip-path:url(#SVGID_2_);fill:#FDDFC5;}
	.st151{clip-path:url(#SVGID_2_);fill:#FDDFC6;}
	.st152{clip-path:url(#SVGID_2_);fill:#FEE0C7;}
	.st153{clip-path:url(#SVGID_2_);fill:#FEE0C8;}
	.st154{clip-path:url(#SVGID_2_);fill:#FEE1C9;}
	.st155{clip-path:url(#SVGID_2_);fill:#FEE1CA;}
	.st156{clip-path:url(#SVGID_2_);fill:#FEE2CB;}
	.st157{clip-path:url(#SVGID_2_);fill:#FEE3CC;}
	.st158{clip-path:url(#SVGID_2_);fill:#FEE3CD;}
	.st159{clip-path:url(#SVGID_2_);fill:#FEE4CE;}
	.st160{clip-path:url(#SVGID_2_);fill:#FEE4CF;}
	.st161{clip-path:url(#SVGID_2_);fill:#FEE5D0;}
	.st162{clip-path:url(#SVGID_2_);fill:#FEE6D1;}
	.st163{clip-path:url(#SVGID_2_);fill:#FEE6D2;}
	.st164{clip-path:url(#SVGID_2_);fill:#FEE7D3;}
	.st165{clip-path:url(#SVGID_2_);fill:#FEE7D4;}
	.st166{clip-path:url(#SVGID_2_);fill:#FEE8D5;}
	.st167{clip-path:url(#SVGID_2_);fill:#FEE8D6;}
	.st168{clip-path:url(#SVGID_2_);fill:#FEE9D6;}
	.st169{clip-path:url(#SVGID_2_);fill:#FEE9D7;}
	.st170{clip-path:url(#SVGID_2_);fill:#FFE9D8;}
	.st171{clip-path:url(#SVGID_2_);fill:#FFEAD8;}
	.st172{clip-path:url(#SVGID_2_);fill:#FFEAD9;}
	.st173{clip-path:url(#SVGID_2_);fill:#FFEBDA;}
	.st174{clip-path:url(#SVGID_2_);fill:#FFEBDB;}
	.st175{clip-path:url(#SVGID_2_);fill:#FFEBDC;}
	.st176{clip-path:url(#SVGID_2_);fill:#FFECDC;}
	.st177{clip-path:url(#SVGID_2_);fill:#FFECDD;}
	.st178{clip-path:url(#SVGID_2_);fill:#FFEDDD;}
	.st179{clip-path:url(#SVGID_2_);fill:#FFEDDE;}
	.st180{clip-path:url(#SVGID_2_);fill:#FFEDDF;}
	.st181{clip-path:url(#SVGID_2_);fill:#FFEEDF;}
	.st182{clip-path:url(#SVGID_2_);fill:#FFEEE0;}
	.st183{fill:#001722;}
	.st184{fill:#231F20;}
	.st185{fill:#016FD0;}
	.st186{fill:#0066B2;}
	.st187{fill:#F9A533;}
	.st188{fill-rule:evenodd;clip-rule:evenodd;fill:#003473;}
	.st189{fill-rule:evenodd;clip-rule:evenodd;fill:#FCB131;}
	.st190{fill-rule:evenodd;clip-rule:evenodd;fill:#ED1C2E;}
	.st191{fill-rule:evenodd;clip-rule:evenodd;fill:#FFFFFF;}
</style>
<g>
	<path class="st0" d="M145.6,16.7H124v0.7h21.6c3.6,0,6.6,3,6.6,6.6v25.8c0,3.6-3,6.6-6.6,6.6H7.3c-3.6,0-6.6-3-6.6-6.6V24
		c0-3.6,3-6.6,6.6-6.6h4.9v-0.7H7.3C3.3,16.7,0,20,0,24v25.8c0,4,3.3,7.3,7.3,7.3h138.3c4,0,7.3-3.3,7.3-7.3V24
		C152.8,20,149.6,16.7,145.6,16.7z"/>
</g>
<g>
	<path class="st1" d="M87.1,7.6c-0.4,2.9-2.7,2.9-4.8,2.9h-1.2l0.9-5.4c0.1-0.3,0.3-0.6,0.7-0.6h0.6c1.5,0,2.9,0,3.6,0.8
		C87.2,5.8,87.3,6.6,87.1,7.6 M86.2,0h-8.1c-0.6,0-1,0.4-1.1,1l-3.3,20.8c-0.1,0.4,0.3,0.8,0.7,0.8h4.2c0.4,0,0.7-0.3,0.8-0.7
		l0.9-5.9c0.1-0.5,0.6-1,1.1-1h2.6c5.4,0,8.4-2.6,9.2-7.7c0.4-2.2,0-4-1-5.2C91,0.7,88.9,0,86.2,0"/>
</g>
<g>
	<path class="st1" d="M105.1,15.1c-0.4,2.2-2.1,3.7-4.4,3.7c-1.1,0-2-0.4-2.6-1.1c-0.6-0.7-0.8-1.7-0.6-2.7c0.3-2.2,2.1-3.7,4.4-3.7
		c1.1,0,2,0.4,2.6,1.1C105,13,105.2,14,105.1,15.1 M110.5,7.5h-3.9c-0.3,0-0.6,0.2-0.7,0.6l-0.2,1.1l-0.3-0.4
		c-0.8-1.2-2.7-1.6-4.6-1.6c-4.3,0-8,3.3-8.7,7.8c-0.4,2.3,0.2,4.5,1.4,6c1.2,1.4,2.9,2,4.9,2c3.5,0,5.4-2.2,5.4-2.2l-0.2,1.1
		c-0.1,0.4,0.3,0.8,0.7,0.8h3.5c0.6,0,1-0.4,1.1-1l2.1-13.3C111.2,7.9,110.9,7.5,110.5,7.5"/>
</g>
<g id="XMLID_11_">
	<path class="st1" d="M115.1,0.6l-3.3,21.2c-0.1,0.4,0.3,0.8,0.7,0.8h3.4c0.6,0,1-0.4,1.1-1l3.3-20.8c0.1-0.4-0.3-0.8-0.7-0.8h-3.8
		C115.4,0,115.1,0.2,115.1,0.6"/>
</g>
<g>
	<path class="st2" d="M29.2,7.6c-0.4,2.9-2.7,2.9-4.8,2.9h-1.2L24,5.1c0.1-0.3,0.3-0.6,0.7-0.6h0.6c1.5,0,2.9,0,3.6,0.8
		C29.2,5.8,29.3,6.6,29.2,7.6 M28.2,0h-8.1c-0.6,0-1,0.4-1.1,1l-3.3,20.8c-0.1,0.4,0.3,0.8,0.7,0.8h3.9c0.6,0,1-0.4,1.1-1l0.9-5.6
		c0.1-0.5,0.6-1,1.1-1H26c5.4,0,8.4-2.6,9.2-7.7c0.4-2.2,0-4-1-5.2C33,0.7,31,0,28.2,0"/>
</g>
<g>
	<path class="st2" d="M47.1,15.1c-0.4,2.2-2.1,3.7-4.4,3.7c-1.1,0-2-0.4-2.6-1.1c-0.6-0.7-0.8-1.7-0.6-2.7c0.3-2.2,2.1-3.7,4.4-3.7
		c1.1,0,2,0.4,2.6,1.1C47,13,47.3,14,47.1,15.1 M52.5,7.5h-3.9c-0.3,0-0.6,0.2-0.7,0.6l-0.2,1.1l-0.3-0.4c-0.8-1.2-2.7-1.6-4.6-1.6
		c-4.3,0-8,3.3-8.7,7.8c-0.4,2.3,0.2,4.5,1.4,6c1.2,1.4,2.9,2,4.9,2c3.5,0,5.4-2.2,5.4-2.2l-0.2,1.1c-0.1,0.4,0.3,0.8,0.7,0.8H50
		c0.6,0,1-0.4,1.1-1l2.1-13.3C53.3,7.9,52.9,7.5,52.5,7.5"/>
</g>
<g id="XMLID_1_">
	<path class="st2" d="M73.3,7.5h-3.9c-0.4,0-0.7,0.2-0.9,0.5L63,16l-2.3-7.6c-0.1-0.5-0.6-0.8-1.1-0.8h-3.8c-0.5,0-0.8,0.5-0.6,0.9
		l4.3,12.6l-4,5.7c-0.3,0.4,0,1.1,0.6,1.1h3.9c0.4,0,0.7-0.2,0.9-0.5l13-18.8C74.1,8.1,73.8,7.5,73.3,7.5"/>
</g>
<g>
	<polygon class="st3" points="113.9,31.3 148.7,31.3 148.7,53.6 113.9,53.6 113.9,31.3 	"/>
</g>
<g>
	<path class="st4" d="M148.7,43.9c0,0-9.4,6.7-26.7,9.6h26.7V43.9z"/>
</g>
<g>
	<g>
		<defs>
			<path id="SVGID_1_" d="M132.1,37c-1.4,0-2.6,1.1-2.6,2.5c0,1.5,1.1,2.5,2.6,2.5c1.4,0,2.6-1.1,2.6-2.5
				C134.6,38.1,133.5,37,132.1,37z"/>
		</defs>
		<clipPath id="SVGID_2_">
			<use xlink:href="#SVGID_1_"  style="overflow:visible;"/>
		</clipPath>
		<rect x="129.5" y="37" class="st5" width="5.1" height="5"/>
		<circle class="st5" cx="132.1" cy="39.5" r="2.5"/>
		<circle class="st6" cx="132.1" cy="39.5" r="2.5"/>
		<circle class="st7" cx="132.1" cy="39.5" r="2.5"/>
		<circle class="st8" cx="132.1" cy="39.5" r="2.5"/>
		<circle class="st9" cx="132.1" cy="39.5" r="2.5"/>
		<circle class="st10" cx="132.1" cy="39.5" r="2.5"/>
		<circle class="st11" cx="132.1" cy="39.5" r="2.5"/>
		<circle class="st12" cx="132.1" cy="39.5" r="2.4"/>
		<circle class="st13" cx="132.1" cy="39.5" r="2.4"/>
		<circle class="st14" cx="132.1" cy="39.5" r="2.4"/>
		<circle class="st15" cx="132.1" cy="39.5" r="2.4"/>
		<circle class="st16" cx="132.1" cy="39.5" r="2.4"/>
		<circle class="st17" cx="132.1" cy="39.5" r="2.4"/>
		<circle class="st18" cx="132.1" cy="39.5" r="2.4"/>
		<circle class="st19" cx="132.1" cy="39.5" r="2.4"/>
		<circle class="st20" cx="132.1" cy="39.5" r="2.3"/>
		<circle class="st21" cx="132.1" cy="39.5" r="2.3"/>
		<circle class="st22" cx="132.1" cy="39.5" r="2.3"/>
		<circle class="st23" cx="132.1" cy="39.5" r="2.3"/>
		<circle class="st24" cx="132.1" cy="39.5" r="2.3"/>
		<circle class="st25" cx="132.1" cy="39.5" r="2.3"/>
		<circle class="st26" cx="132.1" cy="39.5" r="2.3"/>
		<circle class="st27" cx="132.1" cy="39.5" r="2.2"/>
		<circle class="st28" cx="132.1" cy="39.5" r="2.2"/>
		<circle class="st29" cx="132.1" cy="39.5" r="2.2"/>
		<circle class="st30" cx="132.1" cy="39.5" r="2.2"/>
		<circle class="st31" cx="132.1" cy="39.5" r="2.2"/>
		<circle class="st32" cx="132.1" cy="39.5" r="2.2"/>
		<circle class="st33" cx="132.1" cy="39.5" r="2.2"/>
		<circle class="st34" cx="132.1" cy="39.5" r="2.2"/>
		<circle class="st35" cx="132.1" cy="39.5" r="2.1"/>
		<circle class="st36" cx="132.1" cy="39.5" r="2.1"/>
		<circle class="st37" cx="132.1" cy="39.5" r="2.1"/>
		<circle class="st38" cx="132.1" cy="39.5" r="2.1"/>
		<circle class="st39" cx="132.1" cy="39.5" r="2.1"/>
		<circle class="st40" cx="132.1" cy="39.5" r="2.1"/>
		<circle class="st41" cx="132.1" cy="39.5" r="2.1"/>
		<circle class="st42" cx="132.1" cy="39.5" r="2.1"/>
		<circle class="st43" cx="132.1" cy="39.5" r="2"/>
		<circle class="st44" cx="132.1" cy="39.5" r="2"/>
		<circle class="st45" cx="132.1" cy="39.5" r="2"/>
		<circle class="st46" cx="132.1" cy="39.5" r="2"/>
		<circle class="st47" cx="132.1" cy="39.5" r="2"/>
		<circle class="st48" cx="132.1" cy="39.5" r="2"/>
		<circle class="st49" cx="132.1" cy="39.5" r="2"/>
		<circle class="st50" cx="132.1" cy="39.5" r="1.9"/>
		<circle class="st51" cx="132.1" cy="39.5" r="1.9"/>
		<circle class="st52" cx="132.1" cy="39.5" r="1.9"/>
		<circle class="st53" cx="132.1" cy="39.5" r="1.9"/>
		<circle class="st54" cx="132.1" cy="39.5" r="1.9"/>
		<circle class="st55" cx="132.1" cy="39.5" r="1.9"/>
		<circle class="st56" cx="132.1" cy="39.5" r="1.9"/>
		<circle class="st57" cx="132.1" cy="39.5" r="1.9"/>
		<circle class="st58" cx="132.1" cy="39.5" r="1.8"/>
		<circle class="st59" cx="132.1" cy="39.5" r="1.8"/>
		<circle class="st60" cx="132.1" cy="39.5" r="1.8"/>
		<circle class="st61" cx="132.1" cy="39.5" r="1.8"/>
		<circle class="st62" cx="132.1" cy="39.5" r="1.8"/>
		<circle class="st63" cx="132.1" cy="39.5" r="1.8"/>
		<circle class="st64" cx="132.1" cy="39.5" r="1.8"/>
		<circle class="st65" cx="132.1" cy="39.5" r="1.7"/>
		<circle class="st66" cx="132.1" cy="39.5" r="1.7"/>
		<circle class="st67" cx="132.1" cy="39.5" r="1.7"/>
		<circle class="st68" cx="132.1" cy="39.5" r="1.7"/>
		<circle class="st69" cx="132.1" cy="39.5" r="1.7"/>
		<circle class="st70" cx="132.1" cy="39.5" r="1.7"/>
		<circle class="st71" cx="132.1" cy="39.5" r="1.7"/>
		<circle class="st72" cx="132.1" cy="39.5" r="1.7"/>
		<circle class="st73" cx="132.1" cy="39.5" r="1.6"/>
		<circle class="st74" cx="132.1" cy="39.5" r="1.6"/>
		<circle class="st75" cx="132.1" cy="39.5" r="1.6"/>
		<circle class="st76" cx="132.1" cy="39.5" r="1.6"/>
		<circle class="st77" cx="132.1" cy="39.5" r="1.6"/>
		<circle class="st78" cx="132.1" cy="39.5" r="1.6"/>
		<circle class="st79" cx="132.1" cy="39.5" r="1.6"/>
		<circle class="st80" cx="132.1" cy="39.5" r="1.6"/>
		<circle class="st81" cx="132.1" cy="39.5" r="1.5"/>
		<circle class="st82" cx="132.1" cy="39.5" r="1.5"/>
		<circle class="st83" cx="132.1" cy="39.5" r="1.5"/>
		<circle class="st84" cx="132.1" cy="39.5" r="1.5"/>
		<circle class="st85" cx="132.1" cy="39.5" r="1.5"/>
		<circle class="st86" cx="132.1" cy="39.5" r="1.5"/>
		<circle class="st87" cx="132.1" cy="39.5" r="1.5"/>
		<circle class="st88" cx="132.1" cy="39.5" r="1.4"/>
		<circle class="st89" cx="132.1" cy="39.5" r="1.4"/>
		<circle class="st90" cx="132.1" cy="39.5" r="1.4"/>
		<circle class="st91" cx="132.1" cy="39.5" r="1.4"/>
		<circle class="st92" cx="132.1" cy="39.5" r="1.4"/>
		<circle class="st93" cx="132.1" cy="39.5" r="1.4"/>
		<circle class="st94" cx="132.1" cy="39.5" r="1.4"/>
		<circle class="st95" cx="132.1" cy="39.5" r="1.4"/>
		<circle class="st96" cx="132.1" cy="39.5" r="1.3"/>
		<circle class="st97" cx="132.1" cy="39.5" r="1.3"/>
		<circle class="st98" cx="132.1" cy="39.5" r="1.3"/>
		<circle class="st99" cx="132.1" cy="39.5" r="1.3"/>
		<circle class="st100" cx="132.1" cy="39.5" r="1.3"/>
		<circle class="st101" cx="132.1" cy="39.5" r="1.3"/>
		<circle class="st102" cx="132.1" cy="39.5" r="1.3"/>
		<circle class="st103" cx="132.1" cy="39.5" r="1.2"/>
		<circle class="st104" cx="132.1" cy="39.5" r="1.2"/>
		<circle class="st105" cx="132.1" cy="39.5" r="1.2"/>
		<circle class="st106" cx="132.1" cy="39.5" r="1.2"/>
		<circle class="st107" cx="132.1" cy="39.5" r="1.2"/>
		<circle class="st108" cx="132.1" cy="39.5" r="1.2"/>
		<circle class="st109" cx="132.1" cy="39.5" r="1.2"/>
		<circle class="st110" cx="132.1" cy="39.5" r="1.2"/>
		<circle class="st111" cx="132.1" cy="39.5" r="1.1"/>
		<circle class="st112" cx="132.1" cy="39.5" r="1.1"/>
		<circle class="st113" cx="132.1" cy="39.5" r="1.1"/>
		<circle class="st114" cx="132.1" cy="39.5" r="1.1"/>
		<circle class="st115" cx="132.1" cy="39.5" r="1.1"/>
		<circle class="st116" cx="132.1" cy="39.5" r="1.1"/>
		<circle class="st117" cx="132.1" cy="39.5" r="1.1"/>
		<circle class="st118" cx="132.1" cy="39.5" r="1.1"/>
		<circle class="st119" cx="132.1" cy="39.5" r="1"/>
		<circle class="st120" cx="132.1" cy="39.5" r="1"/>
		<circle class="st121" cx="132.1" cy="39.5" r="1"/>
		<circle class="st122" cx="132.1" cy="39.5" r="1"/>
		<circle class="st123" cx="132.1" cy="39.5" r="1"/>
		<circle class="st124" cx="132.1" cy="39.5" r="1"/>
		<circle class="st125" cx="132.1" cy="39.5" r="1"/>
		<circle class="st126" cx="132.1" cy="39.5" r="0.9"/>
		<circle class="st127" cx="132.1" cy="39.5" r="0.9"/>
		<circle class="st128" cx="132.1" cy="39.5" r="0.9"/>
		<circle class="st129" cx="132.1" cy="39.5" r="0.9"/>
		<circle class="st130" cx="132.1" cy="39.5" r="0.9"/>
		<circle class="st131" cx="132.1" cy="39.5" r="0.9"/>
		<circle class="st132" cx="132.1" cy="39.5" r="0.9"/>
		<circle class="st133" cx="132.1" cy="39.5" r="0.9"/>
		<circle class="st134" cx="132.1" cy="39.5" r="0.8"/>
		<circle class="st135" cx="132.1" cy="39.5" r="0.8"/>
		<circle class="st136" cx="132.1" cy="39.5" r="0.8"/>
		<circle class="st137" cx="132.1" cy="39.5" r="0.8"/>
		<circle class="st138" cx="132.1" cy="39.5" r="0.8"/>
		<circle class="st139" cx="132.1" cy="39.5" r="0.8"/>
		<circle class="st140" cx="132.1" cy="39.5" r="0.8"/>
		<circle class="st141" cx="132.1" cy="39.5" r="0.8"/>
		<circle class="st141" cx="132.1" cy="39.5" r="0.7"/>
		<circle class="st142" cx="132.1" cy="39.5" r="0.7"/>
		<circle class="st143" cx="132.1" cy="39.5" r="0.7"/>
		<circle class="st144" cx="132.1" cy="39.5" r="0.7"/>
		<circle class="st145" cx="132.1" cy="39.5" r="0.7"/>
		<circle class="st146" cx="132.1" cy="39.5" r="0.7"/>
		<circle class="st147" cx="132.1" cy="39.5" r="0.7"/>
		<circle class="st148" cx="132.1" cy="39.5" r="0.6"/>
		<circle class="st149" cx="132.1" cy="39.5" r="0.6"/>
		<circle class="st150" cx="132.1" cy="39.5" r="0.6"/>
		<circle class="st151" cx="132.1" cy="39.5" r="0.6"/>
		<circle class="st152" cx="132.1" cy="39.5" r="0.6"/>
		<circle class="st152" cx="132.1" cy="39.5" r="0.6"/>
		<circle class="st153" cx="132.1" cy="39.5" r="0.6"/>
		<circle class="st154" cx="132.1" cy="39.5" r="0.6"/>
		<circle class="st155" cx="132.1" cy="39.5" r="0.5"/>
		<circle class="st156" cx="132.1" cy="39.5" r="0.5"/>
		<circle class="st156" cx="132.1" cy="39.5" r="0.5"/>
		<circle class="st157" cx="132.1" cy="39.5" r="0.5"/>
		<circle class="st158" cx="132.1" cy="39.5" r="0.5"/>
		<circle class="st159" cx="132.1" cy="39.5" r="0.5"/>
		<circle class="st159" cx="132.1" cy="39.5" r="0.5"/>
		<circle class="st160" cx="132.1" cy="39.5" r="0.4"/>
		<circle class="st161" cx="132.1" cy="39.5" r="0.4"/>
		<circle class="st161" cx="132.1" cy="39.5" r="0.4"/>
		<circle class="st162" cx="132.1" cy="39.5" r="0.4"/>
		<circle class="st163" cx="132.1" cy="39.5" r="0.4"/>
		<circle class="st163" cx="132.1" cy="39.5" r="0.4"/>
		<circle class="st164" cx="132.1" cy="39.5" r="0.4"/>
		<circle class="st165" cx="132.1" cy="39.5" r="0.4"/>
		<circle class="st165" cx="132.1" cy="39.5" r="0.3"/>
		<circle class="st166" cx="132.1" cy="39.5" r="0.3"/>
		<circle class="st167" cx="132.1" cy="39.5" r="0.3"/>
		<circle class="st168" cx="132.1" cy="39.5" r="0.3"/>
		<circle class="st169" cx="132.1" cy="39.5" r="0.3"/>
		<circle class="st170" cx="132.1" cy="39.5" r="0.3"/>
		<circle class="st171" cx="132.1" cy="39.5" r="0.3"/>
		<circle class="st172" cx="132.1" cy="39.5" r="0.3"/>
		<circle class="st172" cx="132.1" cy="39.5" r="0.2"/>
		<circle class="st173" cx="132.1" cy="39.5" r="0.2"/>
		<circle class="st173" cx="132.1" cy="39.5" r="0.2"/>
		<circle class="st174" cx="132.1" cy="39.5" r="0.2"/>
		<circle class="st175" cx="132.1" cy="39.5" r="0.2"/>
		<circle class="st176" cx="132.1" cy="39.5" r="0.2"/>
		<circle class="st176" cx="132.1" cy="39.5" r="0.2"/>
		<circle class="st177" cx="132.1" cy="39.5" r="0.1"/>
		<circle class="st178" cx="132.1" cy="39.5" r="0.1"/>
		<circle class="st179" cx="132.1" cy="39.5" r="0.1"/>
		<circle class="st179" cx="132.1" cy="39.5" r="0.1"/>
		<circle class="st180" cx="132.1" cy="39.5" r="0.1"/>
		<circle class="st180" cx="132.1" cy="39.5" r="0.1"/>
		<circle class="st181" cx="132.1" cy="39.5" r="0.1"/>
		<circle class="st182" cx="132.1" cy="39.5" r="0.1"/>
		<circle class="st182" cx="132.1" cy="39.5" r="0"/>
		<path class="st182" d="M132.1,39.5C132.1,39.5,132.1,39.5,132.1,39.5C132.1,39.5,132.1,39.5,132.1,39.5
			C132.1,39.5,132.1,39.5,132.1,39.5C132.1,39.5,132.1,39.5,132.1,39.5z"/>
	</g>
</g>
<g>
	<path class="st183" d="M117.5,37.1h-1.4v4.8h1.4c0.7,0,1.3-0.2,1.7-0.6c0.5-0.5,0.9-1.1,0.9-1.9C120.1,38.1,119,37.1,117.5,37.1z
		 M118.6,40.7c-0.3,0.3-0.7,0.4-1.3,0.4h-0.3v-3.2h0.3c0.6,0,1,0.1,1.3,0.4c0.3,0.3,0.5,0.7,0.5,1.2
		C119.1,39.9,118.9,40.4,118.6,40.7z"/>
</g>
<g>
	<rect x="120.5" y="37.1" class="st183" width="0.9" height="4.8"/>
</g>
<g>
	<path class="st183" d="M123.8,38.9c-0.6-0.2-0.7-0.3-0.7-0.6c0-0.3,0.3-0.5,0.7-0.5c0.3,0,0.5,0.1,0.8,0.4l0.5-0.6
		c-0.4-0.4-0.9-0.5-1.4-0.5c-0.9,0-1.5,0.6-1.5,1.4c0,0.7,0.3,1,1.2,1.3c0.4,0.1,0.6,0.2,0.7,0.3c0.2,0.1,0.3,0.3,0.3,0.5
		c0,0.4-0.3,0.7-0.7,0.7c-0.4,0-0.8-0.2-1-0.6l-0.6,0.6c0.4,0.6,1,0.9,1.7,0.9c1,0,1.7-0.7,1.7-1.6
		C125.1,39.7,124.8,39.3,123.8,38.9z"/>
</g>
<g>
	<path class="st183" d="M125.4,39.5c0,1.4,1.1,2.5,2.5,2.5c0.4,0,0.8-0.1,1.2-0.3v-1.1c-0.4,0.4-0.7,0.5-1.1,0.5
		c-0.9,0-1.6-0.7-1.6-1.7c0-0.9,0.7-1.7,1.6-1.7c0.4,0,0.8,0.2,1.2,0.5v-1.1c-0.4-0.2-0.8-0.3-1.2-0.3
		C126.6,37,125.4,38.1,125.4,39.5z"/>
</g>
<g>
	<polygon class="st183" points="136.8,40.3 135.5,37.1 134.5,37.1 136.5,42 137,42 139.1,37.1 138.1,37.1 	"/>
</g>
<g>
	<polygon class="st183" points="139.5,41.9 142.2,41.9 142.2,41.1 140.5,41.1 140.5,39.8 142.1,39.8 142.1,39 140.5,39 140.5,37.9 
		142.2,37.9 142.2,37.1 139.5,37.1 	"/>
</g>
<g>
	<path class="st183" d="M145.9,38.5c0-0.9-0.6-1.4-1.7-1.4h-1.4v4.8h0.9v-1.9h0.1l1.3,1.9h1.2l-1.5-2
		C145.5,39.7,145.9,39.2,145.9,38.5z M144,39.3h-0.3v-1.5h0.3c0.6,0,0.9,0.2,0.9,0.7C144.9,39,144.6,39.3,144,39.3z"/>
</g>
<g>
	<path class="st184" d="M146.6,37.4c0-0.1-0.1-0.1-0.2-0.1h-0.1v0.4h0.1v-0.2l0.1,0.2h0.1l-0.1-0.2
		C146.5,37.5,146.6,37.5,146.6,37.4z M146.4,37.5L146.4,37.5l0-0.1h0C146.4,37.4,146.5,37.4,146.4,37.5
		C146.5,37.5,146.4,37.5,146.4,37.5z"/>
</g>
<g>
	<path class="st184" d="M146.4,37.1c-0.2,0-0.4,0.2-0.4,0.4c0,0.2,0.2,0.4,0.4,0.4c0.2,0,0.4-0.2,0.4-0.4
		C146.8,37.3,146.6,37.1,146.4,37.1z M146.4,37.8c-0.2,0-0.3-0.1-0.3-0.3c0-0.2,0.1-0.3,0.3-0.3c0.2,0,0.3,0.1,0.3,0.3
		C146.7,37.7,146.6,37.8,146.4,37.8z"/>
</g>
<g>
	<path class="st184" d="M125.8,43.2c0,0,0,1.1,0,1.2c-0.1-0.1-1.3-1.3-1.3-1.3v0v1.7h0.2c0,0,0-1.1,0-1.2c0.1,0.1,1.3,1.3,1.3,1.3
		v-1.7H125.8z"/>
</g>
<g>
	<path class="st184" d="M127.7,43.4v-0.2h0h-0.9v1.6h0.9v-0.2c0,0-0.6,0-0.7,0c0,0,0-0.6,0-0.6c0,0,0.6,0,0.6,0v-0.2
		c0,0-0.6,0-0.6,0c0,0,0-0.4,0-0.4C127.1,43.4,127.7,43.4,127.7,43.4z"/>
</g>
<g>
	<path class="st184" d="M129.3,43.2h-1v0.2c0,0,0.4,0,0.4,0c0,0,0,1.4,0,1.4h0.2c0,0,0-1.4,0-1.4c0,0,0.4,0,0.4,0L129.3,43.2
		L129.3,43.2z"/>
</g>
<g>
	<path class="st184" d="M132,43.2c0,0-0.4,1.1-0.4,1.2c0-0.1-0.5-1.3-0.5-1.3l0,0c0,0-0.5,1.2-0.5,1.3c0-0.1-0.4-1.2-0.4-1.2h-0.2
		l0.6,1.8c0,0,0.5-1.2,0.5-1.3c0,0.1,0.5,1.3,0.5,1.3l0.6-1.8H132z"/>
</g>
<g>
	<path class="st184" d="M133.7,43.2c-0.5,0-0.9,0.4-0.9,0.9c0,0.5,0.4,0.8,0.9,0.8c0.5,0,0.9-0.4,0.9-0.8
		C134.5,43.6,134.2,43.2,133.7,43.2z M133.7,44.7c-0.4,0-0.6-0.3-0.6-0.7c0-0.4,0.3-0.7,0.6-0.7c0.4,0,0.6,0.3,0.6,0.7
		C134.3,44.4,134,44.7,133.7,44.7z"/>
</g>
<g>
	<path class="st184" d="M135.8,44.1c0.2,0,0.4-0.2,0.4-0.5c0-0.3-0.2-0.5-0.6-0.5h-0.2h0v1.6h0.2c0,0,0-0.7,0-0.7c0,0,0,0,0,0
		c0,0,0.5,0.7,0.5,0.7l0.2,0h0C136.3,44.9,135.8,44.2,135.8,44.1z M135.5,43.4C135.5,43.4,135.5,43.4,135.5,43.4
		c0.2,0,0.4,0,0.4,0.3c0,0.2-0.2,0.3-0.4,0.3c0,0,0,0,0,0C135.5,43.9,135.5,43.4,135.5,43.4z"/>
</g>
<g>
	<path class="st184" d="M137.4,44c0,0,0.8-0.8,0.8-0.8h0h-0.2c0,0-0.6,0.6-0.7,0.7c0-0.1,0-0.7,0-0.7H137v1.6h0.2c0,0,0-0.7,0-0.7
		c0,0,0,0,0,0c0,0,0.6,0.7,0.6,0.7l0.3,0h0C138.2,44.9,137.4,44,137.4,44z"/>
</g>
<g>
	<polygon class="st185" points="77.1,31.3 111.9,31.3 111.9,53.6 77.1,53.6 77.1,31.3 	"/>
</g>
<g>
	<path class="st3" d="M107.3,44.6l0.7-1.5h-2.3c-0.2,0-0.4,0-0.5,0.1l0-0.1H103c-0.4,0-0.7,0.1-0.9,0.2v-0.2h-3.5v0.2
		c-0.2-0.1-0.5-0.2-0.8-0.2h-2.2v0.2c-0.2-0.2-0.6-0.2-0.9-0.2H94l0,0h-2.2l-0.5,0.6l-0.5-0.6h-0.7h-1.5h-2v4h2h1.5h0.8l0.4-0.6
		l0.4,0.6h0.8v0h1.8v-0.9h0.3c0.4,0,0.7-0.1,1-0.3v1.2h1.8v-0.6l0.5,0.6h0.8h1.5h1.3h0.7h1.4c0.2,0,0.5,0,0.6-0.1v0.1h2.1
		c0.9,0,1.5-0.6,1.5-1.5C107.8,45.2,107.6,44.8,107.3,44.6z M92.4,45.1l0.1-0.1v0.3L92.4,45.1z M90.1,44.9l0.2,0.2l-0.2,0.2V44.9z"
		/>
</g>
<g id="path3062_2_">
	<path class="st185" d="M87.2,46.6v-3h2.4v0.7h-1.7v0.5h1.6v0.6h-1.6v0.5h1.7v0.7L87.2,46.6z"/>
</g>
<g id="path3064_2_">
	<path class="st185" d="M99.1,46.6v-3h2.4v0.7h-1.7v0.5h1.6v0.6h-1.6v0.5h1.7v0.7L99.1,46.6z"/>
</g>
<g id="path3066_2_">
	<path class="st185" d="M89.7,46.6l1.2-1.5l-1.2-1.5h0.9l0.7,0.9l0.7-0.9H93l-1.2,1.5l1.2,1.5H92l-0.7-0.9l-0.7,0.9L89.7,46.6z"/>
</g>
<g id="path3068_2_">
	<path class="st185" d="M93,43.6v3h0.8v-0.9h0.8c0.7,0,1.2-0.4,1.2-1c0-0.6-0.4-1-1.1-1H93L93,43.6z M93.8,44.2h0.8
		c0.2,0,0.4,0.1,0.4,0.3c0,0.2-0.2,0.3-0.4,0.3h-0.8V44.2L93.8,44.2z"/>
</g>
<g id="path3072_2_">
	<path class="st185" d="M96.1,43.6v3h0.7v-1.1h0.3l0.9,1.1H99l-1-1.1c0.4,0,0.8-0.4,0.8-0.9c0-0.6-0.5-1-1-1L96.1,43.6L96.1,43.6z
		 M96.9,44.2h0.9c0.2,0,0.4,0.2,0.4,0.3c0,0.2-0.2,0.3-0.3,0.3h-0.9V44.2z"/>
</g>
<g id="path3074_2_">
	<path class="st185" d="M101.9,46.6v-0.7h1.5c0.2,0,0.3-0.1,0.3-0.3c0-0.1-0.1-0.3-0.3-0.3h-0.7c-0.6,0-0.9-0.4-0.9-0.9
		c0-0.5,0.3-0.9,1.2-0.9h1.5l-0.3,0.7h-1.3c-0.2,0-0.3,0.1-0.3,0.2c0,0.1,0.1,0.3,0.3,0.3h0.7c0.7,0,0.9,0.4,0.9,0.9
		c0,0.5-0.3,1-1,1H101.9z"/>
</g>
<g id="path3076_2_">
	<path class="st185" d="M104.7,46.6v-0.7h1.5c0.2,0,0.3-0.1,0.3-0.3c0-0.1-0.1-0.3-0.3-0.3h-0.7c-0.6,0-0.9-0.4-0.9-0.9
		c0-0.5,0.3-0.9,1.2-0.9h1.5l-0.3,0.7h-1.3c-0.2,0-0.3,0.1-0.3,0.2c0,0.1,0.1,0.3,0.3,0.3h0.7c0.7,0,0.9,0.4,0.9,0.9
		c0,0.5-0.3,1-1,1H104.7z"/>
</g>
<g>
	<path class="st3" d="M103.7,37.8v0.7l-0.4-0.7h-1.7V39l-0.5-1.2h-1.6l-1.3,0c-0.5,0-1,0.2-1.3,0.4v-0.4H95V38
		c-0.2-0.1-0.5-0.2-0.8-0.2h-1.6l-5,0l-0.3,0.9l-0.3-0.9l-2.1,0V39l-0.5-1.2h-1.7l-1.7,4h2l0.2-0.6h0.7l0.2,0.6h2l0,0h3.1h0.5H92v0
		h1.8v-0.6l0.5,0.6h2.3l0,0h0.3v-0.4c0.2,0.2,0.5,0.3,0.9,0.4l0,0h2l0.2-0.6h0.7l0.2,0.6h2l0,0h0.6v-0.7l0.5,0.7h1.7v-4H103.7z
		 M98.2,40.2c-0.2,0-0.3,0-0.3-0.3c0-0.1,0-0.3,0.2-0.3h0.5l-0.3,0.6H98.2z"/>
</g>
<g id="path3046_2_">
	<path class="st185" d="M83,38.3l-1.3,3h0.8l0.2-0.6h1.4l0.2,0.6h0.9l-1.3-3L83,38.3L83,38.3z M83.5,39l0.4,1H83L83.5,39z"/>
</g>
<g id="path3048_2_">
	<path class="st185" d="M85.3,41.3v-3l1.2,0l0.7,1.9l0.7-1.9h1.2v3h-0.7v-2.2l-0.8,2.2h-0.7l-0.8-2.2v2.2H85.3z"/>
</g>
<g id="path3050_2_">
	<path class="st185" d="M89.6,41.3v-3H92V39h-1.7v0.5H92v0.6h-1.6v0.5H92v0.7L89.6,41.3z"/>
</g>
<g id="path3052_2_">
	<path class="st185" d="M92.5,38.3v3h0.7v-1.1h0.3l0.9,1.1h0.9l-1-1.1c0.4,0,0.8-0.4,0.8-0.9c0-0.6-0.5-1-1-1L92.5,38.3L92.5,38.3z
		 M93.2,39h0.9c0.2,0,0.4,0.2,0.4,0.3c0,0.2-0.2,0.3-0.3,0.3h-0.9V39L93.2,39z"/>
</g>
<g id="path3054_2_">
	<path class="st185" d="M96.3,41.3h-0.8v-3h0.8V41.3z"/>
</g>
<g id="path3056_2_">
	<path class="st185" d="M98.1,41.3h-0.2c-0.8,0-1.3-0.6-1.3-1.5c0-0.9,0.5-1.5,1.5-1.5h0.8V39h-0.9c-0.4,0-0.7,0.3-0.7,0.8
		c0,0.6,0.3,0.8,0.8,0.8h0.2L98.1,41.3z"/>
</g>
<g id="path3058_2_">
	<path class="st185" d="M99.7,38.3l-1.3,3h0.8l0.2-0.6h1.4l0.2,0.6h0.9l-1.3-3L99.7,38.3L99.7,38.3z M100.2,39l0.4,1h-0.8L100.2,39
		L100.2,39z"/>
</g>
<g id="path3060_2_">
	<path class="st185" d="M102.1,41.3v-3h1l1.2,1.9v-1.9h0.7v3h-0.9l-1.2-1.9v1.9H102.1z"/>
</g>
<g>
	<polygon class="st3" points="40.3,31.3 75.1,31.3 75.1,53.6 40.3,53.6 40.3,31.3 	"/>
</g>
<g>
	<polygon class="st186" points="55.9,46.7 53.7,46.7 55,38.2 57.3,38.2 	"/>
</g>
<g>
	<path class="st186" d="M51.8,38.2l-2.1,5.8l-0.2-1.3l0,0L48.7,39c0,0-0.1-0.8-1-0.8h-3.5l0,0.1c0,0,1.1,0.2,2.3,1l1.9,7.4h2.3
		l3.5-8.5H51.8z"/>
</g>
<g>
	<path class="st186" d="M69.2,46.7h2l-1.8-8.5h-1.8c-0.8,0-1,0.6-1,0.6l-3.3,7.9h2.3l0.5-1.3h2.8L69.2,46.7z M66.8,43.7l1.2-3.2
		l0.7,3.2H66.8z"/>
</g>
<g>
	<path class="st186" d="M63.5,40.3l0.3-1.8c0,0-1-0.4-2-0.4c-1.1,0-3.7,0.5-3.7,2.8c0,2.2,3.1,2.2,3.1,3.4c0,1.2-2.7,0.9-3.6,0.2
		l-0.3,1.9c0,0,1,0.5,2.5,0.5c1.5,0,3.8-0.8,3.8-2.9c0-2.2-3.1-2.4-3.1-3.4C60.4,39.6,62.6,39.7,63.5,40.3z"/>
</g>
<g>
	<path class="st187" d="M49.5,42.8L48.7,39c0,0-0.1-0.8-1-0.8h-3.5l0,0.1c0,0,1.7,0.3,3.3,1.6C48.9,41.2,49.5,42.8,49.5,42.8z"/>
</g>
<g>
	<polygon class="st188" points="3.5,53.6 38.3,53.6 38.3,31.3 3.5,31.3 3.5,53.6 	"/>
</g>
<g>
	<path class="st189" d="M20.9,49.5c1.7,1.5,3.9,2.5,6.4,2.5c5.3,0,9.5-4.3,9.5-9.5c0-5.2-4.3-9.5-9.5-9.5c-2.4,0-4.7,0.9-6.4,2.5
		c-1.9,1.8-3.1,4.3-3.1,7.1S19,47.8,20.9,49.5L20.9,49.5z"/>
</g>
<g>
	<path class="st189" d="M35.6,47.7c0-0.2,0.1-0.3,0.3-0.3c0.2,0,0.3,0.1,0.3,0.3c0,0.2-0.1,0.3-0.3,0.3
		C35.7,48.1,35.6,47.9,35.6,47.7L35.6,47.7z M35.9,48c0.1,0,0.2-0.1,0.2-0.2c0-0.1-0.1-0.2-0.2-0.2c-0.1,0-0.2,0.1-0.2,0.2
		C35.6,47.9,35.7,48,35.9,48L35.9,48z M35.8,47.9L35.8,47.9l-0.1-0.3h0.1c0,0,0.1,0,0.1,0c0,0,0,0,0,0.1c0,0,0,0.1-0.1,0.1l0.1,0.1
		H35.8l0.1-0.1h-0.1V47.9L35.8,47.9z M35.8,47.7L35.8,47.7C35.9,47.7,35.9,47.7,35.8,47.7C35.9,47.7,35.9,47.7,35.8,47.7
		C35.9,47.7,35.9,47.7,35.8,47.7C35.9,47.7,35.9,47.7,35.8,47.7L35.8,47.7L35.8,47.7L35.8,47.7z"/>
</g>
<g>
	<path class="st190" d="M24,41.4c0-0.3-0.1-0.7-0.2-1H18c0.1-0.3,0.2-0.7,0.3-1h5.3c-0.1-0.3-0.2-0.7-0.4-1h-4.5
		c0.2-0.3,0.4-0.7,0.6-1h3.4c-0.2-0.4-0.4-0.7-0.7-1H20c0.3-0.4,0.6-0.7,1-1c-1.7-1.5-3.9-2.5-6.4-2.5c-5.3,0-9.5,4.3-9.5,9.5
		c0,5.3,4.3,9.5,9.5,9.5c2.5,0,4.7-0.9,6.4-2.5l0,0c0.3-0.3,0.7-0.7,1-1H20c-0.3-0.3-0.5-0.7-0.7-1h3.4c0.2-0.3,0.4-0.7,0.6-1h-4.5
		c-0.1-0.3-0.3-0.7-0.4-1h5.3c0.1-0.3,0.2-0.7,0.3-1c0.1-0.3,0.1-0.7,0.2-1c0-0.3,0.1-0.7,0.1-1S24,41.8,24,41.4L24,41.4z"/>
</g>
<g>
	<path class="st191" d="M35.6,44.6c0-0.2,0.1-0.3,0.3-0.3c0.2,0,0.3,0.1,0.3,0.3c0,0.2-0.1,0.3-0.3,0.3C35.7,45,35.6,44.8,35.6,44.6
		L35.6,44.6z M35.9,44.9c0.1,0,0.2-0.1,0.2-0.2c0-0.1-0.1-0.2-0.2-0.2c-0.1,0-0.2,0.1-0.2,0.2C35.6,44.8,35.7,44.9,35.9,44.9
		L35.9,44.9z M35.8,44.8L35.8,44.8l-0.1-0.3h0.1c0,0,0.1,0,0.1,0c0,0,0,0,0,0.1c0,0,0,0.1-0.1,0.1l0.1,0.1H35.8l0.1-0.1h-0.1V44.8
		L35.8,44.8z M35.8,44.6L35.8,44.6C35.9,44.6,35.9,44.6,35.8,44.6C35.9,44.6,35.9,44.6,35.8,44.6C35.9,44.6,35.9,44.6,35.8,44.6
		C35.9,44.6,35.9,44.6,35.8,44.6L35.8,44.6L35.8,44.6L35.8,44.6z"/>
</g>
<g>
	<path class="st188" d="M17.7,45.2c-0.3,0.1-0.5,0.1-0.8,0.1c-0.5,0-0.8-0.3-0.8-0.9c0-0.1,0-0.2,0-0.4l0.1-0.4l0.1-0.3l0.4-2.7h1
		l-0.1,0.6h0.6l-0.1,1h-0.6l-0.3,1.6c0,0.1,0,0.1,0,0.1c0,0.2,0.1,0.3,0.4,0.3c0.1,0,0.2,0,0.3,0L17.7,45.2L17.7,45.2z"/>
</g>
<g>
	<path class="st188" d="M20.9,45.1c-0.4,0.1-0.7,0.2-1.1,0.2c-1.1,0-1.8-0.6-1.8-1.8c0-1.3,0.8-2.4,1.8-2.4c0.8,0,1.4,0.6,1.4,1.4
		c0,0.3,0,0.6-0.1,1h-2.1c0,0.1,0,0.1,0,0.1c0,0.5,0.3,0.7,0.9,0.7c0.4,0,0.7-0.1,1.1-0.2L20.9,45.1L20.9,45.1z M20.3,42.8
		c0-0.1,0-0.1,0-0.2c0-0.3-0.2-0.5-0.5-0.5c-0.3,0-0.6,0.2-0.7,0.7H20.3L20.3,42.8z"/>
</g>
<g>
	<polygon class="st188" points="9.8,45.2 8.8,45.2 9.4,41.5 8,45.2 7.3,45.2 7.3,41.5 6.6,45.2 5.6,45.2 6.4,40.4 7.9,40.4 8,43.4 
		9,40.4 10.6,40.4 9.8,45.2 	"/>
</g>
<g>
	<path class="st188" d="M12.3,43.5c-0.1,0-0.1,0-0.2,0c-0.6,0-0.9,0.2-0.9,0.6c0,0.3,0.1,0.4,0.4,0.4C12.1,44.5,12.3,44.1,12.3,43.5
		L12.3,43.5z M13.1,45.2h-0.9l0-0.4c-0.2,0.3-0.5,0.5-1.1,0.5c-0.5,0-0.9-0.4-0.9-1.1c0-0.2,0-0.4,0.1-0.5c0.2-0.6,0.8-1,1.7-1
		c0.1,0,0.3,0,0.4,0c0-0.1,0-0.2,0-0.3c0-0.3-0.2-0.3-0.7-0.3c-0.3,0-0.6,0.1-0.9,0.1l-0.1,0.1h-0.1l0.1-0.9
		c0.5-0.1,0.8-0.2,1.2-0.2c0.9,0,1.4,0.4,1.4,1.2c0,0.2,0,0.3-0.1,0.8l-0.2,1.4l0,0.2l0,0.2v0.1L13.1,45.2L13.1,45.2z"/>
</g>
<g>
	<path class="st188" d="M25.8,41.4c0.3,0,0.5,0.1,0.9,0.3l0.2-1.1c-0.1,0-0.1,0-0.2-0.1l-0.4-0.1c-0.1,0-0.3-0.1-0.5-0.1
		c-0.5,0-0.8,0-1.1,0.2c-0.2,0.1-0.4,0.2-0.6,0.5l-0.1,0l-1.1,0.7l0.1-0.4h-1.1l-0.6,3.9h1l0.4-2.1c0,0,0.1-0.3,0.2-0.4
		c0.2-0.2,0.4-0.2,0.6-0.2c0,0,0.1,0,0.1,0c0,0.2,0,0.5,0,0.7c0,1.3,0.7,2.1,1.8,2.1c0.3,0,0.5,0,0.9-0.1l0.2-1.1
		c-0.3,0.2-0.6,0.2-0.9,0.2c-0.6,0-1-0.4-1-1.2C24.5,42.1,25.1,41.4,25.8,41.4L25.8,41.4z"/>
</g>
<g>
	<path class="st188" d="M34.6,40.4l-0.2,1.4c-0.2-0.4-0.5-0.5-0.9-0.5c-0.5,0-1,0.3-1.4,0.9l0,0l-0.7-0.4l0.1-0.4h-1.1l-0.6,3.9h1
		l0.3-2.1c0,0,0.3-0.3,0.3-0.4c0.1-0.2,0.3-0.2,0.4-0.2c-0.1,0.3-0.2,0.7-0.2,1.2c0,1,0.5,1.6,1.3,1.6c0.4,0,0.7-0.1,1-0.4l-0.1,0.4
		h1l0.8-4.8H34.6L34.6,40.4z M33.3,44.3c-0.4,0-0.5-0.2-0.5-0.8c0-0.8,0.3-1.3,0.8-1.3c0.4,0,0.5,0.3,0.5,0.8
		C34.1,43.8,33.8,44.3,33.3,44.3L33.3,44.3z"/>
</g>
<g>
	<path class="st188" d="M28.6,43.5c-0.1,0-0.1,0-0.2,0c-0.6,0-0.9,0.2-0.9,0.6c0,0.3,0.1,0.4,0.4,0.4C28.3,44.5,28.5,44.1,28.6,43.5
		L28.6,43.5z M29.4,45.2h-0.9l0-0.4c-0.2,0.3-0.5,0.5-1.1,0.5c-0.5,0-1-0.4-1-1.1c0-0.9,0.7-1.5,1.8-1.5c0.1,0,0.3,0,0.4,0
		c0-0.1,0-0.2,0-0.3c0-0.3-0.2-0.3-0.7-0.3c-0.3,0-0.6,0.1-0.9,0.1l-0.1,0.1H27l0.1-0.9c0.5-0.1,0.8-0.2,1.2-0.2
		c0.9,0,1.4,0.4,1.4,1.2c0,0.2,0,0.3-0.1,0.8l-0.2,1.4l0,0.2l0,0.2l0,0.1V45.2L29.4,45.2z"/>
</g>
<g>
	<path class="st188" d="M15.2,42.2c0.2,0,0.5,0,0.8,0.1l0.1-0.9c-0.3,0-0.7-0.1-0.9-0.1c-1.1,0-1.5,0.6-1.5,1.3
		c0,0.5,0.2,0.8,0.8,1.1c0.4,0.2,0.5,0.2,0.5,0.4c0,0.2-0.2,0.4-0.6,0.4c-0.3,0-0.6-0.1-0.9-0.1l-0.1,0.9h0l0.2,0c0.1,0,0.1,0,0.3,0
		c0.3,0,0.5,0,0.6,0c1.1,0,1.6-0.4,1.6-1.3c0-0.5-0.3-0.9-0.8-1.1c-0.4-0.2-0.5-0.2-0.5-0.4C14.7,42.3,14.9,42.2,15.2,42.2
		L15.2,42.2z"/>
</g>
<g>
	<path class="st191" d="M27.2,40.3l-0.2,1c-0.4-0.2-0.6-0.3-0.9-0.3c-0.8,0-1.3,0.7-1.3,1.8c0,0.7,0.4,1.2,1,1.2
		c0.3,0,0.5-0.1,0.9-0.2l-0.2,1.1C26.1,45,25.8,45,25.5,45c-1.1,0-1.8-0.8-1.8-2.1c0-1.7,1-2.9,2.3-2.9c0.2,0,0.3,0,0.5,0l0.4,0.1
		C27.1,40.2,27.1,40.2,27.2,40.3L27.2,40.3z"/>
</g>
<g>
	<path class="st191" d="M23.9,41c0,0-0.1,0-0.1,0c-0.3,0-0.5,0.2-0.8,0.6L23,41h-1l-0.6,3.9h1c0.4-2.4,0.5-2.8,1-2.8c0,0,0,0,0.1,0
		C23.6,41.7,23.8,41.3,23.9,41L23.9,41L23.9,41z"/>
</g>
<g>
	<path class="st191" d="M17.9,44.9C17.7,45,17.4,45,17.2,45c-0.5,0-0.8-0.3-0.8-0.9c0-0.1,0-0.2,0-0.4l0.1-0.4l0.1-0.3l0.4-2.7h1
		L17.9,41h0.5l-0.1,1h-0.5l-0.3,1.6c0,0.1,0,0.1,0,0.2c0,0.2,0.1,0.3,0.4,0.3c0.1,0,0.2,0,0.3,0L17.9,44.9L17.9,44.9z"/>
</g>
<g>
	<path class="st191" d="M14,42.3c0,0.5,0.2,0.8,0.8,1.1c0.4,0.2,0.5,0.3,0.5,0.4c0,0.2-0.2,0.4-0.6,0.4c-0.3,0-0.6-0.1-0.9-0.2
		l-0.1,0.9h0.1l0.2,0c0.1,0,0.1,0,0.3,0c0.2,0,0.4,0,0.6,0c1.1,0,1.6-0.4,1.6-1.3c0-0.5-0.2-0.9-0.7-1.1c-0.4-0.2-0.5-0.2-0.5-0.4
		c0-0.2,0.2-0.3,0.5-0.3c0.2,0,0.5,0,0.7,0.1l0.1-0.9c-0.3,0-0.7-0.1-0.9-0.1C14.4,40.9,14,41.5,14,42.3L14,42.3z"/>
</g>
<g>
	<path class="st191" d="M35.1,44.9h-1l0.1-0.4c-0.3,0.3-0.6,0.4-1,0.4c-0.7,0-1.3-0.6-1.3-1.6c0-1.3,0.8-2.4,1.7-2.4
		c0.4,0,0.7,0.2,1,0.5l0.2-1.4h1L35.1,44.9L35.1,44.9z M33.6,44c0.5,0,0.8-0.5,0.8-1.3c0-0.5-0.2-0.8-0.5-0.8
		c-0.5,0-0.8,0.5-0.8,1.3C33.1,43.7,33.2,44,33.6,44L33.6,44z"/>
</g>
<g>
	<path class="st191" d="M21.1,44.8C20.7,45,20.4,45,20,45c-1.2,0-1.8-0.6-1.8-1.8c0-1.4,0.8-2.4,1.8-2.4c0.8,0,1.4,0.6,1.4,1.4
		c0,0.3,0,0.6-0.1,1h-2.1c0,0.1,0,0.1,0,0.1c0,0.4,0.3,0.7,0.9,0.7c0.4,0,0.7-0.1,1.1-0.2L21.1,44.8L21.1,44.8z M20.5,42.5
		c0-0.1,0-0.1,0-0.2c0-0.3-0.2-0.5-0.5-0.5c-0.3,0-0.6,0.3-0.7,0.7H20.5L20.5,42.5z"/>
</g>
<g>
	<polygon class="st191" points="10.1,44.9 9,44.9 9.6,41.2 8.3,44.9 7.6,44.9 7.5,41.2 6.9,44.9 5.9,44.9 6.7,40.1 8.2,40.1 
		8.3,43.1 9.3,40.1 10.9,40.1 10.1,44.9 	"/>
</g>
<g>
	<path class="st191" d="M12.6,43.2c-0.1,0-0.2,0-0.2,0c-0.6,0-0.9,0.2-0.9,0.6c0,0.2,0.1,0.4,0.4,0.4C12.3,44.2,12.6,43.8,12.6,43.2
		L12.6,43.2z M13.4,44.9h-0.9l0-0.4c-0.3,0.3-0.6,0.5-1.1,0.5c-0.6,0-0.9-0.4-0.9-1.1c0-1,0.7-1.5,1.8-1.5c0.1,0,0.3,0,0.4,0
		c0-0.1,0-0.2,0-0.2c0-0.3-0.2-0.4-0.7-0.4c-0.3,0-0.6,0-0.9,0.1l-0.1,0L11,42l0.1-0.9c0.5-0.1,0.9-0.2,1.2-0.2
		c0.9,0,1.4,0.4,1.4,1.1c0,0.2,0,0.4-0.1,0.8l-0.2,1.4l0,0.2l0,0.2l0,0.1L13.4,44.9L13.4,44.9z"/>
</g>
<g>
	<path class="st191" d="M28.9,43.2c-0.1,0-0.2,0-0.2,0c-0.6,0-0.9,0.2-0.9,0.6c0,0.2,0.1,0.4,0.4,0.4C28.6,44.2,28.9,43.8,28.9,43.2
		L28.9,43.2z M29.6,44.9h-0.9l0-0.4c-0.3,0.3-0.6,0.5-1.1,0.5c-0.6,0-1-0.4-1-1.1c0-1,0.7-1.5,1.8-1.5c0.1,0,0.3,0,0.4,0
		c0-0.1,0-0.2,0-0.2c0-0.3-0.2-0.4-0.7-0.4c-0.3,0-0.6,0-0.9,0.1l-0.1,0l-0.1,0l0.1-0.9c0.5-0.1,0.9-0.2,1.2-0.2
		c0.9,0,1.4,0.4,1.4,1.1c0,0.2,0,0.4-0.1,0.8l-0.2,1.4l0,0.2l0,0.2l0,0.1V44.9L29.6,44.9z"/>
</g>
<g>
	<path class="st191" d="M32.4,41C32.4,41,32.3,41,32.4,41c-0.4,0-0.6,0.1-1,0.6l0.1-0.6h-0.9L30,44.9h1c0.4-2.4,0.5-2.8,1-2.8
		c0,0,0,0,0.1,0C32.1,41.7,32.3,41.3,32.4,41L32.4,41L32.4,41z"/>
</g>
</svg>
