<?xml version="1.0" encoding="utf-8"?>
<!-- Generator: Adobe Illustrator 24.2.0, SVG Export Plug-In . SVG Version: 6.00 Build 0)  -->
<svg version="1.1" id="Layer_1" xmlns="http://www.w3.org/2000/svg" xmlns:xlink="http://www.w3.org/1999/xlink" x="0px" y="0px"
	 viewBox="0 0 300 58" style="enable-background:new 0 0 300 58;" xml:space="preserve">
<style type="text/css">
	.st0{fill:#C4C4C4;}
	.st1{fill:#FFFFFF;}
	.st2{fill:#0066B2;}
	.st3{fill:#F9A533;}
	.st4{fill:#FF5F00;}
	.st5{fill:#EB001B;}
	.st6{fill:#F79E1B;}
	.st7{fill-rule:evenodd;clip-rule:evenodd;fill:#FFFFFF;}
	.st8{fill-rule:evenodd;clip-rule:evenodd;fill:#009DDD;}
	.st9{fill-rule:evenodd;clip-rule:evenodd;fill:#ED1C2E;}
	.st10{fill:#FFCB05;}
	.st11{fill:#00A4E0;}
	.st12{fill:#EF4123;}
	.st13{fill:#007858;}
	.st14{fill:#C7D540;}
	.st15{fill:#016FD0;}
	.st16{fill:#822124;}
	.st17{fill:#0079BE;}
	.st18{fill:#211E1F;}
	.st19{fill:#413E3E;}
</style>
<path class="st0" d="M292.7,20.3H124V21h168.8c3.6,0,6.6,3,6.6,6.6v18.7c0,3.6-3,6.6-6.6,6.6H7.3c-3.6,0-6.6-3-6.6-6.6V27.6
	c0-3.6,3-6.6,6.6-6.6h4.9v-0.7H7.3c-4,0-7.3,3.3-7.3,7.3v18.7c0,4,3.3,7.3,7.3,7.3h285.4c4,0,7.3-3.3,7.3-7.3V27.6
	C300,23.5,296.7,20.3,292.7,20.3z"/>
<polygon class="st1" points="3.5,27.8 38.3,27.8 38.3,50.1 3.5,50.1 3.5,27.8 "/>
<polygon class="st2" points="19.1,43.2 16.9,43.2 18.3,34.7 20.5,34.7 "/>
<path class="st2" d="M15,34.7l-2.1,5.8l-0.2-1.3l0,0l-0.7-3.8c0,0-0.1-0.8-1-0.8H7.4l0,0.1c0,0,1.1,0.2,2.3,1l1.9,7.4h2.3l3.5-8.5
	H15z"/>
<path class="st2" d="M32.4,43.2h2l-1.8-8.5h-1.8c-0.8,0-1,0.6-1,0.6l-3.3,7.9h2.3l0.5-1.3h2.8L32.4,43.2z M30,40.2l1.2-3.2l0.7,3.2
	H30z"/>
<path class="st2" d="M26.7,36.8l0.3-1.8c0,0-1-0.4-2-0.4c-1.1,0-3.7,0.5-3.7,2.8c0,2.2,3.1,2.2,3.1,3.4c0,1.2-2.7,0.9-3.6,0.2
	l-0.3,1.9c0,0,1,0.5,2.5,0.5c1.5,0,3.8-0.8,3.8-2.9c0-2.2-3.1-2.4-3.1-3.4C23.6,36.1,25.8,36.2,26.7,36.8z"/>
<path class="st3" d="M12.7,39.3l-0.7-3.8c0,0-0.1-0.8-1-0.8H7.4l0,0.1c0,0,1.7,0.3,3.3,1.6C12.2,37.7,12.7,39.3,12.7,39.3z"/>
<polygon class="st1" points="40.3,27.8 75.1,27.8 75.1,50.1 40.3,50.1 40.3,27.8 "/>
<path id="XMLID_2_" d="M49.5,48.6v-1.3c0-0.5-0.3-0.8-0.8-0.8c-0.3,0-0.5,0.1-0.7,0.4c-0.1-0.2-0.4-0.4-0.7-0.4
	c-0.2,0-0.4,0.1-0.6,0.3v-0.2h-0.4v2h0.4v-1.1c0-0.4,0.2-0.5,0.5-0.5c0.3,0,0.4,0.2,0.4,0.5v1.1h0.4v-1.1c0-0.4,0.2-0.5,0.5-0.5
	c0.3,0,0.4,0.2,0.4,0.5v1.1H49.5z M56.1,46.6h-0.7V46H55v0.6h-0.4V47H55v0.9c0,0.5,0.2,0.7,0.7,0.7c0.2,0,0.4-0.1,0.6-0.2l-0.1-0.4
	c-0.1,0.1-0.3,0.1-0.4,0.1c-0.2,0-0.3-0.1-0.3-0.3V47h0.7V46.6z M59.9,46.6c-0.3,0-0.4,0.1-0.5,0.3v-0.2h-0.4v2h0.4v-1.1
	c0-0.3,0.1-0.5,0.4-0.5c0.1,0,0.2,0,0.3,0.1l0.1-0.4C60.1,46.6,60,46.6,59.9,46.6L59.9,46.6z M54.2,46.8c-0.2-0.1-0.5-0.2-0.8-0.2
	c-0.5,0-0.8,0.2-0.8,0.6c0,0.3,0.2,0.5,0.7,0.6l0.2,0c0.2,0,0.4,0.1,0.4,0.2c0,0.2-0.2,0.2-0.5,0.2c-0.3,0-0.5-0.1-0.7-0.2l-0.2,0.3
	c0.2,0.2,0.5,0.3,0.9,0.3c0.6,0,0.9-0.3,0.9-0.7c0-0.4-0.3-0.5-0.7-0.6l-0.2,0c-0.2,0-0.3-0.1-0.3-0.2c0-0.1,0.1-0.2,0.4-0.2
	c0.3,0,0.5,0.1,0.6,0.2L54.2,46.8z M66,46.6c-0.3,0-0.4,0.1-0.5,0.3v-0.2H65v2h0.4v-1.1c0-0.3,0.1-0.5,0.4-0.5c0.1,0,0.2,0,0.3,0.1
	l0.1-0.4C66.2,46.6,66.1,46.6,66,46.6L66,46.6z M60.3,47.6c0,0.6,0.4,1.1,1.1,1.1c0.3,0,0.5-0.1,0.7-0.2l-0.2-0.4
	c-0.2,0.1-0.3,0.2-0.5,0.2c-0.4,0-0.6-0.3-0.6-0.6c0-0.4,0.3-0.6,0.6-0.6c0.2,0,0.4,0.1,0.5,0.2l0.2-0.4c-0.2-0.2-0.4-0.2-0.7-0.2
	C60.8,46.6,60.3,47,60.3,47.6L60.3,47.6z M64.4,47.6v-1H64v0.2c-0.1-0.2-0.4-0.3-0.6-0.3c-0.6,0-1,0.4-1,1.1c0,0.6,0.4,1.1,1,1.1
	c0.3,0,0.5-0.1,0.6-0.3v0.2h0.4V47.6z M62.8,47.6c0-0.4,0.2-0.6,0.6-0.6c0.4,0,0.6,0.3,0.6,0.6c0,0.4-0.2,0.6-0.6,0.6
	C63,48.3,62.8,48,62.8,47.6L62.8,47.6z M57.5,46.6c-0.6,0-1,0.4-1,1.1c0,0.6,0.4,1.1,1,1.1c0.3,0,0.6-0.1,0.8-0.3l-0.2-0.3
	c-0.2,0.1-0.4,0.2-0.6,0.2c-0.3,0-0.5-0.1-0.6-0.5h1.5c0-0.1,0-0.1,0-0.2C58.5,47,58.1,46.6,57.5,46.6L57.5,46.6z M57.5,47
	c0.3,0,0.5,0.2,0.5,0.5h-1C57,47.1,57.2,47,57.5,47L57.5,47z M68.5,47.6v-1.8h-0.4v1.1c-0.1-0.2-0.4-0.3-0.6-0.3c-0.6,0-1,0.4-1,1.1
	c0,0.6,0.4,1.1,1,1.1c0.3,0,0.5-0.1,0.6-0.3v0.2h0.4V47.6z M69,48.4C69.1,48.4,69.1,48.4,69,48.4C69.1,48.5,69.1,48.5,69,48.4
	c0.1,0,0.1,0.1,0.1,0.1c0,0,0,0,0,0c0,0,0,0,0,0c0,0,0,0,0,0c0,0,0,0,0,0c0,0,0,0-0.1,0c0,0,0,0-0.1,0c0,0,0,0,0,0c0,0,0,0,0,0
	c0,0,0,0,0,0c0,0,0,0,0,0C68.9,48.5,68.9,48.5,69,48.4C69,48.5,69,48.5,69,48.4C69,48.4,69,48.4,69,48.4z M69,48.7
	C69.1,48.7,69.1,48.7,69,48.7C69.1,48.7,69.1,48.7,69,48.7C69.1,48.6,69.1,48.6,69,48.7c0.1-0.1,0.1-0.1,0.1-0.1c0,0,0,0,0,0
	c0,0,0,0,0,0c0,0,0,0,0,0c0,0,0,0,0,0c0,0,0,0,0,0c0,0,0,0,0,0c0,0,0,0,0,0c0,0,0,0,0,0C68.9,48.6,68.9,48.6,69,48.7
	C69,48.6,69,48.6,69,48.7C69,48.7,69,48.7,69,48.7C69,48.7,69,48.7,69,48.7z M69.1,48.5C69.1,48.5,69.1,48.5,69.1,48.5
	C69.1,48.5,69.1,48.5,69.1,48.5C69.1,48.6,69.1,48.6,69.1,48.5C69.1,48.6,69.1,48.6,69.1,48.5l0,0.1h0L69.1,48.5L69.1,48.5l0,0.1h0
	L69.1,48.5L69.1,48.5z M69,48.5L69,48.5L69,48.5C69.1,48.6,69.1,48.6,69,48.5C69.1,48.6,69.1,48.6,69,48.5
	C69.1,48.5,69.1,48.5,69,48.5C69.1,48.5,69.1,48.5,69,48.5L69,48.5z M66.9,47.6c0-0.4,0.2-0.6,0.6-0.6c0.4,0,0.6,0.3,0.6,0.6
	c0,0.4-0.2,0.6-0.6,0.6C67.1,48.3,66.9,48,66.9,47.6L66.9,47.6z M52,47.6v-1h-0.4v0.2c-0.1-0.2-0.4-0.3-0.6-0.3c-0.6,0-1,0.4-1,1.1
	c0,0.6,0.4,1.1,1,1.1c0.3,0,0.5-0.1,0.6-0.3v0.2H52V47.6z M50.4,47.6c0-0.4,0.2-0.6,0.6-0.6c0.4,0,0.6,0.3,0.6,0.6
	c0,0.4-0.2,0.6-0.6,0.6C50.6,48.3,50.4,48,50.4,47.6z"/>
<rect x="54" y="30.9" class="st4" width="6.9" height="12.4"/>
<path id="XMLID_1_" class="st5" d="M54.5,37.1c0-2.5,1.2-4.8,3-6.2c-1.3-1.1-3-1.7-4.9-1.7c-4.4,0-7.9,3.5-7.9,7.9
	c0,4.4,3.5,7.9,7.9,7.9c1.8,0,3.5-0.6,4.9-1.7C55.6,41.9,54.5,39.6,54.5,37.1z"/>
<path class="st6" d="M70.3,37.1c0,4.4-3.5,7.9-7.9,7.9c-1.8,0-3.5-0.6-4.9-1.7c1.8-1.4,3-3.7,3-6.2c0-2.5-1.2-4.8-3-6.2
	c1.3-1.1,3-1.7,4.9-1.7C66.7,29.2,70.3,32.7,70.3,37.1z M69.6,42.8v-0.5h0.2v-0.1h-0.5v0.1h0.2v0.5H69.6z M70.7,42.8v-0.6h-0.2
	l-0.2,0.4l-0.2-0.4H70v0.6h0.1v-0.5l0.2,0.4h0.1l0.2-0.4v0.5H70.7z"/>
<polygon class="st7" points="77.1,27.8 111.9,27.8 111.9,50.1 77.1,50.1 77.1,27.8 "/>
<path class="st8" d="M94.5,45.7c1.8-1.7,3-4,3-6.7c0-2.7-1.1-5.1-3-6.7c-1.6-1.5-3.7-2.3-6-2.3c-5,0-9,4.1-9,9.1c0,5,4,9.1,9,9.1
	C90.8,48,92.9,47.1,94.5,45.7L94.5,45.7z"/>
<path class="st9" d="M100.5,29.9c-2.3,0-4.4,0.9-6,2.3c-0.3,0.3-0.6,0.6-0.9,1h1.8c0.2,0.3,0.5,0.6,0.7,1h-3.2
	c-0.2,0.3-0.4,0.6-0.5,1h4.2c0.1,0.3,0.3,0.6,0.4,1h-5c-0.1,0.3-0.2,0.6-0.3,1h5.5c0.1,0.6,0.2,1.3,0.2,1.9c0,1-0.2,2-0.5,2.9h-5
	c0.1,0.3,0.2,0.6,0.4,1h4.2c-0.2,0.3-0.3,0.7-0.5,1h-3.2c0.2,0.3,0.4,0.7,0.7,1h1.8c-0.3,0.3-0.6,0.7-0.9,1c1.6,1.5,3.7,2.3,6,2.3
	c5,0,9-4.1,9-9.1C109.5,34,105.5,29.9,100.5,29.9L100.5,29.9z"/>
<path class="st9" d="M108.3,44c0-0.2,0.1-0.3,0.3-0.3c0.2,0,0.3,0.1,0.3,0.3c0,0.2-0.1,0.3-0.3,0.3C108.4,44.3,108.3,44.2,108.3,44
	L108.3,44z M108.6,44.2c0.1,0,0.2-0.1,0.2-0.2c0-0.1-0.1-0.2-0.2-0.2c-0.1,0-0.2,0.1-0.2,0.2C108.4,44.1,108.5,44.2,108.6,44.2
	L108.6,44.2z M108.5,44.1L108.5,44.1l-0.1-0.3h0.1c0,0,0,0,0.1,0c0,0,0,0,0,0.1c0,0,0,0.1,0,0.1l0,0.1H108.5l0-0.1h0V44.1V44h0
	c0,0,0,0,0,0c0,0,0,0,0,0c0,0,0,0,0,0c0,0,0,0,0,0h0V44V44.1L108.5,44.1z"/>
<path class="st7" d="M106.4,40.9c0-0.2,0.1-0.3,0.3-0.3c0.2,0,0.3,0.1,0.3,0.3c0,0.2-0.1,0.3-0.3,0.3
	C106.5,41.2,106.4,41.1,106.4,40.9L106.4,40.9z M106.7,41.1c0.1,0,0.2-0.1,0.2-0.2c0-0.1-0.1-0.2-0.2-0.2c-0.1,0-0.2,0.1-0.2,0.2
	C106.5,41,106.6,41.1,106.7,41.1L106.7,41.1z M106.6,41L106.6,41l-0.1-0.3h0.1c0,0,0,0,0.1,0c0,0,0,0,0,0.1c0,0,0,0.1,0,0.1l0,0.1
	H106.6l0-0.1h0V41v-0.1h0c0,0,0,0,0,0c0,0,0,0,0,0c0,0,0,0,0,0c0,0,0,0,0,0h0v0.1V41L106.6,41z"/>
<polygon class="st7" points="87.3,41.2 86.2,41.2 86.9,37.7 85.3,41.2 84.3,41.2 84.1,37.7 83.5,41.2 82.4,41.2 83.3,36.6 
	85.1,36.6 85.1,39.5 86.4,36.6 88.2,36.6 87.3,41.2 "/>
<path class="st7" d="M99.8,41.2c-0.3,0.1-0.5,0.1-0.8,0.1c-0.6,0-0.9-0.3-0.9-0.8c0-0.1,0-0.2,0-0.3l0.1-0.4l0.1-0.3l0.5-2.8h1.1
	l-0.2,0.9h0.6l-0.2,0.9h-0.6l-0.3,1.6c0,0.1,0,0.1,0,0.2c0,0.2,0.1,0.3,0.4,0.3c0.1,0,0.2,0,0.3,0L99.8,41.2L99.8,41.2z"/>
<path class="st7" d="M103.1,37.5c-0.1,0-0.1,0-0.1,0c-0.1,0-0.1,0-0.1,0c0,0-0.1,0-0.1,0c-0.4,0-0.6,0.2-1,0.6l0.1-0.6h-1l-0.7,3.7
	h1.1c0.4-2.3,0.6-2.7,1.1-2.7c0,0,0.1,0,0.1,0l0.1,0L103.1,37.5L103.1,37.5z"/>
<path class="st7" d="M95.4,38.7c0,0.5,0.3,0.8,0.9,1c0.5,0.2,0.5,0.2,0.5,0.4c0,0.2-0.2,0.3-0.6,0.3c-0.3,0-0.7,0-1-0.1L95,41.2
	l0.1,0l0.2,0c0.1,0,0.2,0,0.3,0c0.3,0,0.5,0,0.6,0c1.2,0,1.7-0.4,1.7-1.2c0-0.5-0.2-0.8-0.8-1c-0.5-0.2-0.5-0.2-0.5-0.4
	c0-0.2,0.2-0.3,0.6-0.3c0.2,0,0.5,0,0.8,0.1l0.2-0.9c-0.3,0-0.7-0.1-1-0.1C95.8,37.4,95.4,38,95.4,38.7L95.4,38.7z"/>
<path class="st7" d="M91,41.2H90l0-0.4c-0.3,0.3-0.7,0.5-1.2,0.5c-0.6,0-1-0.4-1-1c0-0.9,0.7-1.4,2-1.4c0.1,0,0.3,0,0.5,0
	c0-0.1,0-0.2,0-0.2c0-0.2-0.2-0.3-0.7-0.3c-0.3,0-0.7,0-0.9,0.1l-0.2,0l-0.1,0l0.2-0.8c0.6-0.1,0.9-0.2,1.3-0.2c1,0,1.5,0.4,1.5,1.1
	c0,0.2,0,0.3-0.1,0.7L91,40.5l0,0.2l0,0.2l0,0.1L91,41.2L91,41.2z M90.1,39.5c-0.1,0-0.2,0-0.2,0c-0.6,0-1,0.2-1,0.6
	c0,0.2,0.2,0.4,0.4,0.4C89.8,40.5,90.1,40.1,90.1,39.5L90.1,39.5z"/>
<path class="st7" d="M94.6,41.1c-0.4,0.1-0.8,0.2-1.1,0.2c-1.3,0-1.9-0.6-1.9-1.7c0-1.3,0.8-2.2,2-2.2c0.9,0,1.5,0.5,1.5,1.4
	c0,0.3,0,0.5-0.1,0.9h-2.2c0,0.1,0,0.1,0,0.1c0,0.4,0.3,0.7,1,0.7c0.4,0,0.8-0.1,1.2-0.2L94.6,41.1L94.6,41.1z M94,38.9
	c0-0.1,0-0.1,0-0.2c0-0.3-0.2-0.5-0.5-0.5c-0.4,0-0.6,0.2-0.7,0.7L94,38.9L94,38.9z"/>
<path class="st7" d="M106.6,39.5c-0.2,1.2-1,1.8-2.2,1.8c-1.3,0-1.8-0.8-1.8-1.7c0-1.3,0.9-2.2,2.2-2.2c1.2,0,1.8,0.7,1.8,1.7
	C106.6,39.3,106.6,39.3,106.6,39.5L106.6,39.5z M105.4,39c0-0.4-0.2-0.8-0.6-0.8c-0.6,0-0.9,0.7-0.9,1.3c0,0.5,0.2,0.8,0.6,0.8
	c0.2,0,0.8-0.3,0.9-0.9C105.4,39.3,105.4,39.2,105.4,39L105.4,39z"/>
<polygon class="st1" points="113.9,27.8 148.7,27.8 148.7,50.1 113.9,50.1 113.9,27.8 "/>
<circle cx="131.3" cy="39" r="10.1"/>
<path class="st1" d="M123.2,41.5c-0.1-0.1-0.2-0.3-0.2-0.5c-0.4-0.9-0.4-1.7-0.1-2.6c0.3-0.9,1-1.6,1.8-2c1.1-0.5,2.2-0.4,3.2,0.2
	c0.6,0.4,1.1,0.9,1.4,1.7c0,0.1,0.1,0.2,0.1,0.3L123.2,41.5z M125.4,37.8c-0.8,0.3-1.1,1-1.1,1.8l3.2-1.4
	C126.9,37.7,126.2,37.5,125.4,37.8L125.4,37.8z M127.9,40.8C127.9,40.8,127.9,40.8,127.9,40.8L127.9,40.8c-0.3,0.3-0.6,0.5-0.9,0.7
	c-0.7,0.3-1.4,0.2-1.8-0.2l0,0.1c0,0,0,0,0,0l-0.8,1.2c0.2,0.1,0.4,0.3,0.6,0.4c0.9,0.4,1.8,0.4,2.7,0c0.6-0.3,1.2-0.7,1.5-1.3
	L127.9,40.8z M131.8,34.7v6.7l1,0.4l-0.6,1.4l-1.2-0.5c-0.3-0.1-0.4-0.3-0.6-0.5c-0.1-0.2-0.2-0.5-0.2-0.8v-6.7H131.8z"/>
<path class="st10" d="M136.4,36.2c-0.4,0-0.8,0.1-1.1,0.2l0.5,1.5c0.2-0.1,0.4-0.1,0.6-0.1c0.9,0,1.7,0.7,1.9,1.5l1.6-0.3
	C139.5,37.4,138.1,36.2,136.4,36.2L136.4,36.2z"/>
<path class="st11" d="M134.5,39.7c0-0.6,0.3-1.1,0.7-1.4l-1.1-1.2c-0.7,0.6-1.2,1.6-1.2,2.6c0,1,0.5,2,1.2,2.6l1.1-1.2
	C134.7,40.8,134.5,40.3,134.5,39.7L134.5,39.7z"/>
<path class="st12" d="M136.4,41.6c-0.2,0-0.4,0-0.6-0.1l-0.5,1.5c0.3,0.1,0.7,0.2,1.1,0.2c1.7,0,3.1-1.2,3.4-2.8l-1.6-0.3
	C138.1,40.9,137.3,41.6,136.4,41.6L136.4,41.6z"/>
<polygon class="st1" points="150.6,27.8 185.5,27.8 185.5,50.1 150.6,50.1 150.6,27.8 "/>
<path class="st13" d="M172.7,30.1c-1.8,0-3.5,0.5-4.9,1.5c-0.1,0.1-0.8,0.6-0.8,0.6c-1.2,0.9-1.9,1-3,0.8c-0.1,0-0.4-0.1-0.5-0.2
	c-3.4-1.3-7.2,0.4-8.5,3.9c-1.3,3.4,0.4,7.2,3.9,8.5c1.4,0.5,3,0.6,4.4,0.1c1.6-0.5,2.4-0.3,3.4,0.4c0.2,0.1,0.7,0.4,0.8,0.5
	c4,2.9,9.5,2.1,12.4-1.9c2.9-4,2.1-9.5-1.9-12.4C176.4,30.7,174.6,30.1,172.7,30.1z"/>
<path class="st1" d="M169.5,40.3c-0.5,0.5-1.3,0.6-1.9,0.2l-0.6,0.9c1.1,0.7,2.4,0.5,3.3-0.4L169.5,40.3z M168.4,36.5
	c-1.5,0-2.7,1.2-2.7,2.6c0,0.5,0.1,1.1,0.4,1.5l4.9-2.1C170.7,37.4,169.7,36.5,168.4,36.5L168.4,36.5z M166.8,39.4
	c-0.1-0.9,0.5-1.6,1.4-1.7c0.5-0.1,1,0.2,1.4,0.6L166.8,39.4z M172.5,35.3v5.2l0.9,0.4l-0.4,1l-0.9-0.4c-0.2-0.1-0.3-0.2-0.4-0.4
	c-0.1-0.2-0.2-0.4-0.2-0.6v-5.2H172.5z M164.7,35.3v5.2l0.9,0.4l-0.4,1l-0.9-0.4c-0.2-0.1-0.3-0.2-0.4-0.4c-0.1-0.2-0.2-0.4-0.2-0.6
	v-5.2H164.7z"/>
<path class="st14" d="M177,37.8c0.8,0.4,1.1,1.3,0.7,2.1c0,0,0,0,0,0l1,0.5c0.6-1.3,0.1-2.9-1.3-3.6c-1-0.5-2.2-0.3-3,0.4l0.7,0.8
	C175.7,37.6,176.4,37.5,177,37.8L177,37.8z"/>
<path class="st1" d="M175.6,40.6c-0.8-0.4-1.1-1.3-0.7-2.1l-1-0.5c-0.6,1.3-0.1,2.9,1.3,3.6c1,0.5,2.1,0.3,3-0.4l-0.7-0.8
	C176.9,40.8,176.2,40.9,175.6,40.6z M162.7,40.7v-1.5c0-1.5-1.2-2.7-2.7-2.7c-1.5,0-2.7,1.2-2.7,2.7c0,1.5,1.2,2.7,2.7,2.7
	c0.4,0,0.8-0.1,1.2-0.3l-0.4-1c-0.8,0.4-1.7,0.1-2.2-0.6c-0.1-0.2-0.2-0.5-0.2-0.8c0-0.3,0.1-0.5,0.2-0.7c0.2-0.4,0.6-0.7,1-0.8
	c0.1,0,0.2,0,0.4,0c0.9,0,1.6,0.7,1.6,1.6v1.5c0,0.2,0.1,0.4,0.2,0.6c0.1,0.2,0.3,0.3,0.4,0.4l0.5,0.2l0.4-1L162.7,40.7z"/>
<polygon class="st15" points="187.4,27.8 222.2,27.8 222.2,50.1 187.4,50.1 187.4,27.8 "/>
<path class="st1" d="M217.7,41.1l0.7-1.5h-2.3c-0.2,0-0.4,0-0.5,0.1l0-0.1h-2.3c-0.4,0-0.7,0.1-0.9,0.2v-0.2H209v0.2
	c-0.2-0.1-0.5-0.2-0.8-0.2H206v0.2c-0.2-0.2-0.6-0.2-0.9-0.2h-0.7l0,0h-2.2l-0.5,0.6l-0.5-0.6h-0.7H199h-2v4h2h1.5h0.8l0.4-0.6
	l0.4,0.6h0.8v0h1.8v-0.9h0.3c0.4,0,0.7-0.1,1-0.3v1.2h1.8V43l0.5,0.6h0.8h1.5h1.3h0.7h1.4c0.2,0,0.5,0,0.6-0.1v0.1h2.1
	c0.9,0,1.5-0.6,1.5-1.5C218.1,41.7,218,41.3,217.7,41.1z M202.8,41.6l0.1-0.1v0.3L202.8,41.6z M200.4,41.4l0.2,0.2l-0.2,0.2V41.4z"
	/>
<path id="path3062_1_" class="st15" d="M197.5,43.1v-3h2.4v0.7h-1.7v0.5h1.6v0.6h-1.6v0.5h1.7v0.7L197.5,43.1z"/>
<path id="path3064_1_" class="st15" d="M209.5,43.1v-3h2.4v0.7h-1.7v0.5h1.6v0.6h-1.6v0.5h1.7v0.7L209.5,43.1z"/>
<path id="path3066_1_" class="st15" d="M200.1,43.1l1.2-1.5l-1.2-1.5h0.9l0.7,0.9l0.7-0.9h0.9l-1.2,1.5l1.2,1.5h-0.9l-0.7-0.9
	l-0.7,0.9L200.1,43.1z"/>
<path id="path3068_1_" class="st15" d="M203.4,40.1v3h0.8v-0.9h0.8c0.7,0,1.2-0.4,1.2-1c0-0.6-0.4-1-1.1-1H203.4L203.4,40.1z
	 M204.2,40.7h0.8c0.2,0,0.4,0.1,0.4,0.3c0,0.2-0.2,0.3-0.4,0.3h-0.8V40.7L204.2,40.7z"/>
<path id="path3072_1_" class="st15" d="M206.5,40.1v3h0.7V42h0.3l0.9,1.1h0.9l-1-1.1c0.4,0,0.8-0.4,0.8-0.9c0-0.6-0.5-1-1-1
	L206.5,40.1L206.5,40.1z M207.2,40.7h0.9c0.2,0,0.4,0.2,0.4,0.3c0,0.2-0.2,0.3-0.3,0.3h-0.9V40.7z"/>
<path id="path3074_1_" class="st15" d="M212.3,43.1v-0.7h1.5c0.2,0,0.3-0.1,0.3-0.3c0-0.1-0.1-0.3-0.3-0.3h-0.7
	c-0.6,0-0.9-0.4-0.9-0.9c0-0.5,0.3-0.9,1.2-0.9h1.5l-0.3,0.7h-1.3c-0.2,0-0.3,0.1-0.3,0.2c0,0.1,0.1,0.3,0.3,0.3h0.7
	c0.7,0,0.9,0.4,0.9,0.9c0,0.5-0.3,1-1,1H212.3z"/>
<path id="path3076_1_" class="st15" d="M215,43.1v-0.7h1.5c0.2,0,0.3-0.1,0.3-0.3c0-0.1-0.1-0.3-0.3-0.3h-0.7
	c-0.6,0-0.9-0.4-0.9-0.9c0-0.5,0.3-0.9,1.2-0.9h1.5l-0.3,0.7H216c-0.2,0-0.3,0.1-0.3,0.2c0,0.1,0.1,0.3,0.3,0.3h0.7
	c0.7,0,0.9,0.4,0.9,0.9c0,0.5-0.3,1-1,1H215z"/>
<path class="st1" d="M214.1,34.3V35l-0.4-0.7h-1.7v1.2l-0.5-1.2h-1.6l-1.3,0c-0.5,0-1,0.2-1.3,0.4v-0.4h-1.8v0.2
	c-0.2-0.1-0.5-0.2-0.8-0.2h-1.6l-5,0l-0.3,0.9l-0.3-0.9l-2.1,0v1.2l-0.5-1.2H193l-1.7,4h2l0.2-0.6h0.7l0.2,0.6h2l0,0h3.1h0.5h2.4v0
	h1.8v-0.6l0.5,0.6h2.3l0,0h0.3v-0.4c0.2,0.2,0.5,0.3,0.9,0.4l0,0h2l0.2-0.6h0.7l0.2,0.6h2l0,0h0.6v-0.7l0.5,0.7h1.7v-4H214.1z
	 M208.6,36.7c-0.2,0-0.3,0-0.3-0.3c0-0.1,0-0.3,0.2-0.3h0.5l-0.3,0.6H208.6z"/>
<path id="path3046_1_" class="st15" d="M193.4,34.8l-1.3,3h0.8l0.2-0.6h1.4l0.2,0.6h0.9l-1.3-3L193.4,34.8L193.4,34.8z M193.8,35.5
	l0.4,1h-0.8L193.8,35.5z"/>
<path id="path3048_1_" class="st15" d="M195.7,37.8v-3l1.2,0l0.7,1.9l0.7-1.9h1.2v3h-0.7v-2.2l-0.8,2.2h-0.7l-0.8-2.2v2.2H195.7z"/>
<path id="path3050_1_" class="st15" d="M200,37.8v-3h2.4v0.7h-1.7V36h1.6v0.6h-1.6v0.5h1.7v0.7L200,37.8z"/>
<path id="path3052_1_" class="st15" d="M202.8,34.8v3h0.7v-1.1h0.3l0.9,1.1h0.9l-1-1.1c0.4,0,0.8-0.4,0.8-0.9c0-0.6-0.5-1-1-1
	L202.8,34.8L202.8,34.8z M203.6,35.5h0.9c0.2,0,0.4,0.2,0.4,0.3c0,0.2-0.2,0.3-0.3,0.3h-0.9V35.5L203.6,35.5z"/>
<path id="path3054_1_" class="st15" d="M206.6,37.8h-0.8v-3h0.8V37.8z"/>
<path id="path3056_1_" class="st15" d="M208.4,37.8h-0.2c-0.8,0-1.3-0.6-1.3-1.5c0-0.9,0.5-1.5,1.5-1.5h0.8v0.7h-0.9
	c-0.4,0-0.7,0.3-0.7,0.8c0,0.6,0.3,0.8,0.8,0.8h0.2L208.4,37.8z"/>
<path id="path3058_1_" class="st15" d="M210.1,34.8l-1.3,3h0.8l0.2-0.6h1.4l0.2,0.6h0.9l-1.3-3L210.1,34.8L210.1,34.8z M210.5,35.5
	l0.4,1h-0.8L210.5,35.5L210.5,35.5z"/>
<path id="path3060_1_" class="st15" d="M212.4,37.8v-3h1l1.2,1.9v-1.9h0.7v3h-0.9l-1.2-1.9v1.9H212.4z"/>
<polygon class="st1" points="224.2,27.8 259,27.8 259,50.1 224.2,50.1 224.2,27.8 "/>
<path class="st16" d="M235.5,33.1h-2.8c-1.2,0.1-2.3,0.6-2.5,1.6c-0.2,0.5-0.2,1.1-0.4,1.7c-0.6,2.8-1.1,5.7-1.7,8.5h21.9
	c1.7,0,2.9-0.4,3.2-1.7c0.1-0.6,0.3-1.3,0.4-2c0.5-2.7,1.1-5.3,1.6-8.1H235.5z"/>
<path class="st1" d="M235.3,37.2c0.1-0.1,0.3-0.4,0.1-0.6c-0.1,0-0.1-0.1-0.3,0c-0.1,0-0.2,0.1-0.2,0.1c-0.1,0.1-0.1,0.4,0,0.5
	C235,37.4,235.2,37.3,235.3,37.2z M233.6,36.6c-0.1,0.5-0.2,1.1-0.3,1.6c-0.6,0-1.2,0-1.8,0c0.1-0.5,0.2-1.1,0.3-1.6h-0.7
	c-0.2,1.3-0.4,2.7-0.7,4h0.7c0.1-0.7,0.2-1.3,0.3-2c0.6,0,1.3,0,1.8,0c-0.1,0.7-0.3,1.3-0.4,2h0.7c0.2-1.4,0.4-2.7,0.7-4H233.6z
	 M243.1,37.8c-0.5-0.2-0.9,0.1-1.1,0.5c0-0.1,0.1-0.3,0.1-0.5h-0.5c-0.1,1-0.3,1.9-0.5,2.8h0.6c0.1-0.6,0.1-1.3,0.3-1.8
	c0.1-0.4,0.5-0.8,1.1-0.6C243.1,38.1,243.1,37.9,243.1,37.8z M243.4,40c-0.1-0.1-0.1-0.4-0.1-0.5c0-0.4,0.2-0.9,0.4-1.1
	c0.3-0.3,0.9-0.3,1.4-0.1c0-0.2,0-0.3,0.1-0.5c-0.8-0.1-1.5,0-1.9,0.4c-0.4,0.4-0.6,1.4-0.5,1.9c0.2,0.7,1.2,0.7,1.9,0.5
	c0-0.1,0.1-0.3,0.1-0.4C244.4,40.3,243.6,40.5,243.4,40z M250.1,37.8c-0.5-0.3-1,0.2-1.1,0.4c0-0.1,0.1-0.3,0.1-0.5h-0.5
	c-0.1,1-0.3,1.9-0.5,2.8h0.6c0-0.4,0.1-0.7,0.1-1c0.1-0.8,0.3-1.7,1.2-1.4C250,38.1,250,37.9,250.1,37.8L250.1,37.8z M234.7,37.8
	C234.7,37.8,234.7,37.8,234.7,37.8c-0.1,1-0.3,1.9-0.5,2.8h0.6c0.1-1,0.3-1.9,0.5-2.8L234.7,37.8L234.7,37.8z M239.9,37.7
	c-0.4,0-0.8,0.2-1,0.4c-0.3,0.3-0.6,1.1-0.5,1.7c0.1,0.9,1.3,0.9,2.2,0.7c0-0.2,0.1-0.3,0.1-0.5c-0.4,0.1-1.1,0.3-1.5,0.1
	c-0.3-0.2-0.3-0.7-0.2-1.1c0.6,0,1.3,0,1.9,0c0-0.3,0.2-0.6,0.1-0.9C240.8,37.8,240.4,37.7,239.9,37.7z M240.4,38.8h-1.4
	c0-0.3,0.3-0.7,0.8-0.7C240.3,38.1,240.6,38.3,240.4,38.8L240.4,38.8z M237.6,37.8c-0.5-0.2-1.1,0-1.4,0.2c0,0,0,0,0,0c0,0,0,0,0,0
	c0,0,0,0,0,0c0-0.1,0-0.2,0-0.2h-0.5c-0.2,1.4-0.5,2.8-0.7,4.1h0.6c0.1-0.5,0.1-1.1,0.3-1.6c0.1,0.5,1,0.4,1.4,0.2
	C238.1,40.1,238.7,38.2,237.6,37.8L237.6,37.8z M237.2,40.1c-0.3,0.3-1.1,0.3-1.2-0.2c0-0.2,0.1-0.5,0.1-0.8c0-0.3,0.1-0.5,0.1-0.7
	c0.3-0.4,1.2-0.4,1.3,0.2C237.7,39.2,237.4,39.8,237.2,40.1z M252.3,36.6c-0.1,0.4-0.1,0.9-0.2,1.3c-1.4-0.5-2.3,0.6-2.3,1.9
	c0,0.3,0,0.5,0.2,0.7c0.3,0.3,1.1,0.4,1.5,0.1c0.1-0.1,0.2-0.1,0.2-0.2c0,0,0.1-0.2,0.1-0.1c0,0.1-0.1,0.3-0.1,0.4h0.5
	c0.1-1.5,0.4-2.7,0.7-4.1L252.3,36.6L252.3,36.6L252.3,36.6z M250.9,40.3c-0.4,0-0.6-0.2-0.6-0.6c0-0.7,0.3-1.5,0.9-1.6
	c0.3,0,0.5,0,0.7,0.1C251.8,39,251.9,40.3,250.9,40.3z M245.9,37.8c0,0.2-0.1,0.3-0.1,0.5c0.3-0.1,1.4-0.4,1.5,0.1
	c0,0.2,0,0.3-0.1,0.4c-1-0.1-1.8,0.1-2,0.8c-0.1,0.5,0,0.9,0.3,1.1c0.6,0.2,1.3,0,1.5-0.4c0,0.1,0,0.3,0,0.4h0.5
	c0-0.5,0.1-0.9,0.2-1.3c0.1-0.4,0.2-0.7,0.2-1.1C247.8,37.5,246.6,37.8,245.9,37.8L245.9,37.8z M246.8,40.1
	c-0.3,0.3-1.2,0.4-1.1-0.3c0.1-0.6,0.7-0.7,1.4-0.6C247.1,39.5,247,39.9,246.8,40.1L246.8,40.1z"/>
<polygon class="st1" points="261,27.8 295.8,27.8 295.8,50.1 261,50.1 261,27.8 "/>
<path class="st17" d="M279.5,39.9c2.8,0,5.3-2.2,5.3-5c0-3-2.5-5.1-5.3-5.1h-2.4c-2.8,0-5.1,2.1-5.1,5.1c0,2.8,2.3,5,5.1,5H279.5z"
	/>
<path class="st1" d="M277.1,30.2c-2.5,0-4.6,2.1-4.6,4.6c0,2.5,2.1,4.6,4.6,4.6c2.5,0,4.6-2.1,4.6-4.6
	C281.8,32.3,279.7,30.2,277.1,30.2z M274.2,34.9L274.2,34.9c0-1.2,0.8-2.3,1.9-2.7v5.5C275,37.2,274.2,36.1,274.2,34.9z M278.2,37.6
	L278.2,37.6v-5.5c1.1,0.4,1.9,1.5,1.9,2.7C280.1,36.1,279.3,37.2,278.2,37.6z"/>
<path class="st17" d="M279.5,39.9c2.8,0,5.3-2.2,5.3-5c0-3-2.5-5.1-5.3-5.1h-2.4c-2.8,0-5.1,2.1-5.1,5.1c0,2.8,2.3,5,5.1,5H279.5z"
	/>
<path class="st1" d="M277.1,30.2c-2.5,0-4.6,2.1-4.6,4.6c0,2.5,2.1,4.6,4.6,4.6c2.5,0,4.6-2.1,4.6-4.6
	C281.8,32.3,279.7,30.2,277.1,30.2z M274.2,34.9L274.2,34.9c0-1.2,0.8-2.3,1.9-2.7v5.5C275,37.2,274.2,36.1,274.2,34.9z M278.2,37.6
	L278.2,37.6v-5.5c1.1,0.4,1.9,1.5,1.9,2.7C280.1,36.1,279.3,37.2,278.2,37.6z"/>
<path class="st18" d="M266.4,41.7c0-0.5-0.2-0.4-0.5-0.5v-0.1c0.2,0,0.4,0,0.6,0c0.2,0,0.5,0,0.9,0c1.4,0,2.1,0.9,2.1,1.9
	c0,0.5-0.3,1.8-2.2,1.8c-0.3,0-0.5,0-0.8,0c-0.2,0-0.5,0-0.7,0v-0.1c0.3,0,0.5,0,0.5-0.4L266.4,41.7L266.4,41.7z M266.9,44.2
	L266.9,44.2c0,0.4,0.3,0.5,0.6,0.5c1.1,0,1.5-0.9,1.5-1.7c0-1-0.6-1.7-1.7-1.7c-0.2,0-0.3,0-0.4,0V44.2L266.9,44.2z"/>
<path class="st18" d="M269.8,44.7h0.1c0.1,0,0.3,0,0.3-0.2v-1.4c0-0.2-0.1-0.3-0.3-0.4v-0.1c0.2-0.1,0.5-0.2,0.6-0.2
	c0,0,0.1,0,0.1,0c0,0,0,0,0,0.1v2c0,0.2,0.1,0.2,0.3,0.2h0.1v0.1c-0.2,0-0.4,0-0.6,0c-0.2,0-0.4,0-0.6,0V44.7L269.8,44.7z
	 M270.3,41.6L270.3,41.6c-0.1,0-0.3-0.1-0.3-0.3c0-0.1,0.1-0.3,0.3-0.3c0.1,0,0.3,0.1,0.3,0.3C270.6,41.5,270.5,41.6,270.3,41.6z"/>
<path class="st18" d="M271.4,43.1c0-0.2-0.1-0.2-0.3-0.3v-0.1c0.2-0.1,0.4-0.1,0.7-0.3c0,0,0,0,0,0.1v0.3c0.3-0.2,0.6-0.4,0.9-0.4
	c0.5,0,0.6,0.3,0.6,0.7v1.4c0,0.2,0.1,0.2,0.3,0.2h0.1v0.1c-0.2,0-0.4,0-0.6,0c-0.2,0-0.4,0-0.6,0v-0.1h0.1c0.1,0,0.3,0,0.3-0.2
	v-1.4c0-0.3-0.2-0.5-0.5-0.5c-0.2,0-0.4,0.1-0.6,0.3v1.6c0,0.2,0.1,0.2,0.3,0.2h0.1v0.1c-0.2,0-0.4,0-0.6,0c-0.2,0-0.4,0-0.6,0v-0.1
	h0.1c0.1,0,0.3,0,0.3-0.2V43.1L271.4,43.1z"/>
<path class="st18" d="M274.1,43.4c0,0,0,0.1,0,0.3c0,0.5,0.4,0.9,0.8,0.9c0.3,0,0.5-0.2,0.7-0.4l0.1,0.1c-0.2,0.3-0.5,0.6-1,0.6
	c-0.8,0-1-0.8-1-1.2c0-1,0.7-1.3,1.1-1.3c0.4,0,0.9,0.3,0.9,0.8c0,0,0,0.1,0,0.1l0,0H274.1L274.1,43.4z M275,43.2L275,43.2
	c0.1,0,0.1-0.1,0.1-0.1c0-0.3-0.2-0.5-0.5-0.5c-0.3,0-0.5,0.2-0.6,0.6H275L275,43.2z"/>
<path class="st18" d="M275.8,44.7h0.1c0.1,0,0.3,0,0.3-0.2v-1.5c0-0.2-0.2-0.2-0.3-0.2v-0.1c0.4-0.2,0.6-0.3,0.6-0.3c0,0,0,0,0,0.1
	V43h0c0.1-0.2,0.4-0.5,0.7-0.5c0.1,0,0.3,0.1,0.3,0.3c0,0.1-0.1,0.3-0.2,0.3c-0.2,0-0.2-0.1-0.4-0.1c-0.1,0-0.4,0.1-0.4,0.4v1.2
	c0,0.2,0.1,0.2,0.3,0.2h0.3v0.1c-0.3,0-0.5,0-0.7,0c-0.2,0-0.4,0-0.6,0V44.7L275.8,44.7z"/>
<path class="st18" d="M277.8,44.1c0.1,0.4,0.3,0.6,0.7,0.6c0.3,0,0.4-0.2,0.4-0.4c0-0.6-1.2-0.4-1.2-1.3c0-0.3,0.2-0.7,0.8-0.7
	c0.2,0,0.4,0,0.6,0.2l0,0.5h-0.1c-0.1-0.3-0.2-0.5-0.6-0.5c-0.2,0-0.4,0.1-0.4,0.3c0,0.6,1.2,0.4,1.2,1.3c0,0.3-0.3,0.7-0.9,0.7
	c-0.2,0-0.5-0.1-0.6-0.2L277.8,44.1L277.8,44.1L277.8,44.1z"/>
<path class="st18" d="M284.1,42.1H284c-0.1-0.6-0.5-0.9-1.1-0.9c-0.6,0-1.5,0.4-1.5,1.7c0,1.1,0.8,1.8,1.6,1.8c0.5,0,1-0.4,1.1-0.9
	l0.1,0l-0.1,0.8c-0.2,0.1-0.8,0.3-1.2,0.3c-1.2,0-2-0.8-2-2c0-1.1,1-1.9,2-1.9c0.4,0,0.8,0.1,1.3,0.3L284.1,42.1L284.1,42.1z"/>
<path class="st18" d="M284.3,44.7h0.1c0.1,0,0.3,0,0.3-0.2v-3c0-0.3-0.1-0.4-0.3-0.4v-0.1c0.2-0.1,0.4-0.2,0.5-0.2
	c0.1,0,0.1-0.1,0.1-0.1c0,0,0,0,0,0.1v3.7c0,0.2,0.1,0.2,0.3,0.2h0.1v0.1c-0.2,0-0.4,0-0.6,0c-0.2,0-0.4,0-0.6,0L284.3,44.7
	L284.3,44.7z"/>
<path class="st18" d="M287.7,44.6c0,0.1,0.1,0.1,0.1,0.1c0.1,0,0.1,0,0.2,0v0.1c-0.2,0-0.7,0.1-0.8,0.2l0,0v-0.4
	c-0.3,0.3-0.6,0.4-0.9,0.4c-0.3,0-0.6-0.2-0.6-0.6V43c0-0.1,0-0.3-0.3-0.3v-0.1c0.2,0,0.6,0,0.7,0c0.1,0,0.1,0,0.1,0.2V44
	c0,0.2,0,0.6,0.5,0.6c0.2,0,0.4-0.1,0.6-0.3v-1.4c0-0.1-0.3-0.2-0.4-0.2v-0.1c0.5,0,0.8-0.1,0.8-0.1c0,0,0,0,0,0.1L287.7,44.6
	L287.7,44.6z"/>
<path class="st18" d="M288.8,42.8c0.2-0.2,0.5-0.4,0.8-0.4c0.6,0,1,0.5,1,1.1c0,0.7-0.5,1.4-1.3,1.4c-0.4,0-0.6-0.1-0.7-0.2
	l-0.2,0.1l-0.1-0.1c0-0.3,0.1-0.6,0.1-0.9v-2.3c0-0.3-0.1-0.4-0.3-0.4v-0.1c0.2-0.1,0.4-0.2,0.5-0.2c0.1,0,0.1-0.1,0.1-0.1
	c0,0,0,0,0,0.1V42.8L288.8,42.8L288.8,42.8z M288.8,44.3L288.8,44.3c0,0.2,0.2,0.5,0.5,0.5c0.6,0,0.8-0.6,0.8-1c0-0.6-0.4-1-0.8-1
	c-0.2,0-0.4,0.1-0.5,0.2V44.3L288.8,44.3z"/>
<path class="st18" d="M266.8,46c-0.1,0-0.3,0-0.5,0c-0.1,0-0.3,0-0.4,0h0v0.1v0h0.1c0.1,0,0.2,0,0.2,0.2v1.5c0,0.1-0.1,0.1-0.2,0.2
	h0h0v0V48v0h0c0.1,0,0.3,0,0.4,0c0.1,0,0.3,0,0.5,0h0v-0.1v0h-0.1c-0.1,0-0.2,0-0.2-0.2v-1.5c0-0.1,0.1-0.2,0.2-0.2h0h0L266.8,46
	L266.8,46L266.8,46z"/>
<path class="st18" d="M269.2,46c-0.1,0-0.2,0-0.4,0c-0.1,0-0.3,0-0.4,0h0v0.1v0h0.1c0.1,0,0.2,0,0.2,0.3v1.1l-1.3-1.4
	c-0.1,0-0.2,0-0.3,0c-0.1,0-0.2,0-0.3,0h0v0.1v0h0.1c0.1,0,0.2,0.1,0.3,0.2v1.2c0,0.2-0.1,0.4-0.2,0.4h0h0V48v0h0c0.1,0,0.3,0,0.4,0
	c0.1,0,0.2,0,0.4,0h0v-0.1v0h-0.1c-0.2,0-0.3-0.1-0.3-0.3v-1.2l1.5,1.6l0.1,0v0h0l0,0c0-0.1,0-0.2,0-0.3v-1.3c0-0.3,0.1-0.4,0.2-0.4
	h0h0L269.2,46L269.2,46L269.2,46z"/>
<path class="st18" d="M271.2,45.9L271.2,45.9L271.2,45.9c0,0.1-0.1,0.1-0.2,0.1h-1.5h0c-0.1,0-0.1,0-0.1-0.1l0,0h-0.1h0v0
	c0,0.1,0,0.2,0,0.2c0,0.1,0,0.2,0,0.2l0,0h0.1h0l0,0c0-0.2,0-0.2,0.3-0.3h0.5v1.5c0,0.2-0.1,0.2-0.2,0.2h-0.1h0V48v0h0
	c0.1,0,0.3,0,0.5,0c0.2,0,0.4,0,0.5,0h0v-0.1v0h-0.1c-0.1,0-0.2,0-0.2-0.2v-1.5h0.5c0.2,0,0.2,0.2,0.2,0.3l0,0l0.1,0l0,0v0
	c0-0.1,0-0.2,0-0.2C271.3,46.1,271.3,46,271.2,45.9L271.2,45.9L271.2,45.9z"/>
<path class="st18" d="M272.9,47.5L272.9,47.5L272.9,47.5c-0.1,0.3-0.2,0.4-0.6,0.4c-0.2,0-0.3,0-0.3-0.2v-0.7l0.3,0
	c0.2,0,0.2,0.1,0.2,0.3l0,0l0.1,0l0,0l0,0c0-0.1,0-0.2,0-0.3c0-0.1,0-0.2,0-0.3l0,0h-0.1h0l0,0c0,0.2,0,0.2-0.2,0.2H272l0-0.7h0.4
	c0.3,0,0.3,0.1,0.3,0.3l0,0l0.1,0l0,0l0,0c0-0.1,0-0.2,0-0.3c0-0.1,0-0.1,0-0.1l0,0h0c-0.2,0-0.5,0-0.7,0c-0.2,0-0.5,0-0.7,0h0v0.1
	v0h0.1c0.1,0,0.2,0,0.2,0.2v1.5c0,0.1-0.1,0.2-0.2,0.2h0h0v0V48v0h0c0.2,0,0.5,0,0.8,0c0.3,0,0.6,0,0.8,0h0l0,0
	C273,47.9,273,47.7,272.9,47.5L272.9,47.5L272.9,47.5z"/>
<path class="st18" d="M275.1,47.9c-0.1,0-0.2,0-0.3-0.2l-0.5-0.7c0.2-0.1,0.4-0.3,0.4-0.5c0-0.4-0.3-0.5-0.7-0.5c-0.2,0-0.3,0-0.5,0
	c-0.2,0-0.4,0-0.4,0h0v0.1v0h0.1c0.1,0,0.2,0,0.2,0.2v1.5c0,0.1-0.1,0.1-0.2,0.1h-0.1h0V48v0h0c0.1,0,0.3,0,0.4,0c0.2,0,0.3,0,0.5,0
	h0v-0.1v0H274c-0.1,0-0.2,0-0.2-0.2v-0.6h0.2c0.2,0.3,0.4,0.6,0.6,0.9c0.1,0,0.2,0,0.3,0c0.1,0,0.2,0,0.3,0h0L275.1,47.9L275.1,47.9
	L275.1,47.9z M274.4,46.5c0,0.3-0.1,0.4-0.4,0.4h-0.1v-0.8c0,0,0.1,0,0.2,0C274.2,46.1,274.4,46.3,274.4,46.5z"/>
<path class="st18" d="M277.5,46c-0.1,0-0.2,0-0.4,0c-0.1,0-0.3,0-0.4,0h0v0.1v0h0.1c0.1,0,0.2,0,0.2,0.3v1.1l-1.3-1.4
	c-0.1,0-0.2,0-0.3,0c-0.1,0-0.2,0-0.3,0h0v0.1v0h0.1c0.1,0,0.2,0.1,0.2,0.2v1.2c0,0.2-0.1,0.4-0.2,0.4h0h0V48v0h0c0.1,0,0.3,0,0.4,0
	c0.1,0,0.2,0,0.4,0h0v-0.1v0h-0.1c-0.2,0-0.3-0.1-0.3-0.3v-1.2l1.5,1.6l0.1,0h0l0,0c0-0.1,0-0.2,0-0.3v-1.3c0-0.3,0.1-0.4,0.2-0.4h0
	h0L277.5,46L277.5,46L277.5,46z"/>
<path class="st18" d="M279.5,47.9c-0.1,0-0.1,0-0.2-0.1c0-0.1-0.1-0.2-0.1-0.3l-0.5-1.5c0,0,0,0,0-0.1c0,0,0,0,0,0c0,0,0,0,0,0
	c-0.1,0-0.2,0.1-0.3,0.1c0,0.1-0.1,0.3-0.1,0.4l-0.5,1.3c0,0.1-0.1,0.2-0.2,0.2h0h0V48v0l0,0c0.1,0,0.2,0,0.3,0c0.1,0,0.2,0,0.3,0
	l0,0v-0.1v0h0c-0.1,0-0.2,0-0.2-0.1c0,0,0-0.1,0.1-0.2l0.1-0.3h0.6l0.1,0.3c0,0.1,0.1,0.2,0.1,0.2c0,0.1-0.1,0.1-0.2,0.1h0h0V48v0
	l0,0c0.1,0,0.3,0,0.4,0c0.1,0,0.3,0,0.4,0l0,0L279.5,47.9L279.5,47.9L279.5,47.9z M278.7,47.1h-0.5l0.3-0.8L278.7,47.1z M278,47.6
	L278,47.6L278,47.6L278,47.6z"/>
<path class="st18" d="M281.2,45.9L281.2,45.9L281.2,45.9c0,0.1-0.1,0.1-0.2,0.1h-1.5l0,0c-0.1,0-0.1,0-0.1-0.1l0,0h-0.1h0v0
	c0,0.1,0,0.2,0,0.2c0,0.1,0,0.2,0,0.2l0,0h0.1h0l0,0c0-0.2,0-0.2,0.3-0.3h0.5l0,1.5c0,0.2-0.1,0.2-0.2,0.2h-0.1h0V48v0h0
	c0.1,0,0.3,0,0.5,0c0.2,0,0.4,0,0.5,0h0v-0.1v0h-0.1c-0.1,0-0.2,0-0.2-0.2v-1.5h0.5c0.2,0,0.2,0.2,0.2,0.3l0,0l0.1,0l0,0v0
	c0-0.1,0-0.2,0-0.2C281.3,46.1,281.3,46,281.2,45.9L281.2,45.9L281.2,45.9z"/>
<path class="st18" d="M282.3,46c-0.1,0-0.3,0-0.5,0c-0.1,0-0.3,0-0.4,0h0v0.1v0h0.1c0.1,0,0.2,0,0.2,0.2v1.5c0,0.1-0.1,0.2-0.2,0.2
	h0h0v0V48v0h0c0.1,0,0.3,0,0.4,0c0.1,0,0.3,0,0.5,0h0v-0.1v0h-0.1c-0.1,0-0.2,0-0.2-0.2v-1.5c0-0.1,0.1-0.2,0.2-0.2h0h0L282.3,46
	L282.3,46L282.3,46z"/>
<path class="st18" d="M283.5,46L283.5,46C283.5,46,283.5,46,283.5,46L283.5,46L283.5,46c-0.6,0-1.1,0.5-1.1,1.1c0,0.6,0.5,1,1.1,1
	c0.6,0,1.1-0.4,1.1-1.1C284.6,46.3,284.1,46,283.5,46z M283.5,47.9c-0.5,0-0.7-0.5-0.7-1c0-0.4,0.1-0.8,0.6-0.8
	c0.5,0,0.7,0.5,0.7,0.9C284.1,47.5,284,47.9,283.5,47.9z"/>
<polygon class="st18" points="282.4,47 282.4,47 282.4,47 "/>
<path class="st18" d="M287,46c-0.1,0-0.2,0-0.4,0c-0.1,0-0.3,0-0.4,0h0v0.1v0h0.1c0.1,0,0.2,0,0.2,0.3v1.1l-1.3-1.4
	c-0.1,0-0.2,0-0.3,0c-0.1,0-0.2,0-0.3,0h0v0.1v0h0c0.1,0,0.2,0.1,0.3,0.2v1.2c0,0.2-0.1,0.4-0.2,0.4h0h0V48v0h0c0.1,0,0.3,0,0.4,0
	c0.1,0,0.2,0,0.4,0h0v-0.1v0h-0.1c-0.2,0-0.3-0.1-0.3-0.3v-1.2l1.5,1.6l0.1,0h0l0,0c0-0.1,0-0.2,0-0.3v-1.3c0-0.3,0.1-0.4,0.2-0.4h0
	h0L287,46L287,46L287,46z"/>
<path class="st18" d="M288.9,47.9c-0.1,0-0.1,0-0.2-0.1c0-0.1-0.1-0.2-0.1-0.3l-0.5-1.5c0,0,0,0,0-0.1c0,0,0,0,0,0c0,0,0,0,0,0
	c-0.1,0-0.2,0.1-0.3,0.1c0,0.1-0.1,0.3-0.1,0.4l-0.5,1.3c0,0.1-0.1,0.2-0.2,0.2h0h0V48v0l0,0c0.1,0,0.2,0,0.3,0c0.1,0,0.2,0,0.3,0
	l0,0v-0.1v0h0c-0.1,0-0.2,0-0.2-0.1c0,0,0-0.1,0.1-0.2l0.1-0.3h0.6l0.1,0.3c0,0.1,0.1,0.2,0.1,0.2c0,0.1-0.1,0.1-0.2,0.1h0h0V48v0
	l0,0c0.1,0,0.3,0,0.4,0c0.1,0,0.3,0,0.4,0l0,0L288.9,47.9L288.9,47.9L288.9,47.9z M288.1,47.1h-0.5l0.3-0.8L288.1,47.1z"/>
<path class="st18" d="M290.6,47.5L290.6,47.5L290.6,47.5c0,0.1-0.1,0.2-0.1,0.2c0,0.1-0.2,0.1-0.3,0.2c-0.1,0-0.1,0-0.2,0
	c-0.1,0-0.1,0-0.2,0c-0.1,0-0.2,0-0.2-0.1v-1.5c0-0.1,0.1-0.1,0.2-0.1h0.1h0V46v0h0c-0.1,0-0.3,0-0.4,0c-0.2,0-0.3,0-0.5,0h0v0.1v0
	h0.1c0.1,0,0.2,0,0.2,0.2v1.5c0,0.2-0.1,0.2-0.2,0.2h0h0V48v0h0c0.3,0,0.5,0,0.8,0c0.3,0,0.5,0,0.8,0h0h0l0,0
	C290.6,47.9,290.7,47.7,290.6,47.5L290.6,47.5L290.6,47.5z"/>
<path class="st18" d="M290.6,45.9c0.2,0,0.3,0.1,0.3,0.3c0,0.2-0.1,0.3-0.3,0.3s-0.3-0.1-0.3-0.3C290.3,46.1,290.5,45.9,290.6,45.9z
	 M290.6,46.5L290.6,46.5c0.1,0,0.2-0.1,0.2-0.2c0-0.1-0.1-0.2-0.2-0.2c-0.1,0-0.2,0.1-0.2,0.2C290.4,46.4,290.5,46.5,290.6,46.5z
	 M290.5,46.4L290.5,46.4L290.5,46.4C290.5,46.4,290.5,46.4,290.5,46.4l0-0.3c0,0,0,0,0,0v0h0.2c0.1,0,0.1,0,0.1,0.1
	c0,0,0,0.1-0.1,0.1l0,0.1c0,0,0,0.1,0.1,0.1v0h-0.1c0,0-0.1-0.1-0.1-0.1h0v0.1c0,0,0,0,0,0v0H290.5L290.5,46.4z M290.6,46.2
	L290.6,46.2L290.6,46.2C290.7,46.2,290.7,46.2,290.6,46.2c0.1-0.1,0.1-0.1,0-0.1h0V46.2z"/>
<path class="st18" d="M266.4,41.7c0-0.5-0.2-0.4-0.5-0.5v-0.1c0.2,0,0.4,0,0.6,0c0.2,0,0.5,0,0.9,0c1.4,0,2.1,0.9,2.1,1.9
	c0,0.5-0.3,1.8-2.2,1.8c-0.3,0-0.5,0-0.8,0c-0.2,0-0.5,0-0.7,0v-0.1c0.3,0,0.5,0,0.5-0.4L266.4,41.7L266.4,41.7z M266.9,44.2
	L266.9,44.2c0,0.4,0.3,0.5,0.6,0.5c1.1,0,1.5-0.9,1.5-1.7c0-1-0.6-1.7-1.7-1.7c-0.2,0-0.3,0-0.4,0V44.2L266.9,44.2z"/>
<path class="st18" d="M269.8,44.7h0.1c0.1,0,0.3,0,0.3-0.2v-1.4c0-0.2-0.1-0.3-0.3-0.4v-0.1c0.2-0.1,0.5-0.2,0.6-0.2
	c0,0,0.1,0,0.1,0c0,0,0,0,0,0.1v2c0,0.2,0.1,0.2,0.3,0.2h0.1v0.1c-0.2,0-0.4,0-0.6,0c-0.2,0-0.4,0-0.6,0V44.7L269.8,44.7z
	 M270.3,41.6L270.3,41.6c-0.1,0-0.3-0.1-0.3-0.3c0-0.1,0.1-0.3,0.3-0.3c0.1,0,0.3,0.1,0.3,0.3C270.6,41.5,270.5,41.6,270.3,41.6z"/>
<path class="st18" d="M271.4,43.1c0-0.2-0.1-0.2-0.3-0.3v-0.1c0.2-0.1,0.4-0.1,0.7-0.3c0,0,0,0,0,0.1v0.3c0.3-0.2,0.6-0.4,0.9-0.4
	c0.5,0,0.6,0.3,0.6,0.7v1.4c0,0.2,0.1,0.2,0.3,0.2h0.1v0.1c-0.2,0-0.4,0-0.6,0c-0.2,0-0.4,0-0.6,0v-0.1h0.1c0.1,0,0.3,0,0.3-0.2
	v-1.4c0-0.3-0.2-0.5-0.5-0.5c-0.2,0-0.4,0.1-0.6,0.3v1.6c0,0.2,0.1,0.2,0.3,0.2h0.1v0.1c-0.2,0-0.4,0-0.6,0c-0.2,0-0.4,0-0.6,0v-0.1
	h0.1c0.1,0,0.3,0,0.3-0.2V43.1L271.4,43.1z"/>
<path class="st18" d="M274.1,43.4c0,0,0,0.1,0,0.3c0,0.5,0.4,0.9,0.8,0.9c0.3,0,0.5-0.2,0.7-0.4l0.1,0.1c-0.2,0.3-0.5,0.6-1,0.6
	c-0.8,0-1-0.8-1-1.2c0-1,0.7-1.3,1.1-1.3c0.4,0,0.9,0.3,0.9,0.8c0,0,0,0.1,0,0.1l0,0H274.1L274.1,43.4z M275,43.2L275,43.2
	c0.1,0,0.1-0.1,0.1-0.1c0-0.3-0.2-0.5-0.5-0.5c-0.3,0-0.5,0.2-0.6,0.6H275L275,43.2z"/>
<path class="st18" d="M275.8,44.7h0.1c0.1,0,0.3,0,0.3-0.2v-1.5c0-0.2-0.2-0.2-0.3-0.2v-0.1c0.4-0.2,0.6-0.3,0.6-0.3c0,0,0,0,0,0.1
	V43h0c0.1-0.2,0.4-0.5,0.7-0.5c0.1,0,0.3,0.1,0.3,0.3c0,0.1-0.1,0.3-0.2,0.3c-0.2,0-0.2-0.1-0.4-0.1c-0.1,0-0.4,0.1-0.4,0.4v1.2
	c0,0.2,0.1,0.2,0.3,0.2h0.3v0.1c-0.3,0-0.5,0-0.7,0c-0.2,0-0.4,0-0.6,0V44.7L275.8,44.7z"/>
<path class="st18" d="M277.8,44.1c0.1,0.4,0.3,0.6,0.7,0.6c0.3,0,0.4-0.2,0.4-0.4c0-0.6-1.2-0.4-1.2-1.3c0-0.3,0.2-0.7,0.8-0.7
	c0.2,0,0.4,0,0.6,0.2l0,0.5h-0.1c-0.1-0.3-0.2-0.5-0.6-0.5c-0.2,0-0.4,0.1-0.4,0.3c0,0.6,1.2,0.4,1.2,1.3c0,0.3-0.3,0.7-0.9,0.7
	c-0.2,0-0.5-0.1-0.6-0.2L277.8,44.1L277.8,44.1L277.8,44.1z"/>
<path class="st18" d="M284.1,42.1H284c-0.1-0.6-0.5-0.9-1.1-0.9c-0.6,0-1.5,0.4-1.5,1.7c0,1.1,0.8,1.8,1.6,1.8c0.5,0,1-0.4,1.1-0.9
	l0.1,0l-0.1,0.8c-0.2,0.1-0.8,0.3-1.2,0.3c-1.2,0-2-0.8-2-2c0-1.1,1-1.9,2-1.9c0.4,0,0.8,0.1,1.3,0.3L284.1,42.1L284.1,42.1z"/>
<path class="st18" d="M284.3,44.7h0.1c0.1,0,0.3,0,0.3-0.2v-3c0-0.3-0.1-0.4-0.3-0.4v-0.1c0.2-0.1,0.4-0.2,0.5-0.2
	c0.1,0,0.1-0.1,0.1-0.1c0,0,0,0,0,0.1v3.7c0,0.2,0.1,0.2,0.3,0.2h0.1v0.1c-0.2,0-0.4,0-0.6,0c-0.2,0-0.4,0-0.6,0L284.3,44.7
	L284.3,44.7z"/>
<path class="st18" d="M287.7,44.6c0,0.1,0.1,0.1,0.1,0.1c0.1,0,0.1,0,0.2,0v0.1c-0.2,0-0.7,0.1-0.8,0.2l0,0v-0.4
	c-0.3,0.3-0.6,0.4-0.9,0.4c-0.3,0-0.6-0.2-0.6-0.6V43c0-0.1,0-0.3-0.3-0.3v-0.1c0.2,0,0.6,0,0.7,0c0.1,0,0.1,0,0.1,0.2V44
	c0,0.2,0,0.6,0.5,0.6c0.2,0,0.4-0.1,0.6-0.3v-1.4c0-0.1-0.3-0.2-0.4-0.2v-0.1c0.5,0,0.8-0.1,0.8-0.1c0,0,0,0,0,0.1L287.7,44.6
	L287.7,44.6z"/>
<path class="st18" d="M288.8,42.8c0.2-0.2,0.5-0.4,0.8-0.4c0.6,0,1,0.5,1,1.1c0,0.7-0.5,1.4-1.3,1.4c-0.4,0-0.6-0.1-0.7-0.2
	l-0.2,0.1l-0.1-0.1c0-0.3,0.1-0.6,0.1-0.9v-2.3c0-0.3-0.1-0.4-0.3-0.4v-0.1c0.2-0.1,0.4-0.2,0.5-0.2c0.1,0,0.1-0.1,0.1-0.1
	c0,0,0,0,0,0.1V42.8L288.8,42.8L288.8,42.8z M288.8,44.3L288.8,44.3c0,0.2,0.2,0.5,0.5,0.5c0.6,0,0.8-0.6,0.8-1c0-0.6-0.4-1-0.8-1
	c-0.2,0-0.4,0.1-0.5,0.2V44.3L288.8,44.3z"/>
<path class="st18" d="M266.8,46c-0.1,0-0.3,0-0.5,0c-0.1,0-0.3,0-0.4,0h0v0.1v0h0.1c0.1,0,0.2,0,0.2,0.2v1.5c0,0.1-0.1,0.1-0.2,0.2
	h0h0v0V48v0h0c0.1,0,0.3,0,0.4,0c0.1,0,0.3,0,0.5,0h0v-0.1v0h-0.1c-0.1,0-0.2,0-0.2-0.2v-1.5c0-0.1,0.1-0.2,0.2-0.2h0h0L266.8,46
	L266.8,46L266.8,46z"/>
<path class="st18" d="M269.2,46c-0.1,0-0.2,0-0.4,0c-0.1,0-0.3,0-0.4,0h0v0.1v0h0.1c0.1,0,0.2,0,0.2,0.3v1.1l-1.3-1.4
	c-0.1,0-0.2,0-0.3,0c-0.1,0-0.2,0-0.3,0h0v0.1v0h0.1c0.1,0,0.2,0.1,0.3,0.2v1.2c0,0.2-0.1,0.4-0.2,0.4h0h0V48v0h0c0.1,0,0.3,0,0.4,0
	c0.1,0,0.2,0,0.4,0h0v-0.1v0h-0.1c-0.2,0-0.3-0.1-0.3-0.3v-1.2l1.5,1.6l0.1,0v0h0l0,0c0-0.1,0-0.2,0-0.3v-1.3c0-0.3,0.1-0.4,0.2-0.4
	h0h0L269.2,46L269.2,46L269.2,46z"/>
<path class="st18" d="M271.2,45.9L271.2,45.9L271.2,45.9c0,0.1-0.1,0.1-0.2,0.1h-1.5h0c-0.1,0-0.1,0-0.1-0.1l0,0h-0.1h0v0
	c0,0.1,0,0.2,0,0.2c0,0.1,0,0.2,0,0.2l0,0h0.1h0l0,0c0-0.2,0-0.2,0.3-0.3h0.5v1.5c0,0.2-0.1,0.2-0.2,0.2h-0.1h0V48v0h0
	c0.1,0,0.3,0,0.5,0c0.2,0,0.4,0,0.5,0h0v-0.1v0h-0.1c-0.1,0-0.2,0-0.2-0.2v-1.5h0.5c0.2,0,0.2,0.2,0.2,0.3l0,0l0.1,0l0,0v0
	c0-0.1,0-0.2,0-0.2C271.3,46.1,271.3,46,271.2,45.9L271.2,45.9L271.2,45.9z"/>
<path class="st18" d="M272.9,47.5L272.9,47.5L272.9,47.5c-0.1,0.3-0.2,0.4-0.6,0.4c-0.2,0-0.3,0-0.3-0.2v-0.7l0.3,0
	c0.2,0,0.2,0.1,0.2,0.3l0,0l0.1,0l0,0l0,0c0-0.1,0-0.2,0-0.3c0-0.1,0-0.2,0-0.3l0,0h-0.1h0l0,0c0,0.2,0,0.2-0.2,0.2H272l0-0.7h0.4
	c0.3,0,0.3,0.1,0.3,0.3l0,0l0.1,0l0,0l0,0c0-0.1,0-0.2,0-0.3c0-0.1,0-0.1,0-0.1l0,0h0c-0.2,0-0.5,0-0.7,0c-0.2,0-0.5,0-0.7,0h0v0.1
	v0h0.1c0.1,0,0.2,0,0.2,0.2v1.5c0,0.1-0.1,0.2-0.2,0.2h0h0v0V48v0h0c0.2,0,0.5,0,0.8,0c0.3,0,0.6,0,0.8,0h0l0,0
	C273,47.9,273,47.7,272.9,47.5L272.9,47.5L272.9,47.5z"/>
<path class="st18" d="M275.1,47.9c-0.1,0-0.2,0-0.3-0.2l-0.5-0.7c0.2-0.1,0.4-0.3,0.4-0.5c0-0.4-0.3-0.5-0.7-0.5c-0.2,0-0.3,0-0.5,0
	c-0.2,0-0.4,0-0.4,0h0v0.1v0h0.1c0.1,0,0.2,0,0.2,0.2v1.5c0,0.1-0.1,0.1-0.2,0.1h-0.1h0V48v0h0c0.1,0,0.3,0,0.4,0c0.2,0,0.3,0,0.5,0
	h0v-0.1v0H274c-0.1,0-0.2,0-0.2-0.2v-0.6h0.2c0.2,0.3,0.4,0.6,0.6,0.9c0.1,0,0.2,0,0.3,0c0.1,0,0.2,0,0.3,0h0L275.1,47.9L275.1,47.9
	L275.1,47.9z M274.4,46.5c0,0.3-0.1,0.4-0.4,0.4h-0.1v-0.8c0,0,0.1,0,0.2,0C274.2,46.1,274.4,46.3,274.4,46.5z"/>
<path class="st18" d="M277.5,46c-0.1,0-0.2,0-0.4,0c-0.1,0-0.3,0-0.4,0h0v0.1v0h0.1c0.1,0,0.2,0,0.2,0.3v1.1l-1.3-1.4
	c-0.1,0-0.2,0-0.3,0c-0.1,0-0.2,0-0.3,0h0v0.1v0h0.1c0.1,0,0.2,0.1,0.2,0.2v1.2c0,0.2-0.1,0.4-0.2,0.4h0h0V48v0h0c0.1,0,0.3,0,0.4,0
	c0.1,0,0.2,0,0.4,0h0v-0.1v0h-0.1c-0.2,0-0.3-0.1-0.3-0.3v-1.2l1.5,1.6l0.1,0h0l0,0c0-0.1,0-0.2,0-0.3v-1.3c0-0.3,0.1-0.4,0.2-0.4h0
	h0L277.5,46L277.5,46L277.5,46z"/>
<path class="st18" d="M279.5,47.9c-0.1,0-0.1,0-0.2-0.1c0-0.1-0.1-0.2-0.1-0.3l-0.5-1.5c0,0,0,0,0-0.1c0,0,0,0,0,0c0,0,0,0,0,0
	c-0.1,0-0.2,0.1-0.3,0.1c0,0.1-0.1,0.3-0.1,0.4l-0.5,1.3c0,0.1-0.1,0.2-0.2,0.2h0h0V48v0l0,0c0.1,0,0.2,0,0.3,0c0.1,0,0.2,0,0.3,0
	l0,0v-0.1v0h0c-0.1,0-0.2,0-0.2-0.1c0,0,0-0.1,0.1-0.2l0.1-0.3h0.6l0.1,0.3c0,0.1,0.1,0.2,0.1,0.2c0,0.1-0.1,0.1-0.2,0.1h0h0V48v0
	l0,0c0.1,0,0.3,0,0.4,0c0.1,0,0.3,0,0.4,0l0,0L279.5,47.9L279.5,47.9L279.5,47.9z M278.7,47.1h-0.5l0.3-0.8L278.7,47.1z M278,47.6
	L278,47.6L278,47.6L278,47.6z"/>
<path class="st18" d="M281.2,45.9L281.2,45.9L281.2,45.9c0,0.1-0.1,0.1-0.2,0.1h-1.5l0,0c-0.1,0-0.1,0-0.1-0.1l0,0h-0.1h0v0
	c0,0.1,0,0.2,0,0.2c0,0.1,0,0.2,0,0.2l0,0h0.1h0l0,0c0-0.2,0-0.2,0.3-0.3h0.5l0,1.5c0,0.2-0.1,0.2-0.2,0.2h-0.1h0V48v0h0
	c0.1,0,0.3,0,0.5,0c0.2,0,0.4,0,0.5,0h0v-0.1v0h-0.1c-0.1,0-0.2,0-0.2-0.2v-1.5h0.5c0.2,0,0.2,0.2,0.2,0.3l0,0l0.1,0l0,0v0
	c0-0.1,0-0.2,0-0.2C281.3,46.1,281.3,46,281.2,45.9L281.2,45.9L281.2,45.9z"/>
<path class="st18" d="M282.3,46c-0.1,0-0.3,0-0.5,0c-0.1,0-0.3,0-0.4,0h0v0.1v0h0.1c0.1,0,0.2,0,0.2,0.2v1.5c0,0.1-0.1,0.2-0.2,0.2
	h0h0v0V48v0h0c0.1,0,0.3,0,0.4,0c0.1,0,0.3,0,0.5,0h0v-0.1v0h-0.1c-0.1,0-0.2,0-0.2-0.2v-1.5c0-0.1,0.1-0.2,0.2-0.2h0h0L282.3,46
	L282.3,46L282.3,46z"/>
<path class="st18" d="M283.5,46L283.5,46C283.5,46,283.5,46,283.5,46L283.5,46L283.5,46c-0.6,0-1.1,0.5-1.1,1.1c0,0.6,0.5,1,1.1,1
	c0.6,0,1.1-0.4,1.1-1.1C284.6,46.3,284.1,46,283.5,46z M283.5,47.9c-0.5,0-0.7-0.5-0.7-1c0-0.4,0.1-0.8,0.6-0.8
	c0.5,0,0.7,0.5,0.7,0.9C284.1,47.5,284,47.9,283.5,47.9z"/>
<polygon class="st18" points="282.4,47 282.4,47 282.4,47 "/>
<path class="st18" d="M287,46c-0.1,0-0.2,0-0.4,0c-0.1,0-0.3,0-0.4,0h0v0.1v0h0.1c0.1,0,0.2,0,0.2,0.3v1.1l-1.3-1.4
	c-0.1,0-0.2,0-0.3,0c-0.1,0-0.2,0-0.3,0h0v0.1v0h0c0.1,0,0.2,0.1,0.3,0.2v1.2c0,0.2-0.1,0.4-0.2,0.4h0h0V48v0h0c0.1,0,0.3,0,0.4,0
	c0.1,0,0.2,0,0.4,0h0v-0.1v0h-0.1c-0.2,0-0.3-0.1-0.3-0.3v-1.2l1.5,1.6l0.1,0h0l0,0c0-0.1,0-0.2,0-0.3v-1.3c0-0.3,0.1-0.4,0.2-0.4h0
	h0L287,46L287,46L287,46z"/>
<path class="st18" d="M288.9,47.9c-0.1,0-0.1,0-0.2-0.1c0-0.1-0.1-0.2-0.1-0.3l-0.5-1.5c0,0,0,0,0-0.1c0,0,0,0,0,0c0,0,0,0,0,0
	c-0.1,0-0.2,0.1-0.3,0.1c0,0.1-0.1,0.3-0.1,0.4l-0.5,1.3c0,0.1-0.1,0.2-0.2,0.2h0h0V48v0l0,0c0.1,0,0.2,0,0.3,0c0.1,0,0.2,0,0.3,0
	l0,0v-0.1v0h0c-0.1,0-0.2,0-0.2-0.1c0,0,0-0.1,0.1-0.2l0.1-0.3h0.6l0.1,0.3c0,0.1,0.1,0.2,0.1,0.2c0,0.1-0.1,0.1-0.2,0.1h0h0V48v0
	l0,0c0.1,0,0.3,0,0.4,0c0.1,0,0.3,0,0.4,0l0,0L288.9,47.9L288.9,47.9L288.9,47.9z M288.1,47.1h-0.5l0.3-0.8L288.1,47.1z"/>
<path class="st18" d="M290.6,47.5L290.6,47.5L290.6,47.5c0,0.1-0.1,0.2-0.1,0.2c0,0.1-0.2,0.1-0.3,0.2c-0.1,0-0.1,0-0.2,0
	c-0.1,0-0.1,0-0.2,0c-0.1,0-0.2,0-0.2-0.1v-1.5c0-0.1,0.1-0.1,0.2-0.1h0.1h0V46v0h0c-0.1,0-0.3,0-0.4,0c-0.2,0-0.3,0-0.5,0h0v0.1v0
	h0.1c0.1,0,0.2,0,0.2,0.2v1.5c0,0.2-0.1,0.2-0.2,0.2h0h0V48v0h0c0.3,0,0.5,0,0.8,0c0.3,0,0.5,0,0.8,0h0h0l0,0
	C290.6,47.9,290.7,47.7,290.6,47.5L290.6,47.5L290.6,47.5z"/>
<path class="st18" d="M290.6,45.9c0.2,0,0.3,0.1,0.3,0.3c0,0.2-0.1,0.3-0.3,0.3s-0.3-0.1-0.3-0.3C290.3,46.1,290.5,45.9,290.6,45.9z
	 M290.6,46.5L290.6,46.5c0.1,0,0.2-0.1,0.2-0.2c0-0.1-0.1-0.2-0.2-0.2c-0.1,0-0.2,0.1-0.2,0.2C290.4,46.4,290.5,46.5,290.6,46.5z
	 M290.5,46.4L290.5,46.4L290.5,46.4C290.5,46.4,290.5,46.4,290.5,46.4l0-0.3c0,0,0,0,0,0v0h0.2c0.1,0,0.1,0,0.1,0.1
	c0,0,0,0.1-0.1,0.1l0,0.1c0,0,0,0.1,0.1,0.1v0h-0.1c0,0-0.1-0.1-0.1-0.1h0v0.1c0,0,0,0,0,0v0H290.5L290.5,46.4z M290.6,46.2
	L290.6,46.2L290.6,46.2C290.7,46.2,290.7,46.2,290.6,46.2c0.1-0.1,0.1-0.1,0-0.1h0V46.2z"/>
<path class="st19" d="M95.3,10.1c-0.8-0.5-1.8-0.8-3-0.8c-0.9,0-1.7,0.2-2.3,0.5c-0.7,0.3-1.2,0.8-1.6,1.5c-0.1,0.1-0.2,0.3-0.3,0.5
	c-0.1-0.2-0.2-0.3-0.2-0.5c-0.4-0.6-0.9-1.1-1.6-1.5c-0.7-0.3-1.5-0.5-2.5-0.5c-1.2,0-2.2,0.3-3,0.8c-0.8,0.5-1.4,1.2-1.8,2.1
	C78.6,13,78.4,14,78.4,15v5.8h3.2v-5.3c0-0.6,0.1-1.1,0.2-1.6c0.2-0.5,0.4-0.8,0.8-1.1c0.4-0.3,0.8-0.4,1.4-0.4c0.6,0,1,0.1,1.4,0.4
	c0.4,0.3,0.6,0.6,0.8,1.1c0.2,0.5,0.2,1,0.2,1.6v5.3h3.2v-5.3c0-0.6,0.1-1.1,0.3-1.6c0.2-0.5,0.4-0.8,0.8-1.1
	c0.4-0.3,0.8-0.4,1.4-0.4c0.6,0,1.1,0.1,1.4,0.4c0.4,0.3,0.6,0.7,0.8,1.1c0.2,0.5,0.3,1,0.3,1.6v5.2h3.2V15c0-1-0.2-2-0.6-2.8
	C96.7,11.3,96.1,10.6,95.3,10.1z"/>
<path class="st19" d="M61.2,10.5c-0.2-0.2-0.5-0.3-0.8-0.5c-0.7-0.4-1.4-0.5-2.2-0.5c-1.1,0-2.1,0.2-3,0.7c-0.9,0.5-1.6,1.2-2.1,2.1
	c-0.5,0.9-0.7,1.9-0.7,3c0,1.1,0.3,2,0.8,2.9c0.5,0.9,1.2,1.6,2.1,2.1c0.9,0.5,1.9,0.8,3,0.8c1.1,0,2.2-0.3,3.1-0.8
	c0.9-0.5,1.6-1.2,2.1-2.1c0.5-0.9,0.8-1.9,0.8-3V4.7h-3.2L61.2,10.5z M60.9,16.7c-0.2,0.4-0.6,0.8-1,1c-0.4,0.3-0.9,0.4-1.5,0.4
	c-0.5,0-1-0.1-1.4-0.4c-0.4-0.3-0.8-0.6-1-1c-0.2-0.4-0.4-0.9-0.4-1.4c0-0.5,0.1-1,0.4-1.4c0.2-0.4,0.6-0.8,1-1
	c0.4-0.3,0.9-0.4,1.4-0.4c0.6,0,1,0.1,1.5,0.4c0.4,0.3,0.8,0.6,1,1c0.2,0.4,0.4,0.9,0.4,1.4C61.3,15.8,61.1,16.3,60.9,16.7z"/>
<path class="st19" d="M74.5,10.2c-0.9-0.5-1.9-0.8-3.1-0.8c-1.1,0-2.1,0.3-3,0.8c-0.9,0.5-1.6,1.2-2.2,2.1c-0.5,0.9-0.8,1.9-0.8,2.9
	c0,1.1,0.3,2,0.8,2.9c0.5,0.9,1.2,1.6,2.1,2.1c0.9,0.5,1.9,0.8,3,0.8c1.1,0,2.1-0.3,3.1-0.8c0.9-0.5,1.6-1.2,2.2-2.1
	c0.5-0.9,0.8-1.9,0.8-2.9c0-1.1-0.3-2-0.8-2.9C76.1,11.4,75.4,10.7,74.5,10.2z M73.9,16.7c-0.2,0.4-0.6,0.8-1,1
	c-0.4,0.3-0.9,0.4-1.5,0.4c-0.5,0-1-0.1-1.4-0.4c-0.4-0.3-0.8-0.6-1-1c-0.2-0.4-0.4-0.9-0.4-1.4c0-0.5,0.1-1,0.4-1.4
	c0.2-0.4,0.6-0.8,1-1c0.4-0.3,0.9-0.4,1.4-0.4c0.6,0,1,0.1,1.5,0.4c0.4,0.3,0.8,0.6,1,1c0.2,0.4,0.4,0.9,0.4,1.4
	C74.2,15.8,74.1,16.3,73.9,16.7z"/>
<path class="st19" d="M36.8,10.1c-0.8-0.5-1.8-0.8-3-0.8c-1.1,0-2.1,0.3-3,0.8c-0.9,0.5-1.5,1.2-2,2.1c-0.5,0.9-0.7,1.8-0.7,2.9
	c0,1.2,0.3,2.2,0.8,3.1c0.5,0.9,1.2,1.6,2.1,2c0.9,0.5,1.9,0.7,3.1,0.7c1.2,0,2.2-0.3,3.1-0.8c0.9-0.5,1.5-1.3,2-2.3l-2.4-1.2
	c-0.2,0.5-0.6,0.9-1.1,1.2c-0.5,0.3-1,0.4-1.6,0.4c-0.6,0-1.1-0.1-1.6-0.4c-0.4-0.3-0.8-0.7-1-1.1c-0.1-0.3-0.2-0.6-0.3-0.9h8.1
	v-0.9c0-1-0.2-1.9-0.7-2.8C38.3,11.3,37.7,10.6,36.8,10.1z M31.6,13.5c0.1-0.2,0.2-0.3,0.3-0.4c0.2-0.3,0.5-0.5,0.8-0.7
	c0.3-0.2,0.7-0.3,1.2-0.3c0.4,0,0.8,0.1,1.2,0.3c0.3,0.2,0.6,0.4,0.8,0.7c0.1,0.1,0.2,0.3,0.2,0.5H31.6z"/>
<path class="st19" d="M27.8,9.5c-0.2,0-0.5,0-0.7,0c-1.1,0-2,0.2-2.7,0.7c-0.7,0.4-1.3,1-1.6,1.8c-0.4,0.8-0.5,1.6-0.5,2.6v6.3h3.2
	v-6.2c0-0.7,0.2-1.2,0.5-1.6c0.4-0.4,0.8-0.6,1.5-0.6c0.1,0,0.3,0,0.4,0V9.5z"/>
<path class="st19" d="M21.4,7.4l1.7,0v-3c0,0-2,0-2,0c-1.1,0-2,0.2-2.7,0.7c-0.7,0.4-1.3,1-1.6,1.8c-0.4,0.8-0.5,1.6-0.5,2.6v0v2.7
	v8.7h3.2v-8.7h2.2V9.5h-2.2c0-0.6,0.2-1.1,0.5-1.5C20.3,7.6,20.8,7.4,21.4,7.4z"/>
<path class="st19" d="M49,10.1c-0.8-0.5-1.8-0.8-3-0.8c-1.1,0-2.1,0.3-3,0.8c-0.9,0.5-1.5,1.2-2,2.1c-0.5,0.9-0.7,1.8-0.7,2.9
	c0,1.2,0.3,2.2,0.8,3.1c0.5,0.9,1.2,1.6,2.1,2c0.9,0.5,1.9,0.7,3.1,0.7c1.2,0,2.2-0.3,3.1-0.8c0.9-0.5,1.5-1.3,2-2.3L49,16.6
	c-0.2,0.5-0.6,0.9-1.1,1.2c-0.5,0.3-1,0.4-1.6,0.4c-0.6,0-1.1-0.1-1.6-0.4c-0.4-0.3-0.8-0.7-1-1.1c-0.1-0.3-0.2-0.6-0.3-0.9h8.1
	v-0.9c0-1-0.2-1.9-0.7-2.8C50.4,11.3,49.8,10.6,49,10.1z M43.7,13.5c0.1-0.2,0.2-0.3,0.3-0.4c0.2-0.3,0.5-0.5,0.8-0.7
	c0.3-0.2,0.7-0.3,1.2-0.3c0.4,0,0.8,0.1,1.2,0.3c0.3,0.2,0.6,0.4,0.8,0.7c0.1,0.1,0.2,0.3,0.2,0.5H43.7z"/>
<path class="st19" d="M120.7,9.1V6.3h-7.2c-1,0-1.6,0.2-2.1,0.7c-0.3,0.4-0.5,0.8-0.6,1.4c0,0,0,10,0,10c0,0.8,0.2,1.4,0.6,1.9
	c0.4,0.5,1.1,0.7,2.1,0.7h7.2v-2.8h-6.8v-3.4h4.1v-2.3h-4.1V9.1H120.7z"/>
<path class="st19" d="M107.3,10.1c-0.8-0.5-1.8-0.8-3-0.8c-1.1,0-2.1,0.3-3,0.8c-0.9,0.5-1.5,1.2-2,2.1c-0.5,0.9-0.7,1.8-0.7,2.9
	c0,1.2,0.3,2.2,0.8,3.1c0.5,0.9,1.2,1.6,2.1,2c0.9,0.5,1.9,0.7,3.1,0.7c1.2,0,2.2-0.3,3.1-0.8c0.9-0.5,1.5-1.3,2-2.3l-2.4-1.2
	c-0.2,0.5-0.6,0.9-1.1,1.2c-0.5,0.3-1,0.4-1.6,0.4c-0.6,0-1.1-0.1-1.6-0.4c-0.4-0.3-0.8-0.7-1-1.1c-0.1-0.3-0.2-0.6-0.3-0.9h8.1
	v-0.9c0-1-0.2-1.9-0.7-2.8C108.7,11.3,108.1,10.6,107.3,10.1z M102.1,13.5c0.1-0.2,0.2-0.3,0.3-0.4c0.2-0.3,0.5-0.5,0.8-0.7
	c0.3-0.2,0.7-0.3,1.2-0.3c0.4,0,0.8,0.1,1.2,0.3c0.3,0.2,0.6,0.4,0.8,0.7c0.1,0.1,0.2,0.3,0.2,0.5H102.1z"/>
</svg>
