<?xml version="1.0" encoding="utf-8"?>
<!-- Generator: Adobe Illustrator 24.2.0, SVG Export Plug-In . SVG Version: 6.00 Build 0)  -->
<svg version="1.1" id="Layer_1" xmlns="http://www.w3.org/2000/svg" xmlns:xlink="http://www.w3.org/1999/xlink" x="0px" y="0px"
	 viewBox="0 0 300 58" style="enable-background:new 0 0 300 58;" xml:space="preserve">
<style type="text/css">
	.st0{fill:#C4C4C4;}
	.st1{fill:#FFFFFF;}
	.st2{fill:#0066B2;}
	.st3{fill:#F9A533;}
	.st4{fill:#FF5F00;}
	.st5{fill:#EB001B;}
	.st6{fill:#F79E1B;}
	.st7{fill-rule:evenodd;clip-rule:evenodd;fill:#FFFFFF;}
	.st8{fill-rule:evenodd;clip-rule:evenodd;fill:#009DDD;}
	.st9{fill-rule:evenodd;clip-rule:evenodd;fill:#ED1C2E;}
	.st10{fill:#FFCB05;}
	.st11{fill:#00A4E0;}
	.st12{fill:#EF4123;}
	.st13{fill:#007858;}
	.st14{fill:#C7D540;}
	.st15{fill:#016FD0;}
	.st16{fill:#822124;}
	.st17{fill:#0079BE;}
	.st18{fill:#211E1F;}
	.st19{fill:#413E3E;}
</style>
<path class="st0" d="M292.7,16.7H124v0.7h168.8c3.6,0,6.6,3,6.6,6.6v25.8c0,3.6-3,6.6-6.6,6.6H7.3c-3.6,0-6.6-3-6.6-6.6V24
	c0-3.6,3-6.6,6.6-6.6h4.9v-0.7H7.3C3.3,16.7,0,20,0,24v25.8c0,4,3.3,7.3,7.3,7.3h285.4c4,0,7.3-3.3,7.3-7.3V24
	C300,20,296.7,16.7,292.7,16.7z"/>
<polygon class="st1" points="3.5,31.3 38.3,31.3 38.3,53.6 3.5,53.6 3.5,31.3 "/>
<polygon class="st2" points="19.1,46.7 16.9,46.7 18.3,38.2 20.5,38.2 "/>
<path class="st2" d="M15,38.2l-2.1,5.8l-0.2-1.3l0,0L11.9,39c0,0-0.1-0.8-1-0.8H7.4l0,0.1c0,0,1.1,0.2,2.3,1l1.9,7.4h2.3l3.5-8.5H15
	z"/>
<path class="st2" d="M32.4,46.7h2l-1.8-8.5h-1.8c-0.8,0-1,0.6-1,0.6l-3.3,7.9h2.3l0.5-1.3h2.8L32.4,46.7z M30,43.7l1.2-3.2l0.7,3.2
	H30z"/>
<path class="st2" d="M26.7,40.3l0.3-1.8c0,0-1-0.4-2-0.4c-1.1,0-3.7,0.5-3.7,2.8c0,2.2,3.1,2.2,3.1,3.4c0,1.2-2.7,0.9-3.6,0.2
	l-0.3,1.9c0,0,1,0.5,2.5,0.5c1.5,0,3.8-0.8,3.8-2.9c0-2.2-3.1-2.4-3.1-3.4C23.6,39.6,25.8,39.7,26.7,40.3z"/>
<path class="st3" d="M12.7,42.8L11.9,39c0,0-0.1-0.8-1-0.8H7.4l0,0.1c0,0,1.7,0.3,3.3,1.6C12.2,41.2,12.7,42.8,12.7,42.8z"/>
<polygon class="st1" points="40.3,31.3 75.1,31.3 75.1,53.6 40.3,53.6 40.3,31.3 "/>
<path id="XMLID_39_" d="M49.5,52.1v-1.3c0-0.5-0.3-0.8-0.8-0.8c-0.3,0-0.5,0.1-0.7,0.4c-0.1-0.2-0.4-0.4-0.7-0.4
	c-0.2,0-0.4,0.1-0.6,0.3v-0.2h-0.4v2h0.4V51c0-0.4,0.2-0.5,0.5-0.5c0.3,0,0.4,0.2,0.4,0.5v1.1h0.4V51c0-0.4,0.2-0.5,0.5-0.5
	c0.3,0,0.4,0.2,0.4,0.5v1.1H49.5z M56.1,50.1h-0.7v-0.6H55v0.6h-0.4v0.4H55v0.9c0,0.5,0.2,0.7,0.7,0.7c0.2,0,0.4-0.1,0.6-0.2
	l-0.1-0.4c-0.1,0.1-0.3,0.1-0.4,0.1c-0.2,0-0.3-0.1-0.3-0.3v-0.9h0.7V50.1z M59.9,50.1c-0.3,0-0.4,0.1-0.5,0.3v-0.2h-0.4v2h0.4V51
	c0-0.3,0.1-0.5,0.4-0.5c0.1,0,0.2,0,0.3,0.1l0.1-0.4C60.1,50.1,60,50.1,59.9,50.1L59.9,50.1z M54.2,50.3c-0.2-0.1-0.5-0.2-0.8-0.2
	c-0.5,0-0.8,0.2-0.8,0.6c0,0.3,0.2,0.5,0.7,0.6l0.2,0c0.2,0,0.4,0.1,0.4,0.2c0,0.2-0.2,0.2-0.5,0.2c-0.3,0-0.5-0.1-0.7-0.2l-0.2,0.3
	c0.2,0.2,0.5,0.3,0.9,0.3c0.6,0,0.9-0.3,0.9-0.7c0-0.4-0.3-0.5-0.7-0.6l-0.2,0c-0.2,0-0.3-0.1-0.3-0.2c0-0.1,0.1-0.2,0.4-0.2
	c0.3,0,0.5,0.1,0.6,0.2L54.2,50.3z M66,50.1c-0.3,0-0.4,0.1-0.5,0.3v-0.2H65v2h0.4V51c0-0.3,0.1-0.5,0.4-0.5c0.1,0,0.2,0,0.3,0.1
	l0.1-0.4C66.2,50.1,66.1,50.1,66,50.1L66,50.1z M60.3,51.1c0,0.6,0.4,1.1,1.1,1.1c0.3,0,0.5-0.1,0.7-0.2l-0.2-0.4
	c-0.2,0.1-0.3,0.2-0.5,0.2c-0.4,0-0.6-0.3-0.6-0.6c0-0.4,0.3-0.6,0.6-0.6c0.2,0,0.4,0.1,0.5,0.2l0.2-0.4c-0.2-0.2-0.4-0.2-0.7-0.2
	C60.8,50.1,60.3,50.5,60.3,51.1L60.3,51.1z M64.4,51.1v-1H64v0.2c-0.1-0.2-0.4-0.3-0.6-0.3c-0.6,0-1,0.4-1,1.1c0,0.6,0.4,1.1,1,1.1
	c0.3,0,0.5-0.1,0.6-0.3v0.2h0.4V51.1z M62.8,51.1c0-0.4,0.2-0.6,0.6-0.6c0.4,0,0.6,0.3,0.6,0.6s-0.2,0.6-0.6,0.6
	C63,51.8,62.8,51.5,62.8,51.1L62.8,51.1z M57.5,50.1c-0.6,0-1,0.4-1,1.1c0,0.6,0.4,1.1,1,1.1c0.3,0,0.6-0.1,0.8-0.3l-0.2-0.3
	c-0.2,0.1-0.4,0.2-0.6,0.2c-0.3,0-0.5-0.1-0.6-0.5h1.5c0-0.1,0-0.1,0-0.2C58.5,50.5,58.1,50.1,57.5,50.1L57.5,50.1z M57.5,50.5
	c0.3,0,0.5,0.2,0.5,0.5h-1C57,50.7,57.2,50.5,57.5,50.5L57.5,50.5z M68.5,51.1v-1.8h-0.4v1.1c-0.1-0.2-0.4-0.3-0.6-0.3
	c-0.6,0-1,0.4-1,1.1c0,0.6,0.4,1.1,1,1.1c0.3,0,0.5-0.1,0.6-0.3v0.2h0.4V51.1z M69,51.9C69.1,51.9,69.1,52,69,51.9
	C69.1,52,69.1,52,69,51.9c0.1,0,0.1,0.1,0.1,0.1c0,0,0,0,0,0c0,0,0,0,0,0c0,0,0,0,0,0c0,0,0,0,0,0c0,0,0,0-0.1,0c0,0,0,0-0.1,0
	c0,0,0,0,0,0c0,0,0,0,0,0c0,0,0,0,0,0c0,0,0,0,0,0C68.9,52,68.9,52,69,51.9C69,52,69,52,69,51.9C69,52,69,51.9,69,51.9z M69,52.2
	C69.1,52.2,69.1,52.2,69,52.2C69.1,52.2,69.1,52.2,69,52.2C69.1,52.1,69.1,52.1,69,52.2c0.1-0.1,0.1-0.1,0.1-0.1c0,0,0,0,0,0
	c0,0,0,0,0,0c0,0,0,0,0,0c0,0,0,0,0,0c0,0,0,0,0,0c0,0,0,0,0,0c0,0,0,0,0,0c0,0,0,0,0,0C68.9,52.1,68.9,52.1,69,52.2
	C69,52.1,69,52.1,69,52.2C69,52.2,69,52.2,69,52.2C69,52.2,69,52.2,69,52.2z M69.1,52C69.1,52,69.1,52,69.1,52
	C69.1,52,69.1,52,69.1,52C69.1,52.1,69.1,52.1,69.1,52C69.1,52.1,69.1,52.1,69.1,52l0,0.1h0L69.1,52L69.1,52l0,0.1h0L69.1,52
	L69.1,52z M69,52L69,52L69,52C69.1,52.1,69.1,52.1,69,52C69.1,52.1,69.1,52.1,69,52C69.1,52.1,69.1,52,69,52C69.1,52,69.1,52,69,52
	L69,52z M66.9,51.1c0-0.4,0.2-0.6,0.6-0.6c0.4,0,0.6,0.3,0.6,0.6s-0.2,0.6-0.6,0.6C67.1,51.8,66.9,51.5,66.9,51.1L66.9,51.1z
	 M52,51.1v-1h-0.4v0.2c-0.1-0.2-0.4-0.3-0.6-0.3c-0.6,0-1,0.4-1,1.1c0,0.6,0.4,1.1,1,1.1c0.3,0,0.5-0.1,0.6-0.3v0.2H52V51.1z
	 M50.4,51.1c0-0.4,0.2-0.6,0.6-0.6c0.4,0,0.6,0.3,0.6,0.6s-0.2,0.6-0.6,0.6C50.6,51.8,50.4,51.5,50.4,51.1z"/>
<rect x="54" y="34.4" class="st4" width="6.9" height="12.4"/>
<path id="XMLID_38_" class="st5" d="M54.5,40.6c0-2.5,1.2-4.8,3-6.2c-1.3-1.1-3-1.7-4.9-1.7c-4.4,0-7.9,3.5-7.9,7.9
	c0,4.4,3.5,7.9,7.9,7.9c1.8,0,3.5-0.6,4.9-1.7C55.6,45.4,54.5,43.1,54.5,40.6z"/>
<path class="st6" d="M70.3,40.6c0,4.4-3.5,7.9-7.9,7.9c-1.8,0-3.5-0.6-4.9-1.7c1.8-1.4,3-3.7,3-6.2s-1.2-4.8-3-6.2
	c1.3-1.1,3-1.7,4.9-1.7C66.7,32.7,70.3,36.3,70.3,40.6z M69.6,46.3v-0.5h0.2v-0.1h-0.5v0.1h0.2v0.5H69.6z M70.7,46.3v-0.6h-0.2
	l-0.2,0.4l-0.2-0.4H70v0.6h0.1v-0.5l0.2,0.4h0.1l0.2-0.4v0.5H70.7z"/>
<polygon class="st7" points="77.1,31.3 111.9,31.3 111.9,53.6 77.1,53.6 77.1,31.3 "/>
<path class="st8" d="M94.5,49.2c1.8-1.7,3-4,3-6.7c0-2.7-1.1-5.1-3-6.7c-1.6-1.5-3.7-2.3-6-2.3c-5,0-9,4.1-9,9.1c0,5,4,9.1,9,9.1
	C90.8,51.5,92.9,50.6,94.5,49.2L94.5,49.2z"/>
<path class="st9" d="M100.5,33.4c-2.3,0-4.4,0.9-6,2.3c-0.3,0.3-0.6,0.6-0.9,1h1.8c0.2,0.3,0.5,0.6,0.7,1h-3.2
	c-0.2,0.3-0.4,0.6-0.5,1h4.2c0.1,0.3,0.3,0.6,0.4,1h-5c-0.1,0.3-0.2,0.6-0.3,1h5.5c0.1,0.6,0.2,1.3,0.2,1.9c0,1-0.2,2-0.5,2.9h-5
	c0.1,0.3,0.2,0.6,0.4,1h4.2c-0.2,0.3-0.3,0.7-0.5,1h-3.2c0.2,0.3,0.4,0.7,0.7,1h1.8c-0.3,0.3-0.6,0.7-0.9,1c1.6,1.5,3.7,2.3,6,2.3
	c5,0,9-4.1,9-9.1C109.5,37.5,105.5,33.4,100.5,33.4L100.5,33.4z"/>
<path class="st9" d="M108.3,47.5c0-0.2,0.1-0.3,0.3-0.3c0.2,0,0.3,0.1,0.3,0.3c0,0.2-0.1,0.3-0.3,0.3
	C108.4,47.8,108.3,47.7,108.3,47.5L108.3,47.5z M108.6,47.7c0.1,0,0.2-0.1,0.2-0.2c0-0.1-0.1-0.2-0.2-0.2c-0.1,0-0.2,0.1-0.2,0.2
	C108.4,47.6,108.5,47.7,108.6,47.7L108.6,47.7z M108.5,47.6L108.5,47.6l-0.1-0.3h0.1c0,0,0,0,0.1,0c0,0,0,0,0,0.1c0,0,0,0.1,0,0.1
	l0,0.1H108.5l0-0.1h0V47.6v-0.1h0c0,0,0,0,0,0c0,0,0,0,0,0c0,0,0,0,0,0c0,0,0,0,0,0h0v0.1V47.6L108.5,47.6z"/>
<path class="st7" d="M106.4,44.4c0-0.2,0.1-0.3,0.3-0.3c0.2,0,0.3,0.1,0.3,0.3c0,0.2-0.1,0.3-0.3,0.3
	C106.5,44.7,106.4,44.6,106.4,44.4L106.4,44.4z M106.7,44.6c0.1,0,0.2-0.1,0.2-0.2c0-0.1-0.1-0.2-0.2-0.2c-0.1,0-0.2,0.1-0.2,0.2
	C106.5,44.5,106.6,44.6,106.7,44.6L106.7,44.6z M106.6,44.5L106.6,44.5l-0.1-0.3h0.1c0,0,0,0,0.1,0c0,0,0,0,0,0.1c0,0,0,0.1,0,0.1
	l0,0.1H106.6l0-0.1h0V44.5v-0.1h0c0,0,0,0,0,0c0,0,0,0,0,0c0,0,0,0,0,0c0,0,0,0,0,0h0v0.1V44.5L106.6,44.5z"/>
<polygon class="st7" points="87.3,44.7 86.2,44.7 86.9,41.2 85.3,44.7 84.3,44.7 84.1,41.2 83.5,44.7 82.4,44.7 83.3,40.1 
	85.1,40.1 85.1,43 86.4,40.1 88.2,40.1 87.3,44.7 "/>
<path class="st7" d="M99.8,44.7c-0.3,0.1-0.5,0.1-0.8,0.1c-0.6,0-0.9-0.3-0.9-0.8c0-0.1,0-0.2,0-0.3l0.1-0.4l0.1-0.3l0.5-2.8h1.1
	L99.7,41h0.6l-0.2,0.9h-0.6l-0.3,1.6c0,0.1,0,0.1,0,0.2c0,0.2,0.1,0.3,0.4,0.3c0.1,0,0.2,0,0.3,0L99.8,44.7L99.8,44.7z"/>
<path class="st7" d="M103.1,41c-0.1,0-0.1,0-0.1,0c-0.1,0-0.1,0-0.1,0c0,0-0.1,0-0.1,0c-0.4,0-0.6,0.2-1,0.6l0.1-0.6h-1l-0.7,3.7
	h1.1c0.4-2.3,0.6-2.7,1.1-2.7c0,0,0.1,0,0.1,0l0.1,0L103.1,41L103.1,41z"/>
<path class="st7" d="M95.4,42.2c0,0.5,0.3,0.8,0.9,1c0.5,0.2,0.5,0.2,0.5,0.4c0,0.2-0.2,0.3-0.6,0.3c-0.3,0-0.7,0-1-0.1L95,44.7
	l0.1,0l0.2,0c0.1,0,0.2,0,0.3,0c0.3,0,0.5,0,0.6,0c1.2,0,1.7-0.4,1.7-1.2c0-0.5-0.2-0.8-0.8-1c-0.5-0.2-0.5-0.2-0.5-0.4
	c0-0.2,0.2-0.3,0.6-0.3c0.2,0,0.5,0,0.8,0.1l0.2-0.9c-0.3,0-0.7-0.1-1-0.1C95.8,40.9,95.4,41.5,95.4,42.2L95.4,42.2z"/>
<path class="st7" d="M91,44.7H90l0-0.4c-0.3,0.3-0.7,0.5-1.2,0.5c-0.6,0-1-0.4-1-1c0-0.9,0.7-1.4,2-1.4c0.1,0,0.3,0,0.5,0
	c0-0.1,0-0.2,0-0.2c0-0.2-0.2-0.3-0.7-0.3c-0.3,0-0.7,0-0.9,0.1l-0.2,0l-0.1,0l0.2-0.8c0.6-0.1,0.9-0.2,1.3-0.2c1,0,1.5,0.4,1.5,1.1
	c0,0.2,0,0.3-0.1,0.7L91,44.1l0,0.2l0,0.2l0,0.1L91,44.7L91,44.7z M90.1,43c-0.1,0-0.2,0-0.2,0c-0.6,0-1,0.2-1,0.6
	c0,0.2,0.2,0.4,0.4,0.4C89.8,44,90.1,43.6,90.1,43L90.1,43z"/>
<path class="st7" d="M94.6,44.6c-0.4,0.1-0.8,0.2-1.1,0.2c-1.3,0-1.9-0.6-1.9-1.7c0-1.3,0.8-2.2,2-2.2c0.9,0,1.5,0.5,1.5,1.4
	c0,0.3,0,0.5-0.1,0.9h-2.2c0,0.1,0,0.1,0,0.1c0,0.4,0.3,0.7,1,0.7c0.4,0,0.8-0.1,1.2-0.2L94.6,44.6L94.6,44.6z M94,42.4
	c0-0.1,0-0.1,0-0.2c0-0.3-0.2-0.5-0.5-0.5c-0.4,0-0.6,0.2-0.7,0.7L94,42.4L94,42.4z"/>
<path class="st7" d="M106.6,43c-0.2,1.2-1,1.8-2.2,1.8c-1.3,0-1.8-0.8-1.8-1.7c0-1.3,0.9-2.2,2.2-2.2c1.2,0,1.8,0.7,1.8,1.7
	C106.6,42.8,106.6,42.8,106.6,43L106.6,43z M105.4,42.5c0-0.4-0.2-0.8-0.6-0.8c-0.6,0-0.9,0.7-0.9,1.3c0,0.5,0.2,0.8,0.6,0.8
	c0.2,0,0.8-0.3,0.9-0.9C105.4,42.9,105.4,42.7,105.4,42.5L105.4,42.5z"/>
<polygon class="st1" points="113.9,31.3 148.7,31.3 148.7,53.6 113.9,53.6 113.9,31.3 "/>
<circle cx="131.3" cy="42.5" r="10.1"/>
<path class="st1" d="M123.2,45c-0.1-0.1-0.2-0.3-0.2-0.5c-0.4-0.9-0.4-1.7-0.1-2.6c0.3-0.9,1-1.6,1.8-2c1.1-0.5,2.2-0.4,3.2,0.2
	c0.6,0.4,1.1,0.9,1.4,1.7c0,0.1,0.1,0.2,0.1,0.3L123.2,45z M125.4,41.3c-0.8,0.3-1.1,1-1.1,1.8l3.2-1.4
	C126.9,41.2,126.2,41,125.4,41.3L125.4,41.3z M127.9,44.3C127.9,44.3,127.9,44.3,127.9,44.3L127.9,44.3c-0.3,0.3-0.6,0.5-0.9,0.7
	c-0.7,0.3-1.4,0.2-1.8-0.2l0,0.1c0,0,0,0,0,0l-0.8,1.2c0.2,0.1,0.4,0.3,0.6,0.4c0.9,0.4,1.8,0.4,2.7,0c0.6-0.3,1.2-0.7,1.5-1.3
	L127.9,44.3z M131.8,38.2v6.7l1,0.4l-0.6,1.4l-1.2-0.5c-0.3-0.1-0.4-0.3-0.6-0.5c-0.1-0.2-0.2-0.5-0.2-0.8v-6.7L131.8,38.2z"/>
<path class="st10" d="M136.4,39.7c-0.4,0-0.8,0.1-1.1,0.2l0.5,1.5c0.2-0.1,0.4-0.1,0.6-0.1c0.9,0,1.7,0.7,1.9,1.5l1.6-0.3
	C139.5,40.9,138.1,39.7,136.4,39.7L136.4,39.7z"/>
<path class="st11" d="M134.5,43.2c0-0.6,0.3-1.1,0.7-1.4l-1.1-1.2c-0.7,0.6-1.2,1.6-1.2,2.6c0,1,0.5,2,1.2,2.6l1.1-1.2
	C134.7,44.3,134.5,43.8,134.5,43.2L134.5,43.2z"/>
<path class="st12" d="M136.4,45.1c-0.2,0-0.4,0-0.6-0.1l-0.5,1.5c0.3,0.1,0.7,0.2,1.1,0.2c1.7,0,3.1-1.2,3.4-2.8l-1.6-0.3
	C138.1,44.5,137.3,45.1,136.4,45.1L136.4,45.1z"/>
<polygon class="st1" points="150.6,31.3 185.5,31.3 185.5,53.6 150.6,53.6 150.6,31.3 "/>
<path class="st13" d="M172.7,33.6c-1.8,0-3.5,0.5-4.9,1.5c-0.1,0.1-0.8,0.6-0.8,0.6c-1.2,0.9-1.9,1-3,0.8c-0.1,0-0.4-0.1-0.5-0.2
	c-3.4-1.3-7.2,0.4-8.5,3.9s0.4,7.2,3.9,8.5c1.4,0.5,3,0.6,4.4,0.1c1.6-0.5,2.4-0.3,3.4,0.4c0.2,0.1,0.7,0.4,0.8,0.5
	c4,2.9,9.5,2.1,12.4-1.9c2.9-4,2.1-9.5-1.9-12.4C176.4,34.2,174.6,33.6,172.7,33.6z"/>
<path class="st1" d="M169.5,43.8c-0.5,0.5-1.3,0.6-1.9,0.2L167,45c1.1,0.7,2.4,0.5,3.3-0.4L169.5,43.8z M168.4,40
	c-1.5,0-2.7,1.2-2.7,2.6c0,0.5,0.1,1.1,0.4,1.5l4.9-2.1C170.7,40.9,169.7,40,168.4,40L168.4,40z M166.8,42.9
	c-0.1-0.9,0.5-1.6,1.4-1.7c0.5-0.1,1,0.2,1.4,0.6L166.8,42.9z M172.5,38.8V44l0.9,0.4l-0.4,1l-0.9-0.4c-0.2-0.1-0.3-0.2-0.4-0.4
	c-0.1-0.2-0.2-0.4-0.2-0.6v-5.2H172.5z M164.7,38.8V44l0.9,0.4l-0.4,1l-0.9-0.4c-0.2-0.1-0.3-0.2-0.4-0.4c-0.1-0.2-0.2-0.4-0.2-0.6
	v-5.2H164.7z"/>
<path class="st14" d="M177,41.3c0.8,0.4,1.1,1.3,0.7,2.1c0,0,0,0,0,0l1,0.5c0.6-1.3,0.1-2.9-1.3-3.6c-1-0.5-2.2-0.3-3,0.4l0.7,0.8
	C175.7,41.1,176.4,41,177,41.3L177,41.3z"/>
<path class="st1" d="M175.6,44.1c-0.8-0.4-1.1-1.3-0.7-2.1l-1-0.5c-0.6,1.3-0.1,2.9,1.3,3.6c1,0.5,2.1,0.3,3-0.4l-0.7-0.8
	C176.9,44.3,176.2,44.4,175.6,44.1z M162.7,44.2v-1.5c0-1.5-1.2-2.7-2.7-2.7c-1.5,0-2.7,1.2-2.7,2.7c0,1.5,1.2,2.7,2.7,2.7
	c0.4,0,0.8-0.1,1.2-0.3l-0.4-1c-0.8,0.4-1.7,0.1-2.2-0.6c-0.1-0.2-0.2-0.5-0.2-0.8c0-0.3,0.1-0.5,0.2-0.7c0.2-0.4,0.6-0.7,1-0.8
	c0.1,0,0.2,0,0.4,0c0.9,0,1.6,0.7,1.6,1.6v1.5c0,0.2,0.1,0.4,0.2,0.6c0.1,0.2,0.3,0.3,0.4,0.4l0.5,0.2l0.4-1L162.7,44.2z"/>
<polygon class="st15" points="187.4,31.3 222.2,31.3 222.2,53.6 187.4,53.6 187.4,31.3 "/>
<path class="st1" d="M217.7,44.6l0.7-1.5h-2.3c-0.2,0-0.4,0-0.5,0.1l0-0.1h-2.3c-0.4,0-0.7,0.1-0.9,0.2v-0.2H209v0.2
	c-0.2-0.1-0.5-0.2-0.8-0.2H206v0.2c-0.2-0.2-0.6-0.2-0.9-0.2h-0.7l0,0h-2.2l-0.5,0.6l-0.5-0.6h-0.7H199h-2v4h2h1.5h0.8l0.4-0.6
	l0.4,0.6h0.8v0h1.8v-0.9h0.3c0.4,0,0.7-0.1,1-0.3v1.2h1.8v-0.6l0.5,0.6h0.8h1.5h1.3h0.7h1.4c0.2,0,0.5,0,0.6-0.1v0.1h2.1
	c0.9,0,1.5-0.6,1.5-1.5C218.1,45.2,218,44.8,217.7,44.6z M202.8,45.1l0.1-0.1v0.3L202.8,45.1z M200.4,44.9l0.2,0.2l-0.2,0.2V44.9z"
	/>
<path id="path3062_3_" class="st15" d="M197.5,46.6v-3h2.4v0.7h-1.7v0.5h1.6v0.6h-1.6v0.5h1.7v0.7L197.5,46.6z"/>
<path id="path3064_3_" class="st15" d="M209.5,46.6v-3h2.4v0.7h-1.7v0.5h1.6v0.6h-1.6v0.5h1.7v0.7L209.5,46.6z"/>
<path id="path3066_3_" class="st15" d="M200.1,46.6l1.2-1.5l-1.2-1.5h0.9l0.7,0.9l0.7-0.9h0.9l-1.2,1.5l1.2,1.5h-0.9l-0.7-0.9
	l-0.7,0.9L200.1,46.6z"/>
<path id="path3068_3_" class="st15" d="M203.4,43.6v3h0.8v-0.9h0.8c0.7,0,1.2-0.4,1.2-1c0-0.6-0.4-1-1.1-1H203.4L203.4,43.6z
	 M204.2,44.2h0.8c0.2,0,0.4,0.1,0.4,0.3c0,0.2-0.2,0.3-0.4,0.3h-0.8V44.2L204.2,44.2z"/>
<path id="path3072_3_" class="st15" d="M206.5,43.6v3h0.7v-1.1h0.3l0.9,1.1h0.9l-1-1.1c0.4,0,0.8-0.4,0.8-0.9c0-0.6-0.5-1-1-1
	L206.5,43.6L206.5,43.6z M207.2,44.2h0.9c0.2,0,0.4,0.2,0.4,0.3c0,0.2-0.2,0.3-0.3,0.3h-0.9V44.2z"/>
<path id="path3074_3_" class="st15" d="M212.3,46.6v-0.7h1.5c0.2,0,0.3-0.1,0.3-0.3c0-0.1-0.1-0.3-0.3-0.3h-0.7
	c-0.6,0-0.9-0.4-0.9-0.9c0-0.5,0.3-0.9,1.2-0.9h1.5l-0.3,0.7h-1.3c-0.2,0-0.3,0.1-0.3,0.2c0,0.1,0.1,0.3,0.3,0.3h0.7
	c0.7,0,0.9,0.4,0.9,0.9c0,0.5-0.3,1-1,1H212.3z"/>
<path id="path3076_3_" class="st15" d="M215,46.6v-0.7h1.5c0.2,0,0.3-0.1,0.3-0.3c0-0.1-0.1-0.3-0.3-0.3h-0.7
	c-0.6,0-0.9-0.4-0.9-0.9c0-0.5,0.3-0.9,1.2-0.9h1.5l-0.3,0.7H216c-0.2,0-0.3,0.1-0.3,0.2c0,0.1,0.1,0.3,0.3,0.3h0.7
	c0.7,0,0.9,0.4,0.9,0.9c0,0.5-0.3,1-1,1H215z"/>
<path class="st1" d="M214.1,37.8v0.7l-0.4-0.7h-1.7V39l-0.5-1.2h-1.6l-1.3,0c-0.5,0-1,0.2-1.3,0.4v-0.4h-1.8V38
	c-0.2-0.1-0.5-0.2-0.8-0.2h-1.6l-5,0l-0.3,0.9l-0.3-0.9l-2.1,0V39l-0.5-1.2H193l-1.7,4h2l0.2-0.6h0.7l0.2,0.6h2l0,0h3.1h0.5h2.4v0
	h1.8v-0.6l0.5,0.6h2.3l0,0h0.3v-0.4c0.2,0.2,0.5,0.3,0.9,0.4l0,0h2l0.2-0.6h0.7l0.2,0.6h2l0,0h0.6v-0.7l0.5,0.7h1.7v-4H214.1z
	 M208.6,40.2c-0.2,0-0.3,0-0.3-0.3c0-0.1,0-0.3,0.2-0.3h0.5l-0.3,0.6H208.6z"/>
<path id="path3046_3_" class="st15" d="M193.4,38.3l-1.3,3h0.8l0.2-0.6h1.4l0.2,0.6h0.9l-1.3-3L193.4,38.3L193.4,38.3z M193.8,39
	l0.4,1h-0.8L193.8,39z"/>
<path id="path3048_3_" class="st15" d="M195.7,41.3v-3l1.2,0l0.7,1.9l0.7-1.9h1.2v3h-0.7v-2.2l-0.8,2.2h-0.7l-0.8-2.2v2.2H195.7z"/>
<path id="path3050_3_" class="st15" d="M200,41.3v-3h2.4V39h-1.7v0.5h1.6v0.6h-1.6v0.5h1.7v0.7L200,41.3z"/>
<path id="path3052_3_" class="st15" d="M202.8,38.3v3h0.7v-1.1h0.3l0.9,1.1h0.9l-1-1.1c0.4,0,0.8-0.4,0.8-0.9c0-0.6-0.5-1-1-1
	L202.8,38.3L202.8,38.3z M203.6,39h0.9c0.2,0,0.4,0.2,0.4,0.3c0,0.2-0.2,0.3-0.3,0.3h-0.9V39L203.6,39z"/>
<path id="path3054_3_" class="st15" d="M206.6,41.3h-0.8v-3h0.8V41.3z"/>
<path id="path3056_3_" class="st15" d="M208.4,41.3h-0.2c-0.8,0-1.3-0.6-1.3-1.5c0-0.9,0.5-1.5,1.5-1.5h0.8V39h-0.9
	c-0.4,0-0.7,0.3-0.7,0.8c0,0.6,0.3,0.8,0.8,0.8h0.2L208.4,41.3z"/>
<path id="path3058_3_" class="st15" d="M210.1,38.3l-1.3,3h0.8l0.2-0.6h1.4l0.2,0.6h0.9l-1.3-3L210.1,38.3L210.1,38.3z M210.5,39
	l0.4,1h-0.8L210.5,39L210.5,39z"/>
<path id="path3060_3_" class="st15" d="M212.4,41.3v-3h1l1.2,1.9v-1.9h0.7v3h-0.9l-1.2-1.9v1.9H212.4z"/>
<polygon class="st1" points="224.2,31.3 259,31.3 259,53.6 224.2,53.6 224.2,31.3 "/>
<path class="st16" d="M235.5,36.6h-2.8c-1.2,0.1-2.3,0.6-2.5,1.6c-0.2,0.5-0.2,1.1-0.4,1.7c-0.6,2.8-1.1,5.7-1.7,8.5h21.9
	c1.7,0,2.9-0.4,3.2-1.7c0.1-0.6,0.3-1.3,0.4-2c0.5-2.7,1.1-5.3,1.6-8.1H235.5z"/>
<path class="st1" d="M235.3,40.8c0.1-0.1,0.3-0.4,0.1-0.6c-0.1,0-0.1-0.1-0.3,0c-0.1,0-0.2,0.1-0.2,0.1c-0.1,0.1-0.1,0.4,0,0.5
	C235,40.9,235.2,40.8,235.3,40.8z M233.6,40.2c-0.1,0.5-0.2,1.1-0.3,1.6c-0.6,0-1.2,0-1.8,0c0.1-0.5,0.2-1.1,0.3-1.6h-0.7
	c-0.2,1.3-0.4,2.7-0.7,4h0.7c0.1-0.7,0.2-1.3,0.3-2c0.6,0,1.3,0,1.8,0c-0.1,0.7-0.3,1.3-0.4,2h0.7c0.2-1.4,0.4-2.7,0.7-4H233.6z
	 M243.1,41.3c-0.5-0.2-0.9,0.1-1.1,0.5c0-0.1,0.1-0.3,0.1-0.5h-0.5c-0.1,1-0.3,1.9-0.5,2.8h0.6c0.1-0.6,0.1-1.3,0.3-1.8
	c0.1-0.4,0.5-0.8,1.1-0.6C243.1,41.6,243.1,41.4,243.1,41.3z M243.4,43.5c-0.1-0.1-0.1-0.4-0.1-0.5c0-0.4,0.2-0.9,0.4-1.1
	c0.3-0.3,0.9-0.3,1.4-0.1c0-0.2,0-0.3,0.1-0.5c-0.8-0.1-1.5,0-1.9,0.4c-0.4,0.4-0.6,1.4-0.5,1.9c0.2,0.7,1.2,0.7,1.9,0.5
	c0-0.1,0.1-0.3,0.1-0.4C244.4,43.8,243.6,44,243.4,43.5z M250.1,41.3c-0.5-0.3-1,0.2-1.1,0.4c0-0.1,0.1-0.3,0.1-0.5h-0.5
	c-0.1,1-0.3,1.9-0.5,2.8h0.6c0-0.4,0.1-0.7,0.1-1c0.1-0.8,0.3-1.7,1.2-1.4C250,41.6,250,41.4,250.1,41.3L250.1,41.3z M234.7,41.3
	C234.7,41.3,234.7,41.3,234.7,41.3c-0.1,1-0.3,1.9-0.5,2.8h0.6c0.1-1,0.3-1.9,0.5-2.8L234.7,41.3L234.7,41.3z M239.9,41.2
	c-0.4,0-0.8,0.2-1,0.4c-0.3,0.3-0.6,1.1-0.5,1.7c0.1,0.9,1.3,0.9,2.2,0.7c0-0.2,0.1-0.3,0.1-0.5c-0.4,0.1-1.1,0.3-1.5,0.1
	c-0.3-0.2-0.3-0.7-0.2-1.1c0.6,0,1.3,0,1.9,0c0-0.3,0.2-0.6,0.1-0.9C240.8,41.3,240.4,41.2,239.9,41.2z M240.4,42.3h-1.4
	c0-0.3,0.3-0.7,0.8-0.7C240.3,41.6,240.6,41.8,240.4,42.3L240.4,42.3z M237.6,41.3c-0.5-0.2-1.1,0-1.4,0.2c0,0,0,0,0,0c0,0,0,0,0,0
	c0,0,0,0,0,0c0-0.1,0-0.2,0-0.2h-0.5c-0.2,1.4-0.5,2.8-0.7,4.1h0.6c0.1-0.5,0.1-1.1,0.3-1.6c0.1,0.5,1,0.4,1.4,0.2
	C238.1,43.7,238.7,41.7,237.6,41.3L237.6,41.3z M237.2,43.6c-0.3,0.3-1.1,0.3-1.2-0.2c0-0.2,0.1-0.5,0.1-0.8c0-0.3,0.1-0.5,0.1-0.7
	c0.3-0.4,1.2-0.4,1.3,0.2C237.7,42.7,237.4,43.3,237.2,43.6z M252.3,40.1c-0.1,0.4-0.1,0.9-0.2,1.3c-1.4-0.5-2.3,0.6-2.3,1.9
	c0,0.3,0,0.5,0.2,0.7c0.3,0.3,1.1,0.4,1.5,0.1c0.1-0.1,0.2-0.1,0.2-0.2c0,0,0.1-0.2,0.1-0.1c0,0.1-0.1,0.3-0.1,0.4h0.5
	c0.1-1.5,0.4-2.7,0.7-4.1L252.3,40.1L252.3,40.1L252.3,40.1z M250.9,43.8c-0.4,0-0.6-0.2-0.6-0.6c0-0.7,0.3-1.5,0.9-1.6
	c0.3,0,0.5,0,0.7,0.1C251.8,42.5,251.9,43.8,250.9,43.8z M245.9,41.3c0,0.2-0.1,0.3-0.1,0.5c0.3-0.1,1.4-0.4,1.5,0.1
	c0,0.2,0,0.3-0.1,0.4c-1-0.1-1.8,0.1-2,0.8c-0.1,0.5,0,0.9,0.3,1.1c0.6,0.2,1.3,0,1.5-0.4c0,0.1,0,0.3,0,0.4h0.5
	c0-0.5,0.1-0.9,0.2-1.3c0.1-0.4,0.2-0.7,0.2-1.1C247.8,41,246.6,41.3,245.9,41.3L245.9,41.3z M246.8,43.6c-0.3,0.3-1.2,0.4-1.1-0.3
	c0.1-0.6,0.7-0.7,1.4-0.6C247.1,43,247,43.4,246.8,43.6L246.8,43.6z"/>
<polygon class="st1" points="261,31.3 295.8,31.3 295.8,53.6 261,53.6 261,31.3 "/>
<path class="st17" d="M279.5,43.4c2.8,0,5.3-2.2,5.3-5c0-3-2.5-5.1-5.3-5.1h-2.4c-2.8,0-5.1,2.1-5.1,5.1c0,2.8,2.3,5,5.1,5H279.5z"
	/>
<path class="st1" d="M277.1,33.7c-2.5,0-4.6,2.1-4.6,4.6c0,2.5,2.1,4.6,4.6,4.6c2.5,0,4.6-2.1,4.6-4.6
	C281.8,35.8,279.7,33.7,277.1,33.7z M274.2,38.4L274.2,38.4c0-1.2,0.8-2.3,1.9-2.7v5.5C275,40.7,274.2,39.6,274.2,38.4z M278.2,41.1
	L278.2,41.1v-5.5c1.1,0.4,1.9,1.5,1.9,2.7C280.1,39.6,279.3,40.7,278.2,41.1z"/>
<path class="st17" d="M279.5,43.4c2.8,0,5.3-2.2,5.3-5c0-3-2.5-5.1-5.3-5.1h-2.4c-2.8,0-5.1,2.1-5.1,5.1c0,2.8,2.3,5,5.1,5H279.5z"
	/>
<path class="st1" d="M277.1,33.7c-2.5,0-4.6,2.1-4.6,4.6c0,2.5,2.1,4.6,4.6,4.6c2.5,0,4.6-2.1,4.6-4.6
	C281.8,35.8,279.7,33.7,277.1,33.7z M274.2,38.4L274.2,38.4c0-1.2,0.8-2.3,1.9-2.7v5.5C275,40.7,274.2,39.6,274.2,38.4z M278.2,41.1
	L278.2,41.1v-5.5c1.1,0.4,1.9,1.5,1.9,2.7C280.1,39.6,279.3,40.7,278.2,41.1z"/>
<path class="st18" d="M266.4,45.3c0-0.5-0.2-0.4-0.5-0.5v-0.1c0.2,0,0.4,0,0.6,0c0.2,0,0.5,0,0.9,0c1.4,0,2.1,0.9,2.1,1.9
	c0,0.5-0.3,1.8-2.2,1.8c-0.3,0-0.5,0-0.8,0c-0.2,0-0.5,0-0.7,0v-0.1c0.3,0,0.5,0,0.5-0.4L266.4,45.3L266.4,45.3z M266.9,47.7
	L266.9,47.7c0,0.4,0.3,0.5,0.6,0.5c1.1,0,1.5-0.9,1.5-1.7c0-1-0.6-1.7-1.7-1.7c-0.2,0-0.3,0-0.4,0V47.7L266.9,47.7z"/>
<path class="st18" d="M269.8,48.2h0.1c0.1,0,0.3,0,0.3-0.2v-1.4c0-0.2-0.1-0.3-0.3-0.4v-0.1c0.2-0.1,0.5-0.2,0.6-0.2
	c0,0,0.1,0,0.1,0c0,0,0,0,0,0.1v2c0,0.2,0.1,0.2,0.3,0.2h0.1v0.1c-0.2,0-0.4,0-0.6,0c-0.2,0-0.4,0-0.6,0V48.2L269.8,48.2z
	 M270.3,45.1L270.3,45.1c-0.1,0-0.3-0.1-0.3-0.3c0-0.1,0.1-0.3,0.3-0.3c0.1,0,0.3,0.1,0.3,0.3C270.6,45,270.5,45.1,270.3,45.1z"/>
<path class="st18" d="M271.4,46.6c0-0.2-0.1-0.2-0.3-0.3v-0.1c0.2-0.1,0.4-0.1,0.7-0.3c0,0,0,0,0,0.1v0.3c0.3-0.2,0.6-0.4,0.9-0.4
	c0.5,0,0.6,0.3,0.6,0.7v1.4c0,0.2,0.1,0.2,0.3,0.2h0.1v0.1c-0.2,0-0.4,0-0.6,0c-0.2,0-0.4,0-0.6,0v-0.1h0.1c0.1,0,0.3,0,0.3-0.2
	v-1.4c0-0.3-0.2-0.5-0.5-0.5c-0.2,0-0.4,0.1-0.6,0.3v1.6c0,0.2,0.1,0.2,0.3,0.2h0.1v0.1c-0.2,0-0.4,0-0.6,0c-0.2,0-0.4,0-0.6,0v-0.1
	h0.1c0.1,0,0.3,0,0.3-0.2V46.6L271.4,46.6z"/>
<path class="st18" d="M274.1,46.9c0,0,0,0.1,0,0.3c0,0.5,0.4,0.9,0.8,0.9c0.3,0,0.5-0.2,0.7-0.4l0.1,0.1c-0.2,0.3-0.5,0.6-1,0.6
	c-0.8,0-1-0.8-1-1.2c0-1,0.7-1.3,1.1-1.3c0.4,0,0.9,0.3,0.9,0.8c0,0,0,0.1,0,0.1l0,0H274.1L274.1,46.9z M275,46.7L275,46.7
	c0.1,0,0.1-0.1,0.1-0.1c0-0.3-0.2-0.5-0.5-0.5c-0.3,0-0.5,0.2-0.6,0.6H275L275,46.7z"/>
<path class="st18" d="M275.8,48.2h0.1c0.1,0,0.3,0,0.3-0.2v-1.5c0-0.2-0.2-0.2-0.3-0.2v-0.1c0.4-0.2,0.6-0.3,0.6-0.3c0,0,0,0,0,0.1
	v0.5h0c0.1-0.2,0.4-0.5,0.7-0.5c0.1,0,0.3,0.1,0.3,0.3c0,0.1-0.1,0.3-0.2,0.3c-0.2,0-0.2-0.1-0.4-0.1c-0.1,0-0.4,0.1-0.4,0.4v1.2
	c0,0.2,0.1,0.2,0.3,0.2h0.3v0.1c-0.3,0-0.5,0-0.7,0c-0.2,0-0.4,0-0.6,0V48.2L275.8,48.2z"/>
<path class="st18" d="M277.8,47.6c0.1,0.4,0.3,0.6,0.7,0.6c0.3,0,0.4-0.2,0.4-0.4c0-0.6-1.2-0.4-1.2-1.3c0-0.3,0.2-0.7,0.8-0.7
	c0.2,0,0.4,0,0.6,0.2l0,0.5h-0.1c-0.1-0.3-0.2-0.5-0.6-0.5c-0.2,0-0.4,0.1-0.4,0.3c0,0.6,1.2,0.4,1.2,1.3c0,0.3-0.3,0.7-0.9,0.7
	c-0.2,0-0.5-0.1-0.6-0.2L277.8,47.6L277.8,47.6L277.8,47.6z"/>
<path class="st18" d="M284.1,45.6H284c-0.1-0.6-0.5-0.9-1.1-0.9c-0.6,0-1.5,0.4-1.5,1.7c0,1.1,0.8,1.8,1.6,1.8c0.5,0,1-0.4,1.1-0.9
	l0.1,0l-0.1,0.8c-0.2,0.1-0.8,0.3-1.2,0.3c-1.2,0-2-0.8-2-2c0-1.1,1-1.9,2-1.9c0.4,0,0.8,0.1,1.3,0.3L284.1,45.6L284.1,45.6z"/>
<path class="st18" d="M284.3,48.2h0.1c0.1,0,0.3,0,0.3-0.2v-3c0-0.3-0.1-0.4-0.3-0.4v-0.1c0.2-0.1,0.4-0.2,0.5-0.2
	c0.1,0,0.1-0.1,0.1-0.1c0,0,0,0,0,0.1v3.7c0,0.2,0.1,0.2,0.3,0.2h0.1v0.1c-0.2,0-0.4,0-0.6,0c-0.2,0-0.4,0-0.6,0L284.3,48.2
	L284.3,48.2z"/>
<path class="st18" d="M287.7,48.1c0,0.1,0.1,0.1,0.1,0.1c0.1,0,0.1,0,0.2,0v0.1c-0.2,0-0.7,0.1-0.8,0.2l0,0V48
	c-0.3,0.3-0.6,0.4-0.9,0.4c-0.3,0-0.6-0.2-0.6-0.6v-1.4c0-0.1,0-0.3-0.3-0.3v-0.1c0.2,0,0.6,0,0.7,0c0.1,0,0.1,0,0.1,0.2v1.4
	c0,0.2,0,0.6,0.5,0.6c0.2,0,0.4-0.1,0.6-0.3v-1.4c0-0.1-0.3-0.2-0.4-0.2v-0.1c0.5,0,0.8-0.1,0.8-0.1c0,0,0,0,0,0.1L287.7,48.1
	L287.7,48.1z"/>
<path class="st18" d="M288.8,46.3c0.2-0.2,0.5-0.4,0.8-0.4c0.6,0,1,0.5,1,1.1c0,0.7-0.5,1.4-1.3,1.4c-0.4,0-0.6-0.1-0.7-0.2
	l-0.2,0.1l-0.1-0.1c0-0.3,0.1-0.6,0.1-0.9v-2.3c0-0.3-0.1-0.4-0.3-0.4v-0.1c0.2-0.1,0.4-0.2,0.5-0.2c0.1,0,0.1-0.1,0.1-0.1
	c0,0,0,0,0,0.1V46.3L288.8,46.3L288.8,46.3z M288.8,47.8L288.8,47.8c0,0.2,0.2,0.5,0.5,0.5c0.6,0,0.8-0.6,0.8-1c0-0.6-0.4-1-0.8-1
	c-0.2,0-0.4,0.1-0.5,0.2V47.8L288.8,47.8z"/>
<path class="st18" d="M266.8,49.5c-0.1,0-0.3,0-0.5,0c-0.1,0-0.3,0-0.4,0h0v0.1v0h0.1c0.1,0,0.2,0,0.2,0.2v1.5
	c0,0.1-0.1,0.1-0.2,0.2h0h0v0v0.1v0h0c0.1,0,0.3,0,0.4,0c0.1,0,0.3,0,0.5,0h0v-0.1v0h-0.1c-0.1,0-0.2,0-0.2-0.2v-1.5
	c0-0.1,0.1-0.2,0.2-0.2h0h0L266.8,49.5L266.8,49.5L266.8,49.5z"/>
<path class="st18" d="M269.2,49.5c-0.1,0-0.2,0-0.4,0c-0.1,0-0.3,0-0.4,0h0v0.1v0h0.1c0.1,0,0.2,0,0.2,0.3v1.1l-1.3-1.4
	c-0.1,0-0.2,0-0.3,0c-0.1,0-0.2,0-0.3,0h0v0.1v0h0.1c0.1,0,0.2,0.1,0.3,0.2v1.2c0,0.2-0.1,0.4-0.2,0.4h0h0v0.1v0h0
	c0.1,0,0.3,0,0.4,0c0.1,0,0.2,0,0.4,0h0v-0.1v0h-0.1c-0.2,0-0.3-0.1-0.3-0.3V50l1.5,1.6l0.1,0v0h0l0,0c0-0.1,0-0.2,0-0.3V50
	c0-0.3,0.1-0.4,0.2-0.4h0h0L269.2,49.5L269.2,49.5L269.2,49.5z"/>
<path class="st18" d="M271.2,49.4L271.2,49.4L271.2,49.4c0,0.1-0.1,0.1-0.2,0.1h-1.5h0c-0.1,0-0.1,0-0.1-0.1l0,0h-0.1h0v0
	c0,0.1,0,0.2,0,0.2c0,0.1,0,0.2,0,0.2l0,0h0.1h0l0,0c0-0.2,0-0.2,0.3-0.3h0.5v1.5c0,0.2-0.1,0.2-0.2,0.2h-0.1h0v0.1v0h0
	c0.1,0,0.3,0,0.5,0c0.2,0,0.4,0,0.5,0h0v-0.1v0h-0.1c-0.1,0-0.2,0-0.2-0.2v-1.5h0.5c0.2,0,0.2,0.2,0.2,0.3l0,0l0.1,0l0,0v0
	c0-0.1,0-0.2,0-0.2C271.3,49.6,271.3,49.5,271.2,49.4L271.2,49.4L271.2,49.4z"/>
<path class="st18" d="M272.9,51L272.9,51L272.9,51c-0.1,0.3-0.2,0.4-0.6,0.4c-0.2,0-0.3,0-0.3-0.2v-0.7l0.3,0c0.2,0,0.2,0.1,0.2,0.3
	l0,0l0.1,0l0,0l0,0c0-0.1,0-0.2,0-0.3c0-0.1,0-0.2,0-0.3l0,0h-0.1h0l0,0c0,0.2,0,0.2-0.2,0.2H272l0-0.7h0.4c0.3,0,0.3,0.1,0.3,0.3
	l0,0l0.1,0l0,0l0,0c0-0.1,0-0.2,0-0.3c0-0.1,0-0.1,0-0.1l0,0h0c-0.2,0-0.5,0-0.7,0c-0.2,0-0.5,0-0.7,0h0v0.1v0h0.1
	c0.1,0,0.2,0,0.2,0.2v1.5c0,0.1-0.1,0.2-0.2,0.2h0h0v0v0.1v0h0c0.2,0,0.5,0,0.8,0c0.3,0,0.6,0,0.8,0h0l0,0
	C273,51.4,273,51.2,272.9,51L272.9,51L272.9,51z"/>
<path class="st18" d="M275.1,51.4c-0.1,0-0.2,0-0.3-0.2l-0.5-0.7c0.2-0.1,0.4-0.3,0.4-0.5c0-0.4-0.3-0.5-0.7-0.5c-0.2,0-0.3,0-0.5,0
	c-0.2,0-0.4,0-0.4,0h0v0.1v0h0.1c0.1,0,0.2,0,0.2,0.2v1.5c0,0.1-0.1,0.1-0.2,0.1h-0.1h0v0.1v0h0c0.1,0,0.3,0,0.4,0
	c0.2,0,0.3,0,0.5,0h0v-0.1v0H274c-0.1,0-0.2,0-0.2-0.2v-0.6h0.2c0.2,0.3,0.4,0.6,0.6,0.9c0.1,0,0.2,0,0.3,0c0.1,0,0.2,0,0.3,0h0
	L275.1,51.4L275.1,51.4L275.1,51.4z M274.4,50c0,0.3-0.1,0.4-0.4,0.4h-0.1v-0.8c0,0,0.1,0,0.2,0C274.2,49.6,274.4,49.8,274.4,50z"/>
<path class="st18" d="M277.5,49.5c-0.1,0-0.2,0-0.4,0c-0.1,0-0.3,0-0.4,0h0v0.1v0h0.1c0.1,0,0.2,0,0.2,0.3v1.1l-1.3-1.4
	c-0.1,0-0.2,0-0.3,0c-0.1,0-0.2,0-0.3,0h0v0.1v0h0.1c0.1,0,0.2,0.1,0.2,0.2v1.2c0,0.2-0.1,0.4-0.2,0.4h0h0v0.1v0h0
	c0.1,0,0.3,0,0.4,0c0.1,0,0.2,0,0.4,0h0v-0.1v0h-0.1c-0.2,0-0.3-0.1-0.3-0.3V50l1.5,1.6l0.1,0h0l0,0c0-0.1,0-0.2,0-0.3V50
	c0-0.3,0.1-0.4,0.2-0.4h0h0L277.5,49.5L277.5,49.5L277.5,49.5z"/>
<path class="st18" d="M279.5,51.4c-0.1,0-0.1,0-0.2-0.1c0-0.1-0.1-0.2-0.1-0.3l-0.5-1.5c0,0,0,0,0-0.1c0,0,0,0,0,0c0,0,0,0,0,0
	c-0.1,0-0.2,0.1-0.3,0.1c0,0.1-0.1,0.3-0.1,0.4l-0.5,1.3c0,0.1-0.1,0.2-0.2,0.2h0h0v0.1v0l0,0c0.1,0,0.2,0,0.3,0c0.1,0,0.2,0,0.3,0
	l0,0v-0.1v0h0c-0.1,0-0.2,0-0.2-0.1c0,0,0-0.1,0.1-0.2l0.1-0.3h0.6l0.1,0.3c0,0.1,0.1,0.2,0.1,0.2c0,0.1-0.1,0.1-0.2,0.1h0h0v0.1v0
	l0,0c0.1,0,0.3,0,0.4,0c0.1,0,0.3,0,0.4,0l0,0L279.5,51.4L279.5,51.4L279.5,51.4z M278.7,50.6h-0.5l0.3-0.8L278.7,50.6z M278,51.1
	L278,51.1L278,51.1L278,51.1z"/>
<path class="st18" d="M281.2,49.4L281.2,49.4L281.2,49.4c0,0.1-0.1,0.1-0.2,0.1h-1.5l0,0c-0.1,0-0.1,0-0.1-0.1l0,0h-0.1h0v0
	c0,0.1,0,0.2,0,0.2c0,0.1,0,0.2,0,0.2l0,0h0.1h0l0,0c0-0.2,0-0.2,0.3-0.3h0.5l0,1.5c0,0.2-0.1,0.2-0.2,0.2h-0.1h0v0.1v0h0
	c0.1,0,0.3,0,0.5,0c0.2,0,0.4,0,0.5,0h0v-0.1v0h-0.1c-0.1,0-0.2,0-0.2-0.2v-1.5h0.5c0.2,0,0.2,0.2,0.2,0.3l0,0l0.1,0l0,0v0
	c0-0.1,0-0.2,0-0.2C281.3,49.6,281.3,49.5,281.2,49.4L281.2,49.4L281.2,49.4z"/>
<path class="st18" d="M282.3,49.5c-0.1,0-0.3,0-0.5,0c-0.1,0-0.3,0-0.4,0h0v0.1v0h0.1c0.1,0,0.2,0,0.2,0.2v1.5
	c0,0.1-0.1,0.2-0.2,0.2h0h0v0v0.1v0h0c0.1,0,0.3,0,0.4,0c0.1,0,0.3,0,0.5,0h0v-0.1v0h-0.1c-0.1,0-0.2,0-0.2-0.2v-1.5
	c0-0.1,0.1-0.2,0.2-0.2h0h0L282.3,49.5L282.3,49.5L282.3,49.5z"/>
<path class="st18" d="M283.5,49.5L283.5,49.5C283.5,49.5,283.5,49.5,283.5,49.5L283.5,49.5L283.5,49.5c-0.6,0-1.1,0.5-1.1,1.1
	c0,0.6,0.5,1,1.1,1c0.6,0,1.1-0.4,1.1-1.1C284.6,49.9,284.1,49.5,283.5,49.5z M283.5,51.4c-0.5,0-0.7-0.5-0.7-1
	c0-0.4,0.1-0.8,0.6-0.8c0.5,0,0.7,0.5,0.7,0.9C284.1,51,284,51.4,283.5,51.4z"/>
<polygon class="st18" points="282.4,50.5 282.4,50.5 282.4,50.5 "/>
<path class="st18" d="M287,49.5c-0.1,0-0.2,0-0.4,0c-0.1,0-0.3,0-0.4,0h0v0.1v0h0.1c0.1,0,0.2,0,0.2,0.3v1.1l-1.3-1.4
	c-0.1,0-0.2,0-0.3,0c-0.1,0-0.2,0-0.3,0h0v0.1v0h0c0.1,0,0.2,0.1,0.3,0.2v1.2c0,0.2-0.1,0.4-0.2,0.4h0h0v0.1v0h0c0.1,0,0.3,0,0.4,0
	c0.1,0,0.2,0,0.4,0h0v-0.1v0h-0.1c-0.2,0-0.3-0.1-0.3-0.3V50l1.5,1.6l0.1,0h0l0,0c0-0.1,0-0.2,0-0.3V50c0-0.3,0.1-0.4,0.2-0.4h0h0
	L287,49.5L287,49.5L287,49.5z"/>
<path class="st18" d="M288.9,51.4c-0.1,0-0.1,0-0.2-0.1c0-0.1-0.1-0.2-0.1-0.3l-0.5-1.5c0,0,0,0,0-0.1c0,0,0,0,0,0c0,0,0,0,0,0
	c-0.1,0-0.2,0.1-0.3,0.1c0,0.1-0.1,0.3-0.1,0.4l-0.5,1.3c0,0.1-0.1,0.2-0.2,0.2h0h0v0.1v0l0,0c0.1,0,0.2,0,0.3,0c0.1,0,0.2,0,0.3,0
	l0,0v-0.1v0h0c-0.1,0-0.2,0-0.2-0.1c0,0,0-0.1,0.1-0.2l0.1-0.3h0.6l0.1,0.3c0,0.1,0.1,0.2,0.1,0.2c0,0.1-0.1,0.1-0.2,0.1h0h0v0.1v0
	l0,0c0.1,0,0.3,0,0.4,0c0.1,0,0.3,0,0.4,0l0,0L288.9,51.4L288.9,51.4L288.9,51.4z M288.1,50.6h-0.5l0.3-0.8L288.1,50.6z"/>
<path class="st18" d="M290.6,51L290.6,51L290.6,51c0,0.1-0.1,0.2-0.1,0.2c0,0.1-0.2,0.1-0.3,0.2c-0.1,0-0.1,0-0.2,0
	c-0.1,0-0.1,0-0.2,0c-0.1,0-0.2,0-0.2-0.1v-1.5c0-0.1,0.1-0.1,0.2-0.1h0.1h0v-0.1v0h0c-0.1,0-0.3,0-0.4,0c-0.2,0-0.3,0-0.5,0h0v0.1
	v0h0.1c0.1,0,0.2,0,0.2,0.2v1.5c0,0.2-0.1,0.2-0.2,0.2h0h0v0.1v0h0c0.3,0,0.5,0,0.8,0c0.3,0,0.5,0,0.8,0h0h0l0,0
	C290.6,51.4,290.7,51.2,290.6,51L290.6,51L290.6,51z"/>
<path class="st18" d="M290.6,49.4c0.2,0,0.3,0.1,0.3,0.3c0,0.2-0.1,0.3-0.3,0.3s-0.3-0.1-0.3-0.3C290.3,49.6,290.5,49.4,290.6,49.4z
	 M290.6,50L290.6,50c0.1,0,0.2-0.1,0.2-0.2c0-0.1-0.1-0.2-0.2-0.2c-0.1,0-0.2,0.1-0.2,0.2C290.4,49.9,290.5,50,290.6,50z
	 M290.5,49.9L290.5,49.9L290.5,49.9C290.5,49.9,290.5,49.9,290.5,49.9l0-0.3c0,0,0,0,0,0v0h0.2c0.1,0,0.1,0,0.1,0.1
	c0,0,0,0.1-0.1,0.1l0,0.1c0,0,0,0.1,0.1,0.1v0h-0.1c0,0-0.1-0.1-0.1-0.1h0v0.1c0,0,0,0,0,0v0H290.5L290.5,49.9z M290.6,49.7
	L290.6,49.7L290.6,49.7C290.7,49.7,290.7,49.7,290.6,49.7c0.1-0.1,0.1-0.1,0-0.1h0V49.7z"/>
<path class="st18" d="M266.4,45.3c0-0.5-0.2-0.4-0.5-0.5v-0.1c0.2,0,0.4,0,0.6,0c0.2,0,0.5,0,0.9,0c1.4,0,2.1,0.9,2.1,1.9
	c0,0.5-0.3,1.8-2.2,1.8c-0.3,0-0.5,0-0.8,0c-0.2,0-0.5,0-0.7,0v-0.1c0.3,0,0.5,0,0.5-0.4L266.4,45.3L266.4,45.3z M266.9,47.7
	L266.9,47.7c0,0.4,0.3,0.5,0.6,0.5c1.1,0,1.5-0.9,1.5-1.7c0-1-0.6-1.7-1.7-1.7c-0.2,0-0.3,0-0.4,0V47.7L266.9,47.7z"/>
<path class="st18" d="M269.8,48.2h0.1c0.1,0,0.3,0,0.3-0.2v-1.4c0-0.2-0.1-0.3-0.3-0.4v-0.1c0.2-0.1,0.5-0.2,0.6-0.2
	c0,0,0.1,0,0.1,0c0,0,0,0,0,0.1v2c0,0.2,0.1,0.2,0.3,0.2h0.1v0.1c-0.2,0-0.4,0-0.6,0c-0.2,0-0.4,0-0.6,0V48.2L269.8,48.2z
	 M270.3,45.1L270.3,45.1c-0.1,0-0.3-0.1-0.3-0.3c0-0.1,0.1-0.3,0.3-0.3c0.1,0,0.3,0.1,0.3,0.3C270.6,45,270.5,45.1,270.3,45.1z"/>
<path class="st18" d="M271.4,46.6c0-0.2-0.1-0.2-0.3-0.3v-0.1c0.2-0.1,0.4-0.1,0.7-0.3c0,0,0,0,0,0.1v0.3c0.3-0.2,0.6-0.4,0.9-0.4
	c0.5,0,0.6,0.3,0.6,0.7v1.4c0,0.2,0.1,0.2,0.3,0.2h0.1v0.1c-0.2,0-0.4,0-0.6,0c-0.2,0-0.4,0-0.6,0v-0.1h0.1c0.1,0,0.3,0,0.3-0.2
	v-1.4c0-0.3-0.2-0.5-0.5-0.5c-0.2,0-0.4,0.1-0.6,0.3v1.6c0,0.2,0.1,0.2,0.3,0.2h0.1v0.1c-0.2,0-0.4,0-0.6,0c-0.2,0-0.4,0-0.6,0v-0.1
	h0.1c0.1,0,0.3,0,0.3-0.2V46.6L271.4,46.6z"/>
<path class="st18" d="M274.1,46.9c0,0,0,0.1,0,0.3c0,0.5,0.4,0.9,0.8,0.9c0.3,0,0.5-0.2,0.7-0.4l0.1,0.1c-0.2,0.3-0.5,0.6-1,0.6
	c-0.8,0-1-0.8-1-1.2c0-1,0.7-1.3,1.1-1.3c0.4,0,0.9,0.3,0.9,0.8c0,0,0,0.1,0,0.1l0,0H274.1L274.1,46.9z M275,46.7L275,46.7
	c0.1,0,0.1-0.1,0.1-0.1c0-0.3-0.2-0.5-0.5-0.5c-0.3,0-0.5,0.2-0.6,0.6H275L275,46.7z"/>
<path class="st18" d="M275.8,48.2h0.1c0.1,0,0.3,0,0.3-0.2v-1.5c0-0.2-0.2-0.2-0.3-0.2v-0.1c0.4-0.2,0.6-0.3,0.6-0.3c0,0,0,0,0,0.1
	v0.5h0c0.1-0.2,0.4-0.5,0.7-0.5c0.1,0,0.3,0.1,0.3,0.3c0,0.1-0.1,0.3-0.2,0.3c-0.2,0-0.2-0.1-0.4-0.1c-0.1,0-0.4,0.1-0.4,0.4v1.2
	c0,0.2,0.1,0.2,0.3,0.2h0.3v0.1c-0.3,0-0.5,0-0.7,0c-0.2,0-0.4,0-0.6,0V48.2L275.8,48.2z"/>
<path class="st18" d="M277.8,47.6c0.1,0.4,0.3,0.6,0.7,0.6c0.3,0,0.4-0.2,0.4-0.4c0-0.6-1.2-0.4-1.2-1.3c0-0.3,0.2-0.7,0.8-0.7
	c0.2,0,0.4,0,0.6,0.2l0,0.5h-0.1c-0.1-0.3-0.2-0.5-0.6-0.5c-0.2,0-0.4,0.1-0.4,0.3c0,0.6,1.2,0.4,1.2,1.3c0,0.3-0.3,0.7-0.9,0.7
	c-0.2,0-0.5-0.1-0.6-0.2L277.8,47.6L277.8,47.6L277.8,47.6z"/>
<path class="st18" d="M284.1,45.6H284c-0.1-0.6-0.5-0.9-1.1-0.9c-0.6,0-1.5,0.4-1.5,1.7c0,1.1,0.8,1.8,1.6,1.8c0.5,0,1-0.4,1.1-0.9
	l0.1,0l-0.1,0.8c-0.2,0.1-0.8,0.3-1.2,0.3c-1.2,0-2-0.8-2-2c0-1.1,1-1.9,2-1.9c0.4,0,0.8,0.1,1.3,0.3L284.1,45.6L284.1,45.6z"/>
<path class="st18" d="M284.3,48.2h0.1c0.1,0,0.3,0,0.3-0.2v-3c0-0.3-0.1-0.4-0.3-0.4v-0.1c0.2-0.1,0.4-0.2,0.5-0.2
	c0.1,0,0.1-0.1,0.1-0.1c0,0,0,0,0,0.1v3.7c0,0.2,0.1,0.2,0.3,0.2h0.1v0.1c-0.2,0-0.4,0-0.6,0c-0.2,0-0.4,0-0.6,0L284.3,48.2
	L284.3,48.2z"/>
<path class="st18" d="M287.7,48.1c0,0.1,0.1,0.1,0.1,0.1c0.1,0,0.1,0,0.2,0v0.1c-0.2,0-0.7,0.1-0.8,0.2l0,0V48
	c-0.3,0.3-0.6,0.4-0.9,0.4c-0.3,0-0.6-0.2-0.6-0.6v-1.4c0-0.1,0-0.3-0.3-0.3v-0.1c0.2,0,0.6,0,0.7,0c0.1,0,0.1,0,0.1,0.2v1.4
	c0,0.2,0,0.6,0.5,0.6c0.2,0,0.4-0.1,0.6-0.3v-1.4c0-0.1-0.3-0.2-0.4-0.2v-0.1c0.5,0,0.8-0.1,0.8-0.1c0,0,0,0,0,0.1L287.7,48.1
	L287.7,48.1z"/>
<path class="st18" d="M288.8,46.3c0.2-0.2,0.5-0.4,0.8-0.4c0.6,0,1,0.5,1,1.1c0,0.7-0.5,1.4-1.3,1.4c-0.4,0-0.6-0.1-0.7-0.2
	l-0.2,0.1l-0.1-0.1c0-0.3,0.1-0.6,0.1-0.9v-2.3c0-0.3-0.1-0.4-0.3-0.4v-0.1c0.2-0.1,0.4-0.2,0.5-0.2c0.1,0,0.1-0.1,0.1-0.1
	c0,0,0,0,0,0.1V46.3L288.8,46.3L288.8,46.3z M288.8,47.8L288.8,47.8c0,0.2,0.2,0.5,0.5,0.5c0.6,0,0.8-0.6,0.8-1c0-0.6-0.4-1-0.8-1
	c-0.2,0-0.4,0.1-0.5,0.2V47.8L288.8,47.8z"/>
<path class="st18" d="M266.8,49.5c-0.1,0-0.3,0-0.5,0c-0.1,0-0.3,0-0.4,0h0v0.1v0h0.1c0.1,0,0.2,0,0.2,0.2v1.5
	c0,0.1-0.1,0.1-0.2,0.2h0h0v0v0.1v0h0c0.1,0,0.3,0,0.4,0c0.1,0,0.3,0,0.5,0h0v-0.1v0h-0.1c-0.1,0-0.2,0-0.2-0.2v-1.5
	c0-0.1,0.1-0.2,0.2-0.2h0h0L266.8,49.5L266.8,49.5L266.8,49.5z"/>
<path class="st18" d="M269.2,49.5c-0.1,0-0.2,0-0.4,0c-0.1,0-0.3,0-0.4,0h0v0.1v0h0.1c0.1,0,0.2,0,0.2,0.3v1.1l-1.3-1.4
	c-0.1,0-0.2,0-0.3,0c-0.1,0-0.2,0-0.3,0h0v0.1v0h0.1c0.1,0,0.2,0.1,0.3,0.2v1.2c0,0.2-0.1,0.4-0.2,0.4h0h0v0.1v0h0
	c0.1,0,0.3,0,0.4,0c0.1,0,0.2,0,0.4,0h0v-0.1v0h-0.1c-0.2,0-0.3-0.1-0.3-0.3V50l1.5,1.6l0.1,0v0h0l0,0c0-0.1,0-0.2,0-0.3V50
	c0-0.3,0.1-0.4,0.2-0.4h0h0L269.2,49.5L269.2,49.5L269.2,49.5z"/>
<path class="st18" d="M271.2,49.4L271.2,49.4L271.2,49.4c0,0.1-0.1,0.1-0.2,0.1h-1.5h0c-0.1,0-0.1,0-0.1-0.1l0,0h-0.1h0v0
	c0,0.1,0,0.2,0,0.2c0,0.1,0,0.2,0,0.2l0,0h0.1h0l0,0c0-0.2,0-0.2,0.3-0.3h0.5v1.5c0,0.2-0.1,0.2-0.2,0.2h-0.1h0v0.1v0h0
	c0.1,0,0.3,0,0.5,0c0.2,0,0.4,0,0.5,0h0v-0.1v0h-0.1c-0.1,0-0.2,0-0.2-0.2v-1.5h0.5c0.2,0,0.2,0.2,0.2,0.3l0,0l0.1,0l0,0v0
	c0-0.1,0-0.2,0-0.2C271.3,49.6,271.3,49.5,271.2,49.4L271.2,49.4L271.2,49.4z"/>
<path class="st18" d="M272.9,51L272.9,51L272.9,51c-0.1,0.3-0.2,0.4-0.6,0.4c-0.2,0-0.3,0-0.3-0.2v-0.7l0.3,0c0.2,0,0.2,0.1,0.2,0.3
	l0,0l0.1,0l0,0l0,0c0-0.1,0-0.2,0-0.3c0-0.1,0-0.2,0-0.3l0,0h-0.1h0l0,0c0,0.2,0,0.2-0.2,0.2H272l0-0.7h0.4c0.3,0,0.3,0.1,0.3,0.3
	l0,0l0.1,0l0,0l0,0c0-0.1,0-0.2,0-0.3c0-0.1,0-0.1,0-0.1l0,0h0c-0.2,0-0.5,0-0.7,0c-0.2,0-0.5,0-0.7,0h0v0.1v0h0.1
	c0.1,0,0.2,0,0.2,0.2v1.5c0,0.1-0.1,0.2-0.2,0.2h0h0v0v0.1v0h0c0.2,0,0.5,0,0.8,0c0.3,0,0.6,0,0.8,0h0l0,0
	C273,51.4,273,51.2,272.9,51L272.9,51L272.9,51z"/>
<path class="st18" d="M275.1,51.4c-0.1,0-0.2,0-0.3-0.2l-0.5-0.7c0.2-0.1,0.4-0.3,0.4-0.5c0-0.4-0.3-0.5-0.7-0.5c-0.2,0-0.3,0-0.5,0
	c-0.2,0-0.4,0-0.4,0h0v0.1v0h0.1c0.1,0,0.2,0,0.2,0.2v1.5c0,0.1-0.1,0.1-0.2,0.1h-0.1h0v0.1v0h0c0.1,0,0.3,0,0.4,0
	c0.2,0,0.3,0,0.5,0h0v-0.1v0H274c-0.1,0-0.2,0-0.2-0.2v-0.6h0.2c0.2,0.3,0.4,0.6,0.6,0.9c0.1,0,0.2,0,0.3,0c0.1,0,0.2,0,0.3,0h0
	L275.1,51.4L275.1,51.4L275.1,51.4z M274.4,50c0,0.3-0.1,0.4-0.4,0.4h-0.1v-0.8c0,0,0.1,0,0.2,0C274.2,49.6,274.4,49.8,274.4,50z"/>
<path class="st18" d="M277.5,49.5c-0.1,0-0.2,0-0.4,0c-0.1,0-0.3,0-0.4,0h0v0.1v0h0.1c0.1,0,0.2,0,0.2,0.3v1.1l-1.3-1.4
	c-0.1,0-0.2,0-0.3,0c-0.1,0-0.2,0-0.3,0h0v0.1v0h0.1c0.1,0,0.2,0.1,0.2,0.2v1.2c0,0.2-0.1,0.4-0.2,0.4h0h0v0.1v0h0
	c0.1,0,0.3,0,0.4,0c0.1,0,0.2,0,0.4,0h0v-0.1v0h-0.1c-0.2,0-0.3-0.1-0.3-0.3V50l1.5,1.6l0.1,0h0l0,0c0-0.1,0-0.2,0-0.3V50
	c0-0.3,0.1-0.4,0.2-0.4h0h0L277.5,49.5L277.5,49.5L277.5,49.5z"/>
<path class="st18" d="M279.5,51.4c-0.1,0-0.1,0-0.2-0.1c0-0.1-0.1-0.2-0.1-0.3l-0.5-1.5c0,0,0,0,0-0.1c0,0,0,0,0,0c0,0,0,0,0,0
	c-0.1,0-0.2,0.1-0.3,0.1c0,0.1-0.1,0.3-0.1,0.4l-0.5,1.3c0,0.1-0.1,0.2-0.2,0.2h0h0v0.1v0l0,0c0.1,0,0.2,0,0.3,0c0.1,0,0.2,0,0.3,0
	l0,0v-0.1v0h0c-0.1,0-0.2,0-0.2-0.1c0,0,0-0.1,0.1-0.2l0.1-0.3h0.6l0.1,0.3c0,0.1,0.1,0.2,0.1,0.2c0,0.1-0.1,0.1-0.2,0.1h0h0v0.1v0
	l0,0c0.1,0,0.3,0,0.4,0c0.1,0,0.3,0,0.4,0l0,0L279.5,51.4L279.5,51.4L279.5,51.4z M278.7,50.6h-0.5l0.3-0.8L278.7,50.6z M278,51.1
	L278,51.1L278,51.1L278,51.1z"/>
<path class="st18" d="M281.2,49.4L281.2,49.4L281.2,49.4c0,0.1-0.1,0.1-0.2,0.1h-1.5l0,0c-0.1,0-0.1,0-0.1-0.1l0,0h-0.1h0v0
	c0,0.1,0,0.2,0,0.2c0,0.1,0,0.2,0,0.2l0,0h0.1h0l0,0c0-0.2,0-0.2,0.3-0.3h0.5l0,1.5c0,0.2-0.1,0.2-0.2,0.2h-0.1h0v0.1v0h0
	c0.1,0,0.3,0,0.5,0c0.2,0,0.4,0,0.5,0h0v-0.1v0h-0.1c-0.1,0-0.2,0-0.2-0.2v-1.5h0.5c0.2,0,0.2,0.2,0.2,0.3l0,0l0.1,0l0,0v0
	c0-0.1,0-0.2,0-0.2C281.3,49.6,281.3,49.5,281.2,49.4L281.2,49.4L281.2,49.4z"/>
<path class="st18" d="M282.3,49.5c-0.1,0-0.3,0-0.5,0c-0.1,0-0.3,0-0.4,0h0v0.1v0h0.1c0.1,0,0.2,0,0.2,0.2v1.5
	c0,0.1-0.1,0.2-0.2,0.2h0h0v0v0.1v0h0c0.1,0,0.3,0,0.4,0c0.1,0,0.3,0,0.5,0h0v-0.1v0h-0.1c-0.1,0-0.2,0-0.2-0.2v-1.5
	c0-0.1,0.1-0.2,0.2-0.2h0h0L282.3,49.5L282.3,49.5L282.3,49.5z"/>
<path class="st18" d="M283.5,49.5L283.5,49.5C283.5,49.5,283.5,49.5,283.5,49.5L283.5,49.5L283.5,49.5c-0.6,0-1.1,0.5-1.1,1.1
	c0,0.6,0.5,1,1.1,1c0.6,0,1.1-0.4,1.1-1.1C284.6,49.9,284.1,49.5,283.5,49.5z M283.5,51.4c-0.5,0-0.7-0.5-0.7-1
	c0-0.4,0.1-0.8,0.6-0.8c0.5,0,0.7,0.5,0.7,0.9C284.1,51,284,51.4,283.5,51.4z"/>
<polygon class="st18" points="282.4,50.5 282.4,50.5 282.4,50.5 "/>
<path class="st18" d="M287,49.5c-0.1,0-0.2,0-0.4,0c-0.1,0-0.3,0-0.4,0h0v0.1v0h0.1c0.1,0,0.2,0,0.2,0.3v1.1l-1.3-1.4
	c-0.1,0-0.2,0-0.3,0c-0.1,0-0.2,0-0.3,0h0v0.1v0h0c0.1,0,0.2,0.1,0.3,0.2v1.2c0,0.2-0.1,0.4-0.2,0.4h0h0v0.1v0h0c0.1,0,0.3,0,0.4,0
	c0.1,0,0.2,0,0.4,0h0v-0.1v0h-0.1c-0.2,0-0.3-0.1-0.3-0.3V50l1.5,1.6l0.1,0h0l0,0c0-0.1,0-0.2,0-0.3V50c0-0.3,0.1-0.4,0.2-0.4h0h0
	L287,49.5L287,49.5L287,49.5z"/>
<path class="st18" d="M288.9,51.4c-0.1,0-0.1,0-0.2-0.1c0-0.1-0.1-0.2-0.1-0.3l-0.5-1.5c0,0,0,0,0-0.1c0,0,0,0,0,0c0,0,0,0,0,0
	c-0.1,0-0.2,0.1-0.3,0.1c0,0.1-0.1,0.3-0.1,0.4l-0.5,1.3c0,0.1-0.1,0.2-0.2,0.2h0h0v0.1v0l0,0c0.1,0,0.2,0,0.3,0c0.1,0,0.2,0,0.3,0
	l0,0v-0.1v0h0c-0.1,0-0.2,0-0.2-0.1c0,0,0-0.1,0.1-0.2l0.1-0.3h0.6l0.1,0.3c0,0.1,0.1,0.2,0.1,0.2c0,0.1-0.1,0.1-0.2,0.1h0h0v0.1v0
	l0,0c0.1,0,0.3,0,0.4,0c0.1,0,0.3,0,0.4,0l0,0L288.9,51.4L288.9,51.4L288.9,51.4z M288.1,50.6h-0.5l0.3-0.8L288.1,50.6z"/>
<path class="st18" d="M290.6,51L290.6,51L290.6,51c0,0.1-0.1,0.2-0.1,0.2c0,0.1-0.2,0.1-0.3,0.2c-0.1,0-0.1,0-0.2,0
	c-0.1,0-0.1,0-0.2,0c-0.1,0-0.2,0-0.2-0.1v-1.5c0-0.1,0.1-0.1,0.2-0.1h0.1h0v-0.1v0h0c-0.1,0-0.3,0-0.4,0c-0.2,0-0.3,0-0.5,0h0v0.1
	v0h0.1c0.1,0,0.2,0,0.2,0.2v1.5c0,0.2-0.1,0.2-0.2,0.2h0h0v0.1v0h0c0.3,0,0.5,0,0.8,0c0.3,0,0.5,0,0.8,0h0h0l0,0
	C290.6,51.4,290.7,51.2,290.6,51L290.6,51L290.6,51z"/>
<path class="st18" d="M290.6,49.4c0.2,0,0.3,0.1,0.3,0.3c0,0.2-0.1,0.3-0.3,0.3s-0.3-0.1-0.3-0.3C290.3,49.6,290.5,49.4,290.6,49.4z
	 M290.6,50L290.6,50c0.1,0,0.2-0.1,0.2-0.2c0-0.1-0.1-0.2-0.2-0.2c-0.1,0-0.2,0.1-0.2,0.2C290.4,49.9,290.5,50,290.6,50z
	 M290.5,49.9L290.5,49.9L290.5,49.9C290.5,49.9,290.5,49.9,290.5,49.9l0-0.3c0,0,0,0,0,0v0h0.2c0.1,0,0.1,0,0.1,0.1
	c0,0,0,0.1-0.1,0.1l0,0.1c0,0,0,0.1,0.1,0.1v0h-0.1c0,0-0.1-0.1-0.1-0.1h0v0.1c0,0,0,0,0,0v0H290.5L290.5,49.9z M290.6,49.7
	L290.6,49.7L290.6,49.7C290.7,49.7,290.7,49.7,290.6,49.7c0.1-0.1,0.1-0.1,0-0.1h0V49.7z"/>
<path class="st19" d="M120.7,16.3c-2.5,0-5,0-7.4,0c0,0,0,0-0.1,0c0-4.2,0-8.5,0-12.8c2.5,0,5,0,7.5,0c0,1,0,2,0,3c-1.3,0-2.7,0-4,0
	c0,0.6,0,1.1,0,1.6c0,0.2,0.1,0.3,0.3,0.3c0.9,0,1.8,0,2.8,0c0.2,0,0.5,0,0.7,0c0,1,0,1.9,0,2.9c-1.3,0-2.5,0-3.7,0
	c0,0.7,0,1.4,0,2.1c1.3,0,2.7,0,4,0C120.7,14.2,120.7,15.2,120.7,16.3z"/>
<path class="st19" d="M106.6,16.5c-0.5-0.1-0.9-0.1-1.4-0.2c-1.8-0.5-2.9-1.8-3-3.6c-0.1-1.1-0.1-2.1,0.3-3.1c0.6-1.7,2-2.9,3.9-2.9
	c0.7,0,1.4,0,2.1,0.2c1.6,0.4,2.3,1.6,2.6,3.1c0.2,0.9,0.2,1.8,0,2.8c-1.8,0-3.6,0-5.4,0c0,0.5,0.3,0.8,0.7,1
	c0.5,0.3,1.1,0.2,1.7,0.2c0.8,0,1.6-0.2,2.4-0.6c0.1,0.6,0.1,1.1,0.2,1.7c0,0.1,0,0.1,0,0.2c0.1,0.8,0.2,0.7-0.6,0.9
	c-0.7,0.2-1.4,0.3-2.2,0.4c-0.1,0-0.2,0-0.3,0.1C107.4,16.5,107,16.5,106.6,16.5z M105.7,10.4c0.7,0,1.4,0,2.1,0
	c0.1-0.8-0.3-1.3-0.9-1.3C106.2,9,105.7,9.6,105.7,10.4z"/>
<path class="st19" d="M86.3,10.5c0.2-0.2,0.4-0.4,0.7-0.6c0.6-0.4,1-0.4,1.5,0.1c0.3,0.3,0.5,0.6,0.7,0.9c0.1,0.1,0.2,0.2,0.3,0.4
	c0.2-0.2,0.5-0.4,0.7-0.6c0.7-0.7,1.3-0.7,2.1-0.1c0.6,0.5,1.1,1,1.7,1.5c1.2,1,2.6,1.3,4.1,0.8c1.4-0.4,2.8-1,4-2
	c0.1-0.1,0.2-0.3,0.2-0.4c0,0,0,1.5-0.1,1.6c-0.3,0.2-0.6,0.4-0.9,0.5c-1.2,0.7-2.6,1.2-4,1.4c-1.6,0.2-3-0.3-4.2-1.3
	c-0.5-0.4-1-0.9-1.5-1.3c-0.4-0.4-0.6-0.4-1,0.1c-0.2,0.2-0.4,0.4-0.6,0.5c-0.6,0.4-1.2,0.4-1.7-0.3c-0.3-0.4-0.5-0.8-0.7-1.1
	c-0.8,0.5-1.3,1.2-1.9,1.9c-0.3,0.3-0.5,0.7-0.8,1c-0.2,0.2-0.4,0.4-0.7,0.2c-0.3-0.1-0.3-0.3-0.2-0.7c0.1-0.3,0.2-0.5,0.3-0.8
	c-0.3,0.1-0.5,0.2-0.7,0.3c-0.9,0.3-1.8,0.7-2.8,0.8c-1.2,0.2-2.4,0.1-3.5-0.2c-0.4-0.1-0.8-0.1-1.2,0c-0.9,0.1-1.1,0-1.1-0.9
	c0,0,0-0.1,0-0.2c-0.2,0.1-0.5,0.1-0.7,0.2c-1.5,0.5-2.9,0.7-4.5,0.5c-0.7-0.1-1.3,0.2-1.8,0.8c-0.2,0.3-0.5,0.5-0.8,0.7
	c-0.6,0.4-1.2,0.1-1.2-0.5c0-0.1,0-0.3,0.1-0.4c0.2-0.8,0-1.4-0.5-1.9c-0.3-0.4-0.6-0.7-0.9-1.1c-0.7-1-0.8-2.2-0.6-3.3
	c0.3-1.8,1-3.4,2.2-4.7c1.3-1.3,2.9-2.2,4.8-2.1c1,0,1.8,0.7,1.9,1.7c0.2,1.1-0.1,2.1-0.4,3.2c-0.5,1.7-1.4,3.3-2.2,4.9
	c-0.2,0.4-0.4,0.7-0.5,1.1c-0.2,0.4,0,0.7,0.5,0.8c0.4,0.1,0.9,0.1,1.3,0.1c1-0.1,2-0.4,2.9-0.7c0.4-0.2,0.6-0.4,0.7-0.8
	c0.1-0.8,0.5-1.3,1.3-1.6c0.4-0.1,0.8-0.1,1.2,0.1c0.5,0.2,0.6,0.7,0.5,1.3c-0.1,0.5-0.3,1-0.4,1.5c-0.2,0.6,0,0.8,0.6,0.8
	c1.4,0.2,2.8,0.1,4.2-0.5c0.8-0.3,1.5-0.8,2.1-1.3c0.1-0.1,0.2-0.2,0.4-0.3c0.3-0.2,0.5-0.2,0.8,0C86.1,10.3,86.2,10.4,86.3,10.5z
	 M69,10.5C69,10.5,69,10.5,69,10.5c1.3-2,2.4-4,3-6.2c0.2-0.8,0.4-1.5,0.3-2.3c-0.1-0.6-0.4-0.9-1-1c-0.7-0.1-1.4,0.1-2.1,0.4
	c-1.9,1-4.3,3.7-3.8,7c0.1,1,0.6,1.8,1.4,2.3c0.4,0.2,0.7,0.2,1-0.1c0.1-0.1,0.2-0.2,0.3-0.4c0.2-0.2,0.4-0.2,0.6,0
	C68.8,10.3,68.9,10.4,69,10.5z M76.6,9.9c0.3,0.1,0.6,0.3,0.9,0.4c-0.1-0.3,0.1-0.7-0.3-0.8C76.9,9.4,76.7,9.6,76.6,9.9z"/>
<path class="st19" d="M22.6,29.9c-0.3-0.1-0.4-0.4-0.4-0.7c0.1-2.1,0.3-4.1,0.4-6.2c0.1-1.1,0.1-2.2,0.1-3.3c0-0.1,0-0.2,0-0.4
	c-0.1-0.6-0.4-0.9-1-0.7c-1,0.3-1.9,0.8-2.9,1.2c-0.2,0.1-0.3,0.1-0.5,0.2c-0.2,0.1-0.4,0-0.5-0.3c-0.1-0.2-0.1-0.4,0.1-0.6
	c0.4-0.3,0.9-0.6,1.4-0.9c0.1-0.1,0.2,0,0.3-0.1c0.4-0.1,0.8-0.1,1.2-0.2c0.5-0.2,0.9-0.5,1.3-0.8c0.6-0.4,0.8-1,0.9-1.6
	c0.1-1.7,0.2-3.5,0.3-5.2c0-0.5,0.1-1.1,0.1-1.6c0-0.3,0.2-0.4,0.5-0.4c0.3,0,0.4,0.2,0.4,0.5c-0.1,1.1-0.1,2.2-0.2,3.4
	c-0.1,1-0.1,2-0.1,3c0,1,0.3,1.2,1.2,0.9c1.9-0.7,3.8-1.5,5.7-2.1c2.7-0.9,5.4-1.7,8.1-2.5c0.2-0.1,0.4-0.1,0.6,0
	c0.2,0,0.4,0.1,0.6,0.1c0.1-0.2,0.2-0.4,0.4-0.6c0.4-0.6,0.8-0.6,1.2,0c0.3,0.4,0.5,0.7,0.8,1.1c0.1,0.1,0.2,0.3,0.4,0.4
	c0.6,0.6,1.4,0.7,2.1,0.3c0.5-0.3,1-0.7,1.5-1.1c0.1,0,0.1-0.2,0.1-0.2c0.4-1.4,1-2.6,2-3.5c0.4-0.3,0.8-0.6,1.3-0.7
	C50.5,7,51,7.4,51,8c0,0.7-0.2,1.4-0.6,2.1c-0.3,0.5-0.7,1-1.1,1.5c-0.2,0.3-0.5,0.4-0.8,0.2c-0.2-0.2-0.3-0.6,0-0.9
	c0.3-0.4,0.6-0.7,0.9-1.1c0.3-0.4,0.4-0.9,0.6-1.3c0,0-0.1-0.1-0.1-0.1c-0.3,0.3-0.6,0.6-0.9,0.9c-0.6,0.8-1,1.7-1.2,2.7
	c0,0.1,0,0.2,0,0.4c0,0.8,0.1,0.9,1,0.8c0.6-0.1,1.3-0.4,1.9-0.6c2.3-1,4.5-2.3,6.5-3.8c0.2-0.1,0.3-0.4,0.5-0.5
	c0.4-0.5,0.9-0.9,1.6-1c0.6-0.1,1,0.3,1,0.8c0,0.7-0.2,1.4-0.5,1.9c-0.4,0.6-0.8,1.1-1.2,1.7c-0.3,0.4-0.6,0.4-0.8,0.2
	c-0.2-0.2-0.2-0.6,0-0.9c0.4-0.6,0.8-1.2,1.2-1.8c0.1-0.2,0.1-0.4,0.2-0.6c-0.1,0.1-0.2,0.1-0.3,0.2c-1.1,1.1-1.8,2.4-1.9,4
	c0,0.4,0.1,0.6,0.6,0.5c0.7-0.1,1.3-0.2,1.9-0.5c1.4-0.6,2.7-1.4,4.1-2.1c0.4-0.2,0.6-0.2,0.8,0.1c0.2,0.3,0.1,0.7-0.2,0.9
	c-1.8,1-3.5,2.1-5.5,2.6c-0.5,0.1-1,0.2-1.4,0.2c-0.8,0-1.3-0.7-1.3-1.6c0-0.5,0.1-1,0.2-1.5c0-0.1,0-0.2,0.1-0.3
	c-1,0.6-1.9,1.1-2.8,1.6c-1.3,0.7-2.6,1.4-4.1,1.7c-0.4,0.1-0.8,0.1-1.2,0.1c-0.7-0.1-1.1-0.6-1.2-1.4c-0.1,0.1-0.2,0.1-0.3,0.2
	c-0.6,0.4-1.3,0.8-2,0.8c-0.7,0-1.3-0.2-1.8-0.7c-0.2-0.2-0.4-0.4-0.6-0.6c-0.3-0.3-0.5-0.3-0.7,0.1c-0.4,0.6-0.7,1.3-1,1.9
	c-0.1,0.3-0.3,0.5-0.5,0.7c-0.1,0.1-0.4,0.2-0.6,0.1c-0.1,0-0.2-0.3-0.2-0.5c0-0.6,0.1-1.2,0.2-1.9c0-0.2,0-0.4,0.1-0.6
	c-0.7,0.2-1.3,0.4-2,0.6c-2.8,0.9-5.5,1.9-8.3,2.8c-0.9,0.3-1.8,0.6-2.8,1c-1.3,0.5-2.1,1.4-2.2,2.8c-0.1,1.6-0.2,3.2-0.3,4.8
	c-0.1,1.6-0.2,3.2-0.3,4.9c0,0.3-0.1,0.5-0.3,0.6C22.7,29.9,22.7,29.9,22.6,29.9z"/>
<path class="st19" d="M16.2,11c0.1-0.2,0.2-0.4,0.3-0.6c0.6-1.1,1.5-1.9,2.6-2.5c2.3-1.4,4.7-2.4,7.3-3c1.7-0.4,3.5-0.5,5.2-0.4
	c0.9,0.1,1.8,0.4,2.7,0.8c0.4,0.2,0.7,0.7,1.1,1.1c0.2,0.2,0.1,0.5-0.1,0.6C35,7.3,34.8,7.3,34.6,7c-0.9-1.3-2.2-1.4-3.6-1.5
	c-1.8-0.1-3.5,0.3-5.2,0.7c-2.3,0.6-4.5,1.5-6.5,2.8c-0.7,0.5-1.4,1-1.7,1.9c0,0.1-0.1,0.1-0.1,0.2c-0.4,0.6-0.6,0.7-1.1,0.2
	c0,0-0.1-0.1-0.1-0.1C16.2,11.1,16.2,11.1,16.2,11z"/>
</svg>
