<?xml version="1.0" encoding="utf-8"?>
<!-- Generator: Adobe Illustrator 24.2.0, SVG Export Plug-In . SVG Version: 6.00 Build 0)  -->
<svg version="1.1" id="Layer_1" xmlns="http://www.w3.org/2000/svg" xmlns:xlink="http://www.w3.org/1999/xlink" x="0px" y="0px"
	 viewBox="0 0 285 132" style="enable-background:new 0 0 285 132;" xml:space="preserve">
<style type="text/css">
	.st0{fill:#FFFFFF;}
	.st1{fill:#231F20;}
	.st2{fill:#F58220;}
	.st3{fill:#E73530;}
	.st4{fill:url(#SVGID_1_);}
	.st5{fill:#001722;}
	.st6{fill:#016FD0;}
	.st7{fill:#0066B2;}
	.st8{fill:#F9A533;}
	.st9{fill-rule:evenodd;clip-rule:evenodd;fill:#003473;}
	.st10{fill-rule:evenodd;clip-rule:evenodd;fill:#FCB131;}
	.st11{fill-rule:evenodd;clip-rule:evenodd;fill:#ED1C2E;}
	.st12{fill-rule:evenodd;clip-rule:evenodd;fill:#FFFFFF;}
	.st13{enable-background:new    ;}
	.st14{fill:#009CDE;}
	.st15{fill:#003087;}
</style>
<path class="st0" d="M274.3,131.5H10.7c-5.5,0-10-4.5-10-10V47.6c0-5.5,4.5-10,10-10h263.6c5.5,0,10,4.5,10,10v73.9
	C284.3,127,279.8,131.5,274.3,131.5z"/>
<path class="st1" d="M274.4,37.1h-22v1h22c5.2,0,9.4,4.2,9.4,9.4v74.1c0,5.2-4.2,9.4-9.4,9.4H10.6c-5.2,0-9.4-4.2-9.4-9.4V47.5
	c0-5.2,4.2-9.4,9.4-9.4h22v-1h-22c-5.8,0-10.4,4.7-10.4,10.4v74.1c0,5.7,4.7,10.4,10.4,10.4h263.7c5.8,0,10.4-4.7,10.4-10.4V47.5
	C284.8,41.8,280.1,37.1,274.4,37.1z"/>
<g>
	<g id="discover">
		<rect x="207.6" y="83.5" class="st0" width="49.6" height="31.6"/>
		<path class="st1" d="M257.2,83.3h-49.7v31.9h49.9V83.3H257.2z M257,83.7c0,0.4,0,30.9,0,31.2c-0.4,0-48.8,0-49.2,0
			c0-0.4,0-30.9,0-31.2C208.1,83.7,256.6,83.7,257,83.7z"/>
		<path class="st2" d="M257,101c0,0-13.5,9.6-38.3,13.8H257V101z"/>
		<path class="st3" d="M252.2,111"/>
		
			<radialGradient id="SVGID_1_" cx="227.2607" cy="522.7432" r="3.6453" gradientTransform="matrix(0.9986 0 0 -0.9986 6.6119 617.0114)" gradientUnits="userSpaceOnUse">
			<stop  offset="5.618000e-03" style="stop-color:#FFEEE0"/>
			<stop  offset="0.1096" style="stop-color:#FEE9D7"/>
			<stop  offset="0.2793" style="stop-color:#FDDBBF"/>
			<stop  offset="0.4935" style="stop-color:#FBC597"/>
			<stop  offset="0.744" style="stop-color:#F8A560"/>
			<stop  offset="1" style="stop-color:#F48120"/>
		</radialGradient>
		<path class="st4" d="M233.6,91.4c-2,0-3.7,1.6-3.7,3.6c0,2.1,1.6,3.6,3.7,3.6c2.1,0,3.7-1.6,3.7-3.6
			C237.2,93,235.6,91.4,233.6,91.4z"/>
		<path class="st5" d="M212.6,91.5h-2v6.9h2c1,0,1.8-0.2,2.5-0.8c0.8-0.7,1.3-1.6,1.3-2.7C216.3,93,214.8,91.5,212.6,91.5z
			 M214.2,96.7c-0.4,0.4-1,0.6-1.8,0.6H212v-4.6h0.4c0.9,0,1.4,0.2,1.8,0.6c0.5,0.4,0.7,1.1,0.7,1.7C215,95.6,214.7,96.3,214.2,96.7
			z"/>
		<rect x="217" y="91.5" class="st5" width="1.3" height="6.9"/>
		<path class="st5" d="M221.6,94.2c-0.8-0.3-1-0.5-1-0.9s0.4-0.8,1-0.8c0.4,0,0.7,0.2,1.1,0.6l0.7-0.9c-0.6-0.5-1.3-0.8-2-0.8
			c-1.2,0-2.2,0.8-2.2,2c0,1,0.4,1.4,1.7,1.9c0.5,0.2,0.8,0.3,0.9,0.4c0.3,0.2,0.4,0.4,0.4,0.7c0,0.6-0.4,1-1,1s-1.2-0.3-1.5-0.9
			l-0.9,0.8c0.6,0.9,1.4,1.3,2.4,1.3c1.4,0,2.4-0.9,2.4-2.3C223.6,95.2,223.1,94.7,221.6,94.2z"/>
		<path class="st5" d="M224,95c0,2,1.6,3.6,3.6,3.6c0.6,0,1.1-0.1,1.7-0.4v-1.6c-0.5,0.5-1,0.8-1.6,0.8c-1.4,0-2.3-1-2.3-2.4
			c0-1.3,1-2.4,2.3-2.4c0.6,0,1.1,0.2,1.7,0.8v-1.6c-0.6-0.3-1.1-0.4-1.7-0.4C225.7,91.4,224,93,224,95z"/>
		<polygon class="st5" points="240.3,96.2 238.4,91.5 237,91.5 239.9,98.6 240.6,98.6 243.6,91.5 242.1,91.5 		"/>
		<polygon class="st5" points="244.2,98.4 248,98.4 248,97.3 245.6,97.3 245.6,95.4 247.9,95.4 247.9,94.2 245.6,94.2 245.6,92.7 
			248,92.7 248,91.5 244.2,91.5 		"/>
		<path class="st5" d="M253.4,93.6c0-1.3-0.9-2-2.4-2h-2v6.9h1.3v-2.8h0.2l1.9,2.8h1.7l-2.2-2.9C252.8,95.3,253.4,94.6,253.4,93.6z
			 M250.7,94.7h-0.4v-2.1h0.4c0.8,0,1.3,0.4,1.3,1C252,94.3,251.5,94.7,250.7,94.7z"/>
		<path class="st1" d="M254.3,92.1c0-0.1-0.1-0.2-0.2-0.2h-0.2v0.6h0.1v-0.2l0.2,0.2h0.2L254.3,92.1
			C254.3,92.2,254.3,92.1,254.3,92.1z M254.1,92.1L254.1,92.1v-0.2l0,0c0.1,0,0.1,0,0.1,0.1C254.2,92.1,254.1,92.1,254.1,92.1z"/>
		<path class="st1" d="M254.1,91.6c-0.3,0-0.5,0.2-0.5,0.5s0.2,0.5,0.5,0.5s0.5-0.2,0.5-0.5C254.7,91.9,254.4,91.6,254.1,91.6z
			 M254.1,92.6c-0.2,0-0.4-0.2-0.4-0.4c0-0.2,0.2-0.4,0.4-0.4s0.4,0.2,0.4,0.4S254.4,92.6,254.1,92.6z"/>
		<path class="st1" d="M222.7,100.3l1.8,1.9v-1.8h0.3v2.4l-1.8-1.9v1.8h-0.3V100.3z"/>
		<path class="st1" d="M222.7,100.3v2.4h0.3c0,0,0-1.6,0-1.7c0.1,0.1,1.8,1.9,1.8,1.9v-2.5h-0.3c0,0,0,1.6,0,1.8
			C224.4,102,222.7,100.2,222.7,100.3L222.7,100.3z M222.8,100.3c0.1,0.1,1.8,1.9,1.8,1.9v-1.8h0.2c0,0,0,2.2,0,2.3
			c-0.1-0.1-1.8-1.9-1.8-1.9v1.8h-0.2C222.8,102.6,222.8,100.4,222.8,100.3z"/>
		<path class="st1" d="M226,100.4h1.2v0.2h-0.9v0.7h0.9v0.2h-0.9v0.9h0.9v0.2H226V100.4z"/>
		<path class="st1" d="M227.2,100.3H226v2.4h1.2v-0.3h-0.9c0,0,0-0.8,0-0.9h0.9v-0.3h-0.9v-0.6h0.9V100.3L227.2,100.3z M227.2,100.4
			v0.2h-0.9v0.7h0.9v0.2h-0.9v1h0.9v0.2c0,0-1.1,0-1.2,0c0,0,0-2.2,0-2.3C226.1,100.4,227.2,100.4,227.2,100.4z"/>
		<path class="st1" d="M229.1,102.7h-0.3v-2.1h-0.6v-0.2h1.4v0.2H229v2.1H229.1z"/>
		<path class="st1" d="M229.6,100.3h-1.4v0.3c0,0,0.5,0,0.6,0v2.1h0.3c0,0,0-2,0-2.1h0.6L229.6,100.3L229.6,100.3z M229.6,100.4v0.2
			H229c0,0,0,2,0,2.1h-0.2v-2.1c0,0-0.5,0-0.6,0v-0.2C228.3,100.4,229.6,100.4,229.6,100.4z"/>
		<path class="st1" d="M231.3,102.1l0.7-1.9l0.7,1.9l0.6-1.7h0.3l-0.9,2.4l-0.7-1.9l-0.7,1.9l-0.9-2.4h0.3L231.3,102.1z"/>
		<path class="st1" d="M232.1,100.2c0,0-0.7,1.7-0.7,1.8c0-0.1-0.6-1.7-0.6-1.7h-0.3l0.9,2.5c0,0,0.7-1.8,0.7-1.9
			c0,0.1,0.7,1.9,0.7,1.9l0.9-2.5h-0.3c0,0-0.6,1.6-0.6,1.7C232.8,101.9,232.1,100.2,232.1,100.2L232.1,100.2z M231.4,102.1
			c0,0,0.7-1.7,0.7-1.8c0,0.1,0.7,1.9,0.7,1.9s0.6-1.7,0.6-1.8h0.2c0,0.1-0.8,2.2-0.9,2.3c0-0.1-0.7-1.9-0.7-1.9s-0.7,1.7-0.7,1.9
			c0-0.1-0.8-2.3-0.9-2.3h0.2C230.7,100.4,231.3,102.2,231.4,102.1L231.4,102.1z"/>
		<path class="st1" d="M237.1,101.5c0,0.7-0.5,1.2-1.2,1.2s-1.2-0.5-1.2-1.2s0.5-1.2,1.2-1.2C236.5,100.3,237.1,100.9,237.1,101.5z
			 M234.9,101.5c0,0.5,0.4,1,0.9,1s0.9-0.4,0.9-1c0-0.5-0.4-1-0.9-1C235.3,100.6,234.9,101,234.9,101.5z"/>
		<path class="st1" d="M234.6,101.5c0,0.7,0.6,1.2,1.2,1.2c0.7,0,1.2-0.5,1.2-1.2s-0.6-1.2-1.2-1.2
			C235.2,100.3,234.6,100.8,234.6,101.5z M234.7,101.5c0-0.6,0.5-1.2,1.2-1.2s1.2,0.5,1.2,1.2c0,0.6-0.5,1.2-1.2,1.2
			S234.7,102.2,234.7,101.5z"/>
		<path class="st1" d="M234.9,101.5c0,0.5,0.4,1,1,1c0.5,0,1-0.4,1-1c0-0.5-0.4-1-1-1C235.3,100.5,234.9,101,234.9,101.5z
			 M234.9,101.5c0-0.5,0.4-0.9,0.9-0.9s0.9,0.4,0.9,0.9s-0.4,0.9-0.9,0.9C235.3,102.5,234.9,102,234.9,101.5z"/>
		<path class="st1" d="M238.4,102.7h-0.3v-2.3h0.3c0.4,0,0.8,0.1,0.8,0.6c0,0.4-0.2,0.6-0.6,0.6l0.7,1H239l-0.7-1h-0.1v1.1H238.4z
			 M238.4,101.4L238.4,101.4c0.4,0,0.7-0.1,0.7-0.4c0-0.4-0.3-0.4-0.6-0.4h-0.1L238.4,101.4L238.4,101.4z"/>
		<path class="st1" d="M238.2,100.3L238.2,100.3v2.4h0.3v-1l0,0l0,0l0.7,1h0.3l0,0l-0.7-1c0.3,0,0.6-0.3,0.6-0.7
			c0-0.4-0.3-0.7-0.9-0.7C238.5,100.3,238.2,100.3,238.2,100.3z M238.5,100.4c0.6,0,0.8,0.2,0.8,0.6c0,0.3-0.2,0.6-0.6,0.6l0,0
			l0.7,1c-0.1,0-0.3,0-0.3,0l0,0l-0.7-1h-0.1l0,0v1h-0.2c0,0,0-2.2,0-2.3C238.2,100.4,238.5,100.4,238.5,100.4z"/>
		<path class="st1" d="M238.4,100.6L238.4,100.6v0.9h0.1c0.3,0,0.6,0,0.6-0.4C239.1,100.6,238.8,100.6,238.4,100.6L238.4,100.6z
			 M238.5,100.6c0.3,0,0.6,0,0.6,0.4c0,0.3-0.3,0.4-0.6,0.4c0,0,0,0-0.1,0C238.5,101.4,238.5,100.7,238.5,100.6L238.5,100.6z"/>
		<path class="st1" d="M241.8,100.4h0.3l-1.1,1.1l1.1,1.2h-0.4l-0.9-1.1l-0.1,0.1v1h-0.3v-2.3h0.3v1L241.8,100.4z"/>
		<path class="st1" d="M242.2,100.3h-0.4c0,0-0.9,0.9-1,1c0-0.1,0-1,0-1h-0.3v2.4h0.3v-1l0,0l0.9,1h0.4h0.1c0,0-1.1-1.2-1.1-1.3
			C241.2,101.4,242.3,100.3,242.2,100.3L242.2,100.3z M242.1,100.4c-0.1,0.1-1.1,1.1-1.1,1.1s1,1.1,1.1,1.2c-0.1,0-0.3,0-0.3,0l0,0
			l-0.9-1.1l0,0l-0.1,0.1c0,0,0,0.9,0,1h-0.2c0,0,0-2.2,0-2.3h0.2v1l1-1C241.9,100.4,242.1,100.4,242.1,100.4z"/>
	</g>
	<g id="amex">
		<polygon class="st6" points="147.5,83.3 197.4,83.3 197.4,115.2 147.5,115.2 		"/>
		<g>
			<g>
				<path class="st0" d="M190.9,102.3l1-2.2h-3.2c-0.3,0-0.5,0-0.7,0.1v-0.1h-3.2c-0.5,0-1,0.1-1.3,0.3v-0.3h-5v0.3
					c-0.3-0.2-0.8-0.3-1.2-0.3h-3.1v0.3c-0.4-0.2-0.8-0.3-1.3-0.3h-1l0,0h-3.2L168,101l-0.7-0.9h-1.1H164h-2.8v5.8h2.8h2.1h1.1
					l0.6-0.8l0.6,0.8h1.1l0,0h2.6v-1.4h0.4c0.5,0,1-0.1,1.4-0.4v1.7h2.5V105l0.7,0.8h1.1h2.2h1.8h1h2.1c0.3,0,0.6-0.1,0.9-0.2v0.2h3
					c1.3,0,2.1-0.9,2.1-2.1C191.5,103.2,191.3,102.6,190.9,102.3z M169.5,103l0.2-0.2v0.4L169.5,103z M166.1,102.8l0.2,0.3l-0.2,0.3
					V102.8z"/>
				<g>
					<path id="path3062_1_" class="st6" d="M162,105.2v-4.3h3.5v1h-2.4v0.7h2.4v0.9h-2.4v0.8h2.4v0.9H162z"/>
					<path id="path3064_1_" class="st6" d="M179.1,105.2v-4.3h3.5v1h-2.4v0.7h2.4v0.9h-2.4v0.8h2.4v0.9H179.1z"/>
					<path id="path3066_1_" class="st6" d="M165.6,105.2l1.7-2.1l-1.7-2.2h1.4l1,1.3l1-1.3h1.3l-1.7,2.1l1.7,2.1h-1.4l-1-1.3l-1,1.3
						L165.6,105.2L165.6,105.2z"/>
					<path id="path3068_1_" class="st6" d="M170.4,100.9v4.3h1.1v-1.4h1.1c1,0,1.7-0.5,1.7-1.5c0-0.8-0.6-1.4-1.5-1.4H170.4
						L170.4,100.9z M171.5,101.8h1.2c0.3,0,0.5,0.2,0.5,0.5s-0.2,0.5-0.5,0.5h-1.2V101.8L171.5,101.8z"/>
					<path id="path3072_1_" class="st6" d="M174.8,100.9v4.3h1.1v-1.5h0.5l1.3,1.5h1.3l-1.4-1.6c0.6,0,1.2-0.5,1.2-1.3
						c0-0.9-0.7-1.4-1.5-1.4H174.8L174.8,100.9z M175.9,101.8h1.2c0.3,0,0.5,0.2,0.5,0.5s-0.3,0.5-0.5,0.5h-1.2V101.8z"/>
					<path id="path3074_1_" class="st6" d="M183.1,105.2v-0.9h2.2c0.3,0,0.5-0.2,0.5-0.4c0-0.2-0.1-0.4-0.5-0.4h-1
						c-0.8,0-1.3-0.5-1.3-1.3c0-0.7,0.4-1.4,1.7-1.4h2.1l-0.5,1h-1.8c-0.3,0-0.5,0.2-0.5,0.4c0,0.2,0.1,0.4,0.4,0.4h1
						c0.9,0,1.3,0.5,1.3,1.2c0,0.8-0.5,1.4-1.4,1.4C185.3,105.2,183.1,105.2,183.1,105.2z"/>
					<path id="path3076_1_" class="st6" d="M187.1,105.2v-0.9h2.2c0.3,0,0.5-0.2,0.5-0.4c0-0.2-0.1-0.4-0.5-0.4h-1
						c-0.8,0-1.3-0.5-1.3-1.3c0-0.7,0.4-1.4,1.7-1.4h2.1l-0.5,1h-1.8c-0.3,0-0.5,0.2-0.5,0.4c0,0.2,0.1,0.4,0.4,0.4h1
						c0.9,0,1.3,0.5,1.3,1.2c0,0.8-0.5,1.4-1.4,1.4C189.3,105.2,187.1,105.2,187.1,105.2z"/>
				</g>
			</g>
			<g>
				<path class="st0" d="M185.7,92.6v0.9l-0.6-0.9h-2.5v1.8l-0.8-1.8h-2.2h-1.9c-0.8,0-1.4,0.2-1.9,0.6v-0.6h-2.6v0.3
					c-0.3-0.2-0.8-0.3-1.2-0.3h-2.3h-7.2l-0.5,1.3l-0.5-1.3h-3v1.8l-0.8-1.8h-2.4l-2.5,5.8h2.8l0.3-0.9h1l0.3,0.9h2.8l0,0h4.4h0.7
					h3.4l0,0h2.5v-0.8l0.7,0.8h3.3l0,0h0.4v-0.6c0.3,0.3,0.8,0.5,1.3,0.6l0,0h2.8l0.3-0.9h1l0.3,0.9h2.8l0,0h0.8v-1l0.7,1h2.5v-5.8
					H185.7z M177.8,96c-0.3,0-0.4-0.1-0.4-0.4c0-0.2,0-0.4,0.3-0.4h0.8L178,96H177.8z"/>
				<g>
					<path id="path3046_1_" class="st6" d="M156,93.3l-1.8,4.3h1.2l0.3-0.9h2l0.3,0.9h1.2l-1.8-4.3H156L156,93.3z M156.7,94.3
						l0.6,1.5h-1.2L156.7,94.3z"/>
					<path id="path3048_1_" class="st6" d="M159.4,97.6v-4.3h1.7l1,2.8l1-2.8h1.7v4.3h-1.1v-3.2l-1.1,3.2h-0.9l-1.1-3.2v3.2H159.4z"
						/>
					<path id="path3050_1_" class="st6" d="M165.5,97.6v-4.3h3.5v1h-2.4V95h2.4v0.9h-2.4v0.8h2.4v0.9L165.5,97.6z"/>
					<path id="path3052_1_" class="st6" d="M169.6,93.3v4.3h1.1v-1.5h0.5l1.3,1.5h1.3l-1.4-1.6c0.6,0,1.2-0.5,1.2-1.3
						c0-0.9-0.7-1.4-1.5-1.4H169.6L169.6,93.3z M170.7,94.3h1.2c0.3,0,0.5,0.2,0.5,0.5s-0.3,0.5-0.5,0.5h-1.2V94.3L170.7,94.3z"/>
					<path id="path3054_1_" class="st6" d="M175,97.6h-1.1v-4.3h1.1V97.6z"/>
					<path id="path3056_1_" class="st6" d="M177.6,97.6h-0.2c-1.1,0-1.8-0.9-1.8-2.1c0-1.3,0.7-2.2,2.1-2.2h1.2v1h-1.2
						c-0.6,0-1,0.5-1,1.2c0,0.8,0.5,1.2,1.2,1.2h0.3L177.6,97.6z"/>
					<path id="path3058_1_" class="st6" d="M180,93.3l-1.8,4.3h1.2l0.3-0.9h2l0.3,0.9h1.2l-1.8-4.3H180L180,93.3z M180.6,94.3
						l0.6,1.5H180L180.6,94.3L180.6,94.3z"/>
					<path id="path3060_1_" class="st6" d="M183.3,97.6v-4.3h1.4l1.7,2.7v-2.7h1.1v4.3h-1.3l-1.8-2.8v2.8H183.3z"/>
				</g>
			</g>
		</g>
	</g>
	<g id="visa_1_">
		<polygon class="st0" points="87.6,82.6 137.5,82.6 137.5,114.5 87.6,114.5 		"/>
		<g>
			<g>
				<polygon class="st7" points="110,104.6 106.8,104.6 108.8,92.5 111.9,92.5 				"/>
				<path class="st7" d="M104.1,92.5l-3,8.4l-0.4-1.8l0,0l-1.1-5.5c0,0-0.1-1.1-1.5-1.1h-5L93,92.7c0,0,1.5,0.3,3.3,1.4l2.8,10.6
					h3.3l5-12.2H104.1z"/>
				<path class="st7" d="M129.1,104.6h2.9l-2.5-12.2H127c-1.2,0-1.5,0.9-1.5,0.9l-4.7,11.3h3.3l0.7-1.8h4L129.1,104.6z M125.6,100.3
					l1.7-4.6l0.9,4.6H125.6z"/>
				<path class="st7" d="M120.9,95.4l0.5-2.6c0,0-1.4-0.5-2.9-0.5c-1.6,0-5.3,0.7-5.3,4c0,3.1,4.4,3.2,4.4,4.8s-3.9,1.4-5.2,0.3
					l-0.5,2.7c0,0,1.4,0.7,3.6,0.7s5.4-1.1,5.4-4.2c0-3.2-4.4-3.5-4.4-4.8S119.6,94.6,120.9,95.4z"/>
			</g>
			<path class="st8" d="M100.7,99l-1.1-5.5c0,0-0.1-1.1-1.5-1.1h-5L93,92.6c0,0,2.4,0.5,4.7,2.4C100,96.8,100.7,99,100.7,99z"/>
		</g>
	</g>
	<g id="mastercard">
		<polygon class="st9" points="27.7,115.2 77.6,115.2 77.6,83.3 27.7,83.3 		"/>
		<path class="st10" d="M52.7,109.4c2.4,2.2,5.6,3.5,9.2,3.5c7.5,0,13.7-6.1,13.7-13.7c0-7.5-6.1-13.7-13.7-13.7
			c-3.5,0-6.7,1.3-9.2,3.5c-2.8,2.5-4.5,6.1-4.5,10.1C48.2,103.3,49.9,106.9,52.7,109.4L52.7,109.4z"/>
		<path class="st10" d="M73.7,106.8c0-0.2,0.2-0.4,0.5-0.4c0.2,0,0.4,0.2,0.4,0.4c0,0.2-0.2,0.5-0.4,0.5
			C73.8,107.3,73.7,107.1,73.7,106.8L73.7,106.8z M74.1,107.2c0.2,0,0.3-0.2,0.3-0.3s-0.2-0.3-0.3-0.3c-0.2,0-0.3,0.1-0.3,0.3
			S73.9,107.2,74.1,107.2L74.1,107.2z M74,107.1L74,107.1l-0.1-0.4h0.2h0.1l0.1,0.1c0,0.1,0,0.1-0.1,0.1l0.1,0.2h-0.1l-0.1-0.2H74
			V107.1L74,107.1z M74,106.8L74,106.8C74.1,106.8,74.1,106.8,74,106.8C74.1,106.8,74.1,106.8,74,106.8L74,106.8
			C74.1,106.7,74.1,106.7,74,106.8L74,106.8L74,106.8L74,106.8z"/>
		<path class="st11" d="M57.1,97.8c-0.1-0.5-0.1-1-0.2-1.4h-8.4c0.1-0.5,0.2-1,0.4-1.4h7.5c-0.2-0.5-0.3-1-0.6-1.4h-6.4
			c0.2-0.5,0.5-1,0.8-1.4H55c-0.3-0.5-0.6-1-1-1.4h-2.7c0.4-0.5,0.9-1,1.4-1.4c-2.4-2.2-5.6-3.5-9.2-3.5c-7.5,0-13.7,6.1-13.7,13.7
			c0,7.5,6.1,13.7,13.7,13.7c3.5,0,6.7-1.3,9.2-3.5l0,0c0.5-0.5,1-0.9,1.4-1.4h-2.8c-0.4-0.5-0.7-0.9-1-1.4h4.8
			c0.3-0.5,0.6-0.9,0.8-1.4h-6.4c-0.2-0.5-0.4-0.9-0.6-1.4h7.5c0.2-0.5,0.3-1,0.4-1.4c0.1-0.5,0.2-1,0.2-1.4c0.1-0.5,0.1-1,0.1-1.4
			C57.2,98.8,57.1,98.3,57.1,97.8L57.1,97.8z"/>
		<path class="st12" d="M73.7,102.4c0-0.2,0.2-0.4,0.5-0.4c0.2,0,0.4,0.2,0.4,0.4c0,0.2-0.2,0.5-0.4,0.5
			C73.8,102.9,73.7,102.6,73.7,102.4L73.7,102.4z M74.1,102.7c0.2,0,0.3-0.2,0.3-0.3c0-0.2-0.2-0.3-0.3-0.3c-0.2,0-0.3,0.1-0.3,0.3
			C73.8,102.6,73.9,102.7,74.1,102.7L74.1,102.7z M74,102.6L74,102.6l-0.1-0.4h0.2h0.1l0.1,0.1c0,0.1,0,0.1-0.1,0.1l0.1,0.2h-0.1
			l-0.1-0.2H74V102.6L74,102.6z M74,102.4L74,102.4C74.1,102.4,74.1,102.4,74,102.4C74.1,102.4,74.1,102.4,74,102.4L74,102.4
			C74.1,102.3,74.1,102.3,74,102.4L74,102.4L74,102.4L74,102.4z"/>
		<path class="st9" d="M48,103.2c-0.5,0.1-0.8,0.2-1.1,0.2c-0.7,0-1.1-0.4-1.1-1.2c0-0.2,0-0.3,0.1-0.5l0.1-0.5l0.1-0.5l0.6-3.9h1.4
			l-0.2,0.9h0.9l-0.2,1.4h-0.9l-0.4,2.3c0,0.1,0,0.2,0,0.2c0,0.3,0.2,0.4,0.5,0.4c0.2,0,0.3,0,0.5-0.1L48,103.2L48,103.2z"/>
		<path class="st9" d="M52.6,103.1c-0.5,0.2-1,0.2-1.5,0.2c-1.6,0-2.5-0.9-2.5-2.5c0-1.9,1.1-3.4,2.6-3.4c1.2,0,2,0.8,2,2.1
			c0,0.4-0.1,0.8-0.2,1.4h-3c0,0.1,0,0.1,0,0.2c0,0.7,0.4,1,1.3,1c0.5,0,1-0.1,1.6-0.3L52.6,103.1L52.6,103.1z M51.7,99.8
			c0-0.1,0-0.2,0-0.3c0-0.5-0.3-0.7-0.7-0.7c-0.5,0-0.8,0.3-0.9,1H51.7L51.7,99.8z"/>
		<polygon class="st9" points="36.7,103.3 35.2,103.3 36.1,97.9 34.2,103.3 33.2,103.3 33.1,98 32.2,103.3 30.7,103.3 31.9,96.3 
			34,96.3 34.1,100.6 35.5,96.3 37.9,96.3 		"/>
		<path class="st9" d="M40.3,100.7c-0.2,0-0.2,0-0.3,0c-0.8,0-1.3,0.3-1.3,0.9c0,0.4,0.2,0.6,0.5,0.6
			C40,102.2,40.2,101.6,40.3,100.7L40.3,100.7z M41.5,103.3h-1.3v-0.6c-0.3,0.5-0.7,0.7-1.6,0.7c-0.7,0-1.3-0.6-1.3-1.6
			c0-0.3,0.1-0.5,0.1-0.7c0.2-0.9,1.1-1.4,2.5-1.4c0.2,0,0.4,0,0.6,0c0.1-0.2,0.1-0.3,0.1-0.4c0-0.4-0.3-0.5-1-0.5
			c-0.4,0-0.9,0.1-1.2,0.2l-0.2,0.1h-0.1l0.2-1.3c0.7-0.2,1.2-0.3,1.7-0.3c1.3,0,2,0.6,2,1.7c0,0.3,0,0.5-0.1,1.1l-0.3,2l-0.1,0.3
			l-0.1,0.3v0.2L41.5,103.3L41.5,103.3z"/>
		<path class="st9" d="M59.7,97.7c0.4,0,0.8,0.1,1.3,0.4l0.2-1.5c-0.1-0.1-0.2-0.1-0.3-0.1l-0.6-0.1c-0.2-0.1-0.4-0.1-0.7-0.1
			c-0.7,0-1.2,0-1.6,0.3c-0.2,0.1-0.5,0.3-0.9,0.7L57,97.2l-1.5,1.1l0.1-0.6H54l-0.9,5.6h1.5l0.5-3c0,0,0.2-0.4,0.3-0.6
			c0.3-0.3,0.5-0.3,0.8-0.3c0.1,0,0.1,0,0.1,0c0,0.3-0.1,0.7-0.1,1.1c0,1.8,1,3,2.7,3c0.4,0,0.7-0.1,1.3-0.2l0.3-1.6
			c-0.5,0.2-0.9,0.3-1.3,0.3c-0.9,0-1.4-0.6-1.4-1.7C57.9,98.8,58.6,97.7,59.7,97.7L59.7,97.7z"/>
		<path class="st9" d="M72.2,96.3l-0.3,2c-0.3-0.5-0.8-0.8-1.3-0.8c-0.8,0-1.5,0.4-2,1.3l0,0l-0.9-0.6l0.1-0.6h-1.6l-0.9,5.6h1.5
			l0.5-3c0,0,0.4-0.4,0.5-0.6c0.2-0.3,0.5-0.3,0.6-0.3c-0.2,0.5-0.3,1-0.3,1.7c0,1.4,0.7,2.4,1.8,2.4c0.5,0,1-0.2,1.4-0.6l-0.1,0.6
			h1.4l1.1-6.9h-1.5V96.3z M70.4,101.9c-0.5,0-0.7-0.3-0.7-1.1c0-1.1,0.5-1.9,1.2-1.9c0.5,0,0.8,0.4,0.8,1.1
			C71.6,101.1,71.1,101.9,70.4,101.9L70.4,101.9z"/>
		<path class="st9" d="M63.6,100.7c-0.2,0-0.2,0-0.3,0c-0.8,0-1.3,0.3-1.3,0.9c0,0.4,0.2,0.6,0.5,0.6
			C63.3,102.2,63.6,101.6,63.6,100.7L63.6,100.7z M64.8,103.3h-1.3v-0.6c-0.3,0.5-0.7,0.7-1.6,0.7c-0.7,0-1.4-0.6-1.4-1.6
			c0-1.3,1-2.2,2.6-2.2c0.2,0,0.4,0,0.6,0c0.1-0.2,0.1-0.3,0.1-0.4c0-0.4-0.3-0.5-1-0.5c-0.4,0-0.9,0.1-1.2,0.2L61.4,99h-0.1
			l0.2-1.3c0.7-0.2,1.2-0.3,1.7-0.3c1.3,0,2,0.6,2,1.7c0,0.3,0,0.5-0.1,1.1l-0.3,2l-0.1,0.3l-0.1,0.3v0.2v0.3H64.8z"/>
		<path class="st9" d="M44.5,98.8c0.3,0,0.7,0,1.1,0.1l0.2-1.3c-0.4-0.1-1-0.1-1.3-0.1c-1.6,0-2.2,0.9-2.2,1.9
			c0,0.7,0.3,1.2,1.1,1.5c0.6,0.3,0.7,0.3,0.7,0.6c0,0.3-0.3,0.6-0.9,0.6c-0.4,0-0.8-0.1-1.3-0.2l-0.2,1.3l0,0l0.3,0.1
			c0.1,0,0.2,0.1,0.4,0.1c0.4,0.1,0.7,0.1,0.9,0.1c1.6,0,2.3-0.6,2.3-1.9c0-0.8-0.4-1.2-1.1-1.6c-0.6-0.3-0.7-0.3-0.7-0.6
			C43.8,99.1,44.1,98.8,44.5,98.8L44.5,98.8z"/>
		<path class="st12" d="M61.7,96.1l-0.2,1.5c-0.5-0.3-0.9-0.4-1.3-0.4c-1.1,0-1.9,1.1-1.9,2.6c0,1,0.5,1.7,1.4,1.7
			c0.4,0,0.8-0.1,1.3-0.3l-0.3,1.6c-0.5,0.1-0.9,0.2-1.3,0.2c-1.6,0-2.6-1.1-2.6-3c0-2.5,1.4-4.2,3.3-4.2c0.3,0,0.5,0,0.7,0.1
			l0.6,0.2C61.5,96.1,61.6,96.1,61.7,96.1L61.7,96.1z"/>
		<path class="st12" d="M57,97.2c-0.1,0-0.1,0-0.2,0c-0.5,0-0.7,0.2-1.2,0.9l0.1-0.9h-1.4l-0.9,5.6h1.5c0.5-3.5,0.7-4,1.4-4
			c0,0,0,0,0.1,0C56.6,98.1,56.7,97.6,57,97.2L57,97.2L57,97.2z"/>
		<path class="st12" d="M48.4,102.7c-0.4,0.1-0.7,0.2-1.1,0.2c-0.7,0-1.2-0.4-1.2-1.2c0-0.2,0-0.3,0.1-0.5l0.1-0.6l0.1-0.4l0.6-3.9
			h1.5l-0.2,0.8H49l-0.2,1.4h-0.7l-0.4,2.3c0,0.1,0,0.2,0,0.2c0,0.3,0.2,0.4,0.5,0.4c0.2,0,0.3,0,0.4-0.1L48.4,102.7L48.4,102.7z"/>
		<path class="st12" d="M42.7,99c0,0.7,0.3,1.2,1.1,1.6c0.6,0.3,0.7,0.4,0.7,0.6c0,0.3-0.3,0.5-0.9,0.5c-0.4,0-0.8-0.1-1.3-0.2
			l-0.2,1.3h0.1l0.3,0.1c0.1,0,0.2,0.1,0.4,0.1c0.3,0,0.6,0.1,0.8,0.1c1.6,0,2.3-0.6,2.3-1.9c0-0.8-0.3-1.2-1-1.6
			c-0.6-0.3-0.7-0.3-0.7-0.6c0-0.3,0.2-0.5,0.7-0.5c0.3,0,0.7,0.1,1.1,0.1l0.2-1.3c-0.4-0.1-1-0.1-1.3-0.1
			C43.3,97.1,42.7,97.9,42.7,99L42.7,99z"/>
		<path class="st12" d="M73,102.8h-1.4l0.1-0.6c-0.4,0.4-0.8,0.6-1.4,0.6c-1.1,0-1.8-0.9-1.8-2.3c0-1.9,1.1-3.5,2.4-3.5
			c0.6,0,1,0.2,1.4,0.8l0.3-2h1.5L73,102.8L73,102.8z M70.8,101.5c0.7,0,1.2-0.8,1.2-1.9c0-0.7-0.3-1.1-0.8-1.1
			c-0.7,0-1.2,0.8-1.2,1.9C70.1,101.1,70.3,101.5,70.8,101.5L70.8,101.5z"/>
		<path class="st12" d="M52.9,102.7c-0.5,0.2-1,0.2-1.5,0.2c-1.7,0-2.5-0.9-2.5-2.5c0-2,1.1-3.4,2.6-3.4c1.2,0,2,0.8,2,2.1
			c0,0.4-0.1,0.8-0.2,1.4h-2.9c0,0.1,0,0.1,0,0.2c0,0.6,0.4,1,1.3,1c0.5,0,1-0.1,1.5-0.3L52.9,102.7L52.9,102.7z M52.1,99.3
			c0-0.1,0-0.2,0-0.3c0-0.5-0.2-0.7-0.7-0.7s-0.8,0.4-0.9,1H52.1L52.1,99.3z"/>
		<polygon class="st12" points="37.1,102.8 35.6,102.8 36.5,97.5 34.6,102.8 33.6,102.8 33.4,97.5 32.5,102.8 31.2,102.8 32.3,95.9 
			34.4,95.9 34.5,100.2 35.9,95.9 38.2,95.9 		"/>
		<path class="st12" d="M40.8,100.3c-0.2,0-0.2,0-0.3,0c-0.8,0-1.3,0.3-1.3,0.9c0,0.3,0.2,0.6,0.5,0.6
			C40.3,101.7,40.7,101.1,40.8,100.3L40.8,100.3z M41.8,102.8h-1.2v-0.6c-0.4,0.5-0.9,0.7-1.6,0.7c-0.8,0-1.3-0.6-1.3-1.5
			c0-1.4,0.9-2.2,2.6-2.2c0.2,0,0.4,0,0.6,0C41,99.1,41,99,41,98.9c0-0.4-0.2-0.5-0.9-0.5c-0.4,0-0.9,0.1-1.2,0.2l-0.2,0.1h-0.1
			l0.2-1.3c0.7-0.2,1.2-0.3,1.8-0.3c1.3,0,2,0.6,2,1.6c0,0.3,0,0.5-0.1,1.1l-0.3,2l-0.1,0.3v0.3v0.2L41.8,102.8L41.8,102.8z"/>
		<path class="st12" d="M64.1,100.3c-0.2,0-0.2,0-0.3,0c-0.8,0-1.3,0.3-1.3,0.9c0,0.3,0.2,0.6,0.5,0.6
			C63.6,101.7,64.1,101.1,64.1,100.3L64.1,100.3z M65.2,102.8H64v-0.6c-0.4,0.5-0.9,0.7-1.6,0.7c-0.8,0-1.4-0.6-1.4-1.5
			c0-1.4,1-2.2,2.6-2.2c0.2,0,0.4,0,0.6,0c0.1-0.2,0.1-0.2,0.1-0.3c0-0.4-0.2-0.5-0.9-0.5c-0.4,0-0.9,0.1-1.2,0.2L62,98.7h-0.1
			l0.2-1.3c0.7-0.2,1.2-0.3,1.8-0.3c1.3,0,2,0.6,2,1.6c0,0.3,0,0.5-0.1,1.1l-0.3,2l-0.1,0.3l-0.1,0.3v0.2L65.2,102.8L65.2,102.8z"/>
		<path class="st12" d="M69.1,97.2L69.1,97.2c-0.6,0-0.9,0.2-1.3,0.9l0.1-0.9h-1.3l-0.9,5.6h1.5c0.5-3.5,0.7-4,1.4-4
			c0.1,0,0.1,0,0.1,0C68.8,98.1,68.9,97.6,69.1,97.2L69.1,97.2L69.1,97.2z"/>
	</g>
</g>
<g class="st13">
	<path d="M49.4,61l0-5l-2.5,4.1h-0.9l-2.5-4V61h-1.8v-8.4h1.6l3.1,5.2l3.1-5.2h1.6l0,8.4H49.4z"/>
	<path d="M59.4,58.3h-4.9c0.1,0.4,0.3,0.7,0.6,0.9c0.3,0.2,0.7,0.3,1.2,0.3c0.3,0,0.6,0,0.9-0.1c0.3-0.1,0.5-0.3,0.7-0.5l1,1.1
		c-0.6,0.7-1.5,1-2.7,1c-0.7,0-1.4-0.1-1.9-0.4c-0.6-0.3-1-0.7-1.3-1.2c-0.3-0.5-0.5-1.1-0.5-1.7c0-0.6,0.1-1.2,0.4-1.7
		c0.3-0.5,0.7-0.9,1.2-1.2c0.5-0.3,1.1-0.4,1.8-0.4c0.6,0,1.2,0.1,1.7,0.4c0.5,0.3,0.9,0.7,1.2,1.2c0.3,0.5,0.4,1.1,0.4,1.8
		C59.4,57.8,59.4,58,59.4,58.3z M55,56.2c-0.3,0.2-0.5,0.6-0.5,1h3.2c-0.1-0.4-0.2-0.7-0.5-1c-0.3-0.2-0.6-0.4-1.1-0.4
		C55.6,55.8,55.3,56,55,56.2z M56.5,52h2l-2.2,1.7h-1.5L56.5,52z"/>
	<path d="M64.8,60.6c-0.2,0.1-0.4,0.2-0.7,0.3c-0.3,0.1-0.5,0.1-0.8,0.1c-0.8,0-1.4-0.2-1.8-0.6s-0.6-1-0.6-1.7v-2.6h-1v-1.4h1v-1.6
		h1.9v1.6h1.6v1.4h-1.6v2.6c0,0.3,0.1,0.5,0.2,0.6c0.1,0.1,0.3,0.2,0.6,0.2c0.3,0,0.5-0.1,0.8-0.2L64.8,60.6z"/>
	<path d="M66.9,60.6c-0.5-0.3-1-0.7-1.3-1.2c-0.3-0.5-0.5-1.1-0.5-1.7c0-0.6,0.2-1.2,0.5-1.7c0.3-0.5,0.7-0.9,1.3-1.2
		s1.1-0.4,1.8-0.4c0.7,0,1.3,0.1,1.8,0.4c0.5,0.3,1,0.7,1.3,1.2c0.3,0.5,0.5,1.1,0.5,1.7c0,0.6-0.2,1.2-0.5,1.7
		c-0.3,0.5-0.7,0.9-1.3,1.2c-0.5,0.3-1.1,0.4-1.8,0.4C68,61.1,67.4,60.9,66.9,60.6z M69.9,59c0.3-0.3,0.5-0.8,0.5-1.3
		c0-0.5-0.2-1-0.5-1.3c-0.3-0.3-0.7-0.5-1.2-0.5c-0.5,0-0.9,0.2-1.2,0.5s-0.5,0.8-0.5,1.3c0,0.5,0.2,1,0.5,1.3
		c0.3,0.3,0.7,0.5,1.2,0.5C69.2,59.5,69.6,59.4,69.9,59z"/>
	<path d="M80.1,52.1V61h-1.8v-0.7c-0.5,0.6-1.1,0.8-2,0.8c-0.6,0-1.2-0.1-1.6-0.4c-0.5-0.3-0.9-0.7-1.2-1.2
		c-0.3-0.5-0.4-1.1-0.4-1.8s0.1-1.2,0.4-1.7c0.3-0.5,0.7-0.9,1.2-1.2c0.5-0.3,1-0.4,1.6-0.4c0.8,0,1.5,0.3,1.9,0.8v-3.1H80.1z
		 M77.8,59c0.3-0.3,0.5-0.8,0.5-1.3c0-0.5-0.2-1-0.5-1.3S77.1,56,76.6,56c-0.5,0-0.9,0.2-1.2,0.5s-0.5,0.8-0.5,1.3
		c0,0.5,0.2,1,0.5,1.3c0.3,0.3,0.7,0.5,1.2,0.5C77.1,59.5,77.5,59.4,77.8,59z"/>
	<path d="M83,60.6c-0.5-0.3-1-0.7-1.3-1.2c-0.3-0.5-0.5-1.1-0.5-1.7c0-0.6,0.2-1.2,0.5-1.7c0.3-0.5,0.7-0.9,1.3-1.2s1.1-0.4,1.8-0.4
		c0.7,0,1.3,0.1,1.8,0.4c0.5,0.3,1,0.7,1.3,1.2c0.3,0.5,0.5,1.1,0.5,1.7c0,0.6-0.2,1.2-0.5,1.7c-0.3,0.5-0.7,0.9-1.3,1.2
		c-0.5,0.3-1.1,0.4-1.8,0.4C84.2,61.1,83.6,60.9,83,60.6z M86,59c0.3-0.3,0.5-0.8,0.5-1.3c0-0.5-0.2-1-0.5-1.3
		c-0.3-0.3-0.7-0.5-1.2-0.5c-0.5,0-0.9,0.2-1.2,0.5s-0.5,0.8-0.5,1.3c0,0.5,0.2,1,0.5,1.3c0.3,0.3,0.7,0.5,1.2,0.5
		C85.3,59.5,85.7,59.4,86,59z"/>
	<path d="M90.2,60.9c-0.5-0.1-0.9-0.3-1.2-0.5l0.6-1.3c0.3,0.2,0.6,0.3,1,0.4c0.4,0.1,0.8,0.2,1.2,0.2c0.8,0,1.2-0.2,1.2-0.6
		c0-0.2-0.1-0.3-0.3-0.4s-0.5-0.1-1-0.2c-0.5-0.1-1-0.2-1.3-0.3c-0.3-0.1-0.6-0.3-0.9-0.6s-0.4-0.6-0.4-1.1c0-0.4,0.1-0.8,0.4-1.1
		c0.2-0.3,0.6-0.6,1-0.7s1-0.3,1.6-0.3c0.5,0,0.9,0,1.4,0.2c0.5,0.1,0.8,0.2,1.1,0.4L94,56.3c-0.6-0.3-1.2-0.5-1.9-0.5
		c-0.4,0-0.7,0.1-0.9,0.2c-0.2,0.1-0.3,0.3-0.3,0.4c0,0.2,0.1,0.3,0.3,0.4c0.2,0.1,0.6,0.2,1,0.2c0.5,0.1,1,0.2,1.3,0.3
		c0.3,0.1,0.6,0.3,0.9,0.5c0.2,0.3,0.4,0.6,0.4,1.1c0,0.4-0.1,0.8-0.4,1.1s-0.6,0.6-1,0.7c-0.5,0.2-1,0.3-1.6,0.3
		C91.3,61.1,90.8,61,90.2,60.9z"/>
	<path d="M106,52.1V61h-1.8v-0.7c-0.5,0.6-1.1,0.8-2,0.8c-0.6,0-1.2-0.1-1.6-0.4c-0.5-0.3-0.9-0.7-1.2-1.2c-0.3-0.5-0.4-1.1-0.4-1.8
		s0.1-1.2,0.4-1.7c0.3-0.5,0.7-0.9,1.2-1.2c0.5-0.3,1-0.4,1.6-0.4c0.8,0,1.5,0.3,1.9,0.8v-3.1H106z M103.7,59
		c0.3-0.3,0.5-0.8,0.5-1.3c0-0.5-0.2-1-0.5-1.3S103,56,102.5,56c-0.5,0-0.9,0.2-1.2,0.5s-0.5,0.8-0.5,1.3c0,0.5,0.2,1,0.5,1.3
		c0.3,0.3,0.7,0.5,1.2,0.5C103,59.5,103.4,59.4,103.7,59z"/>
	<path d="M114,58.3h-4.9c0.1,0.4,0.3,0.7,0.6,0.9c0.3,0.2,0.7,0.3,1.2,0.3c0.3,0,0.6,0,0.9-0.1c0.3-0.1,0.5-0.3,0.7-0.5l1,1.1
		c-0.6,0.7-1.5,1-2.7,1c-0.7,0-1.4-0.1-1.9-0.4c-0.6-0.3-1-0.7-1.3-1.2c-0.3-0.5-0.5-1.1-0.5-1.7c0-0.6,0.1-1.2,0.4-1.7
		c0.3-0.5,0.7-0.9,1.2-1.2c0.5-0.3,1.1-0.4,1.8-0.4c0.6,0,1.2,0.1,1.7,0.4c0.5,0.3,0.9,0.7,1.2,1.2c0.3,0.5,0.4,1.1,0.4,1.8
		C114,57.8,114,58,114,58.3z M109.6,56.2c-0.3,0.2-0.5,0.6-0.5,1h3.2c-0.1-0.4-0.2-0.7-0.5-1c-0.3-0.2-0.6-0.4-1.1-0.4
		C110.2,55.8,109.9,56,109.6,56.2z"/>
	<path d="M124.1,54.8c0.5,0.3,0.9,0.7,1.2,1.2s0.4,1.1,0.4,1.7s-0.1,1.2-0.4,1.7c-0.3,0.5-0.7,0.9-1.2,1.2s-1,0.4-1.6,0.4
		c-0.8,0-1.5-0.3-1.9-0.8v3h-1.9v-8.8h1.8v0.7c0.5-0.6,1.1-0.8,2-0.8C123.1,54.4,123.6,54.6,124.1,54.8z M123.3,59
		c0.3-0.3,0.5-0.8,0.5-1.3c0-0.5-0.2-1-0.5-1.3c-0.3-0.3-0.7-0.5-1.2-0.5c-0.5,0-0.9,0.2-1.2,0.5s-0.5,0.8-0.5,1.3
		c0,0.5,0.2,1,0.5,1.3c0.3,0.3,0.7,0.5,1.2,0.5C122.6,59.5,123,59.4,123.3,59z"/>
	<path d="M131.7,55.1c0.5,0.5,0.8,1.2,0.8,2.2V61h-1.7v-0.8c-0.4,0.6-1,0.9-2,0.9c-0.5,0-0.9-0.1-1.3-0.3c-0.4-0.2-0.6-0.4-0.8-0.7
		s-0.3-0.6-0.3-1c0-0.6,0.2-1.1,0.7-1.4c0.5-0.3,1.1-0.5,2.1-0.5h1.5c0-0.4-0.1-0.7-0.4-0.9s-0.6-0.3-1.1-0.3c-0.3,0-0.7,0.1-1,0.2
		c-0.3,0.1-0.6,0.3-0.8,0.4l-0.7-1.3c0.4-0.2,0.8-0.4,1.3-0.6s1-0.2,1.5-0.2C130.4,54.4,131.2,54.7,131.7,55.1z M130.1,59.6
		c0.2-0.1,0.4-0.4,0.5-0.7v-0.7h-1.3c-0.8,0-1.2,0.3-1.2,0.8c0,0.2,0.1,0.4,0.3,0.6c0.2,0.1,0.4,0.2,0.8,0.2
		C129.6,59.8,129.9,59.7,130.1,59.6z"/>
	<path d="M140.9,54.5v5.4c0,1.2-0.3,2.1-0.9,2.6c-0.6,0.6-1.5,0.9-2.7,0.9c-0.6,0-1.2-0.1-1.8-0.2c-0.6-0.2-1-0.4-1.4-0.7l0.7-1.3
		c0.3,0.2,0.6,0.4,1,0.5s0.8,0.2,1.2,0.2c0.6,0,1.1-0.1,1.4-0.4c0.3-0.3,0.5-0.7,0.5-1.3v-0.3c-0.5,0.5-1.2,0.8-2,0.8
		c-0.6,0-1.1-0.1-1.6-0.4c-0.5-0.3-0.9-0.6-1.2-1.1c-0.3-0.5-0.4-1-0.4-1.6s0.1-1.2,0.4-1.6s0.7-0.8,1.2-1.1c0.5-0.3,1-0.4,1.6-0.4
		c0.9,0,1.6,0.3,2.1,0.9v-0.8H140.9z M138.6,58.7c0.3-0.3,0.5-0.7,0.5-1.1c0-0.5-0.2-0.9-0.5-1.1c-0.3-0.3-0.7-0.4-1.2-0.4
		c-0.5,0-0.9,0.1-1.2,0.4c-0.3,0.3-0.5,0.7-0.5,1.1c0,0.5,0.2,0.9,0.5,1.1c0.3,0.3,0.7,0.4,1.2,0.4C137.9,59.1,138.3,59,138.6,58.7z
		"/>
	<path d="M147.6,55.1c0.5,0.5,0.8,1.2,0.8,2.2V61h-1.8v-0.8c-0.4,0.6-1,0.9-2,0.9c-0.5,0-0.9-0.1-1.3-0.3c-0.4-0.2-0.6-0.4-0.8-0.7
		s-0.3-0.6-0.3-1c0-0.6,0.2-1.1,0.7-1.4c0.5-0.3,1.1-0.5,2.1-0.5h1.5c0-0.4-0.1-0.7-0.4-0.9c-0.2-0.2-0.6-0.3-1.1-0.3
		c-0.3,0-0.7,0.1-1,0.2c-0.3,0.1-0.6,0.3-0.8,0.4l-0.7-1.3c0.4-0.2,0.8-0.4,1.3-0.6s1-0.2,1.5-0.2C146.3,54.4,147,54.7,147.6,55.1z
		 M146,59.6c0.2-0.1,0.4-0.4,0.5-0.7v-0.7h-1.3c-0.8,0-1.2,0.3-1.2,0.8c0,0.2,0.1,0.4,0.3,0.6c0.2,0.1,0.4,0.2,0.8,0.2
		C145.4,59.8,145.7,59.7,146,59.6z"/>
	<path d="M160.2,55.1c0.5,0.5,0.7,1.2,0.7,2.1V61h-1.9v-3.4c0-0.5-0.1-0.9-0.3-1.1c-0.2-0.3-0.5-0.4-0.9-0.4c-0.4,0-0.8,0.1-1,0.4
		c-0.3,0.3-0.4,0.7-0.4,1.3V61h-1.9v-3.4c0-1-0.4-1.5-1.2-1.5c-0.4,0-0.8,0.1-1,0.4c-0.3,0.3-0.4,0.7-0.4,1.3V61h-1.9v-6.4h1.8v0.7
		c0.2-0.3,0.5-0.5,0.9-0.6c0.3-0.1,0.7-0.2,1.1-0.2c0.5,0,0.9,0.1,1.2,0.3s0.7,0.4,0.9,0.8c0.3-0.3,0.6-0.6,1-0.8
		c0.4-0.2,0.8-0.3,1.3-0.3C159.1,54.4,159.8,54.7,160.2,55.1z"/>
	<path d="M169,58.3h-4.9c0.1,0.4,0.3,0.7,0.6,0.9c0.3,0.2,0.7,0.3,1.2,0.3c0.3,0,0.6,0,0.9-0.1s0.5-0.3,0.7-0.5l1,1.1
		c-0.6,0.7-1.5,1-2.7,1c-0.7,0-1.4-0.1-1.9-0.4c-0.6-0.3-1-0.7-1.3-1.2s-0.5-1.1-0.5-1.7c0-0.6,0.1-1.2,0.4-1.7
		c0.3-0.5,0.7-0.9,1.2-1.2s1.1-0.4,1.8-0.4c0.6,0,1.2,0.1,1.7,0.4c0.5,0.3,0.9,0.7,1.2,1.2c0.3,0.5,0.4,1.1,0.4,1.8
		C169,57.8,169,58,169,58.3z M164.6,56.2c-0.3,0.2-0.5,0.6-0.5,1h3.2c-0.1-0.4-0.2-0.7-0.5-1c-0.3-0.2-0.6-0.4-1.1-0.4
		C165.2,55.8,164.9,56,164.6,56.2z"/>
	<path d="M176.1,55.1c0.5,0.5,0.7,1.2,0.7,2.1V61H175v-3.4c0-0.5-0.1-0.9-0.3-1.1c-0.2-0.3-0.5-0.4-1-0.4c-0.5,0-0.8,0.1-1.1,0.4
		c-0.3,0.3-0.4,0.7-0.4,1.3V61h-1.9v-6.4h1.8v0.8c0.2-0.3,0.6-0.5,0.9-0.6c0.4-0.1,0.8-0.2,1.2-0.2C175,54.4,175.6,54.7,176.1,55.1z
		"/>
	<path d="M182.7,60.6c-0.2,0.1-0.4,0.2-0.7,0.3c-0.3,0.1-0.5,0.1-0.8,0.1c-0.8,0-1.4-0.2-1.8-0.6c-0.4-0.4-0.6-1-0.6-1.7v-2.6h-1
		v-1.4h1v-1.6h1.9v1.6h1.6v1.4h-1.6v2.6c0,0.3,0.1,0.5,0.2,0.6c0.1,0.1,0.3,0.2,0.6,0.2c0.3,0,0.5-0.1,0.8-0.2L182.7,60.6z"/>
	<path d="M184.8,60.6c-0.5-0.3-1-0.7-1.3-1.2c-0.3-0.5-0.5-1.1-0.5-1.7c0-0.6,0.2-1.2,0.5-1.7c0.3-0.5,0.7-0.9,1.3-1.2
		s1.1-0.4,1.8-0.4c0.7,0,1.3,0.1,1.8,0.4c0.5,0.3,1,0.7,1.3,1.2c0.3,0.5,0.5,1.1,0.5,1.7c0,0.6-0.2,1.2-0.5,1.7s-0.7,0.9-1.3,1.2
		c-0.5,0.3-1.1,0.4-1.8,0.4C185.9,61.1,185.3,60.9,184.8,60.6z M187.8,59c0.3-0.3,0.5-0.8,0.5-1.3c0-0.5-0.2-1-0.5-1.3
		s-0.7-0.5-1.2-0.5c-0.5,0-0.9,0.2-1.2,0.5s-0.5,0.8-0.5,1.3c0,0.5,0.2,1,0.5,1.3c0.3,0.3,0.7,0.5,1.2,0.5
		C187.1,59.5,187.5,59.4,187.8,59z"/>
	<path d="M195.4,60.9c-0.5-0.1-0.9-0.3-1.2-0.5l0.6-1.3c0.3,0.2,0.6,0.3,1,0.4c0.4,0.1,0.8,0.2,1.2,0.2c0.8,0,1.2-0.2,1.2-0.6
		c0-0.2-0.1-0.3-0.3-0.4s-0.5-0.1-1-0.2c-0.5-0.1-1-0.2-1.3-0.3c-0.3-0.1-0.6-0.3-0.9-0.6c-0.3-0.3-0.4-0.6-0.4-1.1
		c0-0.4,0.1-0.8,0.4-1.1c0.2-0.3,0.6-0.6,1-0.7s1-0.3,1.6-0.3c0.5,0,0.9,0,1.4,0.2c0.5,0.1,0.8,0.2,1.1,0.4l-0.6,1.3
		c-0.6-0.3-1.2-0.5-1.9-0.5c-0.4,0-0.7,0.1-0.9,0.2c-0.2,0.1-0.3,0.3-0.3,0.4c0,0.2,0.1,0.3,0.3,0.4c0.2,0.1,0.6,0.2,1,0.2
		c0.5,0.1,1,0.2,1.3,0.3c0.3,0.1,0.6,0.3,0.9,0.5c0.2,0.3,0.4,0.6,0.4,1.1c0,0.4-0.1,0.8-0.4,1.1c-0.2,0.3-0.6,0.6-1,0.7
		c-0.5,0.2-1,0.3-1.6,0.3C196.4,61.1,195.9,61,195.4,60.9z"/>
	<path d="M207.4,58.3h-4.9c0.1,0.4,0.3,0.7,0.6,0.9c0.3,0.2,0.7,0.3,1.2,0.3c0.3,0,0.6,0,0.9-0.1s0.5-0.3,0.7-0.5l1,1.1
		c-0.6,0.7-1.5,1-2.7,1c-0.7,0-1.4-0.1-1.9-0.4c-0.6-0.3-1-0.7-1.3-1.2s-0.5-1.1-0.5-1.7c0-0.6,0.1-1.2,0.4-1.7
		c0.3-0.5,0.7-0.9,1.2-1.2s1.1-0.4,1.8-0.4c0.6,0,1.2,0.1,1.7,0.4c0.5,0.3,0.9,0.7,1.2,1.2c0.3,0.5,0.4,1.1,0.4,1.8
		C207.5,57.8,207.5,58,207.4,58.3z M203.1,56.2c-0.3,0.2-0.5,0.6-0.5,1h3.2c-0.1-0.4-0.2-0.7-0.5-1c-0.3-0.2-0.6-0.4-1.1-0.4
		C203.7,55.8,203.3,56,203.1,56.2z"/>
	<path d="M215.4,54.5v5.4c0,1.2-0.3,2.1-0.9,2.6c-0.6,0.6-1.5,0.9-2.7,0.9c-0.6,0-1.2-0.1-1.8-0.2c-0.6-0.2-1-0.4-1.4-0.7l0.7-1.3
		c0.3,0.2,0.6,0.4,1,0.5c0.4,0.1,0.8,0.2,1.2,0.2c0.6,0,1.1-0.1,1.4-0.4c0.3-0.3,0.5-0.7,0.5-1.3v-0.3c-0.5,0.5-1.2,0.8-2,0.8
		c-0.6,0-1.1-0.1-1.6-0.4c-0.5-0.3-0.9-0.6-1.2-1.1c-0.3-0.5-0.4-1-0.4-1.6s0.1-1.2,0.4-1.6c0.3-0.5,0.7-0.8,1.2-1.1
		c0.5-0.3,1-0.4,1.6-0.4c0.9,0,1.6,0.3,2.1,0.9v-0.8H215.4z M213,58.7c0.3-0.3,0.5-0.7,0.5-1.1c0-0.5-0.2-0.9-0.5-1.1
		c-0.3-0.3-0.7-0.4-1.2-0.4c-0.5,0-0.9,0.1-1.2,0.4c-0.3,0.3-0.5,0.7-0.5,1.1c0,0.5,0.2,0.9,0.5,1.1c0.3,0.3,0.7,0.4,1.2,0.4
		C212.3,59.1,212.7,59,213,58.7z"/>
	<path d="M223.6,54.5V61h-1.8v-0.8c-0.2,0.3-0.5,0.5-0.9,0.6c-0.3,0.1-0.7,0.2-1.1,0.2c-0.8,0-1.5-0.2-2-0.7
		c-0.5-0.5-0.7-1.2-0.7-2.2v-3.6h1.9v3.4c0,1,0.4,1.6,1.3,1.6c0.4,0,0.8-0.1,1.1-0.4c0.3-0.3,0.4-0.7,0.4-1.3v-3.2H223.6z"/>
	<path d="M228,54.7c0.4-0.2,0.8-0.2,1.3-0.2v1.7c-0.2,0-0.3,0-0.4,0c-0.5,0-1,0.1-1.3,0.4s-0.5,0.7-0.5,1.3v3h-1.9v-6.4h1.8v0.9
		C227.3,55.1,227.6,54.8,228,54.7z"/>
	<path d="M231.6,60.6c-0.5-0.3-1-0.7-1.3-1.2s-0.5-1.1-0.5-1.7c0-0.6,0.2-1.2,0.5-1.7c0.3-0.5,0.7-0.9,1.3-1.2s1.1-0.4,1.8-0.4
		s1.3,0.1,1.8,0.4s1,0.7,1.3,1.2c0.3,0.5,0.5,1.1,0.5,1.7c0,0.6-0.2,1.2-0.5,1.7c-0.3,0.5-0.7,0.9-1.3,1.2c-0.5,0.3-1.1,0.4-1.8,0.4
		S232.2,60.9,231.6,60.6z M234.6,59c0.3-0.3,0.5-0.8,0.5-1.3c0-0.5-0.2-1-0.5-1.3c-0.3-0.3-0.7-0.5-1.2-0.5s-0.9,0.2-1.2,0.5
		s-0.5,0.8-0.5,1.3c0,0.5,0.2,1,0.5,1.3c0.3,0.3,0.7,0.5,1.2,0.5S234.3,59.4,234.6,59z"/>
	<path d="M238.8,60.9c-0.5-0.1-0.9-0.3-1.2-0.5l0.6-1.3c0.3,0.2,0.6,0.3,1,0.4c0.4,0.1,0.8,0.2,1.2,0.2c0.8,0,1.2-0.2,1.2-0.6
		c0-0.2-0.1-0.3-0.3-0.4s-0.5-0.1-1-0.2c-0.5-0.1-1-0.2-1.3-0.3c-0.3-0.1-0.6-0.3-0.9-0.6c-0.3-0.3-0.4-0.6-0.4-1.1
		c0-0.4,0.1-0.8,0.4-1.1c0.2-0.3,0.6-0.6,1-0.7s1-0.3,1.6-0.3c0.5,0,0.9,0,1.4,0.2c0.5,0.1,0.8,0.2,1.1,0.4l-0.6,1.3
		c-0.6-0.3-1.2-0.5-1.9-0.5c-0.4,0-0.7,0.1-0.9,0.2c-0.2,0.1-0.3,0.3-0.3,0.4c0,0.2,0.1,0.3,0.3,0.4c0.2,0.1,0.6,0.2,1,0.2
		c0.5,0.1,1,0.2,1.3,0.3c0.3,0.1,0.6,0.3,0.9,0.5c0.2,0.3,0.4,0.6,0.4,1.1c0,0.4-0.1,0.8-0.4,1.1c-0.2,0.3-0.6,0.6-1,0.7
		c-0.5,0.2-1,0.3-1.6,0.3C239.9,61.1,239.3,61,238.8,60.9z"/>
</g>
<g>
	<g>
		<g transform="translate(117.3312,26.8632)">
			<path class="st14" d="M58.5-13.5c-0.8,5.1-4.6,5.1-8.4,5.1H48l1.5-9.5c0.1-0.6,0.6-1,1.2-1h1c2.5,0,5,0,6.2,1.4
				C58.5-16.5,58.8-15.2,58.5-13.5 M56.9-26.7H42.8c-1,0-1.8,0.7-1.9,1.7l-5.7,36.2c-0.1,0.7,0.4,1.4,1.2,1.4h7.2
				c0.7,0,1.2-0.5,1.4-1.2l1.6-10.3c0.1-1,1-1.7,1.9-1.7H53c9.3,0,14.7-4.5,16.1-13.4c0.6-3.9,0-7-1.8-9.1
				C65.1-25.4,61.6-26.7,56.9-26.7"/>
		</g>
		<g transform="translate(134.4426,19.7234)">
			<path class="st14" d="M72.5,6.7c-0.7,3.9-3.7,6.5-7.6,6.5c-2,0-3.5-0.6-4.5-1.8S59,8.5,59.3,6.7C59.9,2.7,63,0,66.9,0
				c1.9,0,3.5,0.6,4.5,1.8C72.4,3.1,72.8,4.8,72.5,6.7 M81.9-6.5h-6.8c-0.6,0-1.1,0.4-1.2,1l-0.3,1.9l-0.5-0.7
				c-1.5-2.1-4.7-2.8-8-2.8C57.6-7.1,51.3-1.4,50,6.5c-0.6,4,0.3,7.7,2.5,10.4c2.1,2.4,5,3.4,8.5,3.4c6,0,9.4-3.9,9.4-3.9l-0.3,1.9
				c-0.1,0.7,0.4,1.4,1.2,1.4h6.1c1,0,1.8-0.7,1.9-1.7L83-5.1C83.2-5.8,82.6-6.5,81.9-6.5"/>
		</g>
		<g transform="translate(143.996,33.5807)">
			<path id="XMLID_65_" class="st14" d="M80.3-32.4L74.5,4.4c-0.1,0.7,0.4,1.4,1.2,1.4h5.8c1,0,1.8-0.7,1.9-1.7L89.2-32
				c0.1-0.7-0.4-1.4-1.2-1.4h-6.5C80.9-33.4,80.4-33,80.3-32.4"/>
		</g>
	</g>
	<g>
		<g transform="translate(62.0115,26.8632)">
			<path class="st15" d="M13.2-13.5c-0.8,5.1-4.6,5.1-8.4,5.1H2.7l1.5-9.5c0.1-0.6,0.6-1,1.2-1h1c2.5,0,5,0,6.2,1.4
				C13.3-16.5,13.5-15.2,13.2-13.5 M11.6-26.7H-2.5c-1,0-1.8,0.7-1.9,1.7l-5.7,36.2c-0.1,0.7,0.4,1.4,1.2,1.4h6.7
				c1,0,1.8-0.7,1.9-1.7l1.5-9.8c0.1-1,1-1.7,1.9-1.7h4.5c9.3,0,14.7-4.5,16.1-13.4c0.6-3.9,0-7-1.8-9.1
				C19.9-25.4,16.3-26.7,11.6-26.7"/>
		</g>
		<g transform="translate(79.1228,19.7234)">
			<path class="st15" d="M27.2,6.7c-0.7,3.9-3.7,6.5-7.6,6.5c-2,0-3.5-0.6-4.5-1.8S13.7,8.5,14,6.7c0.6-4,3.7-6.7,7.6-6.7
				c1.9,0,3.5,0.6,4.5,1.8C27.1,3.1,27.5,4.8,27.2,6.7 M36.6-6.5h-6.8c-0.6,0-1.1,0.4-1.2,1l-0.3,1.9l-0.5-0.7
				c-1.5-2.1-4.7-2.8-8-2.8C12.5-7.1,6.1-1.5,4.9,6.5c-0.6,4,0.3,7.7,2.5,10.4c2.1,2.4,5,3.4,8.5,3.4c6,0,9.4-3.9,9.4-3.9L25,18.3
				c-0.1,0.7,0.4,1.4,1.2,1.4h6.1c1,0,1.8-0.7,1.9-1.7l3.7-23.1C37.9-5.8,37.3-6.5,36.6-6.5"/>
		</g>
		<g transform="translate(104.0795,26.9523)">
			<path id="XMLID_66_" class="st15" d="M47.6-13.7h-6.8c-0.6,0-1.3,0.3-1.6,0.9L29.9,0.9l-4-13.3c-0.2-0.8-1-1.4-1.9-1.4h-6.7
				c-0.8,0-1.4,0.8-1.1,1.6l7.5,21.9l-7,9.9c-0.6,0.8,0,1.9,1,1.9h6.8c0.6,0,1.2-0.3,1.6-0.8l22.6-32.6
				C49.2-12.7,48.6-13.7,47.6-13.7"/>
		</g>
	</g>
</g>
</svg>
