<?xml version="1.0" encoding="utf-8"?>
<svg version="1.1" id="iconHuman_1_" xmlns="http://www.w3.org/2000/svg" xmlns:xlink="http://www.w3.org/1999/xlink" x="0px"
	 y="0px" viewBox="0 0 35 40.41" style="enable-background:new 0 0 35 40.41;" xml:space="preserve">
<style type="text/css">
	.st0{fill:#FF3658;}
</style>
<polygon class="st0" points="0,10.1 0,30.31 17.5,40.41 35,30.31 35,10.1 17.5,0 "/>
<path d="M25.81,23.76c0.03,0.68-0.17,1.26-0.65,1.74c-0.47,0.47-1.06,0.66-1.71,0.64c0.06,1.38-1.02,2.44-2.38,2.38
	c0.02,0.92-0.34,1.65-1.16,2.1c-0.83,0.44-1.63,0.33-2.39-0.2c-1.54,1.17-3.69,0.02-3.56-1.9c-0.67,0.04-1.25-0.16-1.73-0.64
	c-0.47-0.47-0.65-1.06-0.63-1.72c-1.39,0.09-2.44-1.02-2.38-2.36c-0.2-0.02-0.4-0.02-0.6-0.06c-0.83-0.18-1.4-0.67-1.66-1.47
	c-0.26-0.81-0.08-1.55,0.49-2.18c0.08-0.09,0.12-0.15,0.06-0.29c-1.96-4.22,0.52-9.14,5.07-10.08c1.65-0.34,3.24-0.11,4.75,0.65
	c0.13,0.06,0.22,0.06,0.35-0.01c4.06-2.08,9.06,0.1,10.23,4.48c0.45,1.68,0.31,3.33-0.39,4.92c-0.05,0.11-0.05,0.18,0.04,0.28
	c0.65,0.7,0.81,1.5,0.46,2.38c-0.33,0.83-1.13,1.34-2.05,1.34C25.92,23.76,25.88,23.76,25.81,23.76z M16.79,11.25
	c-2.13-1.09-5.03-0.92-7.08,1.09c-2.06,2.02-2.24,4.9-1.35,6.83c0.68-0.83,1.52-1.28,2.59-0.94c1.07,0.34,1.55,1.15,1.55,2.27
	c0.67-0.03,1.25,0.16,1.72,0.63c0.48,0.47,0.68,1.06,0.64,1.74c0.68-0.04,1.26,0.16,1.74,0.63c0.48,0.47,0.67,1.06,0.64,1.73
	c1.19-0.06,2.19,0.71,2.38,1.96c0.37-0.29,0.51-0.28,0.9,0.02c0.62,0.49,1.56,0.24,1.82-0.5c0.17-0.46,0.06-0.87-0.27-1.24
	c-0.17-0.19-0.19-0.44-0.06-0.63c0.13-0.19,0.36-0.28,0.59-0.2c0.09,0.03,0.18,0.1,0.25,0.16c0.37,0.29,0.78,0.37,1.22,0.2
	c0.42-0.16,0.66-0.49,0.71-0.94c0.04-0.37-0.08-0.68-0.34-0.96c-0.17-0.19-0.19-0.43-0.06-0.63c0.13-0.2,0.38-0.28,0.61-0.2
	c0.09,0.04,0.17,0.11,0.25,0.17c0.53,0.44,1.33,0.34,1.72-0.22c0.33-0.47,0.26-1.08-0.17-1.51c-2.18-2.17-4.35-4.35-6.53-6.52
	c-0.03-0.03-0.06-0.06-0.13-0.12c-0.04,0.06-0.08,0.13-0.12,0.17c-0.97,0.97-1.94,1.95-2.92,2.92c-0.61,0.6-1.35,0.81-2.18,0.57
	c-1.6-0.45-2.12-2.44-0.95-3.63c0.89-0.91,1.8-1.8,2.7-2.7C16.69,11.36,16.74,11.31,16.79,11.25z M26.64,19.16
	c0.04-0.07,0.05-0.09,0.06-0.11c0.44-1.12,0.56-2.27,0.33-3.45c-0.76-3.91-4.93-6.09-8.56-4.48c-0.09,0.04-0.18,0.1-0.25,0.17
	c-0.81,0.81-1.62,1.62-2.43,2.43c-0.37,0.37-0.75,0.74-1.12,1.12c-0.62,0.65-0.32,1.72,0.55,1.92c0.45,0.1,0.84-0.02,1.17-0.35
	c1.1-1.1,2.2-2.2,3.3-3.29c0.34-0.34,0.59-0.34,0.93,0c1.96,1.96,3.92,3.91,5.88,5.87C26.54,19.02,26.58,19.09,26.64,19.16z
	 M8.95,22.73c0.39,0,0.67-0.1,0.9-0.32c0.43-0.43,0.87-0.86,1.29-1.3c0.44-0.45,0.43-1.16,0-1.6c-0.44-0.45-1.16-0.49-1.62-0.05
	c-0.46,0.44-0.91,0.89-1.35,1.35c-0.34,0.36-0.4,0.79-0.21,1.24C8.16,22.5,8.53,22.71,8.95,22.73z M16.04,29.84
	c0.4,0.01,0.67-0.08,0.89-0.28c0.46-0.45,0.92-0.9,1.36-1.36c0.42-0.44,0.39-1.14-0.02-1.58c-0.41-0.43-1.11-0.5-1.56-0.1
	c-0.51,0.46-1,0.95-1.46,1.45c-0.32,0.36-0.35,0.8-0.14,1.23C15.32,29.63,15.68,29.82,16.04,29.84z M13.84,22.53
	c-0.02-0.35-0.25-0.72-0.71-0.92c-0.47-0.2-0.9-0.11-1.27,0.24c-0.44,0.42-0.86,0.85-1.28,1.28c-0.45,0.47-0.45,1.18,0,1.63
	c0.44,0.44,1.18,0.45,1.64,0.01c0.44-0.42,0.87-0.86,1.3-1.29C13.74,23.26,13.84,22.99,13.84,22.53z M16.21,24.91
	c-0.01-0.35-0.23-0.72-0.69-0.92c-0.47-0.2-0.91-0.12-1.29,0.24c-0.43,0.41-0.84,0.83-1.26,1.25c-0.47,0.48-0.48,1.19-0.03,1.65
	c0.45,0.45,1.2,0.46,1.67,0c0.43-0.42,0.85-0.84,1.27-1.27C16.1,25.65,16.21,25.38,16.21,24.91z M18.29,29.66
	c0.45,0.32,1.13,0.2,1.5-0.26c0.39-0.49,0.32-1.18-0.2-1.64C19.49,28.63,18.82,29.1,18.29,29.66z"/>
</svg>
