<?xml version="1.0" encoding="utf-8"?>
<svg version="1.1" id="iconEconomic_1_" xmlns="http://www.w3.org/2000/svg" xmlns:xlink="http://www.w3.org/1999/xlink" x="0px"
	 y="0px" viewBox="0 0 35 40.41" style="enable-background:new 0 0 35 40.41;" xml:space="preserve">
<style type="text/css">
	.st0{fill:#FDFE00;}
</style>
<polygon class="st0" points="0,10.1 0,30.31 17.5,40.41 35,30.31 35,10.1 17.5,0 "/>
<path d="M6.71,28.85c0-0.1,0-0.18,0-0.26c0-2.11,0-4.22,0-6.32c0-0.08,0-0.17,0.01-0.25c0.03-0.28,0.22-0.47,0.5-0.47
	c1.11,0,2.22,0,3.32,0c0.29,0,0.49,0.2,0.51,0.48c0.01,0.07,0,0.14,0,0.21c0,2.11,0,4.23,0,6.34c0,0.08,0,0.16,0,0.26
	c0.47,0,0.93,0,1.4,0c0-0.09,0-0.17,0-0.25c0-3.44,0-6.88,0-10.32c0-0.52,0.17-0.7,0.7-0.7c1.01,0,2.02,0,3.04,0
	c0.42,0,0.62,0.19,0.62,0.62c0,3.46,0,6.93,0,10.39c0,0.08,0,0.16,0,0.25c0.47,0,0.93,0,1.41,0c0-0.08,0-0.15,0-0.22
	c0-2.76,0-5.53,0-8.29c0-0.49,0.17-0.66,0.65-0.66c1.02,0,2.04,0,3.06,0c0.47,0,0.65,0.18,0.65,0.64c0,2.77,0,5.54,0,8.31
	c0,0.07,0,0.14,0,0.22c0.47,0,0.92,0,1.41,0c0-0.08,0-0.16,0-0.24c0-3.99,0-7.98,0-11.98c0-0.51,0.17-0.68,0.67-0.68c1,0,2,0,3,0
	c0.5,0,0.68,0.18,0.68,0.68c0,3.98,0,7.96,0,11.94c0,0.09,0,0.18,0,0.29c0.08,0,0.15,0,0.22,0c0.43,0,0.87,0,1.3,0
	c0.33,0,0.56,0.23,0.56,0.53c0,0.29-0.23,0.5-0.55,0.51c-0.06,0-0.11,0-0.17,0c-8.11,0-16.21,0-24.32,0c-0.09,0-0.18,0-0.27,0
	c-0.24-0.02-0.44-0.21-0.47-0.45c-0.03-0.23,0.12-0.48,0.36-0.54c0.09-0.03,0.19-0.03,0.28-0.03C5.74,28.85,6.21,28.85,6.71,28.85z
	 M25.04,16.99c0,3.96,0,7.9,0,11.85c0.75,0,1.5,0,2.24,0c0-3.95,0-7.9,0-11.85C26.52,16.99,25.78,16.99,25.04,16.99z M15.77,28.84
	c0-3.42,0-6.81,0-10.22c-0.76,0-1.5,0-2.25,0c0,3.41,0,6.81,0,10.22C14.27,28.84,15.01,28.84,15.77,28.84z M19.27,20.7
	c0,2.73,0,5.43,0,8.13c0.76,0,1.51,0,2.25,0c0-2.72,0-5.42,0-8.13C20.77,20.7,20.03,20.7,19.27,20.7z M7.76,28.83
	c0.76,0,1.51,0,2.25,0c0-2.09,0-4.17,0-6.24c-0.76,0-1.5,0-2.25,0C7.76,24.67,7.76,26.75,7.76,28.83z"/>
<path d="M18.85,15.32c0.76-0.88,1.89-0.99,2.8-0.31c0.03-0.02,0.07-0.04,0.11-0.07c0.81-0.56,1.62-1.13,2.43-1.69
	c0.09-0.06,0.12-0.11,0.09-0.23c-0.3-1.08,0.34-2.16,1.43-2.42c1.06-0.26,2.15,0.43,2.38,1.48c0.24,1.1-0.47,2.16-1.58,2.35
	c-0.52,0.09-1.01-0.02-1.45-0.33c-0.1-0.07-0.16-0.08-0.26-0.01c-0.8,0.57-1.6,1.13-2.41,1.68c-0.1,0.07-0.11,0.13-0.08,0.25
	c0.2,0.82-0.02,1.51-0.67,2.03c-0.65,0.52-1.39,0.58-2.13,0.2c-0.7-0.35-1.1-1.09-1.04-1.87c0-0.03,0-0.06,0-0.11
	c-0.57-0.24-1.16-0.46-1.72-0.72c-0.34-0.16-0.58-0.19-0.9,0.11c-0.62,0.57-1.53,0.57-2.24,0.12c-0.05-0.03-0.1-0.06-0.15-0.1
	c-0.05,0.03-0.09,0.06-0.14,0.09c-0.82,0.61-1.63,1.21-2.46,1.82c-0.1,0.08-0.13,0.14-0.09,0.27c0.32,1.07-0.32,2.18-1.41,2.45
	c-1.06,0.27-2.16-0.41-2.39-1.48c-0.24-1.09,0.48-2.16,1.59-2.35c0.5-0.09,0.98,0.01,1.4,0.3c0.11,0.08,0.18,0.06,0.28-0.01
	c0.81-0.61,1.63-1.22,2.45-1.82c0.1-0.07,0.12-0.13,0.09-0.25c-0.23-0.79-0.04-1.48,0.58-2.02c0.61-0.54,1.34-0.65,2.08-0.32
	c0.75,0.33,1.13,0.94,1.18,1.75c0,0.09-0.01,0.18-0.02,0.28C17.34,14.69,18.1,15,18.85,15.32z M26.16,13.42
	c0.51,0,0.92-0.41,0.93-0.92c0-0.51-0.42-0.93-0.94-0.93c-0.5,0.01-0.91,0.41-0.92,0.91C25.23,12.99,25.65,13.42,26.16,13.42z
	 M19.48,16.53c0,0.51,0.42,0.92,0.92,0.92c0.51,0,0.92-0.41,0.92-0.92c0-0.52-0.42-0.93-0.93-0.93
	C19.89,15.6,19.48,16.02,19.48,16.53z M8.89,19.33c0.5,0,0.93-0.43,0.93-0.92c-0.01-0.51-0.42-0.92-0.92-0.92
	c-0.52,0-0.94,0.42-0.93,0.93C7.96,18.91,8.38,19.33,8.89,19.33z M14.64,13.21c-0.51,0-0.92,0.41-0.92,0.9
	c0,0.52,0.42,0.94,0.93,0.94c0.51,0,0.92-0.42,0.92-0.93C15.56,13.61,15.15,13.21,14.64,13.21z"/>
</svg>
