<?xml version="1.0" encoding="utf-8"?>
<svg version="1.1" id="iconQuality_1_" xmlns="http://www.w3.org/2000/svg" xmlns:xlink="http://www.w3.org/1999/xlink" x="0px"
	 y="0px" viewBox="0 0 35 40.41" style="enable-background:new 0 0 35 40.41;" xml:space="preserve">
<style type="text/css">
	.st0{fill:#CB98FD;}
</style>
<polygon class="st0" points="0,10.1 0,30.31 17.5,40.41 35,30.31 35,10.1 17.5,0 "/>
<path d="M14.92,19.2c-0.47-0.48-0.93-0.95-1.39-1.42c-0.16-0.16-0.23-0.34-0.23-0.56c0-2.99,0-5.99,0-8.98
	c0-0.43,0.2-0.63,0.63-0.63c2.4,0,4.8,0,7.2,0c0.43,0,0.62,0.19,0.62,0.62c0,3,0,6,0,9c0,0.22-0.07,0.39-0.22,0.54
	c-0.47,0.47-0.93,0.94-1.41,1.44c0.45,0.09,0.53,0.39,0.51,0.77c-0.02,0.51-0.01,1.02,0,1.53c0,0.07,0.05,0.17,0.11,0.21
	c1.55,1.08,2.46,2.56,2.66,4.44c0.33,3.16-1.75,5.94-4.69,6.57c-2.95,0.63-5.93-1.16-6.83-4.1c-0.8-2.6,0.15-5.35,2.41-6.89
	c0.1-0.07,0.13-0.14,0.13-0.25c-0.01-0.52,0-1.04,0-1.57C14.42,19.48,14.49,19.37,14.92,19.2z M17.54,31.84
	c0.4-0.06,0.81-0.09,1.2-0.2c2.77-0.74,4.33-3.67,3.44-6.42c-0.84-2.59-3.53-4.01-6.07-3.22c-2.36,0.73-3.86,3.24-3.4,5.67
	C13.17,30.1,15.16,31.81,17.54,31.84z M18.34,19.21c0-3.53,0-7.03,0-10.54c-0.56,0-1.1,0-1.64,0c0,3.52,0,7.02,0,10.54
	C17.26,19.21,17.79,19.21,18.34,19.21z M19.39,8.67c0,3.27,0,6.52,0,9.77c0.02,0.01,0.03,0.02,0.05,0.03
	c0.04-0.05,0.07-0.11,0.11-0.15c0.35-0.36,0.71-0.72,1.05-1.08c0.07-0.07,0.12-0.2,0.12-0.3c0.01-2.69,0.01-5.37,0-8.06
	c0-0.07-0.01-0.13-0.01-0.21C20.26,8.67,19.83,8.67,19.39,8.67z M14.34,8.67c-0.01,0.04-0.01,0.06-0.01,0.08c0,2.75,0,5.5,0,8.25
	c0,0.07,0.04,0.16,0.09,0.21c0.37,0.39,0.75,0.77,1.12,1.15c0.03,0.03,0.07,0.06,0.11,0.09c0-3.27,0-6.52,0-9.77
	C15.21,8.67,14.78,8.67,14.34,8.67z M15.45,21.13c1.39-0.52,2.76-0.52,4.14-0.01c0-0.29,0-0.57,0-0.84c-1.39,0-2.76,0-4.14,0
	C15.45,20.57,15.45,20.83,15.45,21.13z"/>
<path d="M14,26.79c0-2.06,1.64-3.73,3.66-3.72c2.01,0.01,3.63,1.67,3.63,3.73c0,2.06-1.63,3.73-3.65,3.73
	C15.63,30.52,14,28.84,14,26.79z M20.27,26.8c0.01-1.47-1.17-2.69-2.61-2.69c-1.45-0.01-2.64,1.2-2.64,2.68
	c0,1.48,1.18,2.69,2.63,2.69C19.09,29.48,20.26,28.28,20.27,26.8z"/>
</svg>
