<?xml version="1.0" encoding="utf-8"?>
<svg version="1.1" id="iconTechnological_1_" xmlns="http://www.w3.org/2000/svg" xmlns:xlink="http://www.w3.org/1999/xlink"
	 x="0px" y="0px" viewBox="0 0 35 40.41" style="enable-background:new 0 0 35 40.41;" xml:space="preserve">
<style type="text/css">
	.st0{fill:#7396D8;}
</style>
<polygon class="st0" points="0,10.1 0,30.31 17.5,40.41 35,30.31 35,10.1 17.5,0 "/>
<path d="M28.79,20.24c0.01,6.21-5.04,11.27-11.27,11.28c-6.24,0.01-11.29-5.02-11.3-11.26c-0.01-6.24,5.04-11.3,11.28-11.3
	C23.74,8.96,28.78,14,28.79,20.24z M23.53,20.76c-0.07,1.53-0.38,3.01-0.94,4.44c0.96,0.49,1.82,1.11,2.61,1.82
	c1.57-1.81,2.4-3.89,2.54-6.26C26.32,20.76,24.94,20.76,23.53,20.76z M12.43,25.2c-0.57-1.44-0.88-2.91-0.95-4.43
	c-1.41,0-2.8,0-4.19,0c-0.14,1.7,1.31,5.27,2.54,6.24C10.62,26.3,11.48,25.7,12.43,25.2z M11.49,19.71
	c0.05-1.54,0.35-3.01,0.91-4.45c-0.94-0.49-1.79-1.09-2.57-1.81c-1.56,1.81-2.4,3.88-2.54,6.25C8.69,19.71,10.07,19.71,11.49,19.71z
	 M27.72,19.71c0.12-1.75-1.37-5.37-2.55-6.23c-0.77,0.7-1.62,1.3-2.55,1.78c0.57,1.44,0.85,2.92,0.91,4.45
	C24.94,19.71,26.32,19.71,27.72,19.71z M16.99,20.77c-1.49,0-2.97,0-4.46,0c0.07,1.39,0.35,2.71,0.87,4
	c1.17-0.44,2.36-0.7,3.59-0.76C16.99,22.93,16.99,21.86,16.99,20.77z M16.99,16.47c-1.26-0.06-2.46-0.32-3.62-0.77
	c-0.43,0.81-0.92,3.24-0.82,4.01c1.48,0,2.96,0,4.44,0C16.99,18.62,16.99,17.55,16.99,16.47z M22.47,20.77c-1.49,0-2.96,0-4.43,0
	c0,1.09,0,2.17,0,3.25c1.24,0.05,2.42,0.32,3.57,0.75C22.03,23.96,22.52,21.69,22.47,20.77z M18.04,19.71c1.5,0,2.97,0,4.46,0
	c-0.05-1.39-0.32-2.72-0.83-4.02c-1.18,0.46-2.38,0.71-3.62,0.78C18.04,17.56,18.04,18.63,18.04,19.71z M16.98,10.55
	c-1.35,1.22-2.42,2.59-3.21,4.19c1.05,0.41,2.11,0.64,3.21,0.69C16.98,13.8,16.98,12.2,16.98,10.55z M18.04,15.41
	c0.7,0.06,2.79-0.4,3.19-0.7c-0.79-1.58-1.85-2.95-3.19-4.16C18.04,12.2,18.04,13.8,18.04,15.41z M13.82,25.72
	c0.8,1.59,1.85,2.97,3.17,4.18c0-1.64,0-3.24,0-4.86C15.89,25.1,14.85,25.33,13.82,25.72z M21.2,25.72
	c-1.03-0.4-2.07-0.62-3.16-0.67c0,1.62,0,3.21,0,4.85C19.36,28.69,20.4,27.32,21.2,25.72z M22.15,26.17
	c-0.76,1.55-1.78,2.93-3.01,4.16c2.03-0.32,3.8-1.17,5.31-2.55C23.98,27.26,22.68,26.36,22.15,26.17z M10.55,27.77
	c1.53,1.39,3.29,2.25,5.32,2.56c-1.23-1.23-2.24-2.61-3.02-4.18C12.01,26.59,11.25,27.11,10.55,27.77z M15.85,10.15
	c-2.02,0.32-3.78,1.17-5.3,2.56c0.69,0.65,1.43,1.17,2.26,1.6C13.59,12.73,14.61,11.36,15.85,10.15z M19.17,10.15
	c1.24,1.22,2.26,2.59,3.03,4.15c0.64-0.28,1.97-1.23,2.25-1.61C22.94,11.32,21.19,10.47,19.17,10.15z"/>
</svg>
