<?xml version="1.0" encoding="utf-8"?>
<!-- Generator: Adobe Illustrator 24.2.0, SVG Export Plug-In . SVG Version: 6.00 Build 0)  -->
<svg version="1.1" id="Layer_1" xmlns="http://www.w3.org/2000/svg" xmlns:xlink="http://www.w3.org/1999/xlink" x="0px" y="0px"
	 viewBox="0 0 280 280" style="enable-background:new 0 0 280 280;" xml:space="preserve">
<style type="text/css">
	.st0{fill:#EAFCFC;}
	.st1{opacity:0.6;fill:#9BC1F9;}
	.st2{opacity:0.3;fill:#9BC1F9;}
	.st3{fill:#5183BF;}
	.st4{fill:#3C8F7C;}
	.st5{fill:#96D9C9;}
	.st6{fill:#50BFA5;}
	.st7{fill:#0E2E35;}
	.st8{fill:#E59F39;}
	.st9{fill:#EAB054;}
	.st10{fill:#F7CC7F;}
	.st11{fill:#F7A491;}
	.st12{fill:#F47458;}
	.st13{fill:#FFFFFF;}
	.st14{fill:#184655;}
	.st15{opacity:0.8;fill:#FFFFFF;}
</style>
<path class="st0" d="M75.1,65.5c38.1-2.2,78.1,9.3,72.3,25.9s31.4-5.9,46.3,0.1c10.6,4.3,6.4,17.3,11.5,22.5
	c11.8,12,23.8-3.1,38.7,6c15,9.1,8.7,94.1,2.6,94l-230.8-0.4l-2.8,0.1c0,0-16.9-24.4-1.6-38.7c15.3-14.3,4.8-20.8,2.9-26.3
	c-2.1-6.3-7.1-17.4,14.6-25.5c21.7-8.1,16.1-25.7,15.6-29.4C44,90.3,36.9,67.7,75.1,65.5L75.1,65.5z"/>
<rect x="192.7" y="78.4" class="st1" width="17.5" height="135.3"/>
<rect x="168.3" y="119.6" class="st1" width="17.5" height="94"/>
<rect x="217.4" y="107.7" class="st1" width="17.5" height="106"/>
<rect x="143.8" y="103.5" class="st1" width="17.5" height="110.2"/>
<rect x="119.4" y="136.2" class="st1" width="17.5" height="77.5"/>
<rect x="192.7" y="109.6" class="st2" width="17.5" height="104.1"/>
<rect x="168.3" y="141.3" class="st2" width="17.5" height="72.4"/>
<rect x="217.4" y="132.1" class="st2" width="17.5" height="81.6"/>
<rect x="143.8" y="128.9" class="st2" width="17.5" height="84.8"/>
<rect x="119.4" y="154" class="st2" width="17.5" height="59.6"/>
<polygon class="st3" points="243.4,79.4 229.5,89.9 234.8,90.3 201.6,148.8 183.1,121.2 157.1,182 140.3,158.2 119.5,187.7 
	120.8,193 140.3,165.4 158,190.6 184,130.1 201.9,156.9 238.7,92.1 242.1,95.7 "/>
<path class="st4" d="M103.5,174.6c-20-15.9-36.8-36.5-49.5-60.7c-9.2,7.4-18.3,14.7-27.5,22.1c14.7,28,34.1,51.8,57.2,70.2
	C90.4,195.6,96.9,185.1,103.5,174.6z"/>
<path class="st5" d="M49.7,119.6c-5.7,4.6-11.4,9.3-17.1,13.9c1.4,2.5,0.9,5.9-1.2,7.7c12.9,22.9,29.1,42.7,48,58.8
	c1.5-2.3,4.4-2.8,6.5-1.1c4.2-6.5,8.3-13.1,12.5-19.6c-1.9-1.6-2.2-4.7-0.7-7.1c-16.6-14.2-30.8-31.6-42.1-51.7
	C53.7,122.4,51,122,49.7,119.6z"/>
<path class="st6" d="M72.7,171.9c4.3-5.5,4.2-13.6,0.2-18.5c-4-4.8-10.9-5.1-15.7-0.2c-4.8,4.9-5.2,13.6-0.7,19
	C61.1,177.7,68.5,177.4,72.7,171.9z"/>
<path class="st4" d="M72.4,156.3c-0.5,0.6-1.1,1.2-1.6,1.8c1.3,2.4,1,4.8-0.4,6.4c-1.4,1.6-3,1.7-5.3,0.3c-1.7-1-2.6-1.3-3.1-0.7
	c-0.4,0.5-0.6,1.4,0.4,2.6c0.5,0.6,1,1.1,1.5,1.4c0.6,0.4,0.8,1.3,0.4,2l0,0c-0.4,0.7-1.1,0.9-1.7,0.5c-0.5-0.3-1-0.8-1.6-1.4
	c-0.5,0.5-0.9,1-1.4,1.5c-0.5-0.6-1-1.2-1.4-1.8c0.5-0.5,1-1.1,1.5-1.6c-1.2-2.4-1-4.7,0.4-6.2c1.6-1.6,3.4-1.1,5.5,0.2
	c1.4,0.9,2.3,1,2.9,0.4c0.6-0.7,0.4-1.8-0.4-2.8c-0.5-0.7-1.2-1.2-1.8-1.6c-0.6-0.4-0.8-1.3-0.4-2c0,0,0-0.1,0-0.1
	c0.4-0.6,1.1-0.9,1.6-0.5c0.7,0.4,1.4,1,2,1.8c0.5-0.5,1-1.1,1.5-1.6C71.5,155.1,72,155.7,72.4,156.3z"/>
<path class="st6" d="M88.5,186.1c-4.6-3.9-8.9-8-13.2-12.4c-0.7,0.9-1.4,1.9-2.2,2.8c4.3,4.4,8.7,8.6,13.3,12.6
	C87.2,188.1,87.8,187.1,88.5,186.1z"/>
<path class="st4" d="M99.5,168.1c-25.1-3.2-49.7-11.6-72.6-24.8c-4.3,10.2-8.7,20.4-13,30.5c26.4,15.2,54.9,24.9,83.9,28.6
	C98.3,191.1,98.9,179.6,99.5,168.1z"/>
<path class="st5" d="M26,150c-2.7,6.4-5.3,12.8-8,19.1c2.4,1.4,3.7,4.3,2.7,6.6c22.4,12,46.1,20.1,70.4,24c0.2-2.6,2.5-4.3,5.1-3.9
	c0.4-7.1,0.8-14.3,1.2-21.4c-2.4-0.3-4.2-2.7-4-5.3c-21.3-3.4-42.1-10.5-61.8-21.1C30.7,150.3,28.2,151.3,26,150z"/>
<path class="st6" d="M71.5,180.6c1-6.4-3-12.8-8.9-14.8c-5.9-1.9-12,1.1-13.7,7.3c-1.7,6.1,2.1,13.2,8.7,15.4
	C64.2,190.7,70.5,187,71.5,180.6z"/>
<path class="st4" d="M63.6,168.3c-0.2,0.7-0.3,1.5-0.5,2.2c2.3,1.3,3.2,3.3,2.8,5.2c-0.4,1.9-1.7,2.8-4.5,2.8c-2,0-2.8,0.2-3,0.9
	c-0.2,0.6,0.1,1.4,1.6,1.9c0.8,0.3,1.4,0.4,2,0.4c0.7,0,1.3,0.7,1.4,1.4l0,0c0,0.7-0.5,1.3-1.2,1.2c-0.6,0-1.3-0.2-2.1-0.4
	c-0.2,0.6-0.3,1.3-0.5,1.9c-0.7-0.3-1.4-0.5-2.2-0.8c0.2-0.7,0.3-1.3,0.5-2c-2.2-1.3-3.2-3.3-2.7-5.1c0.6-2.1,2.4-2.5,4.8-2.5
	c1.7,0,2.5-0.3,2.7-1.1c0.2-0.9-0.5-1.6-1.7-2c-0.8-0.3-1.6-0.4-2.4-0.4c-0.7,0-1.3-0.7-1.3-1.4c0,0,0-0.1,0-0.1
	c0-0.7,0.5-1.2,1.2-1.2c0.8,0,1.7,0.2,2.6,0.5c0.2-0.7,0.3-1.3,0.5-2C62.2,167.8,62.9,168.1,63.6,168.3z"/>
<path class="st7" d="M87.9,117.5c-0.6-0.2-1.2-0.4-1.8-0.7c-0.7-0.3-1.5-0.7-2-0.8c-1.1-0.2-3.1-0.1-4.1,1.1
	c-1.3,1.4-3.7,0.3-3.2,7.8c0.5,8.5,5.3,7.6,5.4,7.5c0.1-0.1,4.3-5.5,4.3-5.5s1.4,3.2,1.4,3C87.9,129.8,95.2,119.9,87.9,117.5z"/>
<path class="st4" d="M92.9,173.8c-19.8,7.8-41.6,11.4-64.2,10.5c1.5,9.7,3,19.3,4.5,29c26.2,1,51.4-3.1,74.3-12.2
	C102.7,192,97.8,182.9,92.9,173.8z"/>
<path class="st5" d="M31.1,189.8c1,6,2,12.1,3,18.1c2.4,0.1,4.6,1.8,5,4c21.8,0.2,42.8-3.3,62.3-10.2c-1-2.1-0.1-4.4,1.9-5.2
	c-3-5.7-6-11.4-9-17.1c-1.9,0.7-4.3-0.4-5.4-2.5c-17.1,6.1-35.5,9.1-54.7,9C34.7,188.1,33.3,189.9,31.1,189.8z"/>
<path class="st6" d="M78.3,194.9c-2.2-5.4-8.1-8.7-13.2-7.8c-5.2,0.9-8.2,5.8-6.6,11.2c1.6,5.5,7.6,9.4,13.4,8.4
	C77.6,205.7,80.5,200.2,78.3,194.9z"/>
<path class="st4" d="M66.9,188.6c0.2,0.6,0.4,1.3,0.6,1.9c2.2,0.1,3.9,1.3,4.4,2.9c0.6,1.7,0,2.9-2,4c-1.4,0.8-2,1.3-1.8,1.9
	c0.2,0.5,0.7,1,2,0.8c0.7-0.1,1.2-0.3,1.6-0.5c0.5-0.3,1.3,0,1.6,0.5l0,0c0.3,0.5,0.2,1.2-0.4,1.4c-0.4,0.2-1,0.4-1.7,0.5
	c0.2,0.5,0.4,1.1,0.5,1.6c-0.6,0.1-1.3,0.2-1.9,0.3c-0.2-0.6-0.4-1.2-0.6-1.8c-2.2-0.1-3.8-1.2-4.3-2.9c-0.5-1.8,0.6-2.9,2.4-3.9
	c1.2-0.7,1.7-1.2,1.5-1.9c-0.2-0.7-1.1-1-2.2-0.9c-0.7,0.1-1.4,0.3-1.9,0.6c-0.5,0.3-1.3,0-1.6-0.6c0,0,0,0,0-0.1
	c-0.3-0.5-0.2-1.1,0.3-1.4c0.6-0.3,1.3-0.5,2.1-0.7c-0.2-0.6-0.4-1.2-0.6-1.8C65.7,188.8,66.3,188.7,66.9,188.6z"/>
<path class="st6" d="M95,189.4c-4.7,1.7-9.5,3.1-14.4,4.3c0.4,0.9,0.8,1.8,1.1,2.7c5-1.2,9.8-2.7,14.6-4.4
	C95.9,191.2,95.4,190.3,95,189.4z"/>
<path class="st8" d="M60.4,205.6v7.1c0,1.1,12.8,2.1,28.5,2.1c15.7,0,28.5-0.9,28.5-2.1v-7.1H60.4z"/>
<path class="st9" d="M81,214.7v-9.1H60.4v7.1C60.4,213.6,69.1,214.4,81,214.7z"/>
<path class="st9" d="M81.9,214.7c2.2,0,4.5,0.1,6.9,0.1c3.6,0,7,0,10.1-0.1v-9h-17V214.7z"/>
<path class="st9" d="M100.1,214.6c10.2-0.3,17.3-1,17.3-1.9v-7.1h-17.3V214.6z"/>
<ellipse class="st8" cx="88.8" cy="205.5" rx="28.5" ry="2.1"/>
<path class="st10" d="M112.3,205.5c0,0.8-10.5,1.4-23.5,1.4s-23.5-0.6-23.5-1.4c0-0.8,10.5-1.4,23.5-1.4S112.3,204.8,112.3,205.5z"
	/>
<path class="st8" d="M55.5,198.1v7.1c0,1.1,12.8,2.1,28.5,2.1s28.5-0.9,28.5-2.1v-7.1H55.5z"/>
<path class="st9" d="M76.1,207.2v-9.1H55.5v7.1C55.5,206.2,64.2,207,76.1,207.2z"/>
<path class="st9" d="M77.1,207.2c2.2,0,4.5,0.1,6.9,0.1c3.6,0,7,0,10.1-0.1v-9h-17V207.2z"/>
<path class="st9" d="M95.2,207.1c10.2-0.3,17.3-1,17.3-1.9v-7.1H95.2V207.1z"/>
<ellipse class="st8" cx="84" cy="198.1" rx="28.5" ry="2.1"/>
<path class="st10" d="M107.4,198.1c0,0.8-10.5,1.4-23.5,1.4c-13,0-23.5-0.6-23.5-1.4c0-0.8,10.5-1.4,23.5-1.4
	C96.9,196.6,107.4,197.3,107.4,198.1z"/>
<path class="st8" d="M58.7,190.5v7.1c0,1.1,12.8,2.1,28.5,2.1s28.5-0.9,28.5-2.1v-7.1H58.7z"/>
<path class="st9" d="M79.3,199.5v-9.1H58.7v7.1C58.7,198.5,67.4,199.3,79.3,199.5z"/>
<path class="st9" d="M80.3,199.5c2.2,0,4.5,0.1,6.9,0.1c3.6,0,7,0,10.1-0.1v-9h-17V199.5z"/>
<path class="st9" d="M98.4,199.4c10.2-0.3,17.3-1,17.3-1.9v-7.1H98.4V199.4z"/>
<ellipse class="st8" cx="87.2" cy="190.4" rx="28.5" ry="2.1"/>
<path class="st10" d="M110.7,190.4c0,0.8-10.5,1.4-23.5,1.4c-13,0-23.5-0.6-23.5-1.4c0-0.8,10.5-1.4,23.5-1.4
	C100.2,188.9,110.7,189.6,110.7,190.4z"/>
<path class="st8" d="M55.5,182.9v7.1c0,1.1,12.8,2.1,28.5,2.1s28.5-0.9,28.5-2.1v-7.1H55.5z"/>
<path class="st9" d="M76.1,191.9v-9.1H55.5v7.1C55.5,190.9,64.2,191.7,76.1,191.9z"/>
<path class="st9" d="M77.1,192c2.2,0,4.5,0.1,6.9,0.1c3.6,0,7,0,10.1-0.1v-9h-17V192z"/>
<path class="st9" d="M95.2,191.9c10.2-0.3,17.3-1,17.3-1.9v-7.1H95.2V191.9z"/>
<ellipse class="st8" cx="84" cy="182.8" rx="28.5" ry="2.1"/>
<path class="st10" d="M107.4,182.8c0,0.8-10.5,1.4-23.5,1.4c-13,0-23.5-0.6-23.5-1.4c0-0.8,10.5-1.4,23.5-1.4
	C96.9,181.4,107.4,182,107.4,182.8z"/>
<path class="st8" d="M255,205v6.8c0,1.1-12.3,2-27.4,2c-15.1,0-27.4-0.9-27.4-2V205H255z"/>
<path class="st9" d="M235.1,213.7V205H255v6.8C255,212.7,246.6,213.5,235.1,213.7z"/>
<path class="st9" d="M234.2,213.8c-2.1,0-4.4,0.1-6.6,0.1c-3.4,0-6.7,0-9.7-0.1V205h16.4V213.8z"/>
<path class="st9" d="M216.8,213.6c-9.8-0.3-16.6-1-16.6-1.8V205h16.6V213.6z"/>
<ellipse class="st8" cx="227.6" cy="204.9" rx="27.4" ry="2"/>
<path class="st10" d="M205,204.9c0,0.8,10.1,1.4,22.6,1.4c12.5,0,22.6-0.6,22.6-1.4c0-0.8-10.1-1.4-22.6-1.4
	C215.1,203.6,205,204.2,205,204.9z"/>
<path class="st8" d="M259.6,197.8v6.8c0,1.1-12.3,2-27.4,2c-15.1,0-27.4-0.9-27.4-2v-6.8H259.6z"/>
<path class="st9" d="M239.8,206.5v-8.7h19.8v6.8C259.6,205.5,251.3,206.3,239.8,206.5z"/>
<path class="st9" d="M238.9,206.6c-2.1,0-4.4,0.1-6.6,0.1c-3.4,0-6.7,0-9.7-0.1v-8.7h16.4V206.6z"/>
<path class="st9" d="M221.4,206.5c-9.8-0.3-16.6-1-16.6-1.8v-6.8h16.6V206.5z"/>
<ellipse class="st8" cx="232.2" cy="197.7" rx="27.4" ry="2"/>
<ellipse class="st10" cx="232.2" cy="197.7" rx="22.6" ry="1.4"/>
<path class="st8" d="M256.5,190.4v6.8c0,1.1-12.3,2-27.4,2c-15.1,0-27.4-0.9-27.4-2v-6.8H256.5z"/>
<path class="st9" d="M236.7,199.1v-8.7h19.8v6.8C256.5,198.1,248.1,198.9,236.7,199.1z"/>
<path class="st9" d="M235.8,199.2c-2.1,0-4.4,0.1-6.6,0.1c-3.4,0-6.7,0-9.7-0.1v-8.7h16.4V199.2z"/>
<path class="st9" d="M218.3,199.1c-9.8-0.3-16.6-1-16.6-1.8v-6.8h16.6V199.1z"/>
<ellipse class="st8" cx="229.1" cy="190.4" rx="27.4" ry="2"/>
<ellipse class="st10" cx="229.1" cy="190.4" rx="22.6" ry="1.4"/>
<path class="st8" d="M259.6,183.1v6.8c0,1.1-12.3,2-27.4,2c-15.1,0-27.4-0.9-27.4-2v-6.8H259.6z"/>
<path class="st9" d="M239.8,191.9v-8.7h19.8v6.8C259.6,190.9,251.3,191.6,239.8,191.9z"/>
<path class="st9" d="M238.9,191.9c-2.1,0-4.4,0.1-6.6,0.1c-3.4,0-6.7,0-9.7-0.1v-8.7h16.4V191.9z"/>
<path class="st9" d="M221.4,191.8c-9.8-0.3-16.6-1-16.6-1.8v-6.8h16.6V191.8z"/>
<ellipse class="st8" cx="232.2" cy="183.1" rx="27.4" ry="2"/>
<ellipse class="st10" cx="232.2" cy="183.1" rx="22.6" ry="1.4"/>
<path class="st8" d="M272.4,174.9l-1.6,5.7c-0.3,0.9-10.8-1.3-23.6-4.9c-12.8-3.7-22.9-7.4-22.7-8.3l1.6-5.7L272.4,174.9z"/>
<path class="st9" d="M253.5,177.4l2.1-7.4l16.8,4.8l-1.6,5.7C270.5,181.4,263.3,180,253.5,177.4z"/>
<path class="st9" d="M252.8,177.2c-1.8-0.5-3.7-1-5.6-1.6c-2.9-0.8-5.6-1.7-8.2-2.5l2.1-7.3l13.8,4L252.8,177.2z"/>
<path class="st9" d="M238,172.9c-8.2-2.6-13.8-4.9-13.6-5.6l1.6-5.7l14,4L238,172.9z"/>
<path class="st8" d="M226.1,161.6c-0.3,0.9,9.9,4.7,22.7,8.3c12.8,3.7,23.4,5.9,23.6,4.9c0.3-0.9-9.9-4.7-22.7-8.3
	C237,162.8,226.4,160.6,226.1,161.6z"/>
<path class="st10" d="M230.2,162.7c-0.2,0.6,8.2,3.6,18.7,6.6c10.5,3,19.2,4.9,19.4,4.3c0.2-0.6-8.2-3.6-18.7-6.6
	C239.1,164,230.4,162.1,230.2,162.7z"/>
<path class="st8" d="M257.4,135.3l1.8,5.7c0.3,0.9-9.8,4.8-22.5,8.7c-12.7,3.9-23.2,6.3-23.5,5.4l-1.8-5.7L257.4,135.3z"/>
<path class="st9" d="M243,147.8l-2.2-7.3l16.7-5.1l1.8,5.7C259.4,141.8,252.6,144.6,243,147.8z"/>
<path class="st9" d="M242.2,148c-1.8,0.6-3.6,1.2-5.6,1.8c-2.9,0.9-5.6,1.7-8.2,2.4l-2.2-7.3l13.7-4.2L242.2,148z"/>
<path class="st9" d="M227.6,152.4c-8.3,2.3-14.2,3.4-14.4,2.7l-1.8-5.7l13.9-4.3L227.6,152.4z"/>
<path class="st8" d="M211.4,149.4c0.3,0.9,10.8-1.5,23.5-5.4c12.7-3.9,22.8-7.8,22.5-8.7c-0.3-0.9-10.8,1.5-23.5,5.4
	C221.2,144.6,211.1,148.5,211.4,149.4z"/>
<path class="st10" d="M215.4,148.1c0.2,0.6,8.8-1.4,19.3-4.7c10.5-3.2,18.8-6.3,18.6-7c-0.2-0.6-8.8,1.4-19.3,4.7
	C223.6,144.4,215.2,147.5,215.4,148.1z"/>
<path class="st11" d="M107.2,206.4c0,0,0.7,3.6,0.7,3.6c0,0.5,0,1.7,0.1,2.1c0.4,1.5,6.8-2.2,5.1-2.5c-0.2,0-1.3-1.2-1.5-1.6
	c-0.4-0.8-0.9-2.4-0.9-2.4L107.2,206.4z"/>
<path class="st12" d="M112.8,209.4c0,0-1.7,0.4-2.5,0.5c-0.8,0.1-1.9-1.2-2.5-1c-0.7,0.3-1,4.5-1,4.5s10.7,0.5,13.2-0.2
	C120.9,212.9,116.1,210.6,112.8,209.4z"/>
<path class="st11" d="M122.1,206.3c0,0,0.7,3.6,0.7,3.6c0,0.5,0,1.7,0.1,2.1c0.4,1.5,6.7-2,5-2.3c-0.2,0-1.1-1.4-1.4-1.9
	c-0.4-0.8-0.9-2.4-0.9-2.4L122.1,206.3z"/>
<path class="st12" d="M127.5,209.4c0,0-1.7,0.4-2.5,0.5c-0.8,0.1-1.9-1.2-2.5-1c-0.7,0.3-1,4.5-1,4.5s10.7,0.5,13.2-0.2
	C135.6,212.9,130.9,210.6,127.5,209.4z"/>
<path class="st7" d="M85.1,170.3l19.4-4.5c0,0,8.7-2.3,10.8,0.4c2.1,2.7,11,40,11,40s-4.6,0.4-4.9,0.2l-10.8-19.1
	c-1-1.8-1.7-3.8-2-5.9l-0.8-5.5l-7.9,2.3c0,0-9.1,2-12.8-0.3S85.1,170.3,85.1,170.3z"/>
<path class="st9" d="M92.5,136.9c0.3,0,1.1,0.3,2.4,2.6c1.6,3,3.9,11.9,3.9,11.9l-6.8,2.5l-0.9-1.9l-1.4-14.3
	C89.6,137.7,92.5,136.8,92.5,136.9z"/>
<path class="st10" d="M83.5,135.6c2,0,6.8,0.6,9,1.3c0,0,1.6,14.1-1.5,24.9c-0.7,2.4,0.6,10,0.6,10l-20.3-0.3c0,0,2.4-18.3,1.5-21.2
	c-0.9-3-0.9-13.2-0.9-13.2s0.1,0,4.6-0.8C78.6,135.8,81.4,135.6,83.5,135.6z"/>
<path class="st11" d="M71.7,138.5c1.9-0.7,2.8,16.3,3.1,23.3c3.4,0.3,9.2,0,10.7-0.1c0.7-0.1,2.3-0.6,2.9-0.7
	c0.7-0.1,1.3-0.1,1.7-0.1c0.1,0,3.6,1.4,3.9,1.8c0.4,0.4,1.4,1.4,1.2,1.8c-0.2,0.4-1.9-1.2-1.9-1.2l-0.9-0.5c1.1,1,3.1,2.4,2.8,2.9
	c-0.3,0.5-2.1-0.9-3.4-1.9c1.1,1,2.5,2.8,2.2,3.1c-0.3,0.3-1.9-1.8-3.6-2.5c-0.6-0.2-1.3,0.4-1.8,0.5c-0.4,0.1-0.9,0.2-1.3,0.1
	l-1.7-0.2c-0.6,0.1-0.8,0.1-1.4,0.2c-0.7,0.2-1.9,0.3-2.9,0.5c-5.4,1.3-7.2,1.9-8.8,1.9C67.5,167.6,67.3,140.2,71.7,138.5z"/>
<path class="st9" d="M68.1,154.5c-0.4-7.2-0.3-16,3.7-17.5c1.6-0.6,4.4,3,3.9,17.7C73.6,154.8,70.4,155,68.1,154.5z"/>
<path class="st12" d="M113.1,150.1L94,151.4c-0.5,0-0.9,0.4-1.1,0.8l-4.9,14.7l-10.5,0.7c-0.3,0-0.5,0.3-0.5,0.6l0,0
	c0,0.3,0.3,0.5,0.6,0.5l30-2c0.8-0.1,1.5-0.6,1.8-1.4l5.1-13.6C114.6,150.9,114,150,113.1,150.1z"/>
<path class="st13" d="M103.6,159.2c0,0.7-0.5,1.2-1.1,1.1c-0.6,0-1-0.6-1-1.2c0-0.7,0.5-1.2,1.1-1.1
	C103.2,158,103.6,158.5,103.6,159.2z"/>
<path class="st14" d="M71.4,171l21.1-3.6c0,0,9.1-1.4,11.2,1.3c2.1,2.7,8.2,37.7,8.2,37.7s-4.6,0.4-4.9,0.2
	c-0.2-0.2-5.8-11.8-8.3-17.1c-0.8-1.7-1.4-3.4-1.7-5.3l-0.8-4.8l-2.7,0.9c-4.7,1.6-9.7,2.2-14.6,1.6c-2.1-0.3-4-0.7-5.2-1.4
	C70.2,178.2,71.4,171,71.4,171z"/>
<path class="st11" d="M84.3,133l0.4,3.1c0,0,0.9,4.4-0.3,5.2c-1.2,0.8-5-5.4-5-5.4l0.4-7.7L84.3,133z"/>
<path class="st12" d="M79.7,130.7c1,2.6,3.3,4.3,5,4.9l-0.3-2.6l-4.5-4.8L79.7,130.7z"/>
<path class="st11" d="M84.1,119.8c2.5-0.4,4.8,1.6,4.7,4.1c0,1.1-0.1,2.4-0.3,3.9c-0.5,3.5-3,6.6-4.6,6.3c-1.6-0.3-5.6-3.3-4.9-8.3
	C79.4,122.7,81.4,120.2,84.1,119.8z"/>
<path class="st11" d="M80.1,126.4c-0.1,0.8-0.8,1.3-1.4,1.2c-0.6-0.1-1-0.8-0.9-1.6c0.1-0.8,0.8-1.3,1.4-1.2
	C79.8,124.9,80.2,125.6,80.1,126.4z"/>
<path class="st7" d="M79.2,124.8c0,0,1.9,0.5,2.6-0.8c0.7-1.2,3.3-3.9,6.5-2.8c3.3,1.1-2.9-2.7-3.1-2.7c-0.3,0-3.4,0-3.4,0
	s-2.4,2-2.5,2.2c-0.1,0.2-0.8,2.6-0.8,2.6L79.2,124.8z"/>
<rect x="173.7" y="196" transform="matrix(-1 -1.224647e-16 1.224647e-16 -1 395.3163 409.5311)" class="st6" width="48" height="17.5"/>
<rect x="173.7" y="198.6" transform="matrix(-1 -1.224647e-16 1.224647e-16 -1 395.3163 399.4006)" class="st5" width="48" height="2.2"/>
<rect x="173.7" y="203" transform="matrix(-1 -1.224647e-16 1.224647e-16 -1 395.3163 408.1803)" class="st5" width="48" height="2.2"/>
<rect x="173.7" y="207.4" transform="matrix(-1 -1.224647e-16 1.224647e-16 -1 395.3163 416.9601)" class="st5" width="48" height="2.2"/>
<rect x="173.7" y="211.3" transform="matrix(-1 -1.224647e-16 1.224647e-16 -1 395.3163 424.7535)" class="st5" width="48" height="2.2"/>
<rect x="191.5" y="196" transform="matrix(-1 -1.224647e-16 1.224647e-16 -1 393.0362 409.5311)" class="st10" width="10" height="17.5"/>
<rect x="221.1" y="196" transform="matrix(-1 -1.224647e-16 1.224647e-16 -1 449.3992 409.5311)" class="st4" width="7.2" height="17.5"/>
<rect x="9.8" y="213.3" class="st7" width="265.2" height="1.5"/>
<path class="st15" d="M122.4,82.1c-0.5-2.1-2.4-3.7-4.6-3.7c-0.4,0-0.8,0.1-1.2,0.2c-1.1-2.4-3.5-4-6.4-4c-0.7,0-1.4,0.1-2.1,0.3
	c-1.5-2.5-4.3-4.2-7.4-4.2c-3.7,0-6.9,2.4-8.1,5.7c-0.9-0.5-1.8-0.7-2.9-0.7c-3.3,0-5.9,2.7-5.9,5.9c0,0.2,0,0.4,0,0.6H122.4z"/>
<path class="st15" d="M139.8,105.6c-0.4-1.6-1.8-2.8-3.5-2.8c-0.3,0-0.6,0-0.9,0.1c-0.8-1.8-2.7-3.1-4.8-3.1c-0.6,0-1.1,0.1-1.6,0.2
	c-1.1-1.9-3.2-3.2-5.6-3.2c-2.8,0-5.2,1.8-6.2,4.3c-0.6-0.4-1.4-0.6-2.2-0.6c-2.5,0-4.5,2-4.5,4.5c0,0.1,0,0.3,0,0.4H139.8z"/>
<path class="st15" d="M58.5,102.3c0.3-1.4,1.6-2.4,3.1-2.4c0.3,0,0.5,0,0.8,0.1c0.7-1.6,2.3-2.7,4.2-2.7c0.5,0,0.9,0.1,1.4,0.2
	c1-1.7,2.8-2.8,4.9-2.8c2.5,0,4.6,1.6,5.4,3.8c0.6-0.3,1.2-0.5,1.9-0.5c2.2,0,3.9,1.8,3.9,3.9c0,0.1,0,0.3,0,0.4H58.5z"/>
<path class="st6" d="M112.4,122.2l0.3,4.1l2.4-2.7l7.8-6.4l-6.6,2.1c0,0-3.3,1.6-3.4,1.8C112.7,121.4,112.4,122.2,112.4,122.2z"/>
<polygon class="st5" points="108.9,120.5 122.9,117.3 112.4,122.2 "/>
<polygon class="st5" points="117.8,125.3 113.5,123.2 122.9,117.3 "/>
<path class="st4" d="M110.8,124.5c0.6-0.2,1.1-0.3,1.1-0.3l0-0.3c0,0-0.5,0.1-1.2,0.3L110.8,124.5z"/>
<path class="st4" d="M103.8,149c0.6-0.5,1.1-1.1,1.5-1.7l0.2,0.2c-0.5,0.6-1,1.2-1.6,1.7L103.8,149z M106.5,145.4
	c0.1-0.3,0.3-0.6,0.4-1c0.1-0.4,0.3-0.8,0.4-1.2l0.3,0.1c-0.1,0.4-0.2,0.8-0.4,1.2c-0.1,0.3-0.3,0.7-0.4,1L106.5,145.4z
	 M107.7,138.8l0.3,0c0,0.8,0,1.6-0.1,2.3l-0.3,0C107.7,140.4,107.8,139.6,107.7,138.8z M107.3,134.3l0.3,0c0.1,0.9,0.2,1.6,0.3,2.3
	l-0.3,0C107.5,135.9,107.4,135.1,107.3,134.3z M107,132c-0.1-0.8-0.2-1.6-0.1-2.3l0.3,0c0,0.7,0,1.4,0.1,2.2l0,0L107,132L107,132z
	 M107.4,127.4c0.3-0.7,0.7-1.4,1.3-1.9l0.2,0.2c-0.5,0.5-1,1.1-1.2,1.8L107.4,127.4z"/>
</svg>
