<?xml version="1.0" encoding="utf-8"?>
<!-- Generator: Adobe Illustrator 24.2.0, SVG Export Plug-In . SVG Version: 6.00 Build 0)  -->
<svg version="1.1" id="logo_firjan" xmlns="http://www.w3.org/2000/svg" xmlns:xlink="http://www.w3.org/1999/xlink" x="0px"
	 y="0px" viewBox="0 0 1920 1080" style="enable-background:new 0 0 1920 1080;" xml:space="preserve">
<style type="text/css">
	.st0{fill:#0036CC;}
	.st1{fill:#393230;}
</style>
<path class="st0" d="M1323.4,476.4c-326.4,0-381.5,159.5-725.3,159.5v79.8c362.7,0,420.3-159.6,725.3-159.6V476.4z M1323.4,635.9
	c-326.4,0-381.5,159.6-725.3,159.6v79.7c362.7,0,420.3-159.5,725.3-159.5V635.9z M1323.4,875.3c-305,0-362.6,159.6-725.3,159.6
	v-79.8c343.8,0,398.9-159.6,725.3-159.6V875.3z"/>
<path class="st0" d="M1425.8,393.2c-7.5-3.1-14.4-7.9-20.6-14.1l16.4-20.3c4.3,4.7,8.9,8.2,13.9,10.6c5,2.4,9.6,3.6,14,3.6
	c3.1,0,5.7-0.4,7.7-1.3c2.1-0.9,3.5-2,4.4-3.5c0.8-1.4,1.3-3,1.3-4.9c0-3.2-1.2-5.7-3.7-7.6c-2.4-1.9-7.1-3.9-14-6.2
	c-2.9-1-5.4-1.9-7.7-2.8c-2.3-0.9-4.7-2-7.3-3.3c-2.6-1.3-4.9-2.7-6.8-4.1c-1.9-1.4-3.8-3-5.7-5c-1.9-1.9-3.4-4-4.6-6.1
	c-1.2-2.2-2.1-4.7-2.8-7.5c-0.7-2.8-1.1-5.9-1.1-9.1c0-6.5,1.7-12.4,5.2-17.7c3.4-5.3,8.1-9.5,14.1-12.6c5.9-3.1,12.5-4.6,19.6-4.8
	c14.8-0.2,28.5,4.9,41.2,15.5l-15.9,20.7c-9.4-7.6-17.6-11.4-24.4-11.4c-3.3,0-5.9,0.8-7.9,2.4c-1.9,1.6-2.9,3.9-3,6.8
	c-0.1,2.6,1.1,4.8,3.5,6.5c2.4,1.8,7,3.9,13.7,6.5c10,3.9,16.7,6.7,20.2,8.7c7.3,4.1,12.1,9.2,14.4,15.3c1.4,3.6,2,7.8,2,12.5
	c0,5.4-0.9,10.3-2.7,14.6c-1.8,4.4-4.1,8-7,10.8c-2.9,2.8-6.3,5.2-10.1,7.2c-3.8,2-7.7,3.3-11.6,4.1c-3.9,0.8-7.8,1.2-11.7,1.2
	C1441,397.9,1433.3,396.3,1425.8,393.2"/>
<polygon class="st0" points="1506.8,277.9 1584,277.9 1584,302.8 1534.1,302.8 1534.1,325.5 1573.6,325.5 1573.6,350 1534.1,350 
	1534.1,371.5 1587.5,371.5 1587.5,396.3 1506.8,396.3 "/>
<polygon class="st0" points="1705.3,277.9 1705.3,396.3 1676.6,396.3 1631.7,325.4 1631.4,325.4 1631.4,396.3 1603.7,396.3 
	1603.7,277.9 1631.6,277.9 1677.2,350.6 1677.5,350.6 1677.5,277.9 "/>
<path class="st0" d="M1786.4,351.5l-13-39.9h-0.3l-12.9,39.9H1786.4z M1794,375.1h-41.6l-6.8,21.1h-29.1l43.4-118.3h26.7l43.5,118.3
	h-29.1L1794,375.1z"/>
<rect x="1841.9" y="277.9" class="st0" width="28.1" height="118.4"/>
<path class="st0" d="M1425.8,553.4c-7.5-3.1-14.4-7.9-20.6-14.1l16.4-20.3c4.3,4.7,8.9,8.2,13.9,10.6c5,2.4,9.6,3.6,14,3.6
	c3.1,0,5.7-0.4,7.7-1.3c2.1-0.9,3.5-2,4.4-3.5c0.8-1.4,1.3-3,1.3-4.9c0-3.2-1.2-5.7-3.7-7.6c-2.4-1.9-7.1-3.9-14-6.2
	c-2.9-1-5.4-1.9-7.7-2.8c-2.3-0.9-4.7-2-7.3-3.3c-2.6-1.3-4.9-2.7-6.8-4.1c-1.9-1.4-3.8-3-5.7-5c-1.9-1.9-3.4-4-4.6-6.1
	c-1.2-2.2-2.1-4.7-2.8-7.5c-0.7-2.8-1.1-5.9-1.1-9.1c0-6.5,1.7-12.4,5.2-17.7c3.4-5.3,8.1-9.5,14.1-12.6c5.9-3.1,12.5-4.7,19.6-4.8
	c14.8-0.2,28.5,4.9,41.2,15.5l-15.9,20.7c-9.4-7.6-17.6-11.4-24.4-11.4c-3.3,0-5.9,0.8-7.9,2.4c-1.9,1.6-2.9,3.9-3,6.7
	c-0.1,2.6,1.1,4.8,3.5,6.6c2.4,1.8,7,3.9,13.7,6.5c10,3.9,16.7,6.7,20.2,8.7c7.3,4.1,12.1,9.2,14.4,15.3c1.4,3.6,2,7.8,2,12.5
	c0,5.4-0.9,10.3-2.7,14.6c-1.8,4.4-4.1,8-7,10.8c-2.9,2.8-6.3,5.2-10.1,7.2c-3.8,2-7.7,3.3-11.6,4.1c-3.9,0.8-7.8,1.2-11.7,1.2
	C1441,558.1,1433.3,556.5,1425.8,553.4"/>
<polygon class="st0" points="1506.8,438.1 1584,438.1 1584,463 1534.1,463 1534.1,485.7 1573.6,485.7 1573.6,510.2 1534.1,510.2 
	1534.1,531.7 1587.5,531.7 1587.5,556.5 1506.8,556.5 "/>
<path class="st0" d="M1616.8,553.4c-7.5-3.1-14.4-7.9-20.6-14.1l16.4-20.3c4.3,4.7,8.9,8.2,13.9,10.6c5,2.4,9.6,3.6,14,3.6
	c3.1,0,5.7-0.4,7.7-1.3c2.1-0.9,3.5-2,4.4-3.5c0.8-1.4,1.3-3,1.3-4.9c0-3.2-1.2-5.7-3.7-7.6c-2.4-1.9-7.1-3.9-14-6.2
	c-2.9-1-5.4-1.9-7.7-2.8c-2.3-0.9-4.7-2-7.3-3.3c-2.6-1.3-4.9-2.7-6.8-4.1c-1.9-1.4-3.8-3-5.7-5c-1.9-1.9-3.4-4-4.6-6.1
	c-1.2-2.2-2.1-4.7-2.8-7.5c-0.7-2.8-1.1-5.9-1.1-9.1c0-6.5,1.7-12.4,5.2-17.7c3.4-5.3,8.1-9.5,14.1-12.6c5.9-3.1,12.5-4.7,19.6-4.8
	c14.8-0.2,28.5,4.9,41.2,15.5l-15.9,20.7c-9.4-7.6-17.6-11.4-24.4-11.4c-3.3,0-5.9,0.8-7.9,2.4c-1.9,1.6-2.9,3.9-3,6.7
	c-0.1,2.6,1.1,4.8,3.5,6.6c2.4,1.8,7,3.9,13.7,6.5c10,3.9,16.7,6.7,20.2,8.7c7.3,4.1,12.1,9.2,14.4,15.3c1.4,3.6,2,7.8,2,12.5
	c0,5.4-0.9,10.3-2.7,14.6c-1.8,4.4-4.1,8-7,10.8c-2.9,2.8-6.3,5.2-10.1,7.2c-3.8,2-7.7,3.3-11.5,4.1c-3.9,0.8-7.8,1.2-11.8,1.2
	C1632,558.1,1624.3,556.5,1616.8,553.4"/>
<rect x="1698.6" y="438.1" class="st0" width="28.1" height="118.4"/>
<rect x="1413.4" y="598.3" class="st0" width="28.1" height="118.4"/>
<polygon class="st0" points="1462.8,598.3 1540.1,598.3 1540.1,623.2 1490.2,623.2 1490.2,645.9 1529.6,645.9 1529.6,670.4 
	1490.2,670.4 1490.2,691.9 1543.6,691.9 1543.6,716.7 1462.8,716.7 "/>
<polygon class="st0" points="1559.7,598.3 1587.7,598.3 1587.7,691.9 1637.3,691.9 1637.3,716.7 1559.7,716.7 "/>
<path class="st0" d="M1450.4,875.8c-6-1.7-11.6-4.1-16.7-7.5c-5.1-3.3-9.5-7.4-13.3-12.1c-3.8-4.7-6.7-10.4-8.9-16.9
	c-2.1-6.5-3.2-13.6-3.2-21.3c0-6.8,0.9-13.2,2.6-19.4c1.7-6.1,4.3-11.7,7.7-16.8c3.4-5.1,7.5-9.5,12.4-13.2c4.8-3.7,10.5-6.6,17-8.7
	c6.5-2.1,13.6-3.1,21.3-3.1c5.6,0,11.1,0.8,16.6,2.3c5.5,1.5,11,4.1,16.5,7.6c5.5,3.5,10.4,7.8,14.6,13l-20.4,17.4
	c-3.3-3.8-7.2-7.1-12-9.7c-4.7-2.6-9.8-3.9-15.3-3.9c-2.9,0-5.7,0.4-8.4,1.1c-2.7,0.7-5.2,1.7-7.6,3c-2.3,1.3-4.5,3-6.4,5
	c-2,2-3.6,4.3-5,6.8c-1.4,2.5-2.4,5.4-3.2,8.5c-0.8,3.2-1.1,6.5-1.1,10.1c0,6.2,1.3,11.9,3.9,17c2.6,5.1,6.3,9.1,11.2,12.2
	c4.9,3,10.4,4.5,16.7,4.5c5.2,0,10.2-1.2,15.1-3.7c4.9-2.5,8.9-5.7,12.2-9.8l20.4,17.5c-5.4,6.8-12.2,12.2-20.4,16.4
	c-8.2,4.2-17.3,6.2-27.3,6.2C1462.7,878.3,1456.4,877.5,1450.4,875.8"/>
<rect x="1531.4" y="758.5" class="st0" width="28.1" height="118.4"/>
<path class="st0" d="M1608.4,814.3h12.8c6,0,10.7-1.4,14.1-4.2c3.4-2.8,5.2-6.6,5.2-11.4c0-4.6-1.7-8.4-4.9-11.2
	c-3.3-2.9-7.9-4.3-13.9-4.3h-13.3V814.3z M1642.4,876.9l-24.2-38.1h-9.7v38.1H1581V758.5h46.1c7.1,0,13.4,1,18.9,3
	c5.5,2,9.9,4.9,13.3,8.6c3.4,3.7,5.9,8,7.6,12.9c1.7,4.9,2.6,10.3,2.6,16.3c0,8.8-1.9,16.2-5.7,22.1c-3.8,6-9.2,10.4-16.3,13.3v0.4
	l27.7,41.7H1642.4z"/>
<path class="st0" d="M1693.4,874.5c-5.9-2.7-10.8-6.6-14.7-11.6l16-19.6c1.2,1.6,2.6,3,4.1,4.3c1.5,1.3,3.3,2.3,5.2,3.2
	c2,0.8,3.9,1.3,5.8,1.3c8,0,12-5.7,12-17.2v-76.2h27.9V834c0,5.5-0.4,10.4-1.2,14.8c-0.8,4.4-2.2,8.5-4,12.2
	c-1.9,3.7-4.3,6.9-7.2,9.4c-2.9,2.5-6.5,4.5-10.8,5.9c-4.3,1.4-9.2,2.1-14.7,2.1C1705.5,878.5,1699.4,877.1,1693.4,874.5"/>
<path class="st1" d="M1298.9,306.1c0,19.7,4,26.7,16.6,26.7h5l3-0.5v63.5c-6,2.5-17.2,3.5-32.8,3.5c-44.8,0-67-24.2-67-72.6v-55.1
	c0-33.4-13.4-51.8-36.8-51.8c-23.4,0-44.2,16.9-44.2,58v118.4h-75.3V160.5h75.3V189h0.5c9.3-10.7,20-18.8,32.2-24.5
	c12.2-5.6,25.3-8.5,39.1-8.5c12.9,0,24.2,1.7,34.1,5.1c9.9,3.4,18.7,8.8,26.5,16.3c7.8,7.5,13.7,17.8,17.8,30.8
	c4.1,13,6.1,28.5,6.1,46.6L1298.9,306.1z M917.7,321c10.1-10.8,15.1-24.8,15.1-42.1c0-11.2-2.3-21.3-6.8-30.3
	c-4.5-9-10.8-16-18.8-21c-8-5-16.8-7.5-26.6-7.5c-15.3,0-28,5.4-38,16.3c-10,10.9-15.1,25-15.1,42.5c0,17.3,4.9,31.3,14.8,42.1
	c9.9,10.8,22.6,16.2,38,16.2C895.2,337.2,907.6,331.8,917.7,321 M445.9,396.3V160.5h75.3v34.8c11.5-25.7,38.8-40.4,73.7-40.4
	c5,0,11.6,0.6,19.7,1.5v70.7c-7.5-1.5-16.2-2.5-25.2-2.5c-42.9,0-68.1,24.3-68.1,66.1v105.6H445.9z M649.6,116.7
	c-8.6-7.8-12.9-17.8-12.9-30.1c0-12.1,4.3-22,12.9-29.8c8.6-7.8,19.2-11.7,31.9-11.7c12.7,0,23.3,3.9,31.9,11.7
	c8.6,7.8,12.9,17.8,12.9,29.8c0,12.2-4.3,22.2-12.9,30.1c-8.6,7.8-19.2,11.7-31.9,11.7C668.8,128.4,658.2,124.5,649.6,116.7
	 M324.4,118.6c-8.6-7.8-12.9-17.8-12.9-30.1c0-8,2-15.2,6-21.6c4-6.3,9.4-11.3,16.2-14.8c6.8-3.5,14.3-5.2,22.5-5.2
	c12.7,0,23.3,3.9,31.8,11.7c8.6,7.8,12.9,17.8,12.9,29.8c0,12.2-4.3,22.2-12.9,30.1c-8.6,7.8-19.2,11.7-31.8,11.7
	C343.6,130.3,333,126.4,324.4,118.6 M50,53.9h231.5v72H129.3v76.9h125.6v71.5H129.3v121.9H50V53.9z M644.4,160.5h75.1v244.7
	c0,60.6-29.7,90.8-88.7,90.8c-12.5,0-23.2-0.5-32.7-2.1v-65.5c7.6,0.5,12.6,0.9,16.1,0.9c20.7,0,30.3-9,30.3-33.3V160.5z
	 M318.6,160.5h74.8v147.1c0,18.5,4.5,26.5,17,26.5c4.6,0,7.5-0.5,9.1-1v63.8c-6.5,2.5-18.1,4-34.7,4c-44.1,0-66.2-23.6-66.2-71.3
	V160.5z M867.3,400.8c-16,0-30.9-3-44.7-8.9c-13.8-6-25.6-14.2-35.3-24.7c-9.7-10.5-17.3-23.4-22.8-38.6
	c-5.5-15.2-8.2-31.8-8.2-49.9c0-17.7,2.7-34.2,8.2-49.5c5.5-15.3,13-28.3,22.6-38.9c9.6-10.7,21-19,34.2-25
	c13.3-6,27.4-9.1,42.5-9.1c26.5,0,48.2,9.8,64.9,29.4h0.9v-25h75.5v145.7c0,20.2,5.1,28.4,18.9,28.4c3.6,0,8.2-0.5,12.7-1v63
	c-8.2,2.6-19.4,4.1-34.1,4.1c-16.8,0-31.1-3.1-41.7-9.1c-11.6-7.7-19.4-16.8-22.9-27.5h0H937C937,364.1,920.2,400.8,867.3,400.8"/>
</svg>
