<?xml version="1.0" encoding="utf-8"?>
<!-- Generator: Adobe Illustrator 24.2.0, SVG Export Plug-In . SVG Version: 6.00 Build 0)  -->
<svg version="1.1" id="logotipo" xmlns="http://www.w3.org/2000/svg" xmlns:xlink="http://www.w3.org/1999/xlink" x="0px" y="0px"
	 viewBox="0 0 1920 480" style="enable-background:new 0 0 1920 480;" xml:space="preserve">
<style type="text/css">
	.st0{fill:#FFFFFF;}
</style>
<path class="st0" d="M85.1,432.3L10.8,47.7c-2-9.2-0.1-17.2,5.7-24.3c5.8-7,13.2-10.6,22-10.6h35.1c9.6,0,18.3,3.3,26,9.9
	c7.7,6.6,12.1,14.9,13.3,24.9l41,311.2c0,0.4,0.2,0.6,0.6,0.6c0.4,0,0.6-0.2,0.6-0.6l37.5-311.2c1.2-10,5.4-18.3,12.7-24.9
	s15.7-9.9,25.4-9.9h56.8c9.6,0,18.1,3.3,25.4,9.9s11.5,14.9,12.7,24.9L363,358.9c0,0.4,0.2,0.6,0.6,0.6c0.4,0,0.6-0.2,0.6-0.6
	l41.1-311.2c1.2-10,5.6-18.3,13.3-24.9c7.6-6.6,16.3-9.9,26-9.9h32.6c8.8,0,16.1,3.5,21.7,10.6c5.6,7.1,7.7,15.2,6.1,24.3
	l-74.3,384.6c-2,10-6.8,18.3-14.5,24.9c-7.6,6.6-16.5,9.9-26.6,9.9h-51.3c-9.6,0-18.2-3.3-25.7-9.9c-7.5-6.6-11.8-14.9-13-24.9
	l-41-311.2c0-0.4-0.2-0.6-0.6-0.6c-0.4,0-0.6,0.2-0.6,0.6l-41.1,311.2c-1.2,10-5.5,18.3-13,24.9c-7.5,6.6-16,9.9-25.7,9.9h-51.4
	c-10.1,0-19-3.3-26.9-9.9S86.7,442.3,85.1,432.3z"/>
<path class="st0" d="M518.2,467.2c-8.5,0-15.2-3.5-20.2-10.6c-5.1-7-6.2-14.7-3.3-23l122-387.1c3.2-10,9-18.1,17.2-24.3
	c8.2-6.3,17.4-9.3,27.5-9.3h39.9c10.5,0,19.9,3.1,28.4,9.3c8.4,6.2,14.1,14.3,16.9,24.3L868,433.6c2.8,8.3,1.7,16-3.3,23
	c-5.1,7.1-11.8,10.6-20.2,10.6h-40.5c-10.1,0-19.1-3.2-27.2-9.6c-8-6.4-13.3-14.6-15.7-24.6l-14.5-59.1c-0.4-3.3-2.4-5-6-5H619.7
	c-3.2,0-5.3,1.6-6.1,5L599.1,433c-2.4,9.9-7.6,18.1-15.7,24.6c-8,6.4-17.1,9.6-27.2,9.6H518.2z M679.5,104.9l-44.1,178.7
	c-0.4,1.3-0.1,2.4,0.9,3.4c1,1,2.1,1.6,3.3,1.6h80.9c1.2,0,2.3-0.5,3.3-1.6c1-1,1.3-2.2,0.9-3.4l-44.1-178.7c0-0.4-0.2-0.6-0.6-0.6
	C679.7,104.3,679.5,104.5,679.5,104.9z"/>
<path class="st0" d="M957.4,433.6l-122-387.1c-2.8-8.3-1.7-16,3.3-23.1c5-7,11.8-10.6,20.2-10.6h40.5c10,0,19.1,3.2,27.2,9.6
	c8,6.4,13.3,14.6,15.7,24.6l79.1,318.1c0,0.4,0.2,0.6,0.6,0.6c0.4,0,0.6-0.2,0.6-0.6L1104.2,47c2.4-9.9,7.6-18.1,15.7-24.6
	s17.1-9.6,27.2-9.6h38.1c8.4,0,15.2,3.5,20.2,10.6c5,7.1,6.1,14.8,3.3,23.1l-122,387.1c-2.8,9.9-8.4,18.1-16.6,24.3
	c-8.3,6.2-17.7,9.3-28.1,9.3h-39.9c-10.1,0-19.3-3.1-27.5-9.3C966.3,451.6,960.6,443.5,957.4,433.6z"/>
<path class="st0" d="M1298,467.2c-9.3,0-17.2-3.5-23.8-10.6c-6.7-7-9.9-15.3-9.9-24.9V48.3c0-9.6,3.3-17.8,9.9-24.9
	c6.7-7,14.6-10.6,23.8-10.6h213.8c9.3,0,17.2,3.5,23.9,10.6c6.6,7.1,9.9,15.4,9.9,24.9v14.3c0,9.6-3.3,17.8-9.9,24.9
	c-6.7,7.1-14.6,10.6-23.9,10.6h-140.1c-3.2,0-4.8,1.6-4.8,4.9v82.2c0,3.7,1.6,5.6,4.8,5.6h128.1c9.2,0,17.2,3.5,23.8,10.6
	c6.7,7,9.9,15.3,9.9,24.9v9.3c0,9.6-3.3,17.8-9.9,24.9c-6.7,7.1-14.6,10.6-23.8,10.6h-128.1c-3.2,0-4.8,1.6-4.8,5v100.8
	c0,3.3,1.6,5,4.8,5h140.1c9.3,0,17.2,3.5,23.9,10.6c6.6,7,9.9,15.3,9.9,24.9v14.3c0,9.6-3.3,17.8-9.9,24.9
	c-6.7,7.1-14.6,10.6-23.9,10.6H1298z"/>
<path class="st0" d="M1877.7,247.9c-21.6-22.6-60.1-42.4-115.7-59.4c-32.2-10.5-48.3-28.1-48.3-52.7c0-2,0.3-3.7,0.5-5.5
	c0.1-0.8,0.3-1.5,0.4-2.3c0,0-0.1,0.1-0.1,0.1c-15.9,8.8-30.6,21-42.1,35.1l-1.5,1.8c-1.2,1.5-2,2.7-2.9,3.8
	c-1.7,2.3-3.2,4.6-4.7,6.9l-0.6,1c-1.5,2.4-2.9,4.9-4.2,7.4c-0.6,1.1-1.1,2.1-1.6,3.1c-0.7,1.4-1.1,2.4-1.5,3.3
	c-1,2.3-1.9,4.6-2.6,6.9l-0.6,1.9c-0.7,2.2-1.3,4.3-1.7,6.5c-0.6,3.1-1,6-1.1,8.7l0,1.2l0.3,0.3l-0.5,1.1l0.1,11.4
	c22.8,21.9,57.6,40.5,104.9,55.5c18.9,6,32.2,13.3,39.9,21.8c7.7,8.5,11.5,19.4,11.5,32.7c0,14.1-4.8,25.2-14.1,33.3
	c-0.8,0.7-1.6,1.4-2.5,2.1c-11.1,8.3-27.3,12.4-48.6,12.4c-15.5,0-30.9-1.9-46.1-5.6c-9.4-4.4-18.3-9.7-27-15.5
	c-6.3-5.3-12.3-3.9-15.7-0.1c-3.9,4.5-4,12.3,4.1,16.8c5.4,4.6,17.8,7.4,12.1,16.8c-4.8,7.3-11.1,3.5-16.7,0.2
	c-7.7-4.5-15.2-9.6-23-13.9c-2.4-1.1-4.7-1.4-6.7-1.4c-10.4,0.2-13.6,13.3,0.3,22.1c1.4,0.9,3,1.8,4.8,2.6c-1.7,1.3-3,2.6-4,3.9
	c-5.8,7.2-1.4,14,7.8,20.1c5.4,8.5,12.7,14.6,22,18.1c28.2,10.9,59.6,16.4,94.3,16.4c1.3,0,2.5-0.1,3.9-0.1
	c10.5,0.2,21.1-0.3,31.5-1.7c79.5-8.2,122.1-45.7,127.7-112.7c0-0.1,0-0.3,0.1-0.4c0.5-5,0.6-9.9,0.6-14.7c0-0.2,0-0.4,0-0.6
	C1910,300.2,1899.2,270.5,1877.7,247.9z"/>
<path class="st0" d="M1896.1,71.6c0-10.5-2.9-20.1-8.8-28.8c-5.8-8.7-13.6-14.5-23.3-17.3c-21.7-6.1-45.2-9.9-70.5-11.6
	c-8.1-1-16.2-1.2-24.3-0.9c-2.1,0-4-0.2-6.1-0.2c-49.1,0-86.9,11-113.3,33c-26.4,22-39.6,52-39.6,90c0,6.2,0.5,12.3,1.2,18.2
	c3.3,26.9,14.1,50.3,32.6,70c0.1,0.1,0.3,0.2,0.4,0.4c0.1,0.2,0.3,0.3,0.5,0.4c0-2.5,0-4.9-0.1-7.4c-0.3-0.3-0.3-0.6-0.4-0.8
	c0-0.5,0.1-0.9,0.2-1.4c0.1-0.2,0.2-0.4,0.4-0.6c0.1-3.1,0.5-6.2,1.2-9.4c0.5-2.3,1.1-4.5,1.8-6.8c0.2-0.7,0.4-1.4,0.7-2.1
	c0.8-2.4,1.7-4.8,2.7-7.2c0.5-1.2,1.1-2.3,1.6-3.5c0.5-1.1,1.1-2.2,1.6-3.2c1.3-2.6,2.8-5.2,4.3-7.7c0.2-0.4,0.4-0.7,0.7-1.1
	c1.5-2.4,3.1-4.8,4.9-7.2c0.9-1.2,1.7-2.4,2.6-3.5c0.6-0.8,1.2-1.6,1.8-2.3c12.8-15.7,29.3-28.9,46.3-37.7c0-0.1,0.1-0.2,0.1-0.2
	c21.1-10.2,43.5-12.2,62,0.6c11.2,10.3,18.5-7,29,4.9c6.4,6.2,13.6,7.4,20.3,1.3c10.5-10.8-0.5-23.5-10.4-32.2
	c-2.1-1.8-4.1-3.5-5.9-4.9c-4.5-2.9-11.1-6.7-6-14.1c10.8-13.6,36.1,12.6,47.3,28.1c2.2,3,3.8,5.7,4.7,7.5c10,20.5,41.8,9.1,35.8-12
	c2.5-3.5,3.9-7.7,3.9-12.6V71.6z"/>
</svg>
