<?xml version="1.0" encoding="utf-8"?>
<!-- Generator: Adobe Illustrator 24.2.0, SVG Export Plug-In . SVG Version: 6.00 Build 0)  -->
<svg version="1.1" id="Symbol" xmlns="http://www.w3.org/2000/svg" xmlns:xlink="http://www.w3.org/1999/xlink" x="0px" y="0px"
	 viewBox="0 0 300 455" style="enable-background:new 0 0 300 455;" xml:space="preserve">
<style type="text/css">
	.st0{fill:#183660;}
	.st1{fill:#49BEDB;}
</style>
<path class="st0" d="M266.4,235.3c-21.4-22.4-59.6-42-114.6-58.8c-31.9-10.4-47.8-27.8-47.8-52.2c0-2,0.3-3.7,0.5-5.5
	c0.1-0.8,0.3-1.5,0.4-2.3c0,0-0.1,0.1-0.1,0.1c-15.8,8.7-30.3,20.8-41.7,34.8l-1.4,1.8c-1.2,1.5-2,2.7-2.8,3.8
	c-1.7,2.3-3.2,4.6-4.7,6.9l-0.6,1c-1.5,2.4-2.9,4.8-4.1,7.3c-0.6,1.1-1.1,2.1-1.6,3.1c-0.7,1.4-1.1,2.3-1.5,3.3
	c-1,2.3-1.8,4.6-2.6,6.8l-0.6,1.9c-0.7,2.2-1.2,4.3-1.7,6.4c-0.6,3-1,5.9-1.1,8.6l0,1.2l0.3,0.3l-0.5,1.1l0.1,11.3
	c22.6,21.7,57.1,40.1,103.9,55c18.7,6,31.9,13.2,39.5,21.6c7.6,8.4,11.4,19.2,11.4,32.4c0,14-4.7,25-14,33c-0.8,0.7-1.6,1.4-2.5,2.1
	c-11,8.2-27,12.3-48.2,12.3c-15.4,0-30.6-1.9-45.7-5.6c-9.3-4.4-18.2-9.6-26.8-15.4c-6.2-5.3-12.2-3.9-15.5-0.1
	c-3.9,4.4-4,12.2,4,16.7c5.4,4.5,17.7,7.4,12,16.6c-4.8,7.3-11,3.5-16.5,0.2c-7.7-4.5-15-9.5-22.8-13.8c-2.4-1-4.6-1.4-6.6-1.4
	c-10.3,0.2-13.5,13.2,0.3,21.9c1.4,0.9,3,1.8,4.8,2.6c-1.7,1.3-3,2.6-4,3.9c-5.7,7.1-1.3,13.9,7.7,19.9c5.3,8.5,12.5,14.5,21.7,17.9
	c27.9,10.8,59.1,16.2,93.4,16.2c1.3,0,2.5-0.1,3.8-0.1c10.4,0.2,20.9-0.3,31.2-1.7c78.7-8.1,120.9-45.3,126.4-111.6
	c0-0.1,0-0.3,0.1-0.4c0.5-4.9,0.6-9.8,0.6-14.6c0-0.2,0-0.4,0-0.6C298.4,287.1,287.7,257.7,266.4,235.3z"/>
<path class="st1" d="M284.6,60.7c0-10.4-2.9-19.9-8.7-28.5c-5.8-8.6-13.4-14.3-23-17.1c-21.5-6-44.8-9.8-69.8-11.5
	c-8-1-16.1-1.2-24.1-0.9c-2,0-4-0.2-6-0.2c-48.7,0-86.1,10.9-112.2,32.7S1.6,86.7,1.6,124.3c0,6.2,0.5,12.1,1.2,18
	c3.3,26.6,14,49.8,32.3,69.3c0.1,0.1,0.3,0.2,0.4,0.4c0.1,0.2,0.3,0.3,0.5,0.4c0-2.4,0-4.9-0.1-7.3c-0.3-0.3-0.3-0.5-0.4-0.8
	c0-0.5,0.1-0.9,0.2-1.4c0.1-0.2,0.2-0.4,0.4-0.6c0.1-3,0.5-6.1,1.2-9.3c0.5-2.2,1.1-4.5,1.8-6.8c0.2-0.7,0.4-1.4,0.7-2
	c0.8-2.4,1.7-4.7,2.7-7.1c0.5-1.2,1-2.3,1.6-3.4c0.5-1.1,1.1-2.1,1.6-3.2c1.3-2.6,2.8-5.1,4.3-7.6c0.2-0.3,0.4-0.7,0.6-1
	c1.5-2.4,3.1-4.8,4.8-7.1c0.8-1.2,1.7-2.3,2.6-3.5c0.6-0.8,1.2-1.5,1.8-2.3c12.7-15.5,29.1-28.6,45.8-37.4c0-0.1,0.1-0.2,0.1-0.2
	c20.9-10.1,43-12.1,61.4,0.6c11.1,10.2,18.3-7,28.7,4.8c6.4,6.2,13.5,7.3,20.1,1.3c10.4-10.7-0.4-23.2-10.3-31.9
	c-2.1-1.8-4.1-3.5-5.8-4.9c-4.5-2.9-11-6.6-6-13.9c10.7-13.4,35.8,12.5,46.8,27.9c2.1,3,3.8,5.6,4.7,7.4c9.9,20.3,41.4,9,35.4-11.9
	c2.5-3.5,3.9-7.6,3.9-12.4V60.7z"/>
</svg>
